<svg width="960" height="612" viewBox="0 0 960 612" fill="none" xmlns="http://www.w3.org/2000/svg">
<rect width="960" height="612" fill="#F7F7F9"/>
<path d="M19.1494 24.2349H23.8149V26H16.9521V15.3359H19.1494V24.2349ZM27.1768 26H25.0527V18.0752H27.1768V26ZM24.9282 16.0244C24.9282 15.707 25.0332 15.4458 25.2432 15.2407C25.458 15.0356 25.7485 14.9331 26.1147 14.9331C26.4761 14.9331 26.7642 15.0356 26.979 15.2407C27.1938 15.4458 27.3013 15.707 27.3013 16.0244C27.3013 16.3467 27.1914 16.6104 26.9717 16.8154C26.7568 17.0205 26.4712 17.123 26.1147 17.123C25.7583 17.123 25.4702 17.0205 25.2505 16.8154C25.0356 16.6104 24.9282 16.3467 24.9282 16.0244ZM30.8755 18.0752L30.9414 18.9907C31.5078 18.2827 32.2671 17.9287 33.2192 17.9287C34.0591 17.9287 34.6841 18.1753 35.0942 18.6685C35.5044 19.1616 35.7144 19.8989 35.7241 20.8804V26H33.6074V20.9316C33.6074 20.4824 33.5098 20.1577 33.3145 19.9575C33.1191 19.7524 32.7944 19.6499 32.3403 19.6499C31.7446 19.6499 31.2979 19.9038 31 20.4116V26H28.8833V18.0752H30.8755ZM40.2139 22.8213L39.4521 23.583V26H37.3354V14.75H39.4521V20.9829L39.8623 20.4556L41.8911 18.0752H44.4326L41.5688 21.3784L44.6816 26H42.25L40.2139 22.8213ZM48.8491 26.1465C47.687 26.1465 46.7397 25.79 46.0073 25.0771C45.2798 24.3643 44.916 23.4146 44.916 22.228V22.0229C44.916 21.2271 45.0698 20.5166 45.3774 19.8916C45.6851 19.2617 46.1196 18.7783 46.6812 18.4414C47.2476 18.0996 47.8921 17.9287 48.6147 17.9287C49.6987 17.9287 50.5508 18.2705 51.1709 18.9541C51.7959 19.6377 52.1084 20.6069 52.1084 21.8618V22.7261H47.062C47.1304 23.2437 47.3354 23.6587 47.6772 23.9712C48.0239 24.2837 48.4609 24.4399 48.9883 24.4399C49.8037 24.4399 50.4409 24.1445 50.8999 23.5537L51.9399 24.7183C51.6226 25.1675 51.1929 25.519 50.6509 25.7729C50.1089 26.022 49.5083 26.1465 48.8491 26.1465ZM48.6074 19.6426C48.1875 19.6426 47.8457 19.7842 47.582 20.0674C47.3232 20.3506 47.1572 20.7559 47.084 21.2832H50.0283V21.1147C50.0186 20.646 49.8916 20.2847 49.6475 20.0308C49.4033 19.772 49.0566 19.6426 48.6074 19.6426ZM52.9873 21.979C52.9873 20.7437 53.2632 19.7598 53.8149 19.0273C54.3716 18.2949 55.1309 17.9287 56.0928 17.9287C56.8643 17.9287 57.5015 18.2168 58.0044 18.793V14.75H60.1284V26H58.2168L58.1143 25.1577C57.5869 25.8169 56.9082 26.1465 56.0781 26.1465C55.1455 26.1465 54.396 25.7803 53.8296 25.0479C53.2681 24.3105 52.9873 23.2876 52.9873 21.979ZM55.104 22.1328C55.104 22.875 55.2334 23.4438 55.4922 23.8394C55.751 24.2349 56.127 24.4326 56.6201 24.4326C57.2744 24.4326 57.7358 24.1567 58.0044 23.605V20.4775C57.7407 19.9258 57.2842 19.6499 56.6348 19.6499C55.6143 19.6499 55.104 20.4775 55.104 22.1328ZM64.2446 26H62.0474V15.3359H64.2446V26ZM68.0972 18.0752L68.1631 18.9907C68.7295 18.2827 69.4888 17.9287 70.4409 17.9287C71.2808 17.9287 71.9058 18.1753 72.3159 18.6685C72.7261 19.1616 72.936 19.8989 72.9458 20.8804V26H70.8291V20.9316C70.8291 20.4824 70.7314 20.1577 70.5361 19.9575C70.3408 19.7524 70.0161 19.6499 69.562 19.6499C68.9663 19.6499 68.5195 19.9038 68.2217 20.4116V26H66.105V18.0752H68.0972Z" fill="#189DDC"/>
<line x1="17" y1="36" x2="943" y2="36.0001" stroke="#189DDC" stroke-width="2" stroke-linecap="round"/>
<rect x="16" y="107" width="173" height="38" rx="10" fill="#E3F4FC"/>
<path d="M55.6958 126.972C55.6958 125.756 55.9839 124.779 56.5601 124.042C57.1362 123.3 57.8906 122.929 58.8232 122.929C59.751 122.929 60.4858 123.246 61.0278 123.881V119.75H62.3828V131H61.1377L61.0718 130.15C60.5298 130.814 59.7754 131.146 58.8086 131.146C57.8906 131.146 57.1411 130.771 56.5601 130.019C55.9839 129.267 55.6958 128.285 55.6958 127.074V126.972ZM57.0508 127.125C57.0508 128.024 57.2363 128.727 57.6074 129.235C57.9785 129.743 58.4912 129.997 59.1455 129.997C60.0049 129.997 60.6323 129.611 61.0278 128.839V125.199C60.6226 124.452 60 124.079 59.1602 124.079C58.4961 124.079 57.9785 124.335 57.6074 124.848C57.2363 125.36 57.0508 126.12 57.0508 127.125ZM64.1333 126.964C64.1333 126.188 64.2847 125.49 64.5874 124.87C64.895 124.25 65.3198 123.771 65.8618 123.434C66.4087 123.097 67.0312 122.929 67.7295 122.929C68.8086 122.929 69.6802 123.302 70.3442 124.049C71.0132 124.796 71.3477 125.79 71.3477 127.03V127.125C71.3477 127.897 71.1987 128.59 70.9009 129.206C70.6079 129.816 70.1855 130.292 69.6338 130.634C69.0869 130.976 68.457 131.146 67.7441 131.146C66.6699 131.146 65.7983 130.773 65.1294 130.026C64.4653 129.279 64.1333 128.29 64.1333 127.06V126.964ZM65.4956 127.125C65.4956 128.004 65.6982 128.71 66.1035 129.242C66.5137 129.774 67.0605 130.041 67.7441 130.041C68.4326 130.041 68.9795 129.772 69.3848 129.235C69.79 128.693 69.9927 127.936 69.9927 126.964C69.9927 126.095 69.7852 125.392 69.3701 124.855C68.96 124.313 68.4131 124.042 67.7295 124.042C67.0605 124.042 66.521 124.308 66.1108 124.84C65.7007 125.373 65.4956 126.134 65.4956 127.125ZM80.0635 129.132L81.5869 123.075H82.9419L80.6348 131H79.5361L77.6099 124.994L75.7349 131H74.6362L72.3364 123.075H73.6841L75.2441 129.008L77.0898 123.075H78.1812L80.0635 129.132ZM85.6079 123.075L85.6519 124.071C86.2573 123.31 87.0483 122.929 88.0249 122.929C89.6997 122.929 90.5444 123.874 90.5591 125.763V131H89.2041V125.756C89.1992 125.185 89.0674 124.762 88.8086 124.489C88.5547 124.215 88.1567 124.079 87.6147 124.079C87.1753 124.079 86.7896 124.196 86.4575 124.43C86.1255 124.665 85.8667 124.972 85.6812 125.353V131H84.3262V123.075H85.6079ZM94.0747 131H92.7197V119.75H94.0747V131ZM95.8911 126.964C95.8911 126.188 96.0425 125.49 96.3452 124.87C96.6528 124.25 97.0776 123.771 97.6196 123.434C98.1665 123.097 98.7891 122.929 99.4873 122.929C100.566 122.929 101.438 123.302 102.102 124.049C102.771 124.796 103.105 125.79 103.105 127.03V127.125C103.105 127.897 102.957 128.59 102.659 129.206C102.366 129.816 101.943 130.292 101.392 130.634C100.845 130.976 100.215 131.146 99.502 131.146C98.4277 131.146 97.5562 130.773 96.8872 130.026C96.2231 129.279 95.8911 128.29 95.8911 127.06V126.964ZM97.2534 127.125C97.2534 128.004 97.4561 128.71 97.8613 129.242C98.2715 129.774 98.8184 130.041 99.502 130.041C100.19 130.041 100.737 129.772 101.143 129.235C101.548 128.693 101.75 127.936 101.75 126.964C101.75 126.095 101.543 125.392 101.128 124.855C100.718 124.313 100.171 124.042 99.4873 124.042C98.8184 124.042 98.2788 124.308 97.8687 124.84C97.4585 125.373 97.2534 126.134 97.2534 127.125ZM109.697 131C109.619 130.844 109.556 130.565 109.507 130.165C108.877 130.819 108.125 131.146 107.251 131.146C106.47 131.146 105.828 130.927 105.325 130.487C104.827 130.043 104.578 129.481 104.578 128.803C104.578 127.978 104.89 127.338 105.515 126.884C106.145 126.425 107.029 126.195 108.167 126.195H109.485V125.573C109.485 125.099 109.343 124.723 109.06 124.445C108.777 124.162 108.359 124.02 107.808 124.02C107.324 124.02 106.919 124.142 106.592 124.386C106.265 124.63 106.101 124.926 106.101 125.272H104.739C104.739 124.877 104.878 124.496 105.156 124.13C105.439 123.759 105.82 123.466 106.299 123.251C106.782 123.036 107.312 122.929 107.888 122.929C108.801 122.929 109.517 123.158 110.034 123.617C110.552 124.071 110.82 124.699 110.84 125.5V129.147C110.84 129.875 110.933 130.453 111.118 130.883V131H109.697ZM107.449 129.967C107.874 129.967 108.276 129.857 108.657 129.638C109.038 129.418 109.314 129.132 109.485 128.781V127.155H108.423C106.763 127.155 105.933 127.641 105.933 128.612C105.933 129.037 106.074 129.369 106.357 129.608C106.641 129.848 107.004 129.967 107.449 129.967ZM112.634 126.972C112.634 125.756 112.922 124.779 113.499 124.042C114.075 123.3 114.829 122.929 115.762 122.929C116.689 122.929 117.424 123.246 117.966 123.881V119.75H119.321V131H118.076L118.01 130.15C117.468 130.814 116.714 131.146 115.747 131.146C114.829 131.146 114.08 130.771 113.499 130.019C112.922 129.267 112.634 128.285 112.634 127.074V126.972ZM113.989 127.125C113.989 128.024 114.175 128.727 114.546 129.235C114.917 129.743 115.43 129.997 116.084 129.997C116.943 129.997 117.571 129.611 117.966 128.839V125.199C117.561 124.452 116.938 124.079 116.099 124.079C115.435 124.079 114.917 124.335 114.546 124.848C114.175 125.36 113.989 126.12 113.989 127.125ZM130.044 131C129.966 130.844 129.902 130.565 129.854 130.165C129.224 130.819 128.472 131.146 127.598 131.146C126.816 131.146 126.174 130.927 125.671 130.487C125.173 130.043 124.924 129.481 124.924 128.803C124.924 127.978 125.237 127.338 125.862 126.884C126.492 126.425 127.375 126.195 128.513 126.195H129.832V125.573C129.832 125.099 129.69 124.723 129.407 124.445C129.124 124.162 128.706 124.02 128.154 124.02C127.671 124.02 127.266 124.142 126.938 124.386C126.611 124.63 126.448 124.926 126.448 125.272H125.085C125.085 124.877 125.225 124.496 125.503 124.13C125.786 123.759 126.167 123.466 126.646 123.251C127.129 123.036 127.659 122.929 128.235 122.929C129.148 122.929 129.863 123.158 130.381 123.617C130.898 124.071 131.167 124.699 131.187 125.5V129.147C131.187 129.875 131.279 130.453 131.465 130.883V131H130.044ZM127.795 129.967C128.22 129.967 128.623 129.857 129.004 129.638C129.385 129.418 129.661 129.132 129.832 128.781V127.155H128.77C127.109 127.155 126.279 127.641 126.279 128.612C126.279 129.037 126.421 129.369 126.704 129.608C126.987 129.848 127.351 129.967 127.795 129.967ZM140.005 127.125C140.005 128.332 139.729 129.303 139.177 130.041C138.625 130.778 137.878 131.146 136.936 131.146C135.974 131.146 135.217 130.841 134.666 130.231V134.047H133.311V123.075H134.548L134.614 123.954C135.166 123.271 135.933 122.929 136.914 122.929C137.866 122.929 138.618 123.288 139.17 124.005C139.727 124.723 140.005 125.722 140.005 127.001V127.125ZM138.65 126.972C138.65 126.078 138.459 125.373 138.079 124.855C137.698 124.337 137.175 124.079 136.511 124.079C135.691 124.079 135.076 124.442 134.666 125.17V128.957C135.071 129.679 135.691 130.041 136.526 130.041C137.175 130.041 137.69 129.784 138.071 129.271C138.457 128.754 138.65 127.987 138.65 126.972ZM148.428 127.125C148.428 128.332 148.152 129.303 147.6 130.041C147.048 130.778 146.301 131.146 145.359 131.146C144.397 131.146 143.64 130.841 143.088 130.231V134.047H141.733V123.075H142.971L143.037 123.954C143.589 123.271 144.355 122.929 145.337 122.929C146.289 122.929 147.041 123.288 147.593 124.005C148.149 124.723 148.428 125.722 148.428 127.001V127.125ZM147.073 126.972C147.073 126.078 146.882 125.373 146.501 124.855C146.121 124.337 145.598 124.079 144.934 124.079C144.114 124.079 143.499 124.442 143.088 125.17V128.957C143.494 129.679 144.114 130.041 144.949 130.041C145.598 130.041 146.113 129.784 146.494 129.271C146.88 128.754 147.073 127.987 147.073 126.972Z" fill="black"/>
<rect x="16" y="181" width="173" height="38" rx="10" fill="#E3F4FC"/>
<path d="M81.5361 197.075V205.916C81.5361 207.439 80.8452 208.201 79.4634 208.201C79.1655 208.201 78.8896 208.157 78.6357 208.069V206.985C78.792 207.024 78.9971 207.043 79.251 207.043C79.5537 207.043 79.7832 206.96 79.9395 206.794C80.1006 206.633 80.1812 206.35 80.1812 205.945V197.075H81.5361ZM80.042 194.973C80.042 194.758 80.1079 194.575 80.2397 194.424C80.3765 194.268 80.5742 194.189 80.833 194.189C81.0967 194.189 81.2969 194.265 81.4336 194.417C81.5703 194.568 81.6387 194.753 81.6387 194.973C81.6387 195.193 81.5703 195.376 81.4336 195.522C81.2969 195.669 81.0967 195.742 80.833 195.742C80.5693 195.742 80.3716 195.669 80.2397 195.522C80.1079 195.376 80.042 195.193 80.042 194.973ZM83.3672 200.964C83.3672 200.188 83.5186 199.49 83.8213 198.87C84.1289 198.25 84.5537 197.771 85.0957 197.434C85.6426 197.097 86.2651 196.929 86.9634 196.929C88.0425 196.929 88.9141 197.302 89.5781 198.049C90.2471 198.796 90.5815 199.79 90.5815 201.03V201.125C90.5815 201.897 90.4326 202.59 90.1348 203.206C89.8418 203.816 89.4194 204.292 88.8677 204.634C88.3208 204.976 87.6909 205.146 86.978 205.146C85.9038 205.146 85.0322 204.773 84.3633 204.026C83.6992 203.279 83.3672 202.29 83.3672 201.06V200.964ZM84.7295 201.125C84.7295 202.004 84.9321 202.71 85.3374 203.242C85.7476 203.774 86.2944 204.041 86.978 204.041C87.6665 204.041 88.2134 203.772 88.6187 203.235C89.0239 202.693 89.2266 201.936 89.2266 200.964C89.2266 200.095 89.019 199.392 88.604 198.855C88.1938 198.313 87.647 198.042 86.9634 198.042C86.2944 198.042 85.7549 198.308 85.3447 198.84C84.9346 199.373 84.7295 200.134 84.7295 201.125ZM98.9897 201.125C98.9897 202.336 98.7114 203.311 98.1548 204.048C97.5981 204.78 96.8511 205.146 95.9136 205.146C94.9126 205.146 94.1387 204.792 93.5918 204.084L93.5259 205H92.2808V193.75H93.6357V197.947C94.1826 197.268 94.937 196.929 95.8989 196.929C96.8608 196.929 97.6152 197.292 98.1621 198.02C98.7139 198.748 98.9897 199.744 98.9897 201.008V201.125ZM97.6348 200.972C97.6348 200.049 97.4565 199.336 97.1001 198.833C96.7437 198.33 96.231 198.079 95.562 198.079C94.6685 198.079 94.0264 198.494 93.6357 199.324V202.751C94.0508 203.582 94.6978 203.997 95.5767 203.997C96.2261 203.997 96.7314 203.745 97.0928 203.242C97.4541 202.739 97.6348 201.982 97.6348 200.972ZM106.263 195.156V197.075H107.742V198.123H106.263V203.037C106.263 203.354 106.329 203.594 106.46 203.755C106.592 203.911 106.817 203.989 107.134 203.989C107.291 203.989 107.505 203.96 107.779 203.901V205C107.422 205.098 107.076 205.146 106.739 205.146C106.133 205.146 105.677 204.963 105.369 204.597C105.062 204.231 104.908 203.711 104.908 203.037V198.123H103.465V197.075H104.908V195.156H106.263ZM114.224 205C114.146 204.844 114.083 204.565 114.034 204.165C113.404 204.819 112.652 205.146 111.778 205.146C110.997 205.146 110.354 204.927 109.852 204.487C109.354 204.043 109.104 203.481 109.104 202.803C109.104 201.978 109.417 201.338 110.042 200.884C110.672 200.425 111.556 200.195 112.693 200.195H114.012V199.573C114.012 199.099 113.87 198.723 113.587 198.445C113.304 198.162 112.886 198.02 112.334 198.02C111.851 198.02 111.446 198.142 111.119 198.386C110.792 198.63 110.628 198.926 110.628 199.272H109.266C109.266 198.877 109.405 198.496 109.683 198.13C109.966 197.759 110.347 197.466 110.826 197.251C111.309 197.036 111.839 196.929 112.415 196.929C113.328 196.929 114.043 197.158 114.561 197.617C115.079 198.071 115.347 198.699 115.367 199.5V203.147C115.367 203.875 115.459 204.453 115.645 204.883V205H114.224ZM111.976 203.967C112.4 203.967 112.803 203.857 113.184 203.638C113.565 203.418 113.841 203.132 114.012 202.781V201.155H112.95C111.29 201.155 110.459 201.641 110.459 202.612C110.459 203.037 110.601 203.369 110.884 203.608C111.167 203.848 111.531 203.967 111.976 203.967ZM124.2 201.125C124.2 202.336 123.921 203.311 123.365 204.048C122.808 204.78 122.061 205.146 121.124 205.146C120.123 205.146 119.349 204.792 118.802 204.084L118.736 205H117.491V193.75H118.846V197.947C119.393 197.268 120.147 196.929 121.109 196.929C122.071 196.929 122.825 197.292 123.372 198.02C123.924 198.748 124.2 199.744 124.2 201.008V201.125ZM122.845 200.972C122.845 200.049 122.667 199.336 122.31 198.833C121.954 198.33 121.441 198.079 120.772 198.079C119.878 198.079 119.236 198.494 118.846 199.324V202.751C119.261 203.582 119.908 203.997 120.787 203.997C121.436 203.997 121.941 203.745 122.303 203.242C122.664 202.739 122.845 201.982 122.845 200.972Z" fill="black"/>
<rect x="205" y="131" width="173" height="38" rx="10" fill="#E3F4FC"/>
<path d="M274.691 152.898C274.691 152.532 274.552 152.249 274.273 152.048C274 151.843 273.519 151.667 272.831 151.521C272.147 151.375 271.603 151.199 271.197 150.994C270.797 150.789 270.499 150.544 270.304 150.261C270.113 149.978 270.018 149.641 270.018 149.25C270.018 148.601 270.292 148.052 270.838 147.603C271.39 147.153 272.093 146.929 272.948 146.929C273.846 146.929 274.574 147.161 275.13 147.625C275.692 148.088 275.973 148.682 275.973 149.404H274.61C274.61 149.033 274.452 148.713 274.134 148.445C273.822 148.176 273.426 148.042 272.948 148.042C272.455 148.042 272.069 148.149 271.791 148.364C271.512 148.579 271.373 148.86 271.373 149.207C271.373 149.534 271.502 149.78 271.761 149.946C272.02 150.112 272.486 150.271 273.16 150.422C273.839 150.574 274.388 150.754 274.808 150.964C275.228 151.174 275.538 151.428 275.738 151.726C275.943 152.019 276.046 152.378 276.046 152.803C276.046 153.511 275.763 154.08 275.196 154.509C274.63 154.934 273.895 155.146 272.992 155.146C272.357 155.146 271.795 155.034 271.307 154.81C270.819 154.585 270.436 154.272 270.157 153.872C269.884 153.467 269.747 153.03 269.747 152.561H271.102C271.126 153.015 271.307 153.376 271.644 153.645C271.986 153.909 272.435 154.041 272.992 154.041C273.504 154.041 273.915 153.938 274.222 153.733C274.535 153.523 274.691 153.245 274.691 152.898ZM281.1 155.146C280.025 155.146 279.151 154.795 278.478 154.092C277.804 153.384 277.467 152.439 277.467 151.257V151.008C277.467 150.222 277.616 149.521 277.914 148.906C278.216 148.286 278.636 147.803 279.173 147.456C279.715 147.104 280.301 146.929 280.931 146.929C281.961 146.929 282.762 147.268 283.333 147.947C283.905 148.625 284.19 149.597 284.19 150.862V151.426H278.822C278.841 152.207 279.068 152.839 279.503 153.323C279.942 153.801 280.499 154.041 281.173 154.041C281.651 154.041 282.057 153.943 282.389 153.748C282.721 153.552 283.011 153.293 283.26 152.971L284.088 153.616C283.424 154.636 282.428 155.146 281.1 155.146ZM280.931 148.042C280.384 148.042 279.925 148.242 279.554 148.643C279.183 149.038 278.954 149.595 278.866 150.312H282.835V150.21C282.796 149.521 282.611 148.989 282.279 148.613C281.947 148.232 281.498 148.042 280.931 148.042ZM290.658 155C290.58 154.844 290.516 154.565 290.467 154.165C289.837 154.819 289.085 155.146 288.211 155.146C287.43 155.146 286.788 154.927 286.285 154.487C285.787 154.043 285.538 153.481 285.538 152.803C285.538 151.978 285.851 151.338 286.476 150.884C287.105 150.425 287.989 150.195 289.127 150.195H290.445V149.573C290.445 149.099 290.304 148.723 290.021 148.445C289.737 148.162 289.32 148.02 288.768 148.02C288.285 148.02 287.879 148.142 287.552 148.386C287.225 148.63 287.062 148.926 287.062 149.272H285.699C285.699 148.877 285.838 148.496 286.117 148.13C286.4 147.759 286.781 147.466 287.259 147.251C287.743 147.036 288.272 146.929 288.849 146.929C289.762 146.929 290.477 147.158 290.995 147.617C291.512 148.071 291.781 148.699 291.8 149.5V153.147C291.8 153.875 291.893 154.453 292.079 154.883V155H290.658ZM288.409 153.967C288.834 153.967 289.237 153.857 289.618 153.638C289.999 153.418 290.274 153.132 290.445 152.781V151.155H289.383C287.723 151.155 286.893 151.641 286.893 152.612C286.893 153.037 287.035 153.369 287.318 153.608C287.601 153.848 287.965 153.967 288.409 153.967ZM297.755 148.291C297.55 148.257 297.328 148.24 297.088 148.24C296.2 148.24 295.597 148.618 295.279 149.375V155H293.924V147.075H295.243L295.265 147.991C295.709 147.283 296.339 146.929 297.154 146.929C297.418 146.929 297.618 146.963 297.755 147.031V148.291ZM302.04 154.041C302.523 154.041 302.945 153.894 303.307 153.601C303.668 153.308 303.868 152.942 303.907 152.502H305.189C305.165 152.957 305.008 153.389 304.72 153.799C304.432 154.209 304.046 154.536 303.563 154.78C303.084 155.024 302.577 155.146 302.04 155.146C300.96 155.146 300.101 154.788 299.461 154.07C298.827 153.347 298.509 152.361 298.509 151.111V150.884C298.509 150.112 298.651 149.426 298.934 148.826C299.217 148.225 299.623 147.759 300.15 147.427C300.682 147.095 301.31 146.929 302.032 146.929C302.921 146.929 303.658 147.195 304.244 147.727C304.835 148.259 305.15 148.95 305.189 149.8H303.907C303.868 149.287 303.673 148.867 303.321 148.54C302.975 148.208 302.545 148.042 302.032 148.042C301.344 148.042 300.809 148.291 300.428 148.789C300.052 149.282 299.864 149.998 299.864 150.935V151.191C299.864 152.104 300.052 152.808 300.428 153.301C300.804 153.794 301.341 154.041 302.04 154.041ZM308.067 148.035C308.668 147.297 309.449 146.929 310.411 146.929C312.086 146.929 312.931 147.874 312.945 149.763V155H311.59V149.756C311.585 149.185 311.454 148.762 311.195 148.489C310.941 148.215 310.543 148.079 310.001 148.079C309.562 148.079 309.176 148.196 308.844 148.43C308.512 148.665 308.253 148.972 308.067 149.353V155H306.712V143.75H308.067V148.035Z" fill="black"/>
<rect x="205" y="181" width="173" height="38" rx="10" fill="#E3F4FC"/>
<path d="M244.544 197.075V205.916C244.544 207.439 243.854 208.201 242.472 208.201C242.174 208.201 241.898 208.157 241.644 208.069V206.985C241.8 207.024 242.005 207.043 242.259 207.043C242.562 207.043 242.792 206.96 242.948 206.794C243.109 206.633 243.189 206.35 243.189 205.945V197.075H244.544ZM243.05 194.973C243.05 194.758 243.116 194.575 243.248 194.424C243.385 194.268 243.583 194.189 243.841 194.189C244.105 194.189 244.305 194.265 244.442 194.417C244.579 194.568 244.647 194.753 244.647 194.973C244.647 195.193 244.579 195.376 244.442 195.522C244.305 195.669 244.105 195.742 243.841 195.742C243.578 195.742 243.38 195.669 243.248 195.522C243.116 195.376 243.05 195.193 243.05 194.973ZM246.375 200.964C246.375 200.188 246.527 199.49 246.83 198.87C247.137 198.25 247.562 197.771 248.104 197.434C248.651 197.097 249.273 196.929 249.972 196.929C251.051 196.929 251.922 197.302 252.586 198.049C253.255 198.796 253.59 199.79 253.59 201.03V201.125C253.59 201.897 253.441 202.59 253.143 203.206C252.85 203.816 252.428 204.292 251.876 204.634C251.329 204.976 250.699 205.146 249.986 205.146C248.912 205.146 248.041 204.773 247.372 204.026C246.708 203.279 246.375 202.29 246.375 201.06V200.964ZM247.738 201.125C247.738 202.004 247.94 202.71 248.346 203.242C248.756 203.774 249.303 204.041 249.986 204.041C250.675 204.041 251.222 203.772 251.627 203.235C252.032 202.693 252.235 201.936 252.235 200.964C252.235 200.095 252.027 199.392 251.612 198.855C251.202 198.313 250.655 198.042 249.972 198.042C249.303 198.042 248.763 198.308 248.353 198.84C247.943 199.373 247.738 200.134 247.738 201.125ZM261.998 201.125C261.998 202.336 261.72 203.311 261.163 204.048C260.606 204.78 259.859 205.146 258.922 205.146C257.921 205.146 257.147 204.792 256.6 204.084L256.534 205H255.289V193.75H256.644V197.947C257.191 197.268 257.945 196.929 258.907 196.929C259.869 196.929 260.624 197.292 261.17 198.02C261.722 198.748 261.998 199.744 261.998 201.008V201.125ZM260.643 200.972C260.643 200.049 260.465 199.336 260.108 198.833C259.752 198.33 259.239 198.079 258.57 198.079C257.677 198.079 257.035 198.494 256.644 199.324V202.751C257.059 203.582 257.706 203.997 258.585 203.997C259.234 203.997 259.74 203.745 260.101 203.242C260.462 202.739 260.643 201.982 260.643 200.972ZM268.326 202.898C268.326 202.532 268.187 202.249 267.909 202.048C267.635 201.843 267.154 201.667 266.466 201.521C265.782 201.375 265.238 201.199 264.833 200.994C264.432 200.789 264.134 200.544 263.939 200.261C263.749 199.978 263.653 199.641 263.653 199.25C263.653 198.601 263.927 198.052 264.474 197.603C265.025 197.153 265.729 196.929 266.583 196.929C267.481 196.929 268.209 197.161 268.766 197.625C269.327 198.088 269.608 198.682 269.608 199.404H268.246C268.246 199.033 268.087 198.713 267.77 198.445C267.457 198.176 267.062 198.042 266.583 198.042C266.09 198.042 265.704 198.149 265.426 198.364C265.147 198.579 265.008 198.86 265.008 199.207C265.008 199.534 265.138 199.78 265.396 199.946C265.655 200.112 266.122 200.271 266.795 200.422C267.474 200.574 268.023 200.754 268.443 200.964C268.863 201.174 269.173 201.428 269.374 201.726C269.579 202.019 269.681 202.378 269.681 202.803C269.681 203.511 269.398 204.08 268.832 204.509C268.265 204.934 267.53 205.146 266.627 205.146C265.992 205.146 265.431 205.034 264.942 204.81C264.454 204.585 264.071 204.272 263.792 203.872C263.519 203.467 263.382 203.03 263.382 202.561H264.737C264.762 203.015 264.942 203.376 265.279 203.645C265.621 203.909 266.07 204.041 266.627 204.041C267.14 204.041 267.55 203.938 267.857 203.733C268.17 203.523 268.326 203.245 268.326 202.898ZM276.639 205H275.284V197.075H276.639V205ZM275.174 194.973C275.174 194.753 275.24 194.568 275.372 194.417C275.509 194.265 275.709 194.189 275.973 194.189C276.236 194.189 276.437 194.265 276.573 194.417C276.71 194.568 276.778 194.753 276.778 194.973C276.778 195.193 276.71 195.376 276.573 195.522C276.437 195.669 276.236 195.742 275.973 195.742C275.709 195.742 275.509 195.669 275.372 195.522C275.24 195.376 275.174 195.193 275.174 194.973ZM280.096 197.075L280.14 198.071C280.746 197.31 281.537 196.929 282.513 196.929C284.188 196.929 285.033 197.874 285.047 199.763V205H283.692V199.756C283.688 199.185 283.556 198.762 283.297 198.489C283.043 198.215 282.645 198.079 282.103 198.079C281.664 198.079 281.278 198.196 280.946 198.43C280.614 198.665 280.355 198.972 280.169 199.353V205H278.814V197.075H280.096ZM288.929 195.156V197.075H290.409V198.123H288.929V203.037C288.929 203.354 288.995 203.594 289.127 203.755C289.259 203.911 289.483 203.989 289.801 203.989C289.957 203.989 290.172 203.96 290.445 203.901V205C290.089 205.098 289.742 205.146 289.405 205.146C288.8 205.146 288.343 204.963 288.036 204.597C287.728 204.231 287.574 203.711 287.574 203.037V198.123H286.131V197.075H287.574V195.156H288.929ZM295.287 205.146C294.212 205.146 293.338 204.795 292.665 204.092C291.991 203.384 291.654 202.439 291.654 201.257V201.008C291.654 200.222 291.803 199.521 292.101 198.906C292.403 198.286 292.823 197.803 293.36 197.456C293.902 197.104 294.488 196.929 295.118 196.929C296.148 196.929 296.949 197.268 297.521 197.947C298.092 198.625 298.377 199.597 298.377 200.862V201.426H293.009C293.028 202.207 293.255 202.839 293.69 203.323C294.129 203.801 294.686 204.041 295.36 204.041C295.838 204.041 296.244 203.943 296.576 203.748C296.908 203.552 297.198 203.293 297.447 202.971L298.275 203.616C297.611 204.636 296.615 205.146 295.287 205.146ZM295.118 198.042C294.571 198.042 294.112 198.242 293.741 198.643C293.37 199.038 293.141 199.595 293.053 200.312H297.022V200.21C296.983 199.521 296.798 198.989 296.466 198.613C296.134 198.232 295.685 198.042 295.118 198.042ZM303.783 198.291C303.578 198.257 303.355 198.24 303.116 198.24C302.228 198.24 301.625 198.618 301.307 199.375V205H299.952V197.075H301.271L301.292 197.991C301.737 197.283 302.367 196.929 303.182 196.929C303.446 196.929 303.646 196.963 303.783 197.031V198.291ZM308.177 205.146C307.103 205.146 306.229 204.795 305.555 204.092C304.881 203.384 304.544 202.439 304.544 201.257V201.008C304.544 200.222 304.693 199.521 304.991 198.906C305.294 198.286 305.714 197.803 306.251 197.456C306.793 197.104 307.379 196.929 308.009 196.929C309.039 196.929 309.84 197.268 310.411 197.947C310.982 198.625 311.268 199.597 311.268 200.862V201.426H305.899C305.919 202.207 306.146 202.839 306.581 203.323C307.02 203.801 307.577 204.041 308.25 204.041C308.729 204.041 309.134 203.943 309.466 203.748C309.798 203.552 310.089 203.293 310.338 202.971L311.166 203.616C310.501 204.636 309.505 205.146 308.177 205.146ZM308.009 198.042C307.462 198.042 307.003 198.242 306.632 198.643C306.261 199.038 306.031 199.595 305.943 200.312H309.913V200.21C309.874 199.521 309.688 198.989 309.356 198.613C309.024 198.232 308.575 198.042 308.009 198.042ZM317.457 202.898C317.457 202.532 317.318 202.249 317.04 202.048C316.766 201.843 316.285 201.667 315.597 201.521C314.913 201.375 314.369 201.199 313.963 200.994C313.563 200.789 313.265 200.544 313.07 200.261C312.879 199.978 312.784 199.641 312.784 199.25C312.784 198.601 313.058 198.052 313.604 197.603C314.156 197.153 314.859 196.929 315.714 196.929C316.612 196.929 317.34 197.161 317.896 197.625C318.458 198.088 318.739 198.682 318.739 199.404H317.376C317.376 199.033 317.218 198.713 316.9 198.445C316.588 198.176 316.192 198.042 315.714 198.042C315.221 198.042 314.835 198.149 314.557 198.364C314.278 198.579 314.139 198.86 314.139 199.207C314.139 199.534 314.269 199.78 314.527 199.946C314.786 200.112 315.252 200.271 315.926 200.422C316.605 200.574 317.154 200.754 317.574 200.964C317.994 201.174 318.304 201.428 318.504 201.726C318.709 202.019 318.812 202.378 318.812 202.803C318.812 203.511 318.529 204.08 317.962 204.509C317.396 204.934 316.661 205.146 315.758 205.146C315.123 205.146 314.562 205.034 314.073 204.81C313.585 204.585 313.202 204.272 312.923 203.872C312.65 203.467 312.513 203.03 312.513 202.561H313.868C313.893 203.015 314.073 203.376 314.41 203.645C314.752 203.909 315.201 204.041 315.758 204.041C316.271 204.041 316.681 203.938 316.988 203.733C317.301 203.523 317.457 203.245 317.457 202.898ZM322.416 195.156V197.075H323.895V198.123H322.416V203.037C322.416 203.354 322.481 203.594 322.613 203.755C322.745 203.911 322.97 203.989 323.287 203.989C323.443 203.989 323.658 203.96 323.932 203.901V205C323.575 205.098 323.229 205.146 322.892 205.146C322.286 205.146 321.83 204.963 321.522 204.597C321.214 204.231 321.061 203.711 321.061 203.037V198.123H319.618V197.075H321.061V195.156H322.416ZM328.773 205.146C327.699 205.146 326.825 204.795 326.151 204.092C325.477 203.384 325.14 202.439 325.14 201.257V201.008C325.14 200.222 325.289 199.521 325.587 198.906C325.89 198.286 326.31 197.803 326.847 197.456C327.389 197.104 327.975 196.929 328.604 196.929C329.635 196.929 330.436 197.268 331.007 197.947C331.578 198.625 331.864 199.597 331.864 200.862V201.426H326.495C326.515 202.207 326.742 202.839 327.176 203.323C327.616 203.801 328.172 204.041 328.846 204.041C329.325 204.041 329.73 203.943 330.062 203.748C330.394 203.552 330.685 203.293 330.934 202.971L331.761 203.616C331.097 204.636 330.101 205.146 328.773 205.146ZM328.604 198.042C328.058 198.042 327.599 198.242 327.228 198.643C326.856 199.038 326.627 199.595 326.539 200.312H330.509V200.21C330.47 199.521 330.284 198.989 329.952 198.613C329.62 198.232 329.171 198.042 328.604 198.042ZM333.109 200.972C333.109 199.756 333.397 198.779 333.973 198.042C334.549 197.3 335.304 196.929 336.236 196.929C337.164 196.929 337.899 197.246 338.441 197.881V193.75H339.796V205H338.551L338.485 204.15C337.943 204.814 337.188 205.146 336.222 205.146C335.304 205.146 334.554 204.771 333.973 204.019C333.397 203.267 333.109 202.285 333.109 201.074V200.972ZM334.464 201.125C334.464 202.024 334.649 202.727 335.021 203.235C335.392 203.743 335.904 203.997 336.559 203.997C337.418 203.997 338.045 203.611 338.441 202.839V199.199C338.036 198.452 337.413 198.079 336.573 198.079C335.909 198.079 335.392 198.335 335.021 198.848C334.649 199.36 334.464 200.12 334.464 201.125Z" fill="black"/>
<rect x="205" y="231" width="173" height="38" rx="10" fill="#E3F4FC"/>
<path d="M223.597 254.041C224.081 254.041 224.503 253.894 224.864 253.601C225.226 253.308 225.426 252.942 225.465 252.502H226.747C226.722 252.957 226.566 253.389 226.278 253.799C225.99 254.209 225.604 254.536 225.121 254.78C224.642 255.024 224.134 255.146 223.597 255.146C222.518 255.146 221.659 254.788 221.019 254.07C220.384 253.347 220.067 252.361 220.067 251.111V250.884C220.067 250.112 220.208 249.426 220.492 248.826C220.775 248.225 221.18 247.759 221.708 247.427C222.24 247.095 222.867 246.929 223.59 246.929C224.479 246.929 225.216 247.195 225.802 247.727C226.393 248.259 226.708 248.95 226.747 249.8H225.465C225.426 249.287 225.23 248.867 224.879 248.54C224.532 248.208 224.103 248.042 223.59 248.042C222.901 248.042 222.367 248.291 221.986 248.789C221.61 249.282 221.422 249.998 221.422 250.935V251.191C221.422 252.104 221.61 252.808 221.986 253.301C222.362 253.794 222.899 254.041 223.597 254.041ZM227.911 250.964C227.911 250.188 228.062 249.49 228.365 248.87C228.673 248.25 229.098 247.771 229.64 247.434C230.187 247.097 230.809 246.929 231.507 246.929C232.586 246.929 233.458 247.302 234.122 248.049C234.791 248.796 235.125 249.79 235.125 251.03V251.125C235.125 251.897 234.977 252.59 234.679 253.206C234.386 253.816 233.963 254.292 233.412 254.634C232.865 254.976 232.235 255.146 231.522 255.146C230.448 255.146 229.576 254.773 228.907 254.026C228.243 253.279 227.911 252.29 227.911 251.06V250.964ZM229.273 251.125C229.273 252.004 229.476 252.71 229.881 253.242C230.292 253.774 230.838 254.041 231.522 254.041C232.21 254.041 232.757 253.772 233.163 253.235C233.568 252.693 233.771 251.936 233.771 250.964C233.771 250.095 233.563 249.392 233.148 248.855C232.738 248.313 232.191 248.042 231.507 248.042C230.838 248.042 230.299 248.308 229.889 248.84C229.479 249.373 229.273 250.134 229.273 251.125ZM238.099 247.075L238.136 247.954C238.717 247.271 239.5 246.929 240.487 246.929C241.595 246.929 242.35 247.354 242.75 248.203C243.014 247.822 243.355 247.515 243.775 247.28C244.2 247.046 244.701 246.929 245.277 246.929C247.015 246.929 247.899 247.849 247.928 249.69V255H246.573V249.771C246.573 249.204 246.444 248.782 246.185 248.503C245.926 248.22 245.492 248.079 244.881 248.079C244.378 248.079 243.961 248.23 243.629 248.533C243.297 248.831 243.104 249.233 243.05 249.741V255H241.688V249.807C241.688 248.655 241.124 248.079 239.996 248.079C239.107 248.079 238.5 248.457 238.172 249.214V255H236.817V247.075H238.099ZM256.673 251.125C256.673 252.332 256.397 253.303 255.846 254.041C255.294 254.778 254.547 255.146 253.604 255.146C252.643 255.146 251.886 254.841 251.334 254.231V258.047H249.979V247.075H251.217L251.283 247.954C251.834 247.271 252.601 246.929 253.583 246.929C254.535 246.929 255.287 247.288 255.838 248.005C256.395 248.723 256.673 249.722 256.673 251.001V251.125ZM255.318 250.972C255.318 250.078 255.128 249.373 254.747 248.855C254.366 248.337 253.844 248.079 253.18 248.079C252.359 248.079 251.744 248.442 251.334 249.17V252.957C251.739 253.679 252.359 254.041 253.194 254.041C253.844 254.041 254.359 253.784 254.74 253.271C255.125 252.754 255.318 251.987 255.318 250.972ZM263.294 255C263.216 254.844 263.153 254.565 263.104 254.165C262.474 254.819 261.722 255.146 260.848 255.146C260.067 255.146 259.425 254.927 258.922 254.487C258.424 254.043 258.175 253.481 258.175 252.803C258.175 251.978 258.487 251.338 259.112 250.884C259.742 250.425 260.626 250.195 261.764 250.195H263.082V249.573C263.082 249.099 262.94 248.723 262.657 248.445C262.374 248.162 261.957 248.02 261.405 248.02C260.921 248.02 260.516 248.142 260.189 248.386C259.862 248.63 259.698 248.926 259.698 249.272H258.336C258.336 248.877 258.475 248.496 258.753 248.13C259.037 247.759 259.417 247.466 259.896 247.251C260.379 247.036 260.909 246.929 261.485 246.929C262.398 246.929 263.114 247.158 263.631 247.617C264.149 248.071 264.417 248.699 264.437 249.5V253.147C264.437 253.875 264.53 254.453 264.715 254.883V255H263.294ZM261.046 253.967C261.471 253.967 261.874 253.857 262.254 253.638C262.635 253.418 262.911 253.132 263.082 252.781V251.155H262.02C260.36 251.155 259.53 251.641 259.53 252.612C259.53 253.037 259.671 253.369 259.955 253.608C260.238 253.848 260.602 253.967 261.046 253.967ZM267.843 247.075L267.887 248.071C268.492 247.31 269.283 246.929 270.26 246.929C271.935 246.929 272.779 247.874 272.794 249.763V255H271.439V249.756C271.434 249.185 271.302 248.762 271.043 248.489C270.79 248.215 270.392 248.079 269.85 248.079C269.41 248.079 269.024 248.196 268.692 248.43C268.36 248.665 268.102 248.972 267.916 249.353V255H266.561V247.075H267.843ZM276.31 255H274.955V247.075H276.31V255ZM274.845 244.973C274.845 244.753 274.911 244.568 275.042 244.417C275.179 244.265 275.379 244.189 275.643 244.189C275.907 244.189 276.107 244.265 276.244 244.417C276.38 244.568 276.449 244.753 276.449 244.973C276.449 245.193 276.38 245.376 276.244 245.522C276.107 245.669 275.907 245.742 275.643 245.742C275.379 245.742 275.179 245.669 275.042 245.522C274.911 245.376 274.845 245.193 274.845 244.973ZM281.773 255.146C280.699 255.146 279.825 254.795 279.151 254.092C278.478 253.384 278.141 252.439 278.141 251.257V251.008C278.141 250.222 278.29 249.521 278.587 248.906C278.89 248.286 279.31 247.803 279.847 247.456C280.389 247.104 280.975 246.929 281.605 246.929C282.635 246.929 283.436 247.268 284.007 247.947C284.579 248.625 284.864 249.597 284.864 250.862V251.426H279.496C279.515 252.207 279.742 252.839 280.177 253.323C280.616 253.801 281.173 254.041 281.847 254.041C282.325 254.041 282.73 253.943 283.062 253.748C283.395 253.552 283.685 253.293 283.934 252.971L284.762 253.616C284.098 254.636 283.102 255.146 281.773 255.146ZM281.605 248.042C281.058 248.042 280.599 248.242 280.228 248.643C279.857 249.038 279.627 249.595 279.54 250.312H283.509V250.21C283.47 249.521 283.285 248.989 282.953 248.613C282.621 248.232 282.171 248.042 281.605 248.042ZM291.053 252.898C291.053 252.532 290.914 252.249 290.636 252.048C290.362 251.843 289.881 251.667 289.193 251.521C288.509 251.375 287.965 251.199 287.56 250.994C287.159 250.789 286.861 250.544 286.666 250.261C286.476 249.978 286.38 249.641 286.38 249.25C286.38 248.601 286.654 248.052 287.201 247.603C287.752 247.153 288.456 246.929 289.31 246.929C290.208 246.929 290.936 247.161 291.493 247.625C292.054 248.088 292.335 248.682 292.335 249.404H290.973C290.973 249.033 290.814 248.713 290.497 248.445C290.184 248.176 289.789 248.042 289.31 248.042C288.817 248.042 288.431 248.149 288.153 248.364C287.875 248.579 287.735 248.86 287.735 249.207C287.735 249.534 287.865 249.78 288.124 249.946C288.382 250.112 288.849 250.271 289.522 250.422C290.201 250.574 290.75 250.754 291.17 250.964C291.59 251.174 291.9 251.428 292.101 251.726C292.306 252.019 292.408 252.378 292.408 252.803C292.408 253.511 292.125 254.08 291.559 254.509C290.992 254.934 290.257 255.146 289.354 255.146C288.719 255.146 288.158 255.034 287.669 254.81C287.181 254.585 286.798 254.272 286.52 253.872C286.246 253.467 286.109 253.03 286.109 252.561H287.464C287.489 253.015 287.669 253.376 288.006 253.645C288.348 253.909 288.797 254.041 289.354 254.041C289.867 254.041 290.277 253.938 290.584 253.733C290.897 253.523 291.053 253.245 291.053 252.898ZM299.366 255H298.011V247.075H299.366V255ZM297.901 244.973C297.901 244.753 297.967 244.568 298.099 244.417C298.236 244.265 298.436 244.189 298.7 244.189C298.963 244.189 299.164 244.265 299.3 244.417C299.437 244.568 299.505 244.753 299.505 244.973C299.505 245.193 299.437 245.376 299.3 245.522C299.164 245.669 298.963 245.742 298.7 245.742C298.436 245.742 298.236 245.669 298.099 245.522C297.967 245.376 297.901 245.193 297.901 244.973ZM302.823 247.075L302.867 248.071C303.473 247.31 304.264 246.929 305.24 246.929C306.915 246.929 307.76 247.874 307.774 249.763V255H306.419V249.756C306.415 249.185 306.283 248.762 306.024 248.489C305.77 248.215 305.372 248.079 304.83 248.079C304.391 248.079 304.005 248.196 303.673 248.43C303.341 248.665 303.082 248.972 302.896 249.353V255H301.542V247.075H302.823ZM311.656 245.156V247.075H313.136V248.123H311.656V253.037C311.656 253.354 311.722 253.594 311.854 253.755C311.986 253.911 312.21 253.989 312.528 253.989C312.684 253.989 312.899 253.96 313.172 253.901V255C312.816 255.098 312.469 255.146 312.132 255.146C311.527 255.146 311.07 254.963 310.763 254.597C310.455 254.231 310.301 253.711 310.301 253.037V248.123H308.858V247.075H310.301V245.156H311.656ZM318.014 255.146C316.939 255.146 316.065 254.795 315.392 254.092C314.718 253.384 314.381 252.439 314.381 251.257V251.008C314.381 250.222 314.53 249.521 314.828 248.906C315.13 248.286 315.55 247.803 316.087 247.456C316.629 247.104 317.215 246.929 317.845 246.929C318.875 246.929 319.676 247.268 320.248 247.947C320.819 248.625 321.104 249.597 321.104 250.862V251.426H315.736C315.755 252.207 315.982 252.839 316.417 253.323C316.856 253.801 317.413 254.041 318.087 254.041C318.565 254.041 318.971 253.943 319.303 253.748C319.635 253.552 319.925 253.293 320.174 252.971L321.002 253.616C320.338 254.636 319.342 255.146 318.014 255.146ZM317.845 248.042C317.298 248.042 316.839 248.242 316.468 248.643C316.097 249.038 315.868 249.595 315.78 250.312H319.75V250.21C319.71 249.521 319.525 248.989 319.193 248.613C318.861 248.232 318.412 248.042 317.845 248.042ZM326.51 248.291C326.305 248.257 326.083 248.24 325.843 248.24C324.955 248.24 324.352 248.618 324.034 249.375V255H322.679V247.075H323.998L324.02 247.991C324.464 247.283 325.094 246.929 325.909 246.929C326.173 246.929 326.373 246.963 326.51 247.031V248.291ZM330.904 255.146C329.83 255.146 328.956 254.795 328.282 254.092C327.608 253.384 327.271 252.439 327.271 251.257V251.008C327.271 250.222 327.42 249.521 327.718 248.906C328.021 248.286 328.441 247.803 328.978 247.456C329.52 247.104 330.106 246.929 330.736 246.929C331.766 246.929 332.567 247.268 333.138 247.947C333.709 248.625 333.995 249.597 333.995 250.862V251.426H328.626C328.646 252.207 328.873 252.839 329.308 253.323C329.747 253.801 330.304 254.041 330.978 254.041C331.456 254.041 331.861 253.943 332.193 253.748C332.525 253.552 332.816 253.293 333.065 252.971L333.893 253.616C333.229 254.636 332.232 255.146 330.904 255.146ZM330.736 248.042C330.189 248.042 329.73 248.242 329.359 248.643C328.988 249.038 328.758 249.595 328.67 250.312H332.64V250.21C332.601 249.521 332.416 248.989 332.083 248.613C331.751 248.232 331.302 248.042 330.736 248.042ZM340.184 252.898C340.184 252.532 340.045 252.249 339.767 252.048C339.493 251.843 339.012 251.667 338.324 251.521C337.64 251.375 337.096 251.199 336.69 250.994C336.29 250.789 335.992 250.544 335.797 250.261C335.606 249.978 335.511 249.641 335.511 249.25C335.511 248.601 335.785 248.052 336.332 247.603C336.883 247.153 337.586 246.929 338.441 246.929C339.339 246.929 340.067 247.161 340.624 247.625C341.185 248.088 341.466 248.682 341.466 249.404H340.104C340.104 249.033 339.945 248.713 339.627 248.445C339.315 248.176 338.919 248.042 338.441 248.042C337.948 248.042 337.562 248.149 337.284 248.364C337.005 248.579 336.866 248.86 336.866 249.207C336.866 249.534 336.996 249.78 337.254 249.946C337.513 250.112 337.979 250.271 338.653 250.422C339.332 250.574 339.881 250.754 340.301 250.964C340.721 251.174 341.031 251.428 341.231 251.726C341.437 252.019 341.539 252.378 341.539 252.803C341.539 253.511 341.256 254.08 340.689 254.509C340.123 254.934 339.388 255.146 338.485 255.146C337.85 255.146 337.289 255.034 336.8 254.81C336.312 254.585 335.929 254.272 335.65 253.872C335.377 253.467 335.24 253.03 335.24 252.561H336.595C336.62 253.015 336.8 253.376 337.137 253.645C337.479 253.909 337.928 254.041 338.485 254.041C338.998 254.041 339.408 253.938 339.715 253.733C340.028 253.523 340.184 253.245 340.184 252.898ZM345.143 245.156V247.075H346.622V248.123H345.143V253.037C345.143 253.354 345.208 253.594 345.34 253.755C345.472 253.911 345.697 253.989 346.014 253.989C346.17 253.989 346.385 253.96 346.659 253.901V255C346.302 255.098 345.956 255.146 345.619 255.146C345.013 255.146 344.557 254.963 344.249 254.597C343.941 254.231 343.788 253.711 343.788 253.037V248.123H342.345V247.075H343.788V245.156H345.143ZM351.5 255.146C350.426 255.146 349.552 254.795 348.878 254.092C348.204 253.384 347.867 252.439 347.867 251.257V251.008C347.867 250.222 348.016 249.521 348.314 248.906C348.617 248.286 349.037 247.803 349.574 247.456C350.116 247.104 350.702 246.929 351.332 246.929C352.362 246.929 353.163 247.268 353.734 247.947C354.305 248.625 354.591 249.597 354.591 250.862V251.426H349.222C349.242 252.207 349.469 252.839 349.903 253.323C350.343 253.801 350.899 254.041 351.573 254.041C352.052 254.041 352.457 253.943 352.789 253.748C353.121 253.552 353.412 253.293 353.661 252.971L354.488 253.616C353.824 254.636 352.828 255.146 351.5 255.146ZM351.332 248.042C350.785 248.042 350.326 248.242 349.955 248.643C349.583 249.038 349.354 249.595 349.266 250.312H353.236V250.21C353.197 249.521 353.011 248.989 352.679 248.613C352.347 248.232 351.898 248.042 351.332 248.042ZM355.836 250.972C355.836 249.756 356.124 248.779 356.7 248.042C357.276 247.3 358.031 246.929 358.963 246.929C359.891 246.929 360.626 247.246 361.168 247.881V243.75H362.523V255H361.278L361.212 254.15C360.67 254.814 359.916 255.146 358.949 255.146C358.031 255.146 357.281 254.771 356.7 254.019C356.124 253.267 355.836 252.285 355.836 251.074V250.972ZM357.191 251.125C357.191 252.024 357.376 252.727 357.748 253.235C358.119 253.743 358.631 253.997 359.286 253.997C360.145 253.997 360.772 253.611 361.168 252.839V249.199C360.763 248.452 360.14 248.079 359.3 248.079C358.636 248.079 358.119 248.335 357.748 248.848C357.376 249.36 357.191 250.12 357.191 251.125Z" fill="black"/>
<rect x="299" y="305" width="173" height="38" rx="10" fill="#E3F4FC"/>
<path d="M373.774 321.075V329.916C373.774 331.439 373.083 332.201 371.701 332.201C371.403 332.201 371.127 332.157 370.874 332.069V330.985C371.03 331.024 371.235 331.043 371.489 331.043C371.792 331.043 372.021 330.96 372.177 330.794C372.338 330.633 372.419 330.35 372.419 329.945V321.075H373.774ZM372.28 318.973C372.28 318.758 372.346 318.575 372.478 318.424C372.614 318.268 372.812 318.189 373.071 318.189C373.334 318.189 373.535 318.265 373.671 318.417C373.808 318.568 373.876 318.753 373.876 318.973C373.876 319.193 373.808 319.376 373.671 319.522C373.535 319.669 373.334 319.742 373.071 319.742C372.807 319.742 372.609 319.669 372.478 319.522C372.346 319.376 372.28 319.193 372.28 318.973ZM375.605 324.964C375.605 324.188 375.756 323.49 376.059 322.87C376.367 322.25 376.792 321.771 377.333 321.434C377.88 321.097 378.503 320.929 379.201 320.929C380.28 320.929 381.152 321.302 381.816 322.049C382.485 322.796 382.819 323.79 382.819 325.03V325.125C382.819 325.897 382.67 326.59 382.373 327.206C382.08 327.816 381.657 328.292 381.105 328.634C380.559 328.976 379.929 329.146 379.216 329.146C378.142 329.146 377.27 328.773 376.601 328.026C375.937 327.279 375.605 326.29 375.605 325.06V324.964ZM376.967 325.125C376.967 326.004 377.17 326.71 377.575 327.242C377.985 327.774 378.532 328.041 379.216 328.041C379.904 328.041 380.451 327.772 380.856 327.235C381.262 326.693 381.464 325.936 381.464 324.964C381.464 324.095 381.257 323.392 380.842 322.855C380.432 322.313 379.885 322.042 379.201 322.042C378.532 322.042 377.993 322.308 377.583 322.84C377.172 323.373 376.967 324.134 376.967 325.125ZM391.228 325.125C391.228 326.336 390.949 327.311 390.393 328.048C389.836 328.78 389.089 329.146 388.151 329.146C387.15 329.146 386.376 328.792 385.83 328.084L385.764 329H384.519V317.75H385.874V321.947C386.42 321.268 387.175 320.929 388.137 320.929C389.099 320.929 389.853 321.292 390.4 322.02C390.952 322.748 391.228 323.744 391.228 325.008V325.125ZM389.873 324.972C389.873 324.049 389.694 323.336 389.338 322.833C388.981 322.33 388.469 322.079 387.8 322.079C386.906 322.079 386.264 322.494 385.874 323.324V326.751C386.289 327.582 386.936 327.997 387.814 327.997C388.464 327.997 388.969 327.745 389.331 327.242C389.692 326.739 389.873 325.982 389.873 324.972ZM397.556 326.898C397.556 326.532 397.417 326.249 397.138 326.048C396.865 325.843 396.384 325.667 395.695 325.521C395.012 325.375 394.467 325.199 394.062 324.994C393.662 324.789 393.364 324.544 393.168 324.261C392.978 323.978 392.883 323.641 392.883 323.25C392.883 322.601 393.156 322.052 393.703 321.603C394.255 321.153 394.958 320.929 395.812 320.929C396.711 320.929 397.438 321.161 397.995 321.625C398.557 322.088 398.837 322.682 398.837 323.404H397.475C397.475 323.033 397.316 322.713 396.999 322.445C396.687 322.176 396.291 322.042 395.812 322.042C395.319 322.042 394.934 322.149 394.655 322.364C394.377 322.579 394.238 322.86 394.238 323.207C394.238 323.534 394.367 323.78 394.626 323.946C394.885 324.112 395.351 324.271 396.025 324.422C396.704 324.574 397.253 324.754 397.673 324.964C398.093 325.174 398.403 325.428 398.603 325.726C398.808 326.019 398.911 326.378 398.911 326.803C398.911 327.511 398.627 328.08 398.061 328.509C397.495 328.934 396.76 329.146 395.856 329.146C395.222 329.146 394.66 329.034 394.172 328.81C393.684 328.585 393.3 328.272 393.022 327.872C392.749 327.467 392.612 327.03 392.612 326.561H393.967C393.991 327.015 394.172 327.376 394.509 327.645C394.851 327.909 395.3 328.041 395.856 328.041C396.369 328.041 396.779 327.938 397.087 327.733C397.399 327.523 397.556 327.245 397.556 326.898Z" fill="black"/>
<rect x="394" y="379" width="173" height="38" rx="10" fill="#E3F4FC"/>
<path d="M427.097 396.291C426.892 396.257 426.67 396.24 426.431 396.24C425.542 396.24 424.939 396.618 424.622 397.375V403H423.267V395.075H424.585L424.607 395.991C425.051 395.283 425.681 394.929 426.497 394.929C426.76 394.929 426.96 394.963 427.097 395.031V396.291ZM431.492 403.146C430.417 403.146 429.543 402.795 428.87 402.092C428.196 401.384 427.859 400.439 427.859 399.257V399.008C427.859 398.222 428.008 397.521 428.306 396.906C428.608 396.286 429.028 395.803 429.565 395.456C430.107 395.104 430.693 394.929 431.323 394.929C432.354 394.929 433.154 395.268 433.726 395.947C434.297 396.625 434.583 397.597 434.583 398.862V399.426H429.214C429.233 400.207 429.46 400.839 429.895 401.323C430.334 401.801 430.891 402.041 431.565 402.041C432.043 402.041 432.449 401.943 432.781 401.748C433.113 401.552 433.403 401.293 433.652 400.971L434.48 401.616C433.816 402.636 432.82 403.146 431.492 403.146ZM431.323 396.042C430.776 396.042 430.317 396.242 429.946 396.643C429.575 397.038 429.346 397.595 429.258 398.312H433.228V398.21C433.188 397.521 433.003 396.989 432.671 396.613C432.339 396.232 431.89 396.042 431.323 396.042ZM441.05 403C440.972 402.844 440.908 402.565 440.859 402.165C440.229 402.819 439.478 403.146 438.604 403.146C437.822 403.146 437.18 402.927 436.677 402.487C436.179 402.043 435.93 401.481 435.93 400.803C435.93 399.978 436.243 399.338 436.868 398.884C437.498 398.425 438.381 398.195 439.519 398.195H440.837V397.573C440.837 397.099 440.696 396.723 440.413 396.445C440.129 396.162 439.712 396.02 439.16 396.02C438.677 396.02 438.271 396.142 437.944 396.386C437.617 396.63 437.454 396.926 437.454 397.272H436.091C436.091 396.877 436.23 396.496 436.509 396.13C436.792 395.759 437.173 395.466 437.651 395.251C438.135 395.036 438.665 394.929 439.241 394.929C440.154 394.929 440.869 395.158 441.387 395.617C441.904 396.071 442.173 396.699 442.192 397.5V401.147C442.192 401.875 442.285 402.453 442.471 402.883V403H441.05ZM438.801 401.967C439.226 401.967 439.629 401.857 440.01 401.638C440.391 401.418 440.667 401.132 440.837 400.781V399.155H439.775C438.115 399.155 437.285 399.641 437.285 400.612C437.285 401.037 437.427 401.369 437.71 401.608C437.993 401.848 438.357 401.967 438.801 401.967ZM443.987 398.972C443.987 397.756 444.275 396.779 444.851 396.042C445.427 395.3 446.182 394.929 447.114 394.929C448.042 394.929 448.777 395.246 449.319 395.881V391.75H450.674V403H449.429L449.363 402.15C448.821 402.814 448.066 403.146 447.1 403.146C446.182 403.146 445.432 402.771 444.851 402.019C444.275 401.267 443.987 400.285 443.987 399.074V398.972ZM445.342 399.125C445.342 400.024 445.527 400.727 445.898 401.235C446.27 401.743 446.782 401.997 447.437 401.997C448.296 401.997 448.923 401.611 449.319 400.839V397.199C448.914 396.452 448.291 396.079 447.451 396.079C446.787 396.079 446.27 396.335 445.898 396.848C445.527 397.36 445.342 398.12 445.342 399.125ZM456.174 398.972C456.174 397.756 456.462 396.779 457.039 396.042C457.615 395.3 458.369 394.929 459.302 394.929C460.229 394.929 460.964 395.246 461.506 395.881V391.75H462.861V403H461.616L461.55 402.15C461.008 402.814 460.254 403.146 459.287 403.146C458.369 403.146 457.62 402.771 457.039 402.019C456.462 401.267 456.174 400.285 456.174 399.074V398.972ZM457.529 399.125C457.529 400.024 457.715 400.727 458.086 401.235C458.457 401.743 458.97 401.997 459.624 401.997C460.483 401.997 461.111 401.611 461.506 400.839V397.199C461.101 396.452 460.479 396.079 459.639 396.079C458.975 396.079 458.457 396.335 458.086 396.848C457.715 397.36 457.529 398.12 457.529 399.125ZM468.259 403.146C467.185 403.146 466.311 402.795 465.637 402.092C464.963 401.384 464.626 400.439 464.626 399.257V399.008C464.626 398.222 464.775 397.521 465.073 396.906C465.376 396.286 465.796 395.803 466.333 395.456C466.875 395.104 467.461 394.929 468.091 394.929C469.121 394.929 469.922 395.268 470.493 395.947C471.064 396.625 471.35 397.597 471.35 398.862V399.426H465.981C466.001 400.207 466.228 400.839 466.663 401.323C467.102 401.801 467.659 402.041 468.333 402.041C468.811 402.041 469.216 401.943 469.548 401.748C469.88 401.552 470.171 401.293 470.42 400.971L471.248 401.616C470.583 402.636 469.587 403.146 468.259 403.146ZM468.091 396.042C467.544 396.042 467.085 396.242 466.714 396.643C466.343 397.038 466.113 397.595 466.025 398.312H469.995V398.21C469.956 397.521 469.771 396.989 469.438 396.613C469.106 396.232 468.657 396.042 468.091 396.042ZM477.539 400.898C477.539 400.532 477.4 400.249 477.122 400.048C476.848 399.843 476.367 399.667 475.679 399.521C474.995 399.375 474.451 399.199 474.045 398.994C473.645 398.789 473.347 398.544 473.152 398.261C472.961 397.978 472.866 397.641 472.866 397.25C472.866 396.601 473.14 396.052 473.687 395.603C474.238 395.153 474.941 394.929 475.796 394.929C476.694 394.929 477.422 395.161 477.979 395.625C478.54 396.088 478.821 396.682 478.821 397.404H477.458C477.458 397.033 477.3 396.713 476.982 396.445C476.67 396.176 476.274 396.042 475.796 396.042C475.303 396.042 474.917 396.149 474.639 396.364C474.36 396.579 474.221 396.86 474.221 397.207C474.221 397.534 474.351 397.78 474.609 397.946C474.868 398.112 475.334 398.271 476.008 398.422C476.687 398.574 477.236 398.754 477.656 398.964C478.076 399.174 478.386 399.428 478.586 399.726C478.792 400.019 478.894 400.378 478.894 400.803C478.894 401.511 478.611 402.08 478.044 402.509C477.478 402.934 476.743 403.146 475.84 403.146C475.205 403.146 474.644 403.034 474.155 402.81C473.667 402.585 473.284 402.272 473.005 401.872C472.732 401.467 472.595 401.03 472.595 400.561H473.95C473.975 401.015 474.155 401.376 474.492 401.645C474.834 401.909 475.283 402.041 475.84 402.041C476.353 402.041 476.763 401.938 477.07 401.733C477.383 401.523 477.539 401.245 477.539 400.898ZM483.838 402.041C484.321 402.041 484.744 401.894 485.105 401.601C485.466 401.308 485.667 400.942 485.706 400.502H486.987C486.963 400.957 486.807 401.389 486.519 401.799C486.23 402.209 485.845 402.536 485.361 402.78C484.883 403.024 484.375 403.146 483.838 403.146C482.759 403.146 481.899 402.788 481.26 402.07C480.625 401.347 480.308 400.361 480.308 399.111V398.884C480.308 398.112 480.449 397.426 480.732 396.826C481.016 396.225 481.421 395.759 481.948 395.427C482.48 395.095 483.108 394.929 483.831 394.929C484.719 394.929 485.457 395.195 486.042 395.727C486.633 396.259 486.948 396.95 486.987 397.8H485.706C485.667 397.287 485.471 396.867 485.12 396.54C484.773 396.208 484.343 396.042 483.831 396.042C483.142 396.042 482.607 396.291 482.227 396.789C481.851 397.282 481.663 397.998 481.663 398.935V399.191C481.663 400.104 481.851 400.808 482.227 401.301C482.603 401.794 483.14 402.041 483.838 402.041ZM492.341 396.291C492.136 396.257 491.914 396.24 491.675 396.24C490.786 396.24 490.183 396.618 489.866 397.375V403H488.511V395.075H489.829L489.851 395.991C490.295 395.283 490.925 394.929 491.741 394.929C492.004 394.929 492.205 394.963 492.341 395.031V396.291ZM495.066 403H493.711V395.075H495.066V403ZM493.601 392.973C493.601 392.753 493.667 392.568 493.799 392.417C493.936 392.265 494.136 392.189 494.399 392.189C494.663 392.189 494.863 392.265 495 392.417C495.137 392.568 495.205 392.753 495.205 392.973C495.205 393.193 495.137 393.376 495 393.522C494.863 393.669 494.663 393.742 494.399 393.742C494.136 393.742 493.936 393.669 493.799 393.522C493.667 393.376 493.601 393.193 493.601 392.973ZM503.936 399.125C503.936 400.332 503.66 401.303 503.108 402.041C502.556 402.778 501.809 403.146 500.867 403.146C499.905 403.146 499.148 402.841 498.596 402.231V406.047H497.241V395.075H498.479L498.545 395.954C499.097 395.271 499.863 394.929 500.845 394.929C501.797 394.929 502.549 395.288 503.101 396.005C503.657 396.723 503.936 397.722 503.936 399.001V399.125ZM502.581 398.972C502.581 398.078 502.39 397.373 502.009 396.855C501.628 396.337 501.106 396.079 500.442 396.079C499.622 396.079 499.006 396.442 498.596 397.17V400.957C499.001 401.679 499.622 402.041 500.457 402.041C501.106 402.041 501.621 401.784 502.002 401.271C502.388 400.754 502.581 399.987 502.581 398.972ZM507.502 393.156V395.075H508.982V396.123H507.502V401.037C507.502 401.354 507.568 401.594 507.7 401.755C507.832 401.911 508.057 401.989 508.374 401.989C508.53 401.989 508.745 401.96 509.019 401.901V403C508.662 403.098 508.315 403.146 507.979 403.146C507.373 403.146 506.917 402.963 506.609 402.597C506.301 402.231 506.147 401.711 506.147 401.037V396.123H504.705V395.075H506.147V393.156H507.502ZM512.043 403H510.688V395.075H512.043V403ZM510.579 392.973C510.579 392.753 510.645 392.568 510.776 392.417C510.913 392.265 511.113 392.189 511.377 392.189C511.641 392.189 511.841 392.265 511.978 392.417C512.114 392.568 512.183 392.753 512.183 392.973C512.183 393.193 512.114 393.376 511.978 393.522C511.841 393.669 511.641 393.742 511.377 393.742C511.113 393.742 510.913 393.669 510.776 393.522C510.645 393.376 510.579 393.193 510.579 392.973ZM513.86 398.964C513.86 398.188 514.011 397.49 514.314 396.87C514.622 396.25 515.046 395.771 515.588 395.434C516.135 395.097 516.758 394.929 517.456 394.929C518.535 394.929 519.407 395.302 520.071 396.049C520.74 396.796 521.074 397.79 521.074 399.03V399.125C521.074 399.897 520.925 400.59 520.627 401.206C520.334 401.816 519.912 402.292 519.36 402.634C518.813 402.976 518.184 403.146 517.471 403.146C516.396 403.146 515.525 402.773 514.856 402.026C514.192 401.279 513.86 400.29 513.86 399.06V398.964ZM515.222 399.125C515.222 400.004 515.425 400.71 515.83 401.242C516.24 401.774 516.787 402.041 517.471 402.041C518.159 402.041 518.706 401.772 519.111 401.235C519.517 400.693 519.719 399.936 519.719 398.964C519.719 398.095 519.512 397.392 519.097 396.855C518.687 396.313 518.14 396.042 517.456 396.042C516.787 396.042 516.248 396.308 515.837 396.84C515.427 397.373 515.222 398.134 515.222 399.125ZM524.055 395.075L524.099 396.071C524.705 395.31 525.496 394.929 526.472 394.929C528.147 394.929 528.992 395.874 529.006 397.763V403H527.651V397.756C527.646 397.185 527.515 396.762 527.256 396.489C527.002 396.215 526.604 396.079 526.062 396.079C525.623 396.079 525.237 396.196 524.905 396.43C524.573 396.665 524.314 396.972 524.128 397.353V403H522.773V395.075H524.055ZM535.664 400.898C535.664 400.532 535.525 400.249 535.247 400.048C534.973 399.843 534.492 399.667 533.804 399.521C533.12 399.375 532.576 399.199 532.17 398.994C531.77 398.789 531.472 398.544 531.277 398.261C531.086 397.978 530.991 397.641 530.991 397.25C530.991 396.601 531.265 396.052 531.812 395.603C532.363 395.153 533.066 394.929 533.921 394.929C534.819 394.929 535.547 395.161 536.104 395.625C536.665 396.088 536.946 396.682 536.946 397.404H535.583C535.583 397.033 535.425 396.713 535.107 396.445C534.795 396.176 534.399 396.042 533.921 396.042C533.428 396.042 533.042 396.149 532.764 396.364C532.485 396.579 532.346 396.86 532.346 397.207C532.346 397.534 532.476 397.78 532.734 397.946C532.993 398.112 533.459 398.271 534.133 398.422C534.812 398.574 535.361 398.754 535.781 398.964C536.201 399.174 536.511 399.428 536.711 399.726C536.917 400.019 537.019 400.378 537.019 400.803C537.019 401.511 536.736 402.08 536.169 402.509C535.603 402.934 534.868 403.146 533.965 403.146C533.33 403.146 532.769 403.034 532.28 402.81C531.792 402.585 531.409 402.272 531.13 401.872C530.857 401.467 530.72 401.03 530.72 400.561H532.075C532.1 401.015 532.28 401.376 532.617 401.645C532.959 401.909 533.408 402.041 533.965 402.041C534.478 402.041 534.888 401.938 535.195 401.733C535.508 401.523 535.664 401.245 535.664 400.898Z" fill="black"/>
<rect x="583" y="428" width="173" height="38" rx="10" fill="#E3F4FC"/>
<path d="M626.241 452C626.163 451.844 626.1 451.565 626.051 451.165C625.421 451.819 624.669 452.146 623.795 452.146C623.014 452.146 622.372 451.927 621.869 451.487C621.371 451.043 621.122 450.481 621.122 449.803C621.122 448.978 621.434 448.338 622.059 447.884C622.689 447.425 623.573 447.195 624.71 447.195H626.029V446.573C626.029 446.099 625.887 445.723 625.604 445.445C625.321 445.162 624.903 445.02 624.352 445.02C623.868 445.02 623.463 445.142 623.136 445.386C622.809 445.63 622.645 445.926 622.645 446.272H621.283C621.283 445.877 621.422 445.496 621.7 445.13C621.983 444.759 622.364 444.466 622.843 444.251C623.326 444.036 623.856 443.929 624.432 443.929C625.345 443.929 626.061 444.158 626.578 444.617C627.096 445.071 627.364 445.699 627.384 446.5V450.147C627.384 450.875 627.477 451.453 627.662 451.883V452H626.241ZM623.993 450.967C624.417 450.967 624.82 450.857 625.201 450.638C625.582 450.418 625.858 450.132 626.029 449.781V448.155H624.967C623.307 448.155 622.477 448.641 622.477 449.612C622.477 450.037 622.618 450.369 622.901 450.608C623.185 450.848 623.548 450.967 623.993 450.967ZM634.122 449.898C634.122 449.532 633.983 449.249 633.705 449.048C633.431 448.843 632.95 448.667 632.262 448.521C631.578 448.375 631.034 448.199 630.628 447.994C630.228 447.789 629.93 447.544 629.735 447.261C629.544 446.978 629.449 446.641 629.449 446.25C629.449 445.601 629.723 445.052 630.27 444.603C630.821 444.153 631.524 443.929 632.379 443.929C633.277 443.929 634.005 444.161 634.562 444.625C635.123 445.088 635.404 445.682 635.404 446.404H634.042C634.042 446.033 633.883 445.713 633.565 445.445C633.253 445.176 632.857 445.042 632.379 445.042C631.886 445.042 631.5 445.149 631.222 445.364C630.943 445.579 630.804 445.86 630.804 446.207C630.804 446.534 630.934 446.78 631.192 446.946C631.451 447.112 631.917 447.271 632.591 447.422C633.27 447.574 633.819 447.754 634.239 447.964C634.659 448.174 634.969 448.428 635.169 448.726C635.375 449.019 635.477 449.378 635.477 449.803C635.477 450.511 635.194 451.08 634.627 451.509C634.061 451.934 633.326 452.146 632.423 452.146C631.788 452.146 631.227 452.034 630.738 451.81C630.25 451.585 629.867 451.272 629.588 450.872C629.315 450.467 629.178 450.03 629.178 449.561H630.533C630.558 450.015 630.738 450.376 631.075 450.645C631.417 450.909 631.866 451.041 632.423 451.041C632.936 451.041 633.346 450.938 633.653 450.733C633.966 450.523 634.122 450.245 634.122 449.898ZM639.454 448.331L638.604 449.217V452H637.25V440.75H638.604V447.554L639.33 446.683L641.798 444.075H643.446L640.362 447.386L643.805 452H642.215L639.454 448.331ZM649.232 452V445.123H647.979V444.075H649.232V443.262C649.232 442.413 649.459 441.756 649.913 441.292C650.367 440.828 651.009 440.596 651.839 440.596C652.152 440.596 652.462 440.638 652.77 440.721L652.696 441.819C652.467 441.775 652.223 441.753 651.964 441.753C651.524 441.753 651.185 441.883 650.946 442.142C650.707 442.396 650.587 442.762 650.587 443.24V444.075H652.279V445.123H650.587V452H649.232ZM653.421 447.964C653.421 447.188 653.573 446.49 653.875 445.87C654.183 445.25 654.608 444.771 655.15 444.434C655.697 444.097 656.319 443.929 657.018 443.929C658.097 443.929 658.968 444.302 659.632 445.049C660.301 445.796 660.636 446.79 660.636 448.03V448.125C660.636 448.897 660.487 449.59 660.189 450.206C659.896 450.816 659.474 451.292 658.922 451.634C658.375 451.976 657.745 452.146 657.032 452.146C655.958 452.146 655.086 451.773 654.417 451.026C653.753 450.279 653.421 449.29 653.421 448.06V447.964ZM654.784 448.125C654.784 449.004 654.986 449.71 655.392 450.242C655.802 450.774 656.349 451.041 657.032 451.041C657.721 451.041 658.268 450.772 658.673 450.235C659.078 449.693 659.281 448.936 659.281 447.964C659.281 447.095 659.073 446.392 658.658 445.855C658.248 445.313 657.701 445.042 657.018 445.042C656.349 445.042 655.809 445.308 655.399 445.84C654.989 446.373 654.784 447.134 654.784 448.125ZM666.166 445.291C665.96 445.257 665.738 445.24 665.499 445.24C664.61 445.24 664.007 445.618 663.69 446.375V452H662.335V444.075H663.653L663.675 444.991C664.12 444.283 664.75 443.929 665.565 443.929C665.829 443.929 666.029 443.963 666.166 444.031V445.291ZM674.969 445.291C674.764 445.257 674.542 445.24 674.303 445.24C673.414 445.24 672.811 445.618 672.494 446.375V452H671.139V444.075H672.457L672.479 444.991C672.923 444.283 673.553 443.929 674.369 443.929C674.632 443.929 674.833 443.963 674.969 444.031V445.291ZM679.364 452.146C678.29 452.146 677.416 451.795 676.742 451.092C676.068 450.384 675.731 449.439 675.731 448.257V448.008C675.731 447.222 675.88 446.521 676.178 445.906C676.48 445.286 676.9 444.803 677.438 444.456C677.979 444.104 678.565 443.929 679.195 443.929C680.226 443.929 681.026 444.268 681.598 444.947C682.169 445.625 682.455 446.597 682.455 447.862V448.426H677.086C677.105 449.207 677.333 449.839 677.767 450.323C678.207 450.801 678.763 451.041 679.437 451.041C679.916 451.041 680.321 450.943 680.653 450.748C680.985 450.552 681.275 450.293 681.524 449.971L682.352 450.616C681.688 451.636 680.692 452.146 679.364 452.146ZM679.195 445.042C678.648 445.042 678.189 445.242 677.818 445.643C677.447 446.038 677.218 446.595 677.13 447.312H681.1V447.21C681.061 446.521 680.875 445.989 680.543 445.613C680.211 445.232 679.762 445.042 679.195 445.042ZM684.696 452V445.123H683.443V444.075H684.696V443.262C684.696 442.413 684.923 441.756 685.377 441.292C685.831 440.828 686.473 440.596 687.303 440.596C687.616 440.596 687.926 440.638 688.233 440.721L688.16 441.819C687.931 441.775 687.687 441.753 687.428 441.753C686.988 441.753 686.649 441.883 686.41 442.142C686.17 442.396 686.051 442.762 686.051 443.24V444.075H687.743V445.123H686.051V452H684.696ZM692.357 452.146C691.283 452.146 690.409 451.795 689.735 451.092C689.061 450.384 688.724 449.439 688.724 448.257V448.008C688.724 447.222 688.873 446.521 689.171 445.906C689.474 445.286 689.894 444.803 690.431 444.456C690.973 444.104 691.559 443.929 692.188 443.929C693.219 443.929 694.02 444.268 694.591 444.947C695.162 445.625 695.448 446.597 695.448 447.862V448.426H690.079C690.099 449.207 690.326 449.839 690.76 450.323C691.2 450.801 691.756 451.041 692.43 451.041C692.909 451.041 693.314 450.943 693.646 450.748C693.978 450.552 694.269 450.293 694.518 449.971L695.345 450.616C694.681 451.636 693.685 452.146 692.357 452.146ZM692.188 445.042C691.642 445.042 691.183 445.242 690.812 445.643C690.44 446.038 690.211 446.595 690.123 447.312H694.093V447.21C694.054 446.521 693.868 445.989 693.536 445.613C693.204 445.232 692.755 445.042 692.188 445.042ZM700.853 445.291C700.648 445.257 700.426 445.24 700.187 445.24C699.298 445.24 698.695 445.618 698.377 446.375V452H697.022V444.075H698.341L698.363 444.991C698.807 444.283 699.437 443.929 700.252 443.929C700.516 443.929 700.716 443.963 700.853 444.031V445.291ZM705.936 445.291C705.731 445.257 705.509 445.24 705.27 445.24C704.381 445.24 703.778 445.618 703.46 446.375V452H702.105V444.075H703.424L703.446 444.991C703.89 444.283 704.52 443.929 705.335 443.929C705.599 443.929 705.799 443.963 705.936 444.031V445.291ZM711.788 452C711.71 451.844 711.646 451.565 711.598 451.165C710.968 451.819 710.216 452.146 709.342 452.146C708.561 452.146 707.918 451.927 707.416 451.487C706.917 451.043 706.668 450.481 706.668 449.803C706.668 448.978 706.981 448.338 707.606 447.884C708.236 447.425 709.12 447.195 710.257 447.195H711.576V446.573C711.576 446.099 711.434 445.723 711.151 445.445C710.868 445.162 710.45 445.02 709.898 445.02C709.415 445.02 709.01 445.142 708.683 445.386C708.355 445.63 708.192 445.926 708.192 446.272H706.83C706.83 445.877 706.969 445.496 707.247 445.13C707.53 444.759 707.911 444.466 708.39 444.251C708.873 444.036 709.403 443.929 709.979 443.929C710.892 443.929 711.607 444.158 712.125 444.617C712.643 445.071 712.911 445.699 712.931 446.5V450.147C712.931 450.875 713.023 451.453 713.209 451.883V452H711.788ZM709.54 450.967C709.964 450.967 710.367 450.857 710.748 450.638C711.129 450.418 711.405 450.132 711.576 449.781V448.155H710.514C708.854 448.155 708.023 448.641 708.023 449.612C708.023 450.037 708.165 450.369 708.448 450.608C708.731 450.848 709.095 450.967 709.54 450.967ZM716.527 452H715.172V440.75H716.527V452Z" fill="black"/>
<rect x="583" y="478" width="173" height="38" rx="10" fill="#E3F4FC"/>
<path d="M613.988 497.972C613.988 496.736 614.273 495.755 614.845 495.027C615.416 494.295 616.173 493.929 617.115 493.929C618.082 493.929 618.836 494.271 619.378 494.954L619.444 494.075H620.682V501.81C620.682 502.835 620.377 503.643 619.767 504.234C619.161 504.825 618.346 505.12 617.32 505.12C616.749 505.12 616.19 504.998 615.643 504.754C615.096 504.51 614.679 504.175 614.391 503.75L615.094 502.938C615.675 503.655 616.385 504.014 617.225 504.014C617.884 504.014 618.397 503.829 618.763 503.458C619.134 503.086 619.32 502.564 619.32 501.89V501.209C618.778 501.834 618.038 502.146 617.101 502.146C616.173 502.146 615.421 501.773 614.845 501.026C614.273 500.279 613.988 499.261 613.988 497.972ZM615.35 498.125C615.35 499.019 615.533 499.722 615.899 500.235C616.266 500.743 616.778 500.997 617.438 500.997C618.292 500.997 618.919 500.608 619.32 499.832V496.214C618.905 495.457 618.282 495.079 617.452 495.079C616.793 495.079 616.278 495.335 615.907 495.848C615.536 496.36 615.35 497.12 615.35 498.125ZM622.374 497.964C622.374 497.188 622.525 496.49 622.828 495.87C623.136 495.25 623.561 494.771 624.103 494.434C624.649 494.097 625.272 493.929 625.97 493.929C627.049 493.929 627.921 494.302 628.585 495.049C629.254 495.796 629.588 496.79 629.588 498.03V498.125C629.588 498.897 629.439 499.59 629.142 500.206C628.849 500.816 628.426 501.292 627.875 501.634C627.328 501.976 626.698 502.146 625.985 502.146C624.911 502.146 624.039 501.773 623.37 501.026C622.706 500.279 622.374 499.29 622.374 498.06V497.964ZM623.736 498.125C623.736 499.004 623.939 499.71 624.344 500.242C624.754 500.774 625.301 501.041 625.985 501.041C626.673 501.041 627.22 500.772 627.625 500.235C628.031 499.693 628.233 498.936 628.233 497.964C628.233 497.095 628.026 496.392 627.611 495.855C627.201 495.313 626.654 495.042 625.97 495.042C625.301 495.042 624.762 495.308 624.352 495.84C623.941 496.373 623.736 497.134 623.736 498.125ZM636.847 492.156V494.075H638.326V495.123H636.847V500.037C636.847 500.354 636.913 500.594 637.044 500.755C637.176 500.911 637.401 500.989 637.718 500.989C637.875 500.989 638.089 500.96 638.363 500.901V502C638.006 502.098 637.66 502.146 637.323 502.146C636.717 502.146 636.261 501.963 635.953 501.597C635.646 501.231 635.492 500.711 635.492 500.037V495.123H634.049V494.075H635.492V492.156H636.847ZM639.41 497.964C639.41 497.188 639.562 496.49 639.864 495.87C640.172 495.25 640.597 494.771 641.139 494.434C641.686 494.097 642.308 493.929 643.006 493.929C644.085 493.929 644.957 494.302 645.621 495.049C646.29 495.796 646.625 496.79 646.625 498.03V498.125C646.625 498.897 646.476 499.59 646.178 500.206C645.885 500.816 645.462 501.292 644.911 501.634C644.364 501.976 643.734 502.146 643.021 502.146C641.947 502.146 641.075 501.773 640.406 501.026C639.742 500.279 639.41 499.29 639.41 498.06V497.964ZM640.772 498.125C640.772 499.004 640.975 499.71 641.38 500.242C641.791 500.774 642.337 501.041 643.021 501.041C643.709 501.041 644.256 500.772 644.662 500.235C645.067 499.693 645.27 498.936 645.27 497.964C645.27 497.095 645.062 496.392 644.647 495.855C644.237 495.313 643.69 495.042 643.006 495.042C642.337 495.042 641.798 495.308 641.388 495.84C640.978 496.373 640.772 497.134 640.772 498.125ZM656.937 502C656.859 501.844 656.795 501.565 656.747 501.165C656.117 501.819 655.365 502.146 654.491 502.146C653.709 502.146 653.067 501.927 652.564 501.487C652.066 501.043 651.817 500.481 651.817 499.803C651.817 498.978 652.13 498.338 652.755 497.884C653.385 497.425 654.269 497.195 655.406 497.195H656.725V496.573C656.725 496.099 656.583 495.723 656.3 495.445C656.017 495.162 655.599 495.02 655.047 495.02C654.564 495.02 654.159 495.142 653.832 495.386C653.504 495.63 653.341 495.926 653.341 496.272H651.979C651.979 495.877 652.118 495.496 652.396 495.13C652.679 494.759 653.06 494.466 653.539 494.251C654.022 494.036 654.552 493.929 655.128 493.929C656.041 493.929 656.756 494.158 657.274 494.617C657.792 495.071 658.06 495.699 658.08 496.5V500.147C658.08 500.875 658.172 501.453 658.358 501.883V502H656.937ZM654.688 500.967C655.113 500.967 655.516 500.857 655.897 500.638C656.278 500.418 656.554 500.132 656.725 499.781V498.155H655.663C654.002 498.155 653.172 498.641 653.172 499.612C653.172 500.037 653.314 500.369 653.597 500.608C653.88 500.848 654.244 500.967 654.688 500.967ZM666.898 498.125C666.898 499.332 666.622 500.303 666.07 501.041C665.519 501.778 664.771 502.146 663.829 502.146C662.867 502.146 662.11 501.841 661.559 501.231V505.047H660.204V494.075H661.441L661.507 494.954C662.059 494.271 662.826 493.929 663.807 493.929C664.759 493.929 665.511 494.288 666.063 495.005C666.62 495.723 666.898 496.722 666.898 498.001V498.125ZM665.543 497.972C665.543 497.078 665.353 496.373 664.972 495.855C664.591 495.337 664.068 495.079 663.404 495.079C662.584 495.079 661.969 495.442 661.559 496.17V499.957C661.964 500.679 662.584 501.041 663.419 501.041C664.068 501.041 664.583 500.784 664.964 500.271C665.35 499.754 665.543 498.987 665.543 497.972ZM675.321 498.125C675.321 499.332 675.045 500.303 674.493 501.041C673.941 501.778 673.194 502.146 672.252 502.146C671.29 502.146 670.533 501.841 669.981 501.231V505.047H668.626V494.075H669.864L669.93 494.954C670.482 494.271 671.249 493.929 672.23 493.929C673.182 493.929 673.934 494.288 674.486 495.005C675.042 495.723 675.321 496.722 675.321 498.001V498.125ZM673.966 497.972C673.966 497.078 673.775 496.373 673.395 495.855C673.014 495.337 672.491 495.079 671.827 495.079C671.007 495.079 670.392 495.442 669.981 496.17V499.957C670.387 500.679 671.007 501.041 671.842 501.041C672.491 501.041 673.006 500.784 673.387 500.271C673.773 499.754 673.966 498.987 673.966 497.972ZM678.521 502H677.167V490.75H678.521V502ZM682.169 502H680.814V494.075H682.169V502ZM680.704 491.973C680.704 491.753 680.77 491.568 680.902 491.417C681.039 491.265 681.239 491.189 681.502 491.189C681.766 491.189 681.966 491.265 682.103 491.417C682.24 491.568 682.308 491.753 682.308 491.973C682.308 492.193 682.24 492.376 682.103 492.522C681.966 492.669 681.766 492.742 681.502 492.742C681.239 492.742 681.039 492.669 680.902 492.522C680.77 492.376 680.704 492.193 680.704 491.973ZM687.523 501.041C688.006 501.041 688.429 500.894 688.79 500.601C689.151 500.308 689.352 499.942 689.391 499.502H690.672C690.648 499.957 690.492 500.389 690.204 500.799C689.916 501.209 689.53 501.536 689.046 501.78C688.568 502.024 688.06 502.146 687.523 502.146C686.444 502.146 685.584 501.788 684.945 501.07C684.31 500.347 683.993 499.361 683.993 498.111V497.884C683.993 497.112 684.134 496.426 684.417 495.826C684.701 495.225 685.106 494.759 685.633 494.427C686.166 494.095 686.793 493.929 687.516 493.929C688.404 493.929 689.142 494.195 689.728 494.727C690.318 495.259 690.633 495.95 690.672 496.8H689.391C689.352 496.287 689.156 495.867 688.805 495.54C688.458 495.208 688.028 495.042 687.516 495.042C686.827 495.042 686.292 495.291 685.912 495.789C685.536 496.282 685.348 496.998 685.348 497.935V498.191C685.348 499.104 685.536 499.808 685.912 500.301C686.288 500.794 686.825 501.041 687.523 501.041ZM697.088 502C697.01 501.844 696.947 501.565 696.898 501.165C696.268 501.819 695.516 502.146 694.642 502.146C693.861 502.146 693.219 501.927 692.716 501.487C692.218 501.043 691.969 500.481 691.969 499.803C691.969 498.978 692.281 498.338 692.906 497.884C693.536 497.425 694.42 497.195 695.558 497.195H696.876V496.573C696.876 496.099 696.734 495.723 696.451 495.445C696.168 495.162 695.75 495.02 695.199 495.02C694.715 495.02 694.31 495.142 693.983 495.386C693.656 495.63 693.492 495.926 693.492 496.272H692.13C692.13 495.877 692.269 495.496 692.547 495.13C692.831 494.759 693.211 494.466 693.69 494.251C694.173 494.036 694.703 493.929 695.279 493.929C696.192 493.929 696.908 494.158 697.425 494.617C697.943 495.071 698.211 495.699 698.231 496.5V500.147C698.231 500.875 698.324 501.453 698.509 501.883V502H697.088ZM694.84 500.967C695.265 500.967 695.667 500.857 696.048 500.638C696.429 500.418 696.705 500.132 696.876 499.781V498.155H695.814C694.154 498.155 693.324 498.641 693.324 499.612C693.324 500.037 693.465 500.369 693.749 500.608C694.032 500.848 694.396 500.967 694.84 500.967ZM702.193 492.156V494.075H703.673V495.123H702.193V500.037C702.193 500.354 702.259 500.594 702.391 500.755C702.523 500.911 702.748 500.989 703.065 500.989C703.221 500.989 703.436 500.96 703.709 500.901V502C703.353 502.098 703.006 502.146 702.669 502.146C702.064 502.146 701.607 501.963 701.3 501.597C700.992 501.231 700.838 500.711 700.838 500.037V495.123H699.396V494.075H700.838V492.156H702.193ZM706.734 502H705.379V494.075H706.734V502ZM705.27 491.973C705.27 491.753 705.335 491.568 705.467 491.417C705.604 491.265 705.804 491.189 706.068 491.189C706.332 491.189 706.532 491.265 706.668 491.417C706.805 491.568 706.874 491.753 706.874 491.973C706.874 492.193 706.805 492.376 706.668 492.522C706.532 492.669 706.332 492.742 706.068 492.742C705.804 492.742 705.604 492.669 705.467 492.522C705.335 492.376 705.27 492.193 705.27 491.973ZM708.551 497.964C708.551 497.188 708.702 496.49 709.005 495.87C709.312 495.25 709.737 494.771 710.279 494.434C710.826 494.097 711.449 493.929 712.147 493.929C713.226 493.929 714.098 494.302 714.762 495.049C715.431 495.796 715.765 496.79 715.765 498.03V498.125C715.765 498.897 715.616 499.59 715.318 500.206C715.025 500.816 714.603 501.292 714.051 501.634C713.504 501.976 712.875 502.146 712.162 502.146C711.087 502.146 710.216 501.773 709.547 501.026C708.883 500.279 708.551 499.29 708.551 498.06V497.964ZM709.913 498.125C709.913 499.004 710.116 499.71 710.521 500.242C710.931 500.774 711.478 501.041 712.162 501.041C712.85 501.041 713.397 500.772 713.802 500.235C714.208 499.693 714.41 498.936 714.41 497.964C714.41 497.095 714.203 496.392 713.788 495.855C713.377 495.313 712.831 495.042 712.147 495.042C711.478 495.042 710.938 495.308 710.528 495.84C710.118 496.373 709.913 497.134 709.913 498.125ZM718.746 494.075L718.79 495.071C719.396 494.31 720.187 493.929 721.163 493.929C722.838 493.929 723.683 494.874 723.697 496.763V502H722.342V496.756C722.337 496.185 722.206 495.762 721.947 495.489C721.693 495.215 721.295 495.079 720.753 495.079C720.313 495.079 719.928 495.196 719.596 495.43C719.264 495.665 719.005 495.972 718.819 496.353V502H717.464V494.075H718.746Z" fill="black"/>
<rect x="771" y="478" width="173" height="38" rx="10" fill="#E3F4FC"/>
<path d="M802.632 501.041C803.116 501.041 803.538 500.894 803.899 500.601C804.261 500.308 804.461 499.942 804.5 499.502H805.782C805.757 499.957 805.601 500.389 805.313 500.799C805.025 501.209 804.639 501.536 804.156 501.78C803.677 502.024 803.169 502.146 802.632 502.146C801.553 502.146 800.694 501.788 800.054 501.07C799.419 500.347 799.102 499.361 799.102 498.111V497.884C799.102 497.112 799.244 496.426 799.527 495.826C799.81 495.225 800.215 494.759 800.743 494.427C801.275 494.095 801.902 493.929 802.625 493.929C803.514 493.929 804.251 494.195 804.837 494.727C805.428 495.259 805.743 495.95 805.782 496.8H804.5C804.461 496.287 804.266 495.867 803.914 495.54C803.567 495.208 803.138 495.042 802.625 495.042C801.937 495.042 801.402 495.291 801.021 495.789C800.645 496.282 800.457 496.998 800.457 497.935V498.191C800.457 499.104 800.645 499.808 801.021 500.301C801.397 500.794 801.934 501.041 802.632 501.041ZM806.946 497.964C806.946 497.188 807.098 496.49 807.4 495.87C807.708 495.25 808.133 494.771 808.675 494.434C809.222 494.097 809.844 493.929 810.542 493.929C811.622 493.929 812.493 494.302 813.157 495.049C813.826 495.796 814.161 496.79 814.161 498.03V498.125C814.161 498.897 814.012 499.59 813.714 500.206C813.421 500.816 812.999 501.292 812.447 501.634C811.9 501.976 811.27 502.146 810.557 502.146C809.483 502.146 808.611 501.773 807.942 501.026C807.278 500.279 806.946 499.29 806.946 498.06V497.964ZM808.309 498.125C808.309 499.004 808.511 499.71 808.917 500.242C809.327 500.774 809.874 501.041 810.557 501.041C811.246 501.041 811.792 500.772 812.198 500.235C812.603 499.693 812.806 498.936 812.806 497.964C812.806 497.095 812.598 496.392 812.183 495.855C811.773 495.313 811.226 495.042 810.542 495.042C809.874 495.042 809.334 495.308 808.924 495.84C808.514 496.373 808.309 497.134 808.309 498.125ZM817.134 494.075L817.171 494.954C817.752 494.271 818.536 493.929 819.522 493.929C820.63 493.929 821.385 494.354 821.785 495.203C822.049 494.822 822.391 494.515 822.811 494.28C823.235 494.046 823.736 493.929 824.312 493.929C826.05 493.929 826.934 494.849 826.963 496.69V502H825.608V496.771C825.608 496.204 825.479 495.782 825.22 495.503C824.961 495.22 824.527 495.079 823.917 495.079C823.414 495.079 822.996 495.23 822.664 495.533C822.332 495.831 822.139 496.233 822.085 496.741V502H820.723V496.807C820.723 495.655 820.159 495.079 819.031 495.079C818.143 495.079 817.535 495.457 817.208 496.214V502H815.853V494.075H817.134ZM835.708 498.125C835.708 499.332 835.433 500.303 834.881 501.041C834.329 501.778 833.582 502.146 832.64 502.146C831.678 502.146 830.921 501.841 830.369 501.231V505.047H829.014V494.075H830.252L830.318 494.954C830.87 494.271 831.636 493.929 832.618 493.929C833.57 493.929 834.322 494.288 834.874 495.005C835.43 495.723 835.708 496.722 835.708 498.001V498.125ZM834.354 497.972C834.354 497.078 834.163 496.373 833.782 495.855C833.401 495.337 832.879 495.079 832.215 495.079C831.395 495.079 830.779 495.442 830.369 496.17V499.957C830.774 500.679 831.395 501.041 832.229 501.041C832.879 501.041 833.394 500.784 833.775 500.271C834.161 499.754 834.354 498.987 834.354 497.972ZM842.33 502C842.251 501.844 842.188 501.565 842.139 501.165C841.509 501.819 840.757 502.146 839.883 502.146C839.102 502.146 838.46 501.927 837.957 501.487C837.459 501.043 837.21 500.481 837.21 499.803C837.21 498.978 837.522 498.338 838.147 497.884C838.777 497.425 839.661 497.195 840.799 497.195H842.117V496.573C842.117 496.099 841.976 495.723 841.692 495.445C841.409 495.162 840.992 495.02 840.44 495.02C839.957 495.02 839.551 495.142 839.224 495.386C838.897 495.63 838.733 495.926 838.733 496.272H837.371C837.371 495.877 837.51 495.496 837.789 495.13C838.072 494.759 838.453 494.466 838.931 494.251C839.415 494.036 839.944 493.929 840.521 493.929C841.434 493.929 842.149 494.158 842.667 494.617C843.184 495.071 843.453 495.699 843.472 496.5V500.147C843.472 500.875 843.565 501.453 843.75 501.883V502H842.33ZM840.081 500.967C840.506 500.967 840.909 500.857 841.29 500.638C841.67 500.418 841.946 500.132 842.117 499.781V498.155H841.055C839.395 498.155 838.565 498.641 838.565 499.612C838.565 500.037 838.707 500.369 838.99 500.608C839.273 500.848 839.637 500.967 840.081 500.967ZM846.878 494.075L846.922 495.071C847.527 494.31 848.318 493.929 849.295 493.929C850.97 493.929 851.814 494.874 851.829 496.763V502H850.474V496.756C850.469 496.185 850.337 495.762 850.079 495.489C849.825 495.215 849.427 495.079 848.885 495.079C848.445 495.079 848.06 495.196 847.728 495.43C847.396 495.665 847.137 495.972 846.951 496.353V502H845.596V494.075H846.878ZM856.465 500.015L858.311 494.075H859.761L856.575 503.223C856.082 504.542 855.298 505.201 854.224 505.201L853.968 505.179L853.462 505.083V503.985L853.829 504.014C854.288 504.014 854.644 503.921 854.898 503.736C855.157 503.55 855.369 503.211 855.535 502.718L855.835 501.912L853.008 494.075H854.488L856.465 500.015ZM871.714 500.132L873.238 494.075H874.593L872.286 502H871.187L869.261 495.994L867.386 502H866.287L863.987 494.075H865.335L866.895 500.008L868.741 494.075H869.832L871.714 500.132ZM879.266 502.146C878.191 502.146 877.317 501.795 876.644 501.092C875.97 500.384 875.633 499.439 875.633 498.257V498.008C875.633 497.222 875.782 496.521 876.08 495.906C876.382 495.286 876.802 494.803 877.339 494.456C877.881 494.104 878.467 493.929 879.097 493.929C880.127 493.929 880.928 494.268 881.5 494.947C882.071 495.625 882.356 496.597 882.356 497.862V498.426H876.988C877.007 499.207 877.234 499.839 877.669 500.323C878.108 500.801 878.665 501.041 879.339 501.041C879.817 501.041 880.223 500.943 880.555 500.748C880.887 500.552 881.177 500.293 881.426 499.971L882.254 500.616C881.59 501.636 880.594 502.146 879.266 502.146ZM879.097 495.042C878.55 495.042 878.091 495.242 877.72 495.643C877.349 496.038 877.12 496.595 877.032 497.312H881.001V497.21C880.962 496.521 880.777 495.989 880.445 495.613C880.113 495.232 879.664 495.042 879.097 495.042ZM890.64 498.125C890.64 499.336 890.362 500.311 889.805 501.048C889.249 501.78 888.501 502.146 887.564 502.146C886.563 502.146 885.789 501.792 885.242 501.084L885.176 502H883.931V490.75H885.286V494.947C885.833 494.268 886.587 493.929 887.549 493.929C888.511 493.929 889.266 494.292 889.812 495.02C890.364 495.748 890.64 496.744 890.64 498.008V498.125ZM889.285 497.972C889.285 497.049 889.107 496.336 888.75 495.833C888.394 495.33 887.881 495.079 887.212 495.079C886.319 495.079 885.677 495.494 885.286 496.324V499.751C885.701 500.582 886.348 500.997 887.227 500.997C887.876 500.997 888.382 500.745 888.743 500.242C889.104 499.739 889.285 498.982 889.285 497.972ZM896.968 499.898C896.968 499.532 896.829 499.249 896.551 499.048C896.277 498.843 895.796 498.667 895.108 498.521C894.424 498.375 893.88 498.199 893.475 497.994C893.074 497.789 892.776 497.544 892.581 497.261C892.391 496.978 892.295 496.641 892.295 496.25C892.295 495.601 892.569 495.052 893.116 494.603C893.667 494.153 894.371 493.929 895.225 493.929C896.124 493.929 896.851 494.161 897.408 494.625C897.969 495.088 898.25 495.682 898.25 496.404H896.888C896.888 496.033 896.729 495.713 896.412 495.445C896.099 495.176 895.704 495.042 895.225 495.042C894.732 495.042 894.346 495.149 894.068 495.364C893.79 495.579 893.65 495.86 893.65 496.207C893.65 496.534 893.78 496.78 894.039 496.946C894.297 497.112 894.764 497.271 895.438 497.422C896.116 497.574 896.666 497.754 897.085 497.964C897.505 498.174 897.815 498.428 898.016 498.726C898.221 499.019 898.323 499.378 898.323 499.803C898.323 500.511 898.04 501.08 897.474 501.509C896.907 501.934 896.172 502.146 895.269 502.146C894.634 502.146 894.073 502.034 893.584 501.81C893.096 501.585 892.713 501.272 892.435 500.872C892.161 500.467 892.024 500.03 892.024 499.561H893.379C893.404 500.015 893.584 500.376 893.921 500.645C894.263 500.909 894.712 501.041 895.269 501.041C895.782 501.041 896.192 500.938 896.5 500.733C896.812 500.523 896.968 500.245 896.968 499.898ZM901.561 502H900.206V494.075H901.561V502ZM900.096 491.973C900.096 491.753 900.162 491.568 900.293 491.417C900.43 491.265 900.63 491.189 900.894 491.189C901.158 491.189 901.358 491.265 901.495 491.417C901.631 491.568 901.7 491.753 901.7 491.973C901.7 492.193 901.631 492.376 901.495 492.522C901.358 492.669 901.158 492.742 900.894 492.742C900.63 492.742 900.43 492.669 900.293 492.522C900.162 492.376 900.096 492.193 900.096 491.973ZM905.574 492.156V494.075H907.054V495.123H905.574V500.037C905.574 500.354 905.64 500.594 905.772 500.755C905.904 500.911 906.128 500.989 906.446 500.989C906.602 500.989 906.817 500.96 907.09 500.901V502C906.734 502.098 906.387 502.146 906.05 502.146C905.445 502.146 904.988 501.963 904.681 501.597C904.373 501.231 904.219 500.711 904.219 500.037V495.123H902.776V494.075H904.219V492.156H905.574ZM911.932 502.146C910.857 502.146 909.983 501.795 909.31 501.092C908.636 500.384 908.299 499.439 908.299 498.257V498.008C908.299 497.222 908.448 496.521 908.746 495.906C909.048 495.286 909.468 494.803 910.005 494.456C910.547 494.104 911.133 493.929 911.763 493.929C912.793 493.929 913.594 494.268 914.166 494.947C914.737 495.625 915.022 496.597 915.022 497.862V498.426H909.654C909.673 499.207 909.9 499.839 910.335 500.323C910.774 500.801 911.331 501.041 912.005 501.041C912.483 501.041 912.889 500.943 913.221 500.748C913.553 500.552 913.843 500.293 914.092 499.971L914.92 500.616C914.256 501.636 913.26 502.146 911.932 502.146ZM911.763 495.042C911.216 495.042 910.757 495.242 910.386 495.643C910.015 496.038 909.786 496.595 909.698 497.312H913.667V497.21C913.628 496.521 913.443 495.989 913.111 495.613C912.779 495.232 912.33 495.042 911.763 495.042Z" fill="black"/>
<rect x="394" y="453" width="173" height="38" rx="10" fill="#E3F4FC"/>
<path d="M468.04 477C467.961 476.844 467.898 476.565 467.849 476.165C467.219 476.819 466.467 477.146 465.593 477.146C464.812 477.146 464.17 476.927 463.667 476.487C463.169 476.043 462.92 475.481 462.92 474.803C462.92 473.978 463.232 473.338 463.857 472.884C464.487 472.425 465.371 472.195 466.509 472.195H467.827V471.573C467.827 471.099 467.686 470.723 467.402 470.445C467.119 470.162 466.702 470.02 466.15 470.02C465.667 470.02 465.261 470.142 464.934 470.386C464.607 470.63 464.443 470.926 464.443 471.272H463.081C463.081 470.877 463.22 470.496 463.499 470.13C463.782 469.759 464.163 469.466 464.641 469.251C465.125 469.036 465.654 468.929 466.23 468.929C467.144 468.929 467.859 469.158 468.376 469.617C468.894 470.071 469.163 470.699 469.182 471.5V475.147C469.182 475.875 469.275 476.453 469.46 476.883V477H468.04ZM465.791 475.967C466.216 475.967 466.619 475.857 467 475.638C467.38 475.418 467.656 475.132 467.827 474.781V473.155H466.765C465.105 473.155 464.275 473.641 464.275 474.612C464.275 475.037 464.417 475.369 464.7 475.608C464.983 475.848 465.347 475.967 465.791 475.967ZM478 473.125C478 474.332 477.725 475.303 477.173 476.041C476.621 476.778 475.874 477.146 474.932 477.146C473.97 477.146 473.213 476.841 472.661 476.231V480.047H471.306V469.075H472.544L472.61 469.954C473.162 469.271 473.928 468.929 474.91 468.929C475.862 468.929 476.614 469.288 477.166 470.005C477.722 470.723 478 471.722 478 473.001V473.125ZM476.646 472.972C476.646 472.078 476.455 471.373 476.074 470.855C475.693 470.337 475.171 470.079 474.507 470.079C473.687 470.079 473.071 470.442 472.661 471.17V474.957C473.066 475.679 473.687 476.041 474.521 476.041C475.171 476.041 475.686 475.784 476.067 475.271C476.453 474.754 476.646 473.987 476.646 472.972ZM486.423 473.125C486.423 474.332 486.147 475.303 485.596 476.041C485.044 476.778 484.297 477.146 483.354 477.146C482.393 477.146 481.636 476.841 481.084 476.231V480.047H479.729V469.075H480.967L481.033 469.954C481.584 469.271 482.351 468.929 483.333 468.929C484.285 468.929 485.037 469.288 485.588 470.005C486.145 470.723 486.423 471.722 486.423 473.001V473.125ZM485.068 472.972C485.068 472.078 484.878 471.373 484.497 470.855C484.116 470.337 483.594 470.079 482.93 470.079C482.109 470.079 481.494 470.442 481.084 471.17V474.957C481.489 475.679 482.109 476.041 482.944 476.041C483.594 476.041 484.109 475.784 484.49 475.271C484.875 474.754 485.068 473.987 485.068 472.972ZM489.624 477H488.269V465.75H489.624V477ZM494.392 475.015L496.238 469.075H497.688L494.502 478.223C494.009 479.542 493.225 480.201 492.151 480.201L491.895 480.179L491.389 480.083V478.985L491.755 479.014C492.214 479.014 492.571 478.921 492.825 478.736C493.083 478.55 493.296 478.211 493.462 477.718L493.762 476.912L490.935 469.075H492.415L494.392 475.015Z" fill="black"/>
<path d="M103 181L108.774 171L97.2265 171L103 181ZM102 145L102 172L104 172L104 145L102 145Z" fill="#189DDC"/>
<path d="M480 453L485.774 443H474.226L480 453ZM479 417V444H481V417H479Z" fill="#189DDC"/>
<path d="M771 497L761 491.226V502.774L771 497ZM756 498H762V496H756V498Z" fill="#189DDC"/>
<path d="M193 150V149H192V150H193ZM205 150L195 144.226V155.774L205 150ZM193 250H192V251H193V250ZM205 250L195 244.226V255.774L205 250ZM205 200L195 194.226V205.774L205 200ZM189 201H193V199H189V201ZM194 200V150H192V200H194ZM193 151H196V149H193V151ZM192 200V250H194V200H192ZM193 251H196V249H193V251ZM193 201H196V199H193V201Z" fill="#189DDC"/>
<path d="M291.5 281.5H290.5V282.5H291.5V281.5ZM385.5 281.5H386.5V280.5H385.5V281.5ZM385.5 305L391.274 295H379.726L385.5 305ZM290.5 269V281.5H292.5V269H290.5ZM291.5 282.5H385.5V280.5H291.5V282.5ZM384.5 281.5V296H386.5V281.5H384.5Z" fill="#189DDC"/>
<path d="M386 355.5H385V356.5H386V355.5ZM480 355.5H481V354.5H480V355.5ZM480 379L485.774 369H474.226L480 379ZM385 343V355.5H387V343H385ZM386 356.5H480V354.5H386V356.5ZM479 355.5V370H481V355.5H479Z" fill="#189DDC"/>
<path d="M571 447V446H570V447H571ZM583 447L573 441.226V452.774L583 447ZM571 497H570V498H571V497ZM583 497L573 491.226V502.774L583 497ZM567 473H571V471H567V473ZM572 472V447H570V472H572ZM571 448H574V446H571V448ZM570 472V497H572V472H570ZM571 498H574V496H571V498Z" fill="#189DDC"/>
</svg>
