<svg width="201" height="48" viewBox="0 0 201 48" fill="none" xmlns="http://www.w3.org/2000/svg">
<rect width="200.8" height="48" fill="url(#paint0_linear)"/>
<path d="M46.9308 27.952C46.9308 28.4 47.0348 28.624 47.2428 28.624C47.5948 28.624 48.0268 28.52 48.5388 28.312L49.0668 29.656C47.5948 30.744 46.1708 31.288 44.7948 31.288C43.9948 31.288 43.3548 31.064 42.8748 30.616C42.4108 30.152 42.1788 29.504 42.1788 28.672C42.1788 27.84 42.5868 25.96 43.4028 23.032C44.2188 20.088 44.6668 18.04 44.7468 16.888C44.7468 16.616 44.6588 16.32 44.4828 16C44.3068 15.68 44.1388 15.424 43.9788 15.232L43.7148 14.944L43.7628 14.464C44.7708 14.128 46.5548 13.96 49.1148 13.96C49.3708 14.44 49.4988 14.952 49.4988 15.496C49.4988 16.424 49.0668 18.448 48.2028 21.568C47.3548 24.688 46.9308 26.816 46.9308 27.952ZM51.1627 31.144H50.5627C50.5627 30.008 50.7787 28.424 51.2107 26.392C51.6587 24.344 51.8827 23.208 51.8827 22.984C51.8827 22.76 51.8107 22.512 51.6667 22.24C51.5227 21.968 51.3787 21.76 51.2347 21.616L51.0187 21.4L51.0667 21.04C51.9947 20.736 53.6347 20.584 55.9867 20.584C56.1627 20.952 56.2827 21.344 56.3467 21.76C57.7387 20.848 58.9147 20.392 59.8747 20.392C60.3867 20.392 60.8187 20.528 61.1707 20.8C61.5387 21.072 61.7947 21.432 61.9387 21.88C63.2667 20.888 64.4827 20.392 65.5867 20.392C66.3067 20.392 66.8667 20.616 67.2667 21.064C67.6827 21.496 67.8907 22.024 67.8907 22.648C67.8907 23.256 67.7147 24.248 67.3627 25.624C67.0107 27 66.8347 27.888 66.8347 28.288C66.8347 28.672 66.8987 28.864 67.0267 28.864L68.2747 28.552L68.7067 29.752C68.2267 30.136 67.5627 30.488 66.7147 30.808C65.8827 31.128 65.1307 31.288 64.4587 31.288C63.0827 31.288 62.3947 30.592 62.3947 29.2C62.3947 28.608 62.5627 27.6 62.8987 26.176C63.2347 24.752 63.4027 23.888 63.4027 23.584C63.4027 23.264 63.2827 23.104 63.0427 23.104C62.7067 23.104 62.3467 23.24 61.9627 23.512C61.9147 23.752 61.7867 24.328 61.5787 25.24C61.1307 27.288 60.9067 29.104 60.9067 30.688C60.1707 30.96 58.7387 31.096 56.6107 31.096C56.5627 30.92 56.5387 30.504 56.5387 29.848C56.5387 29.192 56.7147 28.032 57.0667 26.368C57.4187 24.704 57.5947 23.744 57.5947 23.488C57.5947 23.232 57.4827 23.104 57.2587 23.104C56.9867 23.104 56.6347 23.232 56.2027 23.488C56.1547 23.76 56.0027 24.456 55.7467 25.576C55.2027 27.928 54.9307 29.64 54.9307 30.712C54.1787 31 52.9227 31.144 51.1627 31.144ZM68.6356 36.376C68.5076 36.168 68.4436 35.728 68.4436 35.056C68.4436 34.384 68.7476 32.56 69.3556 29.584C69.9796 26.608 70.2916 24.744 70.2916 23.992C70.2916 23.24 70.2196 22.672 70.0756 22.288C69.9316 21.888 69.7876 21.632 69.6436 21.52L69.4276 21.352L69.4756 20.992C70.4356 20.688 72.0596 20.536 74.3476 20.536C74.4756 20.776 74.5796 21.088 74.6596 21.472C75.6836 20.736 76.6516 20.368 77.5636 20.368C78.4756 20.368 79.2196 20.72 79.7956 21.424C80.3876 22.112 80.6836 23.288 80.6836 24.952C80.6836 26.616 80.2436 28.088 79.3636 29.368C78.4996 30.648 77.2276 31.288 75.5476 31.288C74.8116 31.288 74.0916 31.144 73.3876 30.856C73.0196 32.664 72.8356 34.256 72.8356 35.632C71.6836 36.048 70.2836 36.296 68.6356 36.376ZM74.4436 29.272C74.8756 29.272 75.2436 28.952 75.5476 28.312C76.0916 27.192 76.3636 25.832 76.3636 24.232C76.3636 23.288 76.1316 22.816 75.6676 22.816C75.4276 22.816 75.1076 22.904 74.7076 23.08C74.6116 24.424 74.2916 26.448 73.7476 29.152C74.0196 29.232 74.2516 29.272 74.4436 29.272ZM82.1408 31.144H81.9488C81.9008 30.92 81.8768 30.576 81.8768 30.112C81.8768 29.632 82.0688 28.408 82.4528 26.44C82.8528 24.456 83.0528 23.336 83.0528 23.08C83.0528 22.808 82.9808 22.536 82.8368 22.264C82.6928 21.976 82.5488 21.76 82.4048 21.616L82.1888 21.4L82.2368 21.04C83.1968 20.736 84.7888 20.584 87.0128 20.584C87.2208 20.984 87.3488 21.456 87.3968 22C88.3728 20.912 89.2368 20.368 89.9888 20.368C90.9648 20.368 91.5008 21.192 91.5968 22.84C91.5648 22.872 91.5248 22.928 91.4768 23.008C91.4288 23.072 91.3168 23.192 91.1408 23.368C90.9648 23.544 90.7808 23.704 90.5888 23.848C90.0448 24.216 89.4688 24.432 88.8608 24.496C88.8448 24.496 88.7328 24.32 88.5248 23.968C88.3328 23.616 88.1648 23.44 88.0208 23.44C87.8928 23.44 87.6448 23.584 87.2768 23.872C87.2288 24.16 87.1328 24.648 86.9888 25.336C86.8608 26.024 86.7568 26.592 86.6768 27.04C86.4368 28.224 86.3168 29.216 86.3168 30.016L86.3408 30.736C85.6368 31.008 84.2368 31.144 82.1408 31.144ZM90.8433 26.656C90.8433 24.672 91.4433 23.128 92.6433 22.024C93.8593 20.92 95.3553 20.368 97.1313 20.368C98.3633 20.368 99.3473 20.64 100.083 21.184C100.835 21.712 101.211 22.424 101.211 23.32C101.211 23.976 101.011 24.56 100.611 25.072C100.211 25.584 99.7233 25.976 99.1473 26.248C97.9313 26.792 96.8753 27.12 95.9793 27.232L95.3793 27.304C95.5553 28.36 96.0833 28.888 96.9633 28.888C97.3473 28.888 97.7713 28.808 98.2353 28.648C98.6993 28.472 99.0673 28.296 99.3393 28.12L99.7473 27.88L100.515 28.912C100.515 28.912 100.427 29 100.251 29.176C100.155 29.272 99.9233 29.464 99.5553 29.752C99.2033 30.024 98.8273 30.264 98.4273 30.472C98.0433 30.68 97.5473 30.864 96.9393 31.024C96.3313 31.2 95.7233 31.288 95.1153 31.288C93.7553 31.288 92.6993 30.896 91.9473 30.112C91.2113 29.312 90.8433 28.16 90.8433 26.656ZM95.2833 25.72C95.7473 25.656 96.2113 25.28 96.6753 24.592C97.1393 23.888 97.3713 23.304 97.3713 22.84C97.3713 22.36 97.2353 22.12 96.9633 22.12C96.5633 22.12 96.1953 22.432 95.8593 23.056C95.5233 23.68 95.3313 24.568 95.2833 25.72ZM109.883 27.76C109.883 28.752 109.419 29.592 108.491 30.28C107.579 30.952 106.507 31.288 105.275 31.288C104.043 31.288 103.027 31.08 102.227 30.664C101.443 30.248 101.051 29.856 101.051 29.488C101.051 29.104 101.291 28.624 101.771 28.048C102.267 27.456 102.771 27.112 103.283 27.016C104.019 27.416 104.683 28.304 105.275 29.68C105.739 29.68 105.971 29.528 105.971 29.224C105.971 29 105.907 28.792 105.779 28.6C105.651 28.408 105.555 28.256 105.491 28.144C105.427 28.032 105.315 27.88 105.155 27.688C104.995 27.48 104.875 27.328 104.795 27.232C104.395 26.752 104.035 26.312 103.715 25.912C102.947 24.952 102.563 24.112 102.563 23.392C102.563 22.656 102.795 22.056 103.259 21.592C104.059 20.776 105.235 20.368 106.787 20.368C107.763 20.368 108.539 20.56 109.115 20.944C109.691 21.312 109.979 21.872 109.979 22.624C109.979 23.36 109.539 24.208 108.659 25.168C109.475 26.112 109.883 26.976 109.883 27.76ZM108.275 23.368C108.467 23.064 108.563 22.792 108.563 22.552C108.563 22.312 108.459 22.128 108.251 22C108.043 21.872 107.795 21.808 107.507 21.808C107.219 21.808 106.995 21.88 106.835 22.024C106.691 22.152 106.619 22.328 106.619 22.552C106.619 22.776 106.963 23.272 107.651 24.04C107.875 23.88 108.083 23.656 108.275 23.368ZM119.117 27.76C119.117 28.752 118.653 29.592 117.725 30.28C116.813 30.952 115.741 31.288 114.509 31.288C113.277 31.288 112.261 31.08 111.461 30.664C110.677 30.248 110.285 29.856 110.285 29.488C110.285 29.104 110.525 28.624 111.005 28.048C111.501 27.456 112.005 27.112 112.517 27.016C113.253 27.416 113.917 28.304 114.509 29.68C114.973 29.68 115.205 29.528 115.205 29.224C115.205 29 115.141 28.792 115.013 28.6C114.885 28.408 114.789 28.256 114.725 28.144C114.661 28.032 114.549 27.88 114.389 27.688C114.229 27.48 114.109 27.328 114.029 27.232C113.629 26.752 113.269 26.312 112.949 25.912C112.181 24.952 111.797 24.112 111.797 23.392C111.797 22.656 112.029 22.056 112.493 21.592C113.293 20.776 114.469 20.368 116.021 20.368C116.997 20.368 117.773 20.56 118.349 20.944C118.925 21.312 119.213 21.872 119.213 22.624C119.213 23.36 118.773 24.208 117.893 25.168C118.709 26.112 119.117 26.976 119.117 27.76ZM117.509 23.368C117.701 23.064 117.797 22.792 117.797 22.552C117.797 22.312 117.693 22.128 117.485 22C117.277 21.872 117.029 21.808 116.741 21.808C116.453 21.808 116.229 21.88 116.069 22.024C115.925 22.152 115.853 22.328 115.853 22.552C115.853 22.776 116.197 23.272 116.885 24.04C117.109 23.88 117.317 23.656 117.509 23.368ZM125.976 22C125.976 22.704 125.776 23.8 125.376 25.288C124.976 26.76 124.776 27.72 124.776 28.168C124.776 28.616 124.864 28.84 125.04 28.84C125.216 28.84 125.536 28.76 126 28.6L126.216 28.504L126.648 29.704C126.104 30.12 125.424 30.488 124.608 30.808C123.808 31.128 123.08 31.288 122.424 31.288C121.768 31.288 121.248 31.104 120.864 30.736C120.496 30.368 120.312 29.84 120.312 29.152C120.312 28.448 120.504 27.384 120.888 25.96C121.288 24.52 121.488 23.608 121.488 23.224C121.488 22.632 121.28 22.072 120.864 21.544L120.672 21.28L120.744 20.872C121.576 20.616 123.192 20.488 125.592 20.488C125.848 20.776 125.976 21.28 125.976 22ZM124.176 18.616C123.456 18.616 122.888 18.424 122.472 18.04C122.072 17.656 121.872 17.168 121.872 16.576C121.872 15.968 122.12 15.464 122.616 15.064C123.128 14.648 123.744 14.44 124.464 14.44C125.184 14.44 125.744 14.608 126.144 14.944C126.544 15.28 126.744 15.752 126.744 16.36C126.744 16.968 126.496 17.496 126 17.944C125.52 18.392 124.912 18.616 124.176 18.616ZM131.227 31.288C129.979 31.288 128.995 30.896 128.275 30.112C127.555 29.312 127.195 28.192 127.195 26.752C127.195 24.992 127.715 23.504 128.755 22.288C129.795 21.056 131.163 20.44 132.859 20.44L133.939 20.536C134.323 20.424 134.683 20.368 135.019 20.368C135.819 20.368 136.387 20.64 136.723 21.184C137.075 21.728 137.275 22.504 137.323 23.512C137.995 23.48 138.635 23.376 139.243 23.2L139.579 23.104C139.691 23.216 139.771 23.552 139.819 24.112L139.843 24.376C139.123 24.744 138.243 25.032 137.203 25.24C136.851 26.936 136.155 28.368 135.115 29.536C134.075 30.704 132.779 31.288 131.227 31.288ZM131.707 26.656C131.707 28.144 132.083 28.888 132.835 28.888C133.363 28.888 133.899 28.552 134.443 27.88C135.003 27.208 135.387 26.392 135.595 25.432C133.963 25.432 133.147 24.648 133.147 23.08C133.147 22.808 133.171 22.528 133.219 22.24C133.059 22.24 132.939 22.264 132.859 22.312C132.587 22.6 132.323 23.184 132.067 24.064C131.827 24.928 131.707 25.792 131.707 26.656ZM138.674 31.144H138.266C138.266 30.152 138.49 28.648 138.938 26.632C139.402 24.616 139.634 23.456 139.634 23.152C139.634 22.848 139.562 22.552 139.418 22.264C139.274 21.976 139.13 21.76 138.986 21.616L138.77 21.4L138.818 21.04C139.762 20.736 141.41 20.584 143.762 20.584C143.922 20.952 144.034 21.336 144.098 21.736C145.554 20.84 146.778 20.392 147.77 20.392C148.442 20.392 148.97 20.616 149.354 21.064C149.738 21.496 149.93 22.024 149.93 22.648C149.93 23.256 149.754 24.24 149.402 25.6C149.05 26.96 148.874 27.848 148.874 28.264C148.874 28.664 148.93 28.864 149.042 28.864L150.314 28.528L150.746 29.728C150.234 30.112 149.562 30.472 148.73 30.808C147.914 31.128 147.162 31.288 146.474 31.288C145.114 31.288 144.434 30.584 144.434 29.176C144.434 28.568 144.602 27.576 144.938 26.2C145.274 24.824 145.442 23.968 145.442 23.632C145.442 23.28 145.33 23.104 145.106 23.104C144.818 23.104 144.434 23.264 143.954 23.584C143.89 23.872 143.73 24.568 143.474 25.672C142.962 27.992 142.706 29.664 142.706 30.688C141.922 30.992 140.578 31.144 138.674 31.144ZM159.547 27.76C159.547 28.752 159.083 29.592 158.155 30.28C157.243 30.952 156.171 31.288 154.939 31.288C153.707 31.288 152.691 31.08 151.891 30.664C151.107 30.248 150.715 29.856 150.715 29.488C150.715 29.104 150.955 28.624 151.435 28.048C151.931 27.456 152.435 27.112 152.947 27.016C153.683 27.416 154.347 28.304 154.939 29.68C155.403 29.68 155.635 29.528 155.635 29.224C155.635 29 155.571 28.792 155.443 28.6C155.315 28.408 155.219 28.256 155.155 28.144C155.091 28.032 154.979 27.88 154.819 27.688C154.659 27.48 154.539 27.328 154.459 27.232C154.059 26.752 153.699 26.312 153.379 25.912C152.611 24.952 152.227 24.112 152.227 23.392C152.227 22.656 152.459 22.056 152.923 21.592C153.723 20.776 154.899 20.368 156.451 20.368C157.427 20.368 158.203 20.56 158.779 20.944C159.355 21.312 159.643 21.872 159.643 22.624C159.643 23.36 159.203 24.208 158.323 25.168C159.139 26.112 159.547 26.976 159.547 27.76ZM157.939 23.368C158.131 23.064 158.227 22.792 158.227 22.552C158.227 22.312 158.123 22.128 157.915 22C157.707 21.872 157.459 21.808 157.171 21.808C156.883 21.808 156.659 21.88 156.499 22.024C156.355 22.152 156.283 22.328 156.283 22.552C156.283 22.776 156.627 23.272 157.315 24.04C157.539 23.88 157.747 23.656 157.939 23.368Z" fill="white"/>
<defs>
<linearGradient id="paint0_linear" x1="100.4" y1="0" x2="100.4" y2="48" gradientUnits="userSpaceOnUse">
<stop stop-color="#E1AFC3"/>
<stop offset="1" stop-color="#BAE1E4"/>
</linearGradient>
</defs>
</svg>
