<svg width="1440" height="1024" viewBox="0 0 1440 1024" fill="none" xmlns="http://www.w3.org/2000/svg">
<rect width="1440" height="1024" fill="white"/>
<rect width="1440" height="60" fill="black"/>
<path d="M36.6475 33.8955C36.4814 36.1904 35.6318 37.9971 34.0986 39.3154C32.5752 40.6338 30.5635 41.293 28.0635 41.293C25.3291 41.293 23.1758 40.375 21.6035 38.5391C20.041 36.6934 19.2598 34.1641 19.2598 30.9512V29.6475C19.2598 27.5967 19.6211 25.79 20.3438 24.2275C21.0664 22.665 22.0967 21.4688 23.4346 20.6387C24.7822 19.7988 26.3447 19.3789 28.1221 19.3789C30.583 19.3789 32.5654 20.0381 34.0693 21.3564C35.5732 22.6748 36.4424 24.5254 36.6768 26.9082H32.2822C32.1748 25.5312 31.7891 24.5352 31.125 23.9199C30.4707 23.2949 29.4697 22.9824 28.1221 22.9824C26.6572 22.9824 25.5586 23.5098 24.8262 24.5645C24.1035 25.6094 23.7324 27.2354 23.7129 29.4424V31.0537C23.7129 33.3584 24.0596 35.043 24.7529 36.1074C25.4561 37.1719 26.5596 37.7041 28.0635 37.7041C29.4209 37.7041 30.4316 37.3965 31.0957 36.7812C31.7695 36.1562 32.1553 35.1943 32.2529 33.8955H36.6475ZM43.9277 37.4697H53.2588V41H39.5332V19.6719H43.9277V37.4697ZM60.4658 41H56.0713V19.6719H60.4658V41ZM77.3848 31.7568H68.9473V37.4697H78.8496V41H64.5527V19.6719H78.8203V23.2314H68.9473V28.3145H77.3848V31.7568ZM98.7715 41H94.377L85.8223 26.9668V41H81.4277V19.6719H85.8223L94.3916 33.7344V19.6719H98.7715V41ZM118.225 23.2314H111.691V41H107.297V23.2314H100.852V19.6719H118.225V23.2314ZM131.73 33.4854V41H127.336V19.6719H135.656C137.258 19.6719 138.664 19.9648 139.875 20.5508C141.096 21.1367 142.033 21.9717 142.688 23.0557C143.342 24.1299 143.669 25.3555 143.669 26.7324C143.669 28.8223 142.951 30.4727 141.516 31.6836C140.09 32.8848 138.112 33.4854 135.583 33.4854H131.73ZM131.73 29.9258H135.656C136.818 29.9258 137.702 29.6523 138.308 29.1055C138.923 28.5586 139.23 27.7773 139.23 26.7617C139.23 25.7168 138.923 24.8721 138.308 24.2275C137.692 23.583 136.843 23.251 135.759 23.2314H131.73V29.9258ZM164.221 30.8193C164.221 32.9189 163.85 34.7598 163.107 36.3418C162.365 37.9238 161.301 39.1445 159.914 40.0039C158.537 40.8633 156.955 41.293 155.168 41.293C153.4 41.293 151.823 40.8682 150.437 40.0186C149.05 39.1689 147.976 37.958 147.214 36.3857C146.452 34.8037 146.066 32.9873 146.057 30.9365V29.8818C146.057 27.7822 146.433 25.9365 147.185 24.3447C147.946 22.7432 149.016 21.5176 150.393 20.668C151.779 19.8086 153.361 19.3789 155.139 19.3789C156.916 19.3789 158.493 19.8086 159.87 20.668C161.257 21.5176 162.326 22.7432 163.078 24.3447C163.84 25.9365 164.221 27.7773 164.221 29.8672V30.8193ZM159.768 29.8525C159.768 27.6162 159.367 25.917 158.566 24.7549C157.766 23.5928 156.623 23.0117 155.139 23.0117C153.664 23.0117 152.526 23.5879 151.726 24.7402C150.925 25.8828 150.52 27.5625 150.51 29.7793V30.8193C150.51 32.9971 150.91 34.6865 151.711 35.8877C152.512 37.0889 153.664 37.6895 155.168 37.6895C156.643 37.6895 157.775 37.1133 158.566 35.9609C159.357 34.7988 159.758 33.1094 159.768 30.8926V29.8525ZM175.31 33.1924H171.809V41H167.414V19.6719H175.339C177.858 19.6719 179.802 20.2334 181.169 21.3564C182.536 22.4795 183.22 24.0664 183.22 26.1172C183.22 27.5723 182.902 28.7881 182.268 29.7646C181.643 30.7314 180.69 31.5029 179.411 32.0791L184.025 40.7949V41H179.309L175.31 33.1924ZM171.809 29.6328H175.354C176.457 29.6328 177.312 29.3545 177.917 28.7979C178.522 28.2314 178.825 27.4551 178.825 26.4688C178.825 25.4629 178.537 24.6719 177.961 24.0957C177.395 23.5195 176.521 23.2314 175.339 23.2314H171.809V29.6328ZM201.896 23.2314H195.363V41H190.969V23.2314H184.523V19.6719H201.896V23.2314ZM214.699 36.6055H206.994L205.529 41H200.856L208.796 19.6719H212.868L220.852 41H216.179L214.699 36.6055ZM208.181 33.0459H213.513L210.832 25.0625L208.181 33.0459ZM227.238 37.4697H236.569V41H222.844V19.6719H227.238V37.4697Z" fill="white"/>
<path d="M659.391 372V354.938H664.207C665.691 354.938 667.004 355.266 668.145 355.922C669.285 356.578 670.164 357.512 670.781 358.723C671.406 359.934 671.723 361.324 671.73 362.895V363.984C671.73 365.594 671.418 367.004 670.793 368.215C670.176 369.426 669.289 370.355 668.133 371.004C666.984 371.652 665.645 371.984 664.113 372H659.391ZM661.641 356.789V370.16H664.008C665.742 370.16 667.09 369.621 668.051 368.543C669.02 367.465 669.504 365.93 669.504 363.938V362.941C669.504 361.004 669.047 359.5 668.133 358.43C667.227 357.352 665.938 356.805 664.266 356.789H661.641ZM688.266 364.02C688.266 365.691 687.984 367.152 687.422 368.402C686.859 369.645 686.062 370.594 685.031 371.25C684 371.906 682.797 372.234 681.422 372.234C680.078 372.234 678.887 371.906 677.848 371.25C676.809 370.586 676 369.645 675.422 368.426C674.852 367.199 674.559 365.781 674.543 364.172V362.941C674.543 361.301 674.828 359.852 675.398 358.594C675.969 357.336 676.773 356.375 677.812 355.711C678.859 355.039 680.055 354.703 681.398 354.703C682.766 354.703 683.969 355.035 685.008 355.699C686.055 356.355 686.859 357.312 687.422 358.57C687.984 359.82 688.266 361.277 688.266 362.941V364.02ZM686.027 362.918C686.027 360.895 685.621 359.344 684.809 358.266C683.996 357.18 682.859 356.637 681.398 356.637C679.977 356.637 678.855 357.18 678.035 358.266C677.223 359.344 676.805 360.844 676.781 362.766V364.02C676.781 365.98 677.191 367.523 678.012 368.648C678.84 369.766 679.977 370.324 681.422 370.324C682.875 370.324 684 369.797 684.797 368.742C685.594 367.68 686.004 366.16 686.027 364.184V362.918ZM704.191 366.586C703.98 368.391 703.312 369.785 702.188 370.77C701.07 371.746 699.582 372.234 697.723 372.234C695.707 372.234 694.09 371.512 692.871 370.066C691.66 368.621 691.055 366.688 691.055 364.266V362.625C691.055 361.039 691.336 359.645 691.898 358.441C692.469 357.238 693.273 356.316 694.312 355.676C695.352 355.027 696.555 354.703 697.922 354.703C699.734 354.703 701.188 355.211 702.281 356.227C703.375 357.234 704.012 358.633 704.191 360.422H701.93C701.734 359.062 701.309 358.078 700.652 357.469C700.004 356.859 699.094 356.555 697.922 356.555C696.484 356.555 695.355 357.086 694.535 358.148C693.723 359.211 693.316 360.723 693.316 362.684V364.336C693.316 366.188 693.703 367.66 694.477 368.754C695.25 369.848 696.332 370.395 697.723 370.395C698.973 370.395 699.93 370.113 700.594 369.551C701.266 368.98 701.711 367.992 701.93 366.586H704.191ZM719.285 354.938V366.539C719.277 368.148 718.77 369.465 717.762 370.488C716.762 371.512 715.402 372.086 713.684 372.211L713.086 372.234C711.219 372.234 709.73 371.73 708.621 370.723C707.512 369.715 706.949 368.328 706.934 366.562V354.938H709.16V366.492C709.16 367.727 709.5 368.688 710.18 369.375C710.859 370.055 711.828 370.395 713.086 370.395C714.359 370.395 715.332 370.055 716.004 369.375C716.684 368.695 717.023 367.738 717.023 366.504V354.938H719.285ZM725.742 354.938L731.32 368.859L736.898 354.938H739.816V372H737.566V365.355L737.777 358.184L732.176 372H730.453L724.863 358.219L725.086 365.355V372H722.836V354.938H725.742ZM753.434 364.113H746.039V370.16H754.629V372H743.789V354.938H754.512V356.789H746.039V362.273H753.434V364.113ZM770.543 372H768.281L759.691 358.852V372H757.43V354.938H759.691L768.305 368.145V354.938H770.543V372ZM785.977 356.789H780.492V372H778.254V356.789H772.781V354.938H785.977V356.789ZM793.348 364.395C791.418 363.84 790.012 363.16 789.129 362.355C788.254 361.543 787.816 360.543 787.816 359.355C787.816 358.012 788.352 356.902 789.422 356.027C790.5 355.145 791.898 354.703 793.617 354.703C794.789 354.703 795.832 354.93 796.746 355.383C797.668 355.836 798.379 356.461 798.879 357.258C799.387 358.055 799.641 358.926 799.641 359.871H797.379C797.379 358.84 797.051 358.031 796.395 357.445C795.738 356.852 794.812 356.555 793.617 356.555C792.508 356.555 791.641 356.801 791.016 357.293C790.398 357.777 790.09 358.453 790.09 359.32C790.09 360.016 790.383 360.605 790.969 361.09C791.562 361.566 792.566 362.004 793.98 362.402C795.402 362.801 796.512 363.242 797.309 363.727C798.113 364.203 798.707 364.762 799.09 365.402C799.48 366.043 799.676 366.797 799.676 367.664C799.676 369.047 799.137 370.156 798.059 370.992C796.98 371.82 795.539 372.234 793.734 372.234C792.562 372.234 791.469 372.012 790.453 371.566C789.438 371.113 788.652 370.496 788.098 369.715C787.551 368.934 787.277 368.047 787.277 367.055H789.539C789.539 368.086 789.918 368.902 790.676 369.504C791.441 370.098 792.461 370.395 793.734 370.395C794.922 370.395 795.832 370.152 796.465 369.668C797.098 369.184 797.414 368.523 797.414 367.688C797.414 366.852 797.121 366.207 796.535 365.754C795.949 365.293 794.887 364.84 793.348 364.395Z" fill="white"/>
<path d="M680.809 782.465H673.648V790H671.398V772.938H681.969V774.789H673.648V780.625H680.809V782.465ZM687.078 790H684.828V772.938H687.078V790ZM704.316 790H702.055L693.465 776.852V790H691.203V772.938H693.465L702.078 786.145V772.938H704.316V790ZM717.945 785.547H710.797L709.191 790H706.871L713.387 772.938H715.355L721.883 790H719.574L717.945 785.547ZM711.477 783.695H717.277L714.371 775.715L711.477 783.695ZM737.293 790H735.031L726.441 776.852V790H724.18V772.938H726.441L735.055 786.145V772.938H737.293V790ZM753.84 784.586C753.629 786.391 752.961 787.785 751.836 788.77C750.719 789.746 749.23 790.234 747.371 790.234C745.355 790.234 743.738 789.512 742.52 788.066C741.309 786.621 740.703 784.688 740.703 782.266V780.625C740.703 779.039 740.984 777.645 741.547 776.441C742.117 775.238 742.922 774.316 743.961 773.676C745 773.027 746.203 772.703 747.57 772.703C749.383 772.703 750.836 773.211 751.93 774.227C753.023 775.234 753.66 776.633 753.84 778.422H751.578C751.383 777.062 750.957 776.078 750.301 775.469C749.652 774.859 748.742 774.555 747.57 774.555C746.133 774.555 745.004 775.086 744.184 776.148C743.371 777.211 742.965 778.723 742.965 780.684V782.336C742.965 784.188 743.352 785.66 744.125 786.754C744.898 787.848 745.98 788.395 747.371 788.395C748.621 788.395 749.578 788.113 750.242 787.551C750.914 786.98 751.359 785.992 751.578 784.586H753.84ZM766.566 782.113H759.172V788.16H767.762V790H756.922V772.938H767.645V774.789H759.172V780.273H766.566V782.113Z" fill="white"/>
<path d="M1123.71 421.098H1119.7V428H1117.44V410.938H1123.09C1125.01 410.938 1126.49 411.375 1127.52 412.25C1128.56 413.125 1129.08 414.398 1129.08 416.07C1129.08 417.133 1128.79 418.059 1128.21 418.848C1127.64 419.637 1126.84 420.227 1125.82 420.617L1129.83 427.859V428H1127.41L1123.71 421.098ZM1119.7 419.258H1123.16C1124.28 419.258 1125.16 418.969 1125.82 418.391C1126.48 417.812 1126.82 417.039 1126.82 416.07C1126.82 415.016 1126.5 414.207 1125.87 413.645C1125.24 413.082 1124.34 412.797 1123.15 412.789H1119.7V419.258ZM1141.89 420.113H1134.49V426.16H1143.08V428H1132.24V410.938H1142.96V412.789H1134.49V418.273H1141.89V420.113ZM1150.91 420.395C1148.98 419.84 1147.57 419.16 1146.69 418.355C1145.82 417.543 1145.38 416.543 1145.38 415.355C1145.38 414.012 1145.91 412.902 1146.98 412.027C1148.06 411.145 1149.46 410.703 1151.18 410.703C1152.35 410.703 1153.39 410.93 1154.31 411.383C1155.23 411.836 1155.94 412.461 1156.44 413.258C1156.95 414.055 1157.2 414.926 1157.2 415.871H1154.94C1154.94 414.84 1154.61 414.031 1153.96 413.445C1153.3 412.852 1152.38 412.555 1151.18 412.555C1150.07 412.555 1149.2 412.801 1148.58 413.293C1147.96 413.777 1147.65 414.453 1147.65 415.32C1147.65 416.016 1147.95 416.605 1148.53 417.09C1149.12 417.566 1150.13 418.004 1151.54 418.402C1152.96 418.801 1154.07 419.242 1154.87 419.727C1155.68 420.203 1156.27 420.762 1156.65 421.402C1157.04 422.043 1157.24 422.797 1157.24 423.664C1157.24 425.047 1156.7 426.156 1155.62 426.992C1154.54 427.82 1153.1 428.234 1151.3 428.234C1150.12 428.234 1149.03 428.012 1148.02 427.566C1147 427.113 1146.21 426.496 1145.66 425.715C1145.11 424.934 1144.84 424.047 1144.84 423.055H1147.1C1147.1 424.086 1147.48 424.902 1148.24 425.504C1149 426.098 1150.02 426.395 1151.3 426.395C1152.48 426.395 1153.39 426.152 1154.03 425.668C1154.66 425.184 1154.98 424.523 1154.98 423.688C1154.98 422.852 1154.68 422.207 1154.1 421.754C1153.51 421.293 1152.45 420.84 1150.91 420.395ZM1173.26 420.02C1173.26 421.691 1172.98 423.152 1172.41 424.402C1171.85 425.645 1171.05 426.594 1170.02 427.25C1168.99 427.906 1167.79 428.234 1166.41 428.234C1165.07 428.234 1163.88 427.906 1162.84 427.25C1161.8 426.586 1160.99 425.645 1160.41 424.426C1159.84 423.199 1159.55 421.781 1159.54 420.172V418.941C1159.54 417.301 1159.82 415.852 1160.39 414.594C1160.96 413.336 1161.77 412.375 1162.8 411.711C1163.85 411.039 1165.05 410.703 1166.39 410.703C1167.76 410.703 1168.96 411.035 1170 411.699C1171.05 412.355 1171.85 413.312 1172.41 414.57C1172.98 415.82 1173.26 417.277 1173.26 418.941V420.02ZM1171.02 418.918C1171.02 416.895 1170.61 415.344 1169.8 414.266C1168.99 413.18 1167.85 412.637 1166.39 412.637C1164.97 412.637 1163.85 413.18 1163.03 414.266C1162.21 415.344 1161.8 416.844 1161.77 418.766V420.02C1161.77 421.98 1162.18 423.523 1163 424.648C1163.83 425.766 1164.97 426.324 1166.41 426.324C1167.87 426.324 1168.99 425.797 1169.79 424.742C1170.59 423.68 1171 422.16 1171.02 420.184V418.918ZM1188.64 410.938V422.539C1188.64 424.148 1188.13 425.465 1187.12 426.488C1186.12 427.512 1184.76 428.086 1183.04 428.211L1182.45 428.234C1180.58 428.234 1179.09 427.73 1177.98 426.723C1176.87 425.715 1176.31 424.328 1176.29 422.562V410.938H1178.52V422.492C1178.52 423.727 1178.86 424.688 1179.54 425.375C1180.22 426.055 1181.19 426.395 1182.45 426.395C1183.72 426.395 1184.69 426.055 1185.36 425.375C1186.04 424.695 1186.38 423.738 1186.38 422.504V410.938H1188.64ZM1198.45 421.098H1194.45V428H1192.18V410.938H1197.83C1199.75 410.938 1201.23 411.375 1202.26 412.25C1203.3 413.125 1203.82 414.398 1203.82 416.07C1203.82 417.133 1203.53 418.059 1202.95 418.848C1202.38 419.637 1201.59 420.227 1200.56 420.617L1204.57 427.859V428H1202.16L1198.45 421.098ZM1194.45 419.258H1197.9C1199.02 419.258 1199.91 418.969 1200.56 418.391C1201.23 417.812 1201.56 417.039 1201.56 416.07C1201.56 415.016 1201.24 414.207 1200.61 413.645C1199.98 413.082 1199.08 412.797 1197.89 412.789H1194.45V419.258ZM1219.54 422.586C1219.32 424.391 1218.66 425.785 1217.53 426.77C1216.41 427.746 1214.93 428.234 1213.07 428.234C1211.05 428.234 1209.43 427.512 1208.21 426.066C1207 424.621 1206.4 422.688 1206.4 420.266V418.625C1206.4 417.039 1206.68 415.645 1207.24 414.441C1207.81 413.238 1208.62 412.316 1209.66 411.676C1210.7 411.027 1211.9 410.703 1213.27 410.703C1215.08 410.703 1216.53 411.211 1217.62 412.227C1218.72 413.234 1219.36 414.633 1219.54 416.422H1217.27C1217.08 415.062 1216.65 414.078 1216 413.469C1215.35 412.859 1214.44 412.555 1213.27 412.555C1211.83 412.555 1210.7 413.086 1209.88 414.148C1209.07 415.211 1208.66 416.723 1208.66 418.684V420.336C1208.66 422.188 1209.05 423.66 1209.82 424.754C1210.59 425.848 1211.68 426.395 1213.07 426.395C1214.32 426.395 1215.27 426.113 1215.94 425.551C1216.61 424.98 1217.05 423.992 1217.27 422.586H1219.54ZM1232.26 420.113H1224.87V426.16H1233.46V428H1222.62V410.938H1233.34V412.789H1224.87V418.273H1232.26V420.113ZM1241.29 420.395C1239.36 419.84 1237.95 419.16 1237.07 418.355C1236.19 417.543 1235.75 416.543 1235.75 415.355C1235.75 414.012 1236.29 412.902 1237.36 412.027C1238.44 411.145 1239.84 410.703 1241.55 410.703C1242.73 410.703 1243.77 410.93 1244.68 411.383C1245.61 411.836 1246.32 412.461 1246.82 413.258C1247.32 414.055 1247.58 414.926 1247.58 415.871H1245.32C1245.32 414.84 1244.99 414.031 1244.33 413.445C1243.68 412.852 1242.75 412.555 1241.55 412.555C1240.45 412.555 1239.58 412.801 1238.95 413.293C1238.34 413.777 1238.03 414.453 1238.03 415.32C1238.03 416.016 1238.32 416.605 1238.91 417.09C1239.5 417.566 1240.5 418.004 1241.92 418.402C1243.34 418.801 1244.45 419.242 1245.25 419.727C1246.05 420.203 1246.64 420.762 1247.03 421.402C1247.42 422.043 1247.61 422.797 1247.61 423.664C1247.61 425.047 1247.07 426.156 1246 426.992C1244.92 427.82 1243.48 428.234 1241.67 428.234C1240.5 428.234 1239.41 428.012 1238.39 427.566C1237.38 427.113 1236.59 426.496 1236.04 425.715C1235.49 424.934 1235.21 424.047 1235.21 423.055H1237.48C1237.48 424.086 1237.86 424.902 1238.61 425.504C1239.38 426.098 1240.4 426.395 1241.67 426.395C1242.86 426.395 1243.77 426.152 1244.4 425.668C1245.04 425.184 1245.35 424.523 1245.35 423.688C1245.35 422.852 1245.06 422.207 1244.47 421.754C1243.89 421.293 1242.82 420.84 1241.29 420.395Z" fill="white"/>
<rect x="40" y="100" width="220" height="48" fill="#E3E3E3"/>
<path d="M89.8359 126.586C89.625 128.391 88.957 129.785 87.832 130.77C86.7148 131.746 85.2266 132.234 83.3672 132.234C81.3516 132.234 79.7344 131.512 78.5156 130.066C77.3047 128.621 76.6992 126.688 76.6992 124.266V122.625C76.6992 121.039 76.9805 119.645 77.543 118.441C78.1133 117.238 78.918 116.316 79.957 115.676C80.9961 115.027 82.1992 114.703 83.5664 114.703C85.3789 114.703 86.832 115.211 87.9258 116.227C89.0195 117.234 89.6562 118.633 89.8359 120.422H87.5742C87.3789 119.062 86.9531 118.078 86.2969 117.469C85.6484 116.859 84.7383 116.555 83.5664 116.555C82.1289 116.555 81 117.086 80.1797 118.148C79.3672 119.211 78.9609 120.723 78.9609 122.684V124.336C78.9609 126.188 79.3477 127.66 80.1211 128.754C80.8945 129.848 81.9766 130.395 83.3672 130.395C84.6172 130.395 85.5742 130.113 86.2383 129.551C86.9102 128.98 87.3555 127.992 87.5742 126.586H89.8359ZM95.1797 130.16H103.266V132H92.918V114.938H95.1797V130.16ZM108.246 132H105.996V114.938H108.246V132ZM122.016 124.113H114.621V130.16H123.211V132H112.371V114.938H123.094V116.789H114.621V122.273H122.016V124.113ZM139.125 132H136.863L128.273 118.852V132H126.012V114.938H128.273L136.887 128.145V114.938H139.125V132ZM154.559 116.789H149.074V132H146.836V116.789H141.363V114.938H154.559V116.789ZM173.895 116.789H168.41V132H166.172V116.789H160.699V114.938H173.895V116.789ZM186.07 124.113H178.676V130.16H187.266V132H176.426V114.938H187.148V116.789H178.676V122.273H186.07V124.113ZM199.488 127.547H192.34L190.734 132H188.414L194.93 114.938H196.898L203.426 132H201.117L199.488 127.547ZM193.02 125.695H198.82L195.914 117.715L193.02 125.695ZM208.629 114.938L214.207 128.859L219.785 114.938H222.703V132H220.453V125.355L220.664 118.184L215.062 132H213.34L207.75 118.219L207.973 125.355V132H205.723V114.938H208.629Z" fill="black"/>
<rect x="300" y="100" width="220" height="48" fill="#E3E3E3"/>
<path d="M326.832 127.547H319.684L318.078 132H315.758L322.273 114.938H324.242L330.77 132H328.461L326.832 127.547ZM320.363 125.695H326.164L323.258 117.715L320.363 125.695ZM343.332 116.789H337.848V132H335.609V116.789H330.137V114.938H343.332V116.789ZM357.84 116.789H352.355V132H350.117V116.789H344.645V114.938H357.84V116.789ZM373.168 124.02C373.168 125.691 372.887 127.152 372.324 128.402C371.762 129.645 370.965 130.594 369.934 131.25C368.902 131.906 367.699 132.234 366.324 132.234C364.98 132.234 363.789 131.906 362.75 131.25C361.711 130.586 360.902 129.645 360.324 128.426C359.754 127.199 359.461 125.781 359.445 124.172V122.941C359.445 121.301 359.73 119.852 360.301 118.594C360.871 117.336 361.676 116.375 362.715 115.711C363.762 115.039 364.957 114.703 366.301 114.703C367.668 114.703 368.871 115.035 369.91 115.699C370.957 116.355 371.762 117.312 372.324 118.57C372.887 119.82 373.168 121.277 373.168 122.941V124.02ZM370.93 122.918C370.93 120.895 370.523 119.344 369.711 118.266C368.898 117.18 367.762 116.637 366.301 116.637C364.879 116.637 363.758 117.18 362.938 118.266C362.125 119.344 361.707 120.844 361.684 122.766V124.02C361.684 125.98 362.094 127.523 362.914 128.648C363.742 129.766 364.879 130.324 366.324 130.324C367.777 130.324 368.902 129.797 369.699 128.742C370.496 127.68 370.906 126.16 370.93 124.184V122.918ZM382.801 125.098H378.793V132H376.531V114.938H382.18C384.102 114.938 385.578 115.375 386.609 116.25C387.648 117.125 388.168 118.398 388.168 120.07C388.168 121.133 387.879 122.059 387.301 122.848C386.73 123.637 385.934 124.227 384.91 124.617L388.918 131.859V132H386.504L382.801 125.098ZM378.793 123.258H382.25C383.367 123.258 384.254 122.969 384.91 122.391C385.574 121.812 385.906 121.039 385.906 120.07C385.906 119.016 385.59 118.207 384.957 117.645C384.332 117.082 383.426 116.797 382.238 116.789H378.793V123.258ZM404.445 132H402.184L393.594 118.852V132H391.332V114.938H393.594L402.207 128.145V114.938H404.445V132ZM418.086 124.113H410.691V130.16H419.281V132H408.441V114.938H419.164V116.789H410.691V122.273H418.086V124.113ZM427.285 123.504L431.738 114.938H434.293L428.41 125.637V132H426.16V125.637L420.277 114.938H422.855L427.285 123.504ZM453.77 116.789H448.285V132H446.047V116.789H440.574V114.938H453.77V116.789ZM465.945 124.113H458.551V130.16H467.141V132H456.301V114.938H467.023V116.789H458.551V122.273H465.945V124.113ZM479.363 127.547H472.215L470.609 132H468.289L474.805 114.938H476.773L483.301 132H480.992L479.363 127.547ZM472.895 125.695H478.695L475.789 117.715L472.895 125.695ZM488.504 114.938L494.082 128.859L499.66 114.938H502.578V132H500.328V125.355L500.539 118.184L494.938 132H493.215L487.625 118.219L487.848 125.355V132H485.598V114.938H488.504Z" fill="black"/>
<rect x="40.5" y="188.5" width="414" height="795" stroke="black"/>
<rect x="40" y="188" width="415" height="50" fill="black"/>
<path d="M188.465 214.32V221H186.215V203.938H192.508C194.375 203.938 195.836 204.414 196.891 205.367C197.953 206.32 198.484 207.582 198.484 209.152C198.484 210.809 197.965 212.086 196.926 212.984C195.895 213.875 194.414 214.32 192.484 214.32H188.465ZM188.465 212.48H192.508C193.711 212.48 194.633 212.199 195.273 211.637C195.914 211.066 196.234 210.246 196.234 209.176C196.234 208.16 195.914 207.348 195.273 206.738C194.633 206.129 193.754 205.812 192.637 205.789H188.465V212.48ZM214.48 213.02C214.48 214.691 214.199 216.152 213.637 217.402C213.074 218.645 212.277 219.594 211.246 220.25C210.215 220.906 209.012 221.234 207.637 221.234C206.293 221.234 205.102 220.906 204.062 220.25C203.023 219.586 202.215 218.645 201.637 217.426C201.066 216.199 200.773 214.781 200.758 213.172V211.941C200.758 210.301 201.043 208.852 201.613 207.594C202.184 206.336 202.988 205.375 204.027 204.711C205.074 204.039 206.27 203.703 207.613 203.703C208.98 203.703 210.184 204.035 211.223 204.699C212.27 205.355 213.074 206.312 213.637 207.57C214.199 208.82 214.48 210.277 214.48 211.941V213.02ZM212.242 211.918C212.242 209.895 211.836 208.344 211.023 207.266C210.211 206.18 209.074 205.637 207.613 205.637C206.191 205.637 205.07 206.18 204.25 207.266C203.438 208.344 203.02 209.844 202.996 211.766V213.02C202.996 214.98 203.406 216.523 204.227 217.648C205.055 218.766 206.191 219.324 207.637 219.324C209.09 219.324 210.215 218.797 211.012 217.742C211.809 216.68 212.219 215.16 212.242 213.184V211.918ZM224.113 214.098H220.105V221H217.844V203.938H223.492C225.414 203.938 226.891 204.375 227.922 205.25C228.961 206.125 229.48 207.398 229.48 209.07C229.48 210.133 229.191 211.059 228.613 211.848C228.043 212.637 227.246 213.227 226.223 213.617L230.23 220.859V221H227.816L224.113 214.098ZM220.105 212.258H223.562C224.68 212.258 225.566 211.969 226.223 211.391C226.887 210.812 227.219 210.039 227.219 209.07C227.219 208.016 226.902 207.207 226.27 206.645C225.645 206.082 224.738 205.797 223.551 205.789H220.105V212.258ZM243.496 205.789H238.012V221H235.773V205.789H230.301V203.938H243.496V205.789ZM255.438 213.465H248.277V221H246.027V203.938H256.598V205.789H248.277V211.625H255.438V213.465ZM272.418 213.02C272.418 214.691 272.137 216.152 271.574 217.402C271.012 218.645 270.215 219.594 269.184 220.25C268.152 220.906 266.949 221.234 265.574 221.234C264.23 221.234 263.039 220.906 262 220.25C260.961 219.586 260.152 218.645 259.574 217.426C259.004 216.199 258.711 214.781 258.695 213.172V211.941C258.695 210.301 258.98 208.852 259.551 207.594C260.121 206.336 260.926 205.375 261.965 204.711C263.012 204.039 264.207 203.703 265.551 203.703C266.918 203.703 268.121 204.035 269.16 204.699C270.207 205.355 271.012 206.312 271.574 207.57C272.137 208.82 272.418 210.277 272.418 211.941V213.02ZM270.18 211.918C270.18 209.895 269.773 208.344 268.961 207.266C268.148 206.18 267.012 205.637 265.551 205.637C264.129 205.637 263.008 206.18 262.188 207.266C261.375 208.344 260.957 209.844 260.934 211.766V213.02C260.934 214.98 261.344 216.523 262.164 217.648C262.992 218.766 264.129 219.324 265.574 219.324C267.027 219.324 268.152 218.797 268.949 217.742C269.746 216.68 270.156 215.16 270.18 213.184V211.918ZM278.055 219.16H286.141V221H275.793V203.938H278.055V219.16ZM291.121 221H288.871V203.938H291.121V221ZM308.371 213.02C308.371 214.691 308.09 216.152 307.527 217.402C306.965 218.645 306.168 219.594 305.137 220.25C304.105 220.906 302.902 221.234 301.527 221.234C300.184 221.234 298.992 220.906 297.953 220.25C296.914 219.586 296.105 218.645 295.527 217.426C294.957 216.199 294.664 214.781 294.648 213.172V211.941C294.648 210.301 294.934 208.852 295.504 207.594C296.074 206.336 296.879 205.375 297.918 204.711C298.965 204.039 300.16 203.703 301.504 203.703C302.871 203.703 304.074 204.035 305.113 204.699C306.16 205.355 306.965 206.312 307.527 207.57C308.09 208.82 308.371 210.277 308.371 211.941V213.02ZM306.133 211.918C306.133 209.895 305.727 208.344 304.914 207.266C304.102 206.18 302.965 205.637 301.504 205.637C300.082 205.637 298.961 206.18 298.141 207.266C297.328 208.344 296.91 209.844 296.887 211.766V213.02C296.887 214.98 297.297 216.523 298.117 217.648C298.945 218.766 300.082 219.324 301.527 219.324C302.98 219.324 304.105 218.797 304.902 217.742C305.699 216.68 306.109 215.16 306.133 213.184V211.918Z" fill="white"/>
<rect x="512.5" y="188.5" width="414" height="795" stroke="black"/>
<rect x="512" y="188" width="415" height="50" fill="black"/>
<path d="M671.594 205.789H666.109V221H663.871V205.789H658.398V203.938H671.594V205.789ZM686.922 213.02C686.922 214.691 686.641 216.152 686.078 217.402C685.516 218.645 684.719 219.594 683.688 220.25C682.656 220.906 681.453 221.234 680.078 221.234C678.734 221.234 677.543 220.906 676.504 220.25C675.465 219.586 674.656 218.645 674.078 217.426C673.508 216.199 673.215 214.781 673.199 213.172V211.941C673.199 210.301 673.484 208.852 674.055 207.594C674.625 206.336 675.43 205.375 676.469 204.711C677.516 204.039 678.711 203.703 680.055 203.703C681.422 203.703 682.625 204.035 683.664 204.699C684.711 205.355 685.516 206.312 686.078 207.57C686.641 208.82 686.922 210.277 686.922 211.941V213.02ZM684.684 211.918C684.684 209.895 684.277 208.344 683.465 207.266C682.652 206.18 681.516 205.637 680.055 205.637C678.633 205.637 677.512 206.18 676.691 207.266C675.879 208.344 675.461 209.844 675.438 211.766V213.02C675.438 214.98 675.848 216.523 676.668 217.648C677.496 218.766 678.633 219.324 680.078 219.324C681.531 219.324 682.656 218.797 683.453 217.742C684.25 216.68 684.66 215.16 684.684 213.184V211.918ZM694.469 214.637H688.75V212.867H694.469V214.637ZM696.93 221V203.938H701.746C703.23 203.938 704.543 204.266 705.684 204.922C706.824 205.578 707.703 206.512 708.32 207.723C708.945 208.934 709.262 210.324 709.27 211.895V212.984C709.27 214.594 708.957 216.004 708.332 217.215C707.715 218.426 706.828 219.355 705.672 220.004C704.523 220.652 703.184 220.984 701.652 221H696.93ZM699.18 205.789V219.16H701.547C703.281 219.16 704.629 218.621 705.59 217.543C706.559 216.465 707.043 214.93 707.043 212.938V211.941C707.043 210.004 706.586 208.5 705.672 207.43C704.766 206.352 703.477 205.805 701.805 205.789H699.18ZM725.805 213.02C725.805 214.691 725.523 216.152 724.961 217.402C724.398 218.645 723.602 219.594 722.57 220.25C721.539 220.906 720.336 221.234 718.961 221.234C717.617 221.234 716.426 220.906 715.387 220.25C714.348 219.586 713.539 218.645 712.961 217.426C712.391 216.199 712.098 214.781 712.082 213.172V211.941C712.082 210.301 712.367 208.852 712.938 207.594C713.508 206.336 714.312 205.375 715.352 204.711C716.398 204.039 717.594 203.703 718.938 203.703C720.305 203.703 721.508 204.035 722.547 204.699C723.594 205.355 724.398 206.312 724.961 207.57C725.523 208.82 725.805 210.277 725.805 211.941V213.02ZM723.566 211.918C723.566 209.895 723.16 208.344 722.348 207.266C721.535 206.18 720.398 205.637 718.938 205.637C717.516 205.637 716.395 206.18 715.574 207.266C714.762 208.344 714.344 209.844 714.32 211.766V213.02C714.32 214.98 714.73 216.523 715.551 217.648C716.379 218.766 717.516 219.324 718.961 219.324C720.414 219.324 721.539 218.797 722.336 217.742C723.133 216.68 723.543 215.16 723.566 213.184V211.918ZM737.395 219.16H745.48V221H735.133V203.938H737.395V219.16ZM750.461 221H748.211V203.938H750.461V221ZM759.613 213.395C757.684 212.84 756.277 212.16 755.395 211.355C754.52 210.543 754.082 209.543 754.082 208.355C754.082 207.012 754.617 205.902 755.688 205.027C756.766 204.145 758.164 203.703 759.883 203.703C761.055 203.703 762.098 203.93 763.012 204.383C763.934 204.836 764.645 205.461 765.145 206.258C765.652 207.055 765.906 207.926 765.906 208.871H763.645C763.645 207.84 763.316 207.031 762.66 206.445C762.004 205.852 761.078 205.555 759.883 205.555C758.773 205.555 757.906 205.801 757.281 206.293C756.664 206.777 756.355 207.453 756.355 208.32C756.355 209.016 756.648 209.605 757.234 210.09C757.828 210.566 758.832 211.004 760.246 211.402C761.668 211.801 762.777 212.242 763.574 212.727C764.379 213.203 764.973 213.762 765.355 214.402C765.746 215.043 765.941 215.797 765.941 216.664C765.941 218.047 765.402 219.156 764.324 219.992C763.246 220.82 761.805 221.234 760 221.234C758.828 221.234 757.734 221.012 756.719 220.566C755.703 220.113 754.918 219.496 754.363 218.715C753.816 217.934 753.543 217.047 753.543 216.055H755.805C755.805 217.086 756.184 217.902 756.941 218.504C757.707 219.098 758.727 219.395 760 219.395C761.188 219.395 762.098 219.152 762.73 218.668C763.363 218.184 763.68 217.523 763.68 216.688C763.68 215.852 763.387 215.207 762.801 214.754C762.215 214.293 761.152 213.84 759.613 213.395ZM780.625 205.789H775.141V221H772.902V205.789H767.43V203.938H780.625V205.789Z" fill="white"/>
<rect x="65" y="267" width="364" height="45" fill="#C4C4C4"/>
<rect x="537" y="267" width="364" height="83" fill="#C4C4C4"/>
<rect x="537" y="379" width="364" height="55" fill="#C4C4C4"/>
<rect x="537" y="463" width="364" height="43" fill="#C4C4C4"/>
<rect x="65" y="331" width="364" height="45" fill="#C4C4C4"/>
<rect x="65" y="395" width="364" height="45" fill="#C4C4C4"/>
<rect x="65" y="459" width="364" height="45" fill="#C4C4C4"/>
<rect x="983" y="188" width="415" height="131" fill="#E3E3E3"/>
<rect x="983" y="276" width="415" height="43" fill="black"/>
<path d="M1120.39 306V288.938H1125.21C1126.69 288.938 1128 289.266 1129.14 289.922C1130.29 290.578 1131.16 291.512 1131.78 292.723C1132.41 293.934 1132.72 295.324 1132.73 296.895V297.984C1132.73 299.594 1132.42 301.004 1131.79 302.215C1131.18 303.426 1130.29 304.355 1129.13 305.004C1127.98 305.652 1126.64 305.984 1125.11 306H1120.39ZM1122.64 290.789V304.16H1125.01C1126.74 304.16 1128.09 303.621 1129.05 302.543C1130.02 301.465 1130.5 299.93 1130.5 297.938V296.941C1130.5 295.004 1130.05 293.5 1129.13 292.43C1128.23 291.352 1126.94 290.805 1125.27 290.789H1122.64ZM1149.27 298.02C1149.27 299.691 1148.98 301.152 1148.42 302.402C1147.86 303.645 1147.06 304.594 1146.03 305.25C1145 305.906 1143.8 306.234 1142.42 306.234C1141.08 306.234 1139.89 305.906 1138.85 305.25C1137.81 304.586 1137 303.645 1136.42 302.426C1135.85 301.199 1135.56 299.781 1135.54 298.172V296.941C1135.54 295.301 1135.83 293.852 1136.4 292.594C1136.97 291.336 1137.77 290.375 1138.81 289.711C1139.86 289.039 1141.05 288.703 1142.4 288.703C1143.77 288.703 1144.97 289.035 1146.01 289.699C1147.05 290.355 1147.86 291.312 1148.42 292.57C1148.98 293.82 1149.27 295.277 1149.27 296.941V298.02ZM1147.03 296.918C1147.03 294.895 1146.62 293.344 1145.81 292.266C1145 291.18 1143.86 290.637 1142.4 290.637C1140.98 290.637 1139.86 291.18 1139.04 292.266C1138.22 293.344 1137.8 294.844 1137.78 296.766V298.02C1137.78 299.98 1138.19 301.523 1139.01 302.648C1139.84 303.766 1140.98 304.324 1142.42 304.324C1143.88 304.324 1145 303.797 1145.8 302.742C1146.59 301.68 1147 300.16 1147.03 298.184V296.918ZM1165.19 300.586C1164.98 302.391 1164.31 303.785 1163.19 304.77C1162.07 305.746 1160.58 306.234 1158.72 306.234C1156.71 306.234 1155.09 305.512 1153.87 304.066C1152.66 302.621 1152.05 300.688 1152.05 298.266V296.625C1152.05 295.039 1152.34 293.645 1152.9 292.441C1153.47 291.238 1154.27 290.316 1155.31 289.676C1156.35 289.027 1157.55 288.703 1158.92 288.703C1160.73 288.703 1162.19 289.211 1163.28 290.227C1164.38 291.234 1165.01 292.633 1165.19 294.422H1162.93C1162.73 293.062 1162.31 292.078 1161.65 291.469C1161 290.859 1160.09 290.555 1158.92 290.555C1157.48 290.555 1156.36 291.086 1155.54 292.148C1154.72 293.211 1154.32 294.723 1154.32 296.684V298.336C1154.32 300.188 1154.7 301.66 1155.48 302.754C1156.25 303.848 1157.33 304.395 1158.72 304.395C1159.97 304.395 1160.93 304.113 1161.59 303.551C1162.27 302.98 1162.71 301.992 1162.93 300.586H1165.19ZM1180.29 288.938V300.539C1180.28 302.148 1179.77 303.465 1178.76 304.488C1177.76 305.512 1176.4 306.086 1174.68 306.211L1174.09 306.234C1172.22 306.234 1170.73 305.73 1169.62 304.723C1168.51 303.715 1167.95 302.328 1167.93 300.562V288.938H1170.16V300.492C1170.16 301.727 1170.5 302.688 1171.18 303.375C1171.86 304.055 1172.83 304.395 1174.09 304.395C1175.36 304.395 1176.33 304.055 1177 303.375C1177.68 302.695 1178.02 301.738 1178.02 300.504V288.938H1180.29ZM1186.74 288.938L1192.32 302.859L1197.9 288.938H1200.82V306H1198.57V299.355L1198.78 292.184L1193.18 306H1191.45L1185.86 292.219L1186.09 299.355V306H1183.84V288.938H1186.74ZM1214.43 298.113H1207.04V304.16H1215.63V306H1204.79V288.938H1215.51V290.789H1207.04V296.273H1214.43V298.113ZM1231.54 306H1229.28L1220.69 292.852V306H1218.43V288.938H1220.69L1229.3 302.145V288.938H1231.54V306ZM1246.98 290.789H1241.49V306H1239.25V290.789H1233.78V288.938H1246.98V290.789ZM1254.35 298.395C1252.42 297.84 1251.01 297.16 1250.13 296.355C1249.25 295.543 1248.82 294.543 1248.82 293.355C1248.82 292.012 1249.35 290.902 1250.42 290.027C1251.5 289.145 1252.9 288.703 1254.62 288.703C1255.79 288.703 1256.83 288.93 1257.75 289.383C1258.67 289.836 1259.38 290.461 1259.88 291.258C1260.39 292.055 1260.64 292.926 1260.64 293.871H1258.38C1258.38 292.84 1258.05 292.031 1257.39 291.445C1256.74 290.852 1255.81 290.555 1254.62 290.555C1253.51 290.555 1252.64 290.801 1252.02 291.293C1251.4 291.777 1251.09 292.453 1251.09 293.32C1251.09 294.016 1251.38 294.605 1251.97 295.09C1252.56 295.566 1253.57 296.004 1254.98 296.402C1256.4 296.801 1257.51 297.242 1258.31 297.727C1259.11 298.203 1259.71 298.762 1260.09 299.402C1260.48 300.043 1260.68 300.797 1260.68 301.664C1260.68 303.047 1260.14 304.156 1259.06 304.992C1257.98 305.82 1256.54 306.234 1254.73 306.234C1253.56 306.234 1252.47 306.012 1251.45 305.566C1250.44 305.113 1249.65 304.496 1249.1 303.715C1248.55 302.934 1248.28 302.047 1248.28 301.055H1250.54C1250.54 302.086 1250.92 302.902 1251.68 303.504C1252.44 304.098 1253.46 304.395 1254.73 304.395C1255.92 304.395 1256.83 304.152 1257.46 303.668C1258.1 303.184 1258.41 302.523 1258.41 301.688C1258.41 300.852 1258.12 300.207 1257.54 299.754C1256.95 299.293 1255.89 298.84 1254.35 298.395Z" fill="white"/>
<rect x="983" y="355" width="415" height="131" fill="#E3E3E3"/>
<rect x="983" y="442" width="415" height="44" fill="black"/>
<path d="M1151.81 464.465H1144.65V472H1142.4V454.938H1152.97V456.789H1144.65V462.625H1151.81V464.465ZM1158.08 472H1155.83V454.938H1158.08V472ZM1175.32 472H1173.05L1164.46 458.852V472H1162.2V454.938H1164.46L1173.08 468.145V454.938H1175.32V472ZM1188.95 467.547H1181.8L1180.19 472H1177.87L1184.39 454.938H1186.36L1192.88 472H1190.57L1188.95 467.547ZM1182.48 465.695H1188.28L1185.37 457.715L1182.48 465.695ZM1208.29 472H1206.03L1197.44 458.852V472H1195.18V454.938H1197.44L1206.05 468.145V454.938H1208.29V472ZM1224.84 466.586C1224.63 468.391 1223.96 469.785 1222.84 470.77C1221.72 471.746 1220.23 472.234 1218.37 472.234C1216.36 472.234 1214.74 471.512 1213.52 470.066C1212.31 468.621 1211.7 466.688 1211.7 464.266V462.625C1211.7 461.039 1211.98 459.645 1212.55 458.441C1213.12 457.238 1213.92 456.316 1214.96 455.676C1216 455.027 1217.2 454.703 1218.57 454.703C1220.38 454.703 1221.84 455.211 1222.93 456.227C1224.02 457.234 1224.66 458.633 1224.84 460.422H1222.58C1222.38 459.062 1221.96 458.078 1221.3 457.469C1220.65 456.859 1219.74 456.555 1218.57 456.555C1217.13 456.555 1216 457.086 1215.18 458.148C1214.37 459.211 1213.96 460.723 1213.96 462.684V464.336C1213.96 466.188 1214.35 467.66 1215.12 468.754C1215.9 469.848 1216.98 470.395 1218.37 470.395C1219.62 470.395 1220.58 470.113 1221.24 469.551C1221.91 468.98 1222.36 467.992 1222.58 466.586H1224.84ZM1237.57 464.113H1230.17V470.16H1238.76V472H1227.92V454.938H1238.64V456.789H1230.17V462.273H1237.57V464.113Z" fill="white"/>
<path d="M1123.71 752.098H1119.7V759H1117.44V741.938H1123.09C1125.01 741.938 1126.49 742.375 1127.52 743.25C1128.56 744.125 1129.08 745.398 1129.08 747.07C1129.08 748.133 1128.79 749.059 1128.21 749.848C1127.64 750.637 1126.84 751.227 1125.82 751.617L1129.83 758.859V759H1127.41L1123.71 752.098ZM1119.7 750.258H1123.16C1124.28 750.258 1125.16 749.969 1125.82 749.391C1126.48 748.812 1126.82 748.039 1126.82 747.07C1126.82 746.016 1126.5 745.207 1125.87 744.645C1125.24 744.082 1124.34 743.797 1123.15 743.789H1119.7V750.258ZM1141.89 751.113H1134.49V757.16H1143.08V759H1132.24V741.938H1142.96V743.789H1134.49V749.273H1141.89V751.113ZM1150.91 751.395C1148.98 750.84 1147.57 750.16 1146.69 749.355C1145.82 748.543 1145.38 747.543 1145.38 746.355C1145.38 745.012 1145.91 743.902 1146.98 743.027C1148.06 742.145 1149.46 741.703 1151.18 741.703C1152.35 741.703 1153.39 741.93 1154.31 742.383C1155.23 742.836 1155.94 743.461 1156.44 744.258C1156.95 745.055 1157.2 745.926 1157.2 746.871H1154.94C1154.94 745.84 1154.61 745.031 1153.96 744.445C1153.3 743.852 1152.38 743.555 1151.18 743.555C1150.07 743.555 1149.2 743.801 1148.58 744.293C1147.96 744.777 1147.65 745.453 1147.65 746.32C1147.65 747.016 1147.95 747.605 1148.53 748.09C1149.12 748.566 1150.13 749.004 1151.54 749.402C1152.96 749.801 1154.07 750.242 1154.87 750.727C1155.68 751.203 1156.27 751.762 1156.65 752.402C1157.04 753.043 1157.24 753.797 1157.24 754.664C1157.24 756.047 1156.7 757.156 1155.62 757.992C1154.54 758.82 1153.1 759.234 1151.3 759.234C1150.12 759.234 1149.03 759.012 1148.02 758.566C1147 758.113 1146.21 757.496 1145.66 756.715C1145.11 755.934 1144.84 755.047 1144.84 754.055H1147.1C1147.1 755.086 1147.48 755.902 1148.24 756.504C1149 757.098 1150.02 757.395 1151.3 757.395C1152.48 757.395 1153.39 757.152 1154.03 756.668C1154.66 756.184 1154.98 755.523 1154.98 754.688C1154.98 753.852 1154.68 753.207 1154.1 752.754C1153.51 752.293 1152.45 751.84 1150.91 751.395ZM1173.26 751.02C1173.26 752.691 1172.98 754.152 1172.41 755.402C1171.85 756.645 1171.05 757.594 1170.02 758.25C1168.99 758.906 1167.79 759.234 1166.41 759.234C1165.07 759.234 1163.88 758.906 1162.84 758.25C1161.8 757.586 1160.99 756.645 1160.41 755.426C1159.84 754.199 1159.55 752.781 1159.54 751.172V749.941C1159.54 748.301 1159.82 746.852 1160.39 745.594C1160.96 744.336 1161.77 743.375 1162.8 742.711C1163.85 742.039 1165.05 741.703 1166.39 741.703C1167.76 741.703 1168.96 742.035 1170 742.699C1171.05 743.355 1171.85 744.312 1172.41 745.57C1172.98 746.82 1173.26 748.277 1173.26 749.941V751.02ZM1171.02 749.918C1171.02 747.895 1170.61 746.344 1169.8 745.266C1168.99 744.18 1167.85 743.637 1166.39 743.637C1164.97 743.637 1163.85 744.18 1163.03 745.266C1162.21 746.344 1161.8 747.844 1161.77 749.766V751.02C1161.77 752.98 1162.18 754.523 1163 755.648C1163.83 756.766 1164.97 757.324 1166.41 757.324C1167.87 757.324 1168.99 756.797 1169.79 755.742C1170.59 754.68 1171 753.16 1171.02 751.184V749.918ZM1188.64 741.938V753.539C1188.64 755.148 1188.13 756.465 1187.12 757.488C1186.12 758.512 1184.76 759.086 1183.04 759.211L1182.45 759.234C1180.58 759.234 1179.09 758.73 1177.98 757.723C1176.87 756.715 1176.31 755.328 1176.29 753.562V741.938H1178.52V753.492C1178.52 754.727 1178.86 755.688 1179.54 756.375C1180.22 757.055 1181.19 757.395 1182.45 757.395C1183.72 757.395 1184.69 757.055 1185.36 756.375C1186.04 755.695 1186.38 754.738 1186.38 753.504V741.938H1188.64ZM1198.45 752.098H1194.45V759H1192.18V741.938H1197.83C1199.75 741.938 1201.23 742.375 1202.26 743.25C1203.3 744.125 1203.82 745.398 1203.82 747.07C1203.82 748.133 1203.53 749.059 1202.95 749.848C1202.38 750.637 1201.59 751.227 1200.56 751.617L1204.57 758.859V759H1202.16L1198.45 752.098ZM1194.45 750.258H1197.9C1199.02 750.258 1199.91 749.969 1200.56 749.391C1201.23 748.812 1201.56 748.039 1201.56 747.07C1201.56 746.016 1201.24 745.207 1200.61 744.645C1199.98 744.082 1199.08 743.797 1197.89 743.789H1194.45V750.258ZM1219.54 753.586C1219.32 755.391 1218.66 756.785 1217.53 757.77C1216.41 758.746 1214.93 759.234 1213.07 759.234C1211.05 759.234 1209.43 758.512 1208.21 757.066C1207 755.621 1206.4 753.688 1206.4 751.266V749.625C1206.4 748.039 1206.68 746.645 1207.24 745.441C1207.81 744.238 1208.62 743.316 1209.66 742.676C1210.7 742.027 1211.9 741.703 1213.27 741.703C1215.08 741.703 1216.53 742.211 1217.62 743.227C1218.72 744.234 1219.36 745.633 1219.54 747.422H1217.27C1217.08 746.062 1216.65 745.078 1216 744.469C1215.35 743.859 1214.44 743.555 1213.27 743.555C1211.83 743.555 1210.7 744.086 1209.88 745.148C1209.07 746.211 1208.66 747.723 1208.66 749.684V751.336C1208.66 753.188 1209.05 754.66 1209.82 755.754C1210.59 756.848 1211.68 757.395 1213.07 757.395C1214.32 757.395 1215.27 757.113 1215.94 756.551C1216.61 755.98 1217.05 754.992 1217.27 753.586H1219.54ZM1232.26 751.113H1224.87V757.16H1233.46V759H1222.62V741.938H1233.34V743.789H1224.87V749.273H1232.26V751.113ZM1241.29 751.395C1239.36 750.84 1237.95 750.16 1237.07 749.355C1236.19 748.543 1235.75 747.543 1235.75 746.355C1235.75 745.012 1236.29 743.902 1237.36 743.027C1238.44 742.145 1239.84 741.703 1241.55 741.703C1242.73 741.703 1243.77 741.93 1244.68 742.383C1245.61 742.836 1246.32 743.461 1246.82 744.258C1247.32 745.055 1247.58 745.926 1247.58 746.871H1245.32C1245.32 745.84 1244.99 745.031 1244.33 744.445C1243.68 743.852 1242.75 743.555 1241.55 743.555C1240.45 743.555 1239.58 743.801 1238.95 744.293C1238.34 744.777 1238.03 745.453 1238.03 746.32C1238.03 747.016 1238.32 747.605 1238.91 748.09C1239.5 748.566 1240.5 749.004 1241.92 749.402C1243.34 749.801 1244.45 750.242 1245.25 750.727C1246.05 751.203 1246.64 751.762 1247.03 752.402C1247.42 753.043 1247.61 753.797 1247.61 754.664C1247.61 756.047 1247.07 757.156 1246 757.992C1244.92 758.82 1243.48 759.234 1241.67 759.234C1240.5 759.234 1239.41 759.012 1238.39 758.566C1237.38 758.113 1236.59 757.496 1236.04 756.715C1235.49 755.934 1235.21 755.047 1235.21 754.055H1237.48C1237.48 755.086 1237.86 755.902 1238.61 756.504C1239.38 757.098 1240.4 757.395 1241.67 757.395C1242.86 757.395 1243.77 757.152 1244.4 756.668C1245.04 756.184 1245.35 755.523 1245.35 754.688C1245.35 753.852 1245.06 753.207 1244.47 752.754C1243.89 752.293 1242.82 751.84 1241.29 751.395Z" fill="white"/>
<rect x="983" y="686" width="415" height="131" fill="#E3E3E3"/>
<rect x="983" y="774" width="415" height="43" fill="black"/>
<rect x="983" y="853" width="415" height="131" fill="#E3E3E3"/>
<rect x="983" y="940" width="415" height="44" fill="black"/>
<path d="M1139.39 796.395C1137.46 795.84 1136.06 795.16 1135.18 794.355C1134.3 793.543 1133.86 792.543 1133.86 791.355C1133.86 790.012 1134.4 788.902 1135.47 788.027C1136.55 787.145 1137.95 786.703 1139.66 786.703C1140.84 786.703 1141.88 786.93 1142.79 787.383C1143.71 787.836 1144.43 788.461 1144.93 789.258C1145.43 790.055 1145.69 790.926 1145.69 791.871H1143.43C1143.43 790.84 1143.1 790.031 1142.44 789.445C1141.79 788.852 1140.86 788.555 1139.66 788.555C1138.55 788.555 1137.69 788.801 1137.06 789.293C1136.45 789.777 1136.14 790.453 1136.14 791.32C1136.14 792.016 1136.43 792.605 1137.02 793.09C1137.61 793.566 1138.61 794.004 1140.03 794.402C1141.45 794.801 1142.56 795.242 1143.36 795.727C1144.16 796.203 1144.75 796.762 1145.14 797.402C1145.53 798.043 1145.72 798.797 1145.72 799.664C1145.72 801.047 1145.18 802.156 1144.11 802.992C1143.03 803.82 1141.59 804.234 1139.78 804.234C1138.61 804.234 1137.52 804.012 1136.5 803.566C1135.48 803.113 1134.7 802.496 1134.14 801.715C1133.6 800.934 1133.32 800.047 1133.32 799.055H1135.59C1135.59 800.086 1135.96 800.902 1136.72 801.504C1137.49 802.098 1138.51 802.395 1139.78 802.395C1140.97 802.395 1141.88 802.152 1142.51 801.668C1143.14 801.184 1143.46 800.523 1143.46 799.688C1143.46 798.852 1143.17 798.207 1142.58 797.754C1142 797.293 1140.93 796.84 1139.39 796.395ZM1160.41 788.789H1154.92V804H1152.68V788.789H1147.21V786.938H1160.41V788.789ZM1169.2 797.098H1165.19V804H1162.93V786.938H1168.57C1170.5 786.938 1171.97 787.375 1173 788.25C1174.04 789.125 1174.56 790.398 1174.56 792.07C1174.56 793.133 1174.27 794.059 1173.7 794.848C1173.12 795.637 1172.33 796.227 1171.3 796.617L1175.31 803.859V804H1172.9L1169.2 797.098ZM1165.19 795.258H1168.64C1169.76 795.258 1170.65 794.969 1171.3 794.391C1171.97 793.812 1172.3 793.039 1172.3 792.07C1172.3 791.016 1171.98 790.207 1171.35 789.645C1170.73 789.082 1169.82 788.797 1168.63 788.789H1165.19V795.258ZM1187.15 799.547H1180L1178.39 804H1176.07L1182.59 786.938H1184.56L1191.09 804H1188.78L1187.15 799.547ZM1180.68 797.695H1186.48L1183.57 789.715L1180.68 797.695ZM1203.65 788.789H1198.16V804H1195.93V788.789H1190.45V786.938H1203.65V788.789ZM1215.82 796.113H1208.43V802.16H1217.02V804H1206.18V786.938H1216.9V788.789H1208.43V794.273H1215.82V796.113ZM1232.42 801.762C1231.84 802.59 1231.03 803.211 1229.99 803.625C1228.96 804.031 1227.76 804.234 1226.38 804.234C1224.99 804.234 1223.76 803.91 1222.68 803.262C1221.6 802.605 1220.77 801.676 1220.17 800.473C1219.59 799.27 1219.29 797.875 1219.27 796.289V794.801C1219.27 792.23 1219.87 790.238 1221.06 788.824C1222.27 787.41 1223.95 786.703 1226.12 786.703C1227.91 786.703 1229.34 787.16 1230.43 788.074C1231.51 788.98 1232.18 790.27 1232.42 791.941H1230.17C1229.75 789.684 1228.4 788.555 1226.14 788.555C1224.63 788.555 1223.48 789.086 1222.7 790.148C1221.93 791.203 1221.54 792.734 1221.53 794.742V796.137C1221.53 798.051 1221.97 799.574 1222.84 800.707C1223.72 801.832 1224.9 802.395 1226.39 802.395C1227.24 802.395 1227.98 802.301 1228.61 802.113C1229.24 801.926 1229.77 801.609 1230.18 801.164V797.332H1226.23V795.504H1232.42V801.762ZM1241.38 795.504L1245.84 786.938H1248.39L1242.51 797.637V804H1240.26V797.637L1234.38 786.938H1236.95L1241.38 795.504Z" fill="white"/>
<path d="M1131.71 962.098H1127.7V969H1125.44V951.938H1131.09C1133.01 951.938 1134.49 952.375 1135.52 953.25C1136.56 954.125 1137.08 955.398 1137.08 957.07C1137.08 958.133 1136.79 959.059 1136.21 959.848C1135.64 960.637 1134.84 961.227 1133.82 961.617L1137.83 968.859V969H1135.41L1131.71 962.098ZM1127.7 960.258H1131.16C1132.28 960.258 1133.16 959.969 1133.82 959.391C1134.48 958.812 1134.82 958.039 1134.82 957.07C1134.82 956.016 1134.5 955.207 1133.87 954.645C1133.24 954.082 1132.34 953.797 1131.15 953.789H1127.7V960.258ZM1149.89 961.113H1142.49V967.16H1151.08V969H1140.24V951.938H1150.96V953.789H1142.49V959.273H1149.89V961.113ZM1158.91 961.395C1156.98 960.84 1155.57 960.16 1154.69 959.355C1153.82 958.543 1153.38 957.543 1153.38 956.355C1153.38 955.012 1153.91 953.902 1154.98 953.027C1156.06 952.145 1157.46 951.703 1159.18 951.703C1160.35 951.703 1161.39 951.93 1162.31 952.383C1163.23 952.836 1163.94 953.461 1164.44 954.258C1164.95 955.055 1165.2 955.926 1165.2 956.871H1162.94C1162.94 955.84 1162.61 955.031 1161.96 954.445C1161.3 953.852 1160.38 953.555 1159.18 953.555C1158.07 953.555 1157.2 953.801 1156.58 954.293C1155.96 954.777 1155.65 955.453 1155.65 956.32C1155.65 957.016 1155.95 957.605 1156.53 958.09C1157.12 958.566 1158.13 959.004 1159.54 959.402C1160.96 959.801 1162.07 960.242 1162.87 960.727C1163.68 961.203 1164.27 961.762 1164.65 962.402C1165.04 963.043 1165.24 963.797 1165.24 964.664C1165.24 966.047 1164.7 967.156 1163.62 967.992C1162.54 968.82 1161.1 969.234 1159.3 969.234C1158.12 969.234 1157.03 969.012 1156.02 968.566C1155 968.113 1154.21 967.496 1153.66 966.715C1153.11 965.934 1152.84 965.047 1152.84 964.055H1155.1C1155.1 965.086 1155.48 965.902 1156.24 966.504C1157 967.098 1158.02 967.395 1159.3 967.395C1160.48 967.395 1161.39 967.152 1162.03 966.668C1162.66 966.184 1162.98 965.523 1162.98 964.688C1162.98 963.852 1162.68 963.207 1162.1 962.754C1161.51 962.293 1160.45 961.84 1158.91 961.395ZM1181.26 961.02C1181.26 962.691 1180.98 964.152 1180.41 965.402C1179.85 966.645 1179.05 967.594 1178.02 968.25C1176.99 968.906 1175.79 969.234 1174.41 969.234C1173.07 969.234 1171.88 968.906 1170.84 968.25C1169.8 967.586 1168.99 966.645 1168.41 965.426C1167.84 964.199 1167.55 962.781 1167.54 961.172V959.941C1167.54 958.301 1167.82 956.852 1168.39 955.594C1168.96 954.336 1169.77 953.375 1170.8 952.711C1171.85 952.039 1173.05 951.703 1174.39 951.703C1175.76 951.703 1176.96 952.035 1178 952.699C1179.05 953.355 1179.85 954.312 1180.41 955.57C1180.98 956.82 1181.26 958.277 1181.26 959.941V961.02ZM1179.02 959.918C1179.02 957.895 1178.61 956.344 1177.8 955.266C1176.99 954.18 1175.85 953.637 1174.39 953.637C1172.97 953.637 1171.85 954.18 1171.03 955.266C1170.21 956.344 1169.8 957.844 1169.77 959.766V961.02C1169.77 962.98 1170.18 964.523 1171 965.648C1171.83 966.766 1172.97 967.324 1174.41 967.324C1175.87 967.324 1176.99 966.797 1177.79 965.742C1178.59 964.68 1179 963.16 1179.02 961.184V959.918ZM1196.64 951.938V963.539C1196.64 965.148 1196.13 966.465 1195.12 967.488C1194.12 968.512 1192.76 969.086 1191.04 969.211L1190.45 969.234C1188.58 969.234 1187.09 968.73 1185.98 967.723C1184.87 966.715 1184.31 965.328 1184.29 963.562V951.938H1186.52V963.492C1186.52 964.727 1186.86 965.688 1187.54 966.375C1188.22 967.055 1189.19 967.395 1190.45 967.395C1191.72 967.395 1192.69 967.055 1193.36 966.375C1194.04 965.695 1194.38 964.738 1194.38 963.504V951.938H1196.64ZM1206.45 962.098H1202.45V969H1200.18V951.938H1205.83C1207.75 951.938 1209.23 952.375 1210.26 953.25C1211.3 954.125 1211.82 955.398 1211.82 957.07C1211.82 958.133 1211.53 959.059 1210.95 959.848C1210.38 960.637 1209.59 961.227 1208.56 961.617L1212.57 968.859V969H1210.16L1206.45 962.098ZM1202.45 960.258H1205.9C1207.02 960.258 1207.91 959.969 1208.56 959.391C1209.23 958.812 1209.56 958.039 1209.56 957.07C1209.56 956.016 1209.24 955.207 1208.61 954.645C1207.98 954.082 1207.08 953.797 1205.89 953.789H1202.45V960.258ZM1227.54 963.586C1227.32 965.391 1226.66 966.785 1225.53 967.77C1224.41 968.746 1222.93 969.234 1221.07 969.234C1219.05 969.234 1217.43 968.512 1216.21 967.066C1215 965.621 1214.4 963.688 1214.4 961.266V959.625C1214.4 958.039 1214.68 956.645 1215.24 955.441C1215.81 954.238 1216.62 953.316 1217.66 952.676C1218.7 952.027 1219.9 951.703 1221.27 951.703C1223.08 951.703 1224.53 952.211 1225.62 953.227C1226.72 954.234 1227.36 955.633 1227.54 957.422H1225.27C1225.08 956.062 1224.65 955.078 1224 954.469C1223.35 953.859 1222.44 953.555 1221.27 953.555C1219.83 953.555 1218.7 954.086 1217.88 955.148C1217.07 956.211 1216.66 957.723 1216.66 959.684V961.336C1216.66 963.188 1217.05 964.66 1217.82 965.754C1218.59 966.848 1219.68 967.395 1221.07 967.395C1222.32 967.395 1223.27 967.113 1223.94 966.551C1224.61 965.98 1225.05 964.992 1225.27 963.586H1227.54ZM1240.26 961.113H1232.87V967.16H1241.46V969H1230.62V951.938H1241.34V953.789H1232.87V959.273H1240.26V961.113ZM1249.29 961.395C1247.36 960.84 1245.95 960.16 1245.07 959.355C1244.19 958.543 1243.75 957.543 1243.75 956.355C1243.75 955.012 1244.29 953.902 1245.36 953.027C1246.44 952.145 1247.84 951.703 1249.55 951.703C1250.73 951.703 1251.77 951.93 1252.68 952.383C1253.61 952.836 1254.32 953.461 1254.82 954.258C1255.32 955.055 1255.58 955.926 1255.58 956.871H1253.32C1253.32 955.84 1252.99 955.031 1252.33 954.445C1251.68 953.852 1250.75 953.555 1249.55 953.555C1248.45 953.555 1247.58 953.801 1246.95 954.293C1246.34 954.777 1246.03 955.453 1246.03 956.32C1246.03 957.016 1246.32 957.605 1246.91 958.09C1247.5 958.566 1248.5 959.004 1249.92 959.402C1251.34 959.801 1252.45 960.242 1253.25 960.727C1254.05 961.203 1254.64 961.762 1255.03 962.402C1255.42 963.043 1255.61 963.797 1255.61 964.664C1255.61 966.047 1255.07 967.156 1254 967.992C1252.92 968.82 1251.48 969.234 1249.67 969.234C1248.5 969.234 1247.41 969.012 1246.39 968.566C1245.38 968.113 1244.59 967.496 1244.04 966.715C1243.49 965.934 1243.21 965.047 1243.21 964.055H1245.48C1245.48 965.086 1245.86 965.902 1246.61 966.504C1247.38 967.098 1248.4 967.395 1249.67 967.395C1250.86 967.395 1251.77 967.152 1252.4 966.668C1253.04 966.184 1253.35 965.523 1253.35 964.688C1253.35 963.852 1253.06 963.207 1252.47 962.754C1251.89 962.293 1250.82 961.84 1249.29 961.395Z" fill="white"/>
<path d="M1123.71 586.098H1119.7V593H1117.44V575.938H1123.09C1125.01 575.938 1126.49 576.375 1127.52 577.25C1128.56 578.125 1129.08 579.398 1129.08 581.07C1129.08 582.133 1128.79 583.059 1128.21 583.848C1127.64 584.637 1126.84 585.227 1125.82 585.617L1129.83 592.859V593H1127.41L1123.71 586.098ZM1119.7 584.258H1123.16C1124.28 584.258 1125.16 583.969 1125.82 583.391C1126.48 582.812 1126.82 582.039 1126.82 581.07C1126.82 580.016 1126.5 579.207 1125.87 578.645C1125.24 578.082 1124.34 577.797 1123.15 577.789H1119.7V584.258ZM1141.89 585.113H1134.49V591.16H1143.08V593H1132.24V575.938H1142.96V577.789H1134.49V583.273H1141.89V585.113ZM1150.91 585.395C1148.98 584.84 1147.57 584.16 1146.69 583.355C1145.82 582.543 1145.38 581.543 1145.38 580.355C1145.38 579.012 1145.91 577.902 1146.98 577.027C1148.06 576.145 1149.46 575.703 1151.18 575.703C1152.35 575.703 1153.39 575.93 1154.31 576.383C1155.23 576.836 1155.94 577.461 1156.44 578.258C1156.95 579.055 1157.2 579.926 1157.2 580.871H1154.94C1154.94 579.84 1154.61 579.031 1153.96 578.445C1153.3 577.852 1152.38 577.555 1151.18 577.555C1150.07 577.555 1149.2 577.801 1148.58 578.293C1147.96 578.777 1147.65 579.453 1147.65 580.32C1147.65 581.016 1147.95 581.605 1148.53 582.09C1149.12 582.566 1150.13 583.004 1151.54 583.402C1152.96 583.801 1154.07 584.242 1154.87 584.727C1155.68 585.203 1156.27 585.762 1156.65 586.402C1157.04 587.043 1157.24 587.797 1157.24 588.664C1157.24 590.047 1156.7 591.156 1155.62 591.992C1154.54 592.82 1153.1 593.234 1151.3 593.234C1150.12 593.234 1149.03 593.012 1148.02 592.566C1147 592.113 1146.21 591.496 1145.66 590.715C1145.11 589.934 1144.84 589.047 1144.84 588.055H1147.1C1147.1 589.086 1147.48 589.902 1148.24 590.504C1149 591.098 1150.02 591.395 1151.3 591.395C1152.48 591.395 1153.39 591.152 1154.03 590.668C1154.66 590.184 1154.98 589.523 1154.98 588.688C1154.98 587.852 1154.68 587.207 1154.1 586.754C1153.51 586.293 1152.45 585.84 1150.91 585.395ZM1173.26 585.02C1173.26 586.691 1172.98 588.152 1172.41 589.402C1171.85 590.645 1171.05 591.594 1170.02 592.25C1168.99 592.906 1167.79 593.234 1166.41 593.234C1165.07 593.234 1163.88 592.906 1162.84 592.25C1161.8 591.586 1160.99 590.645 1160.41 589.426C1159.84 588.199 1159.55 586.781 1159.54 585.172V583.941C1159.54 582.301 1159.82 580.852 1160.39 579.594C1160.96 578.336 1161.77 577.375 1162.8 576.711C1163.85 576.039 1165.05 575.703 1166.39 575.703C1167.76 575.703 1168.96 576.035 1170 576.699C1171.05 577.355 1171.85 578.312 1172.41 579.57C1172.98 580.82 1173.26 582.277 1173.26 583.941V585.02ZM1171.02 583.918C1171.02 581.895 1170.61 580.344 1169.8 579.266C1168.99 578.18 1167.85 577.637 1166.39 577.637C1164.97 577.637 1163.85 578.18 1163.03 579.266C1162.21 580.344 1161.8 581.844 1161.77 583.766V585.02C1161.77 586.98 1162.18 588.523 1163 589.648C1163.83 590.766 1164.97 591.324 1166.41 591.324C1167.87 591.324 1168.99 590.797 1169.79 589.742C1170.59 588.68 1171 587.16 1171.02 585.184V583.918ZM1188.64 575.938V587.539C1188.64 589.148 1188.13 590.465 1187.12 591.488C1186.12 592.512 1184.76 593.086 1183.04 593.211L1182.45 593.234C1180.58 593.234 1179.09 592.73 1177.98 591.723C1176.87 590.715 1176.31 589.328 1176.29 587.562V575.938H1178.52V587.492C1178.52 588.727 1178.86 589.688 1179.54 590.375C1180.22 591.055 1181.19 591.395 1182.45 591.395C1183.72 591.395 1184.69 591.055 1185.36 590.375C1186.04 589.695 1186.38 588.738 1186.38 587.504V575.938H1188.64ZM1198.45 586.098H1194.45V593H1192.18V575.938H1197.83C1199.75 575.938 1201.23 576.375 1202.26 577.25C1203.3 578.125 1203.82 579.398 1203.82 581.07C1203.82 582.133 1203.53 583.059 1202.95 583.848C1202.38 584.637 1201.59 585.227 1200.56 585.617L1204.57 592.859V593H1202.16L1198.45 586.098ZM1194.45 584.258H1197.9C1199.02 584.258 1199.91 583.969 1200.56 583.391C1201.23 582.812 1201.56 582.039 1201.56 581.07C1201.56 580.016 1201.24 579.207 1200.61 578.645C1199.98 578.082 1199.08 577.797 1197.89 577.789H1194.45V584.258ZM1219.54 587.586C1219.32 589.391 1218.66 590.785 1217.53 591.77C1216.41 592.746 1214.93 593.234 1213.07 593.234C1211.05 593.234 1209.43 592.512 1208.21 591.066C1207 589.621 1206.4 587.688 1206.4 585.266V583.625C1206.4 582.039 1206.68 580.645 1207.24 579.441C1207.81 578.238 1208.62 577.316 1209.66 576.676C1210.7 576.027 1211.9 575.703 1213.27 575.703C1215.08 575.703 1216.53 576.211 1217.62 577.227C1218.72 578.234 1219.36 579.633 1219.54 581.422H1217.27C1217.08 580.062 1216.65 579.078 1216 578.469C1215.35 577.859 1214.44 577.555 1213.27 577.555C1211.83 577.555 1210.7 578.086 1209.88 579.148C1209.07 580.211 1208.66 581.723 1208.66 583.684V585.336C1208.66 587.188 1209.05 588.66 1209.82 589.754C1210.59 590.848 1211.68 591.395 1213.07 591.395C1214.32 591.395 1215.27 591.113 1215.94 590.551C1216.61 589.98 1217.05 588.992 1217.27 587.586H1219.54ZM1232.26 585.113H1224.87V591.16H1233.46V593H1222.62V575.938H1233.34V577.789H1224.87V583.273H1232.26V585.113ZM1241.29 585.395C1239.36 584.84 1237.95 584.16 1237.07 583.355C1236.19 582.543 1235.75 581.543 1235.75 580.355C1235.75 579.012 1236.29 577.902 1237.36 577.027C1238.44 576.145 1239.84 575.703 1241.55 575.703C1242.73 575.703 1243.77 575.93 1244.68 576.383C1245.61 576.836 1246.32 577.461 1246.82 578.258C1247.32 579.055 1247.58 579.926 1247.58 580.871H1245.32C1245.32 579.84 1244.99 579.031 1244.33 578.445C1243.68 577.852 1242.75 577.555 1241.55 577.555C1240.45 577.555 1239.58 577.801 1238.95 578.293C1238.34 578.777 1238.03 579.453 1238.03 580.32C1238.03 581.016 1238.32 581.605 1238.91 582.09C1239.5 582.566 1240.5 583.004 1241.92 583.402C1243.34 583.801 1244.45 584.242 1245.25 584.727C1246.05 585.203 1246.64 585.762 1247.03 586.402C1247.42 587.043 1247.61 587.797 1247.61 588.664C1247.61 590.047 1247.07 591.156 1246 591.992C1244.92 592.82 1243.48 593.234 1241.67 593.234C1240.5 593.234 1239.41 593.012 1238.39 592.566C1237.38 592.113 1236.59 591.496 1236.04 590.715C1235.49 589.934 1235.21 589.047 1235.21 588.055H1237.48C1237.48 589.086 1237.86 589.902 1238.61 590.504C1239.38 591.098 1240.4 591.395 1241.67 591.395C1242.86 591.395 1243.77 591.152 1244.4 590.668C1245.04 590.184 1245.35 589.523 1245.35 588.688C1245.35 587.852 1245.06 587.207 1244.47 586.754C1243.89 586.293 1242.82 585.84 1241.29 585.395Z" fill="white"/>
<rect x="983" y="519" width="415" height="132" fill="#E3E3E3"/>
<rect x="983" y="607" width="415" height="44" fill="black"/>
<path d="M1087.54 631.586C1087.33 633.391 1086.66 634.785 1085.54 635.77C1084.42 636.746 1082.93 637.234 1081.07 637.234C1079.05 637.234 1077.44 636.512 1076.22 635.066C1075.01 633.621 1074.4 631.688 1074.4 629.266V627.625C1074.4 626.039 1074.68 624.645 1075.25 623.441C1075.82 622.238 1076.62 621.316 1077.66 620.676C1078.7 620.027 1079.9 619.703 1081.27 619.703C1083.08 619.703 1084.54 620.211 1085.63 621.227C1086.72 622.234 1087.36 623.633 1087.54 625.422H1085.28C1085.08 624.062 1084.66 623.078 1084 622.469C1083.35 621.859 1082.44 621.555 1081.27 621.555C1079.83 621.555 1078.7 622.086 1077.88 623.148C1077.07 624.211 1076.66 625.723 1076.66 627.684V629.336C1076.66 631.188 1077.05 632.66 1077.82 633.754C1078.6 634.848 1079.68 635.395 1081.07 635.395C1082.32 635.395 1083.28 635.113 1083.94 634.551C1084.61 633.98 1085.06 632.992 1085.28 631.586H1087.54ZM1092.88 635.16H1100.97V637H1090.62V619.938H1092.88V635.16ZM1105.95 637H1103.7V619.938H1105.95V637ZM1119.72 629.113H1112.32V635.16H1120.91V637H1110.07V619.938H1120.8V621.789H1112.32V627.273H1119.72V629.113ZM1136.83 637H1134.57L1125.98 623.852V637H1123.71V619.938H1125.98L1134.59 633.145V619.938H1136.83V637ZM1152.26 621.789H1146.78V637H1144.54V621.789H1139.07V619.938H1152.26V621.789ZM1162.53 630.32V637H1160.28V619.938H1166.57C1168.44 619.938 1169.9 620.414 1170.95 621.367C1172.02 622.32 1172.55 623.582 1172.55 625.152C1172.55 626.809 1172.03 628.086 1170.99 628.984C1169.96 629.875 1168.48 630.32 1166.55 630.32H1162.53ZM1162.53 628.48H1166.57C1167.77 628.48 1168.7 628.199 1169.34 627.637C1169.98 627.066 1170.3 626.246 1170.3 625.176C1170.3 624.16 1169.98 623.348 1169.34 622.738C1168.7 622.129 1167.82 621.812 1166.7 621.789H1162.53V628.48ZM1181.68 630.098H1177.67V637H1175.41V619.938H1181.05C1182.98 619.938 1184.45 620.375 1185.48 621.25C1186.52 622.125 1187.04 623.398 1187.04 625.07C1187.04 626.133 1186.75 627.059 1186.18 627.848C1185.61 628.637 1184.81 629.227 1183.79 629.617L1187.79 636.859V637H1185.38L1181.68 630.098ZM1177.67 628.258H1181.12C1182.24 628.258 1183.13 627.969 1183.79 627.391C1184.45 626.812 1184.78 626.039 1184.78 625.07C1184.78 624.016 1184.46 623.207 1183.83 622.645C1183.21 622.082 1182.3 621.797 1181.11 621.789H1177.67V628.258ZM1203.33 629.02C1203.33 630.691 1203.05 632.152 1202.49 633.402C1201.93 634.645 1201.13 635.594 1200.1 636.25C1199.07 636.906 1197.86 637.234 1196.49 637.234C1195.14 637.234 1193.95 636.906 1192.91 636.25C1191.88 635.586 1191.07 634.645 1190.49 633.426C1189.92 632.199 1189.62 630.781 1189.61 629.172V627.941C1189.61 626.301 1189.89 624.852 1190.46 623.594C1191.04 622.336 1191.84 621.375 1192.88 620.711C1193.93 620.039 1195.12 619.703 1196.46 619.703C1197.83 619.703 1199.04 620.035 1200.07 620.699C1201.12 621.355 1201.93 622.312 1202.49 623.57C1203.05 624.82 1203.33 626.277 1203.33 627.941V629.02ZM1201.09 627.918C1201.09 625.895 1200.69 624.344 1199.88 623.266C1199.06 622.18 1197.93 621.637 1196.46 621.637C1195.04 621.637 1193.92 622.18 1193.1 623.266C1192.29 624.344 1191.87 625.844 1191.85 627.766V629.02C1191.85 630.98 1192.26 632.523 1193.08 633.648C1193.91 634.766 1195.04 635.324 1196.49 635.324C1197.94 635.324 1199.07 634.797 1199.86 633.742C1200.66 632.68 1201.07 631.16 1201.09 629.184V627.918ZM1219.26 631.586C1219.05 633.391 1218.38 634.785 1217.25 635.77C1216.14 636.746 1214.65 637.234 1212.79 637.234C1210.77 637.234 1209.16 636.512 1207.94 635.066C1206.73 633.621 1206.12 631.688 1206.12 629.266V627.625C1206.12 626.039 1206.4 624.645 1206.96 623.441C1207.54 622.238 1208.34 621.316 1209.38 620.676C1210.42 620.027 1211.62 619.703 1212.99 619.703C1214.8 619.703 1216.25 620.211 1217.35 621.227C1218.44 622.234 1219.08 623.633 1219.26 625.422H1217C1216.8 624.062 1216.38 623.078 1215.72 622.469C1215.07 621.859 1214.16 621.555 1212.99 621.555C1211.55 621.555 1210.42 622.086 1209.6 623.148C1208.79 624.211 1208.38 625.723 1208.38 627.684V629.336C1208.38 631.188 1208.77 632.66 1209.54 633.754C1210.32 634.848 1211.4 635.395 1212.79 635.395C1214.04 635.395 1215 635.113 1215.66 634.551C1216.33 633.98 1216.78 632.992 1217 631.586H1219.26ZM1231.98 629.113H1224.59V635.16H1233.18V637H1222.34V619.938H1233.06V621.789H1224.59V627.273H1231.98V629.113ZM1235.98 637V619.938H1240.8C1242.28 619.938 1243.59 620.266 1244.73 620.922C1245.88 621.578 1246.75 622.512 1247.37 623.723C1248 624.934 1248.31 626.324 1248.32 627.895V628.984C1248.32 630.594 1248.01 632.004 1247.38 633.215C1246.77 634.426 1245.88 635.355 1244.72 636.004C1243.57 636.652 1242.23 636.984 1240.7 637H1235.98ZM1238.23 621.789V635.16H1240.6C1242.33 635.16 1243.68 634.621 1244.64 633.543C1245.61 632.465 1246.09 630.93 1246.09 628.938V627.941C1246.09 626.004 1245.64 624.5 1244.72 623.43C1243.82 622.352 1242.53 621.805 1240.86 621.789H1238.23ZM1263.74 619.938V631.539C1263.73 633.148 1263.23 634.465 1262.22 635.488C1261.22 636.512 1259.86 637.086 1258.14 637.211L1257.54 637.234C1255.68 637.234 1254.19 636.73 1253.08 635.723C1251.97 634.715 1251.41 633.328 1251.39 631.562V619.938H1253.62V631.492C1253.62 632.727 1253.96 633.688 1254.64 634.375C1255.32 635.055 1256.29 635.395 1257.54 635.395C1258.82 635.395 1259.79 635.055 1260.46 634.375C1261.14 633.695 1261.48 632.738 1261.48 631.504V619.938H1263.74ZM1273.55 630.098H1269.54V637H1267.28V619.938H1272.93C1274.85 619.938 1276.33 620.375 1277.36 621.25C1278.4 622.125 1278.92 623.398 1278.92 625.07C1278.92 626.133 1278.63 627.059 1278.05 627.848C1277.48 628.637 1276.68 629.227 1275.66 629.617L1279.67 636.859V637H1277.25L1273.55 630.098ZM1269.54 628.258H1273C1274.12 628.258 1275 627.969 1275.66 627.391C1276.32 626.812 1276.66 626.039 1276.66 625.07C1276.66 624.016 1276.34 623.207 1275.71 622.645C1275.08 622.082 1274.18 621.797 1272.99 621.789H1269.54V628.258ZM1291.73 629.113H1284.33V635.16H1292.92V637H1282.08V619.938H1292.8V621.789H1284.33V627.273H1291.73V629.113ZM1300.75 629.395C1298.82 628.84 1297.41 628.16 1296.53 627.355C1295.66 626.543 1295.22 625.543 1295.22 624.355C1295.22 623.012 1295.75 621.902 1296.82 621.027C1297.9 620.145 1299.3 619.703 1301.02 619.703C1302.19 619.703 1303.23 619.93 1304.15 620.383C1305.07 620.836 1305.78 621.461 1306.28 622.258C1306.79 623.055 1307.04 623.926 1307.04 624.871H1304.78C1304.78 623.84 1304.45 623.031 1303.8 622.445C1303.14 621.852 1302.21 621.555 1301.02 621.555C1299.91 621.555 1299.04 621.801 1298.42 622.293C1297.8 622.777 1297.49 623.453 1297.49 624.32C1297.49 625.016 1297.79 625.605 1298.37 626.09C1298.96 626.566 1299.97 627.004 1301.38 627.402C1302.8 627.801 1303.91 628.242 1304.71 628.727C1305.52 629.203 1306.11 629.762 1306.49 630.402C1306.88 631.043 1307.08 631.797 1307.08 632.664C1307.08 634.047 1306.54 635.156 1305.46 635.992C1304.38 636.82 1302.94 637.234 1301.14 637.234C1299.96 637.234 1298.87 637.012 1297.86 636.566C1296.84 636.113 1296.05 635.496 1295.5 634.715C1294.95 633.934 1294.68 633.047 1294.68 632.055H1296.94C1296.94 633.086 1297.32 633.902 1298.08 634.504C1298.84 635.098 1299.86 635.395 1301.14 635.395C1302.32 635.395 1303.23 635.152 1303.87 634.668C1304.5 634.184 1304.82 633.523 1304.82 632.688C1304.82 631.852 1304.52 631.207 1303.94 630.754C1303.35 630.293 1302.29 629.84 1300.75 629.395Z" fill="white"/>
</svg>
