<svg width="1440" height="1024" viewBox="0 0 1440 1024" fill="none" xmlns="http://www.w3.org/2000/svg">
<rect width="1440" height="1024" fill="white"/>
<rect width="1440" height="60" fill="black"/>
<path d="M36.6475 33.8955C36.4814 36.1904 35.6318 37.9971 34.0986 39.3154C32.5752 40.6338 30.5635 41.293 28.0635 41.293C25.3291 41.293 23.1758 40.375 21.6035 38.5391C20.041 36.6934 19.2598 34.1641 19.2598 30.9512V29.6475C19.2598 27.5967 19.6211 25.79 20.3438 24.2275C21.0664 22.665 22.0967 21.4688 23.4346 20.6387C24.7822 19.7988 26.3447 19.3789 28.1221 19.3789C30.583 19.3789 32.5654 20.0381 34.0693 21.3564C35.5732 22.6748 36.4424 24.5254 36.6768 26.9082H32.2822C32.1748 25.5312 31.7891 24.5352 31.125 23.9199C30.4707 23.2949 29.4697 22.9824 28.1221 22.9824C26.6572 22.9824 25.5586 23.5098 24.8262 24.5645C24.1035 25.6094 23.7324 27.2354 23.7129 29.4424V31.0537C23.7129 33.3584 24.0596 35.043 24.7529 36.1074C25.4561 37.1719 26.5596 37.7041 28.0635 37.7041C29.4209 37.7041 30.4316 37.3965 31.0957 36.7812C31.7695 36.1562 32.1553 35.1943 32.2529 33.8955H36.6475ZM43.9277 37.4697H53.2588V41H39.5332V19.6719H43.9277V37.4697ZM60.4658 41H56.0713V19.6719H60.4658V41ZM77.3848 31.7568H68.9473V37.4697H78.8496V41H64.5527V19.6719H78.8203V23.2314H68.9473V28.3145H77.3848V31.7568ZM98.7715 41H94.377L85.8223 26.9668V41H81.4277V19.6719H85.8223L94.3916 33.7344V19.6719H98.7715V41ZM118.225 23.2314H111.691V41H107.297V23.2314H100.852V19.6719H118.225V23.2314ZM131.73 33.4854V41H127.336V19.6719H135.656C137.258 19.6719 138.664 19.9648 139.875 20.5508C141.096 21.1367 142.033 21.9717 142.688 23.0557C143.342 24.1299 143.669 25.3555 143.669 26.7324C143.669 28.8223 142.951 30.4727 141.516 31.6836C140.09 32.8848 138.112 33.4854 135.583 33.4854H131.73ZM131.73 29.9258H135.656C136.818 29.9258 137.702 29.6523 138.308 29.1055C138.923 28.5586 139.23 27.7773 139.23 26.7617C139.23 25.7168 138.923 24.8721 138.308 24.2275C137.692 23.583 136.843 23.251 135.759 23.2314H131.73V29.9258ZM164.221 30.8193C164.221 32.9189 163.85 34.7598 163.107 36.3418C162.365 37.9238 161.301 39.1445 159.914 40.0039C158.537 40.8633 156.955 41.293 155.168 41.293C153.4 41.293 151.823 40.8682 150.437 40.0186C149.05 39.1689 147.976 37.958 147.214 36.3857C146.452 34.8037 146.066 32.9873 146.057 30.9365V29.8818C146.057 27.7822 146.433 25.9365 147.185 24.3447C147.946 22.7432 149.016 21.5176 150.393 20.668C151.779 19.8086 153.361 19.3789 155.139 19.3789C156.916 19.3789 158.493 19.8086 159.87 20.668C161.257 21.5176 162.326 22.7432 163.078 24.3447C163.84 25.9365 164.221 27.7773 164.221 29.8672V30.8193ZM159.768 29.8525C159.768 27.6162 159.367 25.917 158.566 24.7549C157.766 23.5928 156.623 23.0117 155.139 23.0117C153.664 23.0117 152.526 23.5879 151.726 24.7402C150.925 25.8828 150.52 27.5625 150.51 29.7793V30.8193C150.51 32.9971 150.91 34.6865 151.711 35.8877C152.512 37.0889 153.664 37.6895 155.168 37.6895C156.643 37.6895 157.775 37.1133 158.566 35.9609C159.357 34.7988 159.758 33.1094 159.768 30.8926V29.8525ZM175.31 33.1924H171.809V41H167.414V19.6719H175.339C177.858 19.6719 179.802 20.2334 181.169 21.3564C182.536 22.4795 183.22 24.0664 183.22 26.1172C183.22 27.5723 182.902 28.7881 182.268 29.7646C181.643 30.7314 180.69 31.5029 179.411 32.0791L184.025 40.7949V41H179.309L175.31 33.1924ZM171.809 29.6328H175.354C176.457 29.6328 177.312 29.3545 177.917 28.7979C178.522 28.2314 178.825 27.4551 178.825 26.4688C178.825 25.4629 178.537 24.6719 177.961 24.0957C177.395 23.5195 176.521 23.2314 175.339 23.2314H171.809V29.6328ZM201.896 23.2314H195.363V41H190.969V23.2314H184.523V19.6719H201.896V23.2314ZM214.699 36.6055H206.994L205.529 41H200.856L208.796 19.6719H212.868L220.852 41H216.179L214.699 36.6055ZM208.181 33.0459H213.513L210.832 25.0625L208.181 33.0459ZM227.238 37.4697H236.569V41H222.844V19.6719H227.238V37.4697Z" fill="white"/>
<rect x="41" y="101" width="1358" height="882" stroke="black" stroke-width="2"/>
<rect x="40" y="100" width="1360" height="50" fill="black"/>
<path d="M63.5254 126.434V132H61.6504V117.781H66.8945C68.4505 117.781 69.668 118.178 70.5469 118.973C71.4323 119.767 71.875 120.818 71.875 122.127C71.875 123.507 71.4421 124.572 70.5762 125.32C69.7168 126.062 68.4831 126.434 66.875 126.434H63.5254ZM63.5254 124.9H66.8945C67.8971 124.9 68.6654 124.666 69.1992 124.197C69.7331 123.722 70 123.038 70 122.146C70 121.3 69.7331 120.623 69.1992 120.115C68.6654 119.607 67.9329 119.344 67.002 119.324H63.5254V124.9ZM85.2051 125.35C85.2051 126.743 84.9707 127.96 84.502 129.002C84.0332 130.037 83.3691 130.828 82.5098 131.375C81.6504 131.922 80.6478 132.195 79.502 132.195C78.3822 132.195 77.3893 131.922 76.5234 131.375C75.6576 130.822 74.9837 130.037 74.502 129.021C74.0267 127.999 73.7826 126.818 73.7695 125.477V124.451C73.7695 123.084 74.0072 121.876 74.4824 120.828C74.9577 119.78 75.6283 118.979 76.4941 118.426C77.3665 117.866 78.3626 117.586 79.4824 117.586C80.6217 117.586 81.6243 117.863 82.4902 118.416C83.3626 118.963 84.0332 119.76 84.502 120.809C84.9707 121.85 85.2051 123.064 85.2051 124.451V125.35ZM83.3398 124.432C83.3398 122.745 83.0013 121.453 82.3242 120.555C81.6471 119.65 80.6999 119.197 79.4824 119.197C78.2975 119.197 77.3633 119.65 76.6797 120.555C76.0026 121.453 75.6543 122.703 75.6348 124.305V125.35C75.6348 126.984 75.9766 128.27 76.6602 129.207C77.3503 130.138 78.2975 130.604 79.502 130.604C80.7129 130.604 81.6504 130.164 82.3145 129.285C82.9785 128.4 83.3203 127.133 83.3398 125.486V124.432ZM93.2324 126.248H89.8926V132H88.0078V117.781H92.7148C94.3164 117.781 95.5469 118.146 96.4062 118.875C97.2721 119.604 97.7051 120.665 97.7051 122.059C97.7051 122.944 97.4642 123.715 96.9824 124.373C96.5072 125.031 95.8431 125.522 94.9902 125.848L98.3301 131.883V132H96.3184L93.2324 126.248ZM89.8926 124.715H92.7734C93.7044 124.715 94.4434 124.474 94.9902 123.992C95.5436 123.51 95.8203 122.866 95.8203 122.059C95.8203 121.18 95.5566 120.506 95.0293 120.037C94.5085 119.568 93.7533 119.331 92.7637 119.324H89.8926V124.715ZM109.385 119.324H104.814V132H102.949V119.324H98.3887V117.781H109.385V119.324ZM119.336 125.721H113.369V132H111.494V117.781H120.303V119.324H113.369V124.188H119.336V125.721ZM133.486 125.35C133.486 126.743 133.252 127.96 132.783 129.002C132.314 130.037 131.65 130.828 130.791 131.375C129.932 131.922 128.929 132.195 127.783 132.195C126.663 132.195 125.671 131.922 124.805 131.375C123.939 130.822 123.265 130.037 122.783 129.021C122.308 127.999 122.064 126.818 122.051 125.477V124.451C122.051 123.084 122.288 121.876 122.764 120.828C123.239 119.78 123.91 118.979 124.775 118.426C125.648 117.866 126.644 117.586 127.764 117.586C128.903 117.586 129.906 117.863 130.771 118.416C131.644 118.963 132.314 119.76 132.783 120.809C133.252 121.85 133.486 123.064 133.486 124.451V125.35ZM131.621 124.432C131.621 122.745 131.283 121.453 130.605 120.555C129.928 119.65 128.981 119.197 127.764 119.197C126.579 119.197 125.645 119.65 124.961 120.555C124.284 121.453 123.936 122.703 123.916 124.305V125.35C123.916 126.984 124.258 128.27 124.941 129.207C125.632 130.138 126.579 130.604 127.783 130.604C128.994 130.604 129.932 130.164 130.596 129.285C131.26 128.4 131.602 127.133 131.621 125.486V124.432ZM138.184 130.467H144.922V132H136.299V117.781H138.184V130.467ZM149.072 132H147.197V117.781H149.072V132ZM163.447 125.35C163.447 126.743 163.213 127.96 162.744 129.002C162.275 130.037 161.611 130.828 160.752 131.375C159.893 131.922 158.89 132.195 157.744 132.195C156.624 132.195 155.632 131.922 154.766 131.375C153.9 130.822 153.226 130.037 152.744 129.021C152.269 127.999 152.025 126.818 152.012 125.477V124.451C152.012 123.084 152.249 121.876 152.725 120.828C153.2 119.78 153.87 118.979 154.736 118.426C155.609 117.866 156.605 117.586 157.725 117.586C158.864 117.586 159.867 117.863 160.732 118.416C161.605 118.963 162.275 119.76 162.744 120.809C163.213 121.85 163.447 123.064 163.447 124.451V125.35ZM161.582 124.432C161.582 122.745 161.243 121.453 160.566 120.555C159.889 119.65 158.942 119.197 157.725 119.197C156.54 119.197 155.605 119.65 154.922 120.555C154.245 121.453 153.896 122.703 153.877 124.305V125.35C153.877 126.984 154.219 128.27 154.902 129.207C155.592 130.138 156.54 130.604 157.744 130.604C158.955 130.604 159.893 130.164 160.557 129.285C161.221 128.4 161.562 127.133 161.582 125.486V124.432Z" fill="white"/>
<g filter="url(#filter0_d)">
<rect x="42" y="150" width="1356" height="50" fill="#F3F3F3"/>
</g>
<path d="M63.5244 177.245V182H61.3008V169.203H66.1963C67.626 169.203 68.7598 169.575 69.5977 170.319C70.4414 171.063 70.8633 172.048 70.8633 173.272C70.8633 174.526 70.4502 175.502 69.624 176.199C68.8037 176.896 67.6523 177.245 66.1699 177.245H63.5244ZM63.5244 175.461H66.1963C66.9873 175.461 67.5908 175.276 68.0068 174.907C68.4229 174.532 68.6309 173.993 68.6309 173.29C68.6309 172.599 68.4199 172.048 67.998 171.638C67.5762 171.222 66.9961 171.008 66.2578 170.996H63.5244V175.461ZM72.085 177.157C72.085 176.226 72.2695 175.388 72.6387 174.644C73.0078 173.894 73.5264 173.319 74.1943 172.921C74.8623 172.517 75.6299 172.314 76.4971 172.314C77.7803 172.314 78.8203 172.728 79.6172 173.554C80.4199 174.38 80.8535 175.476 80.918 176.841L80.9268 177.342C80.9268 178.279 80.7451 179.117 80.3818 179.855C80.0244 180.594 79.5088 181.165 78.835 181.569C78.167 181.974 77.3936 182.176 76.5146 182.176C75.1729 182.176 74.0977 181.73 73.2891 180.84C72.4863 179.943 72.085 178.751 72.085 177.263V177.157ZM74.2207 177.342C74.2207 178.32 74.4229 179.088 74.8271 179.645C75.2314 180.195 75.7939 180.471 76.5146 180.471C77.2354 180.471 77.7949 180.189 78.1934 179.627C78.5977 179.064 78.7998 178.241 78.7998 177.157C78.7998 176.196 78.5918 175.435 78.1758 174.872C77.7656 174.31 77.2061 174.028 76.4971 174.028C75.7998 174.028 75.2461 174.307 74.8359 174.863C74.4258 175.414 74.2207 176.24 74.2207 177.342ZM87.7119 174.441C87.4307 174.395 87.1406 174.371 86.8418 174.371C85.8633 174.371 85.2041 174.746 84.8643 175.496V182H82.7285V172.49H84.7676L84.8203 173.554C85.3359 172.728 86.0508 172.314 86.9648 172.314C87.2695 172.314 87.5215 172.355 87.7207 172.438L87.7119 174.441ZM92.1768 170.179V172.49H93.8555V174.072H92.1768V179.381C92.1768 179.744 92.2471 180.008 92.3877 180.172C92.5342 180.33 92.792 180.409 93.1611 180.409C93.4072 180.409 93.6562 180.38 93.9082 180.321V181.974C93.4219 182.108 92.9531 182.176 92.502 182.176C90.8613 182.176 90.041 181.271 90.041 179.46V174.072H88.4766V172.49H90.041V170.179H92.1768ZM96.2461 182V174.072H94.7959V172.49H96.2461V171.62C96.2461 170.565 96.5391 169.751 97.125 169.177C97.7109 168.603 98.5312 168.315 99.5859 168.315C99.9609 168.315 100.359 168.368 100.781 168.474L100.729 170.144C100.494 170.097 100.222 170.073 99.9111 170.073C98.8916 170.073 98.3818 170.598 98.3818 171.646V172.49H100.315V174.072H98.3818V182H96.2461ZM101.476 177.157C101.476 176.226 101.66 175.388 102.029 174.644C102.398 173.894 102.917 173.319 103.585 172.921C104.253 172.517 105.021 172.314 105.888 172.314C107.171 172.314 108.211 172.728 109.008 173.554C109.811 174.38 110.244 175.476 110.309 176.841L110.317 177.342C110.317 178.279 110.136 179.117 109.772 179.855C109.415 180.594 108.899 181.165 108.226 181.569C107.558 181.974 106.784 182.176 105.905 182.176C104.563 182.176 103.488 181.73 102.68 180.84C101.877 179.943 101.476 178.751 101.476 177.263V177.157ZM103.611 177.342C103.611 178.32 103.813 179.088 104.218 179.645C104.622 180.195 105.185 180.471 105.905 180.471C106.626 180.471 107.186 180.189 107.584 179.627C107.988 179.064 108.19 178.241 108.19 177.157C108.19 176.196 107.982 175.435 107.566 174.872C107.156 174.31 106.597 174.028 105.888 174.028C105.19 174.028 104.637 174.307 104.227 174.863C103.816 175.414 103.611 176.24 103.611 177.342ZM114.396 182H112.26V168.5H114.396V182ZM119.001 182H116.865V172.49H119.001V182ZM116.733 170.021C116.733 169.692 116.836 169.42 117.041 169.203C117.252 168.986 117.551 168.878 117.938 168.878C118.324 168.878 118.623 168.986 118.834 169.203C119.045 169.42 119.15 169.692 119.15 170.021C119.15 170.343 119.045 170.612 118.834 170.829C118.623 171.04 118.324 171.146 117.938 171.146C117.551 171.146 117.252 171.04 117.041 170.829C116.836 170.612 116.733 170.343 116.733 170.021ZM120.935 177.157C120.935 176.226 121.119 175.388 121.488 174.644C121.857 173.894 122.376 173.319 123.044 172.921C123.712 172.517 124.479 172.314 125.347 172.314C126.63 172.314 127.67 172.728 128.467 173.554C129.27 174.38 129.703 175.476 129.768 176.841L129.776 177.342C129.776 178.279 129.595 179.117 129.231 179.855C128.874 180.594 128.358 181.165 127.685 181.569C127.017 181.974 126.243 182.176 125.364 182.176C124.022 182.176 122.947 181.73 122.139 180.84C121.336 179.943 120.935 178.751 120.935 177.263V177.157ZM123.07 177.342C123.07 178.32 123.272 179.088 123.677 179.645C124.081 180.195 124.644 180.471 125.364 180.471C126.085 180.471 126.645 180.189 127.043 179.627C127.447 179.064 127.649 178.241 127.649 177.157C127.649 176.196 127.441 175.435 127.025 174.872C126.615 174.31 126.056 174.028 125.347 174.028C124.649 174.028 124.096 174.307 123.686 174.863C123.275 175.414 123.07 176.24 123.07 177.342Z" fill="#575755"/>
<path d="M180.065 177.834C179.937 179.199 179.433 180.266 178.554 181.033C177.675 181.795 176.506 182.176 175.047 182.176C174.027 182.176 173.128 181.936 172.349 181.455C171.575 180.969 170.978 180.28 170.556 179.39C170.134 178.499 169.914 177.465 169.896 176.287V175.092C169.896 173.885 170.11 172.821 170.538 171.901C170.966 170.981 171.578 170.272 172.375 169.774C173.178 169.276 174.104 169.027 175.152 169.027C176.564 169.027 177.701 169.411 178.562 170.179C179.424 170.946 179.925 172.03 180.065 173.431H177.851C177.745 172.511 177.476 171.849 177.042 171.444C176.614 171.034 175.984 170.829 175.152 170.829C174.186 170.829 173.441 171.184 172.92 171.893C172.404 172.596 172.141 173.63 172.129 174.995V176.129C172.129 177.512 172.375 178.566 172.867 179.293C173.365 180.02 174.092 180.383 175.047 180.383C175.92 180.383 176.576 180.187 177.016 179.794C177.455 179.401 177.733 178.748 177.851 177.834H180.065ZM187.536 182C187.442 181.818 187.36 181.522 187.29 181.112C186.61 181.821 185.778 182.176 184.794 182.176C183.839 182.176 183.06 181.903 182.456 181.358C181.853 180.813 181.551 180.14 181.551 179.337C181.551 178.323 181.926 177.547 182.676 177.008C183.432 176.463 184.51 176.19 185.91 176.19H187.22V175.566C187.22 175.074 187.082 174.682 186.807 174.389C186.531 174.09 186.112 173.94 185.55 173.94C185.063 173.94 184.665 174.063 184.354 174.31C184.044 174.55 183.889 174.857 183.889 175.232H181.753C181.753 174.711 181.926 174.225 182.271 173.773C182.617 173.316 183.086 172.959 183.678 172.701C184.275 172.443 184.94 172.314 185.673 172.314C186.786 172.314 187.674 172.596 188.336 173.158C188.998 173.715 189.338 174.5 189.355 175.514V179.803C189.355 180.658 189.476 181.341 189.716 181.851V182H187.536ZM185.189 180.462C185.611 180.462 186.007 180.359 186.376 180.154C186.751 179.949 187.032 179.674 187.22 179.328V177.535H186.068C185.277 177.535 184.683 177.673 184.284 177.948C183.886 178.224 183.687 178.613 183.687 179.117C183.687 179.527 183.821 179.855 184.091 180.102C184.366 180.342 184.732 180.462 185.189 180.462ZM196.923 179.416C196.923 179.035 196.765 178.745 196.448 178.546C196.138 178.347 195.619 178.171 194.893 178.019C194.166 177.866 193.56 177.673 193.073 177.438C192.007 176.923 191.474 176.176 191.474 175.197C191.474 174.377 191.819 173.691 192.511 173.141C193.202 172.59 194.081 172.314 195.147 172.314C196.284 172.314 197.201 172.596 197.898 173.158C198.602 173.721 198.953 174.45 198.953 175.347H196.817C196.817 174.937 196.665 174.597 196.36 174.327C196.056 174.052 195.651 173.914 195.147 173.914C194.679 173.914 194.295 174.022 193.996 174.239C193.703 174.456 193.557 174.746 193.557 175.109C193.557 175.438 193.694 175.692 193.97 175.874C194.245 176.056 194.802 176.24 195.64 176.428C196.478 176.609 197.134 176.829 197.608 177.087C198.089 177.339 198.443 177.644 198.672 178.001C198.906 178.358 199.023 178.792 199.023 179.302C199.023 180.157 198.669 180.852 197.96 181.385C197.251 181.912 196.322 182.176 195.174 182.176C194.395 182.176 193.7 182.035 193.091 181.754C192.481 181.473 192.007 181.086 191.667 180.594C191.327 180.102 191.157 179.571 191.157 179.003H193.231C193.261 179.507 193.451 179.896 193.803 180.172C194.154 180.441 194.62 180.576 195.2 180.576C195.763 180.576 196.19 180.471 196.483 180.26C196.776 180.043 196.923 179.762 196.923 179.416ZM205.079 182.176C203.726 182.176 202.627 181.751 201.783 180.901C200.945 180.046 200.526 178.909 200.526 177.491V177.228C200.526 176.278 200.708 175.432 201.071 174.688C201.44 173.938 201.956 173.354 202.618 172.938C203.28 172.522 204.019 172.314 204.833 172.314C206.128 172.314 207.127 172.728 207.83 173.554C208.539 174.38 208.894 175.549 208.894 177.061V177.922H202.68C202.744 178.707 203.005 179.328 203.462 179.785C203.925 180.242 204.505 180.471 205.202 180.471C206.181 180.471 206.978 180.075 207.593 179.284L208.744 180.383C208.363 180.951 207.854 181.394 207.215 181.71C206.582 182.021 205.87 182.176 205.079 182.176ZM204.824 174.028C204.238 174.028 203.764 174.233 203.4 174.644C203.043 175.054 202.814 175.625 202.715 176.357H206.784V176.199C206.737 175.484 206.547 174.945 206.213 174.582C205.879 174.213 205.416 174.028 204.824 174.028ZM217.023 172.49L217.085 173.589C217.788 172.739 218.711 172.314 219.854 172.314C221.834 172.314 222.842 173.448 222.877 175.716V182H220.741V175.839C220.741 175.235 220.609 174.79 220.346 174.503C220.088 174.21 219.663 174.063 219.071 174.063C218.21 174.063 217.568 174.453 217.146 175.232V182H215.011V172.49H217.023ZM230.743 182C230.649 181.818 230.567 181.522 230.497 181.112C229.817 181.821 228.985 182.176 228.001 182.176C227.046 182.176 226.267 181.903 225.663 181.358C225.06 180.813 224.758 180.14 224.758 179.337C224.758 178.323 225.133 177.547 225.883 177.008C226.639 176.463 227.717 176.19 229.117 176.19H230.427V175.566C230.427 175.074 230.289 174.682 230.014 174.389C229.738 174.09 229.319 173.94 228.757 173.94C228.271 173.94 227.872 174.063 227.562 174.31C227.251 174.55 227.096 174.857 227.096 175.232H224.96C224.96 174.711 225.133 174.225 225.479 173.773C225.824 173.316 226.293 172.959 226.885 172.701C227.482 172.443 228.147 172.314 228.88 172.314C229.993 172.314 230.881 172.596 231.543 173.158C232.205 173.715 232.545 174.5 232.562 175.514V179.803C232.562 180.658 232.683 181.341 232.923 181.851V182H230.743ZM228.396 180.462C228.818 180.462 229.214 180.359 229.583 180.154C229.958 179.949 230.239 179.674 230.427 179.328V177.535H229.275C228.484 177.535 227.89 177.673 227.491 177.948C227.093 178.224 226.894 178.613 226.894 179.117C226.894 179.527 227.028 179.855 227.298 180.102C227.573 180.342 227.939 180.462 228.396 180.462ZM236.808 172.49L236.869 173.483C237.537 172.704 238.451 172.314 239.611 172.314C240.883 172.314 241.753 172.801 242.222 173.773C242.913 172.801 243.886 172.314 245.14 172.314C246.188 172.314 246.968 172.604 247.478 173.185C247.993 173.765 248.257 174.62 248.269 175.751V182H246.133V175.812C246.133 175.209 246.001 174.767 245.737 174.485C245.474 174.204 245.037 174.063 244.428 174.063C243.941 174.063 243.543 174.195 243.232 174.459C242.928 174.717 242.714 175.057 242.591 175.479L242.6 182H240.464V175.742C240.435 174.623 239.863 174.063 238.75 174.063C237.895 174.063 237.288 174.412 236.931 175.109V182H234.795V172.49H236.808ZM254.649 182.176C253.296 182.176 252.197 181.751 251.354 180.901C250.516 180.046 250.097 178.909 250.097 177.491V177.228C250.097 176.278 250.278 175.432 250.642 174.688C251.011 173.938 251.526 173.354 252.188 172.938C252.851 172.522 253.589 172.314 254.403 172.314C255.698 172.314 256.697 172.728 257.4 173.554C258.109 174.38 258.464 175.549 258.464 177.061V177.922H252.25C252.314 178.707 252.575 179.328 253.032 179.785C253.495 180.242 254.075 180.471 254.772 180.471C255.751 180.471 256.548 180.075 257.163 179.284L258.314 180.383C257.934 180.951 257.424 181.394 256.785 181.71C256.152 182.021 255.44 182.176 254.649 182.176ZM254.395 174.028C253.809 174.028 253.334 174.233 252.971 174.644C252.613 175.054 252.385 175.625 252.285 176.357H256.354V176.199C256.308 175.484 256.117 174.945 255.783 174.582C255.449 174.213 254.986 174.028 254.395 174.028Z" fill="#575755"/>
<path d="M146 168L153.5 175.5L146 183" stroke="#575755" stroke-width="2"/>
<line x1="159" y1="199" x2="270" y2="199" stroke="#9BA5AD" stroke-width="2"/>
<rect x="422" y="240" width="938" height="341" fill="#F3F3F3"/>
<rect x="82" y="240" width="320" height="163" fill="#F3F3F3"/>
<rect x="82" y="423" width="320" height="519" fill="#F3F3F3"/>
<rect x="421" y="601" width="939" height="341" fill="#F3F3F3"/>
<path d="M442.445 634V619.781H446.645C447.901 619.781 449.014 620.061 449.984 620.621C450.961 621.181 451.716 621.975 452.25 623.004C452.784 624.033 453.051 625.211 453.051 626.539V627.252C453.051 628.6 452.781 629.785 452.24 630.807C451.706 631.829 450.941 632.617 449.945 633.17C448.956 633.723 447.82 634 446.537 634H442.445ZM444.916 621.773V632.027H446.527C447.823 632.027 448.816 631.624 449.506 630.816C450.202 630.003 450.557 628.837 450.57 627.32V626.529C450.57 624.986 450.235 623.808 449.564 622.994C448.894 622.18 447.921 621.773 446.645 621.773H444.916ZM454.838 628.619C454.838 627.584 455.043 626.653 455.453 625.826C455.863 624.993 456.439 624.355 457.182 623.912C457.924 623.463 458.777 623.238 459.74 623.238C461.166 623.238 462.322 623.697 463.207 624.615C464.099 625.533 464.581 626.751 464.652 628.268L464.662 628.824C464.662 629.866 464.46 630.797 464.057 631.617C463.66 632.438 463.087 633.072 462.338 633.521C461.596 633.971 460.736 634.195 459.76 634.195C458.269 634.195 457.074 633.701 456.176 632.711C455.284 631.715 454.838 630.39 454.838 628.736V628.619ZM457.211 628.824C457.211 629.911 457.436 630.764 457.885 631.383C458.334 631.995 458.959 632.301 459.76 632.301C460.561 632.301 461.182 631.988 461.625 631.363C462.074 630.738 462.299 629.824 462.299 628.619C462.299 627.551 462.068 626.705 461.605 626.08C461.15 625.455 460.528 625.143 459.74 625.143C458.965 625.143 458.35 625.452 457.895 626.07C457.439 626.682 457.211 627.6 457.211 628.824ZM471.01 632.301C471.602 632.301 472.094 632.128 472.484 631.783C472.875 631.438 473.083 631.012 473.109 630.504H475.346C475.32 631.161 475.115 631.777 474.73 632.35C474.346 632.916 473.826 633.365 473.168 633.697C472.51 634.029 471.801 634.195 471.039 634.195C469.561 634.195 468.389 633.717 467.523 632.76C466.658 631.803 466.225 630.481 466.225 628.795V628.551C466.225 626.943 466.654 625.657 467.514 624.693C468.373 623.723 469.545 623.238 471.029 623.238C472.286 623.238 473.308 623.606 474.096 624.342C474.89 625.071 475.307 626.031 475.346 627.223H473.109C473.083 626.617 472.875 626.119 472.484 625.729C472.1 625.338 471.609 625.143 471.01 625.143C470.242 625.143 469.649 625.423 469.232 625.982C468.816 626.536 468.604 627.379 468.598 628.512V628.893C468.598 630.038 468.803 630.895 469.213 631.461C469.63 632.021 470.229 632.301 471.01 632.301ZM483.539 632.965C482.842 633.785 481.853 634.195 480.57 634.195C479.424 634.195 478.555 633.86 477.963 633.189C477.377 632.519 477.084 631.549 477.084 630.279V623.434H479.457V630.25C479.457 631.591 480.014 632.262 481.127 632.262C482.279 632.262 483.057 631.848 483.461 631.021V623.434H485.834V634H483.598L483.539 632.965ZM490.482 623.434L490.551 624.537C491.293 623.671 492.309 623.238 493.598 623.238C495.01 623.238 495.977 623.779 496.498 624.859C497.266 623.779 498.347 623.238 499.74 623.238C500.906 623.238 501.771 623.561 502.338 624.205C502.911 624.85 503.204 625.8 503.217 627.057V634H500.844V627.125C500.844 626.454 500.697 625.963 500.404 625.65C500.111 625.338 499.626 625.182 498.949 625.182C498.409 625.182 497.966 625.328 497.621 625.621C497.283 625.908 497.045 626.285 496.908 626.754L496.918 634H494.545V627.047C494.512 625.803 493.878 625.182 492.641 625.182C491.69 625.182 491.016 625.569 490.619 626.344V634H488.246V623.434H490.482ZM510.307 634.195C508.803 634.195 507.582 633.723 506.645 632.779C505.714 631.829 505.248 630.566 505.248 628.99V628.697C505.248 627.643 505.45 626.702 505.854 625.875C506.264 625.042 506.837 624.394 507.572 623.932C508.308 623.469 509.128 623.238 510.033 623.238C511.472 623.238 512.582 623.697 513.363 624.615C514.151 625.533 514.545 626.832 514.545 628.512V629.469H507.641C507.712 630.341 508.002 631.031 508.51 631.539C509.024 632.047 509.669 632.301 510.443 632.301C511.531 632.301 512.416 631.861 513.1 630.982L514.379 632.203C513.956 632.835 513.389 633.326 512.68 633.678C511.977 634.023 511.186 634.195 510.307 634.195ZM510.023 625.143C509.372 625.143 508.845 625.37 508.441 625.826C508.044 626.282 507.79 626.917 507.68 627.73H512.201V627.555C512.149 626.76 511.938 626.161 511.566 625.758C511.195 625.348 510.681 625.143 510.023 625.143ZM518.598 623.434L518.666 624.654C519.447 623.71 520.473 623.238 521.742 623.238C523.943 623.238 525.062 624.498 525.102 627.018V634H522.729V627.154C522.729 626.484 522.582 625.989 522.289 625.67C522.003 625.344 521.531 625.182 520.873 625.182C519.916 625.182 519.203 625.615 518.734 626.48V634H516.361V623.434H518.598ZM530.502 620.865V623.434H532.367V625.191H530.502V631.09C530.502 631.493 530.58 631.786 530.736 631.969C530.899 632.145 531.186 632.232 531.596 632.232C531.869 632.232 532.146 632.2 532.426 632.135V633.971C531.885 634.12 531.365 634.195 530.863 634.195C529.04 634.195 528.129 633.189 528.129 631.178V625.191H526.391V623.434H528.129V620.865H530.502ZM540.111 631.129C540.111 630.706 539.936 630.383 539.584 630.162C539.239 629.941 538.663 629.745 537.855 629.576C537.048 629.407 536.374 629.192 535.834 628.932C534.649 628.359 534.057 627.529 534.057 626.441C534.057 625.53 534.441 624.768 535.209 624.156C535.977 623.544 536.954 623.238 538.139 623.238C539.402 623.238 540.421 623.551 541.195 624.176C541.977 624.801 542.367 625.611 542.367 626.607H539.994C539.994 626.152 539.825 625.774 539.486 625.475C539.148 625.169 538.699 625.016 538.139 625.016C537.618 625.016 537.191 625.136 536.859 625.377C536.534 625.618 536.371 625.94 536.371 626.344C536.371 626.708 536.524 626.992 536.83 627.193C537.136 627.395 537.755 627.6 538.686 627.809C539.617 628.01 540.346 628.255 540.873 628.541C541.407 628.821 541.801 629.16 542.055 629.557C542.315 629.954 542.445 630.436 542.445 631.002C542.445 631.952 542.051 632.724 541.264 633.316C540.476 633.902 539.444 634.195 538.168 634.195C537.302 634.195 536.531 634.039 535.854 633.727C535.176 633.414 534.649 632.984 534.271 632.438C533.894 631.891 533.705 631.301 533.705 630.67H536.01C536.042 631.23 536.254 631.663 536.645 631.969C537.035 632.268 537.553 632.418 538.197 632.418C538.822 632.418 539.298 632.301 539.623 632.066C539.949 631.826 540.111 631.513 540.111 631.129ZM545.951 631.5C546.394 631.5 546.736 631.627 546.977 631.881C547.217 632.128 547.338 632.441 547.338 632.818C547.338 633.189 547.217 633.499 546.977 633.746C546.736 633.987 546.394 634.107 545.951 634.107C545.528 634.107 545.193 633.987 544.945 633.746C544.698 633.505 544.574 633.196 544.574 632.818C544.574 632.441 544.695 632.128 544.936 631.881C545.176 631.627 545.515 631.5 545.951 631.5ZM545.951 623.209C546.394 623.209 546.736 623.336 546.977 623.59C547.217 623.837 547.338 624.15 547.338 624.527C547.338 624.898 547.217 625.208 546.977 625.455C546.736 625.696 546.394 625.816 545.951 625.816C545.528 625.816 545.193 625.696 544.945 625.455C544.698 625.214 544.574 624.905 544.574 624.527C544.574 624.15 544.695 623.837 544.936 623.59C545.176 623.336 545.515 623.209 545.951 623.209Z" fill="black"/>
<path d="M452.846 258.781V268.283C452.846 269.794 452.361 270.992 451.391 271.877C450.427 272.756 449.141 273.195 447.533 273.195C445.906 273.195 444.613 272.762 443.656 271.896C442.699 271.024 442.221 269.816 442.221 268.273V258.781H444.682V268.293C444.682 269.243 444.923 269.969 445.404 270.471C445.886 270.972 446.596 271.223 447.533 271.223C449.434 271.223 450.385 270.22 450.385 268.215V258.781H452.846ZM464.516 267.824C464.516 269.458 464.145 270.764 463.402 271.74C462.66 272.71 461.664 273.195 460.414 273.195C459.255 273.195 458.327 272.814 457.631 272.053V277.062H455.258V262.434H457.445L457.543 263.508C458.24 262.661 459.187 262.238 460.385 262.238C461.674 262.238 462.683 262.72 463.412 263.684C464.148 264.641 464.516 265.972 464.516 267.678V267.824ZM462.152 267.619C462.152 266.564 461.941 265.728 461.518 265.109C461.101 264.491 460.502 264.182 459.721 264.182C458.751 264.182 458.054 264.582 457.631 265.383V270.07C458.061 270.891 458.764 271.301 459.74 271.301C460.495 271.301 461.085 270.998 461.508 270.393C461.938 269.781 462.152 268.856 462.152 267.619ZM466.088 267.639C466.088 266.011 466.465 264.706 467.221 263.723C467.976 262.733 468.988 262.238 470.258 262.238C471.378 262.238 472.283 262.629 472.973 263.41V258H475.346V273H473.197L473.08 271.906C472.37 272.766 471.423 273.195 470.238 273.195C469.001 273.195 467.999 272.697 467.23 271.701C466.469 270.705 466.088 269.351 466.088 267.639ZM468.461 267.844C468.461 268.918 468.666 269.758 469.076 270.363C469.493 270.962 470.082 271.262 470.844 271.262C471.814 271.262 472.523 270.829 472.973 269.963V265.451C472.536 264.605 471.833 264.182 470.863 264.182C470.095 264.182 469.503 264.488 469.086 265.1C468.669 265.705 468.461 266.62 468.461 267.844ZM484.135 273C484.031 272.798 483.939 272.469 483.861 272.014C483.106 272.801 482.182 273.195 481.088 273.195C480.027 273.195 479.161 272.893 478.49 272.287C477.82 271.682 477.484 270.933 477.484 270.041C477.484 268.915 477.901 268.052 478.734 267.453C479.574 266.848 480.772 266.545 482.328 266.545H483.783V265.852C483.783 265.305 483.63 264.868 483.324 264.543C483.018 264.211 482.553 264.045 481.928 264.045C481.387 264.045 480.945 264.182 480.6 264.455C480.255 264.722 480.082 265.064 480.082 265.48H477.709C477.709 264.901 477.901 264.361 478.285 263.859C478.669 263.352 479.19 262.954 479.848 262.668C480.512 262.382 481.251 262.238 482.064 262.238C483.301 262.238 484.288 262.551 485.023 263.176C485.759 263.794 486.137 264.667 486.156 265.793V270.559C486.156 271.509 486.29 272.268 486.557 272.834V273H484.135ZM481.527 271.291C481.996 271.291 482.436 271.177 482.846 270.949C483.262 270.721 483.575 270.415 483.783 270.031V268.039H482.504C481.625 268.039 480.964 268.192 480.521 268.498C480.079 268.804 479.857 269.237 479.857 269.797C479.857 270.253 480.007 270.617 480.307 270.891C480.613 271.158 481.02 271.291 481.527 271.291ZM491.615 259.865V262.434H493.48V264.191H491.615V270.09C491.615 270.493 491.693 270.786 491.85 270.969C492.012 271.145 492.299 271.232 492.709 271.232C492.982 271.232 493.259 271.2 493.539 271.135V272.971C492.999 273.12 492.478 273.195 491.977 273.195C490.154 273.195 489.242 272.189 489.242 270.178V264.191H487.504V262.434H489.242V259.865H491.615ZM499.955 273.195C498.451 273.195 497.23 272.723 496.293 271.779C495.362 270.829 494.896 269.566 494.896 267.99V267.697C494.896 266.643 495.098 265.702 495.502 264.875C495.912 264.042 496.485 263.394 497.221 262.932C497.956 262.469 498.777 262.238 499.682 262.238C501.12 262.238 502.23 262.697 503.012 263.615C503.799 264.533 504.193 265.832 504.193 267.512V268.469H497.289C497.361 269.341 497.65 270.031 498.158 270.539C498.673 271.047 499.317 271.301 500.092 271.301C501.179 271.301 502.064 270.861 502.748 269.982L504.027 271.203C503.604 271.835 503.038 272.326 502.328 272.678C501.625 273.023 500.834 273.195 499.955 273.195ZM499.672 264.143C499.021 264.143 498.493 264.37 498.09 264.826C497.693 265.282 497.439 265.917 497.328 266.73H501.85V266.555C501.798 265.76 501.586 265.161 501.215 264.758C500.844 264.348 500.329 264.143 499.672 264.143ZM511.967 270.129C511.967 269.706 511.791 269.383 511.439 269.162C511.094 268.941 510.518 268.745 509.711 268.576C508.904 268.407 508.23 268.192 507.689 267.932C506.505 267.359 505.912 266.529 505.912 265.441C505.912 264.53 506.296 263.768 507.064 263.156C507.833 262.544 508.809 262.238 509.994 262.238C511.257 262.238 512.276 262.551 513.051 263.176C513.832 263.801 514.223 264.611 514.223 265.607H511.85C511.85 265.152 511.68 264.774 511.342 264.475C511.003 264.169 510.554 264.016 509.994 264.016C509.473 264.016 509.047 264.136 508.715 264.377C508.389 264.618 508.227 264.94 508.227 265.344C508.227 265.708 508.38 265.992 508.686 266.193C508.992 266.395 509.61 266.6 510.541 266.809C511.472 267.01 512.201 267.255 512.729 267.541C513.262 267.821 513.656 268.16 513.91 268.557C514.171 268.954 514.301 269.436 514.301 270.002C514.301 270.952 513.907 271.724 513.119 272.316C512.331 272.902 511.299 273.195 510.023 273.195C509.158 273.195 508.386 273.039 507.709 272.727C507.032 272.414 506.505 271.984 506.127 271.438C505.749 270.891 505.561 270.301 505.561 269.67H507.865C507.898 270.23 508.109 270.663 508.5 270.969C508.891 271.268 509.408 271.418 510.053 271.418C510.678 271.418 511.153 271.301 511.479 271.066C511.804 270.826 511.967 270.513 511.967 270.129ZM517.807 270.5C518.249 270.5 518.591 270.627 518.832 270.881C519.073 271.128 519.193 271.441 519.193 271.818C519.193 272.189 519.073 272.499 518.832 272.746C518.591 272.987 518.249 273.107 517.807 273.107C517.383 273.107 517.048 272.987 516.801 272.746C516.553 272.505 516.43 272.196 516.43 271.818C516.43 271.441 516.55 271.128 516.791 270.881C517.032 270.627 517.37 270.5 517.807 270.5ZM517.807 262.209C518.249 262.209 518.591 262.336 518.832 262.59C519.073 262.837 519.193 263.15 519.193 263.527C519.193 263.898 519.073 264.208 518.832 264.455C518.591 264.696 518.249 264.816 517.807 264.816C517.383 264.816 517.048 264.696 516.801 264.455C516.553 264.214 516.43 263.905 516.43 263.527C516.43 263.15 516.55 262.837 516.791 262.59C517.032 262.336 517.37 262.209 517.807 262.209Z" fill="black"/>
<path d="M114.725 456H112.254L105.916 445.912V456H103.445V441.781H105.916L112.273 451.908V441.781H114.725V456ZM116.971 450.619C116.971 449.584 117.176 448.653 117.586 447.826C117.996 446.993 118.572 446.355 119.314 445.912C120.057 445.463 120.91 445.238 121.873 445.238C123.299 445.238 124.454 445.697 125.34 446.615C126.232 447.533 126.714 448.751 126.785 450.268L126.795 450.824C126.795 451.866 126.593 452.797 126.189 453.617C125.792 454.438 125.219 455.072 124.471 455.521C123.729 455.971 122.869 456.195 121.893 456.195C120.402 456.195 119.207 455.701 118.309 454.711C117.417 453.715 116.971 452.39 116.971 450.736V450.619ZM119.344 450.824C119.344 451.911 119.568 452.764 120.018 453.383C120.467 453.995 121.092 454.301 121.893 454.301C122.693 454.301 123.315 453.988 123.758 453.363C124.207 452.738 124.432 451.824 124.432 450.619C124.432 449.551 124.201 448.705 123.738 448.08C123.283 447.455 122.661 447.143 121.873 447.143C121.098 447.143 120.483 447.452 120.027 448.07C119.572 448.682 119.344 449.6 119.344 450.824ZM131.775 442.865V445.434H133.641V447.191H131.775V453.09C131.775 453.493 131.854 453.786 132.01 453.969C132.173 454.145 132.459 454.232 132.869 454.232C133.143 454.232 133.419 454.2 133.699 454.135V455.971C133.159 456.12 132.638 456.195 132.137 456.195C130.314 456.195 129.402 455.189 129.402 453.178V447.191H127.664V445.434H129.402V442.865H131.775ZM140.115 456.195C138.611 456.195 137.391 455.723 136.453 454.779C135.522 453.829 135.057 452.566 135.057 450.99V450.697C135.057 449.643 135.258 448.702 135.662 447.875C136.072 447.042 136.645 446.394 137.381 445.932C138.117 445.469 138.937 445.238 139.842 445.238C141.281 445.238 142.391 445.697 143.172 446.615C143.96 447.533 144.354 448.832 144.354 450.512V451.469H137.449C137.521 452.341 137.811 453.031 138.318 453.539C138.833 454.047 139.477 454.301 140.252 454.301C141.339 454.301 142.225 453.861 142.908 452.982L144.188 454.203C143.764 454.835 143.198 455.326 142.488 455.678C141.785 456.023 140.994 456.195 140.115 456.195ZM139.832 447.143C139.181 447.143 138.654 447.37 138.25 447.826C137.853 448.282 137.599 448.917 137.488 449.73H142.01V449.555C141.958 448.76 141.746 448.161 141.375 447.758C141.004 447.348 140.49 447.143 139.832 447.143ZM152.127 453.129C152.127 452.706 151.951 452.383 151.6 452.162C151.255 451.941 150.678 451.745 149.871 451.576C149.064 451.407 148.39 451.192 147.85 450.932C146.665 450.359 146.072 449.529 146.072 448.441C146.072 447.53 146.456 446.768 147.225 446.156C147.993 445.544 148.969 445.238 150.154 445.238C151.417 445.238 152.436 445.551 153.211 446.176C153.992 446.801 154.383 447.611 154.383 448.607H152.01C152.01 448.152 151.84 447.774 151.502 447.475C151.163 447.169 150.714 447.016 150.154 447.016C149.633 447.016 149.207 447.136 148.875 447.377C148.549 447.618 148.387 447.94 148.387 448.344C148.387 448.708 148.54 448.992 148.846 449.193C149.152 449.395 149.77 449.6 150.701 449.809C151.632 450.01 152.361 450.255 152.889 450.541C153.423 450.821 153.816 451.16 154.07 451.557C154.331 451.954 154.461 452.436 154.461 453.002C154.461 453.952 154.067 454.724 153.279 455.316C152.492 455.902 151.46 456.195 150.184 456.195C149.318 456.195 148.546 456.039 147.869 455.727C147.192 455.414 146.665 454.984 146.287 454.438C145.91 453.891 145.721 453.301 145.721 452.67H148.025C148.058 453.23 148.27 453.663 148.66 453.969C149.051 454.268 149.568 454.418 150.213 454.418C150.838 454.418 151.313 454.301 151.639 454.066C151.964 453.826 152.127 453.513 152.127 453.129ZM157.967 453.5C158.41 453.5 158.751 453.627 158.992 453.881C159.233 454.128 159.354 454.441 159.354 454.818C159.354 455.189 159.233 455.499 158.992 455.746C158.751 455.987 158.41 456.107 157.967 456.107C157.544 456.107 157.208 455.987 156.961 455.746C156.714 455.505 156.59 455.196 156.59 454.818C156.59 454.441 156.71 454.128 156.951 453.881C157.192 453.627 157.531 453.5 157.967 453.5ZM157.967 445.209C158.41 445.209 158.751 445.336 158.992 445.59C159.233 445.837 159.354 446.15 159.354 446.527C159.354 446.898 159.233 447.208 158.992 447.455C158.751 447.696 158.41 447.816 157.967 447.816C157.544 447.816 157.208 447.696 156.961 447.455C156.714 447.214 156.59 446.905 156.59 446.527C156.59 446.15 156.71 445.837 156.951 445.59C157.192 445.336 157.531 445.209 157.967 445.209Z" fill="black"/>
<path d="M114.295 274.371C114.152 275.888 113.592 277.073 112.615 277.926C111.639 278.772 110.34 279.195 108.719 279.195C107.586 279.195 106.587 278.928 105.721 278.395C104.861 277.854 104.197 277.089 103.729 276.1C103.26 275.11 103.016 273.961 102.996 272.652V271.324C102.996 269.983 103.234 268.801 103.709 267.779C104.184 266.757 104.865 265.969 105.75 265.416C106.642 264.863 107.671 264.586 108.836 264.586C110.405 264.586 111.668 265.012 112.625 265.865C113.582 266.718 114.139 267.923 114.295 269.479H111.834C111.717 268.456 111.417 267.721 110.936 267.271C110.46 266.816 109.76 266.588 108.836 266.588C107.762 266.588 106.935 266.982 106.355 267.77C105.783 268.551 105.49 269.7 105.477 271.217V272.477C105.477 274.013 105.75 275.185 106.297 275.992C106.85 276.799 107.658 277.203 108.719 277.203C109.689 277.203 110.418 276.985 110.906 276.549C111.395 276.113 111.704 275.387 111.834 274.371H114.295ZM124.471 275.689H118.963L117.811 279H115.242L120.613 264.781H122.83L128.211 279H125.633L124.471 275.689ZM119.656 273.697H123.777L121.717 267.799L119.656 273.697ZM137.264 275.338C137.264 274.713 137.042 274.231 136.6 273.893C136.163 273.554 135.372 273.212 134.227 272.867C133.081 272.522 132.169 272.138 131.492 271.715C130.197 270.901 129.549 269.84 129.549 268.531C129.549 267.385 130.014 266.441 130.945 265.699C131.883 264.957 133.097 264.586 134.588 264.586C135.577 264.586 136.46 264.768 137.234 265.133C138.009 265.497 138.618 266.018 139.061 266.695C139.503 267.366 139.725 268.111 139.725 268.932H137.264C137.264 268.189 137.029 267.61 136.561 267.193C136.098 266.77 135.434 266.559 134.568 266.559C133.761 266.559 133.133 266.731 132.684 267.076C132.241 267.421 132.02 267.903 132.02 268.521C132.02 269.042 132.26 269.479 132.742 269.83C133.224 270.175 134.018 270.514 135.125 270.846C136.232 271.171 137.12 271.546 137.791 271.969C138.462 272.385 138.953 272.867 139.266 273.414C139.578 273.954 139.734 274.589 139.734 275.318C139.734 276.503 139.279 277.447 138.367 278.15C137.462 278.847 136.232 279.195 134.676 279.195C133.647 279.195 132.7 279.007 131.834 278.629C130.975 278.245 130.304 277.717 129.822 277.047C129.347 276.376 129.109 275.595 129.109 274.703H131.58C131.58 275.51 131.847 276.135 132.381 276.578C132.915 277.021 133.68 277.242 134.676 277.242C135.535 277.242 136.18 277.07 136.609 276.725C137.046 276.373 137.264 275.911 137.264 275.338ZM150.213 272.652H144.373V277.027H151.199V279H141.902V264.781H151.131V266.773H144.373V270.699H150.213V272.652ZM169.471 279H167L160.662 268.912V279H158.191V264.781H160.662L167.02 274.908V264.781H169.471V279ZM180.525 275.689H175.018L173.865 279H171.297L176.668 264.781H178.885L184.266 279H181.688L180.525 275.689ZM175.711 273.697H179.832L177.771 267.799L175.711 273.697ZM189.09 264.781L193.191 275.68L197.283 264.781H200.477V279H198.016V274.312L198.26 268.043L194.061 279H192.293L188.104 268.053L188.348 274.312V279H185.887V264.781H189.09ZM211.717 272.652H205.877V277.027H212.703V279H203.406V264.781H212.635V266.773H205.877V270.699H211.717V272.652Z" fill="black"/>
<path d="M107.84 313.662C106.232 313.2 105.06 312.633 104.324 311.963C103.595 311.286 103.23 310.452 103.23 309.463C103.23 308.343 103.676 307.419 104.568 306.689C105.467 305.954 106.632 305.586 108.064 305.586C109.041 305.586 109.91 305.775 110.672 306.152C111.44 306.53 112.033 307.051 112.449 307.715C112.872 308.379 113.084 309.105 113.084 309.893H111.199C111.199 309.033 110.926 308.359 110.379 307.871C109.832 307.376 109.061 307.129 108.064 307.129C107.14 307.129 106.417 307.334 105.896 307.744C105.382 308.148 105.125 308.711 105.125 309.434C105.125 310.013 105.369 310.505 105.857 310.908C106.352 311.305 107.189 311.67 108.367 312.002C109.552 312.334 110.477 312.702 111.141 313.105C111.811 313.503 112.306 313.968 112.625 314.502C112.951 315.036 113.113 315.664 113.113 316.387C113.113 317.539 112.664 318.464 111.766 319.16C110.867 319.85 109.666 320.195 108.162 320.195C107.186 320.195 106.274 320.01 105.428 319.639C104.581 319.261 103.927 318.747 103.465 318.096C103.009 317.445 102.781 316.706 102.781 315.879H104.666C104.666 316.738 104.982 317.419 105.613 317.92C106.251 318.415 107.101 318.662 108.162 318.662C109.152 318.662 109.91 318.46 110.438 318.057C110.965 317.653 111.229 317.103 111.229 316.406C111.229 315.71 110.984 315.173 110.496 314.795C110.008 314.411 109.122 314.033 107.84 313.662ZM119.627 320.195C118.195 320.195 117.029 319.727 116.131 318.789C115.232 317.845 114.783 316.585 114.783 315.01V314.678C114.783 313.63 114.982 312.695 115.379 311.875C115.783 311.048 116.342 310.404 117.059 309.941C117.781 309.473 118.562 309.238 119.402 309.238C120.776 309.238 121.844 309.691 122.605 310.596C123.367 311.501 123.748 312.796 123.748 314.482V315.234H116.59C116.616 316.276 116.919 317.119 117.498 317.764C118.084 318.402 118.826 318.721 119.725 318.721C120.363 318.721 120.903 318.59 121.346 318.33C121.788 318.07 122.176 317.725 122.508 317.295L123.611 318.154C122.726 319.515 121.398 320.195 119.627 320.195ZM119.402 310.723C118.673 310.723 118.061 310.99 117.566 311.523C117.072 312.051 116.766 312.793 116.648 313.75H121.941V313.613C121.889 312.695 121.642 311.986 121.199 311.484C120.757 310.977 120.158 310.723 119.402 310.723ZM130.955 311.055C130.682 311.009 130.385 310.986 130.066 310.986C128.882 310.986 128.077 311.491 127.654 312.5V320H125.848V309.434H127.605L127.635 310.654C128.227 309.71 129.067 309.238 130.154 309.238C130.506 309.238 130.773 309.284 130.955 309.375V311.055ZM134.588 320H132.781V309.434H134.588V320ZM132.635 306.631C132.635 306.338 132.723 306.09 132.898 305.889C133.081 305.687 133.348 305.586 133.699 305.586C134.051 305.586 134.318 305.687 134.5 305.889C134.682 306.09 134.773 306.338 134.773 306.631C134.773 306.924 134.682 307.168 134.5 307.363C134.318 307.559 134.051 307.656 133.699 307.656C133.348 307.656 133.081 307.559 132.898 307.363C132.723 307.168 132.635 306.924 132.635 306.631ZM144.012 320C143.908 319.792 143.823 319.421 143.758 318.887C142.918 319.759 141.915 320.195 140.75 320.195C139.708 320.195 138.852 319.902 138.182 319.316C137.518 318.724 137.186 317.975 137.186 317.07C137.186 315.97 137.602 315.117 138.436 314.512C139.275 313.9 140.454 313.594 141.971 313.594H143.729V312.764C143.729 312.132 143.54 311.631 143.162 311.26C142.785 310.882 142.228 310.693 141.492 310.693C140.848 310.693 140.307 310.856 139.871 311.182C139.435 311.507 139.217 311.901 139.217 312.363H137.4C137.4 311.836 137.586 311.328 137.957 310.84C138.335 310.345 138.842 309.954 139.48 309.668C140.125 309.382 140.831 309.238 141.6 309.238C142.817 309.238 143.771 309.544 144.461 310.156C145.151 310.762 145.509 311.598 145.535 312.666V317.529C145.535 318.499 145.659 319.271 145.906 319.844V320H144.012ZM141.014 318.623C141.58 318.623 142.117 318.477 142.625 318.184C143.133 317.891 143.501 317.51 143.729 317.041V314.873H142.312C140.099 314.873 138.992 315.521 138.992 316.816C138.992 317.383 139.181 317.826 139.559 318.145C139.936 318.464 140.421 318.623 141.014 318.623ZM150.33 320H148.523V305H150.33V320ZM164.295 315.996H161.717L160.936 320H159.539L160.32 315.996H157.986V314.658H160.574L161.248 311.201H158.729V309.844H161.512L162.312 305.781H163.709L162.908 309.844H165.486L166.287 305.781H167.693L166.893 309.844H168.885V311.201H166.629L165.955 314.658H168.152V315.996H165.701L164.92 320H163.514L164.295 315.996ZM161.971 314.658H164.549L165.223 311.201H162.645L161.971 314.658ZM170.457 319.053C170.457 318.74 170.548 318.48 170.73 318.271C170.919 318.063 171.199 317.959 171.57 317.959C171.941 317.959 172.221 318.063 172.41 318.271C172.605 318.48 172.703 318.74 172.703 319.053C172.703 319.352 172.605 319.603 172.41 319.805C172.221 320.007 171.941 320.107 171.57 320.107C171.199 320.107 170.919 320.007 170.73 319.805C170.548 319.603 170.457 319.352 170.457 319.053ZM170.467 310.43C170.467 310.117 170.558 309.857 170.74 309.648C170.929 309.44 171.209 309.336 171.58 309.336C171.951 309.336 172.231 309.44 172.42 309.648C172.615 309.857 172.713 310.117 172.713 310.43C172.713 310.729 172.615 310.98 172.42 311.182C172.231 311.383 171.951 311.484 171.58 311.484C171.209 311.484 170.929 311.383 170.74 311.182C170.558 310.98 170.467 310.729 170.467 310.43ZM189.051 313.936C189.051 316.051 188.689 317.624 187.967 318.652C187.244 319.681 186.115 320.195 184.578 320.195C183.061 320.195 181.938 319.694 181.209 318.691C180.48 317.682 180.102 316.178 180.076 314.18V311.768C180.076 309.678 180.438 308.125 181.16 307.109C181.883 306.094 183.016 305.586 184.559 305.586C186.089 305.586 187.215 306.077 187.938 307.061C188.66 308.037 189.031 309.548 189.051 311.592V313.936ZM187.244 311.465C187.244 309.935 187.029 308.822 186.6 308.125C186.17 307.422 185.49 307.07 184.559 307.07C183.634 307.07 182.96 307.419 182.537 308.115C182.114 308.812 181.896 309.883 181.883 311.328V314.219C181.883 315.755 182.104 316.891 182.547 317.627C182.996 318.356 183.673 318.721 184.578 318.721C185.47 318.721 186.131 318.376 186.561 317.686C186.997 316.995 187.225 315.908 187.244 314.424V311.465ZM198.992 315.225H200.965V316.699H198.992V320H197.176V316.699H190.701V315.635L197.068 305.781H198.992V315.225ZM192.752 315.225H197.176V308.252L196.961 308.643L192.752 315.225ZM211.219 309.492C211.219 310.202 211.03 310.833 210.652 311.387C210.281 311.94 209.777 312.373 209.139 312.686C209.881 313.005 210.467 313.47 210.896 314.082C211.333 314.694 211.551 315.387 211.551 316.162C211.551 317.393 211.134 318.372 210.301 319.102C209.474 319.831 208.383 320.195 207.029 320.195C205.662 320.195 204.565 319.831 203.738 319.102C202.918 318.366 202.508 317.386 202.508 316.162C202.508 315.394 202.716 314.701 203.133 314.082C203.556 313.464 204.139 312.995 204.881 312.676C204.249 312.363 203.751 311.93 203.387 311.377C203.022 310.824 202.84 310.195 202.84 309.492C202.84 308.294 203.224 307.344 203.992 306.641C204.76 305.938 205.773 305.586 207.029 305.586C208.279 305.586 209.288 305.938 210.057 306.641C210.831 307.344 211.219 308.294 211.219 309.492ZM209.744 316.123C209.744 315.329 209.49 314.681 208.982 314.18C208.481 313.678 207.824 313.428 207.01 313.428C206.196 313.428 205.542 313.675 205.047 314.17C204.559 314.665 204.314 315.316 204.314 316.123C204.314 316.93 204.552 317.565 205.027 318.027C205.509 318.49 206.176 318.721 207.029 318.721C207.876 318.721 208.54 318.49 209.021 318.027C209.503 317.559 209.744 316.924 209.744 316.123ZM207.029 307.07C206.32 307.07 205.743 307.292 205.301 307.734C204.865 308.171 204.646 308.766 204.646 309.521C204.646 310.244 204.861 310.83 205.291 311.279C205.727 311.722 206.307 311.943 207.029 311.943C207.752 311.943 208.328 311.722 208.758 311.279C209.194 310.83 209.412 310.244 209.412 309.521C209.412 308.799 209.188 308.21 208.738 307.754C208.289 307.298 207.719 307.07 207.029 307.07ZM220.75 313.75C220.372 314.199 219.92 314.561 219.393 314.834C218.872 315.107 218.299 315.244 217.674 315.244C216.854 315.244 216.137 315.042 215.525 314.639C214.92 314.235 214.451 313.669 214.119 312.939C213.787 312.204 213.621 311.393 213.621 310.508C213.621 309.557 213.8 308.701 214.158 307.939C214.523 307.178 215.037 306.595 215.701 306.191C216.365 305.788 217.14 305.586 218.025 305.586C219.432 305.586 220.538 306.113 221.346 307.168C222.16 308.216 222.566 309.648 222.566 311.465V311.992C222.566 314.759 222.02 316.781 220.926 318.057C219.832 319.326 218.182 319.977 215.975 320.01H215.623V318.486H216.004C217.495 318.46 218.641 318.073 219.441 317.324C220.242 316.569 220.678 315.378 220.75 313.75ZM217.967 313.75C218.572 313.75 219.129 313.564 219.637 313.193C220.151 312.822 220.525 312.363 220.76 311.816V311.094C220.76 309.909 220.503 308.945 219.988 308.203C219.474 307.461 218.823 307.09 218.035 307.09C217.241 307.09 216.603 307.396 216.121 308.008C215.639 308.613 215.398 309.414 215.398 310.41C215.398 311.38 215.63 312.181 216.092 312.812C216.561 313.438 217.186 313.75 217.967 313.75ZM234.236 306.797L228.348 320H226.453L232.322 307.266H224.627V305.781H234.236V306.797ZM243.377 305.771V307.305H243.045C241.639 307.331 240.519 307.747 239.686 308.555C238.852 309.362 238.37 310.498 238.24 311.963C238.989 311.104 240.011 310.674 241.307 310.674C242.544 310.674 243.53 311.11 244.266 311.982C245.008 312.855 245.379 313.981 245.379 315.361C245.379 316.826 244.979 317.998 244.178 318.877C243.383 319.756 242.316 320.195 240.975 320.195C239.614 320.195 238.51 319.674 237.664 318.633C236.818 317.585 236.395 316.237 236.395 314.59V313.896C236.395 311.279 236.951 309.281 238.064 307.9C239.184 306.514 240.848 305.804 243.055 305.771H243.377ZM241.004 312.178C240.385 312.178 239.816 312.363 239.295 312.734C238.774 313.105 238.413 313.571 238.211 314.131V314.795C238.211 315.967 238.475 316.911 239.002 317.627C239.529 318.343 240.187 318.701 240.975 318.701C241.788 318.701 242.426 318.402 242.889 317.803C243.357 317.204 243.592 316.419 243.592 315.449C243.592 314.473 243.354 313.685 242.879 313.086C242.41 312.48 241.785 312.178 241.004 312.178ZM256.697 306.797L250.809 320H248.914L254.783 307.266H247.088V305.781H256.697V306.797ZM265.672 313.75C265.294 314.199 264.842 314.561 264.314 314.834C263.794 315.107 263.221 315.244 262.596 315.244C261.775 315.244 261.059 315.042 260.447 314.639C259.842 314.235 259.373 313.669 259.041 312.939C258.709 312.204 258.543 311.393 258.543 310.508C258.543 309.557 258.722 308.701 259.08 307.939C259.445 307.178 259.959 306.595 260.623 306.191C261.287 305.788 262.062 305.586 262.947 305.586C264.354 305.586 265.46 306.113 266.268 307.168C267.081 308.216 267.488 309.648 267.488 311.465V311.992C267.488 314.759 266.941 316.781 265.848 318.057C264.754 319.326 263.104 319.977 260.896 320.01H260.545V318.486H260.926C262.417 318.46 263.562 318.073 264.363 317.324C265.164 316.569 265.6 315.378 265.672 313.75ZM262.889 313.75C263.494 313.75 264.051 313.564 264.559 313.193C265.073 312.822 265.447 312.363 265.682 311.816V311.094C265.682 309.909 265.424 308.945 264.91 308.203C264.396 307.461 263.745 307.09 262.957 307.09C262.163 307.09 261.525 307.396 261.043 308.008C260.561 308.613 260.32 309.414 260.32 310.41C260.32 311.38 260.551 312.181 261.014 312.812C261.482 313.438 262.107 313.75 262.889 313.75ZM114.109 345.488C113.934 346.992 113.377 348.154 112.439 348.975C111.508 349.788 110.268 350.195 108.719 350.195C107.039 350.195 105.691 349.593 104.676 348.389C103.667 347.184 103.162 345.573 103.162 343.555V342.188C103.162 340.866 103.396 339.704 103.865 338.701C104.34 337.699 105.011 336.93 105.877 336.396C106.743 335.856 107.745 335.586 108.885 335.586C110.395 335.586 111.606 336.009 112.518 336.855C113.429 337.695 113.96 338.861 114.109 340.352H112.225C112.062 339.219 111.707 338.398 111.16 337.891C110.62 337.383 109.861 337.129 108.885 337.129C107.687 337.129 106.746 337.572 106.062 338.457C105.385 339.342 105.047 340.602 105.047 342.236V343.613C105.047 345.156 105.369 346.383 106.014 347.295C106.658 348.206 107.56 348.662 108.719 348.662C109.76 348.662 110.558 348.428 111.111 347.959C111.671 347.484 112.042 346.66 112.225 345.488H114.109ZM115.916 344.619C115.916 343.584 116.118 342.653 116.521 341.826C116.932 340.999 117.498 340.361 118.221 339.912C118.95 339.463 119.78 339.238 120.711 339.238C122.15 339.238 123.312 339.736 124.197 340.732C125.089 341.729 125.535 343.053 125.535 344.707V344.834C125.535 345.863 125.337 346.787 124.939 347.607C124.549 348.421 123.986 349.056 123.25 349.512C122.521 349.967 121.681 350.195 120.73 350.195C119.298 350.195 118.136 349.697 117.244 348.701C116.359 347.705 115.916 346.387 115.916 344.746V344.619ZM117.732 344.834C117.732 346.006 118.003 346.947 118.543 347.656C119.09 348.366 119.819 348.721 120.73 348.721C121.648 348.721 122.378 348.363 122.918 347.646C123.458 346.924 123.729 345.915 123.729 344.619C123.729 343.46 123.452 342.523 122.898 341.807C122.352 341.084 121.622 340.723 120.711 340.723C119.819 340.723 119.1 341.077 118.553 341.787C118.006 342.497 117.732 343.512 117.732 344.834ZM134.324 348.955C133.621 349.782 132.589 350.195 131.229 350.195C130.102 350.195 129.243 349.87 128.65 349.219C128.064 348.561 127.768 347.591 127.762 346.309V339.434H129.568V346.26C129.568 347.861 130.219 348.662 131.521 348.662C132.902 348.662 133.82 348.148 134.275 347.119V339.434H136.082V350H134.363L134.324 348.955ZM140.545 339.434L140.604 340.762C141.411 339.746 142.465 339.238 143.768 339.238C146.001 339.238 147.127 340.498 147.146 343.018V350H145.34V343.008C145.333 342.246 145.158 341.683 144.812 341.318C144.474 340.954 143.943 340.771 143.221 340.771C142.635 340.771 142.12 340.928 141.678 341.24C141.235 341.553 140.89 341.963 140.643 342.471V350H138.836V339.434H140.545ZM152.322 336.875V339.434H154.295V340.83H152.322V347.383C152.322 347.806 152.41 348.125 152.586 348.34C152.762 348.548 153.061 348.652 153.484 348.652C153.693 348.652 153.979 348.613 154.344 348.535V350C153.868 350.13 153.406 350.195 152.957 350.195C152.15 350.195 151.541 349.951 151.131 349.463C150.721 348.975 150.516 348.281 150.516 347.383V340.83H148.592V339.434H150.516V336.875H152.322ZM161.521 341.055C161.248 341.009 160.952 340.986 160.633 340.986C159.448 340.986 158.644 341.491 158.221 342.5V350H156.414V339.434H158.172L158.201 340.654C158.794 339.71 159.633 339.238 160.721 339.238C161.072 339.238 161.339 339.284 161.521 339.375V341.055ZM166.824 347.354L169.285 339.434H171.219L166.971 351.631C166.313 353.389 165.268 354.268 163.836 354.268L163.494 354.238L162.82 354.111V352.646L163.309 352.686C163.921 352.686 164.396 352.562 164.734 352.314C165.079 352.067 165.363 351.615 165.584 350.957L165.984 349.883L162.215 339.434H164.188L166.824 347.354ZM172.781 349.053C172.781 348.74 172.872 348.48 173.055 348.271C173.243 348.063 173.523 347.959 173.895 347.959C174.266 347.959 174.546 348.063 174.734 348.271C174.93 348.48 175.027 348.74 175.027 349.053C175.027 349.352 174.93 349.603 174.734 349.805C174.546 350.007 174.266 350.107 173.895 350.107C173.523 350.107 173.243 350.007 173.055 349.805C172.872 349.603 172.781 349.352 172.781 349.053ZM172.791 340.43C172.791 340.117 172.882 339.857 173.064 339.648C173.253 339.44 173.533 339.336 173.904 339.336C174.275 339.336 174.555 339.44 174.744 339.648C174.939 339.857 175.037 340.117 175.037 340.43C175.037 340.729 174.939 340.98 174.744 341.182C174.555 341.383 174.275 341.484 173.904 341.484C173.533 341.484 173.253 341.383 173.064 341.182C172.882 340.98 172.791 340.729 172.791 340.43ZM192.938 335.781V345.449C192.931 346.79 192.508 347.887 191.668 348.74C190.835 349.593 189.702 350.072 188.27 350.176L187.771 350.195C186.215 350.195 184.975 349.775 184.051 348.936C183.126 348.096 182.658 346.94 182.645 345.469V335.781H184.5V345.41C184.5 346.439 184.783 347.24 185.35 347.812C185.916 348.379 186.723 348.662 187.771 348.662C188.833 348.662 189.643 348.379 190.203 347.812C190.77 347.246 191.053 346.449 191.053 345.42V335.781H192.938ZM200.086 343.662C198.478 343.2 197.306 342.633 196.57 341.963C195.841 341.286 195.477 340.452 195.477 339.463C195.477 338.343 195.923 337.419 196.814 336.689C197.713 335.954 198.878 335.586 200.311 335.586C201.287 335.586 202.156 335.775 202.918 336.152C203.686 336.53 204.279 337.051 204.695 337.715C205.118 338.379 205.33 339.105 205.33 339.893H203.445C203.445 339.033 203.172 338.359 202.625 337.871C202.078 337.376 201.307 337.129 200.311 337.129C199.386 337.129 198.663 337.334 198.143 337.744C197.628 338.148 197.371 338.711 197.371 339.434C197.371 340.013 197.615 340.505 198.104 340.908C198.598 341.305 199.435 341.67 200.613 342.002C201.798 342.334 202.723 342.702 203.387 343.105C204.057 343.503 204.552 343.968 204.871 344.502C205.197 345.036 205.359 345.664 205.359 346.387C205.359 347.539 204.91 348.464 204.012 349.16C203.113 349.85 201.912 350.195 200.408 350.195C199.432 350.195 198.52 350.01 197.674 349.639C196.827 349.261 196.173 348.747 195.711 348.096C195.255 347.445 195.027 346.706 195.027 345.879H196.912C196.912 346.738 197.228 347.419 197.859 347.92C198.497 348.415 199.347 348.662 200.408 348.662C201.398 348.662 202.156 348.46 202.684 348.057C203.211 347.653 203.475 347.103 203.475 346.406C203.475 345.71 203.23 345.173 202.742 344.795C202.254 344.411 201.368 344.033 200.086 343.662ZM105.525 374.434V380H103.65V365.781H108.895C110.451 365.781 111.668 366.178 112.547 366.973C113.432 367.767 113.875 368.818 113.875 370.127C113.875 371.507 113.442 372.572 112.576 373.32C111.717 374.062 110.483 374.434 108.875 374.434H105.525ZM105.525 372.9H108.895C109.897 372.9 110.665 372.666 111.199 372.197C111.733 371.722 112 371.038 112 370.146C112 369.3 111.733 368.623 111.199 368.115C110.665 367.607 109.933 367.344 109.002 367.324H105.525V372.9ZM121.092 371.055C120.818 371.009 120.522 370.986 120.203 370.986C119.018 370.986 118.214 371.491 117.791 372.5V380H115.984V369.434H117.742L117.771 370.654C118.364 369.71 119.204 369.238 120.291 369.238C120.643 369.238 120.91 369.284 121.092 369.375V371.055ZM122.088 374.619C122.088 373.584 122.29 372.653 122.693 371.826C123.104 370.999 123.67 370.361 124.393 369.912C125.122 369.463 125.952 369.238 126.883 369.238C128.322 369.238 129.484 369.736 130.369 370.732C131.261 371.729 131.707 373.053 131.707 374.707V374.834C131.707 375.863 131.508 376.787 131.111 377.607C130.721 378.421 130.158 379.056 129.422 379.512C128.693 379.967 127.853 380.195 126.902 380.195C125.47 380.195 124.308 379.697 123.416 378.701C122.531 377.705 122.088 376.387 122.088 374.746V374.619ZM123.904 374.834C123.904 376.006 124.174 376.947 124.715 377.656C125.262 378.366 125.991 378.721 126.902 378.721C127.82 378.721 128.549 378.363 129.09 377.646C129.63 376.924 129.9 375.915 129.9 374.619C129.9 373.46 129.624 372.523 129.07 371.807C128.523 371.084 127.794 370.723 126.883 370.723C125.991 370.723 125.271 371.077 124.725 371.787C124.178 372.497 123.904 373.512 123.904 374.834ZM133.543 374.629C133.543 372.982 133.924 371.673 134.686 370.703C135.447 369.727 136.456 369.238 137.713 369.238C139.002 369.238 140.008 369.694 140.73 370.605L140.818 369.434H142.469V379.746C142.469 381.113 142.062 382.191 141.248 382.979C140.441 383.766 139.354 384.16 137.986 384.16C137.225 384.16 136.479 383.997 135.75 383.672C135.021 383.346 134.464 382.9 134.08 382.334L135.018 381.25C135.792 382.207 136.74 382.686 137.859 382.686C138.738 382.686 139.422 382.438 139.91 381.943C140.405 381.449 140.652 380.752 140.652 379.854V378.945C139.93 379.779 138.943 380.195 137.693 380.195C136.456 380.195 135.454 379.697 134.686 378.701C133.924 377.705 133.543 376.348 133.543 374.629ZM135.359 374.834C135.359 376.025 135.604 376.963 136.092 377.646C136.58 378.324 137.264 378.662 138.143 378.662C139.282 378.662 140.118 378.145 140.652 377.109V372.285C140.099 371.276 139.269 370.771 138.162 370.771C137.283 370.771 136.596 371.113 136.102 371.797C135.607 372.48 135.359 373.493 135.359 374.834ZM150.311 371.055C150.037 371.009 149.741 370.986 149.422 370.986C148.237 370.986 147.433 371.491 147.01 372.5V380H145.203V369.434H146.961L146.99 370.654C147.583 369.71 148.423 369.238 149.51 369.238C149.861 369.238 150.128 369.284 150.311 369.375V371.055ZM156.17 380.195C154.738 380.195 153.572 379.727 152.674 378.789C151.775 377.845 151.326 376.585 151.326 375.01V374.678C151.326 373.63 151.525 372.695 151.922 371.875C152.326 371.048 152.885 370.404 153.602 369.941C154.324 369.473 155.105 369.238 155.945 369.238C157.319 369.238 158.387 369.691 159.148 370.596C159.91 371.501 160.291 372.796 160.291 374.482V375.234H153.133C153.159 376.276 153.462 377.119 154.041 377.764C154.627 378.402 155.369 378.721 156.268 378.721C156.906 378.721 157.446 378.59 157.889 378.33C158.331 378.07 158.719 377.725 159.051 377.295L160.154 378.154C159.269 379.515 157.941 380.195 156.17 380.195ZM155.945 370.723C155.216 370.723 154.604 370.99 154.109 371.523C153.615 372.051 153.309 372.793 153.191 373.75H158.484V373.613C158.432 372.695 158.185 371.986 157.742 371.484C157.299 370.977 156.701 370.723 155.945 370.723ZM168.543 377.197C168.543 376.709 168.357 376.331 167.986 376.064C167.622 375.791 166.98 375.557 166.062 375.361C165.151 375.166 164.425 374.932 163.885 374.658C163.351 374.385 162.954 374.059 162.693 373.682C162.439 373.304 162.312 372.855 162.312 372.334C162.312 371.468 162.677 370.736 163.406 370.137C164.142 369.538 165.079 369.238 166.219 369.238C167.417 369.238 168.387 369.548 169.129 370.166C169.878 370.785 170.252 371.576 170.252 372.539H168.436C168.436 372.044 168.224 371.618 167.801 371.26C167.384 370.902 166.857 370.723 166.219 370.723C165.561 370.723 165.047 370.866 164.676 371.152C164.305 371.439 164.119 371.813 164.119 372.275C164.119 372.712 164.292 373.04 164.637 373.262C164.982 373.483 165.604 373.695 166.502 373.896C167.407 374.098 168.139 374.339 168.699 374.619C169.259 374.899 169.673 375.238 169.939 375.635C170.213 376.025 170.35 376.504 170.35 377.07C170.35 378.014 169.972 378.773 169.217 379.346C168.462 379.912 167.482 380.195 166.277 380.195C165.431 380.195 164.682 380.046 164.031 379.746C163.38 379.447 162.869 379.03 162.498 378.496C162.133 377.956 161.951 377.373 161.951 376.748H163.758C163.79 377.354 164.031 377.835 164.48 378.193C164.936 378.545 165.535 378.721 166.277 378.721C166.961 378.721 167.508 378.584 167.918 378.311C168.335 378.031 168.543 377.66 168.543 377.197ZM178.855 377.197C178.855 376.709 178.67 376.331 178.299 376.064C177.934 375.791 177.293 375.557 176.375 375.361C175.464 375.166 174.738 374.932 174.197 374.658C173.663 374.385 173.266 374.059 173.006 373.682C172.752 373.304 172.625 372.855 172.625 372.334C172.625 371.468 172.99 370.736 173.719 370.137C174.454 369.538 175.392 369.238 176.531 369.238C177.729 369.238 178.699 369.548 179.441 370.166C180.19 370.785 180.564 371.576 180.564 372.539H178.748C178.748 372.044 178.536 371.618 178.113 371.26C177.697 370.902 177.169 370.723 176.531 370.723C175.874 370.723 175.359 370.866 174.988 371.152C174.617 371.439 174.432 371.813 174.432 372.275C174.432 372.712 174.604 373.04 174.949 373.262C175.294 373.483 175.916 373.695 176.814 373.896C177.719 374.098 178.452 374.339 179.012 374.619C179.572 374.899 179.985 375.238 180.252 375.635C180.525 376.025 180.662 376.504 180.662 377.07C180.662 378.014 180.285 378.773 179.529 379.346C178.774 379.912 177.794 380.195 176.59 380.195C175.743 380.195 174.995 380.046 174.344 379.746C173.693 379.447 173.182 379.03 172.811 378.496C172.446 377.956 172.264 377.373 172.264 376.748H174.07C174.103 377.354 174.344 377.835 174.793 378.193C175.249 378.545 175.848 378.721 176.59 378.721C177.273 378.721 177.82 378.584 178.23 378.311C178.647 378.031 178.855 377.66 178.855 377.197ZM182.957 379.053C182.957 378.74 183.048 378.48 183.23 378.271C183.419 378.063 183.699 377.959 184.07 377.959C184.441 377.959 184.721 378.063 184.91 378.271C185.105 378.48 185.203 378.74 185.203 379.053C185.203 379.352 185.105 379.603 184.91 379.805C184.721 380.007 184.441 380.107 184.07 380.107C183.699 380.107 183.419 380.007 183.23 379.805C183.048 379.603 182.957 379.352 182.957 379.053ZM182.967 370.43C182.967 370.117 183.058 369.857 183.24 369.648C183.429 369.44 183.709 369.336 184.08 369.336C184.451 369.336 184.731 369.44 184.92 369.648C185.115 369.857 185.213 370.117 185.213 370.43C185.213 370.729 185.115 370.98 184.92 371.182C184.731 371.383 184.451 371.484 184.08 371.484C183.709 371.484 183.429 371.383 183.24 371.182C183.058 370.98 182.967 370.729 182.967 370.43ZM194.979 374.434V380H193.104V365.781H198.348C199.904 365.781 201.121 366.178 202 366.973C202.885 367.767 203.328 368.818 203.328 370.127C203.328 371.507 202.895 372.572 202.029 373.32C201.17 374.062 199.936 374.434 198.328 374.434H194.979ZM194.979 372.9H198.348C199.35 372.9 200.118 372.666 200.652 372.197C201.186 371.722 201.453 371.038 201.453 370.146C201.453 369.3 201.186 368.623 200.652 368.115C200.118 367.607 199.386 367.344 198.455 367.324H194.979V372.9ZM209.686 380.195C208.253 380.195 207.088 379.727 206.189 378.789C205.291 377.845 204.842 376.585 204.842 375.01V374.678C204.842 373.63 205.04 372.695 205.438 371.875C205.841 371.048 206.401 370.404 207.117 369.941C207.84 369.473 208.621 369.238 209.461 369.238C210.835 369.238 211.902 369.691 212.664 370.596C213.426 371.501 213.807 372.796 213.807 374.482V375.234H206.648C206.674 376.276 206.977 377.119 207.557 377.764C208.143 378.402 208.885 378.721 209.783 378.721C210.421 378.721 210.962 378.59 211.404 378.33C211.847 378.07 212.234 377.725 212.566 377.295L213.67 378.154C212.785 379.515 211.456 380.195 209.686 380.195ZM209.461 370.723C208.732 370.723 208.12 370.99 207.625 371.523C207.13 372.051 206.824 372.793 206.707 373.75H212V373.613C211.948 372.695 211.701 371.986 211.258 371.484C210.815 370.977 210.216 370.723 209.461 370.723ZM217.615 369.434L217.674 370.762C218.481 369.746 219.536 369.238 220.838 369.238C223.071 369.238 224.197 370.498 224.217 373.018V380H222.41V373.008C222.404 372.246 222.228 371.683 221.883 371.318C221.544 370.954 221.014 370.771 220.291 370.771C219.705 370.771 219.191 370.928 218.748 371.24C218.305 371.553 217.96 371.963 217.713 372.471V380H215.906V369.434H217.615ZM226.502 374.629C226.502 373.008 226.886 371.706 227.654 370.723C228.423 369.733 229.428 369.238 230.672 369.238C231.909 369.238 232.889 369.661 233.611 370.508V365H235.418V380H233.758L233.67 378.867C232.947 379.753 231.941 380.195 230.652 380.195C229.428 380.195 228.429 379.694 227.654 378.691C226.886 377.689 226.502 376.38 226.502 374.766V374.629ZM228.309 374.834C228.309 376.032 228.556 376.969 229.051 377.646C229.546 378.324 230.229 378.662 231.102 378.662C232.247 378.662 233.084 378.148 233.611 377.119V372.266C233.071 371.27 232.241 370.771 231.121 370.771C230.236 370.771 229.546 371.113 229.051 371.797C228.556 372.48 228.309 373.493 228.309 374.834ZM240.193 380H238.387V369.434H240.193V380ZM238.24 366.631C238.24 366.338 238.328 366.09 238.504 365.889C238.686 365.687 238.953 365.586 239.305 365.586C239.656 365.586 239.923 365.687 240.105 365.889C240.288 366.09 240.379 366.338 240.379 366.631C240.379 366.924 240.288 367.168 240.105 367.363C239.923 367.559 239.656 367.656 239.305 367.656C238.953 367.656 238.686 367.559 238.504 367.363C238.328 367.168 238.24 366.924 238.24 366.631ZM244.803 369.434L244.861 370.762C245.669 369.746 246.723 369.238 248.025 369.238C250.258 369.238 251.385 370.498 251.404 373.018V380H249.598V373.008C249.591 372.246 249.415 371.683 249.07 371.318C248.732 370.954 248.201 370.771 247.479 370.771C246.893 370.771 246.378 370.928 245.936 371.24C245.493 371.553 245.148 371.963 244.9 372.471V380H243.094V369.434H244.803ZM253.699 374.629C253.699 372.982 254.08 371.673 254.842 370.703C255.604 369.727 256.613 369.238 257.869 369.238C259.158 369.238 260.164 369.694 260.887 370.605L260.975 369.434H262.625V379.746C262.625 381.113 262.218 382.191 261.404 382.979C260.597 383.766 259.51 384.16 258.143 384.16C257.381 384.16 256.635 383.997 255.906 383.672C255.177 383.346 254.62 382.9 254.236 382.334L255.174 381.25C255.949 382.207 256.896 382.686 258.016 382.686C258.895 382.686 259.578 382.438 260.066 381.943C260.561 381.449 260.809 380.752 260.809 379.854V378.945C260.086 379.779 259.1 380.195 257.85 380.195C256.613 380.195 255.61 379.697 254.842 378.701C254.08 377.705 253.699 376.348 253.699 374.629ZM255.516 374.834C255.516 376.025 255.76 376.963 256.248 377.646C256.736 378.324 257.42 378.662 258.299 378.662C259.438 378.662 260.275 378.145 260.809 377.109V372.285C260.255 371.276 259.425 370.771 258.318 370.771C257.439 370.771 256.753 371.113 256.258 371.797C255.763 372.48 255.516 373.493 255.516 374.834Z" fill="black"/>
<defs>
<filter id="filter0_d" x="40" y="150" width="1360" height="54" filterUnits="userSpaceOnUse" color-interpolation-filters="sRGB">
<feFlood flood-opacity="0" result="BackgroundImageFix"/>
<feColorMatrix in="SourceAlpha" type="matrix" values="0 0 0 0 0 0 0 0 0 0 0 0 0 0 0 0 0 0 127 0"/>
<feOffset dy="2"/>
<feGaussianBlur stdDeviation="1"/>
<feColorMatrix type="matrix" values="0 0 0 0 0 0 0 0 0 0 0 0 0 0 0 0 0 0 0.1 0"/>
<feBlend mode="normal" in2="BackgroundImageFix" result="effect1_dropShadow"/>
<feBlend mode="normal" in="SourceGraphic" in2="effect1_dropShadow" result="shape"/>
</filter>
</defs>
</svg>
