<svg width="1440" height="1024" viewBox="0 0 1440 1024" fill="none" xmlns="http://www.w3.org/2000/svg">
<rect width="1440" height="1024" fill="white"/>
<rect width="1440" height="60" fill="black"/>
<path d="M36.6475 33.8955C36.4814 36.1904 35.6318 37.9971 34.0986 39.3154C32.5752 40.6338 30.5635 41.293 28.0635 41.293C25.3291 41.293 23.1758 40.375 21.6035 38.5391C20.041 36.6934 19.2598 34.1641 19.2598 30.9512V29.6475C19.2598 27.5967 19.6211 25.79 20.3438 24.2275C21.0664 22.665 22.0967 21.4688 23.4346 20.6387C24.7822 19.7988 26.3447 19.3789 28.1221 19.3789C30.583 19.3789 32.5654 20.0381 34.0693 21.3564C35.5732 22.6748 36.4424 24.5254 36.6768 26.9082H32.2822C32.1748 25.5312 31.7891 24.5352 31.125 23.9199C30.4707 23.2949 29.4697 22.9824 28.1221 22.9824C26.6572 22.9824 25.5586 23.5098 24.8262 24.5645C24.1035 25.6094 23.7324 27.2354 23.7129 29.4424V31.0537C23.7129 33.3584 24.0596 35.043 24.7529 36.1074C25.4561 37.1719 26.5596 37.7041 28.0635 37.7041C29.4209 37.7041 30.4316 37.3965 31.0957 36.7812C31.7695 36.1562 32.1553 35.1943 32.2529 33.8955H36.6475ZM43.9277 37.4697H53.2588V41H39.5332V19.6719H43.9277V37.4697ZM60.4658 41H56.0713V19.6719H60.4658V41ZM77.3848 31.7568H68.9473V37.4697H78.8496V41H64.5527V19.6719H78.8203V23.2314H68.9473V28.3145H77.3848V31.7568ZM98.7715 41H94.377L85.8223 26.9668V41H81.4277V19.6719H85.8223L94.3916 33.7344V19.6719H98.7715V41ZM118.225 23.2314H111.691V41H107.297V23.2314H100.852V19.6719H118.225V23.2314ZM131.73 33.4854V41H127.336V19.6719H135.656C137.258 19.6719 138.664 19.9648 139.875 20.5508C141.096 21.1367 142.033 21.9717 142.688 23.0557C143.342 24.1299 143.669 25.3555 143.669 26.7324C143.669 28.8223 142.951 30.4727 141.516 31.6836C140.09 32.8848 138.112 33.4854 135.583 33.4854H131.73ZM131.73 29.9258H135.656C136.818 29.9258 137.702 29.6523 138.308 29.1055C138.923 28.5586 139.23 27.7773 139.23 26.7617C139.23 25.7168 138.923 24.8721 138.308 24.2275C137.692 23.583 136.843 23.251 135.759 23.2314H131.73V29.9258ZM164.221 30.8193C164.221 32.9189 163.85 34.7598 163.107 36.3418C162.365 37.9238 161.301 39.1445 159.914 40.0039C158.537 40.8633 156.955 41.293 155.168 41.293C153.4 41.293 151.823 40.8682 150.437 40.0186C149.05 39.1689 147.976 37.958 147.214 36.3857C146.452 34.8037 146.066 32.9873 146.057 30.9365V29.8818C146.057 27.7822 146.433 25.9365 147.185 24.3447C147.946 22.7432 149.016 21.5176 150.393 20.668C151.779 19.8086 153.361 19.3789 155.139 19.3789C156.916 19.3789 158.493 19.8086 159.87 20.668C161.257 21.5176 162.326 22.7432 163.078 24.3447C163.84 25.9365 164.221 27.7773 164.221 29.8672V30.8193ZM159.768 29.8525C159.768 27.6162 159.367 25.917 158.566 24.7549C157.766 23.5928 156.623 23.0117 155.139 23.0117C153.664 23.0117 152.526 23.5879 151.726 24.7402C150.925 25.8828 150.52 27.5625 150.51 29.7793V30.8193C150.51 32.9971 150.91 34.6865 151.711 35.8877C152.512 37.0889 153.664 37.6895 155.168 37.6895C156.643 37.6895 157.775 37.1133 158.566 35.9609C159.357 34.7988 159.758 33.1094 159.768 30.8926V29.8525ZM175.31 33.1924H171.809V41H167.414V19.6719H175.339C177.858 19.6719 179.802 20.2334 181.169 21.3564C182.536 22.4795 183.22 24.0664 183.22 26.1172C183.22 27.5723 182.902 28.7881 182.268 29.7646C181.643 30.7314 180.69 31.5029 179.411 32.0791L184.025 40.7949V41H179.309L175.31 33.1924ZM171.809 29.6328H175.354C176.457 29.6328 177.312 29.3545 177.917 28.7979C178.522 28.2314 178.825 27.4551 178.825 26.4688C178.825 25.4629 178.537 24.6719 177.961 24.0957C177.395 23.5195 176.521 23.2314 175.339 23.2314H171.809V29.6328ZM201.896 23.2314H195.363V41H190.969V23.2314H184.523V19.6719H201.896V23.2314ZM214.699 36.6055H206.994L205.529 41H200.856L208.796 19.6719H212.868L220.852 41H216.179L214.699 36.6055ZM208.181 33.0459H213.513L210.832 25.0625L208.181 33.0459ZM227.238 37.4697H236.569V41H222.844V19.6719H227.238V37.4697Z" fill="white"/>
<rect x="41" y="101" width="1358" height="882" stroke="black" stroke-width="2"/>
<rect x="40" y="100" width="1360" height="50" fill="black"/>
<path d="M63.5254 126.434V132H61.6504V117.781H66.8945C68.4505 117.781 69.668 118.178 70.5469 118.973C71.4323 119.767 71.875 120.818 71.875 122.127C71.875 123.507 71.4421 124.572 70.5762 125.32C69.7168 126.062 68.4831 126.434 66.875 126.434H63.5254ZM63.5254 124.9H66.8945C67.8971 124.9 68.6654 124.666 69.1992 124.197C69.7331 123.722 70 123.038 70 122.146C70 121.3 69.7331 120.623 69.1992 120.115C68.6654 119.607 67.9329 119.344 67.002 119.324H63.5254V124.9ZM85.2051 125.35C85.2051 126.743 84.9707 127.96 84.502 129.002C84.0332 130.037 83.3691 130.828 82.5098 131.375C81.6504 131.922 80.6478 132.195 79.502 132.195C78.3822 132.195 77.3893 131.922 76.5234 131.375C75.6576 130.822 74.9837 130.037 74.502 129.021C74.0267 127.999 73.7826 126.818 73.7695 125.477V124.451C73.7695 123.084 74.0072 121.876 74.4824 120.828C74.9577 119.78 75.6283 118.979 76.4941 118.426C77.3665 117.866 78.3626 117.586 79.4824 117.586C80.6217 117.586 81.6243 117.863 82.4902 118.416C83.3626 118.963 84.0332 119.76 84.502 120.809C84.9707 121.85 85.2051 123.064 85.2051 124.451V125.35ZM83.3398 124.432C83.3398 122.745 83.0013 121.453 82.3242 120.555C81.6471 119.65 80.6999 119.197 79.4824 119.197C78.2975 119.197 77.3633 119.65 76.6797 120.555C76.0026 121.453 75.6543 122.703 75.6348 124.305V125.35C75.6348 126.984 75.9766 128.27 76.6602 129.207C77.3503 130.138 78.2975 130.604 79.502 130.604C80.7129 130.604 81.6504 130.164 82.3145 129.285C82.9785 128.4 83.3203 127.133 83.3398 125.486V124.432ZM93.2324 126.248H89.8926V132H88.0078V117.781H92.7148C94.3164 117.781 95.5469 118.146 96.4062 118.875C97.2721 119.604 97.7051 120.665 97.7051 122.059C97.7051 122.944 97.4642 123.715 96.9824 124.373C96.5072 125.031 95.8431 125.522 94.9902 125.848L98.3301 131.883V132H96.3184L93.2324 126.248ZM89.8926 124.715H92.7734C93.7044 124.715 94.4434 124.474 94.9902 123.992C95.5436 123.51 95.8203 122.866 95.8203 122.059C95.8203 121.18 95.5566 120.506 95.0293 120.037C94.5085 119.568 93.7533 119.331 92.7637 119.324H89.8926V124.715ZM109.385 119.324H104.814V132H102.949V119.324H98.3887V117.781H109.385V119.324ZM119.336 125.721H113.369V132H111.494V117.781H120.303V119.324H113.369V124.188H119.336V125.721ZM133.486 125.35C133.486 126.743 133.252 127.96 132.783 129.002C132.314 130.037 131.65 130.828 130.791 131.375C129.932 131.922 128.929 132.195 127.783 132.195C126.663 132.195 125.671 131.922 124.805 131.375C123.939 130.822 123.265 130.037 122.783 129.021C122.308 127.999 122.064 126.818 122.051 125.477V124.451C122.051 123.084 122.288 121.876 122.764 120.828C123.239 119.78 123.91 118.979 124.775 118.426C125.648 117.866 126.644 117.586 127.764 117.586C128.903 117.586 129.906 117.863 130.771 118.416C131.644 118.963 132.314 119.76 132.783 120.809C133.252 121.85 133.486 123.064 133.486 124.451V125.35ZM131.621 124.432C131.621 122.745 131.283 121.453 130.605 120.555C129.928 119.65 128.981 119.197 127.764 119.197C126.579 119.197 125.645 119.65 124.961 120.555C124.284 121.453 123.936 122.703 123.916 124.305V125.35C123.916 126.984 124.258 128.27 124.941 129.207C125.632 130.138 126.579 130.604 127.783 130.604C128.994 130.604 129.932 130.164 130.596 129.285C131.26 128.4 131.602 127.133 131.621 125.486V124.432ZM138.184 130.467H144.922V132H136.299V117.781H138.184V130.467ZM149.072 132H147.197V117.781H149.072V132ZM163.447 125.35C163.447 126.743 163.213 127.96 162.744 129.002C162.275 130.037 161.611 130.828 160.752 131.375C159.893 131.922 158.89 132.195 157.744 132.195C156.624 132.195 155.632 131.922 154.766 131.375C153.9 130.822 153.226 130.037 152.744 129.021C152.269 127.999 152.025 126.818 152.012 125.477V124.451C152.012 123.084 152.249 121.876 152.725 120.828C153.2 119.78 153.87 118.979 154.736 118.426C155.609 117.866 156.605 117.586 157.725 117.586C158.864 117.586 159.867 117.863 160.732 118.416C161.605 118.963 162.275 119.76 162.744 120.809C163.213 121.85 163.447 123.064 163.447 124.451V125.35ZM161.582 124.432C161.582 122.745 161.243 121.453 160.566 120.555C159.889 119.65 158.942 119.197 157.725 119.197C156.54 119.197 155.605 119.65 154.922 120.555C154.245 121.453 153.896 122.703 153.877 124.305V125.35C153.877 126.984 154.219 128.27 154.902 129.207C155.592 130.138 156.54 130.604 157.744 130.604C158.955 130.604 159.893 130.164 160.557 129.285C161.221 128.4 161.562 127.133 161.582 125.486V124.432Z" fill="white"/>
<g filter="url(#filter0_d)">
<rect x="42" y="150" width="1356" height="50" fill="#F3F3F3"/>
</g>
<path d="M63.5244 177.245V182H61.3008V169.203H66.1963C67.626 169.203 68.7598 169.575 69.5977 170.319C70.4414 171.063 70.8633 172.048 70.8633 173.272C70.8633 174.526 70.4502 175.502 69.624 176.199C68.8037 176.896 67.6523 177.245 66.1699 177.245H63.5244ZM63.5244 175.461H66.1963C66.9873 175.461 67.5908 175.276 68.0068 174.907C68.4229 174.532 68.6309 173.993 68.6309 173.29C68.6309 172.599 68.4199 172.048 67.998 171.638C67.5762 171.222 66.9961 171.008 66.2578 170.996H63.5244V175.461ZM72.085 177.157C72.085 176.226 72.2695 175.388 72.6387 174.644C73.0078 173.894 73.5264 173.319 74.1943 172.921C74.8623 172.517 75.6299 172.314 76.4971 172.314C77.7803 172.314 78.8203 172.728 79.6172 173.554C80.4199 174.38 80.8535 175.476 80.918 176.841L80.9268 177.342C80.9268 178.279 80.7451 179.117 80.3818 179.855C80.0244 180.594 79.5088 181.165 78.835 181.569C78.167 181.974 77.3936 182.176 76.5146 182.176C75.1729 182.176 74.0977 181.73 73.2891 180.84C72.4863 179.943 72.085 178.751 72.085 177.263V177.157ZM74.2207 177.342C74.2207 178.32 74.4229 179.088 74.8271 179.645C75.2314 180.195 75.7939 180.471 76.5146 180.471C77.2354 180.471 77.7949 180.189 78.1934 179.627C78.5977 179.064 78.7998 178.241 78.7998 177.157C78.7998 176.196 78.5918 175.435 78.1758 174.872C77.7656 174.31 77.2061 174.028 76.4971 174.028C75.7998 174.028 75.2461 174.307 74.8359 174.863C74.4258 175.414 74.2207 176.24 74.2207 177.342ZM87.7119 174.441C87.4307 174.395 87.1406 174.371 86.8418 174.371C85.8633 174.371 85.2041 174.746 84.8643 175.496V182H82.7285V172.49H84.7676L84.8203 173.554C85.3359 172.728 86.0508 172.314 86.9648 172.314C87.2695 172.314 87.5215 172.355 87.7207 172.438L87.7119 174.441ZM92.1768 170.179V172.49H93.8555V174.072H92.1768V179.381C92.1768 179.744 92.2471 180.008 92.3877 180.172C92.5342 180.33 92.792 180.409 93.1611 180.409C93.4072 180.409 93.6562 180.38 93.9082 180.321V181.974C93.4219 182.108 92.9531 182.176 92.502 182.176C90.8613 182.176 90.041 181.271 90.041 179.46V174.072H88.4766V172.49H90.041V170.179H92.1768ZM96.2461 182V174.072H94.7959V172.49H96.2461V171.62C96.2461 170.565 96.5391 169.751 97.125 169.177C97.7109 168.603 98.5312 168.315 99.5859 168.315C99.9609 168.315 100.359 168.368 100.781 168.474L100.729 170.144C100.494 170.097 100.222 170.073 99.9111 170.073C98.8916 170.073 98.3818 170.598 98.3818 171.646V172.49H100.315V174.072H98.3818V182H96.2461ZM101.476 177.157C101.476 176.226 101.66 175.388 102.029 174.644C102.398 173.894 102.917 173.319 103.585 172.921C104.253 172.517 105.021 172.314 105.888 172.314C107.171 172.314 108.211 172.728 109.008 173.554C109.811 174.38 110.244 175.476 110.309 176.841L110.317 177.342C110.317 178.279 110.136 179.117 109.772 179.855C109.415 180.594 108.899 181.165 108.226 181.569C107.558 181.974 106.784 182.176 105.905 182.176C104.563 182.176 103.488 181.73 102.68 180.84C101.877 179.943 101.476 178.751 101.476 177.263V177.157ZM103.611 177.342C103.611 178.32 103.813 179.088 104.218 179.645C104.622 180.195 105.185 180.471 105.905 180.471C106.626 180.471 107.186 180.189 107.584 179.627C107.988 179.064 108.19 178.241 108.19 177.157C108.19 176.196 107.982 175.435 107.566 174.872C107.156 174.31 106.597 174.028 105.888 174.028C105.19 174.028 104.637 174.307 104.227 174.863C103.816 175.414 103.611 176.24 103.611 177.342ZM114.396 182H112.26V168.5H114.396V182ZM119.001 182H116.865V172.49H119.001V182ZM116.733 170.021C116.733 169.692 116.836 169.42 117.041 169.203C117.252 168.986 117.551 168.878 117.938 168.878C118.324 168.878 118.623 168.986 118.834 169.203C119.045 169.42 119.15 169.692 119.15 170.021C119.15 170.343 119.045 170.612 118.834 170.829C118.623 171.04 118.324 171.146 117.938 171.146C117.551 171.146 117.252 171.04 117.041 170.829C116.836 170.612 116.733 170.343 116.733 170.021ZM120.935 177.157C120.935 176.226 121.119 175.388 121.488 174.644C121.857 173.894 122.376 173.319 123.044 172.921C123.712 172.517 124.479 172.314 125.347 172.314C126.63 172.314 127.67 172.728 128.467 173.554C129.27 174.38 129.703 175.476 129.768 176.841L129.776 177.342C129.776 178.279 129.595 179.117 129.231 179.855C128.874 180.594 128.358 181.165 127.685 181.569C127.017 181.974 126.243 182.176 125.364 182.176C124.022 182.176 122.947 181.73 122.139 180.84C121.336 179.943 120.935 178.751 120.935 177.263V177.157ZM123.07 177.342C123.07 178.32 123.272 179.088 123.677 179.645C124.081 180.195 124.644 180.471 125.364 180.471C126.085 180.471 126.645 180.189 127.043 179.627C127.447 179.064 127.649 178.241 127.649 177.157C127.649 176.196 127.441 175.435 127.025 174.872C126.615 174.31 126.056 174.028 125.347 174.028C124.649 174.028 124.096 174.307 123.686 174.863C123.275 175.414 123.07 176.24 123.07 177.342Z" fill="#575755"/>
<path d="M180.065 177.834C179.937 179.199 179.433 180.266 178.554 181.033C177.675 181.795 176.506 182.176 175.047 182.176C174.027 182.176 173.128 181.936 172.349 181.455C171.575 180.969 170.978 180.28 170.556 179.39C170.134 178.499 169.914 177.465 169.896 176.287V175.092C169.896 173.885 170.11 172.821 170.538 171.901C170.966 170.981 171.578 170.272 172.375 169.774C173.178 169.276 174.104 169.027 175.152 169.027C176.564 169.027 177.701 169.411 178.562 170.179C179.424 170.946 179.925 172.03 180.065 173.431H177.851C177.745 172.511 177.476 171.849 177.042 171.444C176.614 171.034 175.984 170.829 175.152 170.829C174.186 170.829 173.441 171.184 172.92 171.893C172.404 172.596 172.141 173.63 172.129 174.995V176.129C172.129 177.512 172.375 178.566 172.867 179.293C173.365 180.02 174.092 180.383 175.047 180.383C175.92 180.383 176.576 180.187 177.016 179.794C177.455 179.401 177.733 178.748 177.851 177.834H180.065ZM187.536 182C187.442 181.818 187.36 181.522 187.29 181.112C186.61 181.821 185.778 182.176 184.794 182.176C183.839 182.176 183.06 181.903 182.456 181.358C181.853 180.813 181.551 180.14 181.551 179.337C181.551 178.323 181.926 177.547 182.676 177.008C183.432 176.463 184.51 176.19 185.91 176.19H187.22V175.566C187.22 175.074 187.082 174.682 186.807 174.389C186.531 174.09 186.112 173.94 185.55 173.94C185.063 173.94 184.665 174.063 184.354 174.31C184.044 174.55 183.889 174.857 183.889 175.232H181.753C181.753 174.711 181.926 174.225 182.271 173.773C182.617 173.316 183.086 172.959 183.678 172.701C184.275 172.443 184.94 172.314 185.673 172.314C186.786 172.314 187.674 172.596 188.336 173.158C188.998 173.715 189.338 174.5 189.355 175.514V179.803C189.355 180.658 189.476 181.341 189.716 181.851V182H187.536ZM185.189 180.462C185.611 180.462 186.007 180.359 186.376 180.154C186.751 179.949 187.032 179.674 187.22 179.328V177.535H186.068C185.277 177.535 184.683 177.673 184.284 177.948C183.886 178.224 183.687 178.613 183.687 179.117C183.687 179.527 183.821 179.855 184.091 180.102C184.366 180.342 184.732 180.462 185.189 180.462ZM196.923 179.416C196.923 179.035 196.765 178.745 196.448 178.546C196.138 178.347 195.619 178.171 194.893 178.019C194.166 177.866 193.56 177.673 193.073 177.438C192.007 176.923 191.474 176.176 191.474 175.197C191.474 174.377 191.819 173.691 192.511 173.141C193.202 172.59 194.081 172.314 195.147 172.314C196.284 172.314 197.201 172.596 197.898 173.158C198.602 173.721 198.953 174.45 198.953 175.347H196.817C196.817 174.937 196.665 174.597 196.36 174.327C196.056 174.052 195.651 173.914 195.147 173.914C194.679 173.914 194.295 174.022 193.996 174.239C193.703 174.456 193.557 174.746 193.557 175.109C193.557 175.438 193.694 175.692 193.97 175.874C194.245 176.056 194.802 176.24 195.64 176.428C196.478 176.609 197.134 176.829 197.608 177.087C198.089 177.339 198.443 177.644 198.672 178.001C198.906 178.358 199.023 178.792 199.023 179.302C199.023 180.157 198.669 180.852 197.96 181.385C197.251 181.912 196.322 182.176 195.174 182.176C194.395 182.176 193.7 182.035 193.091 181.754C192.481 181.473 192.007 181.086 191.667 180.594C191.327 180.102 191.157 179.571 191.157 179.003H193.231C193.261 179.507 193.451 179.896 193.803 180.172C194.154 180.441 194.62 180.576 195.2 180.576C195.763 180.576 196.19 180.471 196.483 180.26C196.776 180.043 196.923 179.762 196.923 179.416ZM205.079 182.176C203.726 182.176 202.627 181.751 201.783 180.901C200.945 180.046 200.526 178.909 200.526 177.491V177.228C200.526 176.278 200.708 175.432 201.071 174.688C201.44 173.938 201.956 173.354 202.618 172.938C203.28 172.522 204.019 172.314 204.833 172.314C206.128 172.314 207.127 172.728 207.83 173.554C208.539 174.38 208.894 175.549 208.894 177.061V177.922H202.68C202.744 178.707 203.005 179.328 203.462 179.785C203.925 180.242 204.505 180.471 205.202 180.471C206.181 180.471 206.978 180.075 207.593 179.284L208.744 180.383C208.363 180.951 207.854 181.394 207.215 181.71C206.582 182.021 205.87 182.176 205.079 182.176ZM204.824 174.028C204.238 174.028 203.764 174.233 203.4 174.644C203.043 175.054 202.814 175.625 202.715 176.357H206.784V176.199C206.737 175.484 206.547 174.945 206.213 174.582C205.879 174.213 205.416 174.028 204.824 174.028ZM217.023 172.49L217.085 173.589C217.788 172.739 218.711 172.314 219.854 172.314C221.834 172.314 222.842 173.448 222.877 175.716V182H220.741V175.839C220.741 175.235 220.609 174.79 220.346 174.503C220.088 174.21 219.663 174.063 219.071 174.063C218.21 174.063 217.568 174.453 217.146 175.232V182H215.011V172.49H217.023ZM230.743 182C230.649 181.818 230.567 181.522 230.497 181.112C229.817 181.821 228.985 182.176 228.001 182.176C227.046 182.176 226.267 181.903 225.663 181.358C225.06 180.813 224.758 180.14 224.758 179.337C224.758 178.323 225.133 177.547 225.883 177.008C226.639 176.463 227.717 176.19 229.117 176.19H230.427V175.566C230.427 175.074 230.289 174.682 230.014 174.389C229.738 174.09 229.319 173.94 228.757 173.94C228.271 173.94 227.872 174.063 227.562 174.31C227.251 174.55 227.096 174.857 227.096 175.232H224.96C224.96 174.711 225.133 174.225 225.479 173.773C225.824 173.316 226.293 172.959 226.885 172.701C227.482 172.443 228.147 172.314 228.88 172.314C229.993 172.314 230.881 172.596 231.543 173.158C232.205 173.715 232.545 174.5 232.562 175.514V179.803C232.562 180.658 232.683 181.341 232.923 181.851V182H230.743ZM228.396 180.462C228.818 180.462 229.214 180.359 229.583 180.154C229.958 179.949 230.239 179.674 230.427 179.328V177.535H229.275C228.484 177.535 227.89 177.673 227.491 177.948C227.093 178.224 226.894 178.613 226.894 179.117C226.894 179.527 227.028 179.855 227.298 180.102C227.573 180.342 227.939 180.462 228.396 180.462ZM236.808 172.49L236.869 173.483C237.537 172.704 238.451 172.314 239.611 172.314C240.883 172.314 241.753 172.801 242.222 173.773C242.913 172.801 243.886 172.314 245.14 172.314C246.188 172.314 246.968 172.604 247.478 173.185C247.993 173.765 248.257 174.62 248.269 175.751V182H246.133V175.812C246.133 175.209 246.001 174.767 245.737 174.485C245.474 174.204 245.037 174.063 244.428 174.063C243.941 174.063 243.543 174.195 243.232 174.459C242.928 174.717 242.714 175.057 242.591 175.479L242.6 182H240.464V175.742C240.435 174.623 239.863 174.063 238.75 174.063C237.895 174.063 237.288 174.412 236.931 175.109V182H234.795V172.49H236.808ZM254.649 182.176C253.296 182.176 252.197 181.751 251.354 180.901C250.516 180.046 250.097 178.909 250.097 177.491V177.228C250.097 176.278 250.278 175.432 250.642 174.688C251.011 173.938 251.526 173.354 252.188 172.938C252.851 172.522 253.589 172.314 254.403 172.314C255.698 172.314 256.697 172.728 257.4 173.554C258.109 174.38 258.464 175.549 258.464 177.061V177.922H252.25C252.314 178.707 252.575 179.328 253.032 179.785C253.495 180.242 254.075 180.471 254.772 180.471C255.751 180.471 256.548 180.075 257.163 179.284L258.314 180.383C257.934 180.951 257.424 181.394 256.785 181.71C256.152 182.021 255.44 182.176 254.649 182.176ZM254.395 174.028C253.809 174.028 253.334 174.233 252.971 174.644C252.613 175.054 252.385 175.625 252.285 176.357H256.354V176.199C256.308 175.484 256.117 174.945 255.783 174.582C255.449 174.213 254.986 174.028 254.395 174.028Z" fill="#575755"/>
<path d="M146 168L153.5 175.5L146 183" stroke="#575755" stroke-width="2"/>
<line x1="159" y1="199" x2="270" y2="199" stroke="#9BA5AD" stroke-width="2"/>
<rect x="82.5" y="240.5" width="1275" height="52" stroke="black"/>
<path d="M114.295 268.371C114.152 269.888 113.592 271.073 112.615 271.926C111.639 272.772 110.34 273.195 108.719 273.195C107.586 273.195 106.587 272.928 105.721 272.395C104.861 271.854 104.197 271.089 103.729 270.1C103.26 269.11 103.016 267.961 102.996 266.652V265.324C102.996 263.983 103.234 262.801 103.709 261.779C104.184 260.757 104.865 259.969 105.75 259.416C106.642 258.863 107.671 258.586 108.836 258.586C110.405 258.586 111.668 259.012 112.625 259.865C113.582 260.718 114.139 261.923 114.295 263.479H111.834C111.717 262.456 111.417 261.721 110.936 261.271C110.46 260.816 109.76 260.588 108.836 260.588C107.762 260.588 106.935 260.982 106.355 261.77C105.783 262.551 105.49 263.7 105.477 265.217V266.477C105.477 268.013 105.75 269.185 106.297 269.992C106.85 270.799 107.658 271.203 108.719 271.203C109.689 271.203 110.418 270.985 110.906 270.549C111.395 270.113 111.704 269.387 111.834 268.371H114.295ZM124.471 269.689H118.963L117.811 273H115.242L120.613 258.781H122.83L128.211 273H125.633L124.471 269.689ZM119.656 267.697H123.777L121.717 261.799L119.656 267.697ZM137.264 269.338C137.264 268.713 137.042 268.231 136.6 267.893C136.163 267.554 135.372 267.212 134.227 266.867C133.081 266.522 132.169 266.138 131.492 265.715C130.197 264.901 129.549 263.84 129.549 262.531C129.549 261.385 130.014 260.441 130.945 259.699C131.883 258.957 133.097 258.586 134.588 258.586C135.577 258.586 136.46 258.768 137.234 259.133C138.009 259.497 138.618 260.018 139.061 260.695C139.503 261.366 139.725 262.111 139.725 262.932H137.264C137.264 262.189 137.029 261.61 136.561 261.193C136.098 260.77 135.434 260.559 134.568 260.559C133.761 260.559 133.133 260.731 132.684 261.076C132.241 261.421 132.02 261.903 132.02 262.521C132.02 263.042 132.26 263.479 132.742 263.83C133.224 264.175 134.018 264.514 135.125 264.846C136.232 265.171 137.12 265.546 137.791 265.969C138.462 266.385 138.953 266.867 139.266 267.414C139.578 267.954 139.734 268.589 139.734 269.318C139.734 270.503 139.279 271.447 138.367 272.15C137.462 272.847 136.232 273.195 134.676 273.195C133.647 273.195 132.7 273.007 131.834 272.629C130.975 272.245 130.304 271.717 129.822 271.047C129.347 270.376 129.109 269.595 129.109 268.703H131.58C131.58 269.51 131.847 270.135 132.381 270.578C132.915 271.021 133.68 271.242 134.676 271.242C135.535 271.242 136.18 271.07 136.609 270.725C137.046 270.373 137.264 269.911 137.264 269.338ZM150.213 266.652H144.373V271.027H151.199V273H141.902V258.781H151.131V260.773H144.373V264.699H150.213V266.652ZM169.471 273H167L160.662 262.912V273H158.191V258.781H160.662L167.02 268.908V258.781H169.471V273ZM180.525 269.689H175.018L173.865 273H171.297L176.668 258.781H178.885L184.266 273H181.688L180.525 269.689ZM175.711 267.697H179.832L177.771 261.799L175.711 267.697ZM189.09 258.781L193.191 269.68L197.283 258.781H200.477V273H198.016V268.312L198.26 262.043L194.061 273H192.293L188.104 262.053L188.348 268.312V273H185.887V258.781H189.09ZM211.717 266.652H205.877V271.027H212.703V273H203.406V258.781H212.635V260.773H205.877V264.699H211.717V266.652Z" fill="black"/>
<path d="M271.84 266.662C270.232 266.2 269.06 265.633 268.324 264.963C267.595 264.286 267.23 263.452 267.23 262.463C267.23 261.343 267.676 260.419 268.568 259.689C269.467 258.954 270.632 258.586 272.064 258.586C273.041 258.586 273.91 258.775 274.672 259.152C275.44 259.53 276.033 260.051 276.449 260.715C276.872 261.379 277.084 262.105 277.084 262.893H275.199C275.199 262.033 274.926 261.359 274.379 260.871C273.832 260.376 273.061 260.129 272.064 260.129C271.14 260.129 270.417 260.334 269.896 260.744C269.382 261.148 269.125 261.711 269.125 262.434C269.125 263.013 269.369 263.505 269.857 263.908C270.352 264.305 271.189 264.67 272.367 265.002C273.552 265.334 274.477 265.702 275.141 266.105C275.811 266.503 276.306 266.968 276.625 267.502C276.951 268.036 277.113 268.664 277.113 269.387C277.113 270.539 276.664 271.464 275.766 272.16C274.867 272.85 273.666 273.195 272.162 273.195C271.186 273.195 270.274 273.01 269.428 272.639C268.581 272.261 267.927 271.747 267.465 271.096C267.009 270.445 266.781 269.706 266.781 268.879H268.666C268.666 269.738 268.982 270.419 269.613 270.92C270.251 271.415 271.101 271.662 272.162 271.662C273.152 271.662 273.91 271.46 274.438 271.057C274.965 270.653 275.229 270.103 275.229 269.406C275.229 268.71 274.984 268.173 274.496 267.795C274.008 267.411 273.122 267.033 271.84 266.662ZM283.627 273.195C282.195 273.195 281.029 272.727 280.131 271.789C279.232 270.845 278.783 269.585 278.783 268.01V267.678C278.783 266.63 278.982 265.695 279.379 264.875C279.783 264.048 280.342 263.404 281.059 262.941C281.781 262.473 282.562 262.238 283.402 262.238C284.776 262.238 285.844 262.691 286.605 263.596C287.367 264.501 287.748 265.796 287.748 267.482V268.234H280.59C280.616 269.276 280.919 270.119 281.498 270.764C282.084 271.402 282.826 271.721 283.725 271.721C284.363 271.721 284.903 271.59 285.346 271.33C285.788 271.07 286.176 270.725 286.508 270.295L287.611 271.154C286.726 272.515 285.398 273.195 283.627 273.195ZM283.402 263.723C282.673 263.723 282.061 263.99 281.566 264.523C281.072 265.051 280.766 265.793 280.648 266.75H285.941V266.613C285.889 265.695 285.642 264.986 285.199 264.484C284.757 263.977 284.158 263.723 283.402 263.723ZM294.955 264.055C294.682 264.009 294.385 263.986 294.066 263.986C292.882 263.986 292.077 264.491 291.654 265.5V273H289.848V262.434H291.605L291.635 263.654C292.227 262.71 293.067 262.238 294.154 262.238C294.506 262.238 294.773 262.284 294.955 262.375V264.055ZM298.588 273H296.781V262.434H298.588V273ZM296.635 259.631C296.635 259.338 296.723 259.09 296.898 258.889C297.081 258.687 297.348 258.586 297.699 258.586C298.051 258.586 298.318 258.687 298.5 258.889C298.682 259.09 298.773 259.338 298.773 259.631C298.773 259.924 298.682 260.168 298.5 260.363C298.318 260.559 298.051 260.656 297.699 260.656C297.348 260.656 297.081 260.559 296.898 260.363C296.723 260.168 296.635 259.924 296.635 259.631ZM308.012 273C307.908 272.792 307.823 272.421 307.758 271.887C306.918 272.759 305.915 273.195 304.75 273.195C303.708 273.195 302.852 272.902 302.182 272.316C301.518 271.724 301.186 270.975 301.186 270.07C301.186 268.97 301.602 268.117 302.436 267.512C303.275 266.9 304.454 266.594 305.971 266.594H307.729V265.764C307.729 265.132 307.54 264.631 307.162 264.26C306.785 263.882 306.228 263.693 305.492 263.693C304.848 263.693 304.307 263.856 303.871 264.182C303.435 264.507 303.217 264.901 303.217 265.363H301.4C301.4 264.836 301.586 264.328 301.957 263.84C302.335 263.345 302.842 262.954 303.48 262.668C304.125 262.382 304.831 262.238 305.6 262.238C306.817 262.238 307.771 262.544 308.461 263.156C309.151 263.762 309.509 264.598 309.535 265.666V270.529C309.535 271.499 309.659 272.271 309.906 272.844V273H308.012ZM305.014 271.623C305.58 271.623 306.117 271.477 306.625 271.184C307.133 270.891 307.501 270.51 307.729 270.041V267.873H306.312C304.099 267.873 302.992 268.521 302.992 269.816C302.992 270.383 303.181 270.826 303.559 271.145C303.936 271.464 304.421 271.623 305.014 271.623ZM314.33 273H312.523V258H314.33V273ZM323.334 268.996H320.756L319.975 273H318.578L319.359 268.996H317.025V267.658H319.613L320.287 264.201H317.768V262.844H320.551L321.352 258.781H322.748L321.947 262.844H324.525L325.326 258.781H326.732L325.932 262.844H327.924V264.201H325.668L324.994 267.658H327.191V268.996H324.74L323.959 273H322.553L323.334 268.996ZM321.01 267.658H323.588L324.262 264.201H321.684L321.01 267.658ZM329.496 272.053C329.496 271.74 329.587 271.48 329.77 271.271C329.958 271.063 330.238 270.959 330.609 270.959C330.98 270.959 331.26 271.063 331.449 271.271C331.645 271.48 331.742 271.74 331.742 272.053C331.742 272.352 331.645 272.603 331.449 272.805C331.26 273.007 330.98 273.107 330.609 273.107C330.238 273.107 329.958 273.007 329.77 272.805C329.587 272.603 329.496 272.352 329.496 272.053ZM329.506 263.43C329.506 263.117 329.597 262.857 329.779 262.648C329.968 262.44 330.248 262.336 330.619 262.336C330.99 262.336 331.27 262.44 331.459 262.648C331.654 262.857 331.752 263.117 331.752 263.43C331.752 263.729 331.654 263.98 331.459 264.182C331.27 264.383 330.99 264.484 330.619 264.484C330.248 264.484 329.968 264.383 329.779 264.182C329.597 263.98 329.506 263.729 329.506 263.43ZM348.09 266.936C348.09 269.051 347.729 270.624 347.006 271.652C346.283 272.681 345.154 273.195 343.617 273.195C342.1 273.195 340.977 272.694 340.248 271.691C339.519 270.682 339.141 269.178 339.115 267.18V264.768C339.115 262.678 339.477 261.125 340.199 260.109C340.922 259.094 342.055 258.586 343.598 258.586C345.128 258.586 346.254 259.077 346.977 260.061C347.699 261.037 348.07 262.548 348.09 264.592V266.936ZM346.283 264.465C346.283 262.935 346.068 261.822 345.639 261.125C345.209 260.422 344.529 260.07 343.598 260.07C342.673 260.07 341.999 260.419 341.576 261.115C341.153 261.812 340.935 262.883 340.922 264.328V267.219C340.922 268.755 341.143 269.891 341.586 270.627C342.035 271.356 342.712 271.721 343.617 271.721C344.509 271.721 345.17 271.376 345.6 270.686C346.036 269.995 346.264 268.908 346.283 267.424V264.465ZM358.031 268.225H360.004V269.699H358.031V273H356.215V269.699H349.74V268.635L356.107 258.781H358.031V268.225ZM351.791 268.225H356.215V261.252L356 261.643L351.791 268.225ZM370.258 262.492C370.258 263.202 370.069 263.833 369.691 264.387C369.32 264.94 368.816 265.373 368.178 265.686C368.92 266.005 369.506 266.47 369.936 267.082C370.372 267.694 370.59 268.387 370.59 269.162C370.59 270.393 370.173 271.372 369.34 272.102C368.513 272.831 367.423 273.195 366.068 273.195C364.701 273.195 363.604 272.831 362.777 272.102C361.957 271.366 361.547 270.386 361.547 269.162C361.547 268.394 361.755 267.701 362.172 267.082C362.595 266.464 363.178 265.995 363.92 265.676C363.288 265.363 362.79 264.93 362.426 264.377C362.061 263.824 361.879 263.195 361.879 262.492C361.879 261.294 362.263 260.344 363.031 259.641C363.799 258.938 364.812 258.586 366.068 258.586C367.318 258.586 368.327 258.938 369.096 259.641C369.87 260.344 370.258 261.294 370.258 262.492ZM368.783 269.123C368.783 268.329 368.529 267.681 368.021 267.18C367.52 266.678 366.863 266.428 366.049 266.428C365.235 266.428 364.581 266.675 364.086 267.17C363.598 267.665 363.354 268.316 363.354 269.123C363.354 269.93 363.591 270.565 364.066 271.027C364.548 271.49 365.215 271.721 366.068 271.721C366.915 271.721 367.579 271.49 368.061 271.027C368.542 270.559 368.783 269.924 368.783 269.123ZM366.068 260.07C365.359 260.07 364.783 260.292 364.34 260.734C363.904 261.171 363.686 261.766 363.686 262.521C363.686 263.244 363.9 263.83 364.33 264.279C364.766 264.722 365.346 264.943 366.068 264.943C366.791 264.943 367.367 264.722 367.797 264.279C368.233 263.83 368.451 263.244 368.451 262.521C368.451 261.799 368.227 261.21 367.777 260.754C367.328 260.298 366.758 260.07 366.068 260.07ZM379.789 266.75C379.411 267.199 378.959 267.561 378.432 267.834C377.911 268.107 377.338 268.244 376.713 268.244C375.893 268.244 375.176 268.042 374.564 267.639C373.959 267.235 373.49 266.669 373.158 265.939C372.826 265.204 372.66 264.393 372.66 263.508C372.66 262.557 372.839 261.701 373.197 260.939C373.562 260.178 374.076 259.595 374.74 259.191C375.404 258.788 376.179 258.586 377.064 258.586C378.471 258.586 379.577 259.113 380.385 260.168C381.199 261.216 381.605 262.648 381.605 264.465V264.992C381.605 267.759 381.059 269.781 379.965 271.057C378.871 272.326 377.221 272.977 375.014 273.01H374.662V271.486H375.043C376.534 271.46 377.68 271.073 378.48 270.324C379.281 269.569 379.717 268.378 379.789 266.75ZM377.006 266.75C377.611 266.75 378.168 266.564 378.676 266.193C379.19 265.822 379.564 265.363 379.799 264.816V264.094C379.799 262.909 379.542 261.945 379.027 261.203C378.513 260.461 377.862 260.09 377.074 260.09C376.28 260.09 375.642 260.396 375.16 261.008C374.678 261.613 374.438 262.414 374.438 263.41C374.438 264.38 374.669 265.181 375.131 265.812C375.6 266.438 376.225 266.75 377.006 266.75ZM393.275 259.797L387.387 273H385.492L391.361 260.266H383.666V258.781H393.275V259.797ZM402.416 258.771V260.305H402.084C400.678 260.331 399.558 260.747 398.725 261.555C397.891 262.362 397.41 263.498 397.279 264.963C398.028 264.104 399.05 263.674 400.346 263.674C401.583 263.674 402.569 264.11 403.305 264.982C404.047 265.855 404.418 266.981 404.418 268.361C404.418 269.826 404.018 270.998 403.217 271.877C402.423 272.756 401.355 273.195 400.014 273.195C398.653 273.195 397.549 272.674 396.703 271.633C395.857 270.585 395.434 269.237 395.434 267.59V266.896C395.434 264.279 395.99 262.281 397.104 260.9C398.223 259.514 399.887 258.804 402.094 258.771H402.416ZM400.043 265.178C399.424 265.178 398.855 265.363 398.334 265.734C397.813 266.105 397.452 266.571 397.25 267.131V267.795C397.25 268.967 397.514 269.911 398.041 270.627C398.568 271.343 399.226 271.701 400.014 271.701C400.827 271.701 401.465 271.402 401.928 270.803C402.396 270.204 402.631 269.419 402.631 268.449C402.631 267.473 402.393 266.685 401.918 266.086C401.449 265.48 400.824 265.178 400.043 265.178ZM415.736 259.797L409.848 273H407.953L413.822 260.266H406.127V258.781H415.736V259.797ZM424.711 266.75C424.333 267.199 423.881 267.561 423.354 267.834C422.833 268.107 422.26 268.244 421.635 268.244C420.814 268.244 420.098 268.042 419.486 267.639C418.881 267.235 418.412 266.669 418.08 265.939C417.748 265.204 417.582 264.393 417.582 263.508C417.582 262.557 417.761 261.701 418.119 260.939C418.484 260.178 418.998 259.595 419.662 259.191C420.326 258.788 421.101 258.586 421.986 258.586C423.393 258.586 424.499 259.113 425.307 260.168C426.12 261.216 426.527 262.648 426.527 264.465V264.992C426.527 267.759 425.98 269.781 424.887 271.057C423.793 272.326 422.143 272.977 419.936 273.01H419.584V271.486H419.965C421.456 271.46 422.602 271.073 423.402 270.324C424.203 269.569 424.639 268.378 424.711 266.75ZM421.928 266.75C422.533 266.75 423.09 266.564 423.598 266.193C424.112 265.822 424.486 265.363 424.721 264.816V264.094C424.721 262.909 424.464 261.945 423.949 261.203C423.435 260.461 422.784 260.09 421.996 260.09C421.202 260.09 420.564 260.396 420.082 261.008C419.6 261.613 419.359 262.414 419.359 263.41C419.359 264.38 419.59 265.181 420.053 265.812C420.521 266.438 421.146 266.75 421.928 266.75Z" fill="black"/>
<path d="M478.898 268.939C478.74 270.293 478.239 271.339 477.396 272.077C476.558 272.81 475.441 273.176 474.047 273.176C472.535 273.176 471.322 272.634 470.408 271.55C469.5 270.466 469.046 269.016 469.046 267.199V265.969C469.046 264.779 469.257 263.733 469.679 262.831C470.106 261.929 470.71 261.237 471.489 260.757C472.269 260.271 473.171 260.027 474.196 260.027C475.556 260.027 476.646 260.408 477.466 261.17C478.286 261.926 478.764 262.975 478.898 264.316H477.202C477.056 263.297 476.736 262.559 476.244 262.102C475.758 261.645 475.075 261.416 474.196 261.416C473.118 261.416 472.271 261.814 471.656 262.611C471.047 263.408 470.742 264.542 470.742 266.013V267.252C470.742 268.641 471.032 269.745 471.612 270.565C472.192 271.386 473.004 271.796 474.047 271.796C474.984 271.796 475.702 271.585 476.2 271.163C476.704 270.735 477.038 269.994 477.202 268.939H478.898ZM480.524 268.157C480.524 267.226 480.706 266.388 481.069 265.644C481.438 264.899 481.948 264.325 482.599 263.921C483.255 263.517 484.002 263.314 484.84 263.314C486.135 263.314 487.181 263.763 487.978 264.659C488.78 265.556 489.182 266.748 489.182 268.236V268.351C489.182 269.276 489.003 270.108 488.646 270.847C488.294 271.579 487.787 272.15 487.125 272.561C486.469 272.971 485.713 273.176 484.857 273.176C483.568 273.176 482.522 272.728 481.72 271.831C480.923 270.935 480.524 269.748 480.524 268.271V268.157ZM482.159 268.351C482.159 269.405 482.402 270.252 482.889 270.891C483.381 271.529 484.037 271.849 484.857 271.849C485.684 271.849 486.34 271.526 486.826 270.882C487.312 270.231 487.556 269.323 487.556 268.157C487.556 267.114 487.307 266.271 486.809 265.626C486.316 264.976 485.66 264.65 484.84 264.65C484.037 264.65 483.39 264.97 482.897 265.608C482.405 266.247 482.159 267.161 482.159 268.351ZM497.092 272.06C496.459 272.804 495.53 273.176 494.306 273.176C493.292 273.176 492.519 272.883 491.985 272.297C491.458 271.705 491.191 270.832 491.186 269.678V263.49H492.812V269.634C492.812 271.075 493.397 271.796 494.569 271.796C495.812 271.796 496.638 271.333 497.048 270.407V263.49H498.674V273H497.127L497.092 272.06ZM502.69 263.49L502.743 264.686C503.47 263.771 504.419 263.314 505.591 263.314C507.601 263.314 508.614 264.448 508.632 266.716V273H507.006V266.707C507 266.021 506.842 265.515 506.531 265.187C506.227 264.858 505.749 264.694 505.099 264.694C504.571 264.694 504.108 264.835 503.71 265.116C503.312 265.397 503.001 265.767 502.778 266.224V273H501.152V263.49H502.69ZM513.29 261.188V263.49H515.065V264.747H513.29V270.645C513.29 271.025 513.369 271.312 513.527 271.506C513.686 271.693 513.955 271.787 514.336 271.787C514.523 271.787 514.781 271.752 515.109 271.682V273C514.682 273.117 514.266 273.176 513.861 273.176C513.135 273.176 512.587 272.956 512.218 272.517C511.849 272.077 511.664 271.453 511.664 270.645V264.747H509.933V263.49H511.664V261.188H513.29ZM521.569 264.949C521.323 264.908 521.057 264.888 520.77 264.888C519.703 264.888 518.979 265.342 518.599 266.25V273H516.973V263.49H518.555L518.581 264.589C519.114 263.739 519.87 263.314 520.849 263.314C521.165 263.314 521.405 263.355 521.569 263.438V264.949ZM526.342 270.618L528.557 263.49H530.297L526.474 274.468C525.882 276.05 524.941 276.841 523.652 276.841L523.345 276.814L522.738 276.7V275.382L523.178 275.417C523.729 275.417 524.156 275.306 524.461 275.083C524.771 274.86 525.026 274.453 525.226 273.861L525.586 272.895L522.193 263.49H523.969L526.342 270.618ZM531.703 272.147C531.703 271.866 531.785 271.632 531.949 271.444C532.119 271.257 532.371 271.163 532.705 271.163C533.039 271.163 533.291 271.257 533.461 271.444C533.637 271.632 533.725 271.866 533.725 272.147C533.725 272.417 533.637 272.643 533.461 272.824C533.291 273.006 533.039 273.097 532.705 273.097C532.371 273.097 532.119 273.006 531.949 272.824C531.785 272.643 531.703 272.417 531.703 272.147ZM531.712 264.387C531.712 264.105 531.794 263.871 531.958 263.684C532.128 263.496 532.38 263.402 532.714 263.402C533.048 263.402 533.3 263.496 533.47 263.684C533.646 263.871 533.733 264.105 533.733 264.387C533.733 264.656 533.646 264.882 533.47 265.063C533.3 265.245 533.048 265.336 532.714 265.336C532.38 265.336 532.128 265.245 531.958 265.063C531.794 264.882 531.712 264.656 531.712 264.387ZM549.844 260.203V268.904C549.838 270.111 549.457 271.099 548.701 271.866C547.951 272.634 546.932 273.064 545.643 273.158L545.194 273.176C543.794 273.176 542.678 272.798 541.846 272.042C541.014 271.286 540.592 270.246 540.58 268.922V260.203H542.25V268.869C542.25 269.795 542.505 270.516 543.015 271.031C543.524 271.541 544.251 271.796 545.194 271.796C546.149 271.796 546.879 271.541 547.383 271.031C547.893 270.521 548.147 269.804 548.147 268.878V260.203H549.844ZM556.277 267.296C554.83 266.88 553.775 266.37 553.113 265.767C552.457 265.157 552.129 264.407 552.129 263.517C552.129 262.509 552.53 261.677 553.333 261.021C554.142 260.358 555.19 260.027 556.479 260.027C557.358 260.027 558.141 260.197 558.826 260.537C559.518 260.877 560.051 261.346 560.426 261.943C560.807 262.541 560.997 263.194 560.997 263.903H559.301C559.301 263.13 559.055 262.523 558.562 262.084C558.07 261.639 557.376 261.416 556.479 261.416C555.647 261.416 554.997 261.601 554.528 261.97C554.065 262.333 553.834 262.84 553.834 263.49C553.834 264.012 554.054 264.454 554.493 264.817C554.938 265.175 555.691 265.503 556.752 265.802C557.818 266.101 558.65 266.432 559.248 266.795C559.852 267.152 560.297 267.571 560.584 268.052C560.877 268.532 561.023 269.098 561.023 269.748C561.023 270.785 560.619 271.617 559.811 272.244C559.002 272.865 557.921 273.176 556.567 273.176C555.688 273.176 554.868 273.009 554.106 272.675C553.345 272.335 552.756 271.872 552.34 271.286C551.93 270.7 551.725 270.035 551.725 269.291H553.421C553.421 270.064 553.705 270.677 554.273 271.128C554.848 271.573 555.612 271.796 556.567 271.796C557.458 271.796 558.141 271.614 558.615 271.251C559.09 270.888 559.327 270.393 559.327 269.766C559.327 269.139 559.107 268.655 558.668 268.315C558.229 267.97 557.432 267.63 556.277 267.296Z" fill="black"/>
<path d="M605.173 267.99V273H603.485V260.203H608.205C609.605 260.203 610.701 260.561 611.492 261.275C612.289 261.99 612.688 262.937 612.688 264.114C612.688 265.356 612.298 266.314 611.519 266.988C610.745 267.656 609.635 267.99 608.188 267.99H605.173ZM605.173 266.61H608.205C609.107 266.61 609.799 266.399 610.279 265.978C610.76 265.55 611 264.935 611 264.132C611 263.37 610.76 262.761 610.279 262.304C609.799 261.847 609.14 261.609 608.302 261.592H605.173V266.61ZM619.183 264.949C618.937 264.908 618.67 264.888 618.383 264.888C617.316 264.888 616.593 265.342 616.212 266.25V273H614.586V263.49H616.168L616.194 264.589C616.728 263.739 617.483 263.314 618.462 263.314C618.778 263.314 619.019 263.355 619.183 263.438V264.949ZM620.079 268.157C620.079 267.226 620.261 266.388 620.624 265.644C620.993 264.899 621.503 264.325 622.153 263.921C622.81 263.517 623.557 263.314 624.395 263.314C625.689 263.314 626.735 263.763 627.532 264.659C628.335 265.556 628.736 266.748 628.736 268.236V268.351C628.736 269.276 628.558 270.108 628.2 270.847C627.849 271.579 627.342 272.15 626.68 272.561C626.023 272.971 625.268 273.176 624.412 273.176C623.123 273.176 622.077 272.728 621.274 271.831C620.478 270.935 620.079 269.748 620.079 268.271V268.157ZM621.714 268.351C621.714 269.405 621.957 270.252 622.443 270.891C622.936 271.529 623.592 271.849 624.412 271.849C625.238 271.849 625.895 271.526 626.381 270.882C626.867 270.231 627.11 269.323 627.11 268.157C627.11 267.114 626.861 266.271 626.363 265.626C625.871 264.976 625.215 264.65 624.395 264.65C623.592 264.65 622.944 264.97 622.452 265.608C621.96 266.247 621.714 267.161 621.714 268.351ZM630.389 268.166C630.389 266.684 630.731 265.506 631.417 264.633C632.103 263.754 633.011 263.314 634.142 263.314C635.302 263.314 636.207 263.725 636.857 264.545L636.937 263.49H638.422V272.771C638.422 274.002 638.056 274.972 637.323 275.681C636.597 276.39 635.618 276.744 634.388 276.744C633.702 276.744 633.031 276.598 632.375 276.305C631.719 276.012 631.218 275.61 630.872 275.101L631.716 274.125C632.413 274.986 633.266 275.417 634.273 275.417C635.064 275.417 635.68 275.194 636.119 274.749C636.564 274.304 636.787 273.677 636.787 272.868V272.051C636.137 272.801 635.249 273.176 634.124 273.176C633.011 273.176 632.108 272.728 631.417 271.831C630.731 270.935 630.389 269.713 630.389 268.166ZM632.023 268.351C632.023 269.423 632.243 270.267 632.683 270.882C633.122 271.491 633.737 271.796 634.528 271.796C635.554 271.796 636.307 271.33 636.787 270.398V266.057C636.289 265.148 635.542 264.694 634.546 264.694C633.755 264.694 633.137 265.002 632.691 265.617C632.246 266.232 632.023 267.144 632.023 268.351ZM645.479 264.949C645.233 264.908 644.967 264.888 644.68 264.888C643.613 264.888 642.89 265.342 642.509 266.25V273H640.883V263.49H642.465L642.491 264.589C643.024 263.739 643.78 263.314 644.759 263.314C645.075 263.314 645.315 263.355 645.479 263.438V264.949ZM650.753 273.176C649.464 273.176 648.415 272.754 647.606 271.91C646.798 271.061 646.394 269.927 646.394 268.509V268.21C646.394 267.267 646.572 266.426 646.93 265.688C647.293 264.943 647.797 264.363 648.441 263.947C649.092 263.525 649.795 263.314 650.551 263.314C651.787 263.314 652.748 263.722 653.434 264.536C654.119 265.351 654.462 266.517 654.462 268.034V268.711H648.02C648.043 269.648 648.315 270.407 648.837 270.987C649.364 271.562 650.032 271.849 650.841 271.849C651.415 271.849 651.901 271.731 652.3 271.497C652.698 271.263 653.047 270.952 653.346 270.565L654.339 271.339C653.542 272.563 652.347 273.176 650.753 273.176ZM650.551 264.65C649.895 264.65 649.344 264.891 648.898 265.371C648.453 265.846 648.178 266.514 648.072 267.375H652.836V267.252C652.789 266.426 652.566 265.787 652.168 265.336C651.77 264.879 651.23 264.65 650.551 264.65ZM661.889 270.478C661.889 270.038 661.722 269.698 661.388 269.458C661.06 269.212 660.482 269.001 659.656 268.825C658.836 268.649 658.183 268.438 657.696 268.192C657.216 267.946 656.858 267.653 656.624 267.313C656.396 266.974 656.281 266.569 656.281 266.101C656.281 265.321 656.609 264.662 657.266 264.123C657.928 263.584 658.771 263.314 659.797 263.314C660.875 263.314 661.748 263.593 662.416 264.149C663.09 264.706 663.427 265.418 663.427 266.285H661.792C661.792 265.84 661.602 265.456 661.221 265.134C660.846 264.812 660.371 264.65 659.797 264.65C659.205 264.65 658.742 264.779 658.408 265.037C658.074 265.295 657.907 265.632 657.907 266.048C657.907 266.44 658.062 266.736 658.373 266.936C658.684 267.135 659.243 267.325 660.052 267.507C660.866 267.688 661.525 267.905 662.029 268.157C662.533 268.409 662.905 268.714 663.146 269.071C663.392 269.423 663.515 269.854 663.515 270.363C663.515 271.213 663.175 271.896 662.495 272.411C661.815 272.921 660.934 273.176 659.85 273.176C659.088 273.176 658.414 273.041 657.828 272.771C657.242 272.502 656.782 272.127 656.448 271.646C656.12 271.16 655.956 270.636 655.956 270.073H657.582C657.611 270.618 657.828 271.052 658.232 271.374C658.643 271.69 659.182 271.849 659.85 271.849C660.465 271.849 660.957 271.726 661.326 271.479C661.701 271.228 661.889 270.894 661.889 270.478ZM671.17 270.478C671.17 270.038 671.003 269.698 670.669 269.458C670.341 269.212 669.764 269.001 668.938 268.825C668.117 268.649 667.464 268.438 666.978 268.192C666.497 267.946 666.14 267.653 665.905 267.313C665.677 266.974 665.562 266.569 665.562 266.101C665.562 265.321 665.891 264.662 666.547 264.123C667.209 263.584 668.053 263.314 669.078 263.314C670.156 263.314 671.029 263.593 671.697 264.149C672.371 264.706 672.708 265.418 672.708 266.285H671.073C671.073 265.84 670.883 265.456 670.502 265.134C670.127 264.812 669.652 264.65 669.078 264.65C668.486 264.65 668.023 264.779 667.689 265.037C667.355 265.295 667.188 265.632 667.188 266.048C667.188 266.44 667.344 266.736 667.654 266.936C667.965 267.135 668.524 267.325 669.333 267.507C670.147 267.688 670.807 267.905 671.311 268.157C671.814 268.409 672.187 268.714 672.427 269.071C672.673 269.423 672.796 269.854 672.796 270.363C672.796 271.213 672.456 271.896 671.776 272.411C671.097 272.921 670.215 273.176 669.131 273.176C668.369 273.176 667.695 273.041 667.109 272.771C666.523 272.502 666.063 272.127 665.729 271.646C665.401 271.16 665.237 270.636 665.237 270.073H666.863C666.893 270.618 667.109 271.052 667.514 271.374C667.924 271.69 668.463 271.849 669.131 271.849C669.746 271.849 670.238 271.726 670.607 271.479C670.982 271.228 671.17 270.894 671.17 270.478ZM674.861 272.147C674.861 271.866 674.943 271.632 675.107 271.444C675.277 271.257 675.529 271.163 675.863 271.163C676.197 271.163 676.449 271.257 676.619 271.444C676.795 271.632 676.883 271.866 676.883 272.147C676.883 272.417 676.795 272.643 676.619 272.824C676.449 273.006 676.197 273.097 675.863 273.097C675.529 273.097 675.277 273.006 675.107 272.824C674.943 272.643 674.861 272.417 674.861 272.147ZM674.87 264.387C674.87 264.105 674.952 263.871 675.116 263.684C675.286 263.496 675.538 263.402 675.872 263.402C676.206 263.402 676.458 263.496 676.628 263.684C676.804 263.871 676.892 264.105 676.892 264.387C676.892 264.656 676.804 264.882 676.628 265.063C676.458 265.245 676.206 265.336 675.872 265.336C675.538 265.336 675.286 265.245 675.116 265.063C674.952 264.882 674.87 264.656 674.87 264.387ZM685.681 267.99V273H683.993V260.203H688.713C690.113 260.203 691.209 260.561 692 261.275C692.797 261.99 693.195 262.937 693.195 264.114C693.195 265.356 692.806 266.314 692.026 266.988C691.253 267.656 690.143 267.99 688.695 267.99H685.681ZM685.681 266.61H688.713C689.615 266.61 690.307 266.399 690.787 265.978C691.268 265.55 691.508 264.935 691.508 264.132C691.508 263.37 691.268 262.761 690.787 262.304C690.307 261.847 689.647 261.609 688.81 261.592H685.681V266.61ZM698.917 273.176C697.628 273.176 696.579 272.754 695.771 271.91C694.962 271.061 694.558 269.927 694.558 268.509V268.21C694.558 267.267 694.736 266.426 695.094 265.688C695.457 264.943 695.961 264.363 696.605 263.947C697.256 263.525 697.959 263.314 698.715 263.314C699.951 263.314 700.912 263.722 701.598 264.536C702.283 265.351 702.626 266.517 702.626 268.034V268.711H696.184C696.207 269.648 696.479 270.407 697.001 270.987C697.528 271.562 698.196 271.849 699.005 271.849C699.579 271.849 700.065 271.731 700.464 271.497C700.862 271.263 701.211 270.952 701.51 270.565L702.503 271.339C701.706 272.563 700.511 273.176 698.917 273.176ZM698.715 264.65C698.059 264.65 697.508 264.891 697.062 265.371C696.617 265.846 696.342 266.514 696.236 267.375H701V267.252C700.953 266.426 700.73 265.787 700.332 265.336C699.934 264.879 699.395 264.65 698.715 264.65ZM706.054 263.49L706.106 264.686C706.833 263.771 707.782 263.314 708.954 263.314C710.964 263.314 711.978 264.448 711.995 266.716V273H710.369V266.707C710.363 266.021 710.205 265.515 709.895 265.187C709.59 264.858 709.112 264.694 708.462 264.694C707.935 264.694 707.472 264.835 707.073 265.116C706.675 265.397 706.364 265.767 706.142 266.224V273H704.516V263.49H706.054ZM714.052 268.166C714.052 266.707 714.397 265.535 715.089 264.65C715.78 263.76 716.686 263.314 717.805 263.314C718.918 263.314 719.8 263.695 720.45 264.457V259.5H722.076V273H720.582L720.503 271.98C719.853 272.777 718.947 273.176 717.787 273.176C716.686 273.176 715.786 272.725 715.089 271.822C714.397 270.92 714.052 269.742 714.052 268.289V268.166ZM715.678 268.351C715.678 269.429 715.9 270.272 716.346 270.882C716.791 271.491 717.406 271.796 718.191 271.796C719.223 271.796 719.976 271.333 720.45 270.407V266.039C719.964 265.143 719.217 264.694 718.209 264.694C717.412 264.694 716.791 265.002 716.346 265.617C715.9 266.232 715.678 267.144 715.678 268.351ZM726.374 273H724.748V263.49H726.374V273ZM724.616 260.968C724.616 260.704 724.695 260.481 724.854 260.3C725.018 260.118 725.258 260.027 725.574 260.027C725.891 260.027 726.131 260.118 726.295 260.3C726.459 260.481 726.541 260.704 726.541 260.968C726.541 261.231 726.459 261.451 726.295 261.627C726.131 261.803 725.891 261.891 725.574 261.891C725.258 261.891 725.018 261.803 724.854 261.627C724.695 261.451 724.616 261.231 724.616 260.968ZM730.522 263.49L730.575 264.686C731.302 263.771 732.251 263.314 733.423 263.314C735.433 263.314 736.446 264.448 736.464 266.716V273H734.838V266.707C734.832 266.021 734.674 265.515 734.363 265.187C734.059 264.858 733.581 264.694 732.931 264.694C732.403 264.694 731.94 264.835 731.542 265.116C731.144 265.397 730.833 265.767 730.61 266.224V273H728.984V263.49H730.522ZM738.529 268.166C738.529 266.684 738.872 265.506 739.558 264.633C740.243 263.754 741.151 263.314 742.282 263.314C743.442 263.314 744.348 263.725 744.998 264.545L745.077 263.49H746.562V272.771C746.562 274.002 746.196 274.972 745.464 275.681C744.737 276.39 743.759 276.744 742.528 276.744C741.843 276.744 741.172 276.598 740.516 276.305C739.859 276.012 739.358 275.61 739.013 275.101L739.856 274.125C740.554 274.986 741.406 275.417 742.414 275.417C743.205 275.417 743.82 275.194 744.26 274.749C744.705 274.304 744.928 273.677 744.928 272.868V272.051C744.277 272.801 743.39 273.176 742.265 273.176C741.151 273.176 740.249 272.728 739.558 271.831C738.872 270.935 738.529 269.713 738.529 268.166ZM740.164 268.351C740.164 269.423 740.384 270.267 740.823 270.882C741.263 271.491 741.878 271.796 742.669 271.796C743.694 271.796 744.447 271.33 744.928 270.398V266.057C744.43 265.148 743.683 264.694 742.687 264.694C741.896 264.694 741.277 265.002 740.832 265.617C740.387 266.232 740.164 267.144 740.164 268.351Z" fill="black"/>
<rect x="82" y="313" width="412.33" height="631" fill="#F3F3F3"/>
<rect x="946" y="313" width="412.33" height="631" fill="#F3F3F3"/>
<rect x="514" y="313" width="412.33" height="631" fill="#F3F3F3"/>
<path d="M114.725 346H112.254L105.916 335.912V346H103.445V331.781H105.916L112.273 341.908V331.781H114.725V346ZM116.971 340.619C116.971 339.584 117.176 338.653 117.586 337.826C117.996 336.993 118.572 336.355 119.314 335.912C120.057 335.463 120.91 335.238 121.873 335.238C123.299 335.238 124.454 335.697 125.34 336.615C126.232 337.533 126.714 338.751 126.785 340.268L126.795 340.824C126.795 341.866 126.593 342.797 126.189 343.617C125.792 344.438 125.219 345.072 124.471 345.521C123.729 345.971 122.869 346.195 121.893 346.195C120.402 346.195 119.207 345.701 118.309 344.711C117.417 343.715 116.971 342.39 116.971 340.736V340.619ZM119.344 340.824C119.344 341.911 119.568 342.764 120.018 343.383C120.467 343.995 121.092 344.301 121.893 344.301C122.693 344.301 123.315 343.988 123.758 343.363C124.207 342.738 124.432 341.824 124.432 340.619C124.432 339.551 124.201 338.705 123.738 338.08C123.283 337.455 122.661 337.143 121.873 337.143C121.098 337.143 120.483 337.452 120.027 338.07C119.572 338.682 119.344 339.6 119.344 340.824ZM131.775 332.865V335.434H133.641V337.191H131.775V343.09C131.775 343.493 131.854 343.786 132.01 343.969C132.173 344.145 132.459 344.232 132.869 344.232C133.143 344.232 133.419 344.2 133.699 344.135V345.971C133.159 346.12 132.638 346.195 132.137 346.195C130.314 346.195 129.402 345.189 129.402 343.178V337.191H127.664V335.434H129.402V332.865H131.775ZM140.115 346.195C138.611 346.195 137.391 345.723 136.453 344.779C135.522 343.829 135.057 342.566 135.057 340.99V340.697C135.057 339.643 135.258 338.702 135.662 337.875C136.072 337.042 136.645 336.394 137.381 335.932C138.117 335.469 138.937 335.238 139.842 335.238C141.281 335.238 142.391 335.697 143.172 336.615C143.96 337.533 144.354 338.832 144.354 340.512V341.469H137.449C137.521 342.341 137.811 343.031 138.318 343.539C138.833 344.047 139.477 344.301 140.252 344.301C141.339 344.301 142.225 343.861 142.908 342.982L144.188 344.203C143.764 344.835 143.198 345.326 142.488 345.678C141.785 346.023 140.994 346.195 140.115 346.195ZM139.832 337.143C139.181 337.143 138.654 337.37 138.25 337.826C137.853 338.282 137.599 338.917 137.488 339.73H142.01V339.555C141.958 338.76 141.746 338.161 141.375 337.758C141.004 337.348 140.49 337.143 139.832 337.143ZM152.127 343.129C152.127 342.706 151.951 342.383 151.6 342.162C151.255 341.941 150.678 341.745 149.871 341.576C149.064 341.407 148.39 341.192 147.85 340.932C146.665 340.359 146.072 339.529 146.072 338.441C146.072 337.53 146.456 336.768 147.225 336.156C147.993 335.544 148.969 335.238 150.154 335.238C151.417 335.238 152.436 335.551 153.211 336.176C153.992 336.801 154.383 337.611 154.383 338.607H152.01C152.01 338.152 151.84 337.774 151.502 337.475C151.163 337.169 150.714 337.016 150.154 337.016C149.633 337.016 149.207 337.136 148.875 337.377C148.549 337.618 148.387 337.94 148.387 338.344C148.387 338.708 148.54 338.992 148.846 339.193C149.152 339.395 149.77 339.6 150.701 339.809C151.632 340.01 152.361 340.255 152.889 340.541C153.423 340.821 153.816 341.16 154.07 341.557C154.331 341.954 154.461 342.436 154.461 343.002C154.461 343.952 154.067 344.724 153.279 345.316C152.492 345.902 151.46 346.195 150.184 346.195C149.318 346.195 148.546 346.039 147.869 345.727C147.192 345.414 146.665 344.984 146.287 344.438C145.91 343.891 145.721 343.301 145.721 342.67H148.025C148.058 343.23 148.27 343.663 148.66 343.969C149.051 344.268 149.568 344.418 150.213 344.418C150.838 344.418 151.313 344.301 151.639 344.066C151.964 343.826 152.127 343.513 152.127 343.129ZM157.967 343.5C158.41 343.5 158.751 343.627 158.992 343.881C159.233 344.128 159.354 344.441 159.354 344.818C159.354 345.189 159.233 345.499 158.992 345.746C158.751 345.987 158.41 346.107 157.967 346.107C157.544 346.107 157.208 345.987 156.961 345.746C156.714 345.505 156.59 345.196 156.59 344.818C156.59 344.441 156.71 344.128 156.951 343.881C157.192 343.627 157.531 343.5 157.967 343.5ZM157.967 335.209C158.41 335.209 158.751 335.336 158.992 335.59C159.233 335.837 159.354 336.15 159.354 336.527C159.354 336.898 159.233 337.208 158.992 337.455C158.751 337.696 158.41 337.816 157.967 337.816C157.544 337.816 157.208 337.696 156.961 337.455C156.714 337.214 156.59 336.905 156.59 336.527C156.59 336.15 156.71 335.837 156.951 335.59C157.192 335.336 157.531 335.209 157.967 335.209Z" fill="black"/>
<path d="M535.445 346V331.781H539.645C540.901 331.781 542.014 332.061 542.984 332.621C543.961 333.181 544.716 333.975 545.25 335.004C545.784 336.033 546.051 337.211 546.051 338.539V339.252C546.051 340.6 545.781 341.785 545.24 342.807C544.706 343.829 543.941 344.617 542.945 345.17C541.956 345.723 540.82 346 539.537 346H535.445ZM537.916 333.773V344.027H539.527C540.823 344.027 541.816 343.624 542.506 342.816C543.202 342.003 543.557 340.837 543.57 339.32V338.529C543.57 336.986 543.235 335.808 542.564 334.994C541.894 334.18 540.921 333.773 539.645 333.773H537.916ZM547.838 340.619C547.838 339.584 548.043 338.653 548.453 337.826C548.863 336.993 549.439 336.355 550.182 335.912C550.924 335.463 551.777 335.238 552.74 335.238C554.166 335.238 555.322 335.697 556.207 336.615C557.099 337.533 557.581 338.751 557.652 340.268L557.662 340.824C557.662 341.866 557.46 342.797 557.057 343.617C556.66 344.438 556.087 345.072 555.338 345.521C554.596 345.971 553.736 346.195 552.76 346.195C551.269 346.195 550.074 345.701 549.176 344.711C548.284 343.715 547.838 342.39 547.838 340.736V340.619ZM550.211 340.824C550.211 341.911 550.436 342.764 550.885 343.383C551.334 343.995 551.959 344.301 552.76 344.301C553.561 344.301 554.182 343.988 554.625 343.363C555.074 342.738 555.299 341.824 555.299 340.619C555.299 339.551 555.068 338.705 554.605 338.08C554.15 337.455 553.528 337.143 552.74 337.143C551.965 337.143 551.35 337.452 550.895 338.07C550.439 338.682 550.211 339.6 550.211 340.824ZM564.01 344.301C564.602 344.301 565.094 344.128 565.484 343.783C565.875 343.438 566.083 343.012 566.109 342.504H568.346C568.32 343.161 568.115 343.777 567.73 344.35C567.346 344.916 566.826 345.365 566.168 345.697C565.51 346.029 564.801 346.195 564.039 346.195C562.561 346.195 561.389 345.717 560.523 344.76C559.658 343.803 559.225 342.481 559.225 340.795V340.551C559.225 338.943 559.654 337.657 560.514 336.693C561.373 335.723 562.545 335.238 564.029 335.238C565.286 335.238 566.308 335.606 567.096 336.342C567.89 337.071 568.307 338.031 568.346 339.223H566.109C566.083 338.617 565.875 338.119 565.484 337.729C565.1 337.338 564.609 337.143 564.01 337.143C563.242 337.143 562.649 337.423 562.232 337.982C561.816 338.536 561.604 339.379 561.598 340.512V340.893C561.598 342.038 561.803 342.895 562.213 343.461C562.63 344.021 563.229 344.301 564.01 344.301ZM576.539 344.965C575.842 345.785 574.853 346.195 573.57 346.195C572.424 346.195 571.555 345.86 570.963 345.189C570.377 344.519 570.084 343.549 570.084 342.279V335.434H572.457V342.25C572.457 343.591 573.014 344.262 574.127 344.262C575.279 344.262 576.057 343.848 576.461 343.021V335.434H578.834V346H576.598L576.539 344.965ZM583.482 335.434L583.551 336.537C584.293 335.671 585.309 335.238 586.598 335.238C588.01 335.238 588.977 335.779 589.498 336.859C590.266 335.779 591.347 335.238 592.74 335.238C593.906 335.238 594.771 335.561 595.338 336.205C595.911 336.85 596.204 337.8 596.217 339.057V346H593.844V339.125C593.844 338.454 593.697 337.963 593.404 337.65C593.111 337.338 592.626 337.182 591.949 337.182C591.409 337.182 590.966 337.328 590.621 337.621C590.283 337.908 590.045 338.285 589.908 338.754L589.918 346H587.545V339.047C587.512 337.803 586.878 337.182 585.641 337.182C584.69 337.182 584.016 337.569 583.619 338.344V346H581.246V335.434H583.482ZM603.307 346.195C601.803 346.195 600.582 345.723 599.645 344.779C598.714 343.829 598.248 342.566 598.248 340.99V340.697C598.248 339.643 598.45 338.702 598.854 337.875C599.264 337.042 599.837 336.394 600.572 335.932C601.308 335.469 602.128 335.238 603.033 335.238C604.472 335.238 605.582 335.697 606.363 336.615C607.151 337.533 607.545 338.832 607.545 340.512V341.469H600.641C600.712 342.341 601.002 343.031 601.51 343.539C602.024 344.047 602.669 344.301 603.443 344.301C604.531 344.301 605.416 343.861 606.1 342.982L607.379 344.203C606.956 344.835 606.389 345.326 605.68 345.678C604.977 346.023 604.186 346.195 603.307 346.195ZM603.023 337.143C602.372 337.143 601.845 337.37 601.441 337.826C601.044 338.282 600.79 338.917 600.68 339.73H605.201V339.555C605.149 338.76 604.938 338.161 604.566 337.758C604.195 337.348 603.681 337.143 603.023 337.143ZM611.598 335.434L611.666 336.654C612.447 335.71 613.473 335.238 614.742 335.238C616.943 335.238 618.062 336.498 618.102 339.018V346H615.729V339.154C615.729 338.484 615.582 337.989 615.289 337.67C615.003 337.344 614.531 337.182 613.873 337.182C612.916 337.182 612.203 337.615 611.734 338.48V346H609.361V335.434H611.598ZM623.502 332.865V335.434H625.367V337.191H623.502V343.09C623.502 343.493 623.58 343.786 623.736 343.969C623.899 344.145 624.186 344.232 624.596 344.232C624.869 344.232 625.146 344.2 625.426 344.135V345.971C624.885 346.12 624.365 346.195 623.863 346.195C622.04 346.195 621.129 345.189 621.129 343.178V337.191H619.391V335.434H621.129V332.865H623.502ZM633.111 343.129C633.111 342.706 632.936 342.383 632.584 342.162C632.239 341.941 631.663 341.745 630.855 341.576C630.048 341.407 629.374 341.192 628.834 340.932C627.649 340.359 627.057 339.529 627.057 338.441C627.057 337.53 627.441 336.768 628.209 336.156C628.977 335.544 629.954 335.238 631.139 335.238C632.402 335.238 633.421 335.551 634.195 336.176C634.977 336.801 635.367 337.611 635.367 338.607H632.994C632.994 338.152 632.825 337.774 632.486 337.475C632.148 337.169 631.699 337.016 631.139 337.016C630.618 337.016 630.191 337.136 629.859 337.377C629.534 337.618 629.371 337.94 629.371 338.344C629.371 338.708 629.524 338.992 629.83 339.193C630.136 339.395 630.755 339.6 631.686 339.809C632.617 340.01 633.346 340.255 633.873 340.541C634.407 340.821 634.801 341.16 635.055 341.557C635.315 341.954 635.445 342.436 635.445 343.002C635.445 343.952 635.051 344.724 634.264 345.316C633.476 345.902 632.444 346.195 631.168 346.195C630.302 346.195 629.531 346.039 628.854 345.727C628.176 345.414 627.649 344.984 627.271 344.438C626.894 343.891 626.705 343.301 626.705 342.67H629.01C629.042 343.23 629.254 343.663 629.645 343.969C630.035 344.268 630.553 344.418 631.197 344.418C631.822 344.418 632.298 344.301 632.623 344.066C632.949 343.826 633.111 343.513 633.111 343.129ZM638.951 343.5C639.394 343.5 639.736 343.627 639.977 343.881C640.217 344.128 640.338 344.441 640.338 344.818C640.338 345.189 640.217 345.499 639.977 345.746C639.736 345.987 639.394 346.107 638.951 346.107C638.528 346.107 638.193 345.987 637.945 345.746C637.698 345.505 637.574 345.196 637.574 344.818C637.574 344.441 637.695 344.128 637.936 343.881C638.176 343.627 638.515 343.5 638.951 343.5ZM638.951 335.209C639.394 335.209 639.736 335.336 639.977 335.59C640.217 335.837 640.338 336.15 640.338 336.527C640.338 336.898 640.217 337.208 639.977 337.455C639.736 337.696 639.394 337.816 638.951 337.816C638.528 337.816 638.193 337.696 637.945 337.455C637.698 337.214 637.574 336.905 637.574 336.527C637.574 336.15 637.695 335.837 637.936 335.59C638.176 335.336 638.515 335.209 638.951 335.209Z" fill="black"/>
<path d="M977.846 331.781V341.283C977.846 342.794 977.361 343.992 976.391 344.877C975.427 345.756 974.141 346.195 972.533 346.195C970.906 346.195 969.613 345.762 968.656 344.896C967.699 344.024 967.221 342.816 967.221 341.273V331.781H969.682V341.293C969.682 342.243 969.923 342.969 970.404 343.471C970.886 343.972 971.596 344.223 972.533 344.223C974.434 344.223 975.385 343.22 975.385 341.215V331.781H977.846ZM989.516 340.824C989.516 342.458 989.145 343.764 988.402 344.74C987.66 345.71 986.664 346.195 985.414 346.195C984.255 346.195 983.327 345.814 982.631 345.053V350.062H980.258V335.434H982.445L982.543 336.508C983.24 335.661 984.187 335.238 985.385 335.238C986.674 335.238 987.683 335.72 988.412 336.684C989.148 337.641 989.516 338.972 989.516 340.678V340.824ZM987.152 340.619C987.152 339.564 986.941 338.728 986.518 338.109C986.101 337.491 985.502 337.182 984.721 337.182C983.751 337.182 983.054 337.582 982.631 338.383V343.07C983.061 343.891 983.764 344.301 984.74 344.301C985.495 344.301 986.085 343.998 986.508 343.393C986.938 342.781 987.152 341.856 987.152 340.619ZM991.088 340.639C991.088 339.011 991.465 337.706 992.221 336.723C992.976 335.733 993.988 335.238 995.258 335.238C996.378 335.238 997.283 335.629 997.973 336.41V331H1000.35V346H998.197L998.08 344.906C997.37 345.766 996.423 346.195 995.238 346.195C994.001 346.195 992.999 345.697 992.23 344.701C991.469 343.705 991.088 342.351 991.088 340.639ZM993.461 340.844C993.461 341.918 993.666 342.758 994.076 343.363C994.493 343.962 995.082 344.262 995.844 344.262C996.814 344.262 997.523 343.829 997.973 342.963V338.451C997.536 337.605 996.833 337.182 995.863 337.182C995.095 337.182 994.503 337.488 994.086 338.1C993.669 338.705 993.461 339.62 993.461 340.844ZM1009.13 346C1009.03 345.798 1008.94 345.469 1008.86 345.014C1008.11 345.801 1007.18 346.195 1006.09 346.195C1005.03 346.195 1004.16 345.893 1003.49 345.287C1002.82 344.682 1002.48 343.933 1002.48 343.041C1002.48 341.915 1002.9 341.052 1003.73 340.453C1004.57 339.848 1005.77 339.545 1007.33 339.545H1008.78V338.852C1008.78 338.305 1008.63 337.868 1008.32 337.543C1008.02 337.211 1007.55 337.045 1006.93 337.045C1006.39 337.045 1005.94 337.182 1005.6 337.455C1005.25 337.722 1005.08 338.064 1005.08 338.48H1002.71C1002.71 337.901 1002.9 337.361 1003.29 336.859C1003.67 336.352 1004.19 335.954 1004.85 335.668C1005.51 335.382 1006.25 335.238 1007.06 335.238C1008.3 335.238 1009.29 335.551 1010.02 336.176C1010.76 336.794 1011.14 337.667 1011.16 338.793V343.559C1011.16 344.509 1011.29 345.268 1011.56 345.834V346H1009.13ZM1006.53 344.291C1007 344.291 1007.44 344.177 1007.85 343.949C1008.26 343.721 1008.57 343.415 1008.78 343.031V341.039H1007.5C1006.62 341.039 1005.96 341.192 1005.52 341.498C1005.08 341.804 1004.86 342.237 1004.86 342.797C1004.86 343.253 1005.01 343.617 1005.31 343.891C1005.61 344.158 1006.02 344.291 1006.53 344.291ZM1016.62 332.865V335.434H1018.48V337.191H1016.62V343.09C1016.62 343.493 1016.69 343.786 1016.85 343.969C1017.01 344.145 1017.3 344.232 1017.71 344.232C1017.98 344.232 1018.26 344.2 1018.54 344.135V345.971C1018 346.12 1017.48 346.195 1016.98 346.195C1015.15 346.195 1014.24 345.189 1014.24 343.178V337.191H1012.5V335.434H1014.24V332.865H1016.62ZM1024.96 346.195C1023.45 346.195 1022.23 345.723 1021.29 344.779C1020.36 343.829 1019.9 342.566 1019.9 340.99V340.697C1019.9 339.643 1020.1 338.702 1020.5 337.875C1020.91 337.042 1021.49 336.394 1022.22 335.932C1022.96 335.469 1023.78 335.238 1024.68 335.238C1026.12 335.238 1027.23 335.697 1028.01 336.615C1028.8 337.533 1029.19 338.832 1029.19 340.512V341.469H1022.29C1022.36 342.341 1022.65 343.031 1023.16 343.539C1023.67 344.047 1024.32 344.301 1025.09 344.301C1026.18 344.301 1027.06 343.861 1027.75 342.982L1029.03 344.203C1028.6 344.835 1028.04 345.326 1027.33 345.678C1026.62 346.023 1025.83 346.195 1024.96 346.195ZM1024.67 337.143C1024.02 337.143 1023.49 337.37 1023.09 337.826C1022.69 338.282 1022.44 338.917 1022.33 339.73H1026.85V339.555C1026.8 338.76 1026.59 338.161 1026.21 337.758C1025.84 337.348 1025.33 337.143 1024.67 337.143ZM1036.97 343.129C1036.97 342.706 1036.79 342.383 1036.44 342.162C1036.09 341.941 1035.52 341.745 1034.71 341.576C1033.9 341.407 1033.23 341.192 1032.69 340.932C1031.5 340.359 1030.91 339.529 1030.91 338.441C1030.91 337.53 1031.3 336.768 1032.06 336.156C1032.83 335.544 1033.81 335.238 1034.99 335.238C1036.26 335.238 1037.28 335.551 1038.05 336.176C1038.83 336.801 1039.22 337.611 1039.22 338.607H1036.85C1036.85 338.152 1036.68 337.774 1036.34 337.475C1036 337.169 1035.55 337.016 1034.99 337.016C1034.47 337.016 1034.05 337.136 1033.71 337.377C1033.39 337.618 1033.23 337.94 1033.23 338.344C1033.23 338.708 1033.38 338.992 1033.69 339.193C1033.99 339.395 1034.61 339.6 1035.54 339.809C1036.47 340.01 1037.2 340.255 1037.73 340.541C1038.26 340.821 1038.66 341.16 1038.91 341.557C1039.17 341.954 1039.3 342.436 1039.3 343.002C1039.3 343.952 1038.91 344.724 1038.12 345.316C1037.33 345.902 1036.3 346.195 1035.02 346.195C1034.16 346.195 1033.39 346.039 1032.71 345.727C1032.03 345.414 1031.5 344.984 1031.13 344.438C1030.75 343.891 1030.56 343.301 1030.56 342.67H1032.87C1032.9 343.23 1033.11 343.663 1033.5 343.969C1033.89 344.268 1034.41 344.418 1035.05 344.418C1035.68 344.418 1036.15 344.301 1036.48 344.066C1036.8 343.826 1036.97 343.513 1036.97 343.129ZM1042.81 343.5C1043.25 343.5 1043.59 343.627 1043.83 343.881C1044.07 344.128 1044.19 344.441 1044.19 344.818C1044.19 345.189 1044.07 345.499 1043.83 345.746C1043.59 345.987 1043.25 346.107 1042.81 346.107C1042.38 346.107 1042.05 345.987 1041.8 345.746C1041.55 345.505 1041.43 345.196 1041.43 344.818C1041.43 344.441 1041.55 344.128 1041.79 343.881C1042.03 343.627 1042.37 343.5 1042.81 343.5ZM1042.81 335.209C1043.25 335.209 1043.59 335.336 1043.83 335.59C1044.07 335.837 1044.19 336.15 1044.19 336.527C1044.19 336.898 1044.07 337.208 1043.83 337.455C1043.59 337.696 1043.25 337.816 1042.81 337.816C1042.38 337.816 1042.05 337.696 1041.8 337.455C1041.55 337.214 1041.43 336.905 1041.43 336.527C1041.43 336.15 1041.55 335.837 1041.79 335.59C1042.03 335.336 1042.37 335.209 1042.81 335.209Z" fill="black"/>
<defs>
<filter id="filter0_d" x="40" y="150" width="1360" height="54" filterUnits="userSpaceOnUse" color-interpolation-filters="sRGB">
<feFlood flood-opacity="0" result="BackgroundImageFix"/>
<feColorMatrix in="SourceAlpha" type="matrix" values="0 0 0 0 0 0 0 0 0 0 0 0 0 0 0 0 0 0 127 0"/>
<feOffset dy="2"/>
<feGaussianBlur stdDeviation="1"/>
<feColorMatrix type="matrix" values="0 0 0 0 0 0 0 0 0 0 0 0 0 0 0 0 0 0 0.1 0"/>
<feBlend mode="normal" in2="BackgroundImageFix" result="effect1_dropShadow"/>
<feBlend mode="normal" in="SourceGraphic" in2="effect1_dropShadow" result="shape"/>
</filter>
</defs>
</svg>
