<svg width="1440" height="1024" viewBox="0 0 1440 1024" fill="none" xmlns="http://www.w3.org/2000/svg">
<rect width="1440" height="1024" fill="white"/>
<rect width="1440" height="60" fill="black"/>
<path d="M36.6475 33.8955C36.4814 36.1904 35.6318 37.9971 34.0986 39.3154C32.5752 40.6338 30.5635 41.293 28.0635 41.293C25.3291 41.293 23.1758 40.375 21.6035 38.5391C20.041 36.6934 19.2598 34.1641 19.2598 30.9512V29.6475C19.2598 27.5967 19.6211 25.79 20.3438 24.2275C21.0664 22.665 22.0967 21.4688 23.4346 20.6387C24.7822 19.7988 26.3447 19.3789 28.1221 19.3789C30.583 19.3789 32.5654 20.0381 34.0693 21.3564C35.5732 22.6748 36.4424 24.5254 36.6768 26.9082H32.2822C32.1748 25.5312 31.7891 24.5352 31.125 23.9199C30.4707 23.2949 29.4697 22.9824 28.1221 22.9824C26.6572 22.9824 25.5586 23.5098 24.8262 24.5645C24.1035 25.6094 23.7324 27.2354 23.7129 29.4424V31.0537C23.7129 33.3584 24.0596 35.043 24.7529 36.1074C25.4561 37.1719 26.5596 37.7041 28.0635 37.7041C29.4209 37.7041 30.4316 37.3965 31.0957 36.7812C31.7695 36.1562 32.1553 35.1943 32.2529 33.8955H36.6475ZM43.9277 37.4697H53.2588V41H39.5332V19.6719H43.9277V37.4697ZM60.4658 41H56.0713V19.6719H60.4658V41ZM77.3848 31.7568H68.9473V37.4697H78.8496V41H64.5527V19.6719H78.8203V23.2314H68.9473V28.3145H77.3848V31.7568ZM98.7715 41H94.377L85.8223 26.9668V41H81.4277V19.6719H85.8223L94.3916 33.7344V19.6719H98.7715V41ZM118.225 23.2314H111.691V41H107.297V23.2314H100.852V19.6719H118.225V23.2314ZM131.73 33.4854V41H127.336V19.6719H135.656C137.258 19.6719 138.664 19.9648 139.875 20.5508C141.096 21.1367 142.033 21.9717 142.688 23.0557C143.342 24.1299 143.669 25.3555 143.669 26.7324C143.669 28.8223 142.951 30.4727 141.516 31.6836C140.09 32.8848 138.112 33.4854 135.583 33.4854H131.73ZM131.73 29.9258H135.656C136.818 29.9258 137.702 29.6523 138.308 29.1055C138.923 28.5586 139.23 27.7773 139.23 26.7617C139.23 25.7168 138.923 24.8721 138.308 24.2275C137.692 23.583 136.843 23.251 135.759 23.2314H131.73V29.9258ZM164.221 30.8193C164.221 32.9189 163.85 34.7598 163.107 36.3418C162.365 37.9238 161.301 39.1445 159.914 40.0039C158.537 40.8633 156.955 41.293 155.168 41.293C153.4 41.293 151.823 40.8682 150.437 40.0186C149.05 39.1689 147.976 37.958 147.214 36.3857C146.452 34.8037 146.066 32.9873 146.057 30.9365V29.8818C146.057 27.7822 146.433 25.9365 147.185 24.3447C147.946 22.7432 149.016 21.5176 150.393 20.668C151.779 19.8086 153.361 19.3789 155.139 19.3789C156.916 19.3789 158.493 19.8086 159.87 20.668C161.257 21.5176 162.326 22.7432 163.078 24.3447C163.84 25.9365 164.221 27.7773 164.221 29.8672V30.8193ZM159.768 29.8525C159.768 27.6162 159.367 25.917 158.566 24.7549C157.766 23.5928 156.623 23.0117 155.139 23.0117C153.664 23.0117 152.526 23.5879 151.726 24.7402C150.925 25.8828 150.52 27.5625 150.51 29.7793V30.8193C150.51 32.9971 150.91 34.6865 151.711 35.8877C152.512 37.0889 153.664 37.6895 155.168 37.6895C156.643 37.6895 157.775 37.1133 158.566 35.9609C159.357 34.7988 159.758 33.1094 159.768 30.8926V29.8525ZM175.31 33.1924H171.809V41H167.414V19.6719H175.339C177.858 19.6719 179.802 20.2334 181.169 21.3564C182.536 22.4795 183.22 24.0664 183.22 26.1172C183.22 27.5723 182.902 28.7881 182.268 29.7646C181.643 30.7314 180.69 31.5029 179.411 32.0791L184.025 40.7949V41H179.309L175.31 33.1924ZM171.809 29.6328H175.354C176.457 29.6328 177.312 29.3545 177.917 28.7979C178.522 28.2314 178.825 27.4551 178.825 26.4688C178.825 25.4629 178.537 24.6719 177.961 24.0957C177.395 23.5195 176.521 23.2314 175.339 23.2314H171.809V29.6328ZM201.896 23.2314H195.363V41H190.969V23.2314H184.523V19.6719H201.896V23.2314ZM214.699 36.6055H206.994L205.529 41H200.856L208.796 19.6719H212.868L220.852 41H216.179L214.699 36.6055ZM208.181 33.0459H213.513L210.832 25.0625L208.181 33.0459ZM227.238 37.4697H236.569V41H222.844V19.6719H227.238V37.4697Z" fill="white"/>
<rect y="60" width="260" height="964" fill="#F2F2F2"/>
<path d="M40.5312 96.5859C40.3203 98.3906 39.6523 99.7852 38.5273 100.77C37.4102 101.746 35.9219 102.234 34.0625 102.234C32.0469 102.234 30.4297 101.512 29.2109 100.066C28 98.6211 27.3945 96.6875 27.3945 94.2656V92.625C27.3945 91.0391 27.6758 89.6445 28.2383 88.4414C28.8086 87.2383 29.6133 86.3164 30.6523 85.6758C31.6914 85.0273 32.8945 84.7031 34.2617 84.7031C36.0742 84.7031 37.5273 85.2109 38.6211 86.2266C39.7148 87.2344 40.3516 88.6328 40.5312 90.4219H38.2695C38.0742 89.0625 37.6484 88.0781 36.9922 87.4688C36.3438 86.8594 35.4336 86.5547 34.2617 86.5547C32.8242 86.5547 31.6953 87.0859 30.875 88.1484C30.0625 89.2109 29.6562 90.7227 29.6562 92.6836V94.3359C29.6562 96.1875 30.043 97.6602 30.8164 98.7539C31.5898 99.8477 32.6719 100.395 34.0625 100.395C35.3125 100.395 36.2695 100.113 36.9336 99.5508C37.6055 98.9805 38.0508 97.9922 38.2695 96.5859H40.5312ZM45.6289 102H43.4609V84H45.6289V102ZM51.4648 102H49.2969V89.3203H51.4648V102ZM49.1211 85.957C49.1211 85.6055 49.2266 85.3086 49.4375 85.0664C49.6562 84.8242 49.9766 84.7031 50.3984 84.7031C50.8203 84.7031 51.1406 84.8242 51.3594 85.0664C51.5781 85.3086 51.6875 85.6055 51.6875 85.957C51.6875 86.3086 51.5781 86.6016 51.3594 86.8359C51.1406 87.0703 50.8203 87.1875 50.3984 87.1875C49.9766 87.1875 49.6562 87.0703 49.4375 86.8359C49.2266 86.6016 49.1211 86.3086 49.1211 85.957ZM60.207 102.234C58.4883 102.234 57.0898 101.672 56.0117 100.547C54.9336 99.4141 54.3945 97.9023 54.3945 96.0117V95.6133C54.3945 94.3555 54.6328 93.2344 55.1094 92.25C55.5938 91.2578 56.2656 90.4844 57.125 89.9297C57.9922 89.3672 58.9297 89.0859 59.9375 89.0859C61.5859 89.0859 62.8672 89.6289 63.7812 90.7148C64.6953 91.8008 65.1523 93.3555 65.1523 95.3789V96.2812H56.5625C56.5938 97.5312 56.957 98.543 57.6523 99.3164C58.3555 100.082 59.2461 100.465 60.3242 100.465C61.0898 100.465 61.7383 100.309 62.2695 99.9961C62.8008 99.6836 63.2656 99.2695 63.6641 98.7539L64.9883 99.7852C63.9258 101.418 62.332 102.234 60.207 102.234ZM59.9375 90.8672C59.0625 90.8672 58.3281 91.1875 57.7344 91.8281C57.1406 92.4609 56.7734 93.3516 56.6328 94.5H62.9844V94.3359C62.9219 93.2344 62.625 92.3828 62.0938 91.7812C61.5625 91.1719 60.8438 90.8672 59.9375 90.8672ZM69.7227 89.3203L69.793 90.9141C70.7617 89.6953 72.0273 89.0859 73.5898 89.0859C76.2695 89.0859 77.6211 90.5977 77.6445 93.6211V102H75.4766V93.6094C75.4688 92.6953 75.2578 92.0195 74.8438 91.582C74.4375 91.1445 73.8008 90.9258 72.9336 90.9258C72.2305 90.9258 71.6133 91.1133 71.082 91.4883C70.5508 91.8633 70.1367 92.3555 69.8398 92.9648V102H67.6719V89.3203H69.7227ZM83.8555 86.25V89.3203H86.2227V90.9961H83.8555V98.8594C83.8555 99.3672 83.9609 99.75 84.1719 100.008C84.3828 100.258 84.7422 100.383 85.25 100.383C85.5 100.383 85.8438 100.336 86.2812 100.242V102C85.7109 102.156 85.1562 102.234 84.6172 102.234C83.6484 102.234 82.918 101.941 82.4258 101.355C81.9336 100.77 81.6875 99.9375 81.6875 98.8594V90.9961H79.3789V89.3203H81.6875V86.25H83.8555ZM97.6602 86.25V89.3203H100.027V90.9961H97.6602V98.8594C97.6602 99.3672 97.7656 99.75 97.9766 100.008C98.1875 100.258 98.5469 100.383 99.0547 100.383C99.3047 100.383 99.6484 100.336 100.086 100.242V102C99.5156 102.156 98.9609 102.234 98.4219 102.234C97.4531 102.234 96.7227 101.941 96.2305 101.355C95.7383 100.77 95.4922 99.9375 95.4922 98.8594V90.9961H93.1836V89.3203H95.4922V86.25H97.6602ZM107.832 102.234C106.113 102.234 104.715 101.672 103.637 100.547C102.559 99.4141 102.02 97.9023 102.02 96.0117V95.6133C102.02 94.3555 102.258 93.2344 102.734 92.25C103.219 91.2578 103.891 90.4844 104.75 89.9297C105.617 89.3672 106.555 89.0859 107.562 89.0859C109.211 89.0859 110.492 89.6289 111.406 90.7148C112.32 91.8008 112.777 93.3555 112.777 95.3789V96.2812H104.188C104.219 97.5312 104.582 98.543 105.277 99.3164C105.98 100.082 106.871 100.465 107.949 100.465C108.715 100.465 109.363 100.309 109.895 99.9961C110.426 99.6836 110.891 99.2695 111.289 98.7539L112.613 99.7852C111.551 101.418 109.957 102.234 107.832 102.234ZM107.562 90.8672C106.688 90.8672 105.953 91.1875 105.359 91.8281C104.766 92.4609 104.398 93.3516 104.258 94.5H110.609V94.3359C110.547 93.2344 110.25 92.3828 109.719 91.7812C109.188 91.1719 108.469 90.8672 107.562 90.8672ZM123.125 102C123 101.75 122.898 101.305 122.82 100.664C121.812 101.711 120.609 102.234 119.211 102.234C117.961 102.234 116.934 101.883 116.129 101.18C115.332 100.469 114.934 99.5703 114.934 98.4844C114.934 97.1641 115.434 96.1406 116.434 95.4141C117.441 94.6797 118.855 94.3125 120.676 94.3125H122.785V93.3164C122.785 92.5586 122.559 91.957 122.105 91.5117C121.652 91.0586 120.984 90.832 120.102 90.832C119.328 90.832 118.68 91.0273 118.156 91.418C117.633 91.8086 117.371 92.2812 117.371 92.8359H115.191C115.191 92.2031 115.414 91.5938 115.859 91.0078C116.312 90.4141 116.922 89.9453 117.688 89.6016C118.461 89.2578 119.309 89.0859 120.23 89.0859C121.691 89.0859 122.836 89.4531 123.664 90.1875C124.492 90.9141 124.922 91.918 124.953 93.1992V99.0352C124.953 100.199 125.102 101.125 125.398 101.812V102H123.125ZM119.527 100.348C120.207 100.348 120.852 100.172 121.461 99.8203C122.07 99.4688 122.512 99.0117 122.785 98.4492V95.8477H121.086C118.43 95.8477 117.102 96.625 117.102 98.1797C117.102 98.8594 117.328 99.3906 117.781 99.7734C118.234 100.156 118.816 100.348 119.527 100.348ZM130.391 89.3203L130.449 90.7266C131.379 89.6328 132.633 89.0859 134.211 89.0859C135.984 89.0859 137.191 89.7656 137.832 91.125C138.254 90.5156 138.801 90.0234 139.473 89.6484C140.152 89.2734 140.953 89.0859 141.875 89.0859C144.656 89.0859 146.07 90.5586 146.117 93.5039V102H143.949V93.6328C143.949 92.7266 143.742 92.0508 143.328 91.6055C142.914 91.1523 142.219 90.9258 141.242 90.9258C140.438 90.9258 139.77 91.168 139.238 91.6523C138.707 92.1289 138.398 92.7734 138.312 93.5859V102H136.133V93.6914C136.133 91.8477 135.23 90.9258 133.426 90.9258C132.004 90.9258 131.031 91.5312 130.508 92.7422V102H128.34V89.3203H130.391Z" fill="black"/>
<path d="M37.4023 145.547H30.2539L28.6484 150H26.3281L32.8438 132.938H34.8125L41.3398 150H39.0312L37.4023 145.547ZM30.9336 143.695H36.7344L33.8281 135.715L30.9336 143.695ZM46.0273 134.25V137.32H48.3945V138.996H46.0273V146.859C46.0273 147.367 46.1328 147.75 46.3438 148.008C46.5547 148.258 46.9141 148.383 47.4219 148.383C47.6719 148.383 48.0156 148.336 48.4531 148.242V150C47.8828 150.156 47.3281 150.234 46.7891 150.234C45.8203 150.234 45.0898 149.941 44.5977 149.355C44.1055 148.77 43.8594 147.938 43.8594 146.859V138.996H41.5508V137.32H43.8594V134.25H46.0273ZM53.8789 134.25V137.32H56.2461V138.996H53.8789V146.859C53.8789 147.367 53.9844 147.75 54.1953 148.008C54.4062 148.258 54.7656 148.383 55.2734 148.383C55.5234 148.383 55.8672 148.336 56.3047 148.242V150C55.7344 150.156 55.1797 150.234 54.6406 150.234C53.6719 150.234 52.9414 149.941 52.4492 149.355C51.957 148.77 51.7109 147.938 51.7109 146.859V138.996H49.4023V137.32H51.7109V134.25H53.8789ZM57.9805 143.543C57.9805 142.301 58.2227 141.184 58.707 140.191C59.1992 139.199 59.8789 138.434 60.7461 137.895C61.6211 137.355 62.6172 137.086 63.7344 137.086C65.4609 137.086 66.8555 137.684 67.918 138.879C68.9883 140.074 69.5234 141.664 69.5234 143.648V143.801C69.5234 145.035 69.2852 146.145 68.8086 147.129C68.3398 148.105 67.6641 148.867 66.7812 149.414C65.9062 149.961 64.8984 150.234 63.7578 150.234C62.0391 150.234 60.6445 149.637 59.5742 148.441C58.5117 147.246 57.9805 145.664 57.9805 143.695V143.543ZM60.1602 143.801C60.1602 145.207 60.4844 146.336 61.1328 147.188C61.7891 148.039 62.6641 148.465 63.7578 148.465C64.8594 148.465 65.7344 148.035 66.3828 147.176C67.0312 146.309 67.3555 145.098 67.3555 143.543C67.3555 142.152 67.0234 141.027 66.3594 140.168C65.7031 139.301 64.8281 138.867 63.7344 138.867C62.6641 138.867 61.8008 139.293 61.1445 140.145C60.4883 140.996 60.1602 142.215 60.1602 143.801ZM78.3711 139.266C78.043 139.211 77.6875 139.184 77.3047 139.184C75.8828 139.184 74.918 139.789 74.4102 141V150H72.2422V137.32H74.3516L74.3867 138.785C75.0977 137.652 76.1055 137.086 77.4102 137.086C77.832 137.086 78.1523 137.141 78.3711 137.25V139.266ZM82.4258 137.32L82.4961 138.914C83.4648 137.695 84.7305 137.086 86.293 137.086C88.9727 137.086 90.3242 138.598 90.3477 141.621V150H88.1797V141.609C88.1719 140.695 87.9609 140.02 87.5469 139.582C87.1406 139.145 86.5039 138.926 85.6367 138.926C84.9336 138.926 84.3164 139.113 83.7852 139.488C83.2539 139.863 82.8398 140.355 82.543 140.965V150H80.375V137.32H82.4258ZM98.8789 150.234C97.1602 150.234 95.7617 149.672 94.6836 148.547C93.6055 147.414 93.0664 145.902 93.0664 144.012V143.613C93.0664 142.355 93.3047 141.234 93.7812 140.25C94.2656 139.258 94.9375 138.484 95.7969 137.93C96.6641 137.367 97.6016 137.086 98.6094 137.086C100.258 137.086 101.539 137.629 102.453 138.715C103.367 139.801 103.824 141.355 103.824 143.379V144.281H95.2344C95.2656 145.531 95.6289 146.543 96.3242 147.316C97.0273 148.082 97.918 148.465 98.9961 148.465C99.7617 148.465 100.41 148.309 100.941 147.996C101.473 147.684 101.938 147.27 102.336 146.754L103.66 147.785C102.598 149.418 101.004 150.234 98.8789 150.234ZM98.6094 138.867C97.7344 138.867 97 139.188 96.4062 139.828C95.8125 140.461 95.4453 141.352 95.3047 142.5H101.656V142.336C101.594 141.234 101.297 140.383 100.766 139.781C100.234 139.172 99.5156 138.867 98.6094 138.867ZM110.328 146.824L113.281 137.32H115.602L110.504 151.957C109.715 154.066 108.461 155.121 106.742 155.121L106.332 155.086L105.523 154.934V153.176L106.109 153.223C106.844 153.223 107.414 153.074 107.82 152.777C108.234 152.48 108.574 151.938 108.84 151.148L109.32 149.859L104.797 137.32H107.164L110.328 146.824ZM126.441 134.25V137.32H128.809V138.996H126.441V146.859C126.441 147.367 126.547 147.75 126.758 148.008C126.969 148.258 127.328 148.383 127.836 148.383C128.086 148.383 128.43 148.336 128.867 148.242V150C128.297 150.156 127.742 150.234 127.203 150.234C126.234 150.234 125.504 149.941 125.012 149.355C124.52 148.77 124.273 147.938 124.273 146.859V138.996H121.965V137.32H124.273V134.25H126.441ZM136.613 150.234C134.895 150.234 133.496 149.672 132.418 148.547C131.34 147.414 130.801 145.902 130.801 144.012V143.613C130.801 142.355 131.039 141.234 131.516 140.25C132 139.258 132.672 138.484 133.531 137.93C134.398 137.367 135.336 137.086 136.344 137.086C137.992 137.086 139.273 137.629 140.188 138.715C141.102 139.801 141.559 141.355 141.559 143.379V144.281H132.969C133 145.531 133.363 146.543 134.059 147.316C134.762 148.082 135.652 148.465 136.73 148.465C137.496 148.465 138.145 148.309 138.676 147.996C139.207 147.684 139.672 147.27 140.07 146.754L141.395 147.785C140.332 149.418 138.738 150.234 136.613 150.234ZM136.344 138.867C135.469 138.867 134.734 139.188 134.141 139.828C133.547 140.461 133.18 141.352 133.039 142.5H139.391V142.336C139.328 141.234 139.031 140.383 138.5 139.781C137.969 139.172 137.25 138.867 136.344 138.867ZM151.906 150C151.781 149.75 151.68 149.305 151.602 148.664C150.594 149.711 149.391 150.234 147.992 150.234C146.742 150.234 145.715 149.883 144.91 149.18C144.113 148.469 143.715 147.57 143.715 146.484C143.715 145.164 144.215 144.141 145.215 143.414C146.223 142.68 147.637 142.312 149.457 142.312H151.566V141.316C151.566 140.559 151.34 139.957 150.887 139.512C150.434 139.059 149.766 138.832 148.883 138.832C148.109 138.832 147.461 139.027 146.938 139.418C146.414 139.809 146.152 140.281 146.152 140.836H143.973C143.973 140.203 144.195 139.594 144.641 139.008C145.094 138.414 145.703 137.945 146.469 137.602C147.242 137.258 148.09 137.086 149.012 137.086C150.473 137.086 151.617 137.453 152.445 138.188C153.273 138.914 153.703 139.918 153.734 141.199V147.035C153.734 148.199 153.883 149.125 154.18 149.812V150H151.906ZM148.309 148.348C148.988 148.348 149.633 148.172 150.242 147.82C150.852 147.469 151.293 147.012 151.566 146.449V143.848H149.867C147.211 143.848 145.883 144.625 145.883 146.18C145.883 146.859 146.109 147.391 146.562 147.773C147.016 148.156 147.598 148.348 148.309 148.348ZM159.172 137.32L159.23 138.727C160.16 137.633 161.414 137.086 162.992 137.086C164.766 137.086 165.973 137.766 166.613 139.125C167.035 138.516 167.582 138.023 168.254 137.648C168.934 137.273 169.734 137.086 170.656 137.086C173.438 137.086 174.852 138.559 174.898 141.504V150H172.73V141.633C172.73 140.727 172.523 140.051 172.109 139.605C171.695 139.152 171 138.926 170.023 138.926C169.219 138.926 168.551 139.168 168.02 139.652C167.488 140.129 167.18 140.773 167.094 141.586V150H164.914V141.691C164.914 139.848 164.012 138.926 162.207 138.926C160.785 138.926 159.812 139.531 159.289 140.742V150H157.121V137.32H159.172Z" fill="black"/>
<path d="M27.9805 208V190.938H32.7969C34.2812 190.938 35.5938 191.266 36.7344 191.922C37.875 192.578 38.7539 193.512 39.3711 194.723C39.9961 195.934 40.3125 197.324 40.3203 198.895V199.984C40.3203 201.594 40.0078 203.004 39.3828 204.215C38.7656 205.426 37.8789 206.355 36.7227 207.004C35.5742 207.652 34.2344 207.984 32.7031 208H27.9805ZM30.2305 192.789V206.16H32.5977C34.332 206.16 35.6797 205.621 36.6406 204.543C37.6094 203.465 38.0938 201.93 38.0938 199.938V198.941C38.0938 197.004 37.6367 195.5 36.7227 194.43C35.8164 193.352 34.5273 192.805 32.8555 192.789H30.2305ZM42.8164 201.543C42.8164 200.301 43.0586 199.184 43.543 198.191C44.0352 197.199 44.7148 196.434 45.582 195.895C46.457 195.355 47.4531 195.086 48.5703 195.086C50.2969 195.086 51.6914 195.684 52.7539 196.879C53.8242 198.074 54.3594 199.664 54.3594 201.648V201.801C54.3594 203.035 54.1211 204.145 53.6445 205.129C53.1758 206.105 52.5 206.867 51.6172 207.414C50.7422 207.961 49.7344 208.234 48.5938 208.234C46.875 208.234 45.4805 207.637 44.4102 206.441C43.3477 205.246 42.8164 203.664 42.8164 201.695V201.543ZM44.9961 201.801C44.9961 203.207 45.3203 204.336 45.9688 205.188C46.625 206.039 47.5 206.465 48.5938 206.465C49.6953 206.465 50.5703 206.035 51.2188 205.176C51.8672 204.309 52.1914 203.098 52.1914 201.543C52.1914 200.152 51.8594 199.027 51.1953 198.168C50.5391 197.301 49.6641 196.867 48.5703 196.867C47.5 196.867 46.6367 197.293 45.9805 198.145C45.3242 198.996 44.9961 200.215 44.9961 201.801ZM62.1641 206.465C62.9375 206.465 63.6133 206.23 64.1914 205.762C64.7695 205.293 65.0898 204.707 65.1523 204.004H67.2031C67.1641 204.73 66.9141 205.422 66.4531 206.078C65.9922 206.734 65.375 207.258 64.6016 207.648C63.8359 208.039 63.0234 208.234 62.1641 208.234C60.4375 208.234 59.0625 207.66 58.0391 206.512C57.0234 205.355 56.5156 203.777 56.5156 201.777V201.414C56.5156 200.18 56.7422 199.082 57.1953 198.121C57.6484 197.16 58.2969 196.414 59.1406 195.883C59.9922 195.352 60.9961 195.086 62.1523 195.086C63.5742 195.086 64.7539 195.512 65.6914 196.363C66.6367 197.215 67.1406 198.32 67.2031 199.68H65.1523C65.0898 198.859 64.7773 198.188 64.2148 197.664C63.6602 197.133 62.9727 196.867 62.1523 196.867C61.0508 196.867 60.1953 197.266 59.5859 198.062C58.9844 198.852 58.6836 199.996 58.6836 201.496V201.906C58.6836 203.367 58.9844 204.492 59.5859 205.281C60.1875 206.07 61.0469 206.465 62.1641 206.465ZM77.4688 206.746C76.625 207.738 75.3867 208.234 73.7539 208.234C72.4023 208.234 71.3711 207.844 70.6602 207.062C69.957 206.273 69.6016 205.109 69.5938 203.57V195.32H71.7617V203.512C71.7617 205.434 72.543 206.395 74.1055 206.395C75.7617 206.395 76.8633 205.777 77.4102 204.543V195.32H79.5781V208H77.5156L77.4688 206.746ZM84.9219 195.32L84.9805 196.727C85.9102 195.633 87.1641 195.086 88.7422 195.086C90.5156 195.086 91.7227 195.766 92.3633 197.125C92.7852 196.516 93.332 196.023 94.0039 195.648C94.6836 195.273 95.4844 195.086 96.4062 195.086C99.1875 195.086 100.602 196.559 100.648 199.504V208H98.4805V199.633C98.4805 198.727 98.2734 198.051 97.8594 197.605C97.4453 197.152 96.75 196.926 95.7734 196.926C94.9688 196.926 94.3008 197.168 93.7695 197.652C93.2383 198.129 92.9297 198.773 92.8438 199.586V208H90.6641V199.691C90.6641 197.848 89.7617 196.926 87.957 196.926C86.5352 196.926 85.5625 197.531 85.0391 198.742V208H82.8711V195.32H84.9219ZM109.191 208.234C107.473 208.234 106.074 207.672 104.996 206.547C103.918 205.414 103.379 203.902 103.379 202.012V201.613C103.379 200.355 103.617 199.234 104.094 198.25C104.578 197.258 105.25 196.484 106.109 195.93C106.977 195.367 107.914 195.086 108.922 195.086C110.57 195.086 111.852 195.629 112.766 196.715C113.68 197.801 114.137 199.355 114.137 201.379V202.281H105.547C105.578 203.531 105.941 204.543 106.637 205.316C107.34 206.082 108.23 206.465 109.309 206.465C110.074 206.465 110.723 206.309 111.254 205.996C111.785 205.684 112.25 205.27 112.648 204.754L113.973 205.785C112.91 207.418 111.316 208.234 109.191 208.234ZM108.922 196.867C108.047 196.867 107.312 197.188 106.719 197.828C106.125 198.461 105.758 199.352 105.617 200.5H111.969V200.336C111.906 199.234 111.609 198.383 111.078 197.781C110.547 197.172 109.828 196.867 108.922 196.867ZM118.707 195.32L118.777 196.914C119.746 195.695 121.012 195.086 122.574 195.086C125.254 195.086 126.605 196.598 126.629 199.621V208H124.461V199.609C124.453 198.695 124.242 198.02 123.828 197.582C123.422 197.145 122.785 196.926 121.918 196.926C121.215 196.926 120.598 197.113 120.066 197.488C119.535 197.863 119.121 198.355 118.824 198.965V208H116.656V195.32H118.707ZM132.84 192.25V195.32H135.207V196.996H132.84V204.859C132.84 205.367 132.945 205.75 133.156 206.008C133.367 206.258 133.727 206.383 134.234 206.383C134.484 206.383 134.828 206.336 135.266 206.242V208C134.695 208.156 134.141 208.234 133.602 208.234C132.633 208.234 131.902 207.941 131.41 207.355C130.918 206.77 130.672 205.938 130.672 204.859V196.996H128.363V195.32H130.672V192.25H132.84ZM145.133 204.637C145.133 204.051 144.91 203.598 144.465 203.277C144.027 202.949 143.258 202.668 142.156 202.434C141.062 202.199 140.191 201.918 139.543 201.59C138.902 201.262 138.426 200.871 138.113 200.418C137.809 199.965 137.656 199.426 137.656 198.801C137.656 197.762 138.094 196.883 138.969 196.164C139.852 195.445 140.977 195.086 142.344 195.086C143.781 195.086 144.945 195.457 145.836 196.199C146.734 196.941 147.184 197.891 147.184 199.047H145.004C145.004 198.453 144.75 197.941 144.242 197.512C143.742 197.082 143.109 196.867 142.344 196.867C141.555 196.867 140.938 197.039 140.492 197.383C140.047 197.727 139.824 198.176 139.824 198.73C139.824 199.254 140.031 199.648 140.445 199.914C140.859 200.18 141.605 200.434 142.684 200.676C143.77 200.918 144.648 201.207 145.32 201.543C145.992 201.879 146.488 202.285 146.809 202.762C147.137 203.23 147.301 203.805 147.301 204.484C147.301 205.617 146.848 206.527 145.941 207.215C145.035 207.895 143.859 208.234 142.414 208.234C141.398 208.234 140.5 208.055 139.719 207.695C138.938 207.336 138.324 206.836 137.879 206.195C137.441 205.547 137.223 204.848 137.223 204.098H139.391C139.43 204.824 139.719 205.402 140.258 205.832C140.805 206.254 141.523 206.465 142.414 206.465C143.234 206.465 143.891 206.301 144.383 205.973C144.883 205.637 145.133 205.191 145.133 204.637Z" fill="black"/>
<path d="M37.3906 248.465H30.2305V256H27.9805V238.938H38.5508V240.789H30.2305V246.625H37.3906V248.465ZM43.2617 256H41.0938V243.32H43.2617V256ZM40.918 239.957C40.918 239.605 41.0234 239.309 41.2344 239.066C41.4531 238.824 41.7734 238.703 42.1953 238.703C42.6172 238.703 42.9375 238.824 43.1562 239.066C43.375 239.309 43.4844 239.605 43.4844 239.957C43.4844 240.309 43.375 240.602 43.1562 240.836C42.9375 241.07 42.6172 241.188 42.1953 241.188C41.7734 241.188 41.4531 241.07 41.2344 240.836C41.0234 240.602 40.918 240.309 40.918 239.957ZM48.793 243.32L48.8633 244.914C49.832 243.695 51.0977 243.086 52.6602 243.086C55.3398 243.086 56.6914 244.598 56.7148 247.621V256H54.5469V247.609C54.5391 246.695 54.3281 246.02 53.9141 245.582C53.5078 245.145 52.8711 244.926 52.0039 244.926C51.3008 244.926 50.6836 245.113 50.1523 245.488C49.6211 245.863 49.207 246.355 48.9102 246.965V256H46.7422V243.32H48.793ZM67.8125 256C67.6875 255.75 67.5859 255.305 67.5078 254.664C66.5 255.711 65.2969 256.234 63.8984 256.234C62.6484 256.234 61.6211 255.883 60.8164 255.18C60.0195 254.469 59.6211 253.57 59.6211 252.484C59.6211 251.164 60.1211 250.141 61.1211 249.414C62.1289 248.68 63.543 248.312 65.3633 248.312H67.4727V247.316C67.4727 246.559 67.2461 245.957 66.793 245.512C66.3398 245.059 65.6719 244.832 64.7891 244.832C64.0156 244.832 63.3672 245.027 62.8438 245.418C62.3203 245.809 62.0586 246.281 62.0586 246.836H59.8789C59.8789 246.203 60.1016 245.594 60.5469 245.008C61 244.414 61.6094 243.945 62.375 243.602C63.1484 243.258 63.9961 243.086 64.918 243.086C66.3789 243.086 67.5234 243.453 68.3516 244.188C69.1797 244.914 69.6094 245.918 69.6406 247.199V253.035C69.6406 254.199 69.7891 255.125 70.0859 255.812V256H67.8125ZM64.2148 254.348C64.8945 254.348 65.5391 254.172 66.1484 253.82C66.7578 253.469 67.1992 253.012 67.4727 252.449V249.848H65.7734C63.1172 249.848 61.7891 250.625 61.7891 252.18C61.7891 252.859 62.0156 253.391 62.4688 253.773C62.9219 254.156 63.5039 254.348 64.2148 254.348ZM75.0898 243.32L75.1602 244.914C76.1289 243.695 77.3945 243.086 78.957 243.086C81.6367 243.086 82.9883 244.598 83.0117 247.621V256H80.8438V247.609C80.8359 246.695 80.625 246.02 80.2109 245.582C79.8047 245.145 79.168 244.926 78.3008 244.926C77.5977 244.926 76.9805 245.113 76.4492 245.488C75.918 245.863 75.5039 246.355 75.207 246.965V256H73.0391V243.32H75.0898ZM91.3672 254.465C92.1406 254.465 92.8164 254.23 93.3945 253.762C93.9727 253.293 94.293 252.707 94.3555 252.004H96.4062C96.3672 252.73 96.1172 253.422 95.6562 254.078C95.1953 254.734 94.5781 255.258 93.8047 255.648C93.0391 256.039 92.2266 256.234 91.3672 256.234C89.6406 256.234 88.2656 255.66 87.2422 254.512C86.2266 253.355 85.7188 251.777 85.7188 249.777V249.414C85.7188 248.18 85.9453 247.082 86.3984 246.121C86.8516 245.16 87.5 244.414 88.3438 243.883C89.1953 243.352 90.1992 243.086 91.3555 243.086C92.7773 243.086 93.957 243.512 94.8945 244.363C95.8398 245.215 96.3438 246.32 96.4062 247.68H94.3555C94.293 246.859 93.9805 246.188 93.418 245.664C92.8633 245.133 92.1758 244.867 91.3555 244.867C90.2539 244.867 89.3984 245.266 88.7891 246.062C88.1875 246.852 87.8867 247.996 87.8867 249.496V249.906C87.8867 251.367 88.1875 252.492 88.7891 253.281C89.3906 254.07 90.25 254.465 91.3672 254.465ZM104.105 256.234C102.387 256.234 100.988 255.672 99.9102 254.547C98.832 253.414 98.293 251.902 98.293 250.012V249.613C98.293 248.355 98.5312 247.234 99.0078 246.25C99.4922 245.258 100.164 244.484 101.023 243.93C101.891 243.367 102.828 243.086 103.836 243.086C105.484 243.086 106.766 243.629 107.68 244.715C108.594 245.801 109.051 247.355 109.051 249.379V250.281H100.461C100.492 251.531 100.855 252.543 101.551 253.316C102.254 254.082 103.145 254.465 104.223 254.465C104.988 254.465 105.637 254.309 106.168 253.996C106.699 253.684 107.164 253.27 107.562 252.754L108.887 253.785C107.824 255.418 106.23 256.234 104.105 256.234ZM103.836 244.867C102.961 244.867 102.227 245.188 101.633 245.828C101.039 246.461 100.672 247.352 100.531 248.5H106.883V248.336C106.82 247.234 106.523 246.383 105.992 245.781C105.461 245.172 104.742 244.867 103.836 244.867Z" fill="black"/>
<path d="M40.5312 298.586C40.3203 300.391 39.6523 301.785 38.5273 302.77C37.4102 303.746 35.9219 304.234 34.0625 304.234C32.0469 304.234 30.4297 303.512 29.2109 302.066C28 300.621 27.3945 298.688 27.3945 296.266V294.625C27.3945 293.039 27.6758 291.645 28.2383 290.441C28.8086 289.238 29.6133 288.316 30.6523 287.676C31.6914 287.027 32.8945 286.703 34.2617 286.703C36.0742 286.703 37.5273 287.211 38.6211 288.227C39.7148 289.234 40.3516 290.633 40.5312 292.422H38.2695C38.0742 291.062 37.6484 290.078 36.9922 289.469C36.3438 288.859 35.4336 288.555 34.2617 288.555C32.8242 288.555 31.6953 289.086 30.875 290.148C30.0625 291.211 29.6562 292.723 29.6562 294.684V296.336C29.6562 298.188 30.043 299.66 30.8164 300.754C31.5898 301.848 32.6719 302.395 34.0625 302.395C35.3125 302.395 36.2695 302.113 36.9336 301.551C37.6055 300.98 38.0508 299.992 38.2695 298.586H40.5312ZM45.6289 304H43.4609V286H45.6289V304ZM51.4648 304H49.2969V291.32H51.4648V304ZM49.1211 287.957C49.1211 287.605 49.2266 287.309 49.4375 287.066C49.6562 286.824 49.9766 286.703 50.3984 286.703C50.8203 286.703 51.1406 286.824 51.3594 287.066C51.5781 287.309 51.6875 287.605 51.6875 287.957C51.6875 288.309 51.5781 288.602 51.3594 288.836C51.1406 289.07 50.8203 289.188 50.3984 289.188C49.9766 289.188 49.6562 289.07 49.4375 288.836C49.2266 288.602 49.1211 288.309 49.1211 287.957ZM60.207 304.234C58.4883 304.234 57.0898 303.672 56.0117 302.547C54.9336 301.414 54.3945 299.902 54.3945 298.012V297.613C54.3945 296.355 54.6328 295.234 55.1094 294.25C55.5938 293.258 56.2656 292.484 57.125 291.93C57.9922 291.367 58.9297 291.086 59.9375 291.086C61.5859 291.086 62.8672 291.629 63.7812 292.715C64.6953 293.801 65.1523 295.355 65.1523 297.379V298.281H56.5625C56.5938 299.531 56.957 300.543 57.6523 301.316C58.3555 302.082 59.2461 302.465 60.3242 302.465C61.0898 302.465 61.7383 302.309 62.2695 301.996C62.8008 301.684 63.2656 301.27 63.6641 300.754L64.9883 301.785C63.9258 303.418 62.332 304.234 60.207 304.234ZM59.9375 292.867C59.0625 292.867 58.3281 293.188 57.7344 293.828C57.1406 294.461 56.7734 295.352 56.6328 296.5H62.9844V296.336C62.9219 295.234 62.625 294.383 62.0938 293.781C61.5625 293.172 60.8438 292.867 59.9375 292.867ZM69.7227 291.32L69.793 292.914C70.7617 291.695 72.0273 291.086 73.5898 291.086C76.2695 291.086 77.6211 292.598 77.6445 295.621V304H75.4766V295.609C75.4688 294.695 75.2578 294.02 74.8438 293.582C74.4375 293.145 73.8008 292.926 72.9336 292.926C72.2305 292.926 71.6133 293.113 71.082 293.488C70.5508 293.863 70.1367 294.355 69.8398 294.965V304H67.6719V291.32H69.7227ZM83.8555 288.25V291.32H86.2227V292.996H83.8555V300.859C83.8555 301.367 83.9609 301.75 84.1719 302.008C84.3828 302.258 84.7422 302.383 85.25 302.383C85.5 302.383 85.8438 302.336 86.2812 302.242V304C85.7109 304.156 85.1562 304.234 84.6172 304.234C83.6484 304.234 82.918 303.941 82.4258 303.355C81.9336 302.77 81.6875 301.938 81.6875 300.859V292.996H79.3789V291.32H81.6875V288.25H83.8555ZM97.3086 297.32V304H95.0586V286.938H101.352C103.219 286.938 104.68 287.414 105.734 288.367C106.797 289.32 107.328 290.582 107.328 292.152C107.328 293.809 106.809 295.086 105.77 295.984C104.738 296.875 103.258 297.32 101.328 297.32H97.3086ZM97.3086 295.48H101.352C102.555 295.48 103.477 295.199 104.117 294.637C104.758 294.066 105.078 293.246 105.078 292.176C105.078 291.16 104.758 290.348 104.117 289.738C103.477 289.129 102.598 288.812 101.48 288.789H97.3086V295.48ZM115.988 293.266C115.66 293.211 115.305 293.184 114.922 293.184C113.5 293.184 112.535 293.789 112.027 295V304H109.859V291.32H111.969L112.004 292.785C112.715 291.652 113.723 291.086 115.027 291.086C115.449 291.086 115.77 291.141 115.988 291.25V293.266ZM117.184 297.543C117.184 296.301 117.426 295.184 117.91 294.191C118.402 293.199 119.082 292.434 119.949 291.895C120.824 291.355 121.82 291.086 122.938 291.086C124.664 291.086 126.059 291.684 127.121 292.879C128.191 294.074 128.727 295.664 128.727 297.648V297.801C128.727 299.035 128.488 300.145 128.012 301.129C127.543 302.105 126.867 302.867 125.984 303.414C125.109 303.961 124.102 304.234 122.961 304.234C121.242 304.234 119.848 303.637 118.777 302.441C117.715 301.246 117.184 299.664 117.184 297.695V297.543ZM119.363 297.801C119.363 299.207 119.688 300.336 120.336 301.188C120.992 302.039 121.867 302.465 122.961 302.465C124.062 302.465 124.938 302.035 125.586 301.176C126.234 300.309 126.559 299.098 126.559 297.543C126.559 296.152 126.227 295.027 125.562 294.168C124.906 293.301 124.031 292.867 122.938 292.867C121.867 292.867 121.004 293.293 120.348 294.145C119.691 294.996 119.363 296.215 119.363 297.801ZM136.531 302.465C137.305 302.465 137.98 302.23 138.559 301.762C139.137 301.293 139.457 300.707 139.52 300.004H141.57C141.531 300.73 141.281 301.422 140.82 302.078C140.359 302.734 139.742 303.258 138.969 303.648C138.203 304.039 137.391 304.234 136.531 304.234C134.805 304.234 133.43 303.66 132.406 302.512C131.391 301.355 130.883 299.777 130.883 297.777V297.414C130.883 296.18 131.109 295.082 131.562 294.121C132.016 293.16 132.664 292.414 133.508 291.883C134.359 291.352 135.363 291.086 136.52 291.086C137.941 291.086 139.121 291.512 140.059 292.363C141.004 293.215 141.508 294.32 141.57 295.68H139.52C139.457 294.859 139.145 294.188 138.582 293.664C138.027 293.133 137.34 292.867 136.52 292.867C135.418 292.867 134.562 293.266 133.953 294.062C133.352 294.852 133.051 295.996 133.051 297.496V297.906C133.051 299.367 133.352 300.492 133.953 301.281C134.555 302.07 135.414 302.465 136.531 302.465ZM149.27 304.234C147.551 304.234 146.152 303.672 145.074 302.547C143.996 301.414 143.457 299.902 143.457 298.012V297.613C143.457 296.355 143.695 295.234 144.172 294.25C144.656 293.258 145.328 292.484 146.188 291.93C147.055 291.367 147.992 291.086 149 291.086C150.648 291.086 151.93 291.629 152.844 292.715C153.758 293.801 154.215 295.355 154.215 297.379V298.281H145.625C145.656 299.531 146.02 300.543 146.715 301.316C147.418 302.082 148.309 302.465 149.387 302.465C150.152 302.465 150.801 302.309 151.332 301.996C151.863 301.684 152.328 301.27 152.727 300.754L154.051 301.785C152.988 303.418 151.395 304.234 149.27 304.234ZM149 292.867C148.125 292.867 147.391 293.188 146.797 293.828C146.203 294.461 145.836 295.352 145.695 296.5H152.047V296.336C151.984 295.234 151.688 294.383 151.156 293.781C150.625 293.172 149.906 292.867 149 292.867ZM156.207 297.555C156.207 295.609 156.668 294.047 157.59 292.867C158.512 291.68 159.719 291.086 161.211 291.086C162.695 291.086 163.871 291.594 164.738 292.609V286H166.906V304H164.914L164.809 302.641C163.941 303.703 162.734 304.234 161.188 304.234C159.719 304.234 158.52 303.633 157.59 302.43C156.668 301.227 156.207 299.656 156.207 297.719V297.555ZM158.375 297.801C158.375 299.238 158.672 300.363 159.266 301.176C159.859 301.988 160.68 302.395 161.727 302.395C163.102 302.395 164.105 301.777 164.738 300.543V294.719C164.09 293.523 163.094 292.926 161.75 292.926C160.688 292.926 159.859 293.336 159.266 294.156C158.672 294.977 158.375 296.191 158.375 297.801ZM178.109 302.746C177.266 303.738 176.027 304.234 174.395 304.234C173.043 304.234 172.012 303.844 171.301 303.062C170.598 302.273 170.242 301.109 170.234 299.57V291.32H172.402V299.512C172.402 301.434 173.184 302.395 174.746 302.395C176.402 302.395 177.504 301.777 178.051 300.543V291.32H180.219V304H178.156L178.109 302.746ZM189.652 293.266C189.324 293.211 188.969 293.184 188.586 293.184C187.164 293.184 186.199 293.789 185.691 295V304H183.523V291.32H185.633L185.668 292.785C186.379 291.652 187.387 291.086 188.691 291.086C189.113 291.086 189.434 291.141 189.652 291.25V293.266ZM196.684 304.234C194.965 304.234 193.566 303.672 192.488 302.547C191.41 301.414 190.871 299.902 190.871 298.012V297.613C190.871 296.355 191.109 295.234 191.586 294.25C192.07 293.258 192.742 292.484 193.602 291.93C194.469 291.367 195.406 291.086 196.414 291.086C198.062 291.086 199.344 291.629 200.258 292.715C201.172 293.801 201.629 295.355 201.629 297.379V298.281H193.039C193.07 299.531 193.434 300.543 194.129 301.316C194.832 302.082 195.723 302.465 196.801 302.465C197.566 302.465 198.215 302.309 198.746 301.996C199.277 301.684 199.742 301.27 200.141 300.754L201.465 301.785C200.402 303.418 198.809 304.234 196.684 304.234ZM196.414 292.867C195.539 292.867 194.805 293.188 194.211 293.828C193.617 294.461 193.25 295.352 193.109 296.5H199.461V296.336C199.398 295.234 199.102 294.383 198.57 293.781C198.039 293.172 197.32 292.867 196.414 292.867ZM211.531 300.637C211.531 300.051 211.309 299.598 210.863 299.277C210.426 298.949 209.656 298.668 208.555 298.434C207.461 298.199 206.59 297.918 205.941 297.59C205.301 297.262 204.824 296.871 204.512 296.418C204.207 295.965 204.055 295.426 204.055 294.801C204.055 293.762 204.492 292.883 205.367 292.164C206.25 291.445 207.375 291.086 208.742 291.086C210.18 291.086 211.344 291.457 212.234 292.199C213.133 292.941 213.582 293.891 213.582 295.047H211.402C211.402 294.453 211.148 293.941 210.641 293.512C210.141 293.082 209.508 292.867 208.742 292.867C207.953 292.867 207.336 293.039 206.891 293.383C206.445 293.727 206.223 294.176 206.223 294.73C206.223 295.254 206.43 295.648 206.844 295.914C207.258 296.18 208.004 296.434 209.082 296.676C210.168 296.918 211.047 297.207 211.719 297.543C212.391 297.879 212.887 298.285 213.207 298.762C213.535 299.23 213.699 299.805 213.699 300.484C213.699 301.617 213.246 302.527 212.34 303.215C211.434 303.895 210.258 304.234 208.812 304.234C207.797 304.234 206.898 304.055 206.117 303.695C205.336 303.336 204.723 302.836 204.277 302.195C203.84 301.547 203.621 300.848 203.621 300.098H205.789C205.828 300.824 206.117 301.402 206.656 301.832C207.203 302.254 207.922 302.465 208.812 302.465C209.633 302.465 210.289 302.301 210.781 301.973C211.281 301.637 211.531 301.191 211.531 300.637Z" fill="black"/>
<path d="M33.0078 344.395C31.0781 343.84 29.6719 343.16 28.7891 342.355C27.9141 341.543 27.4766 340.543 27.4766 339.355C27.4766 338.012 28.0117 336.902 29.082 336.027C30.1602 335.145 31.5586 334.703 33.2773 334.703C34.4492 334.703 35.4922 334.93 36.4062 335.383C37.3281 335.836 38.0391 336.461 38.5391 337.258C39.0469 338.055 39.3008 338.926 39.3008 339.871H37.0391C37.0391 338.84 36.7109 338.031 36.0547 337.445C35.3984 336.852 34.4727 336.555 33.2773 336.555C32.168 336.555 31.3008 336.801 30.6758 337.293C30.0586 337.777 29.75 338.453 29.75 339.32C29.75 340.016 30.043 340.605 30.6289 341.09C31.2227 341.566 32.2266 342.004 33.6406 342.402C35.0625 342.801 36.1719 343.242 36.9688 343.727C37.7734 344.203 38.3672 344.762 38.75 345.402C39.1406 346.043 39.3359 346.797 39.3359 347.664C39.3359 349.047 38.7969 350.156 37.7188 350.992C36.6406 351.82 35.1992 352.234 33.3945 352.234C32.2227 352.234 31.1289 352.012 30.1133 351.566C29.0977 351.113 28.3125 350.496 27.7578 349.715C27.2109 348.934 26.9375 348.047 26.9375 347.055H29.1992C29.1992 348.086 29.5781 348.902 30.3359 349.504C31.1016 350.098 32.1211 350.395 33.3945 350.395C34.582 350.395 35.4922 350.152 36.125 349.668C36.7578 349.184 37.0742 348.523 37.0742 347.688C37.0742 346.852 36.7812 346.207 36.1953 345.754C35.6094 345.293 34.5469 344.84 33.0078 344.395ZM44.832 336.25V339.32H47.1992V340.996H44.832V348.859C44.832 349.367 44.9375 349.75 45.1484 350.008C45.3594 350.258 45.7188 350.383 46.2266 350.383C46.4766 350.383 46.8203 350.336 47.2578 350.242V352C46.6875 352.156 46.1328 352.234 45.5938 352.234C44.625 352.234 43.8945 351.941 43.4023 351.355C42.9102 350.77 42.6641 349.938 42.6641 348.859V340.996H40.3555V339.32H42.6641V336.25H44.832ZM55.8711 341.266C55.543 341.211 55.1875 341.184 54.8047 341.184C53.3828 341.184 52.418 341.789 51.9102 343V352H49.7422V339.32H51.8516L51.8867 340.785C52.5977 339.652 53.6055 339.086 54.9102 339.086C55.332 339.086 55.6523 339.141 55.8711 339.25V341.266ZM65.2344 352C65.1094 351.75 65.0078 351.305 64.9297 350.664C63.9219 351.711 62.7188 352.234 61.3203 352.234C60.0703 352.234 59.043 351.883 58.2383 351.18C57.4414 350.469 57.043 349.57 57.043 348.484C57.043 347.164 57.543 346.141 58.543 345.414C59.5508 344.68 60.9648 344.312 62.7852 344.312H64.8945V343.316C64.8945 342.559 64.668 341.957 64.2148 341.512C63.7617 341.059 63.0938 340.832 62.2109 340.832C61.4375 340.832 60.7891 341.027 60.2656 341.418C59.7422 341.809 59.4805 342.281 59.4805 342.836H57.3008C57.3008 342.203 57.5234 341.594 57.9688 341.008C58.4219 340.414 59.0312 339.945 59.7969 339.602C60.5703 339.258 61.418 339.086 62.3398 339.086C63.8008 339.086 64.9453 339.453 65.7734 340.188C66.6016 340.914 67.0312 341.918 67.0625 343.199V349.035C67.0625 350.199 67.2109 351.125 67.5078 351.812V352H65.2344ZM61.6367 350.348C62.3164 350.348 62.9609 350.172 63.5703 349.82C64.1797 349.469 64.6211 349.012 64.8945 348.449V345.848H63.1953C60.5391 345.848 59.2109 346.625 59.2109 348.18C59.2109 348.859 59.4375 349.391 59.8906 349.773C60.3438 350.156 60.9258 350.348 61.6367 350.348ZM73.4023 336.25V339.32H75.7695V340.996H73.4023V348.859C73.4023 349.367 73.5078 349.75 73.7188 350.008C73.9297 350.258 74.2891 350.383 74.7969 350.383C75.0469 350.383 75.3906 350.336 75.8281 350.242V352C75.2578 352.156 74.7031 352.234 74.1641 352.234C73.1953 352.234 72.4648 351.941 71.9727 351.355C71.4805 350.77 71.2344 349.938 71.2344 348.859V340.996H68.9258V339.32H71.2344V336.25H73.4023ZM83.5742 352.234C81.8555 352.234 80.457 351.672 79.3789 350.547C78.3008 349.414 77.7617 347.902 77.7617 346.012V345.613C77.7617 344.355 78 343.234 78.4766 342.25C78.9609 341.258 79.6328 340.484 80.4922 339.93C81.3594 339.367 82.2969 339.086 83.3047 339.086C84.9531 339.086 86.2344 339.629 87.1484 340.715C88.0625 341.801 88.5195 343.355 88.5195 345.379V346.281H79.9297C79.9609 347.531 80.3242 348.543 81.0195 349.316C81.7227 350.082 82.6133 350.465 83.6914 350.465C84.457 350.465 85.1055 350.309 85.6367 349.996C86.168 349.684 86.6328 349.27 87.0312 348.754L88.3555 349.785C87.293 351.418 85.6992 352.234 83.5742 352.234ZM83.3047 340.867C82.4297 340.867 81.6953 341.188 81.1016 341.828C80.5078 342.461 80.1406 343.352 80 344.5H86.3516V344.336C86.2891 343.234 85.9922 342.383 85.4609 341.781C84.9297 341.172 84.2109 340.867 83.3047 340.867ZM90.5234 345.555C90.5234 343.578 90.9805 342.008 91.8945 340.844C92.8086 339.672 94.0195 339.086 95.5273 339.086C97.0742 339.086 98.2812 339.633 99.1484 340.727L99.2539 339.32H101.234V351.695C101.234 353.336 100.746 354.629 99.7695 355.574C98.8008 356.52 97.4961 356.992 95.8555 356.992C94.9414 356.992 94.0469 356.797 93.1719 356.406C92.2969 356.016 91.6289 355.48 91.168 354.801L92.293 353.5C93.2227 354.648 94.3594 355.223 95.7031 355.223C96.7578 355.223 97.5781 354.926 98.1641 354.332C98.7578 353.738 99.0547 352.902 99.0547 351.824V350.734C98.1875 351.734 97.0039 352.234 95.5039 352.234C94.0195 352.234 92.8164 351.637 91.8945 350.441C90.9805 349.246 90.5234 347.617 90.5234 345.555ZM92.7031 345.801C92.7031 347.23 92.9961 348.355 93.582 349.176C94.168 349.988 94.9883 350.395 96.043 350.395C97.4102 350.395 98.4141 349.773 99.0547 348.531V342.742C98.3906 341.531 97.3945 340.926 96.0664 340.926C95.0117 340.926 94.1875 341.336 93.5938 342.156C93 342.977 92.7031 344.191 92.7031 345.801ZM108.664 348.824L111.617 339.32H113.938L108.84 353.957C108.051 356.066 106.797 357.121 105.078 357.121L104.668 357.086L103.859 356.934V355.176L104.445 355.223C105.18 355.223 105.75 355.074 106.156 354.777C106.57 354.48 106.91 353.938 107.176 353.148L107.656 351.859L103.133 339.32H105.5L108.664 348.824Z" fill="black"/>
<path d="M34.2383 393.098H30.2305V400H27.9688V382.938H33.6172C35.5391 382.938 37.0156 383.375 38.0469 384.25C39.0859 385.125 39.6055 386.398 39.6055 388.07C39.6055 389.133 39.3164 390.059 38.7383 390.848C38.168 391.637 37.3711 392.227 36.3477 392.617L40.3555 399.859V400H37.9414L34.2383 393.098ZM30.2305 391.258H33.6875C34.8047 391.258 35.6914 390.969 36.3477 390.391C37.0117 389.812 37.3438 389.039 37.3438 388.07C37.3438 387.016 37.0273 386.207 36.3945 385.645C35.7695 385.082 34.8633 384.797 33.6758 384.789H30.2305V391.258ZM47.6914 400.234C45.9727 400.234 44.5742 399.672 43.4961 398.547C42.418 397.414 41.8789 395.902 41.8789 394.012V393.613C41.8789 392.355 42.1172 391.234 42.5938 390.25C43.0781 389.258 43.75 388.484 44.6094 387.93C45.4766 387.367 46.4141 387.086 47.4219 387.086C49.0703 387.086 50.3516 387.629 51.2656 388.715C52.1797 389.801 52.6367 391.355 52.6367 393.379V394.281H44.0469C44.0781 395.531 44.4414 396.543 45.1367 397.316C45.8398 398.082 46.7305 398.465 47.8086 398.465C48.5742 398.465 49.2227 398.309 49.7539 397.996C50.2852 397.684 50.75 397.27 51.1484 396.754L52.4727 397.785C51.4102 399.418 49.8164 400.234 47.6914 400.234ZM47.4219 388.867C46.5469 388.867 45.8125 389.188 45.2188 389.828C44.625 390.461 44.2578 391.352 44.1172 392.5H50.4688V392.336C50.4062 391.234 50.1094 390.383 49.5781 389.781C49.0469 389.172 48.3281 388.867 47.4219 388.867ZM62.5391 396.637C62.5391 396.051 62.3164 395.598 61.8711 395.277C61.4336 394.949 60.6641 394.668 59.5625 394.434C58.4688 394.199 57.5977 393.918 56.9492 393.59C56.3086 393.262 55.832 392.871 55.5195 392.418C55.2148 391.965 55.0625 391.426 55.0625 390.801C55.0625 389.762 55.5 388.883 56.375 388.164C57.2578 387.445 58.3828 387.086 59.75 387.086C61.1875 387.086 62.3516 387.457 63.2422 388.199C64.1406 388.941 64.5898 389.891 64.5898 391.047H62.4102C62.4102 390.453 62.1562 389.941 61.6484 389.512C61.1484 389.082 60.5156 388.867 59.75 388.867C58.9609 388.867 58.3438 389.039 57.8984 389.383C57.4531 389.727 57.2305 390.176 57.2305 390.73C57.2305 391.254 57.4375 391.648 57.8516 391.914C58.2656 392.18 59.0117 392.434 60.0898 392.676C61.1758 392.918 62.0547 393.207 62.7266 393.543C63.3984 393.879 63.8945 394.285 64.2148 394.762C64.543 395.23 64.707 395.805 64.707 396.484C64.707 397.617 64.2539 398.527 63.3477 399.215C62.4414 399.895 61.2656 400.234 59.8203 400.234C58.8047 400.234 57.9062 400.055 57.125 399.695C56.3438 399.336 55.7305 398.836 55.2852 398.195C54.8477 397.547 54.6289 396.848 54.6289 396.098H56.7969C56.8359 396.824 57.125 397.402 57.6641 397.832C58.2109 398.254 58.9297 398.465 59.8203 398.465C60.6406 398.465 61.2969 398.301 61.7891 397.973C62.2891 397.637 62.5391 397.191 62.5391 396.637ZM66.957 393.543C66.957 392.301 67.1992 391.184 67.6836 390.191C68.1758 389.199 68.8555 388.434 69.7227 387.895C70.5977 387.355 71.5938 387.086 72.7109 387.086C74.4375 387.086 75.832 387.684 76.8945 388.879C77.9648 390.074 78.5 391.664 78.5 393.648V393.801C78.5 395.035 78.2617 396.145 77.7852 397.129C77.3164 398.105 76.6406 398.867 75.7578 399.414C74.8828 399.961 73.875 400.234 72.7344 400.234C71.0156 400.234 69.6211 399.637 68.5508 398.441C67.4883 397.246 66.957 395.664 66.957 393.695V393.543ZM69.1367 393.801C69.1367 395.207 69.4609 396.336 70.1094 397.188C70.7656 398.039 71.6406 398.465 72.7344 398.465C73.8359 398.465 74.7109 398.035 75.3594 397.176C76.0078 396.309 76.332 395.098 76.332 393.543C76.332 392.152 76 391.027 75.3359 390.168C74.6797 389.301 73.8047 388.867 72.7109 388.867C71.6406 388.867 70.7773 389.293 70.1211 390.145C69.4648 390.996 69.1367 392.215 69.1367 393.801ZM89.0469 398.746C88.2031 399.738 86.9648 400.234 85.332 400.234C83.9805 400.234 82.9492 399.844 82.2383 399.062C81.5352 398.273 81.1797 397.109 81.1719 395.57V387.32H83.3398V395.512C83.3398 397.434 84.1211 398.395 85.6836 398.395C87.3398 398.395 88.4414 397.777 88.9883 396.543V387.32H91.1562V400H89.0938L89.0469 398.746ZM100.59 389.266C100.262 389.211 99.9062 389.184 99.5234 389.184C98.1016 389.184 97.1367 389.789 96.6289 391V400H94.4609V387.32H96.5703L96.6055 388.785C97.3164 387.652 98.3242 387.086 99.6289 387.086C100.051 387.086 100.371 387.141 100.59 387.25V389.266ZM107.445 398.465C108.219 398.465 108.895 398.23 109.473 397.762C110.051 397.293 110.371 396.707 110.434 396.004H112.484C112.445 396.73 112.195 397.422 111.734 398.078C111.273 398.734 110.656 399.258 109.883 399.648C109.117 400.039 108.305 400.234 107.445 400.234C105.719 400.234 104.344 399.66 103.32 398.512C102.305 397.355 101.797 395.777 101.797 393.777V393.414C101.797 392.18 102.023 391.082 102.477 390.121C102.93 389.16 103.578 388.414 104.422 387.883C105.273 387.352 106.277 387.086 107.434 387.086C108.855 387.086 110.035 387.512 110.973 388.363C111.918 389.215 112.422 390.32 112.484 391.68H110.434C110.371 390.859 110.059 390.188 109.496 389.664C108.941 389.133 108.254 388.867 107.434 388.867C106.332 388.867 105.477 389.266 104.867 390.062C104.266 390.852 103.965 391.996 103.965 393.496V393.906C103.965 395.367 104.266 396.492 104.867 397.281C105.469 398.07 106.328 398.465 107.445 398.465ZM120.184 400.234C118.465 400.234 117.066 399.672 115.988 398.547C114.91 397.414 114.371 395.902 114.371 394.012V393.613C114.371 392.355 114.609 391.234 115.086 390.25C115.57 389.258 116.242 388.484 117.102 387.93C117.969 387.367 118.906 387.086 119.914 387.086C121.562 387.086 122.844 387.629 123.758 388.715C124.672 389.801 125.129 391.355 125.129 393.379V394.281H116.539C116.57 395.531 116.934 396.543 117.629 397.316C118.332 398.082 119.223 398.465 120.301 398.465C121.066 398.465 121.715 398.309 122.246 397.996C122.777 397.684 123.242 397.27 123.641 396.754L124.965 397.785C123.902 399.418 122.309 400.234 120.184 400.234ZM119.914 388.867C119.039 388.867 118.305 389.188 117.711 389.828C117.117 390.461 116.75 391.352 116.609 392.5H122.961V392.336C122.898 391.234 122.602 390.383 122.07 389.781C121.539 389.172 120.82 388.867 119.914 388.867ZM135.031 396.637C135.031 396.051 134.809 395.598 134.363 395.277C133.926 394.949 133.156 394.668 132.055 394.434C130.961 394.199 130.09 393.918 129.441 393.59C128.801 393.262 128.324 392.871 128.012 392.418C127.707 391.965 127.555 391.426 127.555 390.801C127.555 389.762 127.992 388.883 128.867 388.164C129.75 387.445 130.875 387.086 132.242 387.086C133.68 387.086 134.844 387.457 135.734 388.199C136.633 388.941 137.082 389.891 137.082 391.047H134.902C134.902 390.453 134.648 389.941 134.141 389.512C133.641 389.082 133.008 388.867 132.242 388.867C131.453 388.867 130.836 389.039 130.391 389.383C129.945 389.727 129.723 390.176 129.723 390.73C129.723 391.254 129.93 391.648 130.344 391.914C130.758 392.18 131.504 392.434 132.582 392.676C133.668 392.918 134.547 393.207 135.219 393.543C135.891 393.879 136.387 394.285 136.707 394.762C137.035 395.23 137.199 395.805 137.199 396.484C137.199 397.617 136.746 398.527 135.84 399.215C134.934 399.895 133.758 400.234 132.312 400.234C131.297 400.234 130.398 400.055 129.617 399.695C128.836 399.336 128.223 398.836 127.777 398.195C127.34 397.547 127.121 396.848 127.121 396.098H129.289C129.328 396.824 129.617 397.402 130.156 397.832C130.703 398.254 131.422 398.465 132.312 398.465C133.133 398.465 133.789 398.301 134.281 397.973C134.781 397.637 135.031 397.191 135.031 396.637Z" fill="black"/>
<line x1="13" y1="170.5" x2="243" y2="170.5" stroke="black" stroke-opacity="0.5"/>
<path d="M238 200L227.5 206.062V193.938L238 200Z" fill="black"/>
<path d="M238 392L227.5 398.062V385.938L238 392Z" fill="black"/>
<path d="M1020.39 326V308.938H1025.21C1026.69 308.938 1028 309.266 1029.14 309.922C1030.29 310.578 1031.16 311.512 1031.78 312.723C1032.41 313.934 1032.72 315.324 1032.73 316.895V317.984C1032.73 319.594 1032.42 321.004 1031.79 322.215C1031.18 323.426 1030.29 324.355 1029.13 325.004C1027.98 325.652 1026.64 325.984 1025.11 326H1020.39ZM1022.64 310.789V324.16H1025.01C1026.74 324.16 1028.09 323.621 1029.05 322.543C1030.02 321.465 1030.5 319.93 1030.5 317.938V316.941C1030.5 315.004 1030.05 313.5 1029.13 312.43C1028.23 311.352 1026.94 310.805 1025.27 310.789H1022.64ZM1049.27 318.02C1049.27 319.691 1048.98 321.152 1048.42 322.402C1047.86 323.645 1047.06 324.594 1046.03 325.25C1045 325.906 1043.8 326.234 1042.42 326.234C1041.08 326.234 1039.89 325.906 1038.85 325.25C1037.81 324.586 1037 323.645 1036.42 322.426C1035.85 321.199 1035.56 319.781 1035.54 318.172V316.941C1035.54 315.301 1035.83 313.852 1036.4 312.594C1036.97 311.336 1037.77 310.375 1038.81 309.711C1039.86 309.039 1041.05 308.703 1042.4 308.703C1043.77 308.703 1044.97 309.035 1046.01 309.699C1047.05 310.355 1047.86 311.312 1048.42 312.57C1048.98 313.82 1049.27 315.277 1049.27 316.941V318.02ZM1047.03 316.918C1047.03 314.895 1046.62 313.344 1045.81 312.266C1045 311.18 1043.86 310.637 1042.4 310.637C1040.98 310.637 1039.86 311.18 1039.04 312.266C1038.22 313.344 1037.8 314.844 1037.78 316.766V318.02C1037.78 319.98 1038.19 321.523 1039.01 322.648C1039.84 323.766 1040.98 324.324 1042.42 324.324C1043.88 324.324 1045 323.797 1045.8 322.742C1046.59 321.68 1047 320.16 1047.03 318.184V316.918ZM1065.19 320.586C1064.98 322.391 1064.31 323.785 1063.19 324.77C1062.07 325.746 1060.58 326.234 1058.72 326.234C1056.71 326.234 1055.09 325.512 1053.87 324.066C1052.66 322.621 1052.05 320.688 1052.05 318.266V316.625C1052.05 315.039 1052.34 313.645 1052.9 312.441C1053.47 311.238 1054.27 310.316 1055.31 309.676C1056.35 309.027 1057.55 308.703 1058.92 308.703C1060.73 308.703 1062.19 309.211 1063.28 310.227C1064.38 311.234 1065.01 312.633 1065.19 314.422H1062.93C1062.73 313.062 1062.31 312.078 1061.65 311.469C1061 310.859 1060.09 310.555 1058.92 310.555C1057.48 310.555 1056.36 311.086 1055.54 312.148C1054.72 313.211 1054.32 314.723 1054.32 316.684V318.336C1054.32 320.188 1054.7 321.66 1055.48 322.754C1056.25 323.848 1057.33 324.395 1058.72 324.395C1059.97 324.395 1060.93 324.113 1061.59 323.551C1062.27 322.98 1062.71 321.992 1062.93 320.586H1065.19ZM1080.29 308.938V320.539C1080.28 322.148 1079.77 323.465 1078.76 324.488C1077.76 325.512 1076.4 326.086 1074.68 326.211L1074.09 326.234C1072.22 326.234 1070.73 325.73 1069.62 324.723C1068.51 323.715 1067.95 322.328 1067.93 320.562V308.938H1070.16V320.492C1070.16 321.727 1070.5 322.688 1071.18 323.375C1071.86 324.055 1072.83 324.395 1074.09 324.395C1075.36 324.395 1076.33 324.055 1077 323.375C1077.68 322.695 1078.02 321.738 1078.02 320.504V308.938H1080.29ZM1086.74 308.938L1092.32 322.859L1097.9 308.938H1100.82V326H1098.57V319.355L1098.78 312.184L1093.18 326H1091.45L1085.86 312.219L1086.09 319.355V326H1083.84V308.938H1086.74ZM1114.43 318.113H1107.04V324.16H1115.63V326H1104.79V308.938H1115.51V310.789H1107.04V316.273H1114.43V318.113ZM1131.54 326H1129.28L1120.69 312.852V326H1118.43V308.938H1120.69L1129.3 322.145V308.938H1131.54V326ZM1146.98 310.789H1141.49V326H1139.25V310.789H1133.78V308.938H1146.98V310.789ZM1154.35 318.395C1152.42 317.84 1151.01 317.16 1150.13 316.355C1149.25 315.543 1148.82 314.543 1148.82 313.355C1148.82 312.012 1149.35 310.902 1150.42 310.027C1151.5 309.145 1152.9 308.703 1154.62 308.703C1155.79 308.703 1156.83 308.93 1157.75 309.383C1158.67 309.836 1159.38 310.461 1159.88 311.258C1160.39 312.055 1160.64 312.926 1160.64 313.871H1158.38C1158.38 312.84 1158.05 312.031 1157.39 311.445C1156.74 310.852 1155.81 310.555 1154.62 310.555C1153.51 310.555 1152.64 310.801 1152.02 311.293C1151.4 311.777 1151.09 312.453 1151.09 313.32C1151.09 314.016 1151.38 314.605 1151.97 315.09C1152.56 315.566 1153.57 316.004 1154.98 316.402C1156.4 316.801 1157.51 317.242 1158.31 317.727C1159.11 318.203 1159.71 318.762 1160.09 319.402C1160.48 320.043 1160.68 320.797 1160.68 321.664C1160.68 323.047 1160.14 324.156 1159.06 324.992C1157.98 325.82 1156.54 326.234 1154.73 326.234C1153.56 326.234 1152.47 326.012 1151.45 325.566C1150.44 325.113 1149.65 324.496 1149.1 323.715C1148.55 322.934 1148.28 322.047 1148.28 321.055H1150.54C1150.54 322.086 1150.92 322.902 1151.68 323.504C1152.44 324.098 1153.46 324.395 1154.73 324.395C1155.92 324.395 1156.83 324.152 1157.46 323.668C1158.1 323.184 1158.41 322.523 1158.41 321.688C1158.41 320.852 1158.12 320.207 1157.54 319.754C1156.95 319.293 1155.89 318.84 1154.35 318.395Z" fill="white"/>
<path d="M1041.81 736.465H1034.65V744H1032.4V726.938H1042.97V728.789H1034.65V734.625H1041.81V736.465ZM1048.08 744H1045.83V726.938H1048.08V744ZM1065.32 744H1063.05L1054.46 730.852V744H1052.2V726.938H1054.46L1063.08 740.145V726.938H1065.32V744ZM1078.95 739.547H1071.8L1070.19 744H1067.87L1074.39 726.938H1076.36L1082.88 744H1080.57L1078.95 739.547ZM1072.48 737.695H1078.28L1075.37 729.715L1072.48 737.695ZM1098.29 744H1096.03L1087.44 730.852V744H1085.18V726.938H1087.44L1096.05 740.145V726.938H1098.29V744ZM1114.84 738.586C1114.63 740.391 1113.96 741.785 1112.84 742.77C1111.72 743.746 1110.23 744.234 1108.37 744.234C1106.36 744.234 1104.74 743.512 1103.52 742.066C1102.31 740.621 1101.7 738.688 1101.7 736.266V734.625C1101.7 733.039 1101.98 731.645 1102.55 730.441C1103.12 729.238 1103.92 728.316 1104.96 727.676C1106 727.027 1107.2 726.703 1108.57 726.703C1110.38 726.703 1111.84 727.211 1112.93 728.227C1114.02 729.234 1114.66 730.633 1114.84 732.422H1112.58C1112.38 731.062 1111.96 730.078 1111.3 729.469C1110.65 728.859 1109.74 728.555 1108.57 728.555C1107.13 728.555 1106 729.086 1105.18 730.148C1104.37 731.211 1103.96 732.723 1103.96 734.684V736.336C1103.96 738.188 1104.35 739.66 1105.12 740.754C1105.9 741.848 1106.98 742.395 1108.37 742.395C1109.62 742.395 1110.58 742.113 1111.24 741.551C1111.91 740.98 1112.36 739.992 1112.58 738.586H1114.84ZM1127.57 736.113H1120.17V742.16H1128.76V744H1117.92V726.938H1128.64V728.789H1120.17V734.273H1127.57V736.113Z" fill="white"/>
<rect x="401.5" y="142.5" width="414" height="795" stroke="black"/>
<rect x="401" y="142" width="415" height="50" fill="black"/>
<path d="M549.465 168.32V175H547.215V157.938H553.508C555.375 157.938 556.836 158.414 557.891 159.367C558.953 160.32 559.484 161.582 559.484 163.152C559.484 164.809 558.965 166.086 557.926 166.984C556.895 167.875 555.414 168.32 553.484 168.32H549.465ZM549.465 166.48H553.508C554.711 166.48 555.633 166.199 556.273 165.637C556.914 165.066 557.234 164.246 557.234 163.176C557.234 162.16 556.914 161.348 556.273 160.738C555.633 160.129 554.754 159.812 553.637 159.789H549.465V166.48ZM575.48 167.02C575.48 168.691 575.199 170.152 574.637 171.402C574.074 172.645 573.277 173.594 572.246 174.25C571.215 174.906 570.012 175.234 568.637 175.234C567.293 175.234 566.102 174.906 565.062 174.25C564.023 173.586 563.215 172.645 562.637 171.426C562.066 170.199 561.773 168.781 561.758 167.172V165.941C561.758 164.301 562.043 162.852 562.613 161.594C563.184 160.336 563.988 159.375 565.027 158.711C566.074 158.039 567.27 157.703 568.613 157.703C569.98 157.703 571.184 158.035 572.223 158.699C573.27 159.355 574.074 160.312 574.637 161.57C575.199 162.82 575.48 164.277 575.48 165.941V167.02ZM573.242 165.918C573.242 163.895 572.836 162.344 572.023 161.266C571.211 160.18 570.074 159.637 568.613 159.637C567.191 159.637 566.07 160.18 565.25 161.266C564.438 162.344 564.02 163.844 563.996 165.766V167.02C563.996 168.98 564.406 170.523 565.227 171.648C566.055 172.766 567.191 173.324 568.637 173.324C570.09 173.324 571.215 172.797 572.012 171.742C572.809 170.68 573.219 169.16 573.242 167.184V165.918ZM585.113 168.098H581.105V175H578.844V157.938H584.492C586.414 157.938 587.891 158.375 588.922 159.25C589.961 160.125 590.48 161.398 590.48 163.07C590.48 164.133 590.191 165.059 589.613 165.848C589.043 166.637 588.246 167.227 587.223 167.617L591.23 174.859V175H588.816L585.113 168.098ZM581.105 166.258H584.562C585.68 166.258 586.566 165.969 587.223 165.391C587.887 164.812 588.219 164.039 588.219 163.07C588.219 162.016 587.902 161.207 587.27 160.645C586.645 160.082 585.738 159.797 584.551 159.789H581.105V166.258ZM604.496 159.789H599.012V175H596.773V159.789H591.301V157.938H604.496V159.789ZM616.438 167.465H609.277V175H607.027V157.938H617.598V159.789H609.277V165.625H616.438V167.465ZM633.418 167.02C633.418 168.691 633.137 170.152 632.574 171.402C632.012 172.645 631.215 173.594 630.184 174.25C629.152 174.906 627.949 175.234 626.574 175.234C625.23 175.234 624.039 174.906 623 174.25C621.961 173.586 621.152 172.645 620.574 171.426C620.004 170.199 619.711 168.781 619.695 167.172V165.941C619.695 164.301 619.98 162.852 620.551 161.594C621.121 160.336 621.926 159.375 622.965 158.711C624.012 158.039 625.207 157.703 626.551 157.703C627.918 157.703 629.121 158.035 630.16 158.699C631.207 159.355 632.012 160.312 632.574 161.57C633.137 162.82 633.418 164.277 633.418 165.941V167.02ZM631.18 165.918C631.18 163.895 630.773 162.344 629.961 161.266C629.148 160.18 628.012 159.637 626.551 159.637C625.129 159.637 624.008 160.18 623.188 161.266C622.375 162.344 621.957 163.844 621.934 165.766V167.02C621.934 168.98 622.344 170.523 623.164 171.648C623.992 172.766 625.129 173.324 626.574 173.324C628.027 173.324 629.152 172.797 629.949 171.742C630.746 170.68 631.156 169.16 631.18 167.184V165.918ZM639.055 173.16H647.141V175H636.793V157.938H639.055V173.16ZM652.121 175H649.871V157.938H652.121V175ZM669.371 167.02C669.371 168.691 669.09 170.152 668.527 171.402C667.965 172.645 667.168 173.594 666.137 174.25C665.105 174.906 663.902 175.234 662.527 175.234C661.184 175.234 659.992 174.906 658.953 174.25C657.914 173.586 657.105 172.645 656.527 171.426C655.957 170.199 655.664 168.781 655.648 167.172V165.941C655.648 164.301 655.934 162.852 656.504 161.594C657.074 160.336 657.879 159.375 658.918 158.711C659.965 158.039 661.16 157.703 662.504 157.703C663.871 157.703 665.074 158.035 666.113 158.699C667.16 159.355 667.965 160.312 668.527 161.57C669.09 162.82 669.371 164.277 669.371 165.941V167.02ZM667.133 165.918C667.133 163.895 666.727 162.344 665.914 161.266C665.102 160.18 663.965 159.637 662.504 159.637C661.082 159.637 659.961 160.18 659.141 161.266C658.328 162.344 657.91 163.844 657.887 165.766V167.02C657.887 168.98 658.297 170.523 659.117 171.648C659.945 172.766 661.082 173.324 662.527 173.324C663.98 173.324 665.105 172.797 665.902 171.742C666.699 170.68 667.109 169.16 667.133 167.184V165.918Z" fill="white"/>
<rect x="873.5" y="142.5" width="414" height="795" stroke="black"/>
<rect x="873" y="142" width="415" height="50" fill="black"/>
<path d="M1032.59 159.789H1027.11V175H1024.87V159.789H1019.4V157.938H1032.59V159.789ZM1047.92 167.02C1047.92 168.691 1047.64 170.152 1047.08 171.402C1046.52 172.645 1045.72 173.594 1044.69 174.25C1043.66 174.906 1042.45 175.234 1041.08 175.234C1039.73 175.234 1038.54 174.906 1037.5 174.25C1036.46 173.586 1035.66 172.645 1035.08 171.426C1034.51 170.199 1034.21 168.781 1034.2 167.172V165.941C1034.2 164.301 1034.48 162.852 1035.05 161.594C1035.62 160.336 1036.43 159.375 1037.47 158.711C1038.52 158.039 1039.71 157.703 1041.05 157.703C1042.42 157.703 1043.62 158.035 1044.66 158.699C1045.71 159.355 1046.52 160.312 1047.08 161.57C1047.64 162.82 1047.92 164.277 1047.92 165.941V167.02ZM1045.68 165.918C1045.68 163.895 1045.28 162.344 1044.46 161.266C1043.65 160.18 1042.52 159.637 1041.05 159.637C1039.63 159.637 1038.51 160.18 1037.69 161.266C1036.88 162.344 1036.46 163.844 1036.44 165.766V167.02C1036.44 168.98 1036.85 170.523 1037.67 171.648C1038.5 172.766 1039.63 173.324 1041.08 173.324C1042.53 173.324 1043.66 172.797 1044.45 171.742C1045.25 170.68 1045.66 169.16 1045.68 167.184V165.918ZM1055.47 168.637H1049.75V166.867H1055.47V168.637ZM1057.93 175V157.938H1062.75C1064.23 157.938 1065.54 158.266 1066.68 158.922C1067.82 159.578 1068.7 160.512 1069.32 161.723C1069.95 162.934 1070.26 164.324 1070.27 165.895V166.984C1070.27 168.594 1069.96 170.004 1069.33 171.215C1068.71 172.426 1067.83 173.355 1066.67 174.004C1065.52 174.652 1064.18 174.984 1062.65 175H1057.93ZM1060.18 159.789V173.16H1062.55C1064.28 173.16 1065.63 172.621 1066.59 171.543C1067.56 170.465 1068.04 168.93 1068.04 166.938V165.941C1068.04 164.004 1067.59 162.5 1066.67 161.43C1065.77 160.352 1064.48 159.805 1062.8 159.789H1060.18ZM1086.8 167.02C1086.8 168.691 1086.52 170.152 1085.96 171.402C1085.4 172.645 1084.6 173.594 1083.57 174.25C1082.54 174.906 1081.34 175.234 1079.96 175.234C1078.62 175.234 1077.43 174.906 1076.39 174.25C1075.35 173.586 1074.54 172.645 1073.96 171.426C1073.39 170.199 1073.1 168.781 1073.08 167.172V165.941C1073.08 164.301 1073.37 162.852 1073.94 161.594C1074.51 160.336 1075.31 159.375 1076.35 158.711C1077.4 158.039 1078.59 157.703 1079.94 157.703C1081.3 157.703 1082.51 158.035 1083.55 158.699C1084.59 159.355 1085.4 160.312 1085.96 161.57C1086.52 162.82 1086.8 164.277 1086.8 165.941V167.02ZM1084.57 165.918C1084.57 163.895 1084.16 162.344 1083.35 161.266C1082.54 160.18 1081.4 159.637 1079.94 159.637C1078.52 159.637 1077.39 160.18 1076.57 161.266C1075.76 162.344 1075.34 163.844 1075.32 165.766V167.02C1075.32 168.98 1075.73 170.523 1076.55 171.648C1077.38 172.766 1078.52 173.324 1079.96 173.324C1081.41 173.324 1082.54 172.797 1083.34 171.742C1084.13 170.68 1084.54 169.16 1084.57 167.184V165.918ZM1098.39 173.16H1106.48V175H1096.13V157.938H1098.39V173.16ZM1111.46 175H1109.21V157.938H1111.46V175ZM1120.61 167.395C1118.68 166.84 1117.28 166.16 1116.39 165.355C1115.52 164.543 1115.08 163.543 1115.08 162.355C1115.08 161.012 1115.62 159.902 1116.69 159.027C1117.77 158.145 1119.16 157.703 1120.88 157.703C1122.05 157.703 1123.1 157.93 1124.01 158.383C1124.93 158.836 1125.64 159.461 1126.14 160.258C1126.65 161.055 1126.91 161.926 1126.91 162.871H1124.64C1124.64 161.84 1124.32 161.031 1123.66 160.445C1123 159.852 1122.08 159.555 1120.88 159.555C1119.77 159.555 1118.91 159.801 1118.28 160.293C1117.66 160.777 1117.36 161.453 1117.36 162.32C1117.36 163.016 1117.65 163.605 1118.23 164.09C1118.83 164.566 1119.83 165.004 1121.25 165.402C1122.67 165.801 1123.78 166.242 1124.57 166.727C1125.38 167.203 1125.97 167.762 1126.36 168.402C1126.75 169.043 1126.94 169.797 1126.94 170.664C1126.94 172.047 1126.4 173.156 1125.32 173.992C1124.25 174.82 1122.8 175.234 1121 175.234C1119.83 175.234 1118.73 175.012 1117.72 174.566C1116.7 174.113 1115.92 173.496 1115.36 172.715C1114.82 171.934 1114.54 171.047 1114.54 170.055H1116.8C1116.8 171.086 1117.18 171.902 1117.94 172.504C1118.71 173.098 1119.73 173.395 1121 173.395C1122.19 173.395 1123.1 173.152 1123.73 172.668C1124.36 172.184 1124.68 171.523 1124.68 170.688C1124.68 169.852 1124.39 169.207 1123.8 168.754C1123.21 168.293 1122.15 167.84 1120.61 167.395ZM1141.62 159.789H1136.14V175H1133.9V159.789H1128.43V157.938H1141.62V159.789Z" fill="white"/>
<rect x="426" y="221" width="364" height="45" fill="#C4C4C4"/>
<rect x="898" y="221" width="364" height="83" fill="#C4C4C4"/>
<rect x="898" y="333" width="364" height="55" fill="#C4C4C4"/>
<rect x="898" y="417" width="364" height="43" fill="#C4C4C4"/>
<rect x="426" y="285" width="364" height="45" fill="#C4C4C4"/>
<rect x="426" y="349" width="364" height="45" fill="#C4C4C4"/>
<rect x="426" y="413" width="364" height="45" fill="#C4C4C4"/>
</svg>
