<svg width="1440" height="1024" viewBox="0 0 1440 1024" fill="none" xmlns="http://www.w3.org/2000/svg">
<rect width="1440" height="1024" fill="white"/>
<rect width="1440" height="60" fill="black"/>
<path d="M36.6475 33.8955C36.4814 36.1904 35.6318 37.9971 34.0986 39.3154C32.5752 40.6338 30.5635 41.293 28.0635 41.293C25.3291 41.293 23.1758 40.375 21.6035 38.5391C20.041 36.6934 19.2598 34.1641 19.2598 30.9512V29.6475C19.2598 27.5967 19.6211 25.79 20.3438 24.2275C21.0664 22.665 22.0967 21.4688 23.4346 20.6387C24.7822 19.7988 26.3447 19.3789 28.1221 19.3789C30.583 19.3789 32.5654 20.0381 34.0693 21.3564C35.5732 22.6748 36.4424 24.5254 36.6768 26.9082H32.2822C32.1748 25.5312 31.7891 24.5352 31.125 23.9199C30.4707 23.2949 29.4697 22.9824 28.1221 22.9824C26.6572 22.9824 25.5586 23.5098 24.8262 24.5645C24.1035 25.6094 23.7324 27.2354 23.7129 29.4424V31.0537C23.7129 33.3584 24.0596 35.043 24.7529 36.1074C25.4561 37.1719 26.5596 37.7041 28.0635 37.7041C29.4209 37.7041 30.4316 37.3965 31.0957 36.7812C31.7695 36.1562 32.1553 35.1943 32.2529 33.8955H36.6475ZM43.9277 37.4697H53.2588V41H39.5332V19.6719H43.9277V37.4697ZM60.4658 41H56.0713V19.6719H60.4658V41ZM77.3848 31.7568H68.9473V37.4697H78.8496V41H64.5527V19.6719H78.8203V23.2314H68.9473V28.3145H77.3848V31.7568ZM98.7715 41H94.377L85.8223 26.9668V41H81.4277V19.6719H85.8223L94.3916 33.7344V19.6719H98.7715V41ZM118.225 23.2314H111.691V41H107.297V23.2314H100.852V19.6719H118.225V23.2314ZM131.73 33.4854V41H127.336V19.6719H135.656C137.258 19.6719 138.664 19.9648 139.875 20.5508C141.096 21.1367 142.033 21.9717 142.688 23.0557C143.342 24.1299 143.669 25.3555 143.669 26.7324C143.669 28.8223 142.951 30.4727 141.516 31.6836C140.09 32.8848 138.112 33.4854 135.583 33.4854H131.73ZM131.73 29.9258H135.656C136.818 29.9258 137.702 29.6523 138.308 29.1055C138.923 28.5586 139.23 27.7773 139.23 26.7617C139.23 25.7168 138.923 24.8721 138.308 24.2275C137.692 23.583 136.843 23.251 135.759 23.2314H131.73V29.9258ZM164.221 30.8193C164.221 32.9189 163.85 34.7598 163.107 36.3418C162.365 37.9238 161.301 39.1445 159.914 40.0039C158.537 40.8633 156.955 41.293 155.168 41.293C153.4 41.293 151.823 40.8682 150.437 40.0186C149.05 39.1689 147.976 37.958 147.214 36.3857C146.452 34.8037 146.066 32.9873 146.057 30.9365V29.8818C146.057 27.7822 146.433 25.9365 147.185 24.3447C147.946 22.7432 149.016 21.5176 150.393 20.668C151.779 19.8086 153.361 19.3789 155.139 19.3789C156.916 19.3789 158.493 19.8086 159.87 20.668C161.257 21.5176 162.326 22.7432 163.078 24.3447C163.84 25.9365 164.221 27.7773 164.221 29.8672V30.8193ZM159.768 29.8525C159.768 27.6162 159.367 25.917 158.566 24.7549C157.766 23.5928 156.623 23.0117 155.139 23.0117C153.664 23.0117 152.526 23.5879 151.726 24.7402C150.925 25.8828 150.52 27.5625 150.51 29.7793V30.8193C150.51 32.9971 150.91 34.6865 151.711 35.8877C152.512 37.0889 153.664 37.6895 155.168 37.6895C156.643 37.6895 157.775 37.1133 158.566 35.9609C159.357 34.7988 159.758 33.1094 159.768 30.8926V29.8525ZM175.31 33.1924H171.809V41H167.414V19.6719H175.339C177.858 19.6719 179.802 20.2334 181.169 21.3564C182.536 22.4795 183.22 24.0664 183.22 26.1172C183.22 27.5723 182.902 28.7881 182.268 29.7646C181.643 30.7314 180.69 31.5029 179.411 32.0791L184.025 40.7949V41H179.309L175.31 33.1924ZM171.809 29.6328H175.354C176.457 29.6328 177.312 29.3545 177.917 28.7979C178.522 28.2314 178.825 27.4551 178.825 26.4688C178.825 25.4629 178.537 24.6719 177.961 24.0957C177.395 23.5195 176.521 23.2314 175.339 23.2314H171.809V29.6328ZM201.896 23.2314H195.363V41H190.969V23.2314H184.523V19.6719H201.896V23.2314ZM214.699 36.6055H206.994L205.529 41H200.856L208.796 19.6719H212.868L220.852 41H216.179L214.699 36.6055ZM208.181 33.0459H213.513L210.832 25.0625L208.181 33.0459ZM227.238 37.4697H236.569V41H222.844V19.6719H227.238V37.4697Z" fill="white"/>
<path d="M392.887 91.9375L398.465 105.859L404.043 91.9375H406.961V109H404.711V102.355L404.922 95.1836L399.32 109H397.598L392.008 95.2188L392.23 102.355V109H389.98V91.9375H392.887ZM410.02 102.543C410.02 101.301 410.262 100.184 410.746 99.1914C411.238 98.1992 411.918 97.4336 412.785 96.8945C413.66 96.3555 414.656 96.0859 415.773 96.0859C417.5 96.0859 418.895 96.6836 419.957 97.8789C421.027 99.0742 421.562 100.664 421.562 102.648V102.801C421.562 104.035 421.324 105.145 420.848 106.129C420.379 107.105 419.703 107.867 418.82 108.414C417.945 108.961 416.938 109.234 415.797 109.234C414.078 109.234 412.684 108.637 411.613 107.441C410.551 106.246 410.02 104.664 410.02 102.695V102.543ZM412.199 102.801C412.199 104.207 412.523 105.336 413.172 106.188C413.828 107.039 414.703 107.465 415.797 107.465C416.898 107.465 417.773 107.035 418.422 106.176C419.07 105.309 419.395 104.098 419.395 102.543C419.395 101.152 419.062 100.027 418.398 99.168C417.742 98.3008 416.867 97.8672 415.773 97.8672C414.703 97.8672 413.84 98.293 413.184 99.1445C412.527 99.9961 412.199 101.215 412.199 102.801ZM426.332 96.3203L426.402 97.9141C427.371 96.6953 428.637 96.0859 430.199 96.0859C432.879 96.0859 434.23 97.5977 434.254 100.621V109H432.086V100.609C432.078 99.6953 431.867 99.0195 431.453 98.582C431.047 98.1445 430.41 97.9258 429.543 97.9258C428.84 97.9258 428.223 98.1133 427.691 98.4883C427.16 98.8633 426.746 99.3555 426.449 99.9648V109H424.281V96.3203H426.332ZM436.996 102.555C436.996 100.609 437.457 99.0469 438.379 97.8672C439.301 96.6797 440.508 96.0859 442 96.0859C443.484 96.0859 444.66 96.5938 445.527 97.6094V91H447.695V109H445.703L445.598 107.641C444.73 108.703 443.523 109.234 441.977 109.234C440.508 109.234 439.309 108.633 438.379 107.43C437.457 106.227 436.996 104.656 436.996 102.719V102.555ZM439.164 102.801C439.164 104.238 439.461 105.363 440.055 106.176C440.648 106.988 441.469 107.395 442.516 107.395C443.891 107.395 444.895 106.777 445.527 105.543V99.7188C444.879 98.5234 443.883 97.9258 442.539 97.9258C441.477 97.9258 440.648 98.3359 440.055 99.1562C439.461 99.9766 439.164 101.191 439.164 102.801ZM458.898 109C458.773 108.75 458.672 108.305 458.594 107.664C457.586 108.711 456.383 109.234 454.984 109.234C453.734 109.234 452.707 108.883 451.902 108.18C451.105 107.469 450.707 106.57 450.707 105.484C450.707 104.164 451.207 103.141 452.207 102.414C453.215 101.68 454.629 101.312 456.449 101.312H458.559V100.316C458.559 99.5586 458.332 98.957 457.879 98.5117C457.426 98.0586 456.758 97.832 455.875 97.832C455.102 97.832 454.453 98.0273 453.93 98.418C453.406 98.8086 453.145 99.2812 453.145 99.8359H450.965C450.965 99.2031 451.188 98.5938 451.633 98.0078C452.086 97.4141 452.695 96.9453 453.461 96.6016C454.234 96.2578 455.082 96.0859 456.004 96.0859C457.465 96.0859 458.609 96.4531 459.438 97.1875C460.266 97.9141 460.695 98.918 460.727 100.199V106.035C460.727 107.199 460.875 108.125 461.172 108.812V109H458.898ZM455.301 107.348C455.98 107.348 456.625 107.172 457.234 106.82C457.844 106.469 458.285 106.012 458.559 105.449V102.848H456.859C454.203 102.848 452.875 103.625 452.875 105.18C452.875 105.859 453.102 106.391 453.555 106.773C454.008 107.156 454.59 107.348 455.301 107.348ZM468.086 105.824L471.039 96.3203H473.359L468.262 110.957C467.473 113.066 466.219 114.121 464.5 114.121L464.09 114.086L463.281 113.934V112.176L463.867 112.223C464.602 112.223 465.172 112.074 465.578 111.777C465.992 111.48 466.332 110.938 466.598 110.148L467.078 108.859L462.555 96.3203H464.922L468.086 105.824ZM473.969 112.398L472.738 111.555C473.473 110.531 473.855 109.477 473.887 108.391V106.434H476.008V108.133C476.008 108.922 475.812 109.711 475.422 110.5C475.039 111.289 474.555 111.922 473.969 112.398ZM494.465 104.547H487.316L485.711 109H483.391L489.906 91.9375H491.875L498.402 109H496.094L494.465 104.547ZM487.996 102.695H493.797L490.891 94.7148L487.996 102.695ZM508.047 107.746C507.203 108.738 505.965 109.234 504.332 109.234C502.98 109.234 501.949 108.844 501.238 108.062C500.535 107.273 500.18 106.109 500.172 104.57V96.3203H502.34V104.512C502.34 106.434 503.121 107.395 504.684 107.395C506.34 107.395 507.441 106.777 507.988 105.543V96.3203H510.156V109H508.094L508.047 107.746ZM512.945 102.555C512.945 100.578 513.402 99.0078 514.316 97.8438C515.23 96.6719 516.441 96.0859 517.949 96.0859C519.496 96.0859 520.703 96.6328 521.57 97.7266L521.676 96.3203H523.656V108.695C523.656 110.336 523.168 111.629 522.191 112.574C521.223 113.52 519.918 113.992 518.277 113.992C517.363 113.992 516.469 113.797 515.594 113.406C514.719 113.016 514.051 112.48 513.59 111.801L514.715 110.5C515.645 111.648 516.781 112.223 518.125 112.223C519.18 112.223 520 111.926 520.586 111.332C521.18 110.738 521.477 109.902 521.477 108.824V107.734C520.609 108.734 519.426 109.234 517.926 109.234C516.441 109.234 515.238 108.637 514.316 107.441C513.402 106.246 512.945 104.617 512.945 102.555ZM515.125 102.801C515.125 104.23 515.418 105.355 516.004 106.176C516.59 106.988 517.41 107.395 518.465 107.395C519.832 107.395 520.836 106.773 521.477 105.531V99.7422C520.812 98.5312 519.816 97.9258 518.488 97.9258C517.434 97.9258 516.609 98.3359 516.016 99.1562C515.422 99.9766 515.125 101.191 515.125 102.801ZM534.766 107.746C533.922 108.738 532.684 109.234 531.051 109.234C529.699 109.234 528.668 108.844 527.957 108.062C527.254 107.273 526.898 106.109 526.891 104.57V96.3203H529.059V104.512C529.059 106.434 529.84 107.395 531.402 107.395C533.059 107.395 534.16 106.777 534.707 105.543V96.3203H536.875V109H534.812L534.766 107.746ZM547.562 105.637C547.562 105.051 547.34 104.598 546.895 104.277C546.457 103.949 545.688 103.668 544.586 103.434C543.492 103.199 542.621 102.918 541.973 102.59C541.332 102.262 540.855 101.871 540.543 101.418C540.238 100.965 540.086 100.426 540.086 99.8008C540.086 98.7617 540.523 97.8828 541.398 97.1641C542.281 96.4453 543.406 96.0859 544.773 96.0859C546.211 96.0859 547.375 96.457 548.266 97.1992C549.164 97.9414 549.613 98.8906 549.613 100.047H547.434C547.434 99.4531 547.18 98.9414 546.672 98.5117C546.172 98.082 545.539 97.8672 544.773 97.8672C543.984 97.8672 543.367 98.0391 542.922 98.3828C542.477 98.7266 542.254 99.1758 542.254 99.7305C542.254 100.254 542.461 100.648 542.875 100.914C543.289 101.18 544.035 101.434 545.113 101.676C546.199 101.918 547.078 102.207 547.75 102.543C548.422 102.879 548.918 103.285 549.238 103.762C549.566 104.23 549.73 104.805 549.73 105.484C549.73 106.617 549.277 107.527 548.371 108.215C547.465 108.895 546.289 109.234 544.844 109.234C543.828 109.234 542.93 109.055 542.148 108.695C541.367 108.336 540.754 107.836 540.309 107.195C539.871 106.547 539.652 105.848 539.652 105.098H541.82C541.859 105.824 542.148 106.402 542.688 106.832C543.234 107.254 543.953 107.465 544.844 107.465C545.664 107.465 546.32 107.301 546.812 106.973C547.312 106.637 547.562 106.191 547.562 105.637ZM555.496 93.25V96.3203H557.863V97.9961H555.496V105.859C555.496 106.367 555.602 106.75 555.812 107.008C556.023 107.258 556.383 107.383 556.891 107.383C557.141 107.383 557.484 107.336 557.922 107.242V109C557.352 109.156 556.797 109.234 556.258 109.234C555.289 109.234 554.559 108.941 554.066 108.355C553.574 107.77 553.328 106.938 553.328 105.859V97.9961H551.02V96.3203H553.328V93.25H555.496ZM569.289 99.4141H570.918C571.941 99.3984 572.746 99.1289 573.332 98.6055C573.918 98.082 574.211 97.375 574.211 96.4844C574.211 94.4844 573.215 93.4844 571.223 93.4844C570.285 93.4844 569.535 93.7539 568.973 94.293C568.418 94.8242 568.141 95.5312 568.141 96.4141H565.973C565.973 95.0625 566.465 93.9414 567.449 93.0508C568.441 92.1523 569.699 91.7031 571.223 91.7031C572.832 91.7031 574.094 92.1289 575.008 92.9805C575.922 93.832 576.379 95.0156 576.379 96.5312C576.379 97.2734 576.137 97.9922 575.652 98.6875C575.176 99.3828 574.523 99.9023 573.695 100.246C574.633 100.543 575.355 101.035 575.863 101.723C576.379 102.41 576.637 103.25 576.637 104.242C576.637 105.773 576.137 106.988 575.137 107.887C574.137 108.785 572.836 109.234 571.234 109.234C569.633 109.234 568.328 108.801 567.32 107.934C566.32 107.066 565.82 105.922 565.82 104.5H568C568 105.398 568.293 106.117 568.879 106.656C569.465 107.195 570.25 107.465 571.234 107.465C572.281 107.465 573.082 107.191 573.637 106.645C574.191 106.098 574.469 105.312 574.469 104.289C574.469 103.297 574.164 102.535 573.555 102.004C572.945 101.473 572.066 101.199 570.918 101.184H569.289V99.4141ZM579.766 112.398L578.535 111.555C579.27 110.531 579.652 109.477 579.684 108.391V106.434H581.805V108.133C581.805 108.922 581.609 109.711 581.219 110.5C580.836 111.289 580.352 111.922 579.766 112.398ZM601.457 109H590.277V107.441L596.184 100.879C597.059 99.8867 597.66 99.082 597.988 98.4648C598.324 97.8398 598.492 97.1953 598.492 96.5312C598.492 95.6406 598.223 94.9102 597.684 94.3398C597.145 93.7695 596.426 93.4844 595.527 93.4844C594.449 93.4844 593.609 93.793 593.008 94.4102C592.414 95.0195 592.117 95.8711 592.117 96.9648H589.949C589.949 95.3945 590.453 94.125 591.461 93.1562C592.477 92.1875 593.832 91.7031 595.527 91.7031C597.113 91.7031 598.367 92.1211 599.289 92.957C600.211 93.7852 600.672 94.8906 600.672 96.2734C600.672 97.9531 599.602 99.9531 597.461 102.273L592.891 107.23H601.457V109ZM614.453 101.723C614.453 104.262 614.02 106.148 613.152 107.383C612.285 108.617 610.93 109.234 609.086 109.234C607.266 109.234 605.918 108.633 605.043 107.43C604.168 106.219 603.715 104.414 603.684 102.016V99.1211C603.684 96.6133 604.117 94.75 604.984 93.5312C605.852 92.3125 607.211 91.7031 609.062 91.7031C610.898 91.7031 612.25 92.293 613.117 93.4727C613.984 94.6445 614.43 96.457 614.453 98.9102V101.723ZM612.285 98.7578C612.285 96.9219 612.027 95.5859 611.512 94.75C610.996 93.9062 610.18 93.4844 609.062 93.4844C607.953 93.4844 607.145 93.9023 606.637 94.7383C606.129 95.5742 605.867 96.8594 605.852 98.5938V102.062C605.852 103.906 606.117 105.27 606.648 106.152C607.188 107.027 608 107.465 609.086 107.465C610.156 107.465 610.949 107.051 611.465 106.223C611.988 105.395 612.262 104.09 612.285 102.309V98.7578ZM628.41 109H617.23V107.441L623.137 100.879C624.012 99.8867 624.613 99.082 624.941 98.4648C625.277 97.8398 625.445 97.1953 625.445 96.5312C625.445 95.6406 625.176 94.9102 624.637 94.3398C624.098 93.7695 623.379 93.4844 622.48 93.4844C621.402 93.4844 620.562 93.793 619.961 94.4102C619.367 95.0195 619.07 95.8711 619.07 96.9648H616.902C616.902 95.3945 617.406 94.125 618.414 93.1562C619.43 92.1875 620.785 91.7031 622.48 91.7031C624.066 91.7031 625.32 92.1211 626.242 92.957C627.164 93.7852 627.625 94.8906 627.625 96.2734C627.625 97.9531 626.555 99.9531 624.414 102.273L619.844 107.23H628.41V109ZM641.406 101.723C641.406 104.262 640.973 106.148 640.105 107.383C639.238 108.617 637.883 109.234 636.039 109.234C634.219 109.234 632.871 108.633 631.996 107.43C631.121 106.219 630.668 104.414 630.637 102.016V99.1211C630.637 96.6133 631.07 94.75 631.938 93.5312C632.805 92.3125 634.164 91.7031 636.016 91.7031C637.852 91.7031 639.203 92.293 640.07 93.4727C640.938 94.6445 641.383 96.457 641.406 98.9102V101.723ZM639.238 98.7578C639.238 96.9219 638.98 95.5859 638.465 94.75C637.949 93.9062 637.133 93.4844 636.016 93.4844C634.906 93.4844 634.098 93.9023 633.59 94.7383C633.082 95.5742 632.82 96.8594 632.805 98.5938V102.062C632.805 103.906 633.07 105.27 633.602 106.152C634.141 107.027 634.953 107.465 636.039 107.465C637.109 107.465 637.902 107.051 638.418 106.223C638.941 105.395 639.215 104.09 639.238 102.309V98.7578Z" fill="black"/>
<path d="M823.891 317V299.938H828.707C830.191 299.938 831.504 300.266 832.645 300.922C833.785 301.578 834.664 302.512 835.281 303.723C835.906 304.934 836.223 306.324 836.23 307.895V308.984C836.23 310.594 835.918 312.004 835.293 313.215C834.676 314.426 833.789 315.355 832.633 316.004C831.484 316.652 830.145 316.984 828.613 317H823.891ZM826.141 301.789V315.16H828.508C830.242 315.16 831.59 314.621 832.551 313.543C833.52 312.465 834.004 310.93 834.004 308.938V307.941C834.004 306.004 833.547 304.5 832.633 303.43C831.727 302.352 830.438 301.805 828.766 301.789H826.141ZM852.766 309.02C852.766 310.691 852.484 312.152 851.922 313.402C851.359 314.645 850.562 315.594 849.531 316.25C848.5 316.906 847.297 317.234 845.922 317.234C844.578 317.234 843.387 316.906 842.348 316.25C841.309 315.586 840.5 314.645 839.922 313.426C839.352 312.199 839.059 310.781 839.043 309.172V307.941C839.043 306.301 839.328 304.852 839.898 303.594C840.469 302.336 841.273 301.375 842.312 300.711C843.359 300.039 844.555 299.703 845.898 299.703C847.266 299.703 848.469 300.035 849.508 300.699C850.555 301.355 851.359 302.312 851.922 303.57C852.484 304.82 852.766 306.277 852.766 307.941V309.02ZM850.527 307.918C850.527 305.895 850.121 304.344 849.309 303.266C848.496 302.18 847.359 301.637 845.898 301.637C844.477 301.637 843.355 302.18 842.535 303.266C841.723 304.344 841.305 305.844 841.281 307.766V309.02C841.281 310.98 841.691 312.523 842.512 313.648C843.34 314.766 844.477 315.324 845.922 315.324C847.375 315.324 848.5 314.797 849.297 313.742C850.094 312.68 850.504 311.16 850.527 309.184V307.918ZM868.691 311.586C868.48 313.391 867.812 314.785 866.688 315.77C865.57 316.746 864.082 317.234 862.223 317.234C860.207 317.234 858.59 316.512 857.371 315.066C856.16 313.621 855.555 311.688 855.555 309.266V307.625C855.555 306.039 855.836 304.645 856.398 303.441C856.969 302.238 857.773 301.316 858.812 300.676C859.852 300.027 861.055 299.703 862.422 299.703C864.234 299.703 865.688 300.211 866.781 301.227C867.875 302.234 868.512 303.633 868.691 305.422H866.43C866.234 304.062 865.809 303.078 865.152 302.469C864.504 301.859 863.594 301.555 862.422 301.555C860.984 301.555 859.855 302.086 859.035 303.148C858.223 304.211 857.816 305.723 857.816 307.684V309.336C857.816 311.188 858.203 312.66 858.977 313.754C859.75 314.848 860.832 315.395 862.223 315.395C863.473 315.395 864.43 315.113 865.094 314.551C865.766 313.98 866.211 312.992 866.43 311.586H868.691ZM883.785 299.938V311.539C883.777 313.148 883.27 314.465 882.262 315.488C881.262 316.512 879.902 317.086 878.184 317.211L877.586 317.234C875.719 317.234 874.23 316.73 873.121 315.723C872.012 314.715 871.449 313.328 871.434 311.562V299.938H873.66V311.492C873.66 312.727 874 313.688 874.68 314.375C875.359 315.055 876.328 315.395 877.586 315.395C878.859 315.395 879.832 315.055 880.504 314.375C881.184 313.695 881.523 312.738 881.523 311.504V299.938H883.785ZM890.242 299.938L895.82 313.859L901.398 299.938H904.316V317H902.066V310.355L902.277 303.184L896.676 317H894.953L889.363 303.219L889.586 310.355V317H887.336V299.938H890.242ZM917.934 309.113H910.539V315.16H919.129V317H908.289V299.938H919.012V301.789H910.539V307.273H917.934V309.113ZM935.043 317H932.781L924.191 303.852V317H921.93V299.938H924.191L932.805 313.145V299.938H935.043V317ZM950.477 301.789H944.992V317H942.754V301.789H937.281V299.938H950.477V301.789ZM957.848 309.395C955.918 308.84 954.512 308.16 953.629 307.355C952.754 306.543 952.316 305.543 952.316 304.355C952.316 303.012 952.852 301.902 953.922 301.027C955 300.145 956.398 299.703 958.117 299.703C959.289 299.703 960.332 299.93 961.246 300.383C962.168 300.836 962.879 301.461 963.379 302.258C963.887 303.055 964.141 303.926 964.141 304.871H961.879C961.879 303.84 961.551 303.031 960.895 302.445C960.238 301.852 959.312 301.555 958.117 301.555C957.008 301.555 956.141 301.801 955.516 302.293C954.898 302.777 954.59 303.453 954.59 304.32C954.59 305.016 954.883 305.605 955.469 306.09C956.062 306.566 957.066 307.004 958.48 307.402C959.902 307.801 961.012 308.242 961.809 308.727C962.613 309.203 963.207 309.762 963.59 310.402C963.98 311.043 964.176 311.797 964.176 312.664C964.176 314.047 963.637 315.156 962.559 315.992C961.48 316.82 960.039 317.234 958.234 317.234C957.062 317.234 955.969 317.012 954.953 316.566C953.938 316.113 953.152 315.496 952.598 314.715C952.051 313.934 951.777 313.047 951.777 312.055H954.039C954.039 313.086 954.418 313.902 955.176 314.504C955.941 315.098 956.961 315.395 958.234 315.395C959.422 315.395 960.332 315.152 960.965 314.668C961.598 314.184 961.914 313.523 961.914 312.688C961.914 311.852 961.621 311.207 961.035 310.754C960.449 310.293 959.387 309.84 957.848 309.395Z" fill="white"/>
<rect x="388.5" y="133.5" width="965" height="399" fill="#F2F2F2" stroke="black"/>
<rect x="388" y="133" width="966" height="50" fill="black"/>
<path d="M850.082 150.789H844.598V166H842.359V150.789H836.887V148.938H850.082V150.789ZM865.41 158.02C865.41 159.691 865.129 161.152 864.566 162.402C864.004 163.645 863.207 164.594 862.176 165.25C861.145 165.906 859.941 166.234 858.566 166.234C857.223 166.234 856.031 165.906 854.992 165.25C853.953 164.586 853.145 163.645 852.566 162.426C851.996 161.199 851.703 159.781 851.688 158.172V156.941C851.688 155.301 851.973 153.852 852.543 152.594C853.113 151.336 853.918 150.375 854.957 149.711C856.004 149.039 857.199 148.703 858.543 148.703C859.91 148.703 861.113 149.035 862.152 149.699C863.199 150.355 864.004 151.312 864.566 152.57C865.129 153.82 865.41 155.277 865.41 156.941V158.02ZM863.172 156.918C863.172 154.895 862.766 153.344 861.953 152.266C861.141 151.18 860.004 150.637 858.543 150.637C857.121 150.637 856 151.18 855.18 152.266C854.367 153.344 853.949 154.844 853.926 156.766V158.02C853.926 159.98 854.336 161.523 855.156 162.648C855.984 163.766 857.121 164.324 858.566 164.324C860.02 164.324 861.145 163.797 861.941 162.742C862.738 161.68 863.148 160.16 863.172 158.184V156.918ZM872.957 159.637H867.238V157.867H872.957V159.637ZM875.418 166V148.938H880.234C881.719 148.938 883.031 149.266 884.172 149.922C885.312 150.578 886.191 151.512 886.809 152.723C887.434 153.934 887.75 155.324 887.758 156.895V157.984C887.758 159.594 887.445 161.004 886.82 162.215C886.203 163.426 885.316 164.355 884.16 165.004C883.012 165.652 881.672 165.984 880.141 166H875.418ZM877.668 150.789V164.16H880.035C881.77 164.16 883.117 163.621 884.078 162.543C885.047 161.465 885.531 159.93 885.531 157.938V156.941C885.531 155.004 885.074 153.5 884.16 152.43C883.254 151.352 881.965 150.805 880.293 150.789H877.668ZM904.293 158.02C904.293 159.691 904.012 161.152 903.449 162.402C902.887 163.645 902.09 164.594 901.059 165.25C900.027 165.906 898.824 166.234 897.449 166.234C896.105 166.234 894.914 165.906 893.875 165.25C892.836 164.586 892.027 163.645 891.449 162.426C890.879 161.199 890.586 159.781 890.57 158.172V156.941C890.57 155.301 890.855 153.852 891.426 152.594C891.996 151.336 892.801 150.375 893.84 149.711C894.887 149.039 896.082 148.703 897.426 148.703C898.793 148.703 899.996 149.035 901.035 149.699C902.082 150.355 902.887 151.312 903.449 152.57C904.012 153.82 904.293 155.277 904.293 156.941V158.02ZM902.055 156.918C902.055 154.895 901.648 153.344 900.836 152.266C900.023 151.18 898.887 150.637 897.426 150.637C896.004 150.637 894.883 151.18 894.062 152.266C893.25 153.344 892.832 154.844 892.809 156.766V158.02C892.809 159.98 893.219 161.523 894.039 162.648C894.867 163.766 896.004 164.324 897.449 164.324C898.902 164.324 900.027 163.797 900.824 162.742C901.621 161.68 902.031 160.16 902.055 158.184V156.918Z" fill="white"/>
<path d="M823.891 764V746.938H828.707C830.191 746.938 831.504 747.266 832.645 747.922C833.785 748.578 834.664 749.512 835.281 750.723C835.906 751.934 836.223 753.324 836.23 754.895V755.984C836.23 757.594 835.918 759.004 835.293 760.215C834.676 761.426 833.789 762.355 832.633 763.004C831.484 763.652 830.145 763.984 828.613 764H823.891ZM826.141 748.789V762.16H828.508C830.242 762.16 831.59 761.621 832.551 760.543C833.52 759.465 834.004 757.93 834.004 755.938V754.941C834.004 753.004 833.547 751.5 832.633 750.43C831.727 749.352 830.438 748.805 828.766 748.789H826.141ZM852.766 756.02C852.766 757.691 852.484 759.152 851.922 760.402C851.359 761.645 850.562 762.594 849.531 763.25C848.5 763.906 847.297 764.234 845.922 764.234C844.578 764.234 843.387 763.906 842.348 763.25C841.309 762.586 840.5 761.645 839.922 760.426C839.352 759.199 839.059 757.781 839.043 756.172V754.941C839.043 753.301 839.328 751.852 839.898 750.594C840.469 749.336 841.273 748.375 842.312 747.711C843.359 747.039 844.555 746.703 845.898 746.703C847.266 746.703 848.469 747.035 849.508 747.699C850.555 748.355 851.359 749.312 851.922 750.57C852.484 751.82 852.766 753.277 852.766 754.941V756.02ZM850.527 754.918C850.527 752.895 850.121 751.344 849.309 750.266C848.496 749.18 847.359 748.637 845.898 748.637C844.477 748.637 843.355 749.18 842.535 750.266C841.723 751.344 841.305 752.844 841.281 754.766V756.02C841.281 757.98 841.691 759.523 842.512 760.648C843.34 761.766 844.477 762.324 845.922 762.324C847.375 762.324 848.5 761.797 849.297 760.742C850.094 759.68 850.504 758.16 850.527 756.184V754.918ZM868.691 758.586C868.48 760.391 867.812 761.785 866.688 762.77C865.57 763.746 864.082 764.234 862.223 764.234C860.207 764.234 858.59 763.512 857.371 762.066C856.16 760.621 855.555 758.688 855.555 756.266V754.625C855.555 753.039 855.836 751.645 856.398 750.441C856.969 749.238 857.773 748.316 858.812 747.676C859.852 747.027 861.055 746.703 862.422 746.703C864.234 746.703 865.688 747.211 866.781 748.227C867.875 749.234 868.512 750.633 868.691 752.422H866.43C866.234 751.062 865.809 750.078 865.152 749.469C864.504 748.859 863.594 748.555 862.422 748.555C860.984 748.555 859.855 749.086 859.035 750.148C858.223 751.211 857.816 752.723 857.816 754.684V756.336C857.816 758.188 858.203 759.66 858.977 760.754C859.75 761.848 860.832 762.395 862.223 762.395C863.473 762.395 864.43 762.113 865.094 761.551C865.766 760.98 866.211 759.992 866.43 758.586H868.691ZM883.785 746.938V758.539C883.777 760.148 883.27 761.465 882.262 762.488C881.262 763.512 879.902 764.086 878.184 764.211L877.586 764.234C875.719 764.234 874.23 763.73 873.121 762.723C872.012 761.715 871.449 760.328 871.434 758.562V746.938H873.66V758.492C873.66 759.727 874 760.688 874.68 761.375C875.359 762.055 876.328 762.395 877.586 762.395C878.859 762.395 879.832 762.055 880.504 761.375C881.184 760.695 881.523 759.738 881.523 758.504V746.938H883.785ZM890.242 746.938L895.82 760.859L901.398 746.938H904.316V764H902.066V757.355L902.277 750.184L896.676 764H894.953L889.363 750.219L889.586 757.355V764H887.336V746.938H890.242ZM917.934 756.113H910.539V762.16H919.129V764H908.289V746.938H919.012V748.789H910.539V754.273H917.934V756.113ZM935.043 764H932.781L924.191 750.852V764H921.93V746.938H924.191L932.805 760.145V746.938H935.043V764ZM950.477 748.789H944.992V764H942.754V748.789H937.281V746.938H950.477V748.789ZM957.848 756.395C955.918 755.84 954.512 755.16 953.629 754.355C952.754 753.543 952.316 752.543 952.316 751.355C952.316 750.012 952.852 748.902 953.922 748.027C955 747.145 956.398 746.703 958.117 746.703C959.289 746.703 960.332 746.93 961.246 747.383C962.168 747.836 962.879 748.461 963.379 749.258C963.887 750.055 964.141 750.926 964.141 751.871H961.879C961.879 750.84 961.551 750.031 960.895 749.445C960.238 748.852 959.312 748.555 958.117 748.555C957.008 748.555 956.141 748.801 955.516 749.293C954.898 749.777 954.59 750.453 954.59 751.32C954.59 752.016 954.883 752.605 955.469 753.09C956.062 753.566 957.066 754.004 958.48 754.402C959.902 754.801 961.012 755.242 961.809 755.727C962.613 756.203 963.207 756.762 963.59 757.402C963.98 758.043 964.176 758.797 964.176 759.664C964.176 761.047 963.637 762.156 962.559 762.992C961.48 763.82 960.039 764.234 958.234 764.234C957.062 764.234 955.969 764.012 954.953 763.566C953.938 763.113 953.152 762.496 952.598 761.715C952.051 760.934 951.777 760.047 951.777 759.055H954.039C954.039 760.086 954.418 760.902 955.176 761.504C955.941 762.098 956.961 762.395 958.234 762.395C959.422 762.395 960.332 762.152 960.965 761.668C961.598 761.184 961.914 760.523 961.914 759.688C961.914 758.852 961.621 758.207 961.035 757.754C960.449 757.293 959.387 756.84 957.848 756.395Z" fill="white"/>
<rect x="388.5" y="580.5" width="965" height="399" fill="#F2F2F2" stroke="black"/>
<rect x="388" y="580" width="966" height="50" fill="black"/>
<path d="M758.219 606.32V613H755.969V595.938H762.262C764.129 595.938 765.59 596.414 766.645 597.367C767.707 598.32 768.238 599.582 768.238 601.152C768.238 602.809 767.719 604.086 766.68 604.984C765.648 605.875 764.168 606.32 762.238 606.32H758.219ZM758.219 604.48H762.262C763.465 604.48 764.387 604.199 765.027 603.637C765.668 603.066 765.988 602.246 765.988 601.176C765.988 600.16 765.668 599.348 765.027 598.738C764.387 598.129 763.508 597.812 762.391 597.789H758.219V604.48ZM784.234 605.02C784.234 606.691 783.953 608.152 783.391 609.402C782.828 610.645 782.031 611.594 781 612.25C779.969 612.906 778.766 613.234 777.391 613.234C776.047 613.234 774.855 612.906 773.816 612.25C772.777 611.586 771.969 610.645 771.391 609.426C770.82 608.199 770.527 606.781 770.512 605.172V603.941C770.512 602.301 770.797 600.852 771.367 599.594C771.938 598.336 772.742 597.375 773.781 596.711C774.828 596.039 776.023 595.703 777.367 595.703C778.734 595.703 779.938 596.035 780.977 596.699C782.023 597.355 782.828 598.312 783.391 599.57C783.953 600.82 784.234 602.277 784.234 603.941V605.02ZM781.996 603.918C781.996 601.895 781.59 600.344 780.777 599.266C779.965 598.18 778.828 597.637 777.367 597.637C775.945 597.637 774.824 598.18 774.004 599.266C773.191 600.344 772.773 601.844 772.75 603.766V605.02C772.75 606.98 773.16 608.523 773.98 609.648C774.809 610.766 775.945 611.324 777.391 611.324C778.844 611.324 779.969 610.797 780.766 609.742C781.562 608.68 781.973 607.16 781.996 605.184V603.918ZM793.867 606.098H789.859V613H787.598V595.938H793.246C795.168 595.938 796.645 596.375 797.676 597.25C798.715 598.125 799.234 599.398 799.234 601.07C799.234 602.133 798.945 603.059 798.367 603.848C797.797 604.637 797 605.227 795.977 605.617L799.984 612.859V613H797.57L793.867 606.098ZM789.859 604.258H793.316C794.434 604.258 795.32 603.969 795.977 603.391C796.641 602.812 796.973 602.039 796.973 601.07C796.973 600.016 796.656 599.207 796.023 598.645C795.398 598.082 794.492 597.797 793.305 597.789H789.859V604.258ZM813.25 597.789H807.766V613H805.527V597.789H800.055V595.938H813.25V597.789ZM825.191 605.465H818.031V613H815.781V595.938H826.352V597.789H818.031V603.625H825.191V605.465ZM842.172 605.02C842.172 606.691 841.891 608.152 841.328 609.402C840.766 610.645 839.969 611.594 838.938 612.25C837.906 612.906 836.703 613.234 835.328 613.234C833.984 613.234 832.793 612.906 831.754 612.25C830.715 611.586 829.906 610.645 829.328 609.426C828.758 608.199 828.465 606.781 828.449 605.172V603.941C828.449 602.301 828.734 600.852 829.305 599.594C829.875 598.336 830.68 597.375 831.719 596.711C832.766 596.039 833.961 595.703 835.305 595.703C836.672 595.703 837.875 596.035 838.914 596.699C839.961 597.355 840.766 598.312 841.328 599.57C841.891 600.82 842.172 602.277 842.172 603.941V605.02ZM839.934 603.918C839.934 601.895 839.527 600.344 838.715 599.266C837.902 598.18 836.766 597.637 835.305 597.637C833.883 597.637 832.762 598.18 831.941 599.266C831.129 600.344 830.711 601.844 830.688 603.766V605.02C830.688 606.98 831.098 608.523 831.918 609.648C832.746 610.766 833.883 611.324 835.328 611.324C836.781 611.324 837.906 610.797 838.703 609.742C839.5 608.68 839.91 607.16 839.934 605.184V603.918ZM847.809 611.16H855.895V613H845.547V595.938H847.809V611.16ZM860.875 613H858.625V595.938H860.875V613ZM878.125 605.02C878.125 606.691 877.844 608.152 877.281 609.402C876.719 610.645 875.922 611.594 874.891 612.25C873.859 612.906 872.656 613.234 871.281 613.234C869.938 613.234 868.746 612.906 867.707 612.25C866.668 611.586 865.859 610.645 865.281 609.426C864.711 608.199 864.418 606.781 864.402 605.172V603.941C864.402 602.301 864.688 600.852 865.258 599.594C865.828 598.336 866.633 597.375 867.672 596.711C868.719 596.039 869.914 595.703 871.258 595.703C872.625 595.703 873.828 596.035 874.867 596.699C875.914 597.355 876.719 598.312 877.281 599.57C877.844 600.82 878.125 602.277 878.125 603.941V605.02ZM875.887 603.918C875.887 601.895 875.48 600.344 874.668 599.266C873.855 598.18 872.719 597.637 871.258 597.637C869.836 597.637 868.715 598.18 867.895 599.266C867.082 600.344 866.664 601.844 866.641 603.766V605.02C866.641 606.98 867.051 608.523 867.871 609.648C868.699 610.766 869.836 611.324 871.281 611.324C872.734 611.324 873.859 610.797 874.656 609.742C875.453 608.68 875.863 607.16 875.887 605.184V603.918ZM899.465 595.938V607.539C899.457 609.148 898.949 610.465 897.941 611.488C896.941 612.512 895.582 613.086 893.863 613.211L893.266 613.234C891.398 613.234 889.91 612.73 888.801 611.723C887.691 610.715 887.129 609.328 887.113 607.562V595.938H889.34V607.492C889.34 608.727 889.68 609.688 890.359 610.375C891.039 611.055 892.008 611.395 893.266 611.395C894.539 611.395 895.512 611.055 896.184 610.375C896.863 609.695 897.203 608.738 897.203 607.504V595.938H899.465ZM905.266 606.32V613H903.016V595.938H909.309C911.176 595.938 912.637 596.414 913.691 597.367C914.754 598.32 915.285 599.582 915.285 601.152C915.285 602.809 914.766 604.086 913.727 604.984C912.695 605.875 911.215 606.32 909.285 606.32H905.266ZM905.266 604.48H909.309C910.512 604.48 911.434 604.199 912.074 603.637C912.715 603.066 913.035 602.246 913.035 601.176C913.035 600.16 912.715 599.348 912.074 598.738C911.434 598.129 910.555 597.812 909.438 597.789H905.266V604.48ZM918.156 613V595.938H922.973C924.457 595.938 925.77 596.266 926.91 596.922C928.051 597.578 928.93 598.512 929.547 599.723C930.172 600.934 930.488 602.324 930.496 603.895V604.984C930.496 606.594 930.184 608.004 929.559 609.215C928.941 610.426 928.055 611.355 926.898 612.004C925.75 612.652 924.41 612.984 922.879 613H918.156ZM920.406 597.789V611.16H922.773C924.508 611.16 925.855 610.621 926.816 609.543C927.785 608.465 928.27 606.93 928.27 604.938V603.941C928.27 602.004 927.812 600.5 926.898 599.43C925.992 598.352 924.703 597.805 923.031 597.789H920.406ZM943.07 608.547H935.922L934.316 613H931.996L938.512 595.938H940.48L947.008 613H944.699L943.07 608.547ZM936.602 606.695H942.402L939.496 598.715L936.602 606.695ZM959.57 597.789H954.086V613H951.848V597.789H946.375V595.938H959.57V597.789ZM971.746 605.113H964.352V611.16H972.941V613H962.102V595.938H972.824V597.789H964.352V603.273H971.746V605.113ZM980.77 605.395C978.84 604.84 977.434 604.16 976.551 603.355C975.676 602.543 975.238 601.543 975.238 600.355C975.238 599.012 975.773 597.902 976.844 597.027C977.922 596.145 979.32 595.703 981.039 595.703C982.211 595.703 983.254 595.93 984.168 596.383C985.09 596.836 985.801 597.461 986.301 598.258C986.809 599.055 987.062 599.926 987.062 600.871H984.801C984.801 599.84 984.473 599.031 983.816 598.445C983.16 597.852 982.234 597.555 981.039 597.555C979.93 597.555 979.062 597.801 978.438 598.293C977.82 598.777 977.512 599.453 977.512 600.32C977.512 601.016 977.805 601.605 978.391 602.09C978.984 602.566 979.988 603.004 981.402 603.402C982.824 603.801 983.934 604.242 984.73 604.727C985.535 605.203 986.129 605.762 986.512 606.402C986.902 607.043 987.098 607.797 987.098 608.664C987.098 610.047 986.559 611.156 985.48 611.992C984.402 612.82 982.961 613.234 981.156 613.234C979.984 613.234 978.891 613.012 977.875 612.566C976.859 612.113 976.074 611.496 975.52 610.715C974.973 609.934 974.699 609.047 974.699 608.055H976.961C976.961 609.086 977.34 609.902 978.098 610.504C978.863 611.098 979.883 611.395 981.156 611.395C982.344 611.395 983.254 611.152 983.887 610.668C984.52 610.184 984.836 609.523 984.836 608.688C984.836 607.852 984.543 607.207 983.957 606.754C983.371 606.293 982.309 605.84 980.77 605.395Z" fill="white"/>
<rect x="408" y="205" width="169" height="310" fill="white"/>
<rect x="597.2" y="205" width="169.2" height="310" fill="white"/>
<rect x="786" y="205" width="169.2" height="310" fill="white"/>
<rect x="975" y="205" width="169.2" height="310" fill="white"/>
<rect x="1164" y="205" width="169.2" height="310" fill="white"/>
<rect y="60" width="300" height="964" fill="#F2F2F2"/>
<path d="M34.3906 96.4648H27.2305V104H24.9805V86.9375H35.5508V88.7891H27.2305V94.625H34.3906V96.4648ZM37.0742 97.543C37.0742 96.3008 37.3164 95.1836 37.8008 94.1914C38.293 93.1992 38.9727 92.4336 39.8398 91.8945C40.7148 91.3555 41.7109 91.0859 42.8281 91.0859C44.5547 91.0859 45.9492 91.6836 47.0117 92.8789C48.082 94.0742 48.6172 95.6641 48.6172 97.6484V97.8008C48.6172 99.0352 48.3789 100.145 47.9023 101.129C47.4336 102.105 46.7578 102.867 45.875 103.414C45 103.961 43.9922 104.234 42.8516 104.234C41.1328 104.234 39.7383 103.637 38.668 102.441C37.6055 101.246 37.0742 99.6641 37.0742 97.6953V97.543ZM39.2539 97.8008C39.2539 99.207 39.5781 100.336 40.2266 101.188C40.8828 102.039 41.7578 102.465 42.8516 102.465C43.9531 102.465 44.8281 102.035 45.4766 101.176C46.125 100.309 46.4492 99.0977 46.4492 97.543C46.4492 96.1523 46.1172 95.0273 45.4531 94.168C44.7969 93.3008 43.9219 92.8672 42.8281 92.8672C41.7578 92.8672 40.8945 93.293 40.2383 94.1445C39.582 94.9961 39.2539 96.2148 39.2539 97.8008ZM57.4648 93.2656C57.1367 93.2109 56.7812 93.1836 56.3984 93.1836C54.9766 93.1836 54.0117 93.7891 53.5039 95V104H51.3359V91.3203H53.4453L53.4805 92.7852C54.1914 91.6523 55.1992 91.0859 56.5039 91.0859C56.9258 91.0859 57.2461 91.1406 57.4648 91.25V93.2656ZM61.5078 91.3203L61.5664 92.7266C62.4961 91.6328 63.75 91.0859 65.3281 91.0859C67.1016 91.0859 68.3086 91.7656 68.9492 93.125C69.3711 92.5156 69.918 92.0234 70.5898 91.6484C71.2695 91.2734 72.0703 91.0859 72.9922 91.0859C75.7734 91.0859 77.1875 92.5586 77.2344 95.5039V104H75.0664V95.6328C75.0664 94.7266 74.8594 94.0508 74.4453 93.6055C74.0312 93.1523 73.3359 92.9258 72.3594 92.9258C71.5547 92.9258 70.8867 93.168 70.3555 93.6523C69.8242 94.1289 69.5156 94.7734 69.4297 95.5859V104H67.25V95.6914C67.25 93.8477 66.3477 92.9258 64.543 92.9258C63.1211 92.9258 62.1484 93.5312 61.625 94.7422V104H59.457V91.3203H61.5078ZM87.8984 100.637C87.8984 100.051 87.6758 99.5977 87.2305 99.2773C86.793 98.9492 86.0234 98.668 84.9219 98.4336C83.8281 98.1992 82.957 97.918 82.3086 97.5898C81.668 97.2617 81.1914 96.8711 80.8789 96.418C80.5742 95.9648 80.4219 95.4258 80.4219 94.8008C80.4219 93.7617 80.8594 92.8828 81.7344 92.1641C82.6172 91.4453 83.7422 91.0859 85.1094 91.0859C86.5469 91.0859 87.7109 91.457 88.6016 92.1992C89.5 92.9414 89.9492 93.8906 89.9492 95.0469H87.7695C87.7695 94.4531 87.5156 93.9414 87.0078 93.5117C86.5078 93.082 85.875 92.8672 85.1094 92.8672C84.3203 92.8672 83.7031 93.0391 83.2578 93.3828C82.8125 93.7266 82.5898 94.1758 82.5898 94.7305C82.5898 95.2539 82.7969 95.6484 83.2109 95.9141C83.625 96.1797 84.3711 96.4336 85.4492 96.6758C86.5352 96.918 87.4141 97.207 88.0859 97.543C88.7578 97.8789 89.2539 98.2852 89.5742 98.7617C89.9023 99.2305 90.0664 99.8047 90.0664 100.484C90.0664 101.617 89.6133 102.527 88.707 103.215C87.8008 103.895 86.625 104.234 85.1797 104.234C84.1641 104.234 83.2656 104.055 82.4844 103.695C81.7031 103.336 81.0898 102.836 80.6445 102.195C80.207 101.547 79.9883 100.848 79.9883 100.098H82.1562C82.1953 100.824 82.4844 101.402 83.0234 101.832C83.5703 102.254 84.2891 102.465 85.1797 102.465C86 102.465 86.6562 102.301 87.1484 101.973C87.6484 101.637 87.8984 101.191 87.8984 100.637Z" fill="black"/>
<path d="M34.3906 144.465H27.2305V152H24.9805V134.938H35.5508V136.789H27.2305V142.625H34.3906V144.465ZM40.2617 152H38.0938V139.32H40.2617V152ZM37.918 135.957C37.918 135.605 38.0234 135.309 38.2344 135.066C38.4531 134.824 38.7734 134.703 39.1953 134.703C39.6172 134.703 39.9375 134.824 40.1562 135.066C40.375 135.309 40.4844 135.605 40.4844 135.957C40.4844 136.309 40.375 136.602 40.1562 136.836C39.9375 137.07 39.6172 137.188 39.1953 137.188C38.7734 137.188 38.4531 137.07 38.2344 136.836C38.0234 136.602 37.918 136.309 37.918 135.957ZM45.793 139.32L45.8633 140.914C46.832 139.695 48.0977 139.086 49.6602 139.086C52.3398 139.086 53.6914 140.598 53.7148 143.621V152H51.5469V143.609C51.5391 142.695 51.3281 142.02 50.9141 141.582C50.5078 141.145 49.8711 140.926 49.0039 140.926C48.3008 140.926 47.6836 141.113 47.1523 141.488C46.6211 141.863 46.207 142.355 45.9102 142.965V152H43.7422V139.32H45.793ZM64.8125 152C64.6875 151.75 64.5859 151.305 64.5078 150.664C63.5 151.711 62.2969 152.234 60.8984 152.234C59.6484 152.234 58.6211 151.883 57.8164 151.18C57.0195 150.469 56.6211 149.57 56.6211 148.484C56.6211 147.164 57.1211 146.141 58.1211 145.414C59.1289 144.68 60.543 144.312 62.3633 144.312H64.4727V143.316C64.4727 142.559 64.2461 141.957 63.793 141.512C63.3398 141.059 62.6719 140.832 61.7891 140.832C61.0156 140.832 60.3672 141.027 59.8438 141.418C59.3203 141.809 59.0586 142.281 59.0586 142.836H56.8789C56.8789 142.203 57.1016 141.594 57.5469 141.008C58 140.414 58.6094 139.945 59.375 139.602C60.1484 139.258 60.9961 139.086 61.918 139.086C63.3789 139.086 64.5234 139.453 65.3516 140.188C66.1797 140.914 66.6094 141.918 66.6406 143.199V149.035C66.6406 150.199 66.7891 151.125 67.0859 151.812V152H64.8125ZM61.2148 150.348C61.8945 150.348 62.5391 150.172 63.1484 149.82C63.7578 149.469 64.1992 149.012 64.4727 148.449V145.848H62.7734C60.1172 145.848 58.7891 146.625 58.7891 148.18C58.7891 148.859 59.0156 149.391 59.4688 149.773C59.9219 150.156 60.5039 150.348 61.2148 150.348ZM72.0898 139.32L72.1602 140.914C73.1289 139.695 74.3945 139.086 75.957 139.086C78.6367 139.086 79.9883 140.598 80.0117 143.621V152H77.8438V143.609C77.8359 142.695 77.625 142.02 77.2109 141.582C76.8047 141.145 76.168 140.926 75.3008 140.926C74.5977 140.926 73.9805 141.113 73.4492 141.488C72.918 141.863 72.5039 142.355 72.207 142.965V152H70.0391V139.32H72.0898ZM88.3672 150.465C89.1406 150.465 89.8164 150.23 90.3945 149.762C90.9727 149.293 91.293 148.707 91.3555 148.004H93.4062C93.3672 148.73 93.1172 149.422 92.6562 150.078C92.1953 150.734 91.5781 151.258 90.8047 151.648C90.0391 152.039 89.2266 152.234 88.3672 152.234C86.6406 152.234 85.2656 151.66 84.2422 150.512C83.2266 149.355 82.7188 147.777 82.7188 145.777V145.414C82.7188 144.18 82.9453 143.082 83.3984 142.121C83.8516 141.16 84.5 140.414 85.3438 139.883C86.1953 139.352 87.1992 139.086 88.3555 139.086C89.7773 139.086 90.957 139.512 91.8945 140.363C92.8398 141.215 93.3438 142.32 93.4062 143.68H91.3555C91.293 142.859 90.9805 142.188 90.418 141.664C89.8633 141.133 89.1758 140.867 88.3555 140.867C87.2539 140.867 86.3984 141.266 85.7891 142.062C85.1875 142.852 84.8867 143.996 84.8867 145.496V145.906C84.8867 147.367 85.1875 148.492 85.7891 149.281C86.3906 150.07 87.25 150.465 88.3672 150.465ZM101.105 152.234C99.3867 152.234 97.9883 151.672 96.9102 150.547C95.832 149.414 95.293 147.902 95.293 146.012V145.613C95.293 144.355 95.5312 143.234 96.0078 142.25C96.4922 141.258 97.1641 140.484 98.0234 139.93C98.8906 139.367 99.8281 139.086 100.836 139.086C102.484 139.086 103.766 139.629 104.68 140.715C105.594 141.801 106.051 143.355 106.051 145.379V146.281H97.4609C97.4922 147.531 97.8555 148.543 98.5508 149.316C99.2539 150.082 100.145 150.465 101.223 150.465C101.988 150.465 102.637 150.309 103.168 149.996C103.699 149.684 104.164 149.27 104.562 148.754L105.887 149.785C104.824 151.418 103.23 152.234 101.105 152.234ZM100.836 140.867C99.9609 140.867 99.2266 141.188 98.6328 141.828C98.0391 142.461 97.6719 143.352 97.5312 144.5H103.883V144.336C103.82 143.234 103.523 142.383 102.992 141.781C102.461 141.172 101.742 140.867 100.836 140.867Z" fill="black"/>
<path d="M30.0078 190.395C28.0781 189.84 26.6719 189.16 25.7891 188.355C24.9141 187.543 24.4766 186.543 24.4766 185.355C24.4766 184.012 25.0117 182.902 26.082 182.027C27.1602 181.145 28.5586 180.703 30.2773 180.703C31.4492 180.703 32.4922 180.93 33.4062 181.383C34.3281 181.836 35.0391 182.461 35.5391 183.258C36.0469 184.055 36.3008 184.926 36.3008 185.871H34.0391C34.0391 184.84 33.7109 184.031 33.0547 183.445C32.3984 182.852 31.4727 182.555 30.2773 182.555C29.168 182.555 28.3008 182.801 27.6758 183.293C27.0586 183.777 26.75 184.453 26.75 185.32C26.75 186.016 27.043 186.605 27.6289 187.09C28.2227 187.566 29.2266 188.004 30.6406 188.402C32.0625 188.801 33.1719 189.242 33.9688 189.727C34.7734 190.203 35.3672 190.762 35.75 191.402C36.1406 192.043 36.3359 192.797 36.3359 193.664C36.3359 195.047 35.7969 196.156 34.7188 196.992C33.6406 197.82 32.1992 198.234 30.3945 198.234C29.2227 198.234 28.1289 198.012 27.1133 197.566C26.0977 197.113 25.3125 196.496 24.7578 195.715C24.2109 194.934 23.9375 194.047 23.9375 193.055H26.1992C26.1992 194.086 26.5781 194.902 27.3359 195.504C28.1016 196.098 29.1211 196.395 30.3945 196.395C31.582 196.395 32.4922 196.152 33.125 195.668C33.7578 195.184 34.0742 194.523 34.0742 193.688C34.0742 192.852 33.7812 192.207 33.1953 191.754C32.6094 191.293 31.5469 190.84 30.0078 190.395ZM41.832 182.25V185.32H44.1992V186.996H41.832V194.859C41.832 195.367 41.9375 195.75 42.1484 196.008C42.3594 196.258 42.7188 196.383 43.2266 196.383C43.4766 196.383 43.8203 196.336 44.2578 196.242V198C43.6875 198.156 43.1328 198.234 42.5938 198.234C41.625 198.234 40.8945 197.941 40.4023 197.355C39.9102 196.77 39.6641 195.938 39.6641 194.859V186.996H37.3555V185.32H39.6641V182.25H41.832ZM52.8711 187.266C52.543 187.211 52.1875 187.184 51.8047 187.184C50.3828 187.184 49.418 187.789 48.9102 189V198H46.7422V185.32H48.8516L48.8867 186.785C49.5977 185.652 50.6055 185.086 51.9102 185.086C52.332 185.086 52.6523 185.141 52.8711 185.25V187.266ZM62.2344 198C62.1094 197.75 62.0078 197.305 61.9297 196.664C60.9219 197.711 59.7188 198.234 58.3203 198.234C57.0703 198.234 56.043 197.883 55.2383 197.18C54.4414 196.469 54.043 195.57 54.043 194.484C54.043 193.164 54.543 192.141 55.543 191.414C56.5508 190.68 57.9648 190.312 59.7852 190.312H61.8945V189.316C61.8945 188.559 61.668 187.957 61.2148 187.512C60.7617 187.059 60.0938 186.832 59.2109 186.832C58.4375 186.832 57.7891 187.027 57.2656 187.418C56.7422 187.809 56.4805 188.281 56.4805 188.836H54.3008C54.3008 188.203 54.5234 187.594 54.9688 187.008C55.4219 186.414 56.0312 185.945 56.7969 185.602C57.5703 185.258 58.418 185.086 59.3398 185.086C60.8008 185.086 61.9453 185.453 62.7734 186.188C63.6016 186.914 64.0312 187.918 64.0625 189.199V195.035C64.0625 196.199 64.2109 197.125 64.5078 197.812V198H62.2344ZM58.6367 196.348C59.3164 196.348 59.9609 196.172 60.5703 195.82C61.1797 195.469 61.6211 195.012 61.8945 194.449V191.848H60.1953C57.5391 191.848 56.2109 192.625 56.2109 194.18C56.2109 194.859 56.4375 195.391 56.8906 195.773C57.3438 196.156 57.9258 196.348 58.6367 196.348ZM70.4023 182.25V185.32H72.7695V186.996H70.4023V194.859C70.4023 195.367 70.5078 195.75 70.7188 196.008C70.9297 196.258 71.2891 196.383 71.7969 196.383C72.0469 196.383 72.3906 196.336 72.8281 196.242V198C72.2578 198.156 71.7031 198.234 71.1641 198.234C70.1953 198.234 69.4648 197.941 68.9727 197.355C68.4805 196.77 68.2344 195.938 68.2344 194.859V186.996H65.9258V185.32H68.2344V182.25H70.4023ZM80.5742 198.234C78.8555 198.234 77.457 197.672 76.3789 196.547C75.3008 195.414 74.7617 193.902 74.7617 192.012V191.613C74.7617 190.355 75 189.234 75.4766 188.25C75.9609 187.258 76.6328 186.484 77.4922 185.93C78.3594 185.367 79.2969 185.086 80.3047 185.086C81.9531 185.086 83.2344 185.629 84.1484 186.715C85.0625 187.801 85.5195 189.355 85.5195 191.379V192.281H76.9297C76.9609 193.531 77.3242 194.543 78.0195 195.316C78.7227 196.082 79.6133 196.465 80.6914 196.465C81.457 196.465 82.1055 196.309 82.6367 195.996C83.168 195.684 83.6328 195.27 84.0312 194.754L85.3555 195.785C84.293 197.418 82.6992 198.234 80.5742 198.234ZM80.3047 186.867C79.4297 186.867 78.6953 187.188 78.1016 187.828C77.5078 188.461 77.1406 189.352 77 190.5H83.3516V190.336C83.2891 189.234 82.9922 188.383 82.4609 187.781C81.9297 187.172 81.2109 186.867 80.3047 186.867ZM87.5234 191.555C87.5234 189.578 87.9805 188.008 88.8945 186.844C89.8086 185.672 91.0195 185.086 92.5273 185.086C94.0742 185.086 95.2812 185.633 96.1484 186.727L96.2539 185.32H98.2344V197.695C98.2344 199.336 97.7461 200.629 96.7695 201.574C95.8008 202.52 94.4961 202.992 92.8555 202.992C91.9414 202.992 91.0469 202.797 90.1719 202.406C89.2969 202.016 88.6289 201.48 88.168 200.801L89.293 199.5C90.2227 200.648 91.3594 201.223 92.7031 201.223C93.7578 201.223 94.5781 200.926 95.1641 200.332C95.7578 199.738 96.0547 198.902 96.0547 197.824V196.734C95.1875 197.734 94.0039 198.234 92.5039 198.234C91.0195 198.234 89.8164 197.637 88.8945 196.441C87.9805 195.246 87.5234 193.617 87.5234 191.555ZM89.7031 191.801C89.7031 193.23 89.9961 194.355 90.582 195.176C91.168 195.988 91.9883 196.395 93.043 196.395C94.4102 196.395 95.4141 195.773 96.0547 194.531V188.742C95.3906 187.531 94.3945 186.926 93.0664 186.926C92.0117 186.926 91.1875 187.336 90.5938 188.156C90 188.977 89.7031 190.191 89.7031 191.801ZM105.664 194.824L108.617 185.32H110.938L105.84 199.957C105.051 202.066 103.797 203.121 102.078 203.121L101.668 203.086L100.859 202.934V201.176L101.445 201.223C102.18 201.223 102.75 201.074 103.156 200.777C103.57 200.48 103.91 199.938 104.176 199.148L104.656 197.859L100.133 185.32H102.5L105.664 194.824Z" fill="black"/>
<path d="M37.5312 240.586C37.3203 242.391 36.6523 243.785 35.5273 244.77C34.4102 245.746 32.9219 246.234 31.0625 246.234C29.0469 246.234 27.4297 245.512 26.2109 244.066C25 242.621 24.3945 240.688 24.3945 238.266V236.625C24.3945 235.039 24.6758 233.645 25.2383 232.441C25.8086 231.238 26.6133 230.316 27.6523 229.676C28.6914 229.027 29.8945 228.703 31.2617 228.703C33.0742 228.703 34.5273 229.211 35.6211 230.227C36.7148 231.234 37.3516 232.633 37.5312 234.422H35.2695C35.0742 233.062 34.6484 232.078 33.9922 231.469C33.3438 230.859 32.4336 230.555 31.2617 230.555C29.8242 230.555 28.6953 231.086 27.875 232.148C27.0625 233.211 26.6562 234.723 26.6562 236.684V238.336C26.6562 240.188 27.043 241.66 27.8164 242.754C28.5898 243.848 29.6719 244.395 31.0625 244.395C32.3125 244.395 33.2695 244.113 33.9336 243.551C34.6055 242.98 35.0508 241.992 35.2695 240.586H37.5312ZM42.6289 246H40.4609V228H42.6289V246ZM48.4648 246H46.2969V233.32H48.4648V246ZM46.1211 229.957C46.1211 229.605 46.2266 229.309 46.4375 229.066C46.6562 228.824 46.9766 228.703 47.3984 228.703C47.8203 228.703 48.1406 228.824 48.3594 229.066C48.5781 229.309 48.6875 229.605 48.6875 229.957C48.6875 230.309 48.5781 230.602 48.3594 230.836C48.1406 231.07 47.8203 231.188 47.3984 231.188C46.9766 231.188 46.6562 231.07 46.4375 230.836C46.2266 230.602 46.1211 230.309 46.1211 229.957ZM57.207 246.234C55.4883 246.234 54.0898 245.672 53.0117 244.547C51.9336 243.414 51.3945 241.902 51.3945 240.012V239.613C51.3945 238.355 51.6328 237.234 52.1094 236.25C52.5938 235.258 53.2656 234.484 54.125 233.93C54.9922 233.367 55.9297 233.086 56.9375 233.086C58.5859 233.086 59.8672 233.629 60.7812 234.715C61.6953 235.801 62.1523 237.355 62.1523 239.379V240.281H53.5625C53.5938 241.531 53.957 242.543 54.6523 243.316C55.3555 244.082 56.2461 244.465 57.3242 244.465C58.0898 244.465 58.7383 244.309 59.2695 243.996C59.8008 243.684 60.2656 243.27 60.6641 242.754L61.9883 243.785C60.9258 245.418 59.332 246.234 57.207 246.234ZM56.9375 234.867C56.0625 234.867 55.3281 235.188 54.7344 235.828C54.1406 236.461 53.7734 237.352 53.6328 238.5H59.9844V238.336C59.9219 237.234 59.625 236.383 59.0938 235.781C58.5625 235.172 57.8438 234.867 56.9375 234.867ZM66.7227 233.32L66.793 234.914C67.7617 233.695 69.0273 233.086 70.5898 233.086C73.2695 233.086 74.6211 234.598 74.6445 237.621V246H72.4766V237.609C72.4688 236.695 72.2578 236.02 71.8438 235.582C71.4375 235.145 70.8008 234.926 69.9336 234.926C69.2305 234.926 68.6133 235.113 68.082 235.488C67.5508 235.863 67.1367 236.355 66.8398 236.965V246H64.6719V233.32H66.7227ZM80.8555 230.25V233.32H83.2227V234.996H80.8555V242.859C80.8555 243.367 80.9609 243.75 81.1719 244.008C81.3828 244.258 81.7422 244.383 82.25 244.383C82.5 244.383 82.8438 244.336 83.2812 244.242V246C82.7109 246.156 82.1562 246.234 81.6172 246.234C80.6484 246.234 79.918 245.941 79.4258 245.355C78.9336 244.77 78.6875 243.938 78.6875 242.859V234.996H76.3789V233.32H78.6875V230.25H80.8555ZM102.43 239.801C102.43 241.73 101.988 243.285 101.105 244.465C100.223 245.645 99.0273 246.234 97.5195 246.234C95.9805 246.234 94.7695 245.746 93.8867 244.77V250.875H91.7188V233.32H93.6992L93.8047 234.727C94.6875 233.633 95.9141 233.086 97.4844 233.086C99.0078 233.086 100.211 233.66 101.094 234.809C101.984 235.957 102.43 237.555 102.43 239.602V239.801ZM100.262 239.555C100.262 238.125 99.957 236.996 99.3477 236.168C98.7383 235.34 97.9023 234.926 96.8398 234.926C95.5273 234.926 94.543 235.508 93.8867 236.672V242.73C94.5352 243.887 95.5273 244.465 96.8633 244.465C97.9023 244.465 98.7266 244.055 99.3359 243.234C99.9531 242.406 100.262 241.18 100.262 239.555ZM111.324 235.266C110.996 235.211 110.641 235.184 110.258 235.184C108.836 235.184 107.871 235.789 107.363 237V246H105.195V233.32H107.305L107.34 234.785C108.051 233.652 109.059 233.086 110.363 233.086C110.785 233.086 111.105 233.141 111.324 233.25V235.266ZM112.52 239.543C112.52 238.301 112.762 237.184 113.246 236.191C113.738 235.199 114.418 234.434 115.285 233.895C116.16 233.355 117.156 233.086 118.273 233.086C120 233.086 121.395 233.684 122.457 234.879C123.527 236.074 124.062 237.664 124.062 239.648V239.801C124.062 241.035 123.824 242.145 123.348 243.129C122.879 244.105 122.203 244.867 121.32 245.414C120.445 245.961 119.438 246.234 118.297 246.234C116.578 246.234 115.184 245.637 114.113 244.441C113.051 243.246 112.52 241.664 112.52 239.695V239.543ZM114.699 239.801C114.699 241.207 115.023 242.336 115.672 243.188C116.328 244.039 117.203 244.465 118.297 244.465C119.398 244.465 120.273 244.035 120.922 243.176C121.57 242.309 121.895 241.098 121.895 239.543C121.895 238.152 121.562 237.027 120.898 236.168C120.242 235.301 119.367 234.867 118.273 234.867C117.203 234.867 116.34 235.293 115.684 236.145C115.027 236.996 114.699 238.215 114.699 239.801ZM131.867 244.465C132.641 244.465 133.316 244.23 133.895 243.762C134.473 243.293 134.793 242.707 134.855 242.004H136.906C136.867 242.73 136.617 243.422 136.156 244.078C135.695 244.734 135.078 245.258 134.305 245.648C133.539 246.039 132.727 246.234 131.867 246.234C130.141 246.234 128.766 245.66 127.742 244.512C126.727 243.355 126.219 241.777 126.219 239.777V239.414C126.219 238.18 126.445 237.082 126.898 236.121C127.352 235.16 128 234.414 128.844 233.883C129.695 233.352 130.699 233.086 131.855 233.086C133.277 233.086 134.457 233.512 135.395 234.363C136.34 235.215 136.844 236.32 136.906 237.68H134.855C134.793 236.859 134.48 236.188 133.918 235.664C133.363 235.133 132.676 234.867 131.855 234.867C130.754 234.867 129.898 235.266 129.289 236.062C128.688 236.852 128.387 237.996 128.387 239.496V239.906C128.387 241.367 128.688 242.492 129.289 243.281C129.891 244.07 130.75 244.465 131.867 244.465ZM144.605 246.234C142.887 246.234 141.488 245.672 140.41 244.547C139.332 243.414 138.793 241.902 138.793 240.012V239.613C138.793 238.355 139.031 237.234 139.508 236.25C139.992 235.258 140.664 234.484 141.523 233.93C142.391 233.367 143.328 233.086 144.336 233.086C145.984 233.086 147.266 233.629 148.18 234.715C149.094 235.801 149.551 237.355 149.551 239.379V240.281H140.961C140.992 241.531 141.355 242.543 142.051 243.316C142.754 244.082 143.645 244.465 144.723 244.465C145.488 244.465 146.137 244.309 146.668 243.996C147.199 243.684 147.664 243.27 148.062 242.754L149.387 243.785C148.324 245.418 146.73 246.234 144.605 246.234ZM144.336 234.867C143.461 234.867 142.727 235.188 142.133 235.828C141.539 236.461 141.172 237.352 141.031 238.5H147.383V238.336C147.32 237.234 147.023 236.383 146.492 235.781C145.961 235.172 145.242 234.867 144.336 234.867ZM151.543 239.555C151.543 237.609 152.004 236.047 152.926 234.867C153.848 233.68 155.055 233.086 156.547 233.086C158.031 233.086 159.207 233.594 160.074 234.609V228H162.242V246H160.25L160.145 244.641C159.277 245.703 158.07 246.234 156.523 246.234C155.055 246.234 153.855 245.633 152.926 244.43C152.004 243.227 151.543 241.656 151.543 239.719V239.555ZM153.711 239.801C153.711 241.238 154.008 242.363 154.602 243.176C155.195 243.988 156.016 244.395 157.062 244.395C158.438 244.395 159.441 243.777 160.074 242.543V236.719C159.426 235.523 158.43 234.926 157.086 234.926C156.023 234.926 155.195 235.336 154.602 236.156C154.008 236.977 153.711 238.191 153.711 239.801ZM173.445 244.746C172.602 245.738 171.363 246.234 169.73 246.234C168.379 246.234 167.348 245.844 166.637 245.062C165.934 244.273 165.578 243.109 165.57 241.57V233.32H167.738V241.512C167.738 243.434 168.52 244.395 170.082 244.395C171.738 244.395 172.84 243.777 173.387 242.543V233.32H175.555V246H173.492L173.445 244.746ZM184.988 235.266C184.66 235.211 184.305 235.184 183.922 235.184C182.5 235.184 181.535 235.789 181.027 237V246H178.859V233.32H180.969L181.004 234.785C181.715 233.652 182.723 233.086 184.027 233.086C184.449 233.086 184.77 233.141 184.988 233.25V235.266ZM192.02 246.234C190.301 246.234 188.902 245.672 187.824 244.547C186.746 243.414 186.207 241.902 186.207 240.012V239.613C186.207 238.355 186.445 237.234 186.922 236.25C187.406 235.258 188.078 234.484 188.938 233.93C189.805 233.367 190.742 233.086 191.75 233.086C193.398 233.086 194.68 233.629 195.594 234.715C196.508 235.801 196.965 237.355 196.965 239.379V240.281H188.375C188.406 241.531 188.77 242.543 189.465 243.316C190.168 244.082 191.059 244.465 192.137 244.465C192.902 244.465 193.551 244.309 194.082 243.996C194.613 243.684 195.078 243.27 195.477 242.754L196.801 243.785C195.738 245.418 194.145 246.234 192.02 246.234ZM191.75 234.867C190.875 234.867 190.141 235.188 189.547 235.828C188.953 236.461 188.586 237.352 188.445 238.5H194.797V238.336C194.734 237.234 194.438 236.383 193.906 235.781C193.375 235.172 192.656 234.867 191.75 234.867ZM206.867 242.637C206.867 242.051 206.645 241.598 206.199 241.277C205.762 240.949 204.992 240.668 203.891 240.434C202.797 240.199 201.926 239.918 201.277 239.59C200.637 239.262 200.16 238.871 199.848 238.418C199.543 237.965 199.391 237.426 199.391 236.801C199.391 235.762 199.828 234.883 200.703 234.164C201.586 233.445 202.711 233.086 204.078 233.086C205.516 233.086 206.68 233.457 207.57 234.199C208.469 234.941 208.918 235.891 208.918 237.047H206.738C206.738 236.453 206.484 235.941 205.977 235.512C205.477 235.082 204.844 234.867 204.078 234.867C203.289 234.867 202.672 235.039 202.227 235.383C201.781 235.727 201.559 236.176 201.559 236.73C201.559 237.254 201.766 237.648 202.18 237.914C202.594 238.18 203.34 238.434 204.418 238.676C205.504 238.918 206.383 239.207 207.055 239.543C207.727 239.879 208.223 240.285 208.543 240.762C208.871 241.23 209.035 241.805 209.035 242.484C209.035 243.617 208.582 244.527 207.676 245.215C206.77 245.895 205.594 246.234 204.148 246.234C203.133 246.234 202.234 246.055 201.453 245.695C200.672 245.336 200.059 244.836 199.613 244.195C199.176 243.547 198.957 242.848 198.957 242.098H201.125C201.164 242.824 201.453 243.402 201.992 243.832C202.539 244.254 203.258 244.465 204.148 244.465C204.969 244.465 205.625 244.301 206.117 243.973C206.617 243.637 206.867 243.191 206.867 242.637Z" fill="black"/>
<path d="M34.4023 350.547H27.2539L25.6484 355H23.3281L29.8438 337.938H31.8125L38.3398 355H36.0312L34.4023 350.547ZM27.9336 348.695H33.7344L30.8281 340.715L27.9336 348.695ZM43.0273 339.25V342.32H45.3945V343.996H43.0273V351.859C43.0273 352.367 43.1328 352.75 43.3438 353.008C43.5547 353.258 43.9141 353.383 44.4219 353.383C44.6719 353.383 45.0156 353.336 45.4531 353.242V355C44.8828 355.156 44.3281 355.234 43.7891 355.234C42.8203 355.234 42.0898 354.941 41.5977 354.355C41.1055 353.77 40.8594 352.938 40.8594 351.859V343.996H38.5508V342.32H40.8594V339.25H43.0273ZM50.8789 339.25V342.32H53.2461V343.996H50.8789V351.859C50.8789 352.367 50.9844 352.75 51.1953 353.008C51.4062 353.258 51.7656 353.383 52.2734 353.383C52.5234 353.383 52.8672 353.336 53.3047 353.242V355C52.7344 355.156 52.1797 355.234 51.6406 355.234C50.6719 355.234 49.9414 354.941 49.4492 354.355C48.957 353.77 48.7109 352.938 48.7109 351.859V343.996H46.4023V342.32H48.7109V339.25H50.8789ZM54.9805 348.543C54.9805 347.301 55.2227 346.184 55.707 345.191C56.1992 344.199 56.8789 343.434 57.7461 342.895C58.6211 342.355 59.6172 342.086 60.7344 342.086C62.4609 342.086 63.8555 342.684 64.918 343.879C65.9883 345.074 66.5234 346.664 66.5234 348.648V348.801C66.5234 350.035 66.2852 351.145 65.8086 352.129C65.3398 353.105 64.6641 353.867 63.7812 354.414C62.9062 354.961 61.8984 355.234 60.7578 355.234C59.0391 355.234 57.6445 354.637 56.5742 353.441C55.5117 352.246 54.9805 350.664 54.9805 348.695V348.543ZM57.1602 348.801C57.1602 350.207 57.4844 351.336 58.1328 352.188C58.7891 353.039 59.6641 353.465 60.7578 353.465C61.8594 353.465 62.7344 353.035 63.3828 352.176C64.0312 351.309 64.3555 350.098 64.3555 348.543C64.3555 347.152 64.0234 346.027 63.3594 345.168C62.7031 344.301 61.8281 343.867 60.7344 343.867C59.6641 343.867 58.8008 344.293 58.1445 345.145C57.4883 345.996 57.1602 347.215 57.1602 348.801ZM75.3711 344.266C75.043 344.211 74.6875 344.184 74.3047 344.184C72.8828 344.184 71.918 344.789 71.4102 346V355H69.2422V342.32H71.3516L71.3867 343.785C72.0977 342.652 73.1055 342.086 74.4102 342.086C74.832 342.086 75.1523 342.141 75.3711 342.25V344.266ZM79.4258 342.32L79.4961 343.914C80.4648 342.695 81.7305 342.086 83.293 342.086C85.9727 342.086 87.3242 343.598 87.3477 346.621V355H85.1797V346.609C85.1719 345.695 84.9609 345.02 84.5469 344.582C84.1406 344.145 83.5039 343.926 82.6367 343.926C81.9336 343.926 81.3164 344.113 80.7852 344.488C80.2539 344.863 79.8398 345.355 79.543 345.965V355H77.375V342.32H79.4258ZM95.8789 355.234C94.1602 355.234 92.7617 354.672 91.6836 353.547C90.6055 352.414 90.0664 350.902 90.0664 349.012V348.613C90.0664 347.355 90.3047 346.234 90.7812 345.25C91.2656 344.258 91.9375 343.484 92.7969 342.93C93.6641 342.367 94.6016 342.086 95.6094 342.086C97.2578 342.086 98.5391 342.629 99.4531 343.715C100.367 344.801 100.824 346.355 100.824 348.379V349.281H92.2344C92.2656 350.531 92.6289 351.543 93.3242 352.316C94.0273 353.082 94.918 353.465 95.9961 353.465C96.7617 353.465 97.4102 353.309 97.9414 352.996C98.4727 352.684 98.9375 352.27 99.3359 351.754L100.66 352.785C99.5977 354.418 98.0039 355.234 95.8789 355.234ZM95.6094 343.867C94.7344 343.867 94 344.188 93.4062 344.828C92.8125 345.461 92.4453 346.352 92.3047 347.5H98.6562V347.336C98.5938 346.234 98.2969 345.383 97.7656 344.781C97.2344 344.172 96.5156 343.867 95.6094 343.867ZM107.328 351.824L110.281 342.32H112.602L107.504 356.957C106.715 359.066 105.461 360.121 103.742 360.121L103.332 360.086L102.523 359.934V358.176L103.109 358.223C103.844 358.223 104.414 358.074 104.82 357.777C105.234 357.48 105.574 356.938 105.84 356.148L106.32 354.859L101.797 342.32H104.164L107.328 351.824ZM123.441 339.25V342.32H125.809V343.996H123.441V351.859C123.441 352.367 123.547 352.75 123.758 353.008C123.969 353.258 124.328 353.383 124.836 353.383C125.086 353.383 125.43 353.336 125.867 353.242V355C125.297 355.156 124.742 355.234 124.203 355.234C123.234 355.234 122.504 354.941 122.012 354.355C121.52 353.77 121.273 352.938 121.273 351.859V343.996H118.965V342.32H121.273V339.25H123.441ZM133.613 355.234C131.895 355.234 130.496 354.672 129.418 353.547C128.34 352.414 127.801 350.902 127.801 349.012V348.613C127.801 347.355 128.039 346.234 128.516 345.25C129 344.258 129.672 343.484 130.531 342.93C131.398 342.367 132.336 342.086 133.344 342.086C134.992 342.086 136.273 342.629 137.188 343.715C138.102 344.801 138.559 346.355 138.559 348.379V349.281H129.969C130 350.531 130.363 351.543 131.059 352.316C131.762 353.082 132.652 353.465 133.73 353.465C134.496 353.465 135.145 353.309 135.676 352.996C136.207 352.684 136.672 352.27 137.07 351.754L138.395 352.785C137.332 354.418 135.738 355.234 133.613 355.234ZM133.344 343.867C132.469 343.867 131.734 344.188 131.141 344.828C130.547 345.461 130.18 346.352 130.039 347.5H136.391V347.336C136.328 346.234 136.031 345.383 135.5 344.781C134.969 344.172 134.25 343.867 133.344 343.867ZM148.906 355C148.781 354.75 148.68 354.305 148.602 353.664C147.594 354.711 146.391 355.234 144.992 355.234C143.742 355.234 142.715 354.883 141.91 354.18C141.113 353.469 140.715 352.57 140.715 351.484C140.715 350.164 141.215 349.141 142.215 348.414C143.223 347.68 144.637 347.312 146.457 347.312H148.566V346.316C148.566 345.559 148.34 344.957 147.887 344.512C147.434 344.059 146.766 343.832 145.883 343.832C145.109 343.832 144.461 344.027 143.938 344.418C143.414 344.809 143.152 345.281 143.152 345.836H140.973C140.973 345.203 141.195 344.594 141.641 344.008C142.094 343.414 142.703 342.945 143.469 342.602C144.242 342.258 145.09 342.086 146.012 342.086C147.473 342.086 148.617 342.453 149.445 343.188C150.273 343.914 150.703 344.918 150.734 346.199V352.035C150.734 353.199 150.883 354.125 151.18 354.812V355H148.906ZM145.309 353.348C145.988 353.348 146.633 353.172 147.242 352.82C147.852 352.469 148.293 352.012 148.566 351.449V348.848H146.867C144.211 348.848 142.883 349.625 142.883 351.18C142.883 351.859 143.109 352.391 143.562 352.773C144.016 353.156 144.598 353.348 145.309 353.348ZM156.172 342.32L156.23 343.727C157.16 342.633 158.414 342.086 159.992 342.086C161.766 342.086 162.973 342.766 163.613 344.125C164.035 343.516 164.582 343.023 165.254 342.648C165.934 342.273 166.734 342.086 167.656 342.086C170.438 342.086 171.852 343.559 171.898 346.504V355H169.73V346.633C169.73 345.727 169.523 345.051 169.109 344.605C168.695 344.152 168 343.926 167.023 343.926C166.219 343.926 165.551 344.168 165.02 344.652C164.488 345.129 164.18 345.773 164.094 346.586V355H161.914V346.691C161.914 344.848 161.012 343.926 159.207 343.926C157.785 343.926 156.812 344.531 156.289 345.742V355H154.121V342.32H156.172Z" fill="black"/>
<path d="M37.5312 294.586C37.3203 296.391 36.6523 297.785 35.5273 298.77C34.4102 299.746 32.9219 300.234 31.0625 300.234C29.0469 300.234 27.4297 299.512 26.2109 298.066C25 296.621 24.3945 294.688 24.3945 292.266V290.625C24.3945 289.039 24.6758 287.645 25.2383 286.441C25.8086 285.238 26.6133 284.316 27.6523 283.676C28.6914 283.027 29.8945 282.703 31.2617 282.703C33.0742 282.703 34.5273 283.211 35.6211 284.227C36.7148 285.234 37.3516 286.633 37.5312 288.422H35.2695C35.0742 287.062 34.6484 286.078 33.9922 285.469C33.3438 284.859 32.4336 284.555 31.2617 284.555C29.8242 284.555 28.6953 285.086 27.875 286.148C27.0625 287.211 26.6562 288.723 26.6562 290.684V292.336C26.6562 294.188 27.043 295.66 27.8164 296.754C28.5898 297.848 29.6719 298.395 31.0625 298.395C32.3125 298.395 33.2695 298.113 33.9336 297.551C34.6055 296.98 35.0508 295.992 35.2695 294.586H37.5312ZM42.6289 300H40.4609V282H42.6289V300ZM48.4648 300H46.2969V287.32H48.4648V300ZM46.1211 283.957C46.1211 283.605 46.2266 283.309 46.4375 283.066C46.6562 282.824 46.9766 282.703 47.3984 282.703C47.8203 282.703 48.1406 282.824 48.3594 283.066C48.5781 283.309 48.6875 283.605 48.6875 283.957C48.6875 284.309 48.5781 284.602 48.3594 284.836C48.1406 285.07 47.8203 285.188 47.3984 285.188C46.9766 285.188 46.6562 285.07 46.4375 284.836C46.2266 284.602 46.1211 284.309 46.1211 283.957ZM57.207 300.234C55.4883 300.234 54.0898 299.672 53.0117 298.547C51.9336 297.414 51.3945 295.902 51.3945 294.012V293.613C51.3945 292.355 51.6328 291.234 52.1094 290.25C52.5938 289.258 53.2656 288.484 54.125 287.93C54.9922 287.367 55.9297 287.086 56.9375 287.086C58.5859 287.086 59.8672 287.629 60.7812 288.715C61.6953 289.801 62.1523 291.355 62.1523 293.379V294.281H53.5625C53.5938 295.531 53.957 296.543 54.6523 297.316C55.3555 298.082 56.2461 298.465 57.3242 298.465C58.0898 298.465 58.7383 298.309 59.2695 297.996C59.8008 297.684 60.2656 297.27 60.6641 296.754L61.9883 297.785C60.9258 299.418 59.332 300.234 57.207 300.234ZM56.9375 288.867C56.0625 288.867 55.3281 289.188 54.7344 289.828C54.1406 290.461 53.7734 291.352 53.6328 292.5H59.9844V292.336C59.9219 291.234 59.625 290.383 59.0938 289.781C58.5625 289.172 57.8438 288.867 56.9375 288.867ZM66.7227 287.32L66.793 288.914C67.7617 287.695 69.0273 287.086 70.5898 287.086C73.2695 287.086 74.6211 288.598 74.6445 291.621V300H72.4766V291.609C72.4688 290.695 72.2578 290.02 71.8438 289.582C71.4375 289.145 70.8008 288.926 69.9336 288.926C69.2305 288.926 68.6133 289.113 68.082 289.488C67.5508 289.863 67.1367 290.355 66.8398 290.965V300H64.6719V287.32H66.7227ZM80.8555 284.25V287.32H83.2227V288.996H80.8555V296.859C80.8555 297.367 80.9609 297.75 81.1719 298.008C81.3828 298.258 81.7422 298.383 82.25 298.383C82.5 298.383 82.8438 298.336 83.2812 298.242V300C82.7109 300.156 82.1562 300.234 81.6172 300.234C80.6484 300.234 79.918 299.941 79.4258 299.355C78.9336 298.77 78.6875 297.938 78.6875 296.859V288.996H76.3789V287.32H78.6875V284.25H80.8555ZM94.6602 284.25V287.32H97.0273V288.996H94.6602V296.859C94.6602 297.367 94.7656 297.75 94.9766 298.008C95.1875 298.258 95.5469 298.383 96.0547 298.383C96.3047 298.383 96.6484 298.336 97.0859 298.242V300C96.5156 300.156 95.9609 300.234 95.4219 300.234C94.4531 300.234 93.7227 299.941 93.2305 299.355C92.7383 298.77 92.4922 297.938 92.4922 296.859V288.996H90.1836V287.32H92.4922V284.25H94.6602ZM104.832 300.234C103.113 300.234 101.715 299.672 100.637 298.547C99.5586 297.414 99.0195 295.902 99.0195 294.012V293.613C99.0195 292.355 99.2578 291.234 99.7344 290.25C100.219 289.258 100.891 288.484 101.75 287.93C102.617 287.367 103.555 287.086 104.562 287.086C106.211 287.086 107.492 287.629 108.406 288.715C109.32 289.801 109.777 291.355 109.777 293.379V294.281H101.188C101.219 295.531 101.582 296.543 102.277 297.316C102.98 298.082 103.871 298.465 104.949 298.465C105.715 298.465 106.363 298.309 106.895 297.996C107.426 297.684 107.891 297.27 108.289 296.754L109.613 297.785C108.551 299.418 106.957 300.234 104.832 300.234ZM104.562 288.867C103.688 288.867 102.953 289.188 102.359 289.828C101.766 290.461 101.398 291.352 101.258 292.5H107.609V292.336C107.547 291.234 107.25 290.383 106.719 289.781C106.188 289.172 105.469 288.867 104.562 288.867ZM120.125 300C120 299.75 119.898 299.305 119.82 298.664C118.812 299.711 117.609 300.234 116.211 300.234C114.961 300.234 113.934 299.883 113.129 299.18C112.332 298.469 111.934 297.57 111.934 296.484C111.934 295.164 112.434 294.141 113.434 293.414C114.441 292.68 115.855 292.312 117.676 292.312H119.785V291.316C119.785 290.559 119.559 289.957 119.105 289.512C118.652 289.059 117.984 288.832 117.102 288.832C116.328 288.832 115.68 289.027 115.156 289.418C114.633 289.809 114.371 290.281 114.371 290.836H112.191C112.191 290.203 112.414 289.594 112.859 289.008C113.312 288.414 113.922 287.945 114.688 287.602C115.461 287.258 116.309 287.086 117.23 287.086C118.691 287.086 119.836 287.453 120.664 288.188C121.492 288.914 121.922 289.918 121.953 291.199V297.035C121.953 298.199 122.102 299.125 122.398 299.812V300H120.125ZM116.527 298.348C117.207 298.348 117.852 298.172 118.461 297.82C119.07 297.469 119.512 297.012 119.785 296.449V293.848H118.086C115.43 293.848 114.102 294.625 114.102 296.18C114.102 296.859 114.328 297.391 114.781 297.773C115.234 298.156 115.816 298.348 116.527 298.348ZM127.391 287.32L127.449 288.727C128.379 287.633 129.633 287.086 131.211 287.086C132.984 287.086 134.191 287.766 134.832 289.125C135.254 288.516 135.801 288.023 136.473 287.648C137.152 287.273 137.953 287.086 138.875 287.086C141.656 287.086 143.07 288.559 143.117 291.504V300H140.949V291.633C140.949 290.727 140.742 290.051 140.328 289.605C139.914 289.152 139.219 288.926 138.242 288.926C137.438 288.926 136.77 289.168 136.238 289.652C135.707 290.129 135.398 290.773 135.312 291.586V300H133.133V291.691C133.133 289.848 132.23 288.926 130.426 288.926C129.004 288.926 128.031 289.531 127.508 290.742V300H125.34V287.32H127.391Z" fill="black"/>
<path d="M31.2383 396.098H27.2305V403H24.9688V385.938H30.6172C32.5391 385.938 34.0156 386.375 35.0469 387.25C36.0859 388.125 36.6055 389.398 36.6055 391.07C36.6055 392.133 36.3164 393.059 35.7383 393.848C35.168 394.637 34.3711 395.227 33.3477 395.617L37.3555 402.859V403H34.9414L31.2383 396.098ZM27.2305 394.258H30.6875C31.8047 394.258 32.6914 393.969 33.3477 393.391C34.0117 392.812 34.3438 392.039 34.3438 391.07C34.3438 390.016 34.0273 389.207 33.3945 388.645C32.7695 388.082 31.8633 387.797 30.6758 387.789H27.2305V394.258ZM44.6914 403.234C42.9727 403.234 41.5742 402.672 40.4961 401.547C39.418 400.414 38.8789 398.902 38.8789 397.012V396.613C38.8789 395.355 39.1172 394.234 39.5938 393.25C40.0781 392.258 40.75 391.484 41.6094 390.93C42.4766 390.367 43.4141 390.086 44.4219 390.086C46.0703 390.086 47.3516 390.629 48.2656 391.715C49.1797 392.801 49.6367 394.355 49.6367 396.379V397.281H41.0469C41.0781 398.531 41.4414 399.543 42.1367 400.316C42.8398 401.082 43.7305 401.465 44.8086 401.465C45.5742 401.465 46.2227 401.309 46.7539 400.996C47.2852 400.684 47.75 400.27 48.1484 399.754L49.4727 400.785C48.4102 402.418 46.8164 403.234 44.6914 403.234ZM44.4219 391.867C43.5469 391.867 42.8125 392.188 42.2188 392.828C41.625 393.461 41.2578 394.352 41.1172 395.5H47.4688V395.336C47.4062 394.234 47.1094 393.383 46.5781 392.781C46.0469 392.172 45.3281 391.867 44.4219 391.867ZM59.5391 399.637C59.5391 399.051 59.3164 398.598 58.8711 398.277C58.4336 397.949 57.6641 397.668 56.5625 397.434C55.4688 397.199 54.5977 396.918 53.9492 396.59C53.3086 396.262 52.832 395.871 52.5195 395.418C52.2148 394.965 52.0625 394.426 52.0625 393.801C52.0625 392.762 52.5 391.883 53.375 391.164C54.2578 390.445 55.3828 390.086 56.75 390.086C58.1875 390.086 59.3516 390.457 60.2422 391.199C61.1406 391.941 61.5898 392.891 61.5898 394.047H59.4102C59.4102 393.453 59.1562 392.941 58.6484 392.512C58.1484 392.082 57.5156 391.867 56.75 391.867C55.9609 391.867 55.3438 392.039 54.8984 392.383C54.4531 392.727 54.2305 393.176 54.2305 393.73C54.2305 394.254 54.4375 394.648 54.8516 394.914C55.2656 395.18 56.0117 395.434 57.0898 395.676C58.1758 395.918 59.0547 396.207 59.7266 396.543C60.3984 396.879 60.8945 397.285 61.2148 397.762C61.543 398.23 61.707 398.805 61.707 399.484C61.707 400.617 61.2539 401.527 60.3477 402.215C59.4414 402.895 58.2656 403.234 56.8203 403.234C55.8047 403.234 54.9062 403.055 54.125 402.695C53.3438 402.336 52.7305 401.836 52.2852 401.195C51.8477 400.547 51.6289 399.848 51.6289 399.098H53.7969C53.8359 399.824 54.125 400.402 54.6641 400.832C55.2109 401.254 55.9297 401.465 56.8203 401.465C57.6406 401.465 58.2969 401.301 58.7891 400.973C59.2891 400.637 59.5391 400.191 59.5391 399.637ZM63.957 396.543C63.957 395.301 64.1992 394.184 64.6836 393.191C65.1758 392.199 65.8555 391.434 66.7227 390.895C67.5977 390.355 68.5938 390.086 69.7109 390.086C71.4375 390.086 72.832 390.684 73.8945 391.879C74.9648 393.074 75.5 394.664 75.5 396.648V396.801C75.5 398.035 75.2617 399.145 74.7852 400.129C74.3164 401.105 73.6406 401.867 72.7578 402.414C71.8828 402.961 70.875 403.234 69.7344 403.234C68.0156 403.234 66.6211 402.637 65.5508 401.441C64.4883 400.246 63.957 398.664 63.957 396.695V396.543ZM66.1367 396.801C66.1367 398.207 66.4609 399.336 67.1094 400.188C67.7656 401.039 68.6406 401.465 69.7344 401.465C70.8359 401.465 71.7109 401.035 72.3594 400.176C73.0078 399.309 73.332 398.098 73.332 396.543C73.332 395.152 73 394.027 72.3359 393.168C71.6797 392.301 70.8047 391.867 69.7109 391.867C68.6406 391.867 67.7773 392.293 67.1211 393.145C66.4648 393.996 66.1367 395.215 66.1367 396.801ZM86.0469 401.746C85.2031 402.738 83.9648 403.234 82.332 403.234C80.9805 403.234 79.9492 402.844 79.2383 402.062C78.5352 401.273 78.1797 400.109 78.1719 398.57V390.32H80.3398V398.512C80.3398 400.434 81.1211 401.395 82.6836 401.395C84.3398 401.395 85.4414 400.777 85.9883 399.543V390.32H88.1562V403H86.0938L86.0469 401.746ZM97.5898 392.266C97.2617 392.211 96.9062 392.184 96.5234 392.184C95.1016 392.184 94.1367 392.789 93.6289 394V403H91.4609V390.32H93.5703L93.6055 391.785C94.3164 390.652 95.3242 390.086 96.6289 390.086C97.0508 390.086 97.3711 390.141 97.5898 390.25V392.266ZM104.445 401.465C105.219 401.465 105.895 401.23 106.473 400.762C107.051 400.293 107.371 399.707 107.434 399.004H109.484C109.445 399.73 109.195 400.422 108.734 401.078C108.273 401.734 107.656 402.258 106.883 402.648C106.117 403.039 105.305 403.234 104.445 403.234C102.719 403.234 101.344 402.66 100.32 401.512C99.3047 400.355 98.7969 398.777 98.7969 396.777V396.414C98.7969 395.18 99.0234 394.082 99.4766 393.121C99.9297 392.16 100.578 391.414 101.422 390.883C102.273 390.352 103.277 390.086 104.434 390.086C105.855 390.086 107.035 390.512 107.973 391.363C108.918 392.215 109.422 393.32 109.484 394.68H107.434C107.371 393.859 107.059 393.188 106.496 392.664C105.941 392.133 105.254 391.867 104.434 391.867C103.332 391.867 102.477 392.266 101.867 393.062C101.266 393.852 100.965 394.996 100.965 396.496V396.906C100.965 398.367 101.266 399.492 101.867 400.281C102.469 401.07 103.328 401.465 104.445 401.465ZM117.184 403.234C115.465 403.234 114.066 402.672 112.988 401.547C111.91 400.414 111.371 398.902 111.371 397.012V396.613C111.371 395.355 111.609 394.234 112.086 393.25C112.57 392.258 113.242 391.484 114.102 390.93C114.969 390.367 115.906 390.086 116.914 390.086C118.562 390.086 119.844 390.629 120.758 391.715C121.672 392.801 122.129 394.355 122.129 396.379V397.281H113.539C113.57 398.531 113.934 399.543 114.629 400.316C115.332 401.082 116.223 401.465 117.301 401.465C118.066 401.465 118.715 401.309 119.246 400.996C119.777 400.684 120.242 400.27 120.641 399.754L121.965 400.785C120.902 402.418 119.309 403.234 117.184 403.234ZM116.914 391.867C116.039 391.867 115.305 392.188 114.711 392.828C114.117 393.461 113.75 394.352 113.609 395.5H119.961V395.336C119.898 394.234 119.602 393.383 119.07 392.781C118.539 392.172 117.82 391.867 116.914 391.867ZM132.031 399.637C132.031 399.051 131.809 398.598 131.363 398.277C130.926 397.949 130.156 397.668 129.055 397.434C127.961 397.199 127.09 396.918 126.441 396.59C125.801 396.262 125.324 395.871 125.012 395.418C124.707 394.965 124.555 394.426 124.555 393.801C124.555 392.762 124.992 391.883 125.867 391.164C126.75 390.445 127.875 390.086 129.242 390.086C130.68 390.086 131.844 390.457 132.734 391.199C133.633 391.941 134.082 392.891 134.082 394.047H131.902C131.902 393.453 131.648 392.941 131.141 392.512C130.641 392.082 130.008 391.867 129.242 391.867C128.453 391.867 127.836 392.039 127.391 392.383C126.945 392.727 126.723 393.176 126.723 393.73C126.723 394.254 126.93 394.648 127.344 394.914C127.758 395.18 128.504 395.434 129.582 395.676C130.668 395.918 131.547 396.207 132.219 396.543C132.891 396.879 133.387 397.285 133.707 397.762C134.035 398.23 134.199 398.805 134.199 399.484C134.199 400.617 133.746 401.527 132.84 402.215C131.934 402.895 130.758 403.234 129.312 403.234C128.297 403.234 127.398 403.055 126.617 402.695C125.836 402.336 125.223 401.836 124.777 401.195C124.34 400.547 124.121 399.848 124.121 399.098H126.289C126.328 399.824 126.617 400.402 127.156 400.832C127.703 401.254 128.422 401.465 129.312 401.465C130.133 401.465 130.789 401.301 131.281 400.973C131.781 400.637 132.031 400.191 132.031 399.637Z" fill="black"/>
</svg>
