<svg width="960" height="176" viewBox="0 0 960 176" fill="none" xmlns="http://www.w3.org/2000/svg">
<rect width="960" height="176" fill="#F7F7F9"/>
<rect x="16" y="47" width="150" height="36" fill="white"/>
<path d="M47.7979 66.8418C47.6748 67.8945 47.2852 68.708 46.6289 69.2822C45.9772 69.8519 45.109 70.1367 44.0244 70.1367C42.8486 70.1367 41.9053 69.7152 41.1943 68.8721C40.488 68.029 40.1348 66.901 40.1348 65.4883V64.5312C40.1348 63.6061 40.2988 62.7926 40.627 62.0908C40.9596 61.389 41.429 60.8512 42.0352 60.4775C42.6413 60.0993 43.3431 59.9102 44.1406 59.9102C45.1979 59.9102 46.0456 60.2064 46.6836 60.7988C47.3216 61.3867 47.693 62.2025 47.7979 63.2461H46.4785C46.3646 62.4531 46.1162 61.8789 45.7334 61.5234C45.3551 61.168 44.8242 60.9902 44.1406 60.9902C43.3021 60.9902 42.6436 61.3001 42.165 61.9199C41.6911 62.5397 41.4541 63.4215 41.4541 64.5654V65.5293C41.4541 66.6094 41.6797 67.4684 42.1309 68.1064C42.582 68.7445 43.2132 69.0635 44.0244 69.0635C44.7536 69.0635 45.3118 68.8994 45.6992 68.5713C46.0911 68.2386 46.3509 67.6621 46.4785 66.8418H47.7979ZM50.7715 70H49.5068V59.5H50.7715V70ZM54.1758 70H52.9111V62.6035H54.1758V70ZM52.8086 60.6416C52.8086 60.4365 52.8701 60.2633 52.9932 60.1221C53.1208 59.9808 53.3076 59.9102 53.5537 59.9102C53.7998 59.9102 53.9867 59.9808 54.1143 60.1221C54.2419 60.2633 54.3057 60.4365 54.3057 60.6416C54.3057 60.8467 54.2419 61.0176 54.1143 61.1543C53.9867 61.291 53.7998 61.3594 53.5537 61.3594C53.3076 61.3594 53.1208 61.291 52.9932 61.1543C52.8701 61.0176 52.8086 60.8467 52.8086 60.6416ZM59.2754 70.1367C58.2728 70.1367 57.457 69.8086 56.8281 69.1523C56.1992 68.4915 55.8848 67.6097 55.8848 66.5068V66.2744C55.8848 65.5407 56.0238 64.8867 56.3018 64.3125C56.5843 63.7337 56.9762 63.2826 57.4775 62.959C57.9834 62.6309 58.5303 62.4668 59.1182 62.4668C60.0798 62.4668 60.8271 62.7835 61.3604 63.417C61.8936 64.0505 62.1602 64.9574 62.1602 66.1377V66.6641H57.1494C57.1676 67.3932 57.3796 67.9834 57.7852 68.4346C58.1953 68.8812 58.7148 69.1045 59.3438 69.1045C59.7904 69.1045 60.1686 69.0133 60.4785 68.8311C60.7884 68.6488 61.0596 68.4072 61.292 68.1064L62.0645 68.708C61.4447 69.6605 60.515 70.1367 59.2754 70.1367ZM59.1182 63.5059C58.6077 63.5059 58.1794 63.6927 57.833 64.0664C57.4867 64.4355 57.2725 64.9551 57.1904 65.625H60.8955V65.5293C60.859 64.8867 60.6859 64.39 60.376 64.0391C60.0661 63.6836 59.6468 63.5059 59.1182 63.5059ZM64.8262 62.6035L64.8672 63.5332C65.4323 62.8223 66.1706 62.4668 67.082 62.4668C68.6452 62.4668 69.4336 63.3486 69.4473 65.1123V70H68.1826V65.1055C68.1781 64.5723 68.055 64.1781 67.8135 63.9229C67.5765 63.6676 67.2051 63.54 66.6992 63.54C66.2891 63.54 65.929 63.6494 65.6191 63.8682C65.3092 64.0869 65.0677 64.374 64.8945 64.7295V70H63.6299V62.6035H64.8262ZM73.0703 60.8125V62.6035H74.4512V63.5811H73.0703V68.168C73.0703 68.4642 73.1318 68.6875 73.2549 68.8379C73.3779 68.9837 73.5876 69.0566 73.8838 69.0566C74.0296 69.0566 74.2301 69.0293 74.4854 68.9746V70C74.1527 70.0911 73.8291 70.1367 73.5146 70.1367C72.9495 70.1367 72.5234 69.9658 72.2363 69.624C71.9492 69.2822 71.8057 68.7969 71.8057 68.168V63.5811H70.459V62.6035H71.8057V60.8125H73.0703ZM82.5381 65.5635C81.4124 65.2399 80.5921 64.8434 80.0771 64.374C79.5667 63.9001 79.3115 63.3167 79.3115 62.624C79.3115 61.8402 79.6237 61.193 80.248 60.6826C80.877 60.1676 81.6927 59.9102 82.6953 59.9102C83.3789 59.9102 83.9873 60.0423 84.5205 60.3066C85.0583 60.571 85.473 60.9355 85.7646 61.4004C86.0609 61.8652 86.209 62.3734 86.209 62.9248H84.8896C84.8896 62.3232 84.6982 61.8516 84.3154 61.5098C83.9326 61.1634 83.3926 60.9902 82.6953 60.9902C82.0482 60.9902 81.5423 61.1338 81.1777 61.4209C80.8177 61.7035 80.6377 62.0977 80.6377 62.6035C80.6377 63.0091 80.8086 63.3532 81.1504 63.6357C81.4967 63.9137 82.0824 64.1689 82.9072 64.4014C83.7367 64.6338 84.3838 64.8913 84.8486 65.1738C85.318 65.4518 85.6644 65.7777 85.8877 66.1514C86.1156 66.5251 86.2295 66.9648 86.2295 67.4707C86.2295 68.2773 85.915 68.9245 85.2861 69.4121C84.6572 69.8952 83.8164 70.1367 82.7637 70.1367C82.0801 70.1367 81.4421 70.0068 80.8496 69.7471C80.2572 69.4827 79.7992 69.1227 79.4756 68.667C79.1566 68.2113 78.9971 67.694 78.9971 67.1152H80.3164C80.3164 67.7168 80.5374 68.193 80.9795 68.5439C81.4261 68.8903 82.0208 69.0635 82.7637 69.0635C83.4564 69.0635 83.9873 68.9222 84.3564 68.6396C84.7256 68.3571 84.9102 67.972 84.9102 67.4844C84.9102 66.9967 84.7393 66.6208 84.3975 66.3564C84.0557 66.0876 83.4359 65.8232 82.5381 65.5635ZM89.0938 70H87.8291V62.6035H89.0938V70ZM87.7266 60.6416C87.7266 60.4365 87.7881 60.2633 87.9111 60.1221C88.0387 59.9808 88.2256 59.9102 88.4717 59.9102C88.7178 59.9102 88.9046 59.9808 89.0322 60.1221C89.1598 60.2633 89.2236 60.4365 89.2236 60.6416C89.2236 60.8467 89.1598 61.0176 89.0322 61.1543C88.9046 61.291 88.7178 61.3594 88.4717 61.3594C88.2256 61.3594 88.0387 61.291 87.9111 61.1543C87.7881 61.0176 87.7266 60.8467 87.7266 60.6416ZM90.8164 66.2402C90.8164 65.1055 91.0853 64.194 91.623 63.5059C92.1608 62.8132 92.8649 62.4668 93.7354 62.4668C94.6012 62.4668 95.2871 62.763 95.793 63.3555V59.5H97.0576V70H95.8955L95.834 69.207C95.3281 69.8268 94.624 70.1367 93.7217 70.1367C92.8649 70.1367 92.1654 69.7858 91.623 69.084C91.0853 68.3822 90.8164 67.4661 90.8164 66.3359V66.2402ZM92.0811 66.3838C92.0811 67.2223 92.2542 67.8786 92.6006 68.3525C92.9469 68.8265 93.4255 69.0635 94.0361 69.0635C94.8382 69.0635 95.4238 68.7035 95.793 67.9834V64.5859C95.4147 63.8887 94.8337 63.54 94.0498 63.54C93.43 63.54 92.9469 63.7793 92.6006 64.2578C92.2542 64.7363 92.0811 65.445 92.0811 66.3838ZM102.096 70.1367C101.093 70.1367 100.277 69.8086 99.6484 69.1523C99.0195 68.4915 98.7051 67.6097 98.7051 66.5068V66.2744C98.7051 65.5407 98.8441 64.8867 99.1221 64.3125C99.4046 63.7337 99.7965 63.2826 100.298 62.959C100.804 62.6309 101.351 62.4668 101.938 62.4668C102.9 62.4668 103.647 62.7835 104.181 63.417C104.714 64.0505 104.98 64.9574 104.98 66.1377V66.6641H99.9697C99.988 67.3932 100.2 67.9834 100.605 68.4346C101.016 68.8812 101.535 69.1045 102.164 69.1045C102.611 69.1045 102.989 69.0133 103.299 68.8311C103.609 68.6488 103.88 68.4072 104.112 68.1064L104.885 68.708C104.265 69.6605 103.335 70.1367 102.096 70.1367ZM101.938 63.5059C101.428 63.5059 101 63.6927 100.653 64.0664C100.307 64.4355 100.093 64.9551 100.011 65.625H103.716V65.5293C103.679 64.8867 103.506 64.39 103.196 64.0391C102.886 63.6836 102.467 63.5059 101.938 63.5059ZM116.725 61.127H113.525V70H112.22V61.127H109.027V60.0469H116.725V61.127ZM120.389 70.1367C119.386 70.1367 118.57 69.8086 117.941 69.1523C117.312 68.4915 116.998 67.6097 116.998 66.5068V66.2744C116.998 65.5407 117.137 64.8867 117.415 64.3125C117.698 63.7337 118.09 63.2826 118.591 62.959C119.097 62.6309 119.644 62.4668 120.231 62.4668C121.193 62.4668 121.94 62.7835 122.474 63.417C123.007 64.0505 123.273 64.9574 123.273 66.1377V66.6641H118.263C118.281 67.3932 118.493 67.9834 118.898 68.4346C119.309 68.8812 119.828 69.1045 120.457 69.1045C120.904 69.1045 121.282 69.0133 121.592 68.8311C121.902 68.6488 122.173 68.4072 122.405 68.1064L123.178 68.708C122.558 69.6605 121.628 70.1367 120.389 70.1367ZM120.231 63.5059C119.721 63.5059 119.293 63.6927 118.946 64.0664C118.6 64.4355 118.386 64.9551 118.304 65.625H122.009V65.5293C121.972 64.8867 121.799 64.39 121.489 64.0391C121.179 63.6836 120.76 63.5059 120.231 63.5059ZM129.31 70C129.237 69.8542 129.177 69.5944 129.132 69.2207C128.544 69.8314 127.842 70.1367 127.026 70.1367C126.297 70.1367 125.698 69.9316 125.229 69.5215C124.764 69.1068 124.531 68.5827 124.531 67.9492C124.531 67.179 124.823 66.582 125.406 66.1582C125.994 65.7298 126.819 65.5156 127.881 65.5156H129.111V64.9346C129.111 64.4925 128.979 64.1416 128.715 63.8818C128.451 63.6175 128.061 63.4854 127.546 63.4854C127.095 63.4854 126.716 63.5993 126.411 63.8271C126.106 64.055 125.953 64.3307 125.953 64.6543H124.682C124.682 64.2852 124.812 63.9297 125.071 63.5879C125.336 63.2415 125.691 62.9681 126.138 62.7676C126.589 62.5671 127.083 62.4668 127.621 62.4668C128.473 62.4668 129.141 62.681 129.624 63.1094C130.107 63.5332 130.358 64.1188 130.376 64.8662V68.2705C130.376 68.9495 130.463 69.4896 130.636 69.8906V70H129.31ZM127.211 69.0361C127.607 69.0361 127.983 68.9336 128.339 68.7285C128.694 68.5234 128.952 68.2568 129.111 67.9287V66.4111H128.12C126.571 66.4111 125.796 66.8646 125.796 67.7715C125.796 68.168 125.928 68.4779 126.192 68.7012C126.457 68.9245 126.796 69.0361 127.211 69.0361ZM133.548 62.6035L133.582 63.4238C134.124 62.7858 134.856 62.4668 135.776 62.4668C136.811 62.4668 137.515 62.8633 137.889 63.6562C138.135 63.3008 138.454 63.0137 138.846 62.7949C139.242 62.5762 139.709 62.4668 140.247 62.4668C141.869 62.4668 142.694 63.3258 142.722 65.0439V70H141.457V65.1191C141.457 64.5905 141.336 64.1963 141.095 63.9365C140.853 63.6722 140.448 63.54 139.878 63.54C139.409 63.54 139.019 63.6813 138.709 63.9639C138.399 64.2419 138.219 64.6178 138.169 65.0918V70H136.897V65.1533C136.897 64.0778 136.371 63.54 135.318 63.54C134.489 63.54 133.922 63.8932 133.616 64.5996V70H132.352V62.6035H133.548Z" fill="#FF0000"/>
<rect x="16" y="93" width="150" height="36" fill="white"/>
<path d="M44.8711 112.842C44.748 113.895 44.3584 114.708 43.7021 115.282C43.0505 115.852 42.1823 116.137 41.0977 116.137C39.9219 116.137 38.9785 115.715 38.2676 114.872C37.5612 114.029 37.208 112.901 37.208 111.488V110.531C37.208 109.606 37.3721 108.793 37.7002 108.091C38.0329 107.389 38.5023 106.851 39.1084 106.478C39.7145 106.099 40.4163 105.91 41.2139 105.91C42.2712 105.91 43.1188 106.206 43.7568 106.799C44.3949 107.387 44.7663 108.202 44.8711 109.246H43.5518C43.4378 108.453 43.1895 107.879 42.8066 107.523C42.4284 107.168 41.8975 106.99 41.2139 106.99C40.3753 106.99 39.7168 107.3 39.2383 107.92C38.7643 108.54 38.5273 109.422 38.5273 110.565V111.529C38.5273 112.609 38.7529 113.468 39.2041 114.106C39.6553 114.744 40.2865 115.063 41.0977 115.063C41.8268 115.063 42.3851 114.899 42.7725 114.571C43.1644 114.239 43.4242 113.662 43.5518 112.842H44.8711ZM47.8447 116H46.5801V105.5H47.8447V116ZM51.249 116H49.9844V108.604H51.249V116ZM49.8818 106.642C49.8818 106.437 49.9434 106.263 50.0664 106.122C50.194 105.981 50.3809 105.91 50.627 105.91C50.873 105.91 51.0599 105.981 51.1875 106.122C51.3151 106.263 51.3789 106.437 51.3789 106.642C51.3789 106.847 51.3151 107.018 51.1875 107.154C51.0599 107.291 50.873 107.359 50.627 107.359C50.3809 107.359 50.194 107.291 50.0664 107.154C49.9434 107.018 49.8818 106.847 49.8818 106.642ZM56.3486 116.137C55.346 116.137 54.5303 115.809 53.9014 115.152C53.2725 114.492 52.958 113.61 52.958 112.507V112.274C52.958 111.541 53.097 110.887 53.375 110.312C53.6576 109.734 54.0495 109.283 54.5508 108.959C55.0566 108.631 55.6035 108.467 56.1914 108.467C57.153 108.467 57.9004 108.784 58.4336 109.417C58.9668 110.05 59.2334 110.957 59.2334 112.138V112.664H54.2227C54.2409 113.393 54.4528 113.983 54.8584 114.435C55.2686 114.881 55.7881 115.104 56.417 115.104C56.8636 115.104 57.2419 115.013 57.5518 114.831C57.8617 114.649 58.1328 114.407 58.3652 114.106L59.1377 114.708C58.5179 115.66 57.5882 116.137 56.3486 116.137ZM56.1914 109.506C55.681 109.506 55.2526 109.693 54.9062 110.066C54.5599 110.436 54.3457 110.955 54.2637 111.625H57.9688V111.529C57.9323 110.887 57.7591 110.39 57.4492 110.039C57.1393 109.684 56.7201 109.506 56.1914 109.506ZM61.8994 108.604L61.9404 109.533C62.5055 108.822 63.2438 108.467 64.1553 108.467C65.7184 108.467 66.5068 109.349 66.5205 111.112V116H65.2559V111.105C65.2513 110.572 65.1283 110.178 64.8867 109.923C64.6497 109.668 64.2783 109.54 63.7725 109.54C63.3623 109.54 63.0023 109.649 62.6924 109.868C62.3825 110.087 62.141 110.374 61.9678 110.729V116H60.7031V108.604H61.8994ZM70.1436 106.812V108.604H71.5244V109.581H70.1436V114.168C70.1436 114.464 70.2051 114.688 70.3281 114.838C70.4512 114.984 70.6608 115.057 70.957 115.057C71.1029 115.057 71.3034 115.029 71.5586 114.975V116C71.2259 116.091 70.9023 116.137 70.5879 116.137C70.0228 116.137 69.5967 115.966 69.3096 115.624C69.0225 115.282 68.8789 114.797 68.8789 114.168V109.581H67.5322V108.604H68.8789V106.812H70.1436ZM82.7285 112.384C82.7285 113.509 82.471 114.416 81.9561 115.104C81.4411 115.793 80.7438 116.137 79.8643 116.137C78.9665 116.137 78.2601 115.852 77.7451 115.282V118.844H76.4805V108.604H77.6357L77.6973 109.424C78.2122 108.786 78.9277 108.467 79.8438 108.467C80.7324 108.467 81.4342 108.802 81.9492 109.472C82.4688 110.142 82.7285 111.074 82.7285 112.268V112.384ZM81.4639 112.24C81.4639 111.406 81.2861 110.748 80.9307 110.265C80.5752 109.782 80.0876 109.54 79.4678 109.54C78.7021 109.54 78.1279 109.88 77.7451 110.559V114.093C78.1234 114.767 78.7021 115.104 79.4814 115.104C80.0876 115.104 80.5684 114.865 80.9238 114.387C81.2839 113.904 81.4639 113.188 81.4639 112.24ZM87.917 109.738C87.7256 109.706 87.5182 109.69 87.2949 109.69C86.4655 109.69 85.9027 110.044 85.6064 110.75V116H84.3418V108.604H85.5723L85.5928 109.458C86.0075 108.797 86.5954 108.467 87.3564 108.467C87.6025 108.467 87.7894 108.499 87.917 108.562V109.738ZM88.6143 112.233C88.6143 111.509 88.7555 110.857 89.0381 110.278C89.3252 109.7 89.7217 109.253 90.2275 108.938C90.738 108.624 91.319 108.467 91.9707 108.467C92.9779 108.467 93.7913 108.815 94.4111 109.513C95.0355 110.21 95.3477 111.137 95.3477 112.295V112.384C95.3477 113.104 95.2087 113.751 94.9307 114.325C94.6572 114.895 94.263 115.339 93.748 115.658C93.2376 115.977 92.6497 116.137 91.9844 116.137C90.9818 116.137 90.1683 115.788 89.5439 115.091C88.9242 114.394 88.6143 113.471 88.6143 112.322V112.233ZM89.8857 112.384C89.8857 113.204 90.0749 113.863 90.4531 114.359C90.8359 114.856 91.3464 115.104 91.9844 115.104C92.627 115.104 93.1374 114.854 93.5156 114.353C93.8939 113.847 94.083 113.14 94.083 112.233C94.083 111.422 93.8893 110.766 93.502 110.265C93.1191 109.759 92.6087 109.506 91.9707 109.506C91.3464 109.506 90.8428 109.754 90.46 110.251C90.0771 110.748 89.8857 111.459 89.8857 112.384ZM99.9004 115.104C100.352 115.104 100.746 114.968 101.083 114.694C101.42 114.421 101.607 114.079 101.644 113.669H102.84C102.817 114.093 102.671 114.496 102.402 114.879C102.133 115.262 101.773 115.567 101.322 115.795C100.876 116.023 100.402 116.137 99.9004 116.137C98.8932 116.137 98.0911 115.802 97.4941 115.132C96.9017 114.457 96.6055 113.537 96.6055 112.37V112.158C96.6055 111.438 96.7376 110.798 97.002 110.237C97.2663 109.677 97.6445 109.242 98.1367 108.932C98.6335 108.622 99.2191 108.467 99.8936 108.467C100.723 108.467 101.411 108.715 101.958 109.212C102.509 109.709 102.803 110.354 102.84 111.146H101.644C101.607 110.668 101.425 110.276 101.097 109.971C100.773 109.661 100.372 109.506 99.8936 109.506C99.251 109.506 98.752 109.738 98.3965 110.203C98.0456 110.663 97.8701 111.331 97.8701 112.206V112.445C97.8701 113.298 98.0456 113.954 98.3965 114.414C98.7474 114.874 99.2487 115.104 99.9004 115.104ZM107.331 116.137C106.328 116.137 105.513 115.809 104.884 115.152C104.255 114.492 103.94 113.61 103.94 112.507V112.274C103.94 111.541 104.079 110.887 104.357 110.312C104.64 109.734 105.032 109.283 105.533 108.959C106.039 108.631 106.586 108.467 107.174 108.467C108.135 108.467 108.883 108.784 109.416 109.417C109.949 110.05 110.216 110.957 110.216 112.138V112.664H105.205C105.223 113.393 105.435 113.983 105.841 114.435C106.251 114.881 106.771 115.104 107.399 115.104C107.846 115.104 108.224 115.013 108.534 114.831C108.844 114.649 109.115 114.407 109.348 114.106L110.12 114.708C109.5 115.66 108.571 116.137 107.331 116.137ZM107.174 109.506C106.663 109.506 106.235 109.693 105.889 110.066C105.542 110.436 105.328 110.955 105.246 111.625H108.951V111.529C108.915 110.887 108.742 110.39 108.432 110.039C108.122 109.684 107.702 109.506 107.174 109.506ZM111.378 112.24C111.378 111.105 111.647 110.194 112.185 109.506C112.722 108.813 113.426 108.467 114.297 108.467C115.163 108.467 115.849 108.763 116.354 109.355V105.5H117.619V116H116.457L116.396 115.207C115.89 115.827 115.186 116.137 114.283 116.137C113.426 116.137 112.727 115.786 112.185 115.084C111.647 114.382 111.378 113.466 111.378 112.336V112.24ZM112.643 112.384C112.643 113.222 112.816 113.879 113.162 114.353C113.508 114.826 113.987 115.063 114.598 115.063C115.4 115.063 115.985 114.703 116.354 113.983V110.586C115.976 109.889 115.395 109.54 114.611 109.54C113.992 109.54 113.508 109.779 113.162 110.258C112.816 110.736 112.643 111.445 112.643 112.384ZM124.154 115.269C123.662 115.847 122.94 116.137 121.987 116.137C121.199 116.137 120.597 115.909 120.183 115.453C119.772 114.993 119.565 114.314 119.561 113.416V108.604H120.825V113.382C120.825 114.503 121.281 115.063 122.192 115.063C123.159 115.063 123.801 114.703 124.12 113.983V108.604H125.385V116H124.182L124.154 115.269ZM130.888 109.738C130.696 109.706 130.489 109.69 130.266 109.69C129.436 109.69 128.873 110.044 128.577 110.75V116H127.312V108.604H128.543L128.563 109.458C128.978 108.797 129.566 108.467 130.327 108.467C130.573 108.467 130.76 108.499 130.888 108.562V109.738ZM134.989 116.137C133.987 116.137 133.171 115.809 132.542 115.152C131.913 114.492 131.599 113.61 131.599 112.507V112.274C131.599 111.541 131.738 110.887 132.016 110.312C132.298 109.734 132.69 109.283 133.191 108.959C133.697 108.631 134.244 108.467 134.832 108.467C135.794 108.467 136.541 108.784 137.074 109.417C137.607 110.05 137.874 110.957 137.874 112.138V112.664H132.863C132.882 113.393 133.093 113.983 133.499 114.435C133.909 114.881 134.429 115.104 135.058 115.104C135.504 115.104 135.882 115.013 136.192 114.831C136.502 114.649 136.773 114.407 137.006 114.106L137.778 114.708C137.159 115.66 136.229 116.137 134.989 116.137ZM134.832 109.506C134.322 109.506 133.893 109.693 133.547 110.066C133.201 110.436 132.986 110.955 132.904 111.625H136.609V111.529C136.573 110.887 136.4 110.39 136.09 110.039C135.78 109.684 135.361 109.506 134.832 109.506ZM143.65 114.038C143.65 113.696 143.521 113.432 143.261 113.245C143.006 113.054 142.557 112.89 141.914 112.753C141.276 112.616 140.768 112.452 140.39 112.261C140.016 112.069 139.738 111.841 139.556 111.577C139.378 111.313 139.289 110.998 139.289 110.634C139.289 110.028 139.544 109.515 140.055 109.096C140.57 108.676 141.226 108.467 142.023 108.467C142.862 108.467 143.541 108.683 144.061 109.116C144.585 109.549 144.847 110.103 144.847 110.777H143.575C143.575 110.431 143.427 110.132 143.131 109.882C142.839 109.631 142.47 109.506 142.023 109.506C141.563 109.506 141.203 109.606 140.943 109.807C140.684 110.007 140.554 110.269 140.554 110.593C140.554 110.898 140.674 111.128 140.916 111.283C141.158 111.438 141.593 111.586 142.222 111.728C142.855 111.869 143.368 112.037 143.76 112.233C144.152 112.429 144.441 112.666 144.628 112.944C144.819 113.218 144.915 113.553 144.915 113.949C144.915 114.61 144.651 115.141 144.122 115.542C143.593 115.938 142.908 116.137 142.064 116.137C141.472 116.137 140.948 116.032 140.492 115.822C140.036 115.613 139.679 115.321 139.419 114.947C139.164 114.569 139.036 114.161 139.036 113.724H140.301C140.324 114.147 140.492 114.485 140.807 114.735C141.126 114.981 141.545 115.104 142.064 115.104C142.543 115.104 142.926 115.009 143.213 114.817C143.505 114.621 143.65 114.362 143.65 114.038Z" fill="#FF0000"/>
<rect x="195" y="70" width="150" height="36" fill="white"/>
<path d="M249.287 84.127H246.088V93H244.782V84.127H241.59V83.0469H249.287V84.127ZM249.547 89.2334C249.547 88.5088 249.688 87.8571 249.971 87.2783C250.258 86.6995 250.654 86.2529 251.16 85.9385C251.671 85.624 252.252 85.4668 252.903 85.4668C253.91 85.4668 254.724 85.8154 255.344 86.5127C255.968 87.21 256.28 88.1374 256.28 89.2949V89.3838C256.28 90.1038 256.141 90.751 255.863 91.3252C255.59 91.8949 255.196 92.3392 254.681 92.6582C254.17 92.9772 253.582 93.1367 252.917 93.1367C251.914 93.1367 251.101 92.7881 250.477 92.0908C249.857 91.3936 249.547 90.4707 249.547 89.3223V89.2334ZM250.818 89.3838C250.818 90.2041 251.007 90.8626 251.386 91.3594C251.769 91.8561 252.279 92.1045 252.917 92.1045C253.56 92.1045 254.07 91.8538 254.448 91.3525C254.826 90.8467 255.016 90.1403 255.016 89.2334C255.016 88.4222 254.822 87.766 254.435 87.2646C254.052 86.7588 253.541 86.5059 252.903 86.5059C252.279 86.5059 251.775 86.7542 251.393 87.251C251.01 87.7477 250.818 88.4587 250.818 89.3838ZM260.498 89.2881H257.162V88.2559H260.498V89.2881ZM261.428 89.2402C261.428 88.1055 261.697 87.194 262.234 86.5059C262.772 85.8132 263.476 85.4668 264.347 85.4668C265.213 85.4668 265.898 85.763 266.404 86.3555V82.5H267.669V93H266.507L266.445 92.207C265.939 92.8268 265.235 93.1367 264.333 93.1367C263.476 93.1367 262.777 92.7858 262.234 92.084C261.697 91.3822 261.428 90.4661 261.428 89.3359V89.2402ZM262.692 89.3838C262.692 90.2223 262.866 90.8786 263.212 91.3525C263.558 91.8265 264.037 92.0635 264.647 92.0635C265.45 92.0635 266.035 91.7035 266.404 90.9834V87.5859C266.026 86.8887 265.445 86.54 264.661 86.54C264.041 86.54 263.558 86.7793 263.212 87.2578C262.866 87.7363 262.692 88.445 262.692 89.3838ZM269.303 89.2334C269.303 88.5088 269.444 87.8571 269.727 87.2783C270.014 86.6995 270.41 86.2529 270.916 85.9385C271.426 85.624 272.007 85.4668 272.659 85.4668C273.666 85.4668 274.48 85.8154 275.1 86.5127C275.724 87.21 276.036 88.1374 276.036 89.2949V89.3838C276.036 90.1038 275.897 90.751 275.619 91.3252C275.346 91.8949 274.951 92.3392 274.437 92.6582C273.926 92.9772 273.338 93.1367 272.673 93.1367C271.67 93.1367 270.857 92.7881 270.232 92.0908C269.613 91.3936 269.303 90.4707 269.303 89.3223V89.2334ZM270.574 89.3838C270.574 90.2041 270.763 90.8626 271.142 91.3594C271.524 91.8561 272.035 92.1045 272.673 92.1045C273.315 92.1045 273.826 91.8538 274.204 91.3525C274.582 90.8467 274.771 90.1403 274.771 89.2334C274.771 88.4222 274.578 87.766 274.19 87.2646C273.808 86.7588 273.297 86.5059 272.659 86.5059C272.035 86.5059 271.531 86.7542 271.148 87.251C270.766 87.7477 270.574 88.4587 270.574 89.3838ZM282.469 93H281.204V82.5H282.469V93ZM285.873 93H284.608V85.6035H285.873V93ZM284.506 83.6416C284.506 83.4365 284.567 83.2633 284.69 83.1221C284.818 82.9808 285.005 82.9102 285.251 82.9102C285.497 82.9102 285.684 82.9808 285.812 83.1221C285.939 83.2633 286.003 83.4365 286.003 83.6416C286.003 83.8467 285.939 84.0176 285.812 84.1543C285.684 84.291 285.497 84.3594 285.251 84.3594C285.005 84.3594 284.818 84.291 284.69 84.1543C284.567 84.0176 284.506 83.8467 284.506 83.6416ZM292.21 91.0381C292.21 90.6963 292.08 90.432 291.82 90.2451C291.565 90.0537 291.116 89.8896 290.474 89.7529C289.836 89.6162 289.327 89.4521 288.949 89.2607C288.576 89.0693 288.298 88.8415 288.115 88.5771C287.938 88.3128 287.849 87.9984 287.849 87.6338C287.849 87.0277 288.104 86.515 288.614 86.0957C289.129 85.6764 289.785 85.4668 290.583 85.4668C291.422 85.4668 292.101 85.6833 292.62 86.1162C293.144 86.5492 293.406 87.1029 293.406 87.7773H292.135C292.135 87.431 291.987 87.1325 291.69 86.8818C291.399 86.6312 291.03 86.5059 290.583 86.5059C290.123 86.5059 289.763 86.6061 289.503 86.8066C289.243 87.0072 289.113 87.2692 289.113 87.5928C289.113 87.8981 289.234 88.1283 289.476 88.2832C289.717 88.4382 290.152 88.5863 290.781 88.7275C291.415 88.8688 291.927 89.0374 292.319 89.2334C292.711 89.4294 293.001 89.6663 293.188 89.9443C293.379 90.2178 293.475 90.5527 293.475 90.9492C293.475 91.61 293.21 92.141 292.682 92.542C292.153 92.9385 291.467 93.1367 290.624 93.1367C290.032 93.1367 289.507 93.0319 289.052 92.8223C288.596 92.6126 288.238 92.321 287.979 91.9473C287.723 91.569 287.596 91.1611 287.596 90.7236H288.86C288.883 91.1475 289.052 91.4847 289.366 91.7354C289.685 91.9814 290.104 92.1045 290.624 92.1045C291.103 92.1045 291.485 92.0088 291.772 91.8174C292.064 91.6214 292.21 91.3617 292.21 91.0381ZM296.838 83.8125V85.6035H298.219V86.5811H296.838V91.168C296.838 91.4642 296.899 91.6875 297.022 91.8379C297.146 91.9837 297.355 92.0566 297.651 92.0566C297.797 92.0566 297.998 92.0293 298.253 91.9746V93C297.92 93.0911 297.597 93.1367 297.282 93.1367C296.717 93.1367 296.291 92.9658 296.004 92.624C295.717 92.2822 295.573 91.7969 295.573 91.168V86.5811H294.227V85.6035H295.573V83.8125H296.838Z" fill="black"/>
<rect x="374" y="47" width="150" height="36" fill="white"/>
<path d="M410.623 65.6045H406.446V70H405.134V60.0469H411.3V61.127H406.446V64.5312H410.623V65.6045ZM412.188 66.2334C412.188 65.5088 412.33 64.8571 412.612 64.2783C412.899 63.6995 413.296 63.2529 413.802 62.9385C414.312 62.624 414.893 62.4668 415.545 62.4668C416.552 62.4668 417.366 62.8154 417.985 63.5127C418.61 64.21 418.922 65.1374 418.922 66.2949V66.3838C418.922 67.1038 418.783 67.751 418.505 68.3252C418.231 68.8949 417.837 69.3392 417.322 69.6582C416.812 69.9772 416.224 70.1367 415.559 70.1367C414.556 70.1367 413.743 69.7881 413.118 69.0908C412.498 68.3936 412.188 67.4707 412.188 66.3223V66.2334ZM413.46 66.3838C413.46 67.2041 413.649 67.8626 414.027 68.3594C414.41 68.8561 414.921 69.1045 415.559 69.1045C416.201 69.1045 416.712 68.8538 417.09 68.3525C417.468 67.8467 417.657 67.1403 417.657 66.2334C417.657 65.4222 417.464 64.766 417.076 64.2646C416.693 63.7588 416.183 63.5059 415.545 63.5059C414.921 63.5059 414.417 63.7542 414.034 64.251C413.651 64.7477 413.46 65.4587 413.46 66.3838ZM424.083 63.7383C423.892 63.7064 423.684 63.6904 423.461 63.6904C422.632 63.6904 422.069 64.0436 421.772 64.75V70H420.508V62.6035H421.738L421.759 63.458C422.174 62.7972 422.761 62.4668 423.522 62.4668C423.769 62.4668 423.955 62.4987 424.083 62.5625V63.7383ZM426.441 62.6035L426.476 63.4238C427.018 62.7858 427.749 62.4668 428.67 62.4668C429.704 62.4668 430.409 62.8633 430.782 63.6562C431.028 63.3008 431.347 63.0137 431.739 62.7949C432.136 62.5762 432.603 62.4668 433.141 62.4668C434.763 62.4668 435.588 63.3258 435.615 65.0439V70H434.351V65.1191C434.351 64.5905 434.23 64.1963 433.988 63.9365C433.747 63.6722 433.341 63.54 432.771 63.54C432.302 63.54 431.912 63.6813 431.603 63.9639C431.293 64.2419 431.113 64.6178 431.062 65.0918V70H429.791V65.1533C429.791 64.0778 429.265 63.54 428.212 63.54C427.382 63.54 426.815 63.8932 426.51 64.5996V70H425.245V62.6035H426.441ZM441.836 68.0381C441.836 67.6963 441.706 67.432 441.446 67.2451C441.191 67.0537 440.742 66.8896 440.1 66.7529C439.462 66.6162 438.953 66.4521 438.575 66.2607C438.201 66.0693 437.924 65.8415 437.741 65.5771C437.563 65.3128 437.475 64.9984 437.475 64.6338C437.475 64.0277 437.73 63.515 438.24 63.0957C438.755 62.6764 439.411 62.4668 440.209 62.4668C441.048 62.4668 441.727 62.6833 442.246 63.1162C442.77 63.5492 443.032 64.1029 443.032 64.7773H441.761C441.761 64.431 441.613 64.1325 441.316 63.8818C441.025 63.6312 440.656 63.5059 440.209 63.5059C439.749 63.5059 439.389 63.6061 439.129 63.8066C438.869 64.0072 438.739 64.2692 438.739 64.5928C438.739 64.8981 438.86 65.1283 439.102 65.2832C439.343 65.4382 439.778 65.5863 440.407 65.7275C441.041 65.8688 441.553 66.0374 441.945 66.2334C442.337 66.4294 442.627 66.6663 442.813 66.9443C443.005 67.2178 443.101 67.5527 443.101 67.9492C443.101 68.61 442.836 69.141 442.308 69.542C441.779 69.9385 441.093 70.1367 440.25 70.1367C439.658 70.1367 439.133 70.0319 438.678 69.8223C438.222 69.6126 437.864 69.321 437.604 68.9473C437.349 68.569 437.222 68.1611 437.222 67.7236H438.486C438.509 68.1475 438.678 68.4847 438.992 68.7354C439.311 68.9814 439.73 69.1045 440.25 69.1045C440.729 69.1045 441.111 69.0088 441.398 68.8174C441.69 68.6214 441.836 68.3617 441.836 68.0381ZM451.352 65.5635C450.226 65.2399 449.406 64.8434 448.891 64.374C448.38 63.9001 448.125 63.3167 448.125 62.624C448.125 61.8402 448.437 61.193 449.062 60.6826C449.69 60.1676 450.506 59.9102 451.509 59.9102C452.192 59.9102 452.801 60.0423 453.334 60.3066C453.872 60.571 454.286 60.9355 454.578 61.4004C454.874 61.8652 455.022 62.3734 455.022 62.9248H453.703C453.703 62.3232 453.512 61.8516 453.129 61.5098C452.746 61.1634 452.206 60.9902 451.509 60.9902C450.862 60.9902 450.356 61.1338 449.991 61.4209C449.631 61.7035 449.451 62.0977 449.451 62.6035C449.451 63.0091 449.622 63.3532 449.964 63.6357C450.31 63.9137 450.896 64.1689 451.721 64.4014C452.55 64.6338 453.197 64.8913 453.662 65.1738C454.132 65.4518 454.478 65.7777 454.701 66.1514C454.929 66.5251 455.043 66.9648 455.043 67.4707C455.043 68.2773 454.729 68.9245 454.1 69.4121C453.471 69.8952 452.63 70.1367 451.577 70.1367C450.894 70.1367 450.256 70.0068 449.663 69.7471C449.071 69.4827 448.613 69.1227 448.289 68.667C447.97 68.2113 447.811 67.694 447.811 67.1152H449.13C449.13 67.7168 449.351 68.193 449.793 68.5439C450.24 68.8903 450.834 69.0635 451.577 69.0635C452.27 69.0635 452.801 68.9222 453.17 68.6396C453.539 68.3571 453.724 67.972 453.724 67.4844C453.724 66.9967 453.553 66.6208 453.211 66.3564C452.869 66.0876 452.249 65.8232 451.352 65.5635ZM459.603 70.1367C458.6 70.1367 457.784 69.8086 457.155 69.1523C456.526 68.4915 456.212 67.6097 456.212 66.5068V66.2744C456.212 65.5407 456.351 64.8867 456.629 64.3125C456.911 63.7337 457.303 63.2826 457.805 62.959C458.311 62.6309 458.857 62.4668 459.445 62.4668C460.407 62.4668 461.154 62.7835 461.688 63.417C462.221 64.0505 462.487 64.9574 462.487 66.1377V66.6641H457.477C457.495 67.3932 457.707 67.9834 458.112 68.4346C458.522 68.8812 459.042 69.1045 459.671 69.1045C460.118 69.1045 460.496 69.0133 460.806 68.8311C461.116 68.6488 461.387 68.4072 461.619 68.1064L462.392 68.708C461.772 69.6605 460.842 70.1367 459.603 70.1367ZM459.445 63.5059C458.935 63.5059 458.507 63.6927 458.16 64.0664C457.814 64.4355 457.6 64.9551 457.518 65.625H461.223V65.5293C461.186 64.8867 461.013 64.39 460.703 64.0391C460.393 63.6836 459.974 63.5059 459.445 63.5059ZM466.924 69.1045C467.375 69.1045 467.769 68.9678 468.106 68.6943C468.444 68.4209 468.631 68.0791 468.667 67.6689H469.863C469.84 68.0928 469.695 68.4961 469.426 68.8789C469.157 69.2617 468.797 69.5671 468.346 69.7949C467.899 70.0228 467.425 70.1367 466.924 70.1367C465.917 70.1367 465.115 69.8018 464.518 69.1318C463.925 68.4574 463.629 67.5368 463.629 66.3701V66.1582C463.629 65.4382 463.761 64.7979 464.025 64.2373C464.29 63.6768 464.668 63.2415 465.16 62.9316C465.657 62.6217 466.243 62.4668 466.917 62.4668C467.746 62.4668 468.435 62.7152 468.981 63.2119C469.533 63.7087 469.827 64.3535 469.863 65.1465H468.667C468.631 64.668 468.448 64.276 468.12 63.9707C467.797 63.6608 467.396 63.5059 466.917 63.5059C466.274 63.5059 465.775 63.7383 465.42 64.2031C465.069 64.6634 464.894 65.3311 464.894 66.2061V66.4453C464.894 67.2975 465.069 67.9538 465.42 68.4141C465.771 68.8743 466.272 69.1045 466.924 69.1045ZM473.001 60.8125V62.6035H474.382V63.5811H473.001V68.168C473.001 68.4642 473.062 68.6875 473.186 68.8379C473.309 68.9837 473.518 69.0566 473.814 69.0566C473.96 69.0566 474.161 69.0293 474.416 68.9746V70C474.083 70.0911 473.76 70.1367 473.445 70.1367C472.88 70.1367 472.454 69.9658 472.167 69.624C471.88 69.2822 471.736 68.7969 471.736 68.168V63.5811H470.39V62.6035H471.736V60.8125H473.001ZM477.239 70H475.975V62.6035H477.239V70ZM475.872 60.6416C475.872 60.4365 475.934 60.2633 476.057 60.1221C476.184 59.9808 476.371 59.9102 476.617 59.9102C476.863 59.9102 477.05 59.9808 477.178 60.1221C477.305 60.2633 477.369 60.4365 477.369 60.6416C477.369 60.8467 477.305 61.0176 477.178 61.1543C477.05 61.291 476.863 61.3594 476.617 61.3594C476.371 61.3594 476.184 61.291 476.057 61.1543C475.934 61.0176 475.872 60.8467 475.872 60.6416ZM478.935 66.2334C478.935 65.5088 479.076 64.8571 479.358 64.2783C479.646 63.6995 480.042 63.2529 480.548 62.9385C481.058 62.624 481.639 62.4668 482.291 62.4668C483.298 62.4668 484.112 62.8154 484.731 63.5127C485.356 64.21 485.668 65.1374 485.668 66.2949V66.3838C485.668 67.1038 485.529 67.751 485.251 68.3252C484.978 68.8949 484.583 69.3392 484.068 69.6582C483.558 69.9772 482.97 70.1367 482.305 70.1367C481.302 70.1367 480.489 69.7881 479.864 69.0908C479.244 68.3936 478.935 67.4707 478.935 66.3223V66.2334ZM480.206 66.3838C480.206 67.2041 480.395 67.8626 480.773 68.3594C481.156 68.8561 481.667 69.1045 482.305 69.1045C482.947 69.1045 483.458 68.8538 483.836 68.3525C484.214 67.8467 484.403 67.1403 484.403 66.2334C484.403 65.4222 484.21 64.766 483.822 64.2646C483.439 63.7588 482.929 63.5059 482.291 63.5059C481.667 63.5059 481.163 63.7542 480.78 64.251C480.397 64.7477 480.206 65.4587 480.206 66.3838ZM488.45 62.6035L488.491 63.5332C489.056 62.8223 489.795 62.4668 490.706 62.4668C492.269 62.4668 493.058 63.3486 493.071 65.1123V70H491.807V65.1055C491.802 64.5723 491.679 64.1781 491.438 63.9229C491.201 63.6676 490.829 63.54 490.323 63.54C489.913 63.54 489.553 63.6494 489.243 63.8682C488.933 64.0869 488.692 64.374 488.519 64.7295V70H487.254V62.6035H488.45Z" fill="black"/>
<rect x="374" y="93" width="150" height="36" fill="white"/>
<path d="M402.55 111.604H398.373V116H397.061V106.047H403.227V107.127H398.373V110.531H402.55V111.604ZM405.975 116H404.71V108.604H405.975V116ZM404.607 106.642C404.607 106.437 404.669 106.263 404.792 106.122C404.92 105.981 405.106 105.91 405.353 105.91C405.599 105.91 405.785 105.981 405.913 106.122C406.041 106.263 406.104 106.437 406.104 106.642C406.104 106.847 406.041 107.018 405.913 107.154C405.785 107.291 405.599 107.359 405.353 107.359C405.106 107.359 404.92 107.291 404.792 107.154C404.669 107.018 404.607 106.847 404.607 106.642ZM409.201 108.604L409.242 109.533C409.807 108.822 410.546 108.467 411.457 108.467C413.02 108.467 413.809 109.349 413.822 111.112V116H412.558V111.105C412.553 110.572 412.43 110.178 412.188 109.923C411.951 109.668 411.58 109.54 411.074 109.54C410.664 109.54 410.304 109.649 409.994 109.868C409.684 110.087 409.443 110.374 409.27 110.729V116H408.005V108.604H409.201ZM420.296 116C420.223 115.854 420.164 115.594 420.118 115.221C419.53 115.831 418.828 116.137 418.013 116.137C417.284 116.137 416.684 115.932 416.215 115.521C415.75 115.107 415.518 114.583 415.518 113.949C415.518 113.179 415.809 112.582 416.393 112.158C416.98 111.73 417.805 111.516 418.867 111.516H420.098V110.935C420.098 110.493 419.965 110.142 419.701 109.882C419.437 109.618 419.047 109.485 418.532 109.485C418.081 109.485 417.703 109.599 417.397 109.827C417.092 110.055 416.939 110.331 416.939 110.654H415.668C415.668 110.285 415.798 109.93 416.058 109.588C416.322 109.242 416.677 108.968 417.124 108.768C417.575 108.567 418.07 108.467 418.607 108.467C419.46 108.467 420.127 108.681 420.61 109.109C421.093 109.533 421.344 110.119 421.362 110.866V114.271C421.362 114.95 421.449 115.49 421.622 115.891V116H420.296ZM418.197 115.036C418.594 115.036 418.97 114.934 419.325 114.729C419.681 114.523 419.938 114.257 420.098 113.929V112.411H419.106C417.557 112.411 416.782 112.865 416.782 113.771C416.782 114.168 416.914 114.478 417.179 114.701C417.443 114.924 417.783 115.036 418.197 115.036ZM424.541 108.604L424.582 109.533C425.147 108.822 425.885 108.467 426.797 108.467C428.36 108.467 429.148 109.349 429.162 111.112V116H427.897V111.105C427.893 110.572 427.77 110.178 427.528 109.923C427.291 109.668 426.92 109.54 426.414 109.54C426.004 109.54 425.644 109.649 425.334 109.868C425.024 110.087 424.783 110.374 424.609 110.729V116H423.345V108.604H424.541ZM434.036 115.104C434.487 115.104 434.882 114.968 435.219 114.694C435.556 114.421 435.743 114.079 435.779 113.669H436.976C436.953 114.093 436.807 114.496 436.538 114.879C436.269 115.262 435.909 115.567 435.458 115.795C435.011 116.023 434.537 116.137 434.036 116.137C433.029 116.137 432.227 115.802 431.63 115.132C431.037 114.457 430.741 113.537 430.741 112.37V112.158C430.741 111.438 430.873 110.798 431.138 110.237C431.402 109.677 431.78 109.242 432.272 108.932C432.769 108.622 433.355 108.467 434.029 108.467C434.859 108.467 435.547 108.715 436.094 109.212C436.645 109.709 436.939 110.354 436.976 111.146H435.779C435.743 110.668 435.561 110.276 435.232 109.971C434.909 109.661 434.508 109.506 434.029 109.506C433.387 109.506 432.888 109.738 432.532 110.203C432.181 110.663 432.006 111.331 432.006 112.206V112.445C432.006 113.298 432.181 113.954 432.532 114.414C432.883 114.874 433.384 115.104 434.036 115.104ZM439.771 116H438.507V108.604H439.771V116ZM438.404 106.642C438.404 106.437 438.466 106.263 438.589 106.122C438.716 105.981 438.903 105.91 439.149 105.91C439.396 105.91 439.582 105.981 439.71 106.122C439.838 106.263 439.901 106.437 439.901 106.642C439.901 106.847 439.838 107.018 439.71 107.154C439.582 107.291 439.396 107.359 439.149 107.359C438.903 107.359 438.716 107.291 438.589 107.154C438.466 107.018 438.404 106.847 438.404 106.642ZM446.368 116C446.295 115.854 446.236 115.594 446.19 115.221C445.603 115.831 444.901 116.137 444.085 116.137C443.356 116.137 442.757 115.932 442.287 115.521C441.822 115.107 441.59 114.583 441.59 113.949C441.59 113.179 441.882 112.582 442.465 112.158C443.053 111.73 443.878 111.516 444.939 111.516H446.17V110.935C446.17 110.493 446.038 110.142 445.773 109.882C445.509 109.618 445.119 109.485 444.604 109.485C444.153 109.485 443.775 109.599 443.47 109.827C443.164 110.055 443.012 110.331 443.012 110.654H441.74C441.74 110.285 441.87 109.93 442.13 109.588C442.394 109.242 442.75 108.968 443.196 108.768C443.647 108.567 444.142 108.467 444.68 108.467C445.532 108.467 446.2 108.681 446.683 109.109C447.166 109.533 447.416 110.119 447.435 110.866V114.271C447.435 114.95 447.521 115.49 447.694 115.891V116H446.368ZM444.27 115.036C444.666 115.036 445.042 114.934 445.397 114.729C445.753 114.523 446.01 114.257 446.17 113.929V112.411H445.179C443.629 112.411 442.854 112.865 442.854 113.771C442.854 114.168 442.987 114.478 443.251 114.701C443.515 114.924 443.855 115.036 444.27 115.036ZM450.791 116H449.526V105.5H450.791V116ZM459.425 111.563C458.299 111.24 457.479 110.843 456.964 110.374C456.453 109.9 456.198 109.317 456.198 108.624C456.198 107.84 456.51 107.193 457.135 106.683C457.764 106.168 458.579 105.91 459.582 105.91C460.266 105.91 460.874 106.042 461.407 106.307C461.945 106.571 462.36 106.936 462.651 107.4C462.948 107.865 463.096 108.373 463.096 108.925H461.776C461.776 108.323 461.585 107.852 461.202 107.51C460.819 107.163 460.279 106.99 459.582 106.99C458.935 106.99 458.429 107.134 458.064 107.421C457.704 107.703 457.524 108.098 457.524 108.604C457.524 109.009 457.695 109.353 458.037 109.636C458.383 109.914 458.969 110.169 459.794 110.401C460.623 110.634 461.271 110.891 461.735 111.174C462.205 111.452 462.551 111.778 462.774 112.151C463.002 112.525 463.116 112.965 463.116 113.471C463.116 114.277 462.802 114.924 462.173 115.412C461.544 115.895 460.703 116.137 459.65 116.137C458.967 116.137 458.329 116.007 457.736 115.747C457.144 115.483 456.686 115.123 456.362 114.667C456.043 114.211 455.884 113.694 455.884 113.115H457.203C457.203 113.717 457.424 114.193 457.866 114.544C458.313 114.89 458.908 115.063 459.65 115.063C460.343 115.063 460.874 114.922 461.243 114.64C461.612 114.357 461.797 113.972 461.797 113.484C461.797 112.997 461.626 112.621 461.284 112.356C460.942 112.088 460.323 111.823 459.425 111.563ZM467.676 116.137C466.673 116.137 465.857 115.809 465.229 115.152C464.6 114.492 464.285 113.61 464.285 112.507V112.274C464.285 111.541 464.424 110.887 464.702 110.312C464.985 109.734 465.377 109.283 465.878 108.959C466.384 108.631 466.931 108.467 467.519 108.467C468.48 108.467 469.228 108.784 469.761 109.417C470.294 110.05 470.561 110.957 470.561 112.138V112.664H465.55C465.568 113.393 465.78 113.983 466.186 114.435C466.596 114.881 467.115 115.104 467.744 115.104C468.191 115.104 468.569 115.013 468.879 114.831C469.189 114.649 469.46 114.407 469.692 114.106L470.465 114.708C469.845 115.66 468.915 116.137 467.676 116.137ZM467.519 109.506C467.008 109.506 466.58 109.693 466.233 110.066C465.887 110.436 465.673 110.955 465.591 111.625H469.296V111.529C469.259 110.887 469.086 110.39 468.776 110.039C468.466 109.684 468.047 109.506 467.519 109.506ZM474.997 115.104C475.448 115.104 475.842 114.968 476.18 114.694C476.517 114.421 476.704 114.079 476.74 113.669H477.937C477.914 114.093 477.768 114.496 477.499 114.879C477.23 115.262 476.87 115.567 476.419 115.795C475.972 116.023 475.498 116.137 474.997 116.137C473.99 116.137 473.188 115.802 472.591 115.132C471.998 114.457 471.702 113.537 471.702 112.37V112.158C471.702 111.438 471.834 110.798 472.099 110.237C472.363 109.677 472.741 109.242 473.233 108.932C473.73 108.622 474.316 108.467 474.99 108.467C475.82 108.467 476.508 108.715 477.055 109.212C477.606 109.709 477.9 110.354 477.937 111.146H476.74C476.704 110.668 476.521 110.276 476.193 109.971C475.87 109.661 475.469 109.506 474.99 109.506C474.348 109.506 473.849 109.738 473.493 110.203C473.142 110.663 472.967 111.331 472.967 112.206V112.445C472.967 113.298 473.142 113.954 473.493 114.414C473.844 114.874 474.345 115.104 474.997 115.104ZM481.074 106.812V108.604H482.455V109.581H481.074V114.168C481.074 114.464 481.136 114.688 481.259 114.838C481.382 114.984 481.591 115.057 481.888 115.057C482.034 115.057 482.234 115.029 482.489 114.975V116C482.157 116.091 481.833 116.137 481.519 116.137C480.953 116.137 480.527 115.966 480.24 115.624C479.953 115.282 479.81 114.797 479.81 114.168V109.581H478.463V108.604H479.81V106.812H481.074ZM485.312 116H484.048V108.604H485.312V116ZM483.945 106.642C483.945 106.437 484.007 106.263 484.13 106.122C484.257 105.981 484.444 105.91 484.69 105.91C484.937 105.91 485.123 105.981 485.251 106.122C485.379 106.263 485.442 106.437 485.442 106.642C485.442 106.847 485.379 107.018 485.251 107.154C485.123 107.291 484.937 107.359 484.69 107.359C484.444 107.359 484.257 107.291 484.13 107.154C484.007 107.018 483.945 106.847 483.945 106.642ZM487.008 112.233C487.008 111.509 487.149 110.857 487.432 110.278C487.719 109.7 488.115 109.253 488.621 108.938C489.132 108.624 489.713 108.467 490.364 108.467C491.371 108.467 492.185 108.815 492.805 109.513C493.429 110.21 493.741 111.137 493.741 112.295V112.384C493.741 113.104 493.602 113.751 493.324 114.325C493.051 114.895 492.657 115.339 492.142 115.658C491.631 115.977 491.043 116.137 490.378 116.137C489.375 116.137 488.562 115.788 487.938 115.091C487.318 114.394 487.008 113.471 487.008 112.322V112.233ZM488.279 112.384C488.279 113.204 488.468 113.863 488.847 114.359C489.229 114.856 489.74 115.104 490.378 115.104C491.021 115.104 491.531 114.854 491.909 114.353C492.287 113.847 492.477 113.14 492.477 112.233C492.477 111.422 492.283 110.766 491.896 110.265C491.513 109.759 491.002 109.506 490.364 109.506C489.74 109.506 489.236 109.754 488.854 110.251C488.471 110.748 488.279 111.459 488.279 112.384ZM496.523 108.604L496.564 109.533C497.13 108.822 497.868 108.467 498.779 108.467C500.342 108.467 501.131 109.349 501.145 111.112V116H499.88V111.105C499.875 110.572 499.752 110.178 499.511 109.923C499.274 109.668 498.902 109.54 498.396 109.54C497.986 109.54 497.626 109.649 497.316 109.868C497.007 110.087 496.765 110.374 496.592 110.729V116H495.327V108.604H496.523Z" fill="black"/>
<rect x="584" y="124" width="150" height="36" fill="white"/>
<path d="M637.351 142.563C636.225 142.24 635.405 141.843 634.89 141.374C634.379 140.9 634.124 140.317 634.124 139.624C634.124 138.84 634.436 138.193 635.061 137.683C635.689 137.168 636.505 136.91 637.508 136.91C638.191 136.91 638.8 137.042 639.333 137.307C639.871 137.571 640.285 137.936 640.577 138.4C640.873 138.865 641.021 139.373 641.021 139.925H639.702C639.702 139.323 639.511 138.852 639.128 138.51C638.745 138.163 638.205 137.99 637.508 137.99C636.861 137.99 636.355 138.134 635.99 138.421C635.63 138.703 635.45 139.098 635.45 139.604C635.45 140.009 635.621 140.353 635.963 140.636C636.309 140.914 636.895 141.169 637.72 141.401C638.549 141.634 639.196 141.891 639.661 142.174C640.131 142.452 640.477 142.778 640.7 143.151C640.928 143.525 641.042 143.965 641.042 144.471C641.042 145.277 640.728 145.924 640.099 146.412C639.47 146.895 638.629 147.137 637.576 147.137C636.893 147.137 636.255 147.007 635.662 146.747C635.07 146.483 634.612 146.123 634.288 145.667C633.969 145.211 633.81 144.694 633.81 144.115H635.129C635.129 144.717 635.35 145.193 635.792 145.544C636.239 145.89 636.833 146.063 637.576 146.063C638.269 146.063 638.8 145.922 639.169 145.64C639.538 145.357 639.723 144.972 639.723 144.484C639.723 143.997 639.552 143.621 639.21 143.356C638.868 143.088 638.248 142.823 637.351 142.563ZM644.248 137.812V139.604H645.629V140.581H644.248V145.168C644.248 145.464 644.31 145.688 644.433 145.838C644.556 145.984 644.765 146.057 645.062 146.057C645.207 146.057 645.408 146.029 645.663 145.975V147C645.33 147.091 645.007 147.137 644.692 147.137C644.127 147.137 643.701 146.966 643.414 146.624C643.127 146.282 642.983 145.797 642.983 145.168V140.581H641.637V139.604H642.983V137.812H644.248ZM650.688 140.738C650.496 140.706 650.289 140.69 650.065 140.69C649.236 140.69 648.673 141.044 648.377 141.75V147H647.112V139.604H648.343L648.363 140.458C648.778 139.797 649.366 139.467 650.127 139.467C650.373 139.467 650.56 139.499 650.688 139.562V140.738ZM656.149 147C656.076 146.854 656.017 146.594 655.972 146.221C655.384 146.831 654.682 147.137 653.866 147.137C653.137 147.137 652.538 146.932 652.068 146.521C651.604 146.107 651.371 145.583 651.371 144.949C651.371 144.179 651.663 143.582 652.246 143.158C652.834 142.73 653.659 142.516 654.721 142.516H655.951V141.935C655.951 141.493 655.819 141.142 655.555 140.882C655.29 140.618 654.901 140.485 654.386 140.485C653.935 140.485 653.556 140.599 653.251 140.827C652.946 141.055 652.793 141.331 652.793 141.654H651.521C651.521 141.285 651.651 140.93 651.911 140.588C652.175 140.242 652.531 139.968 652.978 139.768C653.429 139.567 653.923 139.467 654.461 139.467C655.313 139.467 655.981 139.681 656.464 140.109C656.947 140.533 657.198 141.119 657.216 141.866V145.271C657.216 145.95 657.302 146.49 657.476 146.891V147H656.149ZM654.051 146.036C654.447 146.036 654.823 145.934 655.179 145.729C655.534 145.523 655.792 145.257 655.951 144.929V143.411H654.96C653.41 143.411 652.636 143.865 652.636 144.771C652.636 145.168 652.768 145.478 653.032 145.701C653.297 145.924 653.636 146.036 654.051 146.036ZM660.914 137.812V139.604H662.295V140.581H660.914V145.168C660.914 145.464 660.976 145.688 661.099 145.838C661.222 145.984 661.431 146.057 661.728 146.057C661.873 146.057 662.074 146.029 662.329 145.975V147C661.996 147.091 661.673 147.137 661.358 147.137C660.793 147.137 660.367 146.966 660.08 146.624C659.793 146.282 659.649 145.797 659.649 145.168V140.581H658.303V139.604H659.649V137.812H660.914ZM666.848 147.137C665.845 147.137 665.029 146.809 664.4 146.152C663.771 145.492 663.457 144.61 663.457 143.507V143.274C663.457 142.541 663.596 141.887 663.874 141.312C664.157 140.734 664.549 140.283 665.05 139.959C665.556 139.631 666.103 139.467 666.69 139.467C667.652 139.467 668.399 139.784 668.933 140.417C669.466 141.05 669.732 141.957 669.732 143.138V143.664H664.722C664.74 144.393 664.952 144.983 665.357 145.435C665.768 145.881 666.287 146.104 666.916 146.104C667.363 146.104 667.741 146.013 668.051 145.831C668.361 145.649 668.632 145.407 668.864 145.106L669.637 145.708C669.017 146.66 668.087 147.137 666.848 147.137ZM666.69 140.506C666.18 140.506 665.752 140.693 665.405 141.066C665.059 141.436 664.845 141.955 664.763 142.625H668.468V142.529C668.431 141.887 668.258 141.39 667.948 141.039C667.638 140.684 667.219 140.506 666.69 140.506ZM670.901 143.24C670.901 142.087 671.168 141.171 671.701 140.492C672.234 139.809 672.941 139.467 673.82 139.467C674.723 139.467 675.427 139.786 675.933 140.424L675.994 139.604H677.149V146.822C677.149 147.779 676.865 148.534 676.295 149.085C675.73 149.636 674.969 149.912 674.012 149.912C673.479 149.912 672.957 149.798 672.446 149.57C671.936 149.342 671.546 149.03 671.277 148.634L671.934 147.875C672.476 148.545 673.139 148.88 673.923 148.88C674.538 148.88 675.017 148.707 675.358 148.36C675.705 148.014 675.878 147.526 675.878 146.897V146.262C675.372 146.845 674.682 147.137 673.807 147.137C672.941 147.137 672.239 146.788 671.701 146.091C671.168 145.394 670.901 144.443 670.901 143.24ZM672.173 143.384C672.173 144.218 672.344 144.874 672.686 145.353C673.027 145.826 673.506 146.063 674.121 146.063C674.919 146.063 675.504 145.701 675.878 144.977V141.6C675.491 140.893 674.91 140.54 674.135 140.54C673.52 140.54 673.039 140.779 672.692 141.258C672.346 141.736 672.173 142.445 672.173 143.384ZM681.483 145.147L683.206 139.604H684.56L681.586 148.142C681.126 149.372 680.394 149.987 679.392 149.987L679.152 149.967L678.681 149.878V148.853L679.022 148.88C679.451 148.88 679.784 148.793 680.021 148.62C680.262 148.447 680.46 148.13 680.615 147.67L680.896 146.918L678.257 139.604H679.638L681.483 145.147Z" fill="black"/>
<rect x="584" y="16" width="150" height="36" fill="white"/>
<path d="M604.347 35.1035V39H603.034V29.0469H606.705C607.794 29.0469 608.646 29.3249 609.262 29.8809C609.882 30.4368 610.191 31.1729 610.191 32.0889C610.191 33.055 609.888 33.8001 609.282 34.3242C608.681 34.8438 607.817 35.1035 606.691 35.1035H604.347ZM604.347 34.0303H606.705C607.407 34.0303 607.945 33.8662 608.318 33.5381C608.692 33.2054 608.879 32.7269 608.879 32.1025C608.879 31.5101 608.692 31.0361 608.318 30.6807C607.945 30.3252 607.432 30.1406 606.78 30.127H604.347V34.0303ZM611.237 35.2334C611.237 34.5088 611.379 33.8571 611.661 33.2783C611.948 32.6995 612.345 32.2529 612.851 31.9385C613.361 31.624 613.942 31.4668 614.594 31.4668C615.601 31.4668 616.414 31.8154 617.034 32.5127C617.659 33.21 617.971 34.1374 617.971 35.2949V35.3838C617.971 36.1038 617.832 36.751 617.554 37.3252C617.28 37.8949 616.886 38.3392 616.371 38.6582C615.861 38.9772 615.273 39.1367 614.607 39.1367C613.605 39.1367 612.791 38.7881 612.167 38.0908C611.547 37.3936 611.237 36.4707 611.237 35.3223V35.2334ZM612.509 35.3838C612.509 36.2041 612.698 36.8626 613.076 37.3594C613.459 37.8561 613.969 38.1045 614.607 38.1045C615.25 38.1045 615.76 37.8538 616.139 37.3525C616.517 36.8467 616.706 36.1403 616.706 35.2334C616.706 34.4222 616.512 33.766 616.125 33.2646C615.742 32.7588 615.232 32.5059 614.594 32.5059C613.969 32.5059 613.466 32.7542 613.083 33.251C612.7 33.7477 612.509 34.4587 612.509 35.3838ZM623.132 32.7383C622.94 32.7064 622.733 32.6904 622.51 32.6904C621.68 32.6904 621.118 33.0436 620.821 33.75V39H619.557V31.6035H620.787L620.808 32.458C621.222 31.7972 621.81 31.4668 622.571 31.4668C622.817 31.4668 623.004 31.4987 623.132 31.5625V32.7383ZM626.358 29.8125V31.6035H627.739V32.5811H626.358V37.168C626.358 37.4642 626.42 37.6875 626.543 37.8379C626.666 37.9837 626.876 38.0566 627.172 38.0566C627.318 38.0566 627.518 38.0293 627.773 37.9746V39C627.441 39.0911 627.117 39.1367 626.803 39.1367C626.238 39.1367 625.812 38.9658 625.524 38.624C625.237 38.2822 625.094 37.7969 625.094 37.168V32.5811H623.747V31.6035H625.094V29.8125H626.358ZM629.845 39V32.5811H628.676V31.6035H629.845V30.8447C629.845 30.0518 630.057 29.4388 630.48 29.0059C630.904 28.5729 631.504 28.3564 632.278 28.3564C632.57 28.3564 632.859 28.3952 633.146 28.4727L633.078 29.498C632.864 29.457 632.636 29.4365 632.395 29.4365C631.984 29.4365 631.668 29.5573 631.444 29.7988C631.221 30.0358 631.109 30.3776 631.109 30.8242V31.6035H632.688V32.5811H631.109V39H629.845ZM633.755 35.2334C633.755 34.5088 633.896 33.8571 634.179 33.2783C634.466 32.6995 634.862 32.2529 635.368 31.9385C635.879 31.624 636.46 31.4668 637.111 31.4668C638.118 31.4668 638.932 31.8154 639.552 32.5127C640.176 33.21 640.488 34.1374 640.488 35.2949V35.3838C640.488 36.1038 640.349 36.751 640.071 37.3252C639.798 37.8949 639.404 38.3392 638.889 38.6582C638.378 38.9772 637.79 39.1367 637.125 39.1367C636.122 39.1367 635.309 38.7881 634.685 38.0908C634.065 37.3936 633.755 36.4707 633.755 35.3223V35.2334ZM635.026 35.3838C635.026 36.2041 635.215 36.8626 635.594 37.3594C635.977 37.8561 636.487 38.1045 637.125 38.1045C637.768 38.1045 638.278 37.8538 638.656 37.3525C639.035 36.8467 639.224 36.1403 639.224 35.2334C639.224 34.4222 639.03 33.766 638.643 33.2646C638.26 32.7588 637.749 32.5059 637.111 32.5059C636.487 32.5059 635.983 32.7542 635.601 33.251C635.218 33.7477 635.026 34.4587 635.026 35.3838ZM643.448 39H642.184V28.5H643.448V39ZM646.853 39H645.588V31.6035H646.853V39ZM645.485 29.6416C645.485 29.4365 645.547 29.2633 645.67 29.1221C645.798 28.9808 645.984 28.9102 646.23 28.9102C646.477 28.9102 646.663 28.9808 646.791 29.1221C646.919 29.2633 646.982 29.4365 646.982 29.6416C646.982 29.8467 646.919 30.0176 646.791 30.1543C646.663 30.291 646.477 30.3594 646.23 30.3594C645.984 30.3594 645.798 30.291 645.67 30.1543C645.547 30.0176 645.485 29.8467 645.485 29.6416ZM648.548 35.2334C648.548 34.5088 648.689 33.8571 648.972 33.2783C649.259 32.6995 649.655 32.2529 650.161 31.9385C650.672 31.624 651.253 31.4668 651.904 31.4668C652.911 31.4668 653.725 31.8154 654.345 32.5127C654.969 33.21 655.281 34.1374 655.281 35.2949V35.3838C655.281 36.1038 655.142 36.751 654.864 37.3252C654.591 37.8949 654.197 38.3392 653.682 38.6582C653.171 38.9772 652.583 39.1367 651.918 39.1367C650.915 39.1367 650.102 38.7881 649.478 38.0908C648.858 37.3936 648.548 36.4707 648.548 35.3223V35.2334ZM649.819 35.3838C649.819 36.2041 650.008 36.8626 650.387 37.3594C650.77 37.8561 651.28 38.1045 651.918 38.1045C652.561 38.1045 653.071 37.8538 653.449 37.3525C653.827 36.8467 654.017 36.1403 654.017 35.2334C654.017 34.4222 653.823 33.766 653.436 33.2646C653.053 32.7588 652.542 32.5059 651.904 32.5059C651.28 32.5059 650.776 32.7542 650.394 33.251C650.011 33.7477 649.819 34.4587 649.819 35.3838ZM668.194 34.3447C668.194 35.32 668.03 36.1722 667.702 36.9014C667.374 37.626 666.909 38.1797 666.308 38.5625C665.706 38.9453 665.004 39.1367 664.202 39.1367C663.418 39.1367 662.723 38.9453 662.117 38.5625C661.511 38.1751 661.039 37.626 660.702 36.915C660.369 36.1995 660.199 35.3724 660.189 34.4336V33.7158C660.189 32.7588 660.356 31.9134 660.688 31.1797C661.021 30.446 661.491 29.8854 662.097 29.498C662.707 29.1061 663.405 28.9102 664.188 28.9102C664.986 28.9102 665.688 29.1038 666.294 29.4912C666.905 29.874 667.374 30.4323 667.702 31.166C668.03 31.8952 668.194 32.7451 668.194 33.7158V34.3447ZM666.889 33.7021C666.889 32.5218 666.652 31.6172 666.178 30.9883C665.704 30.3548 665.041 30.0381 664.188 30.0381C663.359 30.0381 662.705 30.3548 662.227 30.9883C661.753 31.6172 661.509 32.4922 661.495 33.6133V34.3447C661.495 35.4886 661.734 36.3887 662.213 37.0449C662.696 37.6966 663.359 38.0225 664.202 38.0225C665.05 38.0225 665.706 37.7148 666.171 37.0996C666.636 36.4798 666.875 35.5934 666.889 34.4404V33.7021ZM672.405 37.2842L674.237 31.6035H675.529L672.877 39H671.913L669.233 31.6035H670.525L672.405 37.2842ZM679.72 39.1367C678.717 39.1367 677.901 38.8086 677.272 38.1523C676.644 37.4915 676.329 36.6097 676.329 35.5068V35.2744C676.329 34.5407 676.468 33.8867 676.746 33.3125C677.029 32.7337 677.421 32.2826 677.922 31.959C678.428 31.6309 678.975 31.4668 679.562 31.4668C680.524 31.4668 681.271 31.7835 681.805 32.417C682.338 33.0505 682.604 33.9574 682.604 35.1377V35.6641H677.594C677.612 36.3932 677.824 36.9834 678.229 37.4346C678.64 37.8812 679.159 38.1045 679.788 38.1045C680.235 38.1045 680.613 38.0133 680.923 37.8311C681.233 37.6488 681.504 37.4072 681.736 37.1064L682.509 37.708C681.889 38.6605 680.959 39.1367 679.72 39.1367ZM679.562 32.5059C679.052 32.5059 678.624 32.6927 678.277 33.0664C677.931 33.4355 677.717 33.9551 677.635 34.625H681.34V34.5293C681.303 33.8867 681.13 33.39 680.82 33.0391C680.51 32.6836 680.091 32.5059 679.562 32.5059ZM687.649 32.7383C687.458 32.7064 687.251 32.6904 687.027 32.6904C686.198 32.6904 685.635 33.0436 685.339 33.75V39H684.074V31.6035H685.305L685.325 32.458C685.74 31.7972 686.328 31.4668 687.089 31.4668C687.335 31.4668 687.522 31.4987 687.649 31.5625V32.7383ZM691.382 37.2842L693.214 31.6035H694.506L691.854 39H690.89L688.21 31.6035H689.502L691.382 37.2842ZM697.097 39H695.832V31.6035H697.097V39ZM695.729 29.6416C695.729 29.4365 695.791 29.2633 695.914 29.1221C696.042 28.9808 696.229 28.9102 696.475 28.9102C696.721 28.9102 696.908 28.9808 697.035 29.1221C697.163 29.2633 697.227 29.4365 697.227 29.6416C697.227 29.8467 697.163 30.0176 697.035 30.1543C696.908 30.291 696.721 30.3594 696.475 30.3594C696.229 30.3594 696.042 30.291 695.914 30.1543C695.791 30.0176 695.729 29.8467 695.729 29.6416ZM702.196 39.1367C701.194 39.1367 700.378 38.8086 699.749 38.1523C699.12 37.4915 698.806 36.6097 698.806 35.5068V35.2744C698.806 34.5407 698.945 33.8867 699.223 33.3125C699.505 32.7337 699.897 32.2826 700.398 31.959C700.904 31.6309 701.451 31.4668 702.039 31.4668C703.001 31.4668 703.748 31.7835 704.281 32.417C704.814 33.0505 705.081 33.9574 705.081 35.1377V35.6641H700.07C700.089 36.3932 700.3 36.9834 700.706 37.4346C701.116 37.8812 701.636 38.1045 702.265 38.1045C702.711 38.1045 703.09 38.0133 703.399 37.8311C703.709 37.6488 703.98 37.4072 704.213 37.1064L704.985 37.708C704.366 38.6605 703.436 39.1367 702.196 39.1367ZM702.039 32.5059C701.529 32.5059 701.1 32.6927 700.754 33.0664C700.408 33.4355 700.193 33.9551 700.111 34.625H703.816V34.5293C703.78 33.8867 703.607 33.39 703.297 33.0391C702.987 32.6836 702.568 32.5059 702.039 32.5059ZM713.1 37.2568L714.521 31.6035H715.786L713.633 39H712.607L710.81 33.3945L709.06 39H708.034L705.888 31.6035H707.146L708.602 37.1406L710.324 31.6035H711.343L713.1 37.2568Z" fill="black"/>
<rect x="584" y="62" width="150" height="52" fill="white"/>
<path d="M596.793 84.4443V74.4912H599.603C600.468 74.4912 601.234 74.6826 601.899 75.0654C602.565 75.4482 603.077 75.9928 603.438 76.6992C603.802 77.4056 603.987 78.2168 603.991 79.1328V79.7686C603.991 80.7074 603.809 81.5299 603.444 82.2363C603.084 82.9427 602.567 83.485 601.893 83.8633C601.223 84.2415 600.441 84.4352 599.548 84.4443H596.793ZM598.105 75.5713V83.3711H599.486C600.498 83.3711 601.284 83.0566 601.845 82.4277C602.41 81.7988 602.692 80.9033 602.692 79.7412V79.1602C602.692 78.0299 602.426 77.1527 601.893 76.5283C601.364 75.8994 600.612 75.5804 599.637 75.5713H598.105ZM608.852 84.5811C607.849 84.5811 607.033 84.2529 606.404 83.5967C605.775 82.9359 605.461 82.054 605.461 80.9512V80.7188C605.461 79.985 605.6 79.3311 605.878 78.7568C606.16 78.1781 606.552 77.7269 607.054 77.4033C607.56 77.0752 608.106 76.9111 608.694 76.9111C609.656 76.9111 610.403 77.2279 610.937 77.8613C611.47 78.4948 611.736 79.4017 611.736 80.582V81.1084H606.726C606.744 81.8376 606.956 82.4277 607.361 82.8789C607.771 83.3255 608.291 83.5488 608.92 83.5488C609.367 83.5488 609.745 83.4577 610.055 83.2754C610.365 83.0931 610.636 82.8516 610.868 82.5508L611.641 83.1523C611.021 84.1048 610.091 84.5811 608.852 84.5811ZM608.694 77.9502C608.184 77.9502 607.756 78.137 607.409 78.5107C607.063 78.8799 606.849 79.3994 606.767 80.0693H610.472V79.9736C610.435 79.3311 610.262 78.8343 609.952 78.4834C609.642 78.1279 609.223 77.9502 608.694 77.9502ZM614.922 75.2568V77.0479H616.303V78.0254H614.922V82.6123C614.922 82.9085 614.983 83.1318 615.106 83.2822C615.229 83.4281 615.439 83.501 615.735 83.501C615.881 83.501 616.082 83.4736 616.337 83.4189V84.4443C616.004 84.5355 615.681 84.5811 615.366 84.5811C614.801 84.5811 614.375 84.4102 614.088 84.0684C613.801 83.7266 613.657 83.2412 613.657 82.6123V78.0254H612.311V77.0479H613.657V75.2568H614.922ZM622.353 84.4443C622.28 84.2985 622.22 84.0387 622.175 83.665C621.587 84.2757 620.885 84.5811 620.069 84.5811C619.34 84.5811 618.741 84.376 618.271 83.9658C617.807 83.5511 617.574 83.027 617.574 82.3936C617.574 81.6234 617.866 81.0264 618.449 80.6025C619.037 80.1742 619.862 79.96 620.924 79.96H622.154V79.3789C622.154 78.9368 622.022 78.5859 621.758 78.3262C621.493 78.0618 621.104 77.9297 620.589 77.9297C620.138 77.9297 619.759 78.0436 619.454 78.2715C619.149 78.4993 618.996 78.7751 618.996 79.0986H617.725C617.725 78.7295 617.854 78.374 618.114 78.0322C618.379 77.6859 618.734 77.4124 619.181 77.2119C619.632 77.0114 620.126 76.9111 620.664 76.9111C621.516 76.9111 622.184 77.1253 622.667 77.5537C623.15 77.9775 623.401 78.5632 623.419 79.3105V82.7148C623.419 83.3939 623.506 83.9339 623.679 84.335V84.4443H622.353ZM620.254 83.4805C620.65 83.4805 621.026 83.3779 621.382 83.1729C621.737 82.9678 621.995 82.7012 622.154 82.373V80.8555H621.163C619.614 80.8555 618.839 81.3089 618.839 82.2158C618.839 82.6123 618.971 82.9222 619.235 83.1455C619.5 83.3688 619.839 83.4805 620.254 83.4805ZM626.775 84.4443H625.511V77.0479H626.775V84.4443ZM625.408 75.0859C625.408 74.8809 625.47 74.7077 625.593 74.5664C625.72 74.4251 625.907 74.3545 626.153 74.3545C626.399 74.3545 626.586 74.4251 626.714 74.5664C626.841 74.7077 626.905 74.8809 626.905 75.0859C626.905 75.291 626.841 75.4619 626.714 75.5986C626.586 75.7354 626.399 75.8037 626.153 75.8037C625.907 75.8037 625.72 75.7354 625.593 75.5986C625.47 75.4619 625.408 75.291 625.408 75.0859ZM630.18 84.4443H628.915V73.9443H630.18V84.4443ZM635.279 84.5811C634.277 84.5811 633.461 84.2529 632.832 83.5967C632.203 82.9359 631.889 82.054 631.889 80.9512V80.7188C631.889 79.985 632.028 79.3311 632.306 78.7568C632.588 78.1781 632.98 77.7269 633.481 77.4033C633.987 77.0752 634.534 76.9111 635.122 76.9111C636.084 76.9111 636.831 77.2279 637.364 77.8613C637.897 78.4948 638.164 79.4017 638.164 80.582V81.1084H633.153C633.172 81.8376 633.383 82.4277 633.789 82.8789C634.199 83.3255 634.719 83.5488 635.348 83.5488C635.794 83.5488 636.173 83.4577 636.482 83.2754C636.792 83.0931 637.063 82.8516 637.296 82.5508L638.068 83.1523C637.449 84.1048 636.519 84.5811 635.279 84.5811ZM635.122 77.9502C634.612 77.9502 634.183 78.137 633.837 78.5107C633.491 78.8799 633.276 79.3994 633.194 80.0693H636.899V79.9736C636.863 79.3311 636.69 78.8343 636.38 78.4834C636.07 78.1279 635.651 77.9502 635.122 77.9502ZM639.326 80.6846C639.326 79.5498 639.595 78.6383 640.133 77.9502C640.671 77.2575 641.375 76.9111 642.245 76.9111C643.111 76.9111 643.797 77.2074 644.303 77.7998V73.9443H645.567V84.4443H644.405L644.344 83.6514C643.838 84.2712 643.134 84.5811 642.231 84.5811C641.375 84.5811 640.675 84.2301 640.133 83.5283C639.595 82.8265 639.326 81.9105 639.326 80.7803V80.6846ZM640.591 80.8281C640.591 81.6667 640.764 82.3229 641.11 82.7969C641.457 83.2708 641.935 83.5078 642.546 83.5078C643.348 83.5078 643.934 83.1478 644.303 82.4277V79.0303C643.924 78.333 643.343 77.9844 642.56 77.9844C641.94 77.9844 641.457 78.2236 641.11 78.7021C640.764 79.1807 640.591 79.8893 640.591 80.8281ZM652.383 84.4443H651.118V77.0479H652.383V84.4443ZM651.016 75.0859C651.016 74.8809 651.077 74.7077 651.2 74.5664C651.328 74.4251 651.515 74.3545 651.761 74.3545C652.007 74.3545 652.194 74.4251 652.321 74.5664C652.449 74.7077 652.513 74.8809 652.513 75.0859C652.513 75.291 652.449 75.4619 652.321 75.5986C652.194 75.7354 652.007 75.8037 651.761 75.8037C651.515 75.8037 651.328 75.7354 651.2 75.5986C651.077 75.4619 651.016 75.291 651.016 75.0859ZM655.609 77.0479L655.65 77.9775C656.215 77.2666 656.954 76.9111 657.865 76.9111C659.428 76.9111 660.217 77.793 660.23 79.5566V84.4443H658.966V79.5498C658.961 79.0166 658.838 78.6224 658.597 78.3672C658.36 78.112 657.988 77.9844 657.482 77.9844C657.072 77.9844 656.712 78.0938 656.402 78.3125C656.092 78.5312 655.851 78.8184 655.678 79.1738V84.4443H654.413V77.0479H655.609ZM662.76 84.4443V78.0254H661.591V77.0479H662.76V76.2891C662.76 75.4961 662.972 74.8831 663.396 74.4502C663.819 74.0173 664.419 73.8008 665.193 73.8008C665.485 73.8008 665.774 73.8395 666.062 73.917L665.993 74.9424C665.779 74.9014 665.551 74.8809 665.31 74.8809C664.899 74.8809 664.583 75.0016 664.359 75.2432C664.136 75.4801 664.024 75.8219 664.024 76.2686V77.0479H665.604V78.0254H664.024V84.4443H662.76ZM666.67 80.6777C666.67 79.9531 666.811 79.3014 667.094 78.7227C667.381 78.1439 667.777 77.6973 668.283 77.3828C668.794 77.0684 669.375 76.9111 670.026 76.9111C671.034 76.9111 671.847 77.2598 672.467 77.957C673.091 78.6543 673.403 79.5817 673.403 80.7393V80.8281C673.403 81.5482 673.264 82.1953 672.986 82.7695C672.713 83.3392 672.319 83.7835 671.804 84.1025C671.293 84.4215 670.705 84.5811 670.04 84.5811C669.037 84.5811 668.224 84.2324 667.6 83.5352C666.98 82.8379 666.67 81.915 666.67 80.7666V80.6777ZM667.941 80.8281C667.941 81.6484 668.131 82.307 668.509 82.8037C668.892 83.3005 669.402 83.5488 670.04 83.5488C670.683 83.5488 671.193 83.2982 671.571 82.7969C671.95 82.291 672.139 81.5846 672.139 80.6777C672.139 79.8665 671.945 79.2103 671.558 78.709C671.175 78.2031 670.664 77.9502 670.026 77.9502C669.402 77.9502 668.898 78.1986 668.516 78.6953C668.133 79.1921 667.941 79.903 667.941 80.8281ZM678.564 78.1826C678.373 78.1507 678.166 78.1348 677.942 78.1348C677.113 78.1348 676.55 78.488 676.254 79.1943V84.4443H674.989V77.0479H676.22L676.24 77.9023C676.655 77.2415 677.243 76.9111 678.004 76.9111C678.25 76.9111 678.437 76.943 678.564 77.0068V78.1826ZM680.923 77.0479L680.957 77.8682C681.499 77.2301 682.231 76.9111 683.151 76.9111C684.186 76.9111 684.89 77.3076 685.264 78.1006C685.51 77.7451 685.829 77.458 686.221 77.2393C686.617 77.0205 687.084 76.9111 687.622 76.9111C689.244 76.9111 690.069 77.7702 690.097 79.4883V84.4443H688.832V79.5635C688.832 79.0348 688.711 78.6406 688.47 78.3809C688.228 78.1165 687.823 77.9844 687.253 77.9844C686.784 77.9844 686.394 78.1257 686.084 78.4082C685.774 78.6862 685.594 79.0622 685.544 79.5361V84.4443H684.272V79.5977C684.272 78.5221 683.746 77.9844 682.693 77.9844C681.864 77.9844 681.297 78.3376 680.991 79.0439V84.4443H679.727V77.0479H680.923ZM696.577 84.4443C696.504 84.2985 696.445 84.0387 696.399 83.665C695.812 84.2757 695.11 84.5811 694.294 84.5811C693.565 84.5811 692.965 84.376 692.496 83.9658C692.031 83.5511 691.799 83.027 691.799 82.3936C691.799 81.6234 692.09 81.0264 692.674 80.6025C693.262 80.1742 694.087 79.96 695.148 79.96H696.379V79.3789C696.379 78.9368 696.247 78.5859 695.982 78.3262C695.718 78.0618 695.328 77.9297 694.813 77.9297C694.362 77.9297 693.984 78.0436 693.679 78.2715C693.373 78.4993 693.221 78.7751 693.221 79.0986H691.949C691.949 78.7295 692.079 78.374 692.339 78.0322C692.603 77.6859 692.959 77.4124 693.405 77.2119C693.856 77.0114 694.351 76.9111 694.889 76.9111C695.741 76.9111 696.409 77.1253 696.892 77.5537C697.375 77.9775 697.625 78.5632 697.644 79.3105V82.7148C697.644 83.3939 697.73 83.9339 697.903 84.335V84.4443H696.577ZM694.479 83.4805C694.875 83.4805 695.251 83.3779 695.606 83.1729C695.962 82.9678 696.219 82.7012 696.379 82.373V80.8555H695.388C693.838 80.8555 693.063 81.3089 693.063 82.2158C693.063 82.6123 693.196 82.9222 693.46 83.1455C693.724 83.3688 694.064 83.4805 694.479 83.4805ZM701.342 75.2568V77.0479H702.723V78.0254H701.342V82.6123C701.342 82.9085 701.403 83.1318 701.526 83.2822C701.649 83.4281 701.859 83.501 702.155 83.501C702.301 83.501 702.502 83.4736 702.757 83.4189V84.4443C702.424 84.5355 702.101 84.5811 701.786 84.5811C701.221 84.5811 700.795 84.4102 700.508 84.0684C700.221 83.7266 700.077 83.2412 700.077 82.6123V78.0254H698.73V77.0479H700.077V75.2568H701.342ZM705.58 84.4443H704.315V77.0479H705.58V84.4443ZM704.213 75.0859C704.213 74.8809 704.274 74.7077 704.397 74.5664C704.525 74.4251 704.712 74.3545 704.958 74.3545C705.204 74.3545 705.391 74.4251 705.519 74.5664C705.646 74.7077 705.71 74.8809 705.71 75.0859C705.71 75.291 705.646 75.4619 705.519 75.5986C705.391 75.7354 705.204 75.8037 704.958 75.8037C704.712 75.8037 704.525 75.7354 704.397 75.5986C704.274 75.4619 704.213 75.291 704.213 75.0859ZM707.275 80.6777C707.275 79.9531 707.417 79.3014 707.699 78.7227C707.986 78.1439 708.383 77.6973 708.889 77.3828C709.399 77.0684 709.98 76.9111 710.632 76.9111C711.639 76.9111 712.452 77.2598 713.072 77.957C713.697 78.6543 714.009 79.5817 714.009 80.7393V80.8281C714.009 81.5482 713.87 82.1953 713.592 82.7695C713.318 83.3392 712.924 83.7835 712.409 84.1025C711.899 84.4215 711.311 84.5811 710.646 84.5811C709.643 84.5811 708.829 84.2324 708.205 83.5352C707.585 82.8379 707.275 81.915 707.275 80.7666V80.6777ZM708.547 80.8281C708.547 81.6484 708.736 82.307 709.114 82.8037C709.497 83.3005 710.007 83.5488 710.646 83.5488C711.288 83.5488 711.799 83.2982 712.177 82.7969C712.555 82.291 712.744 81.5846 712.744 80.6777C712.744 79.8665 712.55 79.2103 712.163 78.709C711.78 78.2031 711.27 77.9502 710.632 77.9502C710.007 77.9502 709.504 78.1986 709.121 78.6953C708.738 79.1921 708.547 79.903 708.547 80.8281ZM716.791 77.0479L716.832 77.9775C717.397 77.2666 718.135 76.9111 719.047 76.9111C720.61 76.9111 721.398 77.793 721.412 79.5566V84.4443H720.147V79.5498C720.143 79.0166 720.02 78.6224 719.778 78.3672C719.541 78.112 719.17 77.9844 718.664 77.9844C718.254 77.9844 717.894 78.0938 717.584 78.3125C717.274 78.5312 717.033 78.8184 716.859 79.1738V84.4443H715.595V77.0479H716.791ZM618.477 100.444V94.0254H617.308V93.0479H618.477V92.2891C618.477 91.4961 618.688 90.8831 619.112 90.4502C619.536 90.0173 620.135 89.8008 620.91 89.8008C621.202 89.8008 621.491 89.8395 621.778 89.917L621.71 90.9424C621.496 90.9014 621.268 90.8809 621.026 90.8809C620.616 90.8809 620.299 91.0016 620.076 91.2432C619.853 91.4801 619.741 91.8219 619.741 92.2686V93.0479H621.32V94.0254H619.741V100.444H618.477ZM622.387 96.6777C622.387 95.9531 622.528 95.3014 622.811 94.7227C623.098 94.1439 623.494 93.6973 624 93.3828C624.51 93.0684 625.091 92.9111 625.743 92.9111C626.75 92.9111 627.564 93.2598 628.184 93.957C628.808 94.6543 629.12 95.5817 629.12 96.7393V96.8281C629.12 97.5482 628.981 98.1953 628.703 98.7695C628.43 99.3392 628.035 99.7835 627.521 100.103C627.01 100.422 626.422 100.581 625.757 100.581C624.754 100.581 623.941 100.232 623.316 99.5352C622.697 98.8379 622.387 97.915 622.387 96.7666V96.6777ZM623.658 96.8281C623.658 97.6484 623.847 98.307 624.226 98.8037C624.608 99.3005 625.119 99.5488 625.757 99.5488C626.399 99.5488 626.91 99.2982 627.288 98.7969C627.666 98.291 627.855 97.5846 627.855 96.6777C627.855 95.8665 627.662 95.2103 627.274 94.709C626.892 94.2031 626.381 93.9502 625.743 93.9502C625.119 93.9502 624.615 94.1986 624.232 94.6953C623.85 95.1921 623.658 95.903 623.658 96.8281ZM634.281 94.1826C634.09 94.1507 633.882 94.1348 633.659 94.1348C632.83 94.1348 632.267 94.488 631.971 95.1943V100.444H630.706V93.0479H631.937L631.957 93.9023C632.372 93.2415 632.96 92.9111 633.721 92.9111C633.967 92.9111 634.154 92.943 634.281 93.0068V94.1826ZM641.992 100.581C640.99 100.581 640.174 100.253 639.545 99.5967C638.916 98.9359 638.602 98.054 638.602 96.9512V96.7188C638.602 95.985 638.741 95.3311 639.019 94.7568C639.301 94.1781 639.693 93.7269 640.194 93.4033C640.7 93.0752 641.247 92.9111 641.835 92.9111C642.797 92.9111 643.544 93.2279 644.077 93.8613C644.61 94.4948 644.877 95.4017 644.877 96.582V97.1084H639.866C639.884 97.8376 640.096 98.4277 640.502 98.8789C640.912 99.3255 641.432 99.5488 642.061 99.5488C642.507 99.5488 642.885 99.4577 643.195 99.2754C643.505 99.0931 643.776 98.8516 644.009 98.5508L644.781 99.1523C644.161 100.105 643.232 100.581 641.992 100.581ZM641.835 93.9502C641.325 93.9502 640.896 94.137 640.55 94.5107C640.203 94.8799 639.989 95.3994 639.907 96.0693H643.612V95.9736C643.576 95.3311 643.403 94.8343 643.093 94.4834C642.783 94.1279 642.364 93.9502 641.835 93.9502ZM650.913 100.444C650.84 100.299 650.781 100.039 650.735 99.665C650.147 100.276 649.446 100.581 648.63 100.581C647.901 100.581 647.301 100.376 646.832 99.9658C646.367 99.5511 646.135 99.027 646.135 98.3936C646.135 97.6234 646.426 97.0264 647.01 96.6025C647.598 96.1742 648.423 95.96 649.484 95.96H650.715V95.3789C650.715 94.9368 650.583 94.5859 650.318 94.3262C650.054 94.0618 649.664 93.9297 649.149 93.9297C648.698 93.9297 648.32 94.0436 648.015 94.2715C647.709 94.4993 647.557 94.7751 647.557 95.0986H646.285C646.285 94.7295 646.415 94.374 646.675 94.0322C646.939 93.6859 647.295 93.4124 647.741 93.2119C648.192 93.0114 648.687 92.9111 649.225 92.9111C650.077 92.9111 650.744 93.1253 651.228 93.5537C651.711 93.9775 651.961 94.5632 651.979 95.3105V98.7148C651.979 99.3939 652.066 99.9339 652.239 100.335V100.444H650.913ZM648.814 99.4805C649.211 99.4805 649.587 99.3779 649.942 99.1729C650.298 98.9678 650.555 98.7012 650.715 98.373V96.8555H649.724C648.174 96.8555 647.399 97.3089 647.399 98.2158C647.399 98.6123 647.532 98.9222 647.796 99.1455C648.06 99.3688 648.4 99.4805 648.814 99.4805ZM656.929 99.5488C657.38 99.5488 657.774 99.4121 658.111 99.1387C658.449 98.8652 658.635 98.5234 658.672 98.1133H659.868C659.845 98.5371 659.7 98.9404 659.431 99.3232C659.162 99.7061 658.802 100.011 658.351 100.239C657.904 100.467 657.43 100.581 656.929 100.581C655.922 100.581 655.119 100.246 654.522 99.5762C653.93 98.9017 653.634 97.9811 653.634 96.8145V96.6025C653.634 95.8825 653.766 95.2422 654.03 94.6816C654.295 94.1211 654.673 93.6859 655.165 93.376C655.662 93.0661 656.247 92.9111 656.922 92.9111C657.751 92.9111 658.439 93.1595 658.986 93.6562C659.538 94.153 659.832 94.7979 659.868 95.5908H658.672C658.635 95.1123 658.453 94.7204 658.125 94.415C657.801 94.1051 657.4 93.9502 656.922 93.9502C656.279 93.9502 655.78 94.1826 655.425 94.6475C655.074 95.1077 654.898 95.7754 654.898 96.6504V96.8896C654.898 97.7419 655.074 98.3981 655.425 98.8584C655.776 99.3187 656.277 99.5488 656.929 99.5488ZM662.555 93.9434C663.115 93.2552 663.844 92.9111 664.742 92.9111C666.305 92.9111 667.094 93.793 667.107 95.5566V100.444H665.843V95.5498C665.838 95.0166 665.715 94.6224 665.474 94.3672C665.237 94.112 664.865 93.9844 664.359 93.9844C663.949 93.9844 663.589 94.0938 663.279 94.3125C662.969 94.5312 662.728 94.8184 662.555 95.1738V100.444H661.29V89.9443H662.555V93.9434ZM675.44 99.5488C675.892 99.5488 676.286 99.4121 676.623 99.1387C676.96 98.8652 677.147 98.5234 677.184 98.1133H678.38C678.357 98.5371 678.211 98.9404 677.942 99.3232C677.674 99.7061 677.313 100.011 676.862 100.239C676.416 100.467 675.942 100.581 675.44 100.581C674.433 100.581 673.631 100.246 673.034 99.5762C672.442 98.9017 672.146 97.9811 672.146 96.8145V96.6025C672.146 95.8825 672.278 95.2422 672.542 94.6816C672.806 94.1211 673.185 93.6859 673.677 93.376C674.174 93.0661 674.759 92.9111 675.434 92.9111C676.263 92.9111 676.951 93.1595 677.498 93.6562C678.049 94.153 678.343 94.7979 678.38 95.5908H677.184C677.147 95.1123 676.965 94.7204 676.637 94.415C676.313 94.1051 675.912 93.9502 675.434 93.9502C674.791 93.9502 674.292 94.1826 673.937 94.6475C673.586 95.1077 673.41 95.7754 673.41 96.6504V96.8896C673.41 97.7419 673.586 98.3981 673.937 98.8584C674.287 99.3187 674.789 99.5488 675.44 99.5488ZM684.368 100.444C684.295 100.299 684.236 100.039 684.19 99.665C683.603 100.276 682.901 100.581 682.085 100.581C681.356 100.581 680.757 100.376 680.287 99.9658C679.822 99.5511 679.59 99.027 679.59 98.3936C679.59 97.6234 679.882 97.0264 680.465 96.6025C681.053 96.1742 681.878 95.96 682.939 95.96H684.17V95.3789C684.17 94.9368 684.038 94.5859 683.773 94.3262C683.509 94.0618 683.119 93.9297 682.604 93.9297C682.153 93.9297 681.775 94.0436 681.47 94.2715C681.164 94.4993 681.012 94.7751 681.012 95.0986H679.74C679.74 94.7295 679.87 94.374 680.13 94.0322C680.394 93.6859 680.75 93.4124 681.196 93.2119C681.647 93.0114 682.142 92.9111 682.68 92.9111C683.532 92.9111 684.2 93.1253 684.683 93.5537C685.166 93.9775 685.416 94.5632 685.435 95.3105V98.7148C685.435 99.3939 685.521 99.9339 685.694 100.335V100.444H684.368ZM682.27 99.4805C682.666 99.4805 683.042 99.3779 683.397 99.1729C683.753 98.9678 684.01 98.7012 684.17 98.373V96.8555H683.179C681.629 96.8555 680.854 97.3089 680.854 98.2158C680.854 98.6123 680.987 98.9222 681.251 99.1455C681.515 99.3688 681.855 99.4805 682.27 99.4805ZM691.724 98.4824C691.724 98.1406 691.594 97.8763 691.334 97.6895C691.079 97.498 690.63 97.334 689.987 97.1973C689.349 97.0605 688.841 96.8965 688.463 96.7051C688.089 96.5137 687.811 96.2858 687.629 96.0215C687.451 95.7572 687.362 95.4427 687.362 95.0781C687.362 94.472 687.618 93.9593 688.128 93.54C688.643 93.1208 689.299 92.9111 690.097 92.9111C690.935 92.9111 691.614 93.1276 692.134 93.5605C692.658 93.9935 692.92 94.5472 692.92 95.2217H691.648C691.648 94.8753 691.5 94.5768 691.204 94.3262C690.912 94.0755 690.543 93.9502 690.097 93.9502C689.636 93.9502 689.276 94.0505 689.017 94.251C688.757 94.4515 688.627 94.7135 688.627 95.0371C688.627 95.3424 688.748 95.5726 688.989 95.7275C689.231 95.8825 689.666 96.0306 690.295 96.1719C690.928 96.3132 691.441 96.4818 691.833 96.6777C692.225 96.8737 692.514 97.1107 692.701 97.3887C692.893 97.6621 692.988 97.9971 692.988 98.3936C692.988 99.0544 692.724 99.5853 692.195 99.9863C691.667 100.383 690.981 100.581 690.138 100.581C689.545 100.581 689.021 100.476 688.565 100.267C688.11 100.057 687.752 99.7653 687.492 99.3916C687.237 99.0133 687.109 98.6055 687.109 98.168H688.374C688.397 98.5918 688.565 98.929 688.88 99.1797C689.199 99.4258 689.618 99.5488 690.138 99.5488C690.616 99.5488 690.999 99.4531 691.286 99.2617C691.578 99.0658 691.724 98.806 691.724 98.4824ZM697.705 100.581C696.702 100.581 695.887 100.253 695.258 99.5967C694.629 98.9359 694.314 98.054 694.314 96.9512V96.7188C694.314 95.985 694.453 95.3311 694.731 94.7568C695.014 94.1781 695.406 93.7269 695.907 93.4033C696.413 93.0752 696.96 92.9111 697.548 92.9111C698.509 92.9111 699.257 93.2279 699.79 93.8613C700.323 94.4948 700.59 95.4017 700.59 96.582V97.1084H695.579C695.597 97.8376 695.809 98.4277 696.215 98.8789C696.625 99.3255 697.145 99.5488 697.773 99.5488C698.22 99.5488 698.598 99.4577 698.908 99.2754C699.218 99.0931 699.489 98.8516 699.722 98.5508L700.494 99.1523C699.874 100.105 698.945 100.581 697.705 100.581ZM697.548 93.9502C697.037 93.9502 696.609 94.137 696.263 94.5107C695.916 94.8799 695.702 95.3994 695.62 96.0693H699.325V95.9736C699.289 95.3311 699.116 94.8343 698.806 94.4834C698.496 94.1279 698.076 93.9502 697.548 93.9502Z" fill="black"/>
<rect x="794" y="47" width="150" height="36" fill="white"/>
<path d="M815.078 67.4023H810.908L809.972 70H808.618L812.419 60.0469H813.567L817.375 70H816.028L815.078 67.4023ZM811.305 66.3223H814.688L812.993 61.667L811.305 66.3223ZM820.109 60.8125V62.6035H821.49V63.5811H820.109V68.168C820.109 68.4642 820.171 68.6875 820.294 68.8379C820.417 68.9837 820.627 69.0566 820.923 69.0566C821.069 69.0566 821.269 69.0293 821.524 68.9746V70C821.192 70.0911 820.868 70.1367 820.554 70.1367C819.989 70.1367 819.562 69.9658 819.275 69.624C818.988 69.2822 818.845 68.7969 818.845 68.168V63.5811H817.498V62.6035H818.845V60.8125H820.109ZM824.689 60.8125V62.6035H826.07V63.5811H824.689V68.168C824.689 68.4642 824.751 68.6875 824.874 68.8379C824.997 68.9837 825.207 69.0566 825.503 69.0566C825.649 69.0566 825.849 69.0293 826.104 68.9746V70C825.772 70.0911 825.448 70.1367 825.134 70.1367C824.569 70.1367 824.143 69.9658 823.855 69.624C823.568 69.2822 823.425 68.7969 823.425 68.168V63.5811H822.078V62.6035H823.425V60.8125H824.689ZM827.082 66.2334C827.082 65.5088 827.223 64.8571 827.506 64.2783C827.793 63.6995 828.189 63.2529 828.695 62.9385C829.206 62.624 829.787 62.4668 830.438 62.4668C831.446 62.4668 832.259 62.8154 832.879 63.5127C833.503 64.21 833.815 65.1374 833.815 66.2949V66.3838C833.815 67.1038 833.676 67.751 833.398 68.3252C833.125 68.8949 832.731 69.3392 832.216 69.6582C831.705 69.9772 831.118 70.1367 830.452 70.1367C829.45 70.1367 828.636 69.7881 828.012 69.0908C827.392 68.3936 827.082 67.4707 827.082 66.3223V66.2334ZM828.354 66.3838C828.354 67.2041 828.543 67.8626 828.921 68.3594C829.304 68.8561 829.814 69.1045 830.452 69.1045C831.095 69.1045 831.605 68.8538 831.983 68.3525C832.362 67.8467 832.551 67.1403 832.551 66.2334C832.551 65.4222 832.357 64.766 831.97 64.2646C831.587 63.7588 831.076 63.5059 830.438 63.5059C829.814 63.5059 829.311 63.7542 828.928 64.251C828.545 64.7477 828.354 65.4587 828.354 66.3838ZM838.977 63.7383C838.785 63.7064 838.578 63.6904 838.354 63.6904C837.525 63.6904 836.962 64.0436 836.666 64.75V70H835.401V62.6035H836.632L836.652 63.458C837.067 62.7972 837.655 62.4668 838.416 62.4668C838.662 62.4668 838.849 62.4987 838.977 62.5625V63.7383ZM841.342 62.6035L841.383 63.5332C841.948 62.8223 842.686 62.4668 843.598 62.4668C845.161 62.4668 845.949 63.3486 845.963 65.1123V70H844.698V65.1055C844.694 64.5723 844.571 64.1781 844.329 63.9229C844.092 63.6676 843.721 63.54 843.215 63.54C842.805 63.54 842.445 63.6494 842.135 63.8682C841.825 64.0869 841.583 64.374 841.41 64.7295V70H840.146V62.6035H841.342ZM850.939 70.1367C849.937 70.1367 849.121 69.8086 848.492 69.1523C847.863 68.4915 847.549 67.6097 847.549 66.5068V66.2744C847.549 65.5407 847.688 64.8867 847.966 64.3125C848.248 63.7337 848.64 63.2826 849.142 62.959C849.647 62.6309 850.194 62.4668 850.782 62.4668C851.744 62.4668 852.491 62.7835 853.024 63.417C853.558 64.0505 853.824 64.9574 853.824 66.1377V66.6641H848.813C848.832 67.3932 849.044 67.9834 849.449 68.4346C849.859 68.8812 850.379 69.1045 851.008 69.1045C851.454 69.1045 851.833 69.0133 852.143 68.8311C852.452 68.6488 852.724 68.4072 852.956 68.1064L853.729 68.708C853.109 69.6605 852.179 70.1367 850.939 70.1367ZM850.782 63.5059C850.272 63.5059 849.843 63.6927 849.497 64.0664C849.151 64.4355 848.937 64.9551 848.854 65.625H852.56V65.5293C852.523 64.8867 852.35 64.39 852.04 64.0391C851.73 63.6836 851.311 63.5059 850.782 63.5059ZM857.618 68.1475L859.341 62.6035H860.694L857.721 71.1416C857.26 72.3721 856.529 72.9873 855.526 72.9873L855.287 72.9668L854.815 72.8779V71.8525L855.157 71.8799C855.586 71.8799 855.918 71.7933 856.155 71.6201C856.397 71.4469 856.595 71.1302 856.75 70.6699L857.03 69.918L854.392 62.6035H855.772L857.618 68.1475ZM868.433 65.5635C867.307 65.2399 866.487 64.8434 865.972 64.374C865.461 63.9001 865.206 63.3167 865.206 62.624C865.206 61.8402 865.518 61.193 866.143 60.6826C866.771 60.1676 867.587 59.9102 868.59 59.9102C869.273 59.9102 869.882 60.0423 870.415 60.3066C870.953 60.571 871.368 60.9355 871.659 61.4004C871.955 61.8652 872.104 62.3734 872.104 62.9248H870.784C870.784 62.3232 870.593 61.8516 870.21 61.5098C869.827 61.1634 869.287 60.9902 868.59 60.9902C867.943 60.9902 867.437 61.1338 867.072 61.4209C866.712 61.7035 866.532 62.0977 866.532 62.6035C866.532 63.0091 866.703 63.3532 867.045 63.6357C867.391 63.9137 867.977 64.1689 868.802 64.4014C869.631 64.6338 870.278 64.8913 870.743 65.1738C871.213 65.4518 871.559 65.7777 871.782 66.1514C872.01 66.5251 872.124 66.9648 872.124 67.4707C872.124 68.2773 871.81 68.9245 871.181 69.4121C870.552 69.8952 869.711 70.1367 868.658 70.1367C867.975 70.1367 867.337 70.0068 866.744 69.7471C866.152 69.4827 865.694 69.1227 865.37 68.667C865.051 68.2113 864.892 67.694 864.892 67.1152H866.211C866.211 67.7168 866.432 68.193 866.874 68.5439C867.321 68.8903 867.915 69.0635 868.658 69.0635C869.351 69.0635 869.882 68.9222 870.251 68.6396C870.62 68.3571 870.805 67.972 870.805 67.4844C870.805 66.9967 870.634 66.6208 870.292 66.3564C869.95 66.0876 869.33 65.8232 868.433 65.5635ZM874.988 70H873.724V62.6035H874.988V70ZM873.621 60.6416C873.621 60.4365 873.683 60.2633 873.806 60.1221C873.933 59.9808 874.12 59.9102 874.366 59.9102C874.612 59.9102 874.799 59.9808 874.927 60.1221C875.054 60.2633 875.118 60.4365 875.118 60.6416C875.118 60.8467 875.054 61.0176 874.927 61.1543C874.799 61.291 874.612 61.3594 874.366 61.3594C874.12 61.3594 873.933 61.291 873.806 61.1543C873.683 61.0176 873.621 60.8467 873.621 60.6416ZM876.711 66.2402C876.711 65.1055 876.98 64.194 877.518 63.5059C878.055 62.8132 878.759 62.4668 879.63 62.4668C880.496 62.4668 881.182 62.763 881.688 63.3555V59.5H882.952V70H881.79L881.729 69.207C881.223 69.8268 880.519 70.1367 879.616 70.1367C878.759 70.1367 878.06 69.7858 877.518 69.084C876.98 68.3822 876.711 67.4661 876.711 66.3359V66.2402ZM877.976 66.3838C877.976 67.2223 878.149 67.8786 878.495 68.3525C878.841 68.8265 879.32 69.0635 879.931 69.0635C880.733 69.0635 881.318 68.7035 881.688 67.9834V64.5859C881.309 63.8887 880.728 63.54 879.944 63.54C879.325 63.54 878.841 63.7793 878.495 64.2578C878.149 64.7363 877.976 65.445 877.976 66.3838ZM887.99 70.1367C886.988 70.1367 886.172 69.8086 885.543 69.1523C884.914 68.4915 884.6 67.6097 884.6 66.5068V66.2744C884.6 65.5407 884.739 64.8867 885.017 64.3125C885.299 63.7337 885.691 63.2826 886.192 62.959C886.698 62.6309 887.245 62.4668 887.833 62.4668C888.795 62.4668 889.542 62.7835 890.075 63.417C890.608 64.0505 890.875 64.9574 890.875 66.1377V66.6641H885.864C885.882 67.3932 886.094 67.9834 886.5 68.4346C886.91 68.8812 887.43 69.1045 888.059 69.1045C888.505 69.1045 888.883 69.0133 889.193 68.8311C889.503 68.6488 889.774 68.4072 890.007 68.1064L890.779 68.708C890.16 69.6605 889.23 70.1367 887.99 70.1367ZM887.833 63.5059C887.323 63.5059 886.894 63.6927 886.548 64.0664C886.201 64.4355 885.987 64.9551 885.905 65.625H889.61V65.5293C889.574 64.8867 889.401 64.39 889.091 64.0391C888.781 63.6836 888.362 63.5059 887.833 63.5059ZM902.619 61.127H899.42V70H898.114V61.127H894.922V60.0469H902.619V61.127ZM906.283 70.1367C905.281 70.1367 904.465 69.8086 903.836 69.1523C903.207 68.4915 902.893 67.6097 902.893 66.5068V66.2744C902.893 65.5407 903.032 64.8867 903.31 64.3125C903.592 63.7337 903.984 63.2826 904.485 62.959C904.991 62.6309 905.538 62.4668 906.126 62.4668C907.088 62.4668 907.835 62.7835 908.368 63.417C908.901 64.0505 909.168 64.9574 909.168 66.1377V66.6641H904.157C904.175 67.3932 904.387 67.9834 904.793 68.4346C905.203 68.8812 905.723 69.1045 906.352 69.1045C906.798 69.1045 907.176 69.0133 907.486 68.8311C907.796 68.6488 908.067 68.4072 908.3 68.1064L909.072 68.708C908.452 69.6605 907.523 70.1367 906.283 70.1367ZM906.126 63.5059C905.616 63.5059 905.187 63.6927 904.841 64.0664C904.494 64.4355 904.28 64.9551 904.198 65.625H907.903V65.5293C907.867 64.8867 907.694 64.39 907.384 64.0391C907.074 63.6836 906.655 63.5059 906.126 63.5059ZM915.204 70C915.131 69.8542 915.072 69.5944 915.026 69.2207C914.438 69.8314 913.737 70.1367 912.921 70.1367C912.192 70.1367 911.592 69.9316 911.123 69.5215C910.658 69.1068 910.426 68.5827 910.426 67.9492C910.426 67.179 910.717 66.582 911.301 66.1582C911.889 65.7298 912.714 65.5156 913.775 65.5156H915.006V64.9346C915.006 64.4925 914.874 64.1416 914.609 63.8818C914.345 63.6175 913.955 63.4854 913.44 63.4854C912.989 63.4854 912.611 63.5993 912.306 63.8271C912 64.055 911.848 64.3307 911.848 64.6543H910.576C910.576 64.2852 910.706 63.9297 910.966 63.5879C911.23 63.2415 911.586 62.9681 912.032 62.7676C912.483 62.5671 912.978 62.4668 913.516 62.4668C914.368 62.4668 915.035 62.681 915.519 63.1094C916.002 63.5332 916.252 64.1188 916.271 64.8662V68.2705C916.271 68.9495 916.357 69.4896 916.53 69.8906V70H915.204ZM913.105 69.0361C913.502 69.0361 913.878 68.9336 914.233 68.7285C914.589 68.5234 914.846 68.2568 915.006 67.9287V66.4111H914.015C912.465 66.4111 911.69 66.8646 911.69 67.7715C911.69 68.168 911.823 68.4779 912.087 68.7012C912.351 68.9245 912.691 69.0361 913.105 69.0361ZM919.442 62.6035L919.477 63.4238C920.019 62.7858 920.75 62.4668 921.671 62.4668C922.705 62.4668 923.41 62.8633 923.783 63.6562C924.029 63.3008 924.348 63.0137 924.74 62.7949C925.137 62.5762 925.604 62.4668 926.142 62.4668C927.764 62.4668 928.589 63.3258 928.616 65.0439V70H927.352V65.1191C927.352 64.5905 927.231 64.1963 926.989 63.9365C926.748 63.6722 926.342 63.54 925.772 63.54C925.303 63.54 924.913 63.6813 924.604 63.9639C924.294 64.2419 924.114 64.6178 924.063 65.0918V70H922.792V65.1533C922.792 64.0778 922.266 63.54 921.213 63.54C920.383 63.54 919.816 63.8932 919.511 64.5996V70H918.246V62.6035H919.442Z" fill="black"/>
<rect x="794" y="93" width="150" height="36" fill="white"/>
<path d="M841.027 111.974H838.689V116H837.37V106.047H840.665C841.786 106.047 842.647 106.302 843.249 106.812C843.855 107.323 844.158 108.066 844.158 109.041C844.158 109.661 843.99 110.201 843.652 110.661C843.32 111.121 842.855 111.465 842.258 111.693L844.596 115.918V116H843.188L841.027 111.974ZM838.689 110.9H840.706C841.358 110.9 841.875 110.732 842.258 110.395C842.645 110.057 842.839 109.606 842.839 109.041C842.839 108.426 842.654 107.954 842.285 107.626C841.921 107.298 841.392 107.132 840.699 107.127H838.689V110.9ZM848.875 116.137C847.872 116.137 847.057 115.809 846.428 115.152C845.799 114.492 845.484 113.61 845.484 112.507V112.274C845.484 111.541 845.623 110.887 845.901 110.312C846.184 109.734 846.576 109.283 847.077 108.959C847.583 108.631 848.13 108.467 848.718 108.467C849.679 108.467 850.427 108.784 850.96 109.417C851.493 110.05 851.76 110.957 851.76 112.138V112.664H846.749C846.767 113.393 846.979 113.983 847.385 114.435C847.795 114.881 848.314 115.104 848.943 115.104C849.39 115.104 849.768 115.013 850.078 114.831C850.388 114.649 850.659 114.407 850.892 114.106L851.664 114.708C851.044 115.66 850.115 116.137 848.875 116.137ZM848.718 109.506C848.207 109.506 847.779 109.693 847.433 110.066C847.086 110.436 846.872 110.955 846.79 111.625H850.495V111.529C850.459 110.887 850.285 110.39 849.976 110.039C849.666 109.684 849.246 109.506 848.718 109.506ZM857.536 114.038C857.536 113.696 857.406 113.432 857.146 113.245C856.891 113.054 856.442 112.89 855.8 112.753C855.162 112.616 854.654 112.452 854.275 112.261C853.902 112.069 853.624 111.841 853.441 111.577C853.264 111.313 853.175 110.998 853.175 110.634C853.175 110.028 853.43 109.515 853.94 109.096C854.455 108.676 855.112 108.467 855.909 108.467C856.748 108.467 857.427 108.683 857.946 109.116C858.47 109.549 858.732 110.103 858.732 110.777H857.461C857.461 110.431 857.313 110.132 857.017 109.882C856.725 109.631 856.356 109.506 855.909 109.506C855.449 109.506 855.089 109.606 854.829 109.807C854.569 110.007 854.439 110.269 854.439 110.593C854.439 110.898 854.56 111.128 854.802 111.283C855.043 111.438 855.479 111.586 856.107 111.728C856.741 111.869 857.254 112.037 857.646 112.233C858.037 112.429 858.327 112.666 858.514 112.944C858.705 113.218 858.801 113.553 858.801 113.949C858.801 114.61 858.536 115.141 858.008 115.542C857.479 115.938 856.793 116.137 855.95 116.137C855.358 116.137 854.834 116.032 854.378 115.822C853.922 115.613 853.564 115.321 853.305 114.947C853.049 114.569 852.922 114.161 852.922 113.724H854.187C854.209 114.147 854.378 114.485 854.692 114.735C855.011 114.981 855.431 115.104 855.95 115.104C856.429 115.104 856.812 115.009 857.099 114.817C857.39 114.621 857.536 114.362 857.536 114.038ZM860.113 112.233C860.113 111.509 860.255 110.857 860.537 110.278C860.824 109.7 861.221 109.253 861.727 108.938C862.237 108.624 862.818 108.467 863.47 108.467C864.477 108.467 865.29 108.815 865.91 109.513C866.535 110.21 866.847 111.137 866.847 112.295V112.384C866.847 113.104 866.708 113.751 866.43 114.325C866.156 114.895 865.762 115.339 865.247 115.658C864.737 115.977 864.149 116.137 863.483 116.137C862.481 116.137 861.667 115.788 861.043 115.091C860.423 114.394 860.113 113.471 860.113 112.322V112.233ZM861.385 112.384C861.385 113.204 861.574 113.863 861.952 114.359C862.335 114.856 862.845 115.104 863.483 115.104C864.126 115.104 864.636 114.854 865.015 114.353C865.393 113.847 865.582 113.14 865.582 112.233C865.582 111.422 865.388 110.766 865.001 110.265C864.618 109.759 864.108 109.506 863.47 109.506C862.845 109.506 862.342 109.754 861.959 110.251C861.576 110.748 861.385 111.459 861.385 112.384ZM872.999 115.269C872.507 115.847 871.785 116.137 870.832 116.137C870.044 116.137 869.442 115.909 869.027 115.453C868.617 114.993 868.41 114.314 868.405 113.416V108.604H869.67V113.382C869.67 114.503 870.126 115.063 871.037 115.063C872.003 115.063 872.646 114.703 872.965 113.983V108.604H874.229V116H873.026L872.999 115.269ZM879.732 109.738C879.541 109.706 879.334 109.69 879.11 109.69C878.281 109.69 877.718 110.044 877.422 110.75V116H876.157V108.604H877.388L877.408 109.458C877.823 108.797 878.411 108.467 879.172 108.467C879.418 108.467 879.605 108.499 879.732 108.562V109.738ZM883.731 115.104C884.183 115.104 884.577 114.968 884.914 114.694C885.251 114.421 885.438 114.079 885.475 113.669H886.671C886.648 114.093 886.502 114.496 886.233 114.879C885.965 115.262 885.604 115.567 885.153 115.795C884.707 116.023 884.233 116.137 883.731 116.137C882.724 116.137 881.922 115.802 881.325 115.132C880.733 114.457 880.437 113.537 880.437 112.37V112.158C880.437 111.438 880.569 110.798 880.833 110.237C881.097 109.677 881.476 109.242 881.968 108.932C882.465 108.622 883.05 108.467 883.725 108.467C884.554 108.467 885.242 108.715 885.789 109.212C886.34 109.709 886.634 110.354 886.671 111.146H885.475C885.438 110.668 885.256 110.276 884.928 109.971C884.604 109.661 884.203 109.506 883.725 109.506C883.082 109.506 882.583 109.738 882.228 110.203C881.877 110.663 881.701 111.331 881.701 112.206V112.445C881.701 113.298 881.877 113.954 882.228 114.414C882.578 114.874 883.08 115.104 883.731 115.104ZM891.162 116.137C890.16 116.137 889.344 115.809 888.715 115.152C888.086 114.492 887.771 113.61 887.771 112.507V112.274C887.771 111.541 887.91 110.887 888.188 110.312C888.471 109.734 888.863 109.283 889.364 108.959C889.87 108.631 890.417 108.467 891.005 108.467C891.966 108.467 892.714 108.784 893.247 109.417C893.78 110.05 894.047 110.957 894.047 112.138V112.664H889.036C889.054 113.393 889.266 113.983 889.672 114.435C890.082 114.881 890.602 115.104 891.23 115.104C891.677 115.104 892.055 115.013 892.365 114.831C892.675 114.649 892.946 114.407 893.179 114.106L893.951 114.708C893.331 115.66 892.402 116.137 891.162 116.137ZM891.005 109.506C890.494 109.506 890.066 109.693 889.72 110.066C889.373 110.436 889.159 110.955 889.077 111.625H892.782V111.529C892.746 110.887 892.573 110.39 892.263 110.039C891.953 109.684 891.534 109.506 891.005 109.506ZM899.823 114.038C899.823 113.696 899.693 113.432 899.434 113.245C899.178 113.054 898.729 112.89 898.087 112.753C897.449 112.616 896.941 112.452 896.562 112.261C896.189 112.069 895.911 111.841 895.729 111.577C895.551 111.313 895.462 110.998 895.462 110.634C895.462 110.028 895.717 109.515 896.228 109.096C896.743 108.676 897.399 108.467 898.196 108.467C899.035 108.467 899.714 108.683 900.233 109.116C900.757 109.549 901.02 110.103 901.02 110.777H899.748C899.748 110.431 899.6 110.132 899.304 109.882C899.012 109.631 898.643 109.506 898.196 109.506C897.736 109.506 897.376 109.606 897.116 109.807C896.856 110.007 896.727 110.269 896.727 110.593C896.727 110.898 896.847 111.128 897.089 111.283C897.33 111.438 897.766 111.586 898.395 111.728C899.028 111.869 899.541 112.037 899.933 112.233C900.325 112.429 900.614 112.666 900.801 112.944C900.992 113.218 901.088 113.553 901.088 113.949C901.088 114.61 900.824 115.141 900.295 115.542C899.766 115.938 899.08 116.137 898.237 116.137C897.645 116.137 897.121 116.032 896.665 115.822C896.209 115.613 895.852 115.321 895.592 114.947C895.337 114.569 895.209 114.161 895.209 113.724H896.474C896.496 114.147 896.665 114.485 896.979 114.735C897.299 114.981 897.718 115.104 898.237 115.104C898.716 115.104 899.099 115.009 899.386 114.817C899.677 114.621 899.823 114.362 899.823 114.038Z" fill="black"/>
</svg>
