<svg width="960" height="160" viewBox="0 0 960 160" fill="none" xmlns="http://www.w3.org/2000/svg">
<rect width="960" height="160" fill="#F7F7F9"/>
<rect x="16" y="62" width="150" height="36" fill="white"/>
<path d="M70.2871 76.127H67.0879V85H65.7822V76.127H62.5898V75.0469H70.2871V76.127ZM70.5469 81.2334C70.5469 80.5088 70.6882 79.8571 70.9707 79.2783C71.2578 78.6995 71.6543 78.2529 72.1602 77.9385C72.6706 77.624 73.2516 77.4668 73.9033 77.4668C74.9105 77.4668 75.724 77.8154 76.3438 78.5127C76.9681 79.21 77.2803 80.1374 77.2803 81.2949V81.3838C77.2803 82.1038 77.1413 82.751 76.8633 83.3252C76.5898 83.8949 76.1956 84.3392 75.6807 84.6582C75.1702 84.9772 74.5824 85.1367 73.917 85.1367C72.9144 85.1367 72.1009 84.7881 71.4766 84.0908C70.8568 83.3936 70.5469 82.4707 70.5469 81.3223V81.2334ZM71.8184 81.3838C71.8184 82.2041 72.0075 82.8626 72.3857 83.3594C72.7686 83.8561 73.279 84.1045 73.917 84.1045C74.5596 84.1045 75.07 83.8538 75.4482 83.3525C75.8265 82.8467 76.0156 82.1403 76.0156 81.2334C76.0156 80.4222 75.8219 79.766 75.4346 79.2646C75.0518 78.7588 74.5413 78.5059 73.9033 78.5059C73.279 78.5059 72.7754 78.7542 72.3926 79.251C72.0098 79.7477 71.8184 80.4587 71.8184 81.3838ZM81.498 81.2881H78.1621V80.2559H81.498V81.2881ZM82.4277 81.2402C82.4277 80.1055 82.6966 79.194 83.2344 78.5059C83.7721 77.8132 84.4762 77.4668 85.3467 77.4668C86.2126 77.4668 86.8984 77.763 87.4043 78.3555V74.5H88.6689V85H87.5068L87.4453 84.207C86.9395 84.8268 86.2354 85.1367 85.333 85.1367C84.4762 85.1367 83.7767 84.7858 83.2344 84.084C82.6966 83.3822 82.4277 82.4661 82.4277 81.3359V81.2402ZM83.6924 81.3838C83.6924 82.2223 83.8656 82.8786 84.2119 83.3525C84.5583 83.8265 85.0368 84.0635 85.6475 84.0635C86.4495 84.0635 87.0352 83.7035 87.4043 82.9834V79.5859C87.026 78.8887 86.445 78.54 85.6611 78.54C85.0413 78.54 84.5583 78.7793 84.2119 79.2578C83.8656 79.7363 83.6924 80.445 83.6924 81.3838ZM90.3027 81.2334C90.3027 80.5088 90.444 79.8571 90.7266 79.2783C91.0137 78.6995 91.4102 78.2529 91.916 77.9385C92.4264 77.624 93.0075 77.4668 93.6592 77.4668C94.6663 77.4668 95.4798 77.8154 96.0996 78.5127C96.724 79.21 97.0361 80.1374 97.0361 81.2949V81.3838C97.0361 82.1038 96.8971 82.751 96.6191 83.3252C96.3457 83.8949 95.9515 84.3392 95.4365 84.6582C94.9261 84.9772 94.3382 85.1367 93.6729 85.1367C92.6702 85.1367 91.8568 84.7881 91.2324 84.0908C90.6126 83.3936 90.3027 82.4707 90.3027 81.3223V81.2334ZM91.5742 81.3838C91.5742 82.2041 91.7633 82.8626 92.1416 83.3594C92.5244 83.8561 93.0348 84.1045 93.6729 84.1045C94.3154 84.1045 94.8258 83.8538 95.2041 83.3525C95.5824 82.8467 95.7715 82.1403 95.7715 81.2334C95.7715 80.4222 95.5778 79.766 95.1904 79.2646C94.8076 78.7588 94.2972 78.5059 93.6592 78.5059C93.0348 78.5059 92.5312 78.7542 92.1484 79.251C91.7656 79.7477 91.5742 80.4587 91.5742 81.3838ZM103.469 85H102.204V74.5H103.469V85ZM106.873 85H105.608V77.6035H106.873V85ZM105.506 75.6416C105.506 75.4365 105.567 75.2633 105.69 75.1221C105.818 74.9808 106.005 74.9102 106.251 74.9102C106.497 74.9102 106.684 74.9808 106.812 75.1221C106.939 75.2633 107.003 75.4365 107.003 75.6416C107.003 75.8467 106.939 76.0176 106.812 76.1543C106.684 76.291 106.497 76.3594 106.251 76.3594C106.005 76.3594 105.818 76.291 105.69 76.1543C105.567 76.0176 105.506 75.8467 105.506 75.6416ZM113.21 83.0381C113.21 82.6963 113.08 82.432 112.82 82.2451C112.565 82.0537 112.116 81.8896 111.474 81.7529C110.836 81.6162 110.327 81.4521 109.949 81.2607C109.576 81.0693 109.298 80.8415 109.115 80.5771C108.938 80.3128 108.849 79.9984 108.849 79.6338C108.849 79.0277 109.104 78.515 109.614 78.0957C110.129 77.6764 110.785 77.4668 111.583 77.4668C112.422 77.4668 113.101 77.6833 113.62 78.1162C114.144 78.5492 114.406 79.1029 114.406 79.7773H113.135C113.135 79.431 112.987 79.1325 112.69 78.8818C112.399 78.6312 112.03 78.5059 111.583 78.5059C111.123 78.5059 110.763 78.6061 110.503 78.8066C110.243 79.0072 110.113 79.2692 110.113 79.5928C110.113 79.8981 110.234 80.1283 110.476 80.2832C110.717 80.4382 111.152 80.5863 111.781 80.7275C112.415 80.8688 112.927 81.0374 113.319 81.2334C113.711 81.4294 114.001 81.6663 114.188 81.9443C114.379 82.2178 114.475 82.5527 114.475 82.9492C114.475 83.61 114.21 84.141 113.682 84.542C113.153 84.9385 112.467 85.1367 111.624 85.1367C111.032 85.1367 110.507 85.0319 110.052 84.8223C109.596 84.6126 109.238 84.321 108.979 83.9473C108.723 83.569 108.596 83.1611 108.596 82.7236H109.86C109.883 83.1475 110.052 83.4847 110.366 83.7354C110.685 83.9814 111.104 84.1045 111.624 84.1045C112.103 84.1045 112.485 84.0088 112.772 83.8174C113.064 83.6214 113.21 83.3617 113.21 83.0381ZM117.838 75.8125V77.6035H119.219V78.5811H117.838V83.168C117.838 83.4642 117.899 83.6875 118.022 83.8379C118.146 83.9837 118.355 84.0566 118.651 84.0566C118.797 84.0566 118.998 84.0293 119.253 83.9746V85C118.92 85.0911 118.597 85.1367 118.282 85.1367C117.717 85.1367 117.291 84.9658 117.004 84.624C116.717 84.2822 116.573 83.7969 116.573 83.168V78.5811H115.227V77.6035H116.573V75.8125H117.838Z" fill="black"/>
<rect x="405" y="85" width="150" height="36" fill="white"/>
<path d="M433.871 104.842C433.748 105.895 433.358 106.708 432.702 107.282C432.05 107.852 431.182 108.137 430.098 108.137C428.922 108.137 427.979 107.715 427.268 106.872C426.561 106.029 426.208 104.901 426.208 103.488V102.531C426.208 101.606 426.372 100.793 426.7 100.091C427.033 99.389 427.502 98.8512 428.108 98.4775C428.715 98.0993 429.416 97.9102 430.214 97.9102C431.271 97.9102 432.119 98.2064 432.757 98.7988C433.395 99.3867 433.766 100.202 433.871 101.246H432.552C432.438 100.453 432.189 99.8789 431.807 99.5234C431.428 99.168 430.897 98.9902 430.214 98.9902C429.375 98.9902 428.717 99.3001 428.238 99.9199C427.764 100.54 427.527 101.422 427.527 102.565V103.529C427.527 104.609 427.753 105.468 428.204 106.106C428.655 106.744 429.286 107.063 430.098 107.063C430.827 107.063 431.385 106.899 431.772 106.571C432.164 106.239 432.424 105.662 432.552 104.842H433.871ZM436.845 108H435.58V97.5H436.845V108ZM440.249 108H438.984V100.604H440.249V108ZM438.882 98.6416C438.882 98.4365 438.943 98.2633 439.066 98.1221C439.194 97.9808 439.381 97.9102 439.627 97.9102C439.873 97.9102 440.06 97.9808 440.188 98.1221C440.315 98.2633 440.379 98.4365 440.379 98.6416C440.379 98.8467 440.315 99.0176 440.188 99.1543C440.06 99.291 439.873 99.3594 439.627 99.3594C439.381 99.3594 439.194 99.291 439.066 99.1543C438.943 99.0176 438.882 98.8467 438.882 98.6416ZM445.349 108.137C444.346 108.137 443.53 107.809 442.901 107.152C442.272 106.492 441.958 105.61 441.958 104.507V104.274C441.958 103.541 442.097 102.887 442.375 102.312C442.658 101.734 443.049 101.283 443.551 100.959C444.057 100.631 444.604 100.467 445.191 100.467C446.153 100.467 446.9 100.784 447.434 101.417C447.967 102.05 448.233 102.957 448.233 104.138V104.664H443.223C443.241 105.393 443.453 105.983 443.858 106.435C444.269 106.881 444.788 107.104 445.417 107.104C445.864 107.104 446.242 107.013 446.552 106.831C446.862 106.649 447.133 106.407 447.365 106.106L448.138 106.708C447.518 107.66 446.588 108.137 445.349 108.137ZM445.191 101.506C444.681 101.506 444.253 101.693 443.906 102.066C443.56 102.436 443.346 102.955 443.264 103.625H446.969V103.529C446.932 102.887 446.759 102.39 446.449 102.039C446.139 101.684 445.72 101.506 445.191 101.506ZM450.899 100.604L450.94 101.533C451.506 100.822 452.244 100.467 453.155 100.467C454.718 100.467 455.507 101.349 455.521 103.112V108H454.256V103.105C454.251 102.572 454.128 102.178 453.887 101.923C453.65 101.668 453.278 101.54 452.772 101.54C452.362 101.54 452.002 101.649 451.692 101.868C451.382 102.087 451.141 102.374 450.968 102.729V108H449.703V100.604H450.899ZM459.144 98.8125V100.604H460.524V101.581H459.144V106.168C459.144 106.464 459.205 106.688 459.328 106.838C459.451 106.984 459.661 107.057 459.957 107.057C460.103 107.057 460.303 107.029 460.559 106.975V108C460.226 108.091 459.902 108.137 459.588 108.137C459.023 108.137 458.597 107.966 458.31 107.624C458.022 107.282 457.879 106.797 457.879 106.168V101.581H456.532V100.604H457.879V98.8125H459.144ZM471.729 104.384C471.729 105.509 471.471 106.416 470.956 107.104C470.441 107.793 469.744 108.137 468.864 108.137C467.966 108.137 467.26 107.852 466.745 107.282V110.844H465.48V100.604H466.636L466.697 101.424C467.212 100.786 467.928 100.467 468.844 100.467C469.732 100.467 470.434 100.802 470.949 101.472C471.469 102.142 471.729 103.074 471.729 104.268V104.384ZM470.464 104.24C470.464 103.406 470.286 102.748 469.931 102.265C469.575 101.782 469.088 101.54 468.468 101.54C467.702 101.54 467.128 101.88 466.745 102.559V106.093C467.123 106.767 467.702 107.104 468.481 107.104C469.088 107.104 469.568 106.865 469.924 106.387C470.284 105.904 470.464 105.188 470.464 104.24ZM476.917 101.738C476.726 101.706 476.518 101.69 476.295 101.69C475.465 101.69 474.903 102.044 474.606 102.75V108H473.342V100.604H474.572L474.593 101.458C475.007 100.797 475.595 100.467 476.356 100.467C476.603 100.467 476.789 100.499 476.917 100.562V101.738ZM477.614 104.233C477.614 103.509 477.756 102.857 478.038 102.278C478.325 101.7 478.722 101.253 479.228 100.938C479.738 100.624 480.319 100.467 480.971 100.467C481.978 100.467 482.791 100.815 483.411 101.513C484.035 102.21 484.348 103.137 484.348 104.295V104.384C484.348 105.104 484.209 105.751 483.931 106.325C483.657 106.895 483.263 107.339 482.748 107.658C482.238 107.977 481.65 108.137 480.984 108.137C479.982 108.137 479.168 107.788 478.544 107.091C477.924 106.394 477.614 105.471 477.614 104.322V104.233ZM478.886 104.384C478.886 105.204 479.075 105.863 479.453 106.359C479.836 106.856 480.346 107.104 480.984 107.104C481.627 107.104 482.137 106.854 482.516 106.353C482.894 105.847 483.083 105.14 483.083 104.233C483.083 103.422 482.889 102.766 482.502 102.265C482.119 101.759 481.609 101.506 480.971 101.506C480.346 101.506 479.843 101.754 479.46 102.251C479.077 102.748 478.886 103.459 478.886 104.384ZM488.9 107.104C489.352 107.104 489.746 106.968 490.083 106.694C490.42 106.421 490.607 106.079 490.644 105.669H491.84C491.817 106.093 491.671 106.496 491.402 106.879C491.133 107.262 490.773 107.567 490.322 107.795C489.876 108.023 489.402 108.137 488.9 108.137C487.893 108.137 487.091 107.802 486.494 107.132C485.902 106.457 485.605 105.537 485.605 104.37V104.158C485.605 103.438 485.738 102.798 486.002 102.237C486.266 101.677 486.645 101.242 487.137 100.932C487.633 100.622 488.219 100.467 488.894 100.467C489.723 100.467 490.411 100.715 490.958 101.212C491.509 101.709 491.803 102.354 491.84 103.146H490.644C490.607 102.668 490.425 102.276 490.097 101.971C489.773 101.661 489.372 101.506 488.894 101.506C488.251 101.506 487.752 101.738 487.396 102.203C487.046 102.663 486.87 103.331 486.87 104.206V104.445C486.87 105.298 487.046 105.954 487.396 106.414C487.747 106.874 488.249 107.104 488.9 107.104ZM496.331 108.137C495.328 108.137 494.513 107.809 493.884 107.152C493.255 106.492 492.94 105.61 492.94 104.507V104.274C492.94 103.541 493.079 102.887 493.357 102.312C493.64 101.734 494.032 101.283 494.533 100.959C495.039 100.631 495.586 100.467 496.174 100.467C497.135 100.467 497.883 100.784 498.416 101.417C498.949 102.05 499.216 102.957 499.216 104.138V104.664H494.205C494.223 105.393 494.435 105.983 494.841 106.435C495.251 106.881 495.771 107.104 496.399 107.104C496.846 107.104 497.224 107.013 497.534 106.831C497.844 106.649 498.115 106.407 498.348 106.106L499.12 106.708C498.5 107.66 497.571 108.137 496.331 108.137ZM496.174 101.506C495.663 101.506 495.235 101.693 494.889 102.066C494.542 102.436 494.328 102.955 494.246 103.625H497.951V103.529C497.915 102.887 497.742 102.39 497.432 102.039C497.122 101.684 496.702 101.506 496.174 101.506ZM500.378 104.24C500.378 103.105 500.647 102.194 501.185 101.506C501.722 100.813 502.426 100.467 503.297 100.467C504.163 100.467 504.849 100.763 505.354 101.355V97.5H506.619V108H505.457L505.396 107.207C504.89 107.827 504.186 108.137 503.283 108.137C502.426 108.137 501.727 107.786 501.185 107.084C500.647 106.382 500.378 105.466 500.378 104.336V104.24ZM501.643 104.384C501.643 105.222 501.816 105.879 502.162 106.353C502.508 106.826 502.987 107.063 503.598 107.063C504.4 107.063 504.985 106.703 505.354 105.983V102.586C504.976 101.889 504.395 101.54 503.611 101.54C502.992 101.54 502.508 101.779 502.162 102.258C501.816 102.736 501.643 103.445 501.643 104.384ZM513.154 107.269C512.662 107.847 511.94 108.137 510.987 108.137C510.199 108.137 509.597 107.909 509.183 107.453C508.772 106.993 508.565 106.314 508.561 105.416V100.604H509.825V105.382C509.825 106.503 510.281 107.063 511.192 107.063C512.159 107.063 512.801 106.703 513.12 105.983V100.604H514.385V108H513.182L513.154 107.269ZM519.888 101.738C519.696 101.706 519.489 101.69 519.266 101.69C518.436 101.69 517.873 102.044 517.577 102.75V108H516.312V100.604H517.543L517.563 101.458C517.978 100.797 518.566 100.467 519.327 100.467C519.573 100.467 519.76 100.499 519.888 100.562V101.738ZM523.989 108.137C522.987 108.137 522.171 107.809 521.542 107.152C520.913 106.492 520.599 105.61 520.599 104.507V104.274C520.599 103.541 520.738 102.887 521.016 102.312C521.298 101.734 521.69 101.283 522.191 100.959C522.697 100.631 523.244 100.467 523.832 100.467C524.794 100.467 525.541 100.784 526.074 101.417C526.607 102.05 526.874 102.957 526.874 104.138V104.664H521.863C521.882 105.393 522.093 105.983 522.499 106.435C522.909 106.881 523.429 107.104 524.058 107.104C524.504 107.104 524.882 107.013 525.192 106.831C525.502 106.649 525.773 106.407 526.006 106.106L526.778 106.708C526.159 107.66 525.229 108.137 523.989 108.137ZM523.832 101.506C523.322 101.506 522.893 101.693 522.547 102.066C522.201 102.436 521.986 102.955 521.904 103.625H525.609V103.529C525.573 102.887 525.4 102.39 525.09 102.039C524.78 101.684 524.361 101.506 523.832 101.506ZM532.65 106.038C532.65 105.696 532.521 105.432 532.261 105.245C532.006 105.054 531.557 104.89 530.914 104.753C530.276 104.616 529.768 104.452 529.39 104.261C529.016 104.069 528.738 103.841 528.556 103.577C528.378 103.313 528.289 102.998 528.289 102.634C528.289 102.028 528.544 101.515 529.055 101.096C529.57 100.676 530.226 100.467 531.023 100.467C531.862 100.467 532.541 100.683 533.061 101.116C533.585 101.549 533.847 102.103 533.847 102.777H532.575C532.575 102.431 532.427 102.132 532.131 101.882C531.839 101.631 531.47 101.506 531.023 101.506C530.563 101.506 530.203 101.606 529.943 101.807C529.684 102.007 529.554 102.269 529.554 102.593C529.554 102.898 529.674 103.128 529.916 103.283C530.158 103.438 530.593 103.586 531.222 103.728C531.855 103.869 532.368 104.037 532.76 104.233C533.152 104.429 533.441 104.666 533.628 104.944C533.819 105.218 533.915 105.553 533.915 105.949C533.915 106.61 533.651 107.141 533.122 107.542C532.593 107.938 531.908 108.137 531.064 108.137C530.472 108.137 529.948 108.032 529.492 107.822C529.036 107.613 528.679 107.321 528.419 106.947C528.164 106.569 528.036 106.161 528.036 105.724H529.301C529.324 106.147 529.492 106.485 529.807 106.735C530.126 106.981 530.545 107.104 531.064 107.104C531.543 107.104 531.926 107.009 532.213 106.817C532.505 106.621 532.65 106.362 532.65 106.038Z" fill="#FF0000"/>
<rect x="405" y="39" width="150" height="36" fill="white"/>
<path d="M458.351 57.5635C457.225 57.2399 456.405 56.8434 455.89 56.374C455.379 55.9001 455.124 55.3167 455.124 54.624C455.124 53.8402 455.436 53.193 456.061 52.6826C456.689 52.1676 457.505 51.9102 458.508 51.9102C459.191 51.9102 459.8 52.0423 460.333 52.3066C460.871 52.571 461.285 52.9355 461.577 53.4004C461.873 53.8652 462.021 54.3734 462.021 54.9248H460.702C460.702 54.3232 460.511 53.8516 460.128 53.5098C459.745 53.1634 459.205 52.9902 458.508 52.9902C457.861 52.9902 457.355 53.1338 456.99 53.4209C456.63 53.7035 456.45 54.0977 456.45 54.6035C456.45 55.0091 456.621 55.3532 456.963 55.6357C457.309 55.9137 457.895 56.1689 458.72 56.4014C459.549 56.6338 460.196 56.8913 460.661 57.1738C461.131 57.4518 461.477 57.7777 461.7 58.1514C461.928 58.5251 462.042 58.9648 462.042 59.4707C462.042 60.2773 461.728 60.9245 461.099 61.4121C460.47 61.8952 459.629 62.1367 458.576 62.1367C457.893 62.1367 457.255 62.0068 456.662 61.7471C456.07 61.4827 455.612 61.1227 455.288 60.667C454.969 60.2113 454.81 59.694 454.81 59.1152H456.129C456.129 59.7168 456.35 60.193 456.792 60.5439C457.239 60.8903 457.833 61.0635 458.576 61.0635C459.269 61.0635 459.8 60.9222 460.169 60.6396C460.538 60.3571 460.723 59.972 460.723 59.4844C460.723 58.9967 460.552 58.6208 460.21 58.3564C459.868 58.0876 459.248 57.8232 458.351 57.5635ZM465.248 52.8125V54.6035H466.629V55.5811H465.248V60.168C465.248 60.4642 465.31 60.6875 465.433 60.8379C465.556 60.9837 465.765 61.0566 466.062 61.0566C466.207 61.0566 466.408 61.0293 466.663 60.9746V62C466.33 62.0911 466.007 62.1367 465.692 62.1367C465.127 62.1367 464.701 61.9658 464.414 61.624C464.127 61.2822 463.983 60.7969 463.983 60.168V55.5811H462.637V54.6035H463.983V52.8125H465.248ZM471.688 55.7383C471.496 55.7064 471.289 55.6904 471.065 55.6904C470.236 55.6904 469.673 56.0436 469.377 56.75V62H468.112V54.6035H469.343L469.363 55.458C469.778 54.7972 470.366 54.4668 471.127 54.4668C471.373 54.4668 471.56 54.4987 471.688 54.5625V55.7383ZM477.149 62C477.076 61.8542 477.017 61.5944 476.972 61.2207C476.384 61.8314 475.682 62.1367 474.866 62.1367C474.137 62.1367 473.538 61.9316 473.068 61.5215C472.604 61.1068 472.371 60.5827 472.371 59.9492C472.371 59.179 472.663 58.582 473.246 58.1582C473.834 57.7298 474.659 57.5156 475.721 57.5156H476.951V56.9346C476.951 56.4925 476.819 56.1416 476.555 55.8818C476.29 55.6175 475.901 55.4854 475.386 55.4854C474.935 55.4854 474.556 55.5993 474.251 55.8271C473.946 56.055 473.793 56.3307 473.793 56.6543H472.521C472.521 56.2852 472.651 55.9297 472.911 55.5879C473.175 55.2415 473.531 54.9681 473.978 54.7676C474.429 54.5671 474.923 54.4668 475.461 54.4668C476.313 54.4668 476.981 54.681 477.464 55.1094C477.947 55.5332 478.198 56.1188 478.216 56.8662V60.2705C478.216 60.9495 478.302 61.4896 478.476 61.8906V62H477.149ZM475.051 61.0361C475.447 61.0361 475.823 60.9336 476.179 60.7285C476.534 60.5234 476.792 60.2568 476.951 59.9287V58.4111H475.96C474.41 58.4111 473.636 58.8646 473.636 59.7715C473.636 60.168 473.768 60.4779 474.032 60.7012C474.297 60.9245 474.636 61.0361 475.051 61.0361ZM481.914 52.8125V54.6035H483.295V55.5811H481.914V60.168C481.914 60.4642 481.976 60.6875 482.099 60.8379C482.222 60.9837 482.431 61.0566 482.728 61.0566C482.873 61.0566 483.074 61.0293 483.329 60.9746V62C482.996 62.0911 482.673 62.1367 482.358 62.1367C481.793 62.1367 481.367 61.9658 481.08 61.624C480.793 61.2822 480.649 60.7969 480.649 60.168V55.5811H479.303V54.6035H480.649V52.8125H481.914ZM487.848 62.1367C486.845 62.1367 486.029 61.8086 485.4 61.1523C484.771 60.4915 484.457 59.6097 484.457 58.5068V58.2744C484.457 57.5407 484.596 56.8867 484.874 56.3125C485.157 55.7337 485.549 55.2826 486.05 54.959C486.556 54.6309 487.103 54.4668 487.69 54.4668C488.652 54.4668 489.399 54.7835 489.933 55.417C490.466 56.0505 490.732 56.9574 490.732 58.1377V58.6641H485.722C485.74 59.3932 485.952 59.9834 486.357 60.4346C486.768 60.8812 487.287 61.1045 487.916 61.1045C488.363 61.1045 488.741 61.0133 489.051 60.8311C489.361 60.6488 489.632 60.4072 489.864 60.1064L490.637 60.708C490.017 61.6605 489.087 62.1367 487.848 62.1367ZM487.69 55.5059C487.18 55.5059 486.752 55.6927 486.405 56.0664C486.059 56.4355 485.845 56.9551 485.763 57.625H489.468V57.5293C489.431 56.8867 489.258 56.39 488.948 56.0391C488.638 55.6836 488.219 55.5059 487.69 55.5059ZM491.901 58.2402C491.901 57.0872 492.168 56.1712 492.701 55.4922C493.234 54.8086 493.941 54.4668 494.82 54.4668C495.723 54.4668 496.427 54.7858 496.933 55.4238L496.994 54.6035H498.149V61.8223C498.149 62.7793 497.865 63.5335 497.295 64.085C496.73 64.6364 495.969 64.9121 495.012 64.9121C494.479 64.9121 493.957 64.7982 493.446 64.5703C492.936 64.3424 492.546 64.0303 492.277 63.6338L492.934 62.875C493.476 63.5449 494.139 63.8799 494.923 63.8799C495.538 63.8799 496.017 63.7067 496.358 63.3604C496.705 63.014 496.878 62.5264 496.878 61.8975V61.2617C496.372 61.8451 495.682 62.1367 494.807 62.1367C493.941 62.1367 493.239 61.7881 492.701 61.0908C492.168 60.3936 491.901 59.4434 491.901 58.2402ZM493.173 58.3838C493.173 59.2178 493.344 59.874 493.686 60.3525C494.027 60.8265 494.506 61.0635 495.121 61.0635C495.919 61.0635 496.504 60.7012 496.878 59.9766V56.5996C496.491 55.8932 495.91 55.54 495.135 55.54C494.52 55.54 494.039 55.7793 493.692 56.2578C493.346 56.7363 493.173 57.445 493.173 58.3838ZM502.483 60.1475L504.206 54.6035H505.56L502.586 63.1416C502.126 64.3721 501.394 64.9873 500.392 64.9873L500.152 64.9668L499.681 64.8779V63.8525L500.022 63.8799C500.451 63.8799 500.784 63.7933 501.021 63.6201C501.262 63.4469 501.46 63.1302 501.615 62.6699L501.896 61.918L499.257 54.6035H500.638L502.483 60.1475Z" fill="black"/>
<rect x="794" y="16" width="150" height="36" fill="white"/>
<path d="M830.623 34.6045H826.446V39H825.134V29.0469H831.3V30.127H826.446V33.5312H830.623V34.6045ZM832.188 35.2334C832.188 34.5088 832.33 33.8571 832.612 33.2783C832.899 32.6995 833.296 32.2529 833.802 31.9385C834.312 31.624 834.893 31.4668 835.545 31.4668C836.552 31.4668 837.366 31.8154 837.985 32.5127C838.61 33.21 838.922 34.1374 838.922 35.2949V35.3838C838.922 36.1038 838.783 36.751 838.505 37.3252C838.231 37.8949 837.837 38.3392 837.322 38.6582C836.812 38.9772 836.224 39.1367 835.559 39.1367C834.556 39.1367 833.743 38.7881 833.118 38.0908C832.498 37.3936 832.188 36.4707 832.188 35.3223V35.2334ZM833.46 35.3838C833.46 36.2041 833.649 36.8626 834.027 37.3594C834.41 37.8561 834.921 38.1045 835.559 38.1045C836.201 38.1045 836.712 37.8538 837.09 37.3525C837.468 36.8467 837.657 36.1403 837.657 35.2334C837.657 34.4222 837.464 33.766 837.076 33.2646C836.693 32.7588 836.183 32.5059 835.545 32.5059C834.921 32.5059 834.417 32.7542 834.034 33.251C833.651 33.7477 833.46 34.4587 833.46 35.3838ZM844.083 32.7383C843.892 32.7064 843.684 32.6904 843.461 32.6904C842.632 32.6904 842.069 33.0436 841.772 33.75V39H840.508V31.6035H841.738L841.759 32.458C842.174 31.7972 842.761 31.4668 843.522 31.4668C843.769 31.4668 843.955 31.4987 844.083 31.5625V32.7383ZM846.441 31.6035L846.476 32.4238C847.018 31.7858 847.749 31.4668 848.67 31.4668C849.704 31.4668 850.409 31.8633 850.782 32.6562C851.028 32.3008 851.347 32.0137 851.739 31.7949C852.136 31.5762 852.603 31.4668 853.141 31.4668C854.763 31.4668 855.588 32.3258 855.615 34.0439V39H854.351V34.1191C854.351 33.5905 854.23 33.1963 853.988 32.9365C853.747 32.6722 853.341 32.54 852.771 32.54C852.302 32.54 851.912 32.6813 851.603 32.9639C851.293 33.2419 851.113 33.6178 851.062 34.0918V39H849.791V34.1533C849.791 33.0778 849.265 32.54 848.212 32.54C847.382 32.54 846.815 32.8932 846.51 33.5996V39H845.245V31.6035H846.441ZM861.836 37.0381C861.836 36.6963 861.706 36.432 861.446 36.2451C861.191 36.0537 860.742 35.8896 860.1 35.7529C859.462 35.6162 858.953 35.4521 858.575 35.2607C858.201 35.0693 857.924 34.8415 857.741 34.5771C857.563 34.3128 857.475 33.9984 857.475 33.6338C857.475 33.0277 857.73 32.515 858.24 32.0957C858.755 31.6764 859.411 31.4668 860.209 31.4668C861.048 31.4668 861.727 31.6833 862.246 32.1162C862.77 32.5492 863.032 33.1029 863.032 33.7773H861.761C861.761 33.431 861.613 33.1325 861.316 32.8818C861.025 32.6312 860.656 32.5059 860.209 32.5059C859.749 32.5059 859.389 32.6061 859.129 32.8066C858.869 33.0072 858.739 33.2692 858.739 33.5928C858.739 33.8981 858.86 34.1283 859.102 34.2832C859.343 34.4382 859.778 34.5863 860.407 34.7275C861.041 34.8688 861.553 35.0374 861.945 35.2334C862.337 35.4294 862.627 35.6663 862.813 35.9443C863.005 36.2178 863.101 36.5527 863.101 36.9492C863.101 37.61 862.836 38.141 862.308 38.542C861.779 38.9385 861.093 39.1367 860.25 39.1367C859.658 39.1367 859.133 39.0319 858.678 38.8223C858.222 38.6126 857.864 38.321 857.604 37.9473C857.349 37.569 857.222 37.1611 857.222 36.7236H858.486C858.509 37.1475 858.678 37.4847 858.992 37.7354C859.311 37.9814 859.73 38.1045 860.25 38.1045C860.729 38.1045 861.111 38.0088 861.398 37.8174C861.69 37.6214 861.836 37.3617 861.836 37.0381ZM871.352 34.5635C870.226 34.2399 869.406 33.8434 868.891 33.374C868.38 32.9001 868.125 32.3167 868.125 31.624C868.125 30.8402 868.437 30.193 869.062 29.6826C869.69 29.1676 870.506 28.9102 871.509 28.9102C872.192 28.9102 872.801 29.0423 873.334 29.3066C873.872 29.571 874.286 29.9355 874.578 30.4004C874.874 30.8652 875.022 31.3734 875.022 31.9248H873.703C873.703 31.3232 873.512 30.8516 873.129 30.5098C872.746 30.1634 872.206 29.9902 871.509 29.9902C870.862 29.9902 870.356 30.1338 869.991 30.4209C869.631 30.7035 869.451 31.0977 869.451 31.6035C869.451 32.0091 869.622 32.3532 869.964 32.6357C870.31 32.9137 870.896 33.1689 871.721 33.4014C872.55 33.6338 873.197 33.8913 873.662 34.1738C874.132 34.4518 874.478 34.7777 874.701 35.1514C874.929 35.5251 875.043 35.9648 875.043 36.4707C875.043 37.2773 874.729 37.9245 874.1 38.4121C873.471 38.8952 872.63 39.1367 871.577 39.1367C870.894 39.1367 870.256 39.0068 869.663 38.7471C869.071 38.4827 868.613 38.1227 868.289 37.667C867.97 37.2113 867.811 36.694 867.811 36.1152H869.13C869.13 36.7168 869.351 37.193 869.793 37.5439C870.24 37.8903 870.834 38.0635 871.577 38.0635C872.27 38.0635 872.801 37.9222 873.17 37.6396C873.539 37.3571 873.724 36.972 873.724 36.4844C873.724 35.9967 873.553 35.6208 873.211 35.3564C872.869 35.0876 872.249 34.8232 871.352 34.5635ZM879.603 39.1367C878.6 39.1367 877.784 38.8086 877.155 38.1523C876.526 37.4915 876.212 36.6097 876.212 35.5068V35.2744C876.212 34.5407 876.351 33.8867 876.629 33.3125C876.911 32.7337 877.303 32.2826 877.805 31.959C878.311 31.6309 878.857 31.4668 879.445 31.4668C880.407 31.4668 881.154 31.7835 881.688 32.417C882.221 33.0505 882.487 33.9574 882.487 35.1377V35.6641H877.477C877.495 36.3932 877.707 36.9834 878.112 37.4346C878.522 37.8812 879.042 38.1045 879.671 38.1045C880.118 38.1045 880.496 38.0133 880.806 37.8311C881.116 37.6488 881.387 37.4072 881.619 37.1064L882.392 37.708C881.772 38.6605 880.842 39.1367 879.603 39.1367ZM879.445 32.5059C878.935 32.5059 878.507 32.6927 878.16 33.0664C877.814 33.4355 877.6 33.9551 877.518 34.625H881.223V34.5293C881.186 33.8867 881.013 33.39 880.703 33.0391C880.393 32.6836 879.974 32.5059 879.445 32.5059ZM886.924 38.1045C887.375 38.1045 887.769 37.9678 888.106 37.6943C888.444 37.4209 888.631 37.0791 888.667 36.6689H889.863C889.84 37.0928 889.695 37.4961 889.426 37.8789C889.157 38.2617 888.797 38.5671 888.346 38.7949C887.899 39.0228 887.425 39.1367 886.924 39.1367C885.917 39.1367 885.115 38.8018 884.518 38.1318C883.925 37.4574 883.629 36.5368 883.629 35.3701V35.1582C883.629 34.4382 883.761 33.7979 884.025 33.2373C884.29 32.6768 884.668 32.2415 885.16 31.9316C885.657 31.6217 886.243 31.4668 886.917 31.4668C887.746 31.4668 888.435 31.7152 888.981 32.2119C889.533 32.7087 889.827 33.3535 889.863 34.1465H888.667C888.631 33.668 888.448 33.276 888.12 32.9707C887.797 32.6608 887.396 32.5059 886.917 32.5059C886.274 32.5059 885.775 32.7383 885.42 33.2031C885.069 33.6634 884.894 34.3311 884.894 35.2061V35.4453C884.894 36.2975 885.069 36.9538 885.42 37.4141C885.771 37.8743 886.272 38.1045 886.924 38.1045ZM893.001 29.8125V31.6035H894.382V32.5811H893.001V37.168C893.001 37.4642 893.062 37.6875 893.186 37.8379C893.309 37.9837 893.518 38.0566 893.814 38.0566C893.96 38.0566 894.161 38.0293 894.416 37.9746V39C894.083 39.0911 893.76 39.1367 893.445 39.1367C892.88 39.1367 892.454 38.9658 892.167 38.624C891.88 38.2822 891.736 37.7969 891.736 37.168V32.5811H890.39V31.6035H891.736V29.8125H893.001ZM897.239 39H895.975V31.6035H897.239V39ZM895.872 29.6416C895.872 29.4365 895.934 29.2633 896.057 29.1221C896.184 28.9808 896.371 28.9102 896.617 28.9102C896.863 28.9102 897.05 28.9808 897.178 29.1221C897.305 29.2633 897.369 29.4365 897.369 29.6416C897.369 29.8467 897.305 30.0176 897.178 30.1543C897.05 30.291 896.863 30.3594 896.617 30.3594C896.371 30.3594 896.184 30.291 896.057 30.1543C895.934 30.0176 895.872 29.8467 895.872 29.6416ZM898.935 35.2334C898.935 34.5088 899.076 33.8571 899.358 33.2783C899.646 32.6995 900.042 32.2529 900.548 31.9385C901.058 31.624 901.639 31.4668 902.291 31.4668C903.298 31.4668 904.112 31.8154 904.731 32.5127C905.356 33.21 905.668 34.1374 905.668 35.2949V35.3838C905.668 36.1038 905.529 36.751 905.251 37.3252C904.978 37.8949 904.583 38.3392 904.068 38.6582C903.558 38.9772 902.97 39.1367 902.305 39.1367C901.302 39.1367 900.489 38.7881 899.864 38.0908C899.244 37.3936 898.935 36.4707 898.935 35.3223V35.2334ZM900.206 35.3838C900.206 36.2041 900.395 36.8626 900.773 37.3594C901.156 37.8561 901.667 38.1045 902.305 38.1045C902.947 38.1045 903.458 37.8538 903.836 37.3525C904.214 36.8467 904.403 36.1403 904.403 35.2334C904.403 34.4222 904.21 33.766 903.822 33.2646C903.439 32.7588 902.929 32.5059 902.291 32.5059C901.667 32.5059 901.163 32.7542 900.78 33.251C900.397 33.7477 900.206 34.4587 900.206 35.3838ZM908.45 31.6035L908.491 32.5332C909.056 31.8223 909.795 31.4668 910.706 31.4668C912.269 31.4668 913.058 32.3486 913.071 34.1123V39H911.807V34.1055C911.802 33.5723 911.679 33.1781 911.438 32.9229C911.201 32.6676 910.829 32.54 910.323 32.54C909.913 32.54 909.553 32.6494 909.243 32.8682C908.933 33.0869 908.692 33.374 908.519 33.7295V39H907.254V31.6035H908.45Z" fill="black"/>
<rect x="794" y="108" width="150" height="36" fill="white"/>
<path d="M841.027 126.974H838.689V131H837.37V121.047H840.665C841.786 121.047 842.647 121.302 843.249 121.812C843.855 122.323 844.158 123.066 844.158 124.041C844.158 124.661 843.99 125.201 843.652 125.661C843.32 126.121 842.855 126.465 842.258 126.693L844.596 130.918V131H843.188L841.027 126.974ZM838.689 125.9H840.706C841.358 125.9 841.875 125.732 842.258 125.395C842.645 125.057 842.839 124.606 842.839 124.041C842.839 123.426 842.654 122.954 842.285 122.626C841.921 122.298 841.392 122.132 840.699 122.127H838.689V125.9ZM848.875 131.137C847.872 131.137 847.057 130.809 846.428 130.152C845.799 129.492 845.484 128.61 845.484 127.507V127.274C845.484 126.541 845.623 125.887 845.901 125.312C846.184 124.734 846.576 124.283 847.077 123.959C847.583 123.631 848.13 123.467 848.718 123.467C849.679 123.467 850.427 123.784 850.96 124.417C851.493 125.05 851.76 125.957 851.76 127.138V127.664H846.749C846.767 128.393 846.979 128.983 847.385 129.435C847.795 129.881 848.314 130.104 848.943 130.104C849.39 130.104 849.768 130.013 850.078 129.831C850.388 129.649 850.659 129.407 850.892 129.106L851.664 129.708C851.044 130.66 850.115 131.137 848.875 131.137ZM848.718 124.506C848.207 124.506 847.779 124.693 847.433 125.066C847.086 125.436 846.872 125.955 846.79 126.625H850.495V126.529C850.459 125.887 850.285 125.39 849.976 125.039C849.666 124.684 849.246 124.506 848.718 124.506ZM857.536 129.038C857.536 128.696 857.406 128.432 857.146 128.245C856.891 128.054 856.442 127.89 855.8 127.753C855.162 127.616 854.654 127.452 854.275 127.261C853.902 127.069 853.624 126.841 853.441 126.577C853.264 126.313 853.175 125.998 853.175 125.634C853.175 125.028 853.43 124.515 853.94 124.096C854.455 123.676 855.112 123.467 855.909 123.467C856.748 123.467 857.427 123.683 857.946 124.116C858.47 124.549 858.732 125.103 858.732 125.777H857.461C857.461 125.431 857.313 125.132 857.017 124.882C856.725 124.631 856.356 124.506 855.909 124.506C855.449 124.506 855.089 124.606 854.829 124.807C854.569 125.007 854.439 125.269 854.439 125.593C854.439 125.898 854.56 126.128 854.802 126.283C855.043 126.438 855.479 126.586 856.107 126.728C856.741 126.869 857.254 127.037 857.646 127.233C858.037 127.429 858.327 127.666 858.514 127.944C858.705 128.218 858.801 128.553 858.801 128.949C858.801 129.61 858.536 130.141 858.008 130.542C857.479 130.938 856.793 131.137 855.95 131.137C855.358 131.137 854.834 131.032 854.378 130.822C853.922 130.613 853.564 130.321 853.305 129.947C853.049 129.569 852.922 129.161 852.922 128.724H854.187C854.209 129.147 854.378 129.485 854.692 129.735C855.011 129.981 855.431 130.104 855.95 130.104C856.429 130.104 856.812 130.009 857.099 129.817C857.39 129.621 857.536 129.362 857.536 129.038ZM860.113 127.233C860.113 126.509 860.255 125.857 860.537 125.278C860.824 124.7 861.221 124.253 861.727 123.938C862.237 123.624 862.818 123.467 863.47 123.467C864.477 123.467 865.29 123.815 865.91 124.513C866.535 125.21 866.847 126.137 866.847 127.295V127.384C866.847 128.104 866.708 128.751 866.43 129.325C866.156 129.895 865.762 130.339 865.247 130.658C864.737 130.977 864.149 131.137 863.483 131.137C862.481 131.137 861.667 130.788 861.043 130.091C860.423 129.394 860.113 128.471 860.113 127.322V127.233ZM861.385 127.384C861.385 128.204 861.574 128.863 861.952 129.359C862.335 129.856 862.845 130.104 863.483 130.104C864.126 130.104 864.636 129.854 865.015 129.353C865.393 128.847 865.582 128.14 865.582 127.233C865.582 126.422 865.388 125.766 865.001 125.265C864.618 124.759 864.108 124.506 863.47 124.506C862.845 124.506 862.342 124.754 861.959 125.251C861.576 125.748 861.385 126.459 861.385 127.384ZM872.999 130.269C872.507 130.847 871.785 131.137 870.832 131.137C870.044 131.137 869.442 130.909 869.027 130.453C868.617 129.993 868.41 129.314 868.405 128.416V123.604H869.67V128.382C869.67 129.503 870.126 130.063 871.037 130.063C872.003 130.063 872.646 129.703 872.965 128.983V123.604H874.229V131H873.026L872.999 130.269ZM879.732 124.738C879.541 124.706 879.334 124.69 879.11 124.69C878.281 124.69 877.718 125.044 877.422 125.75V131H876.157V123.604H877.388L877.408 124.458C877.823 123.797 878.411 123.467 879.172 123.467C879.418 123.467 879.605 123.499 879.732 123.562V124.738ZM883.731 130.104C884.183 130.104 884.577 129.968 884.914 129.694C885.251 129.421 885.438 129.079 885.475 128.669H886.671C886.648 129.093 886.502 129.496 886.233 129.879C885.965 130.262 885.604 130.567 885.153 130.795C884.707 131.023 884.233 131.137 883.731 131.137C882.724 131.137 881.922 130.802 881.325 130.132C880.733 129.457 880.437 128.537 880.437 127.37V127.158C880.437 126.438 880.569 125.798 880.833 125.237C881.097 124.677 881.476 124.242 881.968 123.932C882.465 123.622 883.05 123.467 883.725 123.467C884.554 123.467 885.242 123.715 885.789 124.212C886.34 124.709 886.634 125.354 886.671 126.146H885.475C885.438 125.668 885.256 125.276 884.928 124.971C884.604 124.661 884.203 124.506 883.725 124.506C883.082 124.506 882.583 124.738 882.228 125.203C881.877 125.663 881.701 126.331 881.701 127.206V127.445C881.701 128.298 881.877 128.954 882.228 129.414C882.578 129.874 883.08 130.104 883.731 130.104ZM891.162 131.137C890.16 131.137 889.344 130.809 888.715 130.152C888.086 129.492 887.771 128.61 887.771 127.507V127.274C887.771 126.541 887.91 125.887 888.188 125.312C888.471 124.734 888.863 124.283 889.364 123.959C889.87 123.631 890.417 123.467 891.005 123.467C891.966 123.467 892.714 123.784 893.247 124.417C893.78 125.05 894.047 125.957 894.047 127.138V127.664H889.036C889.054 128.393 889.266 128.983 889.672 129.435C890.082 129.881 890.602 130.104 891.23 130.104C891.677 130.104 892.055 130.013 892.365 129.831C892.675 129.649 892.946 129.407 893.179 129.106L893.951 129.708C893.331 130.66 892.402 131.137 891.162 131.137ZM891.005 124.506C890.494 124.506 890.066 124.693 889.72 125.066C889.373 125.436 889.159 125.955 889.077 126.625H892.782V126.529C892.746 125.887 892.573 125.39 892.263 125.039C891.953 124.684 891.534 124.506 891.005 124.506ZM899.823 129.038C899.823 128.696 899.693 128.432 899.434 128.245C899.178 128.054 898.729 127.89 898.087 127.753C897.449 127.616 896.941 127.452 896.562 127.261C896.189 127.069 895.911 126.841 895.729 126.577C895.551 126.313 895.462 125.998 895.462 125.634C895.462 125.028 895.717 124.515 896.228 124.096C896.743 123.676 897.399 123.467 898.196 123.467C899.035 123.467 899.714 123.683 900.233 124.116C900.757 124.549 901.02 125.103 901.02 125.777H899.748C899.748 125.431 899.6 125.132 899.304 124.882C899.012 124.631 898.643 124.506 898.196 124.506C897.736 124.506 897.376 124.606 897.116 124.807C896.856 125.007 896.727 125.269 896.727 125.593C896.727 125.898 896.847 126.128 897.089 126.283C897.33 126.438 897.766 126.586 898.395 126.728C899.028 126.869 899.541 127.037 899.933 127.233C900.325 127.429 900.614 127.666 900.801 127.944C900.992 128.218 901.088 128.553 901.088 128.949C901.088 129.61 900.824 130.141 900.295 130.542C899.766 130.938 899.08 131.137 898.237 131.137C897.645 131.137 897.121 131.032 896.665 130.822C896.209 130.613 895.852 130.321 895.592 129.947C895.337 129.569 895.209 129.161 895.209 128.724H896.474C896.496 129.147 896.665 129.485 896.979 129.735C897.299 129.981 897.718 130.104 898.237 130.104C898.716 130.104 899.099 130.009 899.386 129.817C899.677 129.621 899.823 129.362 899.823 129.038Z" fill="black"/>
<rect x="794" y="62" width="150" height="36" fill="white"/>
<path d="M822.55 80.6045H818.373V85H817.061V75.0469H823.227V76.127H818.373V79.5312H822.55V80.6045ZM825.975 85H824.71V77.6035H825.975V85ZM824.607 75.6416C824.607 75.4365 824.669 75.2633 824.792 75.1221C824.92 74.9808 825.106 74.9102 825.353 74.9102C825.599 74.9102 825.785 74.9808 825.913 75.1221C826.041 75.2633 826.104 75.4365 826.104 75.6416C826.104 75.8467 826.041 76.0176 825.913 76.1543C825.785 76.291 825.599 76.3594 825.353 76.3594C825.106 76.3594 824.92 76.291 824.792 76.1543C824.669 76.0176 824.607 75.8467 824.607 75.6416ZM829.201 77.6035L829.242 78.5332C829.807 77.8223 830.546 77.4668 831.457 77.4668C833.02 77.4668 833.809 78.3486 833.822 80.1123V85H832.558V80.1055C832.553 79.5723 832.43 79.1781 832.188 78.9229C831.951 78.6676 831.58 78.54 831.074 78.54C830.664 78.54 830.304 78.6494 829.994 78.8682C829.684 79.0869 829.443 79.374 829.27 79.7295V85H828.005V77.6035H829.201ZM840.296 85C840.223 84.8542 840.164 84.5944 840.118 84.2207C839.53 84.8314 838.828 85.1367 838.013 85.1367C837.284 85.1367 836.684 84.9316 836.215 84.5215C835.75 84.1068 835.518 83.5827 835.518 82.9492C835.518 82.179 835.809 81.582 836.393 81.1582C836.98 80.7298 837.805 80.5156 838.867 80.5156H840.098V79.9346C840.098 79.4925 839.965 79.1416 839.701 78.8818C839.437 78.6175 839.047 78.4854 838.532 78.4854C838.081 78.4854 837.703 78.5993 837.397 78.8271C837.092 79.055 836.939 79.3307 836.939 79.6543H835.668C835.668 79.2852 835.798 78.9297 836.058 78.5879C836.322 78.2415 836.677 77.9681 837.124 77.7676C837.575 77.5671 838.07 77.4668 838.607 77.4668C839.46 77.4668 840.127 77.681 840.61 78.1094C841.093 78.5332 841.344 79.1188 841.362 79.8662V83.2705C841.362 83.9495 841.449 84.4896 841.622 84.8906V85H840.296ZM838.197 84.0361C838.594 84.0361 838.97 83.9336 839.325 83.7285C839.681 83.5234 839.938 83.2568 840.098 82.9287V81.4111H839.106C837.557 81.4111 836.782 81.8646 836.782 82.7715C836.782 83.168 836.914 83.4779 837.179 83.7012C837.443 83.9245 837.783 84.0361 838.197 84.0361ZM844.541 77.6035L844.582 78.5332C845.147 77.8223 845.885 77.4668 846.797 77.4668C848.36 77.4668 849.148 78.3486 849.162 80.1123V85H847.897V80.1055C847.893 79.5723 847.77 79.1781 847.528 78.9229C847.291 78.6676 846.92 78.54 846.414 78.54C846.004 78.54 845.644 78.6494 845.334 78.8682C845.024 79.0869 844.783 79.374 844.609 79.7295V85H843.345V77.6035H844.541ZM854.036 84.1045C854.487 84.1045 854.882 83.9678 855.219 83.6943C855.556 83.4209 855.743 83.0791 855.779 82.6689H856.976C856.953 83.0928 856.807 83.4961 856.538 83.8789C856.269 84.2617 855.909 84.5671 855.458 84.7949C855.011 85.0228 854.537 85.1367 854.036 85.1367C853.029 85.1367 852.227 84.8018 851.63 84.1318C851.037 83.4574 850.741 82.5368 850.741 81.3701V81.1582C850.741 80.4382 850.873 79.7979 851.138 79.2373C851.402 78.6768 851.78 78.2415 852.272 77.9316C852.769 77.6217 853.355 77.4668 854.029 77.4668C854.859 77.4668 855.547 77.7152 856.094 78.2119C856.645 78.7087 856.939 79.3535 856.976 80.1465H855.779C855.743 79.668 855.561 79.276 855.232 78.9707C854.909 78.6608 854.508 78.5059 854.029 78.5059C853.387 78.5059 852.888 78.7383 852.532 79.2031C852.181 79.6634 852.006 80.3311 852.006 81.2061V81.4453C852.006 82.2975 852.181 82.9538 852.532 83.4141C852.883 83.8743 853.384 84.1045 854.036 84.1045ZM859.771 85H858.507V77.6035H859.771V85ZM858.404 75.6416C858.404 75.4365 858.466 75.2633 858.589 75.1221C858.716 74.9808 858.903 74.9102 859.149 74.9102C859.396 74.9102 859.582 74.9808 859.71 75.1221C859.838 75.2633 859.901 75.4365 859.901 75.6416C859.901 75.8467 859.838 76.0176 859.71 76.1543C859.582 76.291 859.396 76.3594 859.149 76.3594C858.903 76.3594 858.716 76.291 858.589 76.1543C858.466 76.0176 858.404 75.8467 858.404 75.6416ZM866.368 85C866.295 84.8542 866.236 84.5944 866.19 84.2207C865.603 84.8314 864.901 85.1367 864.085 85.1367C863.356 85.1367 862.757 84.9316 862.287 84.5215C861.822 84.1068 861.59 83.5827 861.59 82.9492C861.59 82.179 861.882 81.582 862.465 81.1582C863.053 80.7298 863.878 80.5156 864.939 80.5156H866.17V79.9346C866.17 79.4925 866.038 79.1416 865.773 78.8818C865.509 78.6175 865.119 78.4854 864.604 78.4854C864.153 78.4854 863.775 78.5993 863.47 78.8271C863.164 79.055 863.012 79.3307 863.012 79.6543H861.74C861.74 79.2852 861.87 78.9297 862.13 78.5879C862.394 78.2415 862.75 77.9681 863.196 77.7676C863.647 77.5671 864.142 77.4668 864.68 77.4668C865.532 77.4668 866.2 77.681 866.683 78.1094C867.166 78.5332 867.416 79.1188 867.435 79.8662V83.2705C867.435 83.9495 867.521 84.4896 867.694 84.8906V85H866.368ZM864.27 84.0361C864.666 84.0361 865.042 83.9336 865.397 83.7285C865.753 83.5234 866.01 83.2568 866.17 82.9287V81.4111H865.179C863.629 81.4111 862.854 81.8646 862.854 82.7715C862.854 83.168 862.987 83.4779 863.251 83.7012C863.515 83.9245 863.855 84.0361 864.27 84.0361ZM870.791 85H869.526V74.5H870.791V85ZM879.425 80.5635C878.299 80.2399 877.479 79.8434 876.964 79.374C876.453 78.9001 876.198 78.3167 876.198 77.624C876.198 76.8402 876.51 76.193 877.135 75.6826C877.764 75.1676 878.579 74.9102 879.582 74.9102C880.266 74.9102 880.874 75.0423 881.407 75.3066C881.945 75.571 882.36 75.9355 882.651 76.4004C882.948 76.8652 883.096 77.3734 883.096 77.9248H881.776C881.776 77.3232 881.585 76.8516 881.202 76.5098C880.819 76.1634 880.279 75.9902 879.582 75.9902C878.935 75.9902 878.429 76.1338 878.064 76.4209C877.704 76.7035 877.524 77.0977 877.524 77.6035C877.524 78.0091 877.695 78.3532 878.037 78.6357C878.383 78.9137 878.969 79.1689 879.794 79.4014C880.623 79.6338 881.271 79.8913 881.735 80.1738C882.205 80.4518 882.551 80.7777 882.774 81.1514C883.002 81.5251 883.116 81.9648 883.116 82.4707C883.116 83.2773 882.802 83.9245 882.173 84.4121C881.544 84.8952 880.703 85.1367 879.65 85.1367C878.967 85.1367 878.329 85.0068 877.736 84.7471C877.144 84.4827 876.686 84.1227 876.362 83.667C876.043 83.2113 875.884 82.694 875.884 82.1152H877.203C877.203 82.7168 877.424 83.193 877.866 83.5439C878.313 83.8903 878.908 84.0635 879.65 84.0635C880.343 84.0635 880.874 83.9222 881.243 83.6396C881.612 83.3571 881.797 82.972 881.797 82.4844C881.797 81.9967 881.626 81.6208 881.284 81.3564C880.942 81.0876 880.323 80.8232 879.425 80.5635ZM887.676 85.1367C886.673 85.1367 885.857 84.8086 885.229 84.1523C884.6 83.4915 884.285 82.6097 884.285 81.5068V81.2744C884.285 80.5407 884.424 79.8867 884.702 79.3125C884.985 78.7337 885.377 78.2826 885.878 77.959C886.384 77.6309 886.931 77.4668 887.519 77.4668C888.48 77.4668 889.228 77.7835 889.761 78.417C890.294 79.0505 890.561 79.9574 890.561 81.1377V81.6641H885.55C885.568 82.3932 885.78 82.9834 886.186 83.4346C886.596 83.8812 887.115 84.1045 887.744 84.1045C888.191 84.1045 888.569 84.0133 888.879 83.8311C889.189 83.6488 889.46 83.4072 889.692 83.1064L890.465 83.708C889.845 84.6605 888.915 85.1367 887.676 85.1367ZM887.519 78.5059C887.008 78.5059 886.58 78.6927 886.233 79.0664C885.887 79.4355 885.673 79.9551 885.591 80.625H889.296V80.5293C889.259 79.8867 889.086 79.39 888.776 79.0391C888.466 78.6836 888.047 78.5059 887.519 78.5059ZM894.997 84.1045C895.448 84.1045 895.842 83.9678 896.18 83.6943C896.517 83.4209 896.704 83.0791 896.74 82.6689H897.937C897.914 83.0928 897.768 83.4961 897.499 83.8789C897.23 84.2617 896.87 84.5671 896.419 84.7949C895.972 85.0228 895.498 85.1367 894.997 85.1367C893.99 85.1367 893.188 84.8018 892.591 84.1318C891.998 83.4574 891.702 82.5368 891.702 81.3701V81.1582C891.702 80.4382 891.834 79.7979 892.099 79.2373C892.363 78.6768 892.741 78.2415 893.233 77.9316C893.73 77.6217 894.316 77.4668 894.99 77.4668C895.82 77.4668 896.508 77.7152 897.055 78.2119C897.606 78.7087 897.9 79.3535 897.937 80.1465H896.74C896.704 79.668 896.521 79.276 896.193 78.9707C895.87 78.6608 895.469 78.5059 894.99 78.5059C894.348 78.5059 893.849 78.7383 893.493 79.2031C893.142 79.6634 892.967 80.3311 892.967 81.2061V81.4453C892.967 82.2975 893.142 82.9538 893.493 83.4141C893.844 83.8743 894.345 84.1045 894.997 84.1045ZM901.074 75.8125V77.6035H902.455V78.5811H901.074V83.168C901.074 83.4642 901.136 83.6875 901.259 83.8379C901.382 83.9837 901.591 84.0566 901.888 84.0566C902.034 84.0566 902.234 84.0293 902.489 83.9746V85C902.157 85.0911 901.833 85.1367 901.519 85.1367C900.953 85.1367 900.527 84.9658 900.24 84.624C899.953 84.2822 899.81 83.7969 899.81 83.168V78.5811H898.463V77.6035H899.81V75.8125H901.074ZM905.312 85H904.048V77.6035H905.312V85ZM903.945 75.6416C903.945 75.4365 904.007 75.2633 904.13 75.1221C904.257 74.9808 904.444 74.9102 904.69 74.9102C904.937 74.9102 905.123 74.9808 905.251 75.1221C905.379 75.2633 905.442 75.4365 905.442 75.6416C905.442 75.8467 905.379 76.0176 905.251 76.1543C905.123 76.291 904.937 76.3594 904.69 76.3594C904.444 76.3594 904.257 76.291 904.13 76.1543C904.007 76.0176 903.945 75.8467 903.945 75.6416ZM907.008 81.2334C907.008 80.5088 907.149 79.8571 907.432 79.2783C907.719 78.6995 908.115 78.2529 908.621 77.9385C909.132 77.624 909.713 77.4668 910.364 77.4668C911.371 77.4668 912.185 77.8154 912.805 78.5127C913.429 79.21 913.741 80.1374 913.741 81.2949V81.3838C913.741 82.1038 913.602 82.751 913.324 83.3252C913.051 83.8949 912.657 84.3392 912.142 84.6582C911.631 84.9772 911.043 85.1367 910.378 85.1367C909.375 85.1367 908.562 84.7881 907.938 84.0908C907.318 83.3936 907.008 82.4707 907.008 81.3223V81.2334ZM908.279 81.3838C908.279 82.2041 908.468 82.8626 908.847 83.3594C909.229 83.8561 909.74 84.1045 910.378 84.1045C911.021 84.1045 911.531 83.8538 911.909 83.3525C912.287 82.8467 912.477 82.1403 912.477 81.2334C912.477 80.4222 912.283 79.766 911.896 79.2646C911.513 78.7588 911.002 78.5059 910.364 78.5059C909.74 78.5059 909.236 78.7542 908.854 79.251C908.471 79.7477 908.279 80.4587 908.279 81.3838ZM916.523 77.6035L916.564 78.5332C917.13 77.8223 917.868 77.4668 918.779 77.4668C920.342 77.4668 921.131 78.3486 921.145 80.1123V85H919.88V80.1055C919.875 79.5723 919.752 79.1781 919.511 78.9229C919.274 78.6676 918.902 78.54 918.396 78.54C917.986 78.54 917.626 78.6494 917.316 78.8682C917.007 79.0869 916.765 79.374 916.592 79.7295V85H915.327V77.6035H916.523Z" fill="black"/>
<rect x="210.5" y="31" width="150" height="36" fill="white"/>
<path d="M230.847 50.1035V54H229.534V44.0469H233.205C234.294 44.0469 235.146 44.3249 235.762 44.8809C236.382 45.4368 236.691 46.1729 236.691 47.0889C236.691 48.055 236.388 48.8001 235.782 49.3242C235.181 49.8438 234.317 50.1035 233.191 50.1035H230.847ZM230.847 49.0303H233.205C233.907 49.0303 234.445 48.8662 234.818 48.5381C235.192 48.2054 235.379 47.7269 235.379 47.1025C235.379 46.5101 235.192 46.0361 234.818 45.6807C234.445 45.3252 233.932 45.1406 233.28 45.127H230.847V49.0303ZM237.737 50.2334C237.737 49.5088 237.879 48.8571 238.161 48.2783C238.448 47.6995 238.845 47.2529 239.351 46.9385C239.861 46.624 240.442 46.4668 241.094 46.4668C242.101 46.4668 242.914 46.8154 243.534 47.5127C244.159 48.21 244.471 49.1374 244.471 50.2949V50.3838C244.471 51.1038 244.332 51.751 244.054 52.3252C243.78 52.8949 243.386 53.3392 242.871 53.6582C242.361 53.9772 241.773 54.1367 241.107 54.1367C240.105 54.1367 239.291 53.7881 238.667 53.0908C238.047 52.3936 237.737 51.4707 237.737 50.3223V50.2334ZM239.009 50.3838C239.009 51.2041 239.198 51.8626 239.576 52.3594C239.959 52.8561 240.469 53.1045 241.107 53.1045C241.75 53.1045 242.26 52.8538 242.639 52.3525C243.017 51.8467 243.206 51.1403 243.206 50.2334C243.206 49.4222 243.012 48.766 242.625 48.2646C242.242 47.7588 241.732 47.5059 241.094 47.5059C240.469 47.5059 239.966 47.7542 239.583 48.251C239.2 48.7477 239.009 49.4587 239.009 50.3838ZM249.632 47.7383C249.44 47.7064 249.233 47.6904 249.01 47.6904C248.18 47.6904 247.618 48.0436 247.321 48.75V54H246.057V46.6035H247.287L247.308 47.458C247.722 46.7972 248.31 46.4668 249.071 46.4668C249.317 46.4668 249.504 46.4987 249.632 46.5625V47.7383ZM252.858 44.8125V46.6035H254.239V47.5811H252.858V52.168C252.858 52.4642 252.92 52.6875 253.043 52.8379C253.166 52.9837 253.376 53.0566 253.672 53.0566C253.818 53.0566 254.018 53.0293 254.273 52.9746V54C253.941 54.0911 253.617 54.1367 253.303 54.1367C252.738 54.1367 252.312 53.9658 252.024 53.624C251.737 53.2822 251.594 52.7969 251.594 52.168V47.5811H250.247V46.6035H251.594V44.8125H252.858ZM256.345 54V47.5811H255.176V46.6035H256.345V45.8447C256.345 45.0518 256.557 44.4388 256.98 44.0059C257.404 43.5729 258.004 43.3564 258.778 43.3564C259.07 43.3564 259.359 43.3952 259.646 43.4727L259.578 44.498C259.364 44.457 259.136 44.4365 258.895 44.4365C258.484 44.4365 258.168 44.5573 257.944 44.7988C257.721 45.0358 257.609 45.3776 257.609 45.8242V46.6035H259.188V47.5811H257.609V54H256.345ZM260.255 50.2334C260.255 49.5088 260.396 48.8571 260.679 48.2783C260.966 47.6995 261.362 47.2529 261.868 46.9385C262.379 46.624 262.96 46.4668 263.611 46.4668C264.618 46.4668 265.432 46.8154 266.052 47.5127C266.676 48.21 266.988 49.1374 266.988 50.2949V50.3838C266.988 51.1038 266.849 51.751 266.571 52.3252C266.298 52.8949 265.904 53.3392 265.389 53.6582C264.878 53.9772 264.29 54.1367 263.625 54.1367C262.622 54.1367 261.809 53.7881 261.185 53.0908C260.565 52.3936 260.255 51.4707 260.255 50.3223V50.2334ZM261.526 50.3838C261.526 51.2041 261.715 51.8626 262.094 52.3594C262.477 52.8561 262.987 53.1045 263.625 53.1045C264.268 53.1045 264.778 52.8538 265.156 52.3525C265.535 51.8467 265.724 51.1403 265.724 50.2334C265.724 49.4222 265.53 48.766 265.143 48.2646C264.76 47.7588 264.249 47.5059 263.611 47.5059C262.987 47.5059 262.483 47.7542 262.101 48.251C261.718 48.7477 261.526 49.4587 261.526 50.3838ZM269.948 54H268.684V43.5H269.948V54ZM273.353 54H272.088V46.6035H273.353V54ZM271.985 44.6416C271.985 44.4365 272.047 44.2633 272.17 44.1221C272.298 43.9808 272.484 43.9102 272.73 43.9102C272.977 43.9102 273.163 43.9808 273.291 44.1221C273.419 44.2633 273.482 44.4365 273.482 44.6416C273.482 44.8467 273.419 45.0176 273.291 45.1543C273.163 45.291 272.977 45.3594 272.73 45.3594C272.484 45.3594 272.298 45.291 272.17 45.1543C272.047 45.0176 271.985 44.8467 271.985 44.6416ZM275.048 50.2334C275.048 49.5088 275.189 48.8571 275.472 48.2783C275.759 47.6995 276.155 47.2529 276.661 46.9385C277.172 46.624 277.753 46.4668 278.404 46.4668C279.411 46.4668 280.225 46.8154 280.845 47.5127C281.469 48.21 281.781 49.1374 281.781 50.2949V50.3838C281.781 51.1038 281.642 51.751 281.364 52.3252C281.091 52.8949 280.697 53.3392 280.182 53.6582C279.671 53.9772 279.083 54.1367 278.418 54.1367C277.415 54.1367 276.602 53.7881 275.978 53.0908C275.358 52.3936 275.048 51.4707 275.048 50.3223V50.2334ZM276.319 50.3838C276.319 51.2041 276.508 51.8626 276.887 52.3594C277.27 52.8561 277.78 53.1045 278.418 53.1045C279.061 53.1045 279.571 52.8538 279.949 52.3525C280.327 51.8467 280.517 51.1403 280.517 50.2334C280.517 49.4222 280.323 48.766 279.936 48.2646C279.553 47.7588 279.042 47.5059 278.404 47.5059C277.78 47.5059 277.276 47.7542 276.894 48.251C276.511 48.7477 276.319 49.4587 276.319 50.3838ZM294.694 49.3447C294.694 50.32 294.53 51.1722 294.202 51.9014C293.874 52.626 293.409 53.1797 292.808 53.5625C292.206 53.9453 291.504 54.1367 290.702 54.1367C289.918 54.1367 289.223 53.9453 288.617 53.5625C288.011 53.1751 287.539 52.626 287.202 51.915C286.869 51.1995 286.699 50.3724 286.689 49.4336V48.7158C286.689 47.7588 286.856 46.9134 287.188 46.1797C287.521 45.446 287.991 44.8854 288.597 44.498C289.207 44.1061 289.905 43.9102 290.688 43.9102C291.486 43.9102 292.188 44.1038 292.794 44.4912C293.405 44.874 293.874 45.4323 294.202 46.166C294.53 46.8952 294.694 47.7451 294.694 48.7158V49.3447ZM293.389 48.7021C293.389 47.5218 293.152 46.6172 292.678 45.9883C292.204 45.3548 291.541 45.0381 290.688 45.0381C289.859 45.0381 289.205 45.3548 288.727 45.9883C288.253 46.6172 288.009 47.4922 287.995 48.6133V49.3447C287.995 50.4886 288.234 51.3887 288.713 52.0449C289.196 52.6966 289.859 53.0225 290.702 53.0225C291.55 53.0225 292.206 52.7148 292.671 52.0996C293.136 51.4798 293.375 50.5934 293.389 49.4404V48.7021ZM298.905 52.2842L300.737 46.6035H302.029L299.377 54H298.413L295.733 46.6035H297.025L298.905 52.2842ZM306.22 54.1367C305.217 54.1367 304.401 53.8086 303.772 53.1523C303.144 52.4915 302.829 51.6097 302.829 50.5068V50.2744C302.829 49.5407 302.968 48.8867 303.246 48.3125C303.529 47.7337 303.921 47.2826 304.422 46.959C304.928 46.6309 305.475 46.4668 306.062 46.4668C307.024 46.4668 307.771 46.7835 308.305 47.417C308.838 48.0505 309.104 48.9574 309.104 50.1377V50.6641H304.094C304.112 51.3932 304.324 51.9834 304.729 52.4346C305.14 52.8812 305.659 53.1045 306.288 53.1045C306.735 53.1045 307.113 53.0133 307.423 52.8311C307.733 52.6488 308.004 52.4072 308.236 52.1064L309.009 52.708C308.389 53.6605 307.459 54.1367 306.22 54.1367ZM306.062 47.5059C305.552 47.5059 305.124 47.6927 304.777 48.0664C304.431 48.4355 304.217 48.9551 304.135 49.625H307.84V49.5293C307.803 48.8867 307.63 48.39 307.32 48.0391C307.01 47.6836 306.591 47.5059 306.062 47.5059ZM314.149 47.7383C313.958 47.7064 313.751 47.6904 313.527 47.6904C312.698 47.6904 312.135 48.0436 311.839 48.75V54H310.574V46.6035H311.805L311.825 47.458C312.24 46.7972 312.828 46.4668 313.589 46.4668C313.835 46.4668 314.022 46.4987 314.149 46.5625V47.7383ZM317.882 52.2842L319.714 46.6035H321.006L318.354 54H317.39L314.71 46.6035H316.002L317.882 52.2842ZM323.597 54H322.332V46.6035H323.597V54ZM322.229 44.6416C322.229 44.4365 322.291 44.2633 322.414 44.1221C322.542 43.9808 322.729 43.9102 322.975 43.9102C323.221 43.9102 323.408 43.9808 323.535 44.1221C323.663 44.2633 323.727 44.4365 323.727 44.6416C323.727 44.8467 323.663 45.0176 323.535 45.1543C323.408 45.291 323.221 45.3594 322.975 45.3594C322.729 45.3594 322.542 45.291 322.414 45.1543C322.291 45.0176 322.229 44.8467 322.229 44.6416ZM328.696 54.1367C327.694 54.1367 326.878 53.8086 326.249 53.1523C325.62 52.4915 325.306 51.6097 325.306 50.5068V50.2744C325.306 49.5407 325.445 48.8867 325.723 48.3125C326.005 47.7337 326.397 47.2826 326.898 46.959C327.404 46.6309 327.951 46.4668 328.539 46.4668C329.501 46.4668 330.248 46.7835 330.781 47.417C331.314 48.0505 331.581 48.9574 331.581 50.1377V50.6641H326.57C326.589 51.3932 326.8 51.9834 327.206 52.4346C327.616 52.8812 328.136 53.1045 328.765 53.1045C329.211 53.1045 329.59 53.0133 329.899 52.8311C330.209 52.6488 330.48 52.4072 330.713 52.1064L331.485 52.708C330.866 53.6605 329.936 54.1367 328.696 54.1367ZM328.539 47.5059C328.029 47.5059 327.6 47.6927 327.254 48.0664C326.908 48.4355 326.693 48.9551 326.611 49.625H330.316V49.5293C330.28 48.8867 330.107 48.39 329.797 48.0391C329.487 47.6836 329.068 47.5059 328.539 47.5059ZM339.6 52.2568L341.021 46.6035H342.286L340.133 54H339.107L337.31 48.3945L335.56 54H334.534L332.388 46.6035H333.646L335.102 52.1406L336.824 46.6035H337.843L339.6 52.2568Z" fill="black"/>
<rect x="210.5" y="77" width="150" height="52" fill="white"/>
<path d="M223.293 99.4443V89.4912H226.103C226.968 89.4912 227.734 89.6826 228.399 90.0654C229.065 90.4482 229.577 90.9928 229.938 91.6992C230.302 92.4056 230.487 93.2168 230.491 94.1328V94.7686C230.491 95.7074 230.309 96.5299 229.944 97.2363C229.584 97.9427 229.067 98.485 228.393 98.8633C227.723 99.2415 226.941 99.4352 226.048 99.4443H223.293ZM224.605 90.5713V98.3711H225.986C226.998 98.3711 227.784 98.0566 228.345 97.4277C228.91 96.7988 229.192 95.9033 229.192 94.7412V94.1602C229.192 93.0299 228.926 92.1527 228.393 91.5283C227.864 90.8994 227.112 90.5804 226.137 90.5713H224.605ZM235.352 99.5811C234.349 99.5811 233.533 99.2529 232.904 98.5967C232.275 97.9359 231.961 97.054 231.961 95.9512V95.7188C231.961 94.985 232.1 94.3311 232.378 93.7568C232.66 93.1781 233.052 92.7269 233.554 92.4033C234.06 92.0752 234.606 91.9111 235.194 91.9111C236.156 91.9111 236.903 92.2279 237.437 92.8613C237.97 93.4948 238.236 94.4017 238.236 95.582V96.1084H233.226C233.244 96.8376 233.456 97.4277 233.861 97.8789C234.271 98.3255 234.791 98.5488 235.42 98.5488C235.867 98.5488 236.245 98.4577 236.555 98.2754C236.865 98.0931 237.136 97.8516 237.368 97.5508L238.141 98.1523C237.521 99.1048 236.591 99.5811 235.352 99.5811ZM235.194 92.9502C234.684 92.9502 234.256 93.137 233.909 93.5107C233.563 93.8799 233.349 94.3994 233.267 95.0693H236.972V94.9736C236.935 94.3311 236.762 93.8343 236.452 93.4834C236.142 93.1279 235.723 92.9502 235.194 92.9502ZM241.422 90.2568V92.0479H242.803V93.0254H241.422V97.6123C241.422 97.9085 241.483 98.1318 241.606 98.2822C241.729 98.4281 241.939 98.501 242.235 98.501C242.381 98.501 242.582 98.4736 242.837 98.4189V99.4443C242.504 99.5355 242.181 99.5811 241.866 99.5811C241.301 99.5811 240.875 99.4102 240.588 99.0684C240.301 98.7266 240.157 98.2412 240.157 97.6123V93.0254H238.811V92.0479H240.157V90.2568H241.422ZM248.853 99.4443C248.78 99.2985 248.72 99.0387 248.675 98.665C248.087 99.2757 247.385 99.5811 246.569 99.5811C245.84 99.5811 245.241 99.376 244.771 98.9658C244.307 98.5511 244.074 98.027 244.074 97.3936C244.074 96.6234 244.366 96.0264 244.949 95.6025C245.537 95.1742 246.362 94.96 247.424 94.96H248.654V94.3789C248.654 93.9368 248.522 93.5859 248.258 93.3262C247.993 93.0618 247.604 92.9297 247.089 92.9297C246.638 92.9297 246.259 93.0436 245.954 93.2715C245.649 93.4993 245.496 93.7751 245.496 94.0986H244.225C244.225 93.7295 244.354 93.374 244.614 93.0322C244.879 92.6859 245.234 92.4124 245.681 92.2119C246.132 92.0114 246.626 91.9111 247.164 91.9111C248.016 91.9111 248.684 92.1253 249.167 92.5537C249.65 92.9775 249.901 93.5632 249.919 94.3105V97.7148C249.919 98.3939 250.006 98.9339 250.179 99.335V99.4443H248.853ZM246.754 98.4805C247.15 98.4805 247.526 98.3779 247.882 98.1729C248.237 97.9678 248.495 97.7012 248.654 97.373V95.8555H247.663C246.114 95.8555 245.339 96.3089 245.339 97.2158C245.339 97.6123 245.471 97.9222 245.735 98.1455C246 98.3688 246.339 98.4805 246.754 98.4805ZM253.275 99.4443H252.011V92.0479H253.275V99.4443ZM251.908 90.0859C251.908 89.8809 251.97 89.7077 252.093 89.5664C252.22 89.4251 252.407 89.3545 252.653 89.3545C252.899 89.3545 253.086 89.4251 253.214 89.5664C253.341 89.7077 253.405 89.8809 253.405 90.0859C253.405 90.291 253.341 90.4619 253.214 90.5986C253.086 90.7354 252.899 90.8037 252.653 90.8037C252.407 90.8037 252.22 90.7354 252.093 90.5986C251.97 90.4619 251.908 90.291 251.908 90.0859ZM256.68 99.4443H255.415V88.9443H256.68V99.4443ZM261.779 99.5811C260.777 99.5811 259.961 99.2529 259.332 98.5967C258.703 97.9359 258.389 97.054 258.389 95.9512V95.7188C258.389 94.985 258.528 94.3311 258.806 93.7568C259.088 93.1781 259.48 92.7269 259.981 92.4033C260.487 92.0752 261.034 91.9111 261.622 91.9111C262.584 91.9111 263.331 92.2279 263.864 92.8613C264.397 93.4948 264.664 94.4017 264.664 95.582V96.1084H259.653C259.672 96.8376 259.883 97.4277 260.289 97.8789C260.699 98.3255 261.219 98.5488 261.848 98.5488C262.294 98.5488 262.673 98.4577 262.982 98.2754C263.292 98.0931 263.563 97.8516 263.796 97.5508L264.568 98.1523C263.949 99.1048 263.019 99.5811 261.779 99.5811ZM261.622 92.9502C261.112 92.9502 260.683 93.137 260.337 93.5107C259.991 93.8799 259.776 94.3994 259.694 95.0693H263.399V94.9736C263.363 94.3311 263.19 93.8343 262.88 93.4834C262.57 93.1279 262.151 92.9502 261.622 92.9502ZM265.826 95.6846C265.826 94.5498 266.095 93.6383 266.633 92.9502C267.171 92.2575 267.875 91.9111 268.745 91.9111C269.611 91.9111 270.297 92.2074 270.803 92.7998V88.9443H272.067V99.4443H270.905L270.844 98.6514C270.338 99.2712 269.634 99.5811 268.731 99.5811C267.875 99.5811 267.175 99.2301 266.633 98.5283C266.095 97.8265 265.826 96.9105 265.826 95.7803V95.6846ZM267.091 95.8281C267.091 96.6667 267.264 97.3229 267.61 97.7969C267.957 98.2708 268.435 98.5078 269.046 98.5078C269.848 98.5078 270.434 98.1478 270.803 97.4277V94.0303C270.424 93.333 269.843 92.9844 269.06 92.9844C268.44 92.9844 267.957 93.2236 267.61 93.7021C267.264 94.1807 267.091 94.8893 267.091 95.8281ZM278.883 99.4443H277.618V92.0479H278.883V99.4443ZM277.516 90.0859C277.516 89.8809 277.577 89.7077 277.7 89.5664C277.828 89.4251 278.015 89.3545 278.261 89.3545C278.507 89.3545 278.694 89.4251 278.821 89.5664C278.949 89.7077 279.013 89.8809 279.013 90.0859C279.013 90.291 278.949 90.4619 278.821 90.5986C278.694 90.7354 278.507 90.8037 278.261 90.8037C278.015 90.8037 277.828 90.7354 277.7 90.5986C277.577 90.4619 277.516 90.291 277.516 90.0859ZM282.109 92.0479L282.15 92.9775C282.715 92.2666 283.454 91.9111 284.365 91.9111C285.928 91.9111 286.717 92.793 286.73 94.5566V99.4443H285.466V94.5498C285.461 94.0166 285.338 93.6224 285.097 93.3672C284.86 93.112 284.488 92.9844 283.982 92.9844C283.572 92.9844 283.212 93.0938 282.902 93.3125C282.592 93.5312 282.351 93.8184 282.178 94.1738V99.4443H280.913V92.0479H282.109ZM289.26 99.4443V93.0254H288.091V92.0479H289.26V91.2891C289.26 90.4961 289.472 89.8831 289.896 89.4502C290.319 89.0173 290.919 88.8008 291.693 88.8008C291.985 88.8008 292.274 88.8395 292.562 88.917L292.493 89.9424C292.279 89.9014 292.051 89.8809 291.81 89.8809C291.399 89.8809 291.083 90.0016 290.859 90.2432C290.636 90.4801 290.524 90.8219 290.524 91.2686V92.0479H292.104V93.0254H290.524V99.4443H289.26ZM293.17 95.6777C293.17 94.9531 293.311 94.3014 293.594 93.7227C293.881 93.1439 294.277 92.6973 294.783 92.3828C295.294 92.0684 295.875 91.9111 296.526 91.9111C297.534 91.9111 298.347 92.2598 298.967 92.957C299.591 93.6543 299.903 94.5817 299.903 95.7393V95.8281C299.903 96.5482 299.764 97.1953 299.486 97.7695C299.213 98.3392 298.819 98.7835 298.304 99.1025C297.793 99.4215 297.205 99.5811 296.54 99.5811C295.537 99.5811 294.724 99.2324 294.1 98.5352C293.48 97.8379 293.17 96.915 293.17 95.7666V95.6777ZM294.441 95.8281C294.441 96.6484 294.631 97.307 295.009 97.8037C295.392 98.3005 295.902 98.5488 296.54 98.5488C297.183 98.5488 297.693 98.2982 298.071 97.7969C298.45 97.291 298.639 96.5846 298.639 95.6777C298.639 94.8665 298.445 94.2103 298.058 93.709C297.675 93.2031 297.164 92.9502 296.526 92.9502C295.902 92.9502 295.398 93.1986 295.016 93.6953C294.633 94.1921 294.441 94.903 294.441 95.8281ZM305.064 93.1826C304.873 93.1507 304.666 93.1348 304.442 93.1348C303.613 93.1348 303.05 93.488 302.754 94.1943V99.4443H301.489V92.0479H302.72L302.74 92.9023C303.155 92.2415 303.743 91.9111 304.504 91.9111C304.75 91.9111 304.937 91.943 305.064 92.0068V93.1826ZM307.423 92.0479L307.457 92.8682C307.999 92.2301 308.731 91.9111 309.651 91.9111C310.686 91.9111 311.39 92.3076 311.764 93.1006C312.01 92.7451 312.329 92.458 312.721 92.2393C313.117 92.0205 313.584 91.9111 314.122 91.9111C315.744 91.9111 316.569 92.7702 316.597 94.4883V99.4443H315.332V94.5635C315.332 94.0348 315.211 93.6406 314.97 93.3809C314.728 93.1165 314.323 92.9844 313.753 92.9844C313.284 92.9844 312.894 93.1257 312.584 93.4082C312.274 93.6862 312.094 94.0622 312.044 94.5361V99.4443H310.772V94.5977C310.772 93.5221 310.246 92.9844 309.193 92.9844C308.364 92.9844 307.797 93.3376 307.491 94.0439V99.4443H306.227V92.0479H307.423ZM323.077 99.4443C323.004 99.2985 322.945 99.0387 322.899 98.665C322.312 99.2757 321.61 99.5811 320.794 99.5811C320.065 99.5811 319.465 99.376 318.996 98.9658C318.531 98.5511 318.299 98.027 318.299 97.3936C318.299 96.6234 318.59 96.0264 319.174 95.6025C319.762 95.1742 320.587 94.96 321.648 94.96H322.879V94.3789C322.879 93.9368 322.747 93.5859 322.482 93.3262C322.218 93.0618 321.828 92.9297 321.313 92.9297C320.862 92.9297 320.484 93.0436 320.179 93.2715C319.873 93.4993 319.721 93.7751 319.721 94.0986H318.449C318.449 93.7295 318.579 93.374 318.839 93.0322C319.103 92.6859 319.459 92.4124 319.905 92.2119C320.356 92.0114 320.851 91.9111 321.389 91.9111C322.241 91.9111 322.909 92.1253 323.392 92.5537C323.875 92.9775 324.125 93.5632 324.144 94.3105V97.7148C324.144 98.3939 324.23 98.9339 324.403 99.335V99.4443H323.077ZM320.979 98.4805C321.375 98.4805 321.751 98.3779 322.106 98.1729C322.462 97.9678 322.719 97.7012 322.879 97.373V95.8555H321.888C320.338 95.8555 319.563 96.3089 319.563 97.2158C319.563 97.6123 319.696 97.9222 319.96 98.1455C320.224 98.3688 320.564 98.4805 320.979 98.4805ZM327.842 90.2568V92.0479H329.223V93.0254H327.842V97.6123C327.842 97.9085 327.903 98.1318 328.026 98.2822C328.149 98.4281 328.359 98.501 328.655 98.501C328.801 98.501 329.002 98.4736 329.257 98.4189V99.4443C328.924 99.5355 328.601 99.5811 328.286 99.5811C327.721 99.5811 327.295 99.4102 327.008 99.0684C326.721 98.7266 326.577 98.2412 326.577 97.6123V93.0254H325.23V92.0479H326.577V90.2568H327.842ZM332.08 99.4443H330.815V92.0479H332.08V99.4443ZM330.713 90.0859C330.713 89.8809 330.774 89.7077 330.897 89.5664C331.025 89.4251 331.212 89.3545 331.458 89.3545C331.704 89.3545 331.891 89.4251 332.019 89.5664C332.146 89.7077 332.21 89.8809 332.21 90.0859C332.21 90.291 332.146 90.4619 332.019 90.5986C331.891 90.7354 331.704 90.8037 331.458 90.8037C331.212 90.8037 331.025 90.7354 330.897 90.5986C330.774 90.4619 330.713 90.291 330.713 90.0859ZM333.775 95.6777C333.775 94.9531 333.917 94.3014 334.199 93.7227C334.486 93.1439 334.883 92.6973 335.389 92.3828C335.899 92.0684 336.48 91.9111 337.132 91.9111C338.139 91.9111 338.952 92.2598 339.572 92.957C340.197 93.6543 340.509 94.5817 340.509 95.7393V95.8281C340.509 96.5482 340.37 97.1953 340.092 97.7695C339.818 98.3392 339.424 98.7835 338.909 99.1025C338.399 99.4215 337.811 99.5811 337.146 99.5811C336.143 99.5811 335.329 99.2324 334.705 98.5352C334.085 97.8379 333.775 96.915 333.775 95.7666V95.6777ZM335.047 95.8281C335.047 96.6484 335.236 97.307 335.614 97.8037C335.997 98.3005 336.507 98.5488 337.146 98.5488C337.788 98.5488 338.299 98.2982 338.677 97.7969C339.055 97.291 339.244 96.5846 339.244 95.6777C339.244 94.8665 339.05 94.2103 338.663 93.709C338.28 93.2031 337.77 92.9502 337.132 92.9502C336.507 92.9502 336.004 93.1986 335.621 93.6953C335.238 94.1921 335.047 94.903 335.047 95.8281ZM343.291 92.0479L343.332 92.9775C343.897 92.2666 344.635 91.9111 345.547 91.9111C347.11 91.9111 347.898 92.793 347.912 94.5566V99.4443H346.647V94.5498C346.643 94.0166 346.52 93.6224 346.278 93.3672C346.041 93.112 345.67 92.9844 345.164 92.9844C344.754 92.9844 344.394 93.0938 344.084 93.3125C343.774 93.5312 343.533 93.8184 343.359 94.1738V99.4443H342.095V92.0479H343.291ZM244.977 115.444V109.025H243.808V108.048H244.977V107.289C244.977 106.496 245.188 105.883 245.612 105.45C246.036 105.017 246.635 104.801 247.41 104.801C247.702 104.801 247.991 104.84 248.278 104.917L248.21 105.942C247.996 105.901 247.768 105.881 247.526 105.881C247.116 105.881 246.799 106.002 246.576 106.243C246.353 106.48 246.241 106.822 246.241 107.269V108.048H247.82V109.025H246.241V115.444H244.977ZM248.887 111.678C248.887 110.953 249.028 110.301 249.311 109.723C249.598 109.144 249.994 108.697 250.5 108.383C251.01 108.068 251.591 107.911 252.243 107.911C253.25 107.911 254.064 108.26 254.684 108.957C255.308 109.654 255.62 110.582 255.62 111.739V111.828C255.62 112.548 255.481 113.195 255.203 113.77C254.93 114.339 254.535 114.784 254.021 115.103C253.51 115.422 252.922 115.581 252.257 115.581C251.254 115.581 250.441 115.232 249.816 114.535C249.197 113.838 248.887 112.915 248.887 111.767V111.678ZM250.158 111.828C250.158 112.648 250.347 113.307 250.726 113.804C251.108 114.3 251.619 114.549 252.257 114.549C252.899 114.549 253.41 114.298 253.788 113.797C254.166 113.291 254.355 112.585 254.355 111.678C254.355 110.867 254.162 110.21 253.774 109.709C253.392 109.203 252.881 108.95 252.243 108.95C251.619 108.95 251.115 109.199 250.732 109.695C250.35 110.192 250.158 110.903 250.158 111.828ZM260.781 109.183C260.59 109.151 260.382 109.135 260.159 109.135C259.33 109.135 258.767 109.488 258.471 110.194V115.444H257.206V108.048H258.437L258.457 108.902C258.872 108.242 259.46 107.911 260.221 107.911C260.467 107.911 260.654 107.943 260.781 108.007V109.183ZM268.492 115.581C267.49 115.581 266.674 115.253 266.045 114.597C265.416 113.936 265.102 113.054 265.102 111.951V111.719C265.102 110.985 265.241 110.331 265.519 109.757C265.801 109.178 266.193 108.727 266.694 108.403C267.2 108.075 267.747 107.911 268.335 107.911C269.297 107.911 270.044 108.228 270.577 108.861C271.11 109.495 271.377 110.402 271.377 111.582V112.108H266.366C266.384 112.838 266.596 113.428 267.002 113.879C267.412 114.326 267.932 114.549 268.561 114.549C269.007 114.549 269.385 114.458 269.695 114.275C270.005 114.093 270.276 113.852 270.509 113.551L271.281 114.152C270.661 115.105 269.732 115.581 268.492 115.581ZM268.335 108.95C267.825 108.95 267.396 109.137 267.05 109.511C266.703 109.88 266.489 110.399 266.407 111.069H270.112V110.974C270.076 110.331 269.903 109.834 269.593 109.483C269.283 109.128 268.864 108.95 268.335 108.95ZM277.413 115.444C277.34 115.299 277.281 115.039 277.235 114.665C276.647 115.276 275.946 115.581 275.13 115.581C274.401 115.581 273.801 115.376 273.332 114.966C272.867 114.551 272.635 114.027 272.635 113.394C272.635 112.623 272.926 112.026 273.51 111.603C274.098 111.174 274.923 110.96 275.984 110.96H277.215V110.379C277.215 109.937 277.083 109.586 276.818 109.326C276.554 109.062 276.164 108.93 275.649 108.93C275.198 108.93 274.82 109.044 274.515 109.271C274.209 109.499 274.057 109.775 274.057 110.099H272.785C272.785 109.729 272.915 109.374 273.175 109.032C273.439 108.686 273.795 108.412 274.241 108.212C274.692 108.011 275.187 107.911 275.725 107.911C276.577 107.911 277.244 108.125 277.728 108.554C278.211 108.978 278.461 109.563 278.479 110.311V113.715C278.479 114.394 278.566 114.934 278.739 115.335V115.444H277.413ZM275.314 114.48C275.711 114.48 276.087 114.378 276.442 114.173C276.798 113.968 277.055 113.701 277.215 113.373V111.855H276.224C274.674 111.855 273.899 112.309 273.899 113.216C273.899 113.612 274.032 113.922 274.296 114.146C274.56 114.369 274.9 114.48 275.314 114.48ZM283.429 114.549C283.88 114.549 284.274 114.412 284.611 114.139C284.949 113.865 285.135 113.523 285.172 113.113H286.368C286.345 113.537 286.2 113.94 285.931 114.323C285.662 114.706 285.302 115.011 284.851 115.239C284.404 115.467 283.93 115.581 283.429 115.581C282.422 115.581 281.619 115.246 281.022 114.576C280.43 113.902 280.134 112.981 280.134 111.814V111.603C280.134 110.882 280.266 110.242 280.53 109.682C280.795 109.121 281.173 108.686 281.665 108.376C282.162 108.066 282.747 107.911 283.422 107.911C284.251 107.911 284.939 108.16 285.486 108.656C286.038 109.153 286.332 109.798 286.368 110.591H285.172C285.135 110.112 284.953 109.72 284.625 109.415C284.301 109.105 283.9 108.95 283.422 108.95C282.779 108.95 282.28 109.183 281.925 109.647C281.574 110.108 281.398 110.775 281.398 111.65V111.89C281.398 112.742 281.574 113.398 281.925 113.858C282.276 114.319 282.777 114.549 283.429 114.549ZM289.055 108.943C289.615 108.255 290.344 107.911 291.242 107.911C292.805 107.911 293.594 108.793 293.607 110.557V115.444H292.343V110.55C292.338 110.017 292.215 109.622 291.974 109.367C291.737 109.112 291.365 108.984 290.859 108.984C290.449 108.984 290.089 109.094 289.779 109.312C289.469 109.531 289.228 109.818 289.055 110.174V115.444H287.79V104.944H289.055V108.943ZM301.94 114.549C302.392 114.549 302.786 114.412 303.123 114.139C303.46 113.865 303.647 113.523 303.684 113.113H304.88C304.857 113.537 304.711 113.94 304.442 114.323C304.174 114.706 303.813 115.011 303.362 115.239C302.916 115.467 302.442 115.581 301.94 115.581C300.933 115.581 300.131 115.246 299.534 114.576C298.942 113.902 298.646 112.981 298.646 111.814V111.603C298.646 110.882 298.778 110.242 299.042 109.682C299.306 109.121 299.685 108.686 300.177 108.376C300.674 108.066 301.259 107.911 301.934 107.911C302.763 107.911 303.451 108.16 303.998 108.656C304.549 109.153 304.843 109.798 304.88 110.591H303.684C303.647 110.112 303.465 109.72 303.137 109.415C302.813 109.105 302.412 108.95 301.934 108.95C301.291 108.95 300.792 109.183 300.437 109.647C300.086 110.108 299.91 110.775 299.91 111.65V111.89C299.91 112.742 300.086 113.398 300.437 113.858C300.787 114.319 301.289 114.549 301.94 114.549ZM310.868 115.444C310.795 115.299 310.736 115.039 310.69 114.665C310.103 115.276 309.401 115.581 308.585 115.581C307.856 115.581 307.257 115.376 306.787 114.966C306.322 114.551 306.09 114.027 306.09 113.394C306.09 112.623 306.382 112.026 306.965 111.603C307.553 111.174 308.378 110.96 309.439 110.96H310.67V110.379C310.67 109.937 310.538 109.586 310.273 109.326C310.009 109.062 309.619 108.93 309.104 108.93C308.653 108.93 308.275 109.044 307.97 109.271C307.664 109.499 307.512 109.775 307.512 110.099H306.24C306.24 109.729 306.37 109.374 306.63 109.032C306.894 108.686 307.25 108.412 307.696 108.212C308.147 108.011 308.642 107.911 309.18 107.911C310.032 107.911 310.7 108.125 311.183 108.554C311.666 108.978 311.916 109.563 311.935 110.311V113.715C311.935 114.394 312.021 114.934 312.194 115.335V115.444H310.868ZM308.77 114.48C309.166 114.48 309.542 114.378 309.897 114.173C310.253 113.968 310.51 113.701 310.67 113.373V111.855H309.679C308.129 111.855 307.354 112.309 307.354 113.216C307.354 113.612 307.487 113.922 307.751 114.146C308.015 114.369 308.355 114.48 308.77 114.48ZM318.224 113.482C318.224 113.141 318.094 112.876 317.834 112.689C317.579 112.498 317.13 112.334 316.487 112.197C315.849 112.061 315.341 111.896 314.963 111.705C314.589 111.514 314.311 111.286 314.129 111.021C313.951 110.757 313.862 110.443 313.862 110.078C313.862 109.472 314.118 108.959 314.628 108.54C315.143 108.121 315.799 107.911 316.597 107.911C317.435 107.911 318.114 108.128 318.634 108.561C319.158 108.993 319.42 109.547 319.42 110.222H318.148C318.148 109.875 318 109.577 317.704 109.326C317.412 109.076 317.043 108.95 316.597 108.95C316.136 108.95 315.776 109.05 315.517 109.251C315.257 109.451 315.127 109.714 315.127 110.037C315.127 110.342 315.248 110.573 315.489 110.728C315.731 110.882 316.166 111.031 316.795 111.172C317.428 111.313 317.941 111.482 318.333 111.678C318.725 111.874 319.014 112.111 319.201 112.389C319.393 112.662 319.488 112.997 319.488 113.394C319.488 114.054 319.224 114.585 318.695 114.986C318.167 115.383 317.481 115.581 316.638 115.581C316.045 115.581 315.521 115.476 315.065 115.267C314.61 115.057 314.252 114.765 313.992 114.392C313.737 114.013 313.609 113.605 313.609 113.168H314.874C314.897 113.592 315.065 113.929 315.38 114.18C315.699 114.426 316.118 114.549 316.638 114.549C317.116 114.549 317.499 114.453 317.786 114.262C318.078 114.066 318.224 113.806 318.224 113.482ZM324.205 115.581C323.202 115.581 322.387 115.253 321.758 114.597C321.129 113.936 320.814 113.054 320.814 111.951V111.719C320.814 110.985 320.953 110.331 321.231 109.757C321.514 109.178 321.906 108.727 322.407 108.403C322.913 108.075 323.46 107.911 324.048 107.911C325.009 107.911 325.757 108.228 326.29 108.861C326.823 109.495 327.09 110.402 327.09 111.582V112.108H322.079C322.097 112.838 322.309 113.428 322.715 113.879C323.125 114.326 323.645 114.549 324.273 114.549C324.72 114.549 325.098 114.458 325.408 114.275C325.718 114.093 325.989 113.852 326.222 113.551L326.994 114.152C326.374 115.105 325.445 115.581 324.205 115.581ZM324.048 108.95C323.537 108.95 323.109 109.137 322.763 109.511C322.416 109.88 322.202 110.399 322.12 111.069H325.825V110.974C325.789 110.331 325.616 109.834 325.306 109.483C324.996 109.128 324.576 108.95 324.048 108.95Z" fill="black"/>
<rect x="599.5" y="85" width="150" height="36" fill="white"/>
<path d="M620.578 105.402H616.408L615.472 108H614.118L617.919 98.0469H619.067L622.875 108H621.528L620.578 105.402ZM616.805 104.322H620.188L618.493 99.667L616.805 104.322ZM625.609 98.8125V100.604H626.99V101.581H625.609V106.168C625.609 106.464 625.671 106.688 625.794 106.838C625.917 106.984 626.127 107.057 626.423 107.057C626.569 107.057 626.769 107.029 627.024 106.975V108C626.692 108.091 626.368 108.137 626.054 108.137C625.489 108.137 625.062 107.966 624.775 107.624C624.488 107.282 624.345 106.797 624.345 106.168V101.581H622.998V100.604H624.345V98.8125H625.609ZM630.189 98.8125V100.604H631.57V101.581H630.189V106.168C630.189 106.464 630.251 106.688 630.374 106.838C630.497 106.984 630.707 107.057 631.003 107.057C631.149 107.057 631.349 107.029 631.604 106.975V108C631.272 108.091 630.948 108.137 630.634 108.137C630.069 108.137 629.643 107.966 629.355 107.624C629.068 107.282 628.925 106.797 628.925 106.168V101.581H627.578V100.604H628.925V98.8125H630.189ZM632.582 104.233C632.582 103.509 632.723 102.857 633.006 102.278C633.293 101.7 633.689 101.253 634.195 100.938C634.706 100.624 635.287 100.467 635.938 100.467C636.946 100.467 637.759 100.815 638.379 101.513C639.003 102.21 639.315 103.137 639.315 104.295V104.384C639.315 105.104 639.176 105.751 638.898 106.325C638.625 106.895 638.231 107.339 637.716 107.658C637.205 107.977 636.618 108.137 635.952 108.137C634.95 108.137 634.136 107.788 633.512 107.091C632.892 106.394 632.582 105.471 632.582 104.322V104.233ZM633.854 104.384C633.854 105.204 634.043 105.863 634.421 106.359C634.804 106.856 635.314 107.104 635.952 107.104C636.595 107.104 637.105 106.854 637.483 106.353C637.862 105.847 638.051 105.14 638.051 104.233C638.051 103.422 637.857 102.766 637.47 102.265C637.087 101.759 636.576 101.506 635.938 101.506C635.314 101.506 634.811 101.754 634.428 102.251C634.045 102.748 633.854 103.459 633.854 104.384ZM644.477 101.738C644.285 101.706 644.078 101.69 643.854 101.69C643.025 101.69 642.462 102.044 642.166 102.75V108H640.901V100.604H642.132L642.152 101.458C642.567 100.797 643.155 100.467 643.916 100.467C644.162 100.467 644.349 100.499 644.477 100.562V101.738ZM646.842 100.604L646.883 101.533C647.448 100.822 648.186 100.467 649.098 100.467C650.661 100.467 651.449 101.349 651.463 103.112V108H650.198V103.105C650.194 102.572 650.071 102.178 649.829 101.923C649.592 101.668 649.221 101.54 648.715 101.54C648.305 101.54 647.945 101.649 647.635 101.868C647.325 102.087 647.083 102.374 646.91 102.729V108H645.646V100.604H646.842ZM656.439 108.137C655.437 108.137 654.621 107.809 653.992 107.152C653.363 106.492 653.049 105.61 653.049 104.507V104.274C653.049 103.541 653.188 102.887 653.466 102.312C653.748 101.734 654.14 101.283 654.642 100.959C655.147 100.631 655.694 100.467 656.282 100.467C657.244 100.467 657.991 100.784 658.524 101.417C659.058 102.05 659.324 102.957 659.324 104.138V104.664H654.313C654.332 105.393 654.544 105.983 654.949 106.435C655.359 106.881 655.879 107.104 656.508 107.104C656.954 107.104 657.333 107.013 657.643 106.831C657.952 106.649 658.224 106.407 658.456 106.106L659.229 106.708C658.609 107.66 657.679 108.137 656.439 108.137ZM656.282 101.506C655.772 101.506 655.343 101.693 654.997 102.066C654.651 102.436 654.437 102.955 654.354 103.625H658.06V103.529C658.023 102.887 657.85 102.39 657.54 102.039C657.23 101.684 656.811 101.506 656.282 101.506ZM663.118 106.147L664.841 100.604H666.194L663.221 109.142C662.76 110.372 662.029 110.987 661.026 110.987L660.787 110.967L660.315 110.878V109.853L660.657 109.88C661.086 109.88 661.418 109.793 661.655 109.62C661.897 109.447 662.095 109.13 662.25 108.67L662.53 107.918L659.892 100.604H661.272L663.118 106.147ZM673.933 103.563C672.807 103.24 671.987 102.843 671.472 102.374C670.961 101.9 670.706 101.317 670.706 100.624C670.706 99.8402 671.018 99.193 671.643 98.6826C672.271 98.1676 673.087 97.9102 674.09 97.9102C674.773 97.9102 675.382 98.0423 675.915 98.3066C676.453 98.571 676.868 98.9355 677.159 99.4004C677.455 99.8652 677.604 100.373 677.604 100.925H676.284C676.284 100.323 676.093 99.8516 675.71 99.5098C675.327 99.1634 674.787 98.9902 674.09 98.9902C673.443 98.9902 672.937 99.1338 672.572 99.4209C672.212 99.7035 672.032 100.098 672.032 100.604C672.032 101.009 672.203 101.353 672.545 101.636C672.891 101.914 673.477 102.169 674.302 102.401C675.131 102.634 675.778 102.891 676.243 103.174C676.713 103.452 677.059 103.778 677.282 104.151C677.51 104.525 677.624 104.965 677.624 105.471C677.624 106.277 677.31 106.924 676.681 107.412C676.052 107.895 675.211 108.137 674.158 108.137C673.475 108.137 672.837 108.007 672.244 107.747C671.652 107.483 671.194 107.123 670.87 106.667C670.551 106.211 670.392 105.694 670.392 105.115H671.711C671.711 105.717 671.932 106.193 672.374 106.544C672.821 106.89 673.415 107.063 674.158 107.063C674.851 107.063 675.382 106.922 675.751 106.64C676.12 106.357 676.305 105.972 676.305 105.484C676.305 104.997 676.134 104.621 675.792 104.356C675.45 104.088 674.83 103.823 673.933 103.563ZM680.488 108H679.224V100.604H680.488V108ZM679.121 98.6416C679.121 98.4365 679.183 98.2633 679.306 98.1221C679.433 97.9808 679.62 97.9102 679.866 97.9102C680.112 97.9102 680.299 97.9808 680.427 98.1221C680.554 98.2633 680.618 98.4365 680.618 98.6416C680.618 98.8467 680.554 99.0176 680.427 99.1543C680.299 99.291 680.112 99.3594 679.866 99.3594C679.62 99.3594 679.433 99.291 679.306 99.1543C679.183 99.0176 679.121 98.8467 679.121 98.6416ZM682.211 104.24C682.211 103.105 682.48 102.194 683.018 101.506C683.555 100.813 684.259 100.467 685.13 100.467C685.996 100.467 686.682 100.763 687.188 101.355V97.5H688.452V108H687.29L687.229 107.207C686.723 107.827 686.019 108.137 685.116 108.137C684.259 108.137 683.56 107.786 683.018 107.084C682.48 106.382 682.211 105.466 682.211 104.336V104.24ZM683.476 104.384C683.476 105.222 683.649 105.879 683.995 106.353C684.341 106.826 684.82 107.063 685.431 107.063C686.233 107.063 686.818 106.703 687.188 105.983V102.586C686.809 101.889 686.228 101.54 685.444 101.54C684.825 101.54 684.341 101.779 683.995 102.258C683.649 102.736 683.476 103.445 683.476 104.384ZM693.49 108.137C692.488 108.137 691.672 107.809 691.043 107.152C690.414 106.492 690.1 105.61 690.1 104.507V104.274C690.1 103.541 690.239 102.887 690.517 102.312C690.799 101.734 691.191 101.283 691.692 100.959C692.198 100.631 692.745 100.467 693.333 100.467C694.295 100.467 695.042 100.784 695.575 101.417C696.108 102.05 696.375 102.957 696.375 104.138V104.664H691.364C691.382 105.393 691.594 105.983 692 106.435C692.41 106.881 692.93 107.104 693.559 107.104C694.005 107.104 694.383 107.013 694.693 106.831C695.003 106.649 695.274 106.407 695.507 106.106L696.279 106.708C695.66 107.66 694.73 108.137 693.49 108.137ZM693.333 101.506C692.823 101.506 692.394 101.693 692.048 102.066C691.701 102.436 691.487 102.955 691.405 103.625H695.11V103.529C695.074 102.887 694.901 102.39 694.591 102.039C694.281 101.684 693.862 101.506 693.333 101.506ZM708.119 99.127H704.92V108H703.614V99.127H700.422V98.0469H708.119V99.127ZM711.783 108.137C710.781 108.137 709.965 107.809 709.336 107.152C708.707 106.492 708.393 105.61 708.393 104.507V104.274C708.393 103.541 708.532 102.887 708.81 102.312C709.092 101.734 709.484 101.283 709.985 100.959C710.491 100.631 711.038 100.467 711.626 100.467C712.588 100.467 713.335 100.784 713.868 101.417C714.401 102.05 714.668 102.957 714.668 104.138V104.664H709.657C709.675 105.393 709.887 105.983 710.293 106.435C710.703 106.881 711.223 107.104 711.852 107.104C712.298 107.104 712.676 107.013 712.986 106.831C713.296 106.649 713.567 106.407 713.8 106.106L714.572 106.708C713.952 107.66 713.023 108.137 711.783 108.137ZM711.626 101.506C711.116 101.506 710.687 101.693 710.341 102.066C709.994 102.436 709.78 102.955 709.698 103.625H713.403V103.529C713.367 102.887 713.194 102.39 712.884 102.039C712.574 101.684 712.155 101.506 711.626 101.506ZM720.704 108C720.631 107.854 720.572 107.594 720.526 107.221C719.938 107.831 719.237 108.137 718.421 108.137C717.692 108.137 717.092 107.932 716.623 107.521C716.158 107.107 715.926 106.583 715.926 105.949C715.926 105.179 716.217 104.582 716.801 104.158C717.389 103.73 718.214 103.516 719.275 103.516H720.506V102.935C720.506 102.493 720.374 102.142 720.109 101.882C719.845 101.618 719.455 101.485 718.94 101.485C718.489 101.485 718.111 101.599 717.806 101.827C717.5 102.055 717.348 102.331 717.348 102.654H716.076C716.076 102.285 716.206 101.93 716.466 101.588C716.73 101.242 717.086 100.968 717.532 100.768C717.983 100.567 718.478 100.467 719.016 100.467C719.868 100.467 720.535 100.681 721.019 101.109C721.502 101.533 721.752 102.119 721.771 102.866V106.271C721.771 106.95 721.857 107.49 722.03 107.891V108H720.704ZM718.605 107.036C719.002 107.036 719.378 106.934 719.733 106.729C720.089 106.523 720.346 106.257 720.506 105.929V104.411H719.515C717.965 104.411 717.19 104.865 717.19 105.771C717.19 106.168 717.323 106.478 717.587 106.701C717.851 106.924 718.191 107.036 718.605 107.036ZM724.942 100.604L724.977 101.424C725.519 100.786 726.25 100.467 727.171 100.467C728.205 100.467 728.91 100.863 729.283 101.656C729.529 101.301 729.848 101.014 730.24 100.795C730.637 100.576 731.104 100.467 731.642 100.467C733.264 100.467 734.089 101.326 734.116 103.044V108H732.852V103.119C732.852 102.59 732.731 102.196 732.489 101.937C732.248 101.672 731.842 101.54 731.272 101.54C730.803 101.54 730.413 101.681 730.104 101.964C729.794 102.242 729.614 102.618 729.563 103.092V108H728.292V103.153C728.292 102.078 727.766 101.54 726.713 101.54C725.883 101.54 725.316 101.893 725.011 102.6V108H723.746V100.604H724.942Z" fill="black"/>
<rect x="599.5" y="39" width="150" height="36" fill="white"/>
<path d="M631.298 58.8418C631.175 59.8945 630.785 60.708 630.129 61.2822C629.477 61.8519 628.609 62.1367 627.524 62.1367C626.349 62.1367 625.405 61.7152 624.694 60.8721C623.988 60.029 623.635 58.901 623.635 57.4883V56.5312C623.635 55.6061 623.799 54.7926 624.127 54.0908C624.46 53.389 624.929 52.8512 625.535 52.4775C626.141 52.0993 626.843 51.9102 627.641 51.9102C628.698 51.9102 629.546 52.2064 630.184 52.7988C630.822 53.3867 631.193 54.2025 631.298 55.2461H629.979C629.865 54.4531 629.616 53.8789 629.233 53.5234C628.855 53.168 628.324 52.9902 627.641 52.9902C626.802 52.9902 626.144 53.3001 625.665 53.9199C625.191 54.5397 624.954 55.4215 624.954 56.5654V57.5293C624.954 58.6094 625.18 59.4684 625.631 60.1064C626.082 60.7445 626.713 61.0635 627.524 61.0635C628.254 61.0635 628.812 60.8994 629.199 60.5713C629.591 60.2386 629.851 59.6621 629.979 58.8418H631.298ZM634.271 62H633.007V51.5H634.271V62ZM637.676 62H636.411V54.6035H637.676V62ZM636.309 52.6416C636.309 52.4365 636.37 52.2633 636.493 52.1221C636.621 51.9808 636.808 51.9102 637.054 51.9102C637.3 51.9102 637.487 51.9808 637.614 52.1221C637.742 52.2633 637.806 52.4365 637.806 52.6416C637.806 52.8467 637.742 53.0176 637.614 53.1543C637.487 53.291 637.3 53.3594 637.054 53.3594C636.808 53.3594 636.621 53.291 636.493 53.1543C636.37 53.0176 636.309 52.8467 636.309 52.6416ZM642.775 62.1367C641.773 62.1367 640.957 61.8086 640.328 61.1523C639.699 60.4915 639.385 59.6097 639.385 58.5068V58.2744C639.385 57.5407 639.524 56.8867 639.802 56.3125C640.084 55.7337 640.476 55.2826 640.978 54.959C641.483 54.6309 642.03 54.4668 642.618 54.4668C643.58 54.4668 644.327 54.7835 644.86 55.417C645.394 56.0505 645.66 56.9574 645.66 58.1377V58.6641H640.649C640.668 59.3932 640.88 59.9834 641.285 60.4346C641.695 60.8812 642.215 61.1045 642.844 61.1045C643.29 61.1045 643.669 61.0133 643.979 60.8311C644.288 60.6488 644.56 60.4072 644.792 60.1064L645.564 60.708C644.945 61.6605 644.015 62.1367 642.775 62.1367ZM642.618 55.5059C642.108 55.5059 641.679 55.6927 641.333 56.0664C640.987 56.4355 640.772 56.9551 640.69 57.625H644.396V57.5293C644.359 56.8867 644.186 56.39 643.876 56.0391C643.566 55.6836 643.147 55.5059 642.618 55.5059ZM648.326 54.6035L648.367 55.5332C648.932 54.8223 649.671 54.4668 650.582 54.4668C652.145 54.4668 652.934 55.3486 652.947 57.1123V62H651.683V57.1055C651.678 56.5723 651.555 56.1781 651.313 55.9229C651.076 55.6676 650.705 55.54 650.199 55.54C649.789 55.54 649.429 55.6494 649.119 55.8682C648.809 56.0869 648.568 56.374 648.395 56.7295V62H647.13V54.6035H648.326ZM656.57 52.8125V54.6035H657.951V55.5811H656.57V60.168C656.57 60.4642 656.632 60.6875 656.755 60.8379C656.878 60.9837 657.088 61.0566 657.384 61.0566C657.53 61.0566 657.73 61.0293 657.985 60.9746V62C657.653 62.0911 657.329 62.1367 657.015 62.1367C656.45 62.1367 656.023 61.9658 655.736 61.624C655.449 61.2822 655.306 60.7969 655.306 60.168V55.5811H653.959V54.6035H655.306V52.8125H656.57ZM666.038 57.5635C664.912 57.2399 664.092 56.8434 663.577 56.374C663.067 55.9001 662.812 55.3167 662.812 54.624C662.812 53.8402 663.124 53.193 663.748 52.6826C664.377 52.1676 665.193 51.9102 666.195 51.9102C666.879 51.9102 667.487 52.0423 668.021 52.3066C668.558 52.571 668.973 52.9355 669.265 53.4004C669.561 53.8652 669.709 54.3734 669.709 54.9248H668.39C668.39 54.3232 668.198 53.8516 667.815 53.5098C667.433 53.1634 666.893 52.9902 666.195 52.9902C665.548 52.9902 665.042 53.1338 664.678 53.4209C664.318 53.7035 664.138 54.0977 664.138 54.6035C664.138 55.0091 664.309 55.3532 664.65 55.6357C664.997 55.9137 665.582 56.1689 666.407 56.4014C667.237 56.6338 667.884 56.8913 668.349 57.1738C668.818 57.4518 669.164 57.7777 669.388 58.1514C669.616 58.5251 669.729 58.9648 669.729 59.4707C669.729 60.2773 669.415 60.9245 668.786 61.4121C668.157 61.8952 667.316 62.1367 666.264 62.1367C665.58 62.1367 664.942 62.0068 664.35 61.7471C663.757 61.4827 663.299 61.1227 662.976 60.667C662.657 60.2113 662.497 59.694 662.497 59.1152H663.816C663.816 59.7168 664.037 60.193 664.479 60.5439C664.926 60.8903 665.521 61.0635 666.264 61.0635C666.956 61.0635 667.487 60.9222 667.856 60.6396C668.226 60.3571 668.41 59.972 668.41 59.4844C668.41 58.9967 668.239 58.6208 667.897 58.3564C667.556 58.0876 666.936 57.8232 666.038 57.5635ZM672.594 62H671.329V54.6035H672.594V62ZM671.227 52.6416C671.227 52.4365 671.288 52.2633 671.411 52.1221C671.539 51.9808 671.726 51.9102 671.972 51.9102C672.218 51.9102 672.405 51.9808 672.532 52.1221C672.66 52.2633 672.724 52.4365 672.724 52.6416C672.724 52.8467 672.66 53.0176 672.532 53.1543C672.405 53.291 672.218 53.3594 671.972 53.3594C671.726 53.3594 671.539 53.291 671.411 53.1543C671.288 53.0176 671.227 52.8467 671.227 52.6416ZM674.316 58.2402C674.316 57.1055 674.585 56.194 675.123 55.5059C675.661 54.8132 676.365 54.4668 677.235 54.4668C678.101 54.4668 678.787 54.763 679.293 55.3555V51.5H680.558V62H679.396L679.334 61.207C678.828 61.8268 678.124 62.1367 677.222 62.1367C676.365 62.1367 675.665 61.7858 675.123 61.084C674.585 60.3822 674.316 59.4661 674.316 58.3359V58.2402ZM675.581 58.3838C675.581 59.2223 675.754 59.8786 676.101 60.3525C676.447 60.8265 676.925 61.0635 677.536 61.0635C678.338 61.0635 678.924 60.7035 679.293 59.9834V56.5859C678.915 55.8887 678.334 55.54 677.55 55.54C676.93 55.54 676.447 55.7793 676.101 56.2578C675.754 56.7363 675.581 57.445 675.581 58.3838ZM685.596 62.1367C684.593 62.1367 683.777 61.8086 683.148 61.1523C682.52 60.4915 682.205 59.6097 682.205 58.5068V58.2744C682.205 57.5407 682.344 56.8867 682.622 56.3125C682.905 55.7337 683.297 55.2826 683.798 54.959C684.304 54.6309 684.851 54.4668 685.438 54.4668C686.4 54.4668 687.147 54.7835 687.681 55.417C688.214 56.0505 688.48 56.9574 688.48 58.1377V58.6641H683.47C683.488 59.3932 683.7 59.9834 684.105 60.4346C684.516 60.8812 685.035 61.1045 685.664 61.1045C686.111 61.1045 686.489 61.0133 686.799 60.8311C687.109 60.6488 687.38 60.4072 687.612 60.1064L688.385 60.708C687.765 61.6605 686.835 62.1367 685.596 62.1367ZM685.438 55.5059C684.928 55.5059 684.5 55.6927 684.153 56.0664C683.807 56.4355 683.593 56.9551 683.511 57.625H687.216V57.5293C687.179 56.8867 687.006 56.39 686.696 56.0391C686.386 55.6836 685.967 55.5059 685.438 55.5059ZM700.225 53.127H697.025V62H695.72V53.127H692.527V52.0469H700.225V53.127ZM703.889 62.1367C702.886 62.1367 702.07 61.8086 701.441 61.1523C700.812 60.4915 700.498 59.6097 700.498 58.5068V58.2744C700.498 57.5407 700.637 56.8867 700.915 56.3125C701.198 55.7337 701.59 55.2826 702.091 54.959C702.597 54.6309 703.144 54.4668 703.731 54.4668C704.693 54.4668 705.44 54.7835 705.974 55.417C706.507 56.0505 706.773 56.9574 706.773 58.1377V58.6641H701.763C701.781 59.3932 701.993 59.9834 702.398 60.4346C702.809 60.8812 703.328 61.1045 703.957 61.1045C704.404 61.1045 704.782 61.0133 705.092 60.8311C705.402 60.6488 705.673 60.4072 705.905 60.1064L706.678 60.708C706.058 61.6605 705.128 62.1367 703.889 62.1367ZM703.731 55.5059C703.221 55.5059 702.793 55.6927 702.446 56.0664C702.1 56.4355 701.886 56.9551 701.804 57.625H705.509V57.5293C705.472 56.8867 705.299 56.39 704.989 56.0391C704.679 55.6836 704.26 55.5059 703.731 55.5059ZM712.81 62C712.737 61.8542 712.677 61.5944 712.632 61.2207C712.044 61.8314 711.342 62.1367 710.526 62.1367C709.797 62.1367 709.198 61.9316 708.729 61.5215C708.264 61.1068 708.031 60.5827 708.031 59.9492C708.031 59.179 708.323 58.582 708.906 58.1582C709.494 57.7298 710.319 57.5156 711.381 57.5156H712.611V56.9346C712.611 56.4925 712.479 56.1416 712.215 55.8818C711.951 55.6175 711.561 55.4854 711.046 55.4854C710.595 55.4854 710.216 55.5993 709.911 55.8271C709.606 56.055 709.453 56.3307 709.453 56.6543H708.182C708.182 56.2852 708.312 55.9297 708.571 55.5879C708.836 55.2415 709.191 54.9681 709.638 54.7676C710.089 54.5671 710.583 54.4668 711.121 54.4668C711.973 54.4668 712.641 54.681 713.124 55.1094C713.607 55.5332 713.858 56.1188 713.876 56.8662V60.2705C713.876 60.9495 713.963 61.4896 714.136 61.8906V62H712.81ZM710.711 61.0361C711.107 61.0361 711.483 60.9336 711.839 60.7285C712.194 60.5234 712.452 60.2568 712.611 59.9287V58.4111H711.62C710.071 58.4111 709.296 58.8646 709.296 59.7715C709.296 60.168 709.428 60.4779 709.692 60.7012C709.957 60.9245 710.296 61.0361 710.711 61.0361ZM717.048 54.6035L717.082 55.4238C717.624 54.7858 718.356 54.4668 719.276 54.4668C720.311 54.4668 721.015 54.8633 721.389 55.6562C721.635 55.3008 721.954 55.0137 722.346 54.7949C722.742 54.5762 723.209 54.4668 723.747 54.4668C725.369 54.4668 726.194 55.3258 726.222 57.0439V62H724.957V57.1191C724.957 56.5905 724.836 56.1963 724.595 55.9365C724.353 55.6722 723.948 55.54 723.378 55.54C722.909 55.54 722.519 55.6813 722.209 55.9639C721.899 56.2419 721.719 56.6178 721.669 57.0918V62H720.397V57.1533C720.397 56.0778 719.871 55.54 718.818 55.54C717.989 55.54 717.422 55.8932 717.116 56.5996V62H715.852V54.6035H717.048Z" fill="#FF0000"/>
</svg>
