<svg width="1440" height="1024" viewBox="0 0 1440 1024" fill="none" xmlns="http://www.w3.org/2000/svg">
<rect width="1440" height="1024" fill="white"/>
<rect width="1440" height="60" fill="black"/>
<path d="M36.6475 33.8955C36.4814 36.1904 35.6318 37.9971 34.0986 39.3154C32.5752 40.6338 30.5635 41.293 28.0635 41.293C25.3291 41.293 23.1758 40.375 21.6035 38.5391C20.041 36.6934 19.2598 34.1641 19.2598 30.9512V29.6475C19.2598 27.5967 19.6211 25.79 20.3438 24.2275C21.0664 22.665 22.0967 21.4688 23.4346 20.6387C24.7822 19.7988 26.3447 19.3789 28.1221 19.3789C30.583 19.3789 32.5654 20.0381 34.0693 21.3564C35.5732 22.6748 36.4424 24.5254 36.6768 26.9082H32.2822C32.1748 25.5312 31.7891 24.5352 31.125 23.9199C30.4707 23.2949 29.4697 22.9824 28.1221 22.9824C26.6572 22.9824 25.5586 23.5098 24.8262 24.5645C24.1035 25.6094 23.7324 27.2354 23.7129 29.4424V31.0537C23.7129 33.3584 24.0596 35.043 24.7529 36.1074C25.4561 37.1719 26.5596 37.7041 28.0635 37.7041C29.4209 37.7041 30.4316 37.3965 31.0957 36.7812C31.7695 36.1562 32.1553 35.1943 32.2529 33.8955H36.6475ZM43.9277 37.4697H53.2588V41H39.5332V19.6719H43.9277V37.4697ZM60.4658 41H56.0713V19.6719H60.4658V41ZM77.3848 31.7568H68.9473V37.4697H78.8496V41H64.5527V19.6719H78.8203V23.2314H68.9473V28.3145H77.3848V31.7568ZM98.7715 41H94.377L85.8223 26.9668V41H81.4277V19.6719H85.8223L94.3916 33.7344V19.6719H98.7715V41ZM118.225 23.2314H111.691V41H107.297V23.2314H100.852V19.6719H118.225V23.2314ZM131.73 33.4854V41H127.336V19.6719H135.656C137.258 19.6719 138.664 19.9648 139.875 20.5508C141.096 21.1367 142.033 21.9717 142.688 23.0557C143.342 24.1299 143.669 25.3555 143.669 26.7324C143.669 28.8223 142.951 30.4727 141.516 31.6836C140.09 32.8848 138.112 33.4854 135.583 33.4854H131.73ZM131.73 29.9258H135.656C136.818 29.9258 137.702 29.6523 138.308 29.1055C138.923 28.5586 139.23 27.7773 139.23 26.7617C139.23 25.7168 138.923 24.8721 138.308 24.2275C137.692 23.583 136.843 23.251 135.759 23.2314H131.73V29.9258ZM164.221 30.8193C164.221 32.9189 163.85 34.7598 163.107 36.3418C162.365 37.9238 161.301 39.1445 159.914 40.0039C158.537 40.8633 156.955 41.293 155.168 41.293C153.4 41.293 151.823 40.8682 150.437 40.0186C149.05 39.1689 147.976 37.958 147.214 36.3857C146.452 34.8037 146.066 32.9873 146.057 30.9365V29.8818C146.057 27.7822 146.433 25.9365 147.185 24.3447C147.946 22.7432 149.016 21.5176 150.393 20.668C151.779 19.8086 153.361 19.3789 155.139 19.3789C156.916 19.3789 158.493 19.8086 159.87 20.668C161.257 21.5176 162.326 22.7432 163.078 24.3447C163.84 25.9365 164.221 27.7773 164.221 29.8672V30.8193ZM159.768 29.8525C159.768 27.6162 159.367 25.917 158.566 24.7549C157.766 23.5928 156.623 23.0117 155.139 23.0117C153.664 23.0117 152.526 23.5879 151.726 24.7402C150.925 25.8828 150.52 27.5625 150.51 29.7793V30.8193C150.51 32.9971 150.91 34.6865 151.711 35.8877C152.512 37.0889 153.664 37.6895 155.168 37.6895C156.643 37.6895 157.775 37.1133 158.566 35.9609C159.357 34.7988 159.758 33.1094 159.768 30.8926V29.8525ZM175.31 33.1924H171.809V41H167.414V19.6719H175.339C177.858 19.6719 179.802 20.2334 181.169 21.3564C182.536 22.4795 183.22 24.0664 183.22 26.1172C183.22 27.5723 182.902 28.7881 182.268 29.7646C181.643 30.7314 180.69 31.5029 179.411 32.0791L184.025 40.7949V41H179.309L175.31 33.1924ZM171.809 29.6328H175.354C176.457 29.6328 177.312 29.3545 177.917 28.7979C178.522 28.2314 178.825 27.4551 178.825 26.4688C178.825 25.4629 178.537 24.6719 177.961 24.0957C177.395 23.5195 176.521 23.2314 175.339 23.2314H171.809V29.6328ZM201.896 23.2314H195.363V41H190.969V23.2314H184.523V19.6719H201.896V23.2314ZM214.699 36.6055H206.994L205.529 41H200.856L208.796 19.6719H212.868L220.852 41H216.179L214.699 36.6055ZM208.181 33.0459H213.513L210.832 25.0625L208.181 33.0459ZM227.238 37.4697H236.569V41H222.844V19.6719H227.238V37.4697Z" fill="white"/>
<rect x="49" y="102" width="312" height="878" fill="#F2F2F2"/>
<circle cx="205.5" cy="193.5" r="61.5" fill="white"/>
<path d="M143.602 298.586C143.391 300.391 142.723 301.785 141.598 302.77C140.48 303.746 138.992 304.234 137.133 304.234C135.117 304.234 133.5 303.512 132.281 302.066C131.07 300.621 130.465 298.688 130.465 296.266V294.625C130.465 293.039 130.746 291.645 131.309 290.441C131.879 289.238 132.684 288.316 133.723 287.676C134.762 287.027 135.965 286.703 137.332 286.703C139.145 286.703 140.598 287.211 141.691 288.227C142.785 289.234 143.422 290.633 143.602 292.422H141.34C141.145 291.062 140.719 290.078 140.062 289.469C139.414 288.859 138.504 288.555 137.332 288.555C135.895 288.555 134.766 289.086 133.945 290.148C133.133 291.211 132.727 292.723 132.727 294.684V296.336C132.727 298.188 133.113 299.66 133.887 300.754C134.66 301.848 135.742 302.395 137.133 302.395C138.383 302.395 139.34 302.113 140.004 301.551C140.676 300.98 141.121 299.992 141.34 298.586H143.602ZM148.945 302.16H157.031V304H146.684V286.938H148.945V302.16ZM162.012 304H159.762V286.938H162.012V304ZM175.781 296.113H168.387V302.16H176.977V304H166.137V286.938H176.859V288.789H168.387V294.273H175.781V296.113ZM192.891 304H190.629L182.039 290.852V304H179.777V286.938H182.039L190.652 300.145V286.938H192.891V304ZM208.324 288.789H202.84V304H200.602V288.789H195.129V286.938H208.324V288.789ZM229.453 304H227.191L218.602 290.852V304H216.34V286.938H218.602L227.215 300.145V286.938H229.453V304ZM243.082 299.547H235.934L234.328 304H232.008L238.523 286.938H240.492L247.02 304H244.711L243.082 299.547ZM236.613 297.695H242.414L239.508 289.715L236.613 297.695ZM252.223 286.938L257.801 300.859L263.379 286.938H266.297V304H264.047V297.355L264.258 290.184L258.656 304H256.934L251.344 290.219L251.566 297.355V304H249.316V286.938H252.223ZM279.914 296.113H272.52V302.16H281.109V304H270.27V286.938H280.992V288.789H272.52V294.273H279.914V296.113Z" fill="black"/>
<line x1="77" y1="328.5" x2="333" y2="328.5" stroke="black"/>
<path d="M91.5312 364.586C91.3203 366.391 90.6523 367.785 89.5273 368.77C88.4102 369.746 86.9219 370.234 85.0625 370.234C83.0469 370.234 81.4297 369.512 80.2109 368.066C79 366.621 78.3945 364.688 78.3945 362.266V360.625C78.3945 359.039 78.6758 357.645 79.2383 356.441C79.8086 355.238 80.6133 354.316 81.6523 353.676C82.6914 353.027 83.8945 352.703 85.2617 352.703C87.0742 352.703 88.5273 353.211 89.6211 354.227C90.7148 355.234 91.3516 356.633 91.5312 358.422H89.2695C89.0742 357.062 88.6484 356.078 87.9922 355.469C87.3438 354.859 86.4336 354.555 85.2617 354.555C83.8242 354.555 82.6953 355.086 81.875 356.148C81.0625 357.211 80.6562 358.723 80.6562 360.684V362.336C80.6562 364.188 81.043 365.66 81.8164 366.754C82.5898 367.848 83.6719 368.395 85.0625 368.395C86.3125 368.395 87.2695 368.113 87.9336 367.551C88.6055 366.98 89.0508 365.992 89.2695 364.586H91.5312ZM96.6289 370H94.4609V352H96.6289V370ZM102.465 370H100.297V357.32H102.465V370ZM100.121 353.957C100.121 353.605 100.227 353.309 100.438 353.066C100.656 352.824 100.977 352.703 101.398 352.703C101.82 352.703 102.141 352.824 102.359 353.066C102.578 353.309 102.688 353.605 102.688 353.957C102.688 354.309 102.578 354.602 102.359 354.836C102.141 355.07 101.82 355.188 101.398 355.188C100.977 355.188 100.656 355.07 100.438 354.836C100.227 354.602 100.121 354.309 100.121 353.957ZM111.207 370.234C109.488 370.234 108.09 369.672 107.012 368.547C105.934 367.414 105.395 365.902 105.395 364.012V363.613C105.395 362.355 105.633 361.234 106.109 360.25C106.594 359.258 107.266 358.484 108.125 357.93C108.992 357.367 109.93 357.086 110.938 357.086C112.586 357.086 113.867 357.629 114.781 358.715C115.695 359.801 116.152 361.355 116.152 363.379V364.281H107.562C107.594 365.531 107.957 366.543 108.652 367.316C109.355 368.082 110.246 368.465 111.324 368.465C112.09 368.465 112.738 368.309 113.27 367.996C113.801 367.684 114.266 367.27 114.664 366.754L115.988 367.785C114.926 369.418 113.332 370.234 111.207 370.234ZM110.938 358.867C110.062 358.867 109.328 359.188 108.734 359.828C108.141 360.461 107.773 361.352 107.633 362.5H113.984V362.336C113.922 361.234 113.625 360.383 113.094 359.781C112.562 359.172 111.844 358.867 110.938 358.867ZM120.723 357.32L120.793 358.914C121.762 357.695 123.027 357.086 124.59 357.086C127.27 357.086 128.621 358.598 128.645 361.621V370H126.477V361.609C126.469 360.695 126.258 360.02 125.844 359.582C125.438 359.145 124.801 358.926 123.934 358.926C123.23 358.926 122.613 359.113 122.082 359.488C121.551 359.863 121.137 360.355 120.84 360.965V370H118.672V357.32H120.723ZM134.855 354.25V357.32H137.223V358.996H134.855V366.859C134.855 367.367 134.961 367.75 135.172 368.008C135.383 368.258 135.742 368.383 136.25 368.383C136.5 368.383 136.844 368.336 137.281 368.242V370C136.711 370.156 136.156 370.234 135.617 370.234C134.648 370.234 133.918 369.941 133.426 369.355C132.934 368.77 132.688 367.938 132.688 366.859V358.996H130.379V357.32H132.688V354.25H134.855ZM148.66 354.25V357.32H151.027V358.996H148.66V366.859C148.66 367.367 148.766 367.75 148.977 368.008C149.188 368.258 149.547 368.383 150.055 368.383C150.305 368.383 150.648 368.336 151.086 368.242V370C150.516 370.156 149.961 370.234 149.422 370.234C148.453 370.234 147.723 369.941 147.23 369.355C146.738 368.77 146.492 367.938 146.492 366.859V358.996H144.184V357.32H146.492V354.25H148.66ZM158.832 370.234C157.113 370.234 155.715 369.672 154.637 368.547C153.559 367.414 153.02 365.902 153.02 364.012V363.613C153.02 362.355 153.258 361.234 153.734 360.25C154.219 359.258 154.891 358.484 155.75 357.93C156.617 357.367 157.555 357.086 158.562 357.086C160.211 357.086 161.492 357.629 162.406 358.715C163.32 359.801 163.777 361.355 163.777 363.379V364.281H155.188C155.219 365.531 155.582 366.543 156.277 367.316C156.98 368.082 157.871 368.465 158.949 368.465C159.715 368.465 160.363 368.309 160.895 367.996C161.426 367.684 161.891 367.27 162.289 366.754L163.613 367.785C162.551 369.418 160.957 370.234 158.832 370.234ZM158.562 358.867C157.688 358.867 156.953 359.188 156.359 359.828C155.766 360.461 155.398 361.352 155.258 362.5H161.609V362.336C161.547 361.234 161.25 360.383 160.719 359.781C160.188 359.172 159.469 358.867 158.562 358.867ZM174.125 370C174 369.75 173.898 369.305 173.82 368.664C172.812 369.711 171.609 370.234 170.211 370.234C168.961 370.234 167.934 369.883 167.129 369.18C166.332 368.469 165.934 367.57 165.934 366.484C165.934 365.164 166.434 364.141 167.434 363.414C168.441 362.68 169.855 362.312 171.676 362.312H173.785V361.316C173.785 360.559 173.559 359.957 173.105 359.512C172.652 359.059 171.984 358.832 171.102 358.832C170.328 358.832 169.68 359.027 169.156 359.418C168.633 359.809 168.371 360.281 168.371 360.836H166.191C166.191 360.203 166.414 359.594 166.859 359.008C167.312 358.414 167.922 357.945 168.688 357.602C169.461 357.258 170.309 357.086 171.23 357.086C172.691 357.086 173.836 357.453 174.664 358.188C175.492 358.914 175.922 359.918 175.953 361.199V367.035C175.953 368.199 176.102 369.125 176.398 369.812V370H174.125ZM170.527 368.348C171.207 368.348 171.852 368.172 172.461 367.82C173.07 367.469 173.512 367.012 173.785 366.449V363.848H172.086C169.43 363.848 168.102 364.625 168.102 366.18C168.102 366.859 168.328 367.391 168.781 367.773C169.234 368.156 169.816 368.348 170.527 368.348ZM181.391 357.32L181.449 358.727C182.379 357.633 183.633 357.086 185.211 357.086C186.984 357.086 188.191 357.766 188.832 359.125C189.254 358.516 189.801 358.023 190.473 357.648C191.152 357.273 191.953 357.086 192.875 357.086C195.656 357.086 197.07 358.559 197.117 361.504V370H194.949V361.633C194.949 360.727 194.742 360.051 194.328 359.605C193.914 359.152 193.219 358.926 192.242 358.926C191.438 358.926 190.77 359.168 190.238 359.652C189.707 360.129 189.398 360.773 189.312 361.586V370H187.133V361.691C187.133 359.848 186.23 358.926 184.426 358.926C183.004 358.926 182.031 359.531 181.508 360.742V370H179.34V357.32H181.391Z" fill="black"/>
<path d="M91.5312 647.586C91.3203 649.391 90.6523 650.785 89.5273 651.77C88.4102 652.746 86.9219 653.234 85.0625 653.234C83.0469 653.234 81.4297 652.512 80.2109 651.066C79 649.621 78.3945 647.688 78.3945 645.266V643.625C78.3945 642.039 78.6758 640.645 79.2383 639.441C79.8086 638.238 80.6133 637.316 81.6523 636.676C82.6914 636.027 83.8945 635.703 85.2617 635.703C87.0742 635.703 88.5273 636.211 89.6211 637.227C90.7148 638.234 91.3516 639.633 91.5312 641.422H89.2695C89.0742 640.062 88.6484 639.078 87.9922 638.469C87.3438 637.859 86.4336 637.555 85.2617 637.555C83.8242 637.555 82.6953 638.086 81.875 639.148C81.0625 640.211 80.6562 641.723 80.6562 643.684V645.336C80.6562 647.188 81.043 648.66 81.8164 649.754C82.5898 650.848 83.6719 651.395 85.0625 651.395C86.3125 651.395 87.2695 651.113 87.9336 650.551C88.6055 649.98 89.0508 648.992 89.2695 647.586H91.5312ZM96.6289 653H94.4609V635H96.6289V653ZM102.465 653H100.297V640.32H102.465V653ZM100.121 636.957C100.121 636.605 100.227 636.309 100.438 636.066C100.656 635.824 100.977 635.703 101.398 635.703C101.82 635.703 102.141 635.824 102.359 636.066C102.578 636.309 102.688 636.605 102.688 636.957C102.688 637.309 102.578 637.602 102.359 637.836C102.141 638.07 101.82 638.188 101.398 638.188C100.977 638.188 100.656 638.07 100.438 637.836C100.227 637.602 100.121 637.309 100.121 636.957ZM111.207 653.234C109.488 653.234 108.09 652.672 107.012 651.547C105.934 650.414 105.395 648.902 105.395 647.012V646.613C105.395 645.355 105.633 644.234 106.109 643.25C106.594 642.258 107.266 641.484 108.125 640.93C108.992 640.367 109.93 640.086 110.938 640.086C112.586 640.086 113.867 640.629 114.781 641.715C115.695 642.801 116.152 644.355 116.152 646.379V647.281H107.562C107.594 648.531 107.957 649.543 108.652 650.316C109.355 651.082 110.246 651.465 111.324 651.465C112.09 651.465 112.738 651.309 113.27 650.996C113.801 650.684 114.266 650.27 114.664 649.754L115.988 650.785C114.926 652.418 113.332 653.234 111.207 653.234ZM110.938 641.867C110.062 641.867 109.328 642.188 108.734 642.828C108.141 643.461 107.773 644.352 107.633 645.5H113.984V645.336C113.922 644.234 113.625 643.383 113.094 642.781C112.562 642.172 111.844 641.867 110.938 641.867ZM120.723 640.32L120.793 641.914C121.762 640.695 123.027 640.086 124.59 640.086C127.27 640.086 128.621 641.598 128.645 644.621V653H126.477V644.609C126.469 643.695 126.258 643.02 125.844 642.582C125.438 642.145 124.801 641.926 123.934 641.926C123.23 641.926 122.613 642.113 122.082 642.488C121.551 642.863 121.137 643.355 120.84 643.965V653H118.672V640.32H120.723ZM134.855 637.25V640.32H137.223V641.996H134.855V649.859C134.855 650.367 134.961 650.75 135.172 651.008C135.383 651.258 135.742 651.383 136.25 651.383C136.5 651.383 136.844 651.336 137.281 651.242V653C136.711 653.156 136.156 653.234 135.617 653.234C134.648 653.234 133.918 652.941 133.426 652.355C132.934 651.77 132.688 650.938 132.688 649.859V641.996H130.379V640.32H132.688V637.25H134.855ZM148.309 646.32V653H146.059V635.938H152.352C154.219 635.938 155.68 636.414 156.734 637.367C157.797 638.32 158.328 639.582 158.328 641.152C158.328 642.809 157.809 644.086 156.77 644.984C155.738 645.875 154.258 646.32 152.328 646.32H148.309ZM148.309 644.48H152.352C153.555 644.48 154.477 644.199 155.117 643.637C155.758 643.066 156.078 642.246 156.078 641.176C156.078 640.16 155.758 639.348 155.117 638.738C154.477 638.129 153.598 637.812 152.48 637.789H148.309V644.48ZM166.988 642.266C166.66 642.211 166.305 642.184 165.922 642.184C164.5 642.184 163.535 642.789 163.027 644V653H160.859V640.32H162.969L163.004 641.785C163.715 640.652 164.723 640.086 166.027 640.086C166.449 640.086 166.77 640.141 166.988 640.25V642.266ZM168.184 646.543C168.184 645.301 168.426 644.184 168.91 643.191C169.402 642.199 170.082 641.434 170.949 640.895C171.824 640.355 172.82 640.086 173.938 640.086C175.664 640.086 177.059 640.684 178.121 641.879C179.191 643.074 179.727 644.664 179.727 646.648V646.801C179.727 648.035 179.488 649.145 179.012 650.129C178.543 651.105 177.867 651.867 176.984 652.414C176.109 652.961 175.102 653.234 173.961 653.234C172.242 653.234 170.848 652.637 169.777 651.441C168.715 650.246 168.184 648.664 168.184 646.695V646.543ZM170.363 646.801C170.363 648.207 170.688 649.336 171.336 650.188C171.992 651.039 172.867 651.465 173.961 651.465C175.062 651.465 175.938 651.035 176.586 650.176C177.234 649.309 177.559 648.098 177.559 646.543C177.559 645.152 177.227 644.027 176.562 643.168C175.906 642.301 175.031 641.867 173.938 641.867C172.867 641.867 172.004 642.293 171.348 643.145C170.691 643.996 170.363 645.215 170.363 646.801ZM187.531 651.465C188.305 651.465 188.98 651.23 189.559 650.762C190.137 650.293 190.457 649.707 190.52 649.004H192.57C192.531 649.73 192.281 650.422 191.82 651.078C191.359 651.734 190.742 652.258 189.969 652.648C189.203 653.039 188.391 653.234 187.531 653.234C185.805 653.234 184.43 652.66 183.406 651.512C182.391 650.355 181.883 648.777 181.883 646.777V646.414C181.883 645.18 182.109 644.082 182.562 643.121C183.016 642.16 183.664 641.414 184.508 640.883C185.359 640.352 186.363 640.086 187.52 640.086C188.941 640.086 190.121 640.512 191.059 641.363C192.004 642.215 192.508 643.32 192.57 644.68H190.52C190.457 643.859 190.145 643.188 189.582 642.664C189.027 642.133 188.34 641.867 187.52 641.867C186.418 641.867 185.562 642.266 184.953 643.062C184.352 643.852 184.051 644.996 184.051 646.496V646.906C184.051 648.367 184.352 649.492 184.953 650.281C185.555 651.07 186.414 651.465 187.531 651.465ZM200.27 653.234C198.551 653.234 197.152 652.672 196.074 651.547C194.996 650.414 194.457 648.902 194.457 647.012V646.613C194.457 645.355 194.695 644.234 195.172 643.25C195.656 642.258 196.328 641.484 197.188 640.93C198.055 640.367 198.992 640.086 200 640.086C201.648 640.086 202.93 640.629 203.844 641.715C204.758 642.801 205.215 644.355 205.215 646.379V647.281H196.625C196.656 648.531 197.02 649.543 197.715 650.316C198.418 651.082 199.309 651.465 200.387 651.465C201.152 651.465 201.801 651.309 202.332 650.996C202.863 650.684 203.328 650.27 203.727 649.754L205.051 650.785C203.988 652.418 202.395 653.234 200.27 653.234ZM200 641.867C199.125 641.867 198.391 642.188 197.797 642.828C197.203 643.461 196.836 644.352 196.695 645.5H203.047V645.336C202.984 644.234 202.688 643.383 202.156 642.781C201.625 642.172 200.906 641.867 200 641.867ZM207.207 646.555C207.207 644.609 207.668 643.047 208.59 641.867C209.512 640.68 210.719 640.086 212.211 640.086C213.695 640.086 214.871 640.594 215.738 641.609V635H217.906V653H215.914L215.809 651.641C214.941 652.703 213.734 653.234 212.188 653.234C210.719 653.234 209.52 652.633 208.59 651.43C207.668 650.227 207.207 648.656 207.207 646.719V646.555ZM209.375 646.801C209.375 648.238 209.672 649.363 210.266 650.176C210.859 650.988 211.68 651.395 212.727 651.395C214.102 651.395 215.105 650.777 215.738 649.543V643.719C215.09 642.523 214.094 641.926 212.75 641.926C211.688 641.926 210.859 642.336 210.266 643.156C209.672 643.977 209.375 645.191 209.375 646.801ZM229.109 651.746C228.266 652.738 227.027 653.234 225.395 653.234C224.043 653.234 223.012 652.844 222.301 652.062C221.598 651.273 221.242 650.109 221.234 648.57V640.32H223.402V648.512C223.402 650.434 224.184 651.395 225.746 651.395C227.402 651.395 228.504 650.777 229.051 649.543V640.32H231.219V653H229.156L229.109 651.746ZM240.652 642.266C240.324 642.211 239.969 642.184 239.586 642.184C238.164 642.184 237.199 642.789 236.691 644V653H234.523V640.32H236.633L236.668 641.785C237.379 640.652 238.387 640.086 239.691 640.086C240.113 640.086 240.434 640.141 240.652 640.25V642.266ZM247.684 653.234C245.965 653.234 244.566 652.672 243.488 651.547C242.41 650.414 241.871 648.902 241.871 647.012V646.613C241.871 645.355 242.109 644.234 242.586 643.25C243.07 642.258 243.742 641.484 244.602 640.93C245.469 640.367 246.406 640.086 247.414 640.086C249.062 640.086 250.344 640.629 251.258 641.715C252.172 642.801 252.629 644.355 252.629 646.379V647.281H244.039C244.07 648.531 244.434 649.543 245.129 650.316C245.832 651.082 246.723 651.465 247.801 651.465C248.566 651.465 249.215 651.309 249.746 650.996C250.277 650.684 250.742 650.27 251.141 649.754L252.465 650.785C251.402 652.418 249.809 653.234 247.684 653.234ZM247.414 641.867C246.539 641.867 245.805 642.188 245.211 642.828C244.617 643.461 244.25 644.352 244.109 645.5H250.461V645.336C250.398 644.234 250.102 643.383 249.57 642.781C249.039 642.172 248.32 641.867 247.414 641.867ZM262.531 649.637C262.531 649.051 262.309 648.598 261.863 648.277C261.426 647.949 260.656 647.668 259.555 647.434C258.461 647.199 257.59 646.918 256.941 646.59C256.301 646.262 255.824 645.871 255.512 645.418C255.207 644.965 255.055 644.426 255.055 643.801C255.055 642.762 255.492 641.883 256.367 641.164C257.25 640.445 258.375 640.086 259.742 640.086C261.18 640.086 262.344 640.457 263.234 641.199C264.133 641.941 264.582 642.891 264.582 644.047H262.402C262.402 643.453 262.148 642.941 261.641 642.512C261.141 642.082 260.508 641.867 259.742 641.867C258.953 641.867 258.336 642.039 257.891 642.383C257.445 642.727 257.223 643.176 257.223 643.73C257.223 644.254 257.43 644.648 257.844 644.914C258.258 645.18 259.004 645.434 260.082 645.676C261.168 645.918 262.047 646.207 262.719 646.543C263.391 646.879 263.887 647.285 264.207 647.762C264.535 648.23 264.699 648.805 264.699 649.484C264.699 650.617 264.246 651.527 263.34 652.215C262.434 652.895 261.258 653.234 259.812 653.234C258.797 653.234 257.898 653.055 257.117 652.695C256.336 652.336 255.723 651.836 255.277 651.195C254.84 650.547 254.621 649.848 254.621 649.098H256.789C256.828 649.824 257.117 650.402 257.656 650.832C258.203 651.254 258.922 651.465 259.812 651.465C260.633 651.465 261.289 651.301 261.781 650.973C262.281 650.637 262.531 650.191 262.531 649.637Z" fill="black"/>
<rect x="398" y="102" width="142.286" height="53" fill="black"/>
<rect x="398.5" y="102.5" width="141.286" height="52" stroke="black" stroke-opacity="0.2"/>
<rect x="540" y="102" width="142.286" height="53" fill="#F2F2F2"/>
<rect x="540.5" y="102.5" width="141.286" height="52" stroke="black" stroke-opacity="0.2"/>
<rect x="682" y="102" width="142.286" height="53" fill="#F2F2F2"/>
<rect x="682.5" y="102.5" width="141.286" height="52" stroke="black" stroke-opacity="0.2"/>
<rect x="824" y="102" width="142.286" height="53" fill="#F2F2F2"/>
<rect x="824.5" y="102.5" width="141.286" height="52" stroke="black" stroke-opacity="0.2"/>
<rect x="966" y="102" width="142.286" height="53" fill="#F2F2F2"/>
<rect x="966.5" y="102.5" width="141.286" height="52" stroke="black" stroke-opacity="0.2"/>
<rect x="1108" y="102" width="142.286" height="53" fill="#F2F2F2"/>
<rect x="1108.5" y="102.5" width="141.286" height="52" stroke="black" stroke-opacity="0.2"/>
<rect x="1250" y="102" width="142.286" height="53" fill="#F2F2F2"/>
<rect x="1250.5" y="102.5" width="141.286" height="52" stroke="black" stroke-opacity="0.2"/>
<path d="M427.23 130.32V137H424.98V119.938H431.273C433.141 119.938 434.602 120.414 435.656 121.367C436.719 122.32 437.25 123.582 437.25 125.152C437.25 126.809 436.73 128.086 435.691 128.984C434.66 129.875 433.18 130.32 431.25 130.32H427.23ZM427.23 128.48H431.273C432.477 128.48 433.398 128.199 434.039 127.637C434.68 127.066 435 126.246 435 125.176C435 124.16 434.68 123.348 434.039 122.738C433.398 122.129 432.52 121.812 431.402 121.789H427.23V128.48ZM439.043 130.543C439.043 129.301 439.285 128.184 439.77 127.191C440.262 126.199 440.941 125.434 441.809 124.895C442.684 124.355 443.68 124.086 444.797 124.086C446.523 124.086 447.918 124.684 448.98 125.879C450.051 127.074 450.586 128.664 450.586 130.648V130.801C450.586 132.035 450.348 133.145 449.871 134.129C449.402 135.105 448.727 135.867 447.844 136.414C446.969 136.961 445.961 137.234 444.82 137.234C443.102 137.234 441.707 136.637 440.637 135.441C439.574 134.246 439.043 132.664 439.043 130.695V130.543ZM441.223 130.801C441.223 132.207 441.547 133.336 442.195 134.188C442.852 135.039 443.727 135.465 444.82 135.465C445.922 135.465 446.797 135.035 447.445 134.176C448.094 133.309 448.418 132.098 448.418 130.543C448.418 129.152 448.086 128.027 447.422 127.168C446.766 126.301 445.891 125.867 444.797 125.867C443.727 125.867 442.863 126.293 442.207 127.145C441.551 127.996 441.223 129.215 441.223 130.801ZM459.434 126.266C459.105 126.211 458.75 126.184 458.367 126.184C456.945 126.184 455.98 126.789 455.473 128V137H453.305V124.32H455.414L455.449 125.785C456.16 124.652 457.168 124.086 458.473 124.086C458.895 124.086 459.215 124.141 459.434 124.25V126.266ZM464.965 121.25V124.32H467.332V125.996H464.965V133.859C464.965 134.367 465.07 134.75 465.281 135.008C465.492 135.258 465.852 135.383 466.359 135.383C466.609 135.383 466.953 135.336 467.391 135.242V137C466.82 137.156 466.266 137.234 465.727 137.234C464.758 137.234 464.027 136.941 463.535 136.355C463.043 135.77 462.797 134.938 462.797 133.859V125.996H460.488V124.32H462.797V121.25H464.965ZM470.941 137V125.996H468.938V124.32H470.941V123.02C470.941 121.66 471.305 120.609 472.031 119.867C472.758 119.125 473.785 118.754 475.113 118.754C475.613 118.754 476.109 118.82 476.602 118.953L476.484 120.711C476.117 120.641 475.727 120.605 475.312 120.605C474.609 120.605 474.066 120.812 473.684 121.227C473.301 121.633 473.109 122.219 473.109 122.984V124.32H475.816V125.996H473.109V137H470.941ZM477.645 130.543C477.645 129.301 477.887 128.184 478.371 127.191C478.863 126.199 479.543 125.434 480.41 124.895C481.285 124.355 482.281 124.086 483.398 124.086C485.125 124.086 486.52 124.684 487.582 125.879C488.652 127.074 489.188 128.664 489.188 130.648V130.801C489.188 132.035 488.949 133.145 488.473 134.129C488.004 135.105 487.328 135.867 486.445 136.414C485.57 136.961 484.562 137.234 483.422 137.234C481.703 137.234 480.309 136.637 479.238 135.441C478.176 134.246 477.645 132.664 477.645 130.695V130.543ZM479.824 130.801C479.824 132.207 480.148 133.336 480.797 134.188C481.453 135.039 482.328 135.465 483.422 135.465C484.523 135.465 485.398 135.035 486.047 134.176C486.695 133.309 487.02 132.098 487.02 130.543C487.02 129.152 486.688 128.027 486.023 127.168C485.367 126.301 484.492 125.867 483.398 125.867C482.328 125.867 481.465 126.293 480.809 127.145C480.152 127.996 479.824 129.215 479.824 130.801ZM494.262 137H492.094V119H494.262V137ZM500.098 137H497.93V124.32H500.098V137ZM497.754 120.957C497.754 120.605 497.859 120.309 498.07 120.066C498.289 119.824 498.609 119.703 499.031 119.703C499.453 119.703 499.773 119.824 499.992 120.066C500.211 120.309 500.32 120.605 500.32 120.957C500.32 121.309 500.211 121.602 499.992 121.836C499.773 122.07 499.453 122.188 499.031 122.188C498.609 122.188 498.289 122.07 498.07 121.836C497.859 121.602 497.754 121.309 497.754 120.957ZM503.004 130.543C503.004 129.301 503.246 128.184 503.73 127.191C504.223 126.199 504.902 125.434 505.77 124.895C506.645 124.355 507.641 124.086 508.758 124.086C510.484 124.086 511.879 124.684 512.941 125.879C514.012 127.074 514.547 128.664 514.547 130.648V130.801C514.547 132.035 514.309 133.145 513.832 134.129C513.363 135.105 512.688 135.867 511.805 136.414C510.93 136.961 509.922 137.234 508.781 137.234C507.062 137.234 505.668 136.637 504.598 135.441C503.535 134.246 503.004 132.664 503.004 130.695V130.543ZM505.184 130.801C505.184 132.207 505.508 133.336 506.156 134.188C506.812 135.039 507.688 135.465 508.781 135.465C509.883 135.465 510.758 135.035 511.406 134.176C512.055 133.309 512.379 132.098 512.379 130.543C512.379 129.152 512.047 128.027 511.383 127.168C510.727 126.301 509.852 125.867 508.758 125.867C507.688 125.867 506.824 126.293 506.168 127.145C505.512 127.996 505.184 129.215 505.184 130.801Z" fill="white"/>
<path d="M1272.55 130.098H1268.54V137H1266.28V119.938H1271.93C1273.85 119.938 1275.32 120.375 1276.36 121.25C1277.39 122.125 1277.91 123.398 1277.91 125.07C1277.91 126.133 1277.62 127.059 1277.05 127.848C1276.48 128.637 1275.68 129.227 1274.66 129.617L1278.66 136.859V137H1276.25L1272.55 130.098ZM1268.54 128.258H1272C1273.11 128.258 1274 127.969 1274.66 127.391C1275.32 126.812 1275.65 126.039 1275.65 125.07C1275.65 124.016 1275.34 123.207 1274.7 122.645C1274.08 122.082 1273.17 121.797 1271.98 121.789H1268.54V128.258ZM1286 137.234C1284.28 137.234 1282.88 136.672 1281.8 135.547C1280.73 134.414 1280.19 132.902 1280.19 131.012V130.613C1280.19 129.355 1280.43 128.234 1280.9 127.25C1281.39 126.258 1282.06 125.484 1282.92 124.93C1283.79 124.367 1284.72 124.086 1285.73 124.086C1287.38 124.086 1288.66 124.629 1289.57 125.715C1290.49 126.801 1290.95 128.355 1290.95 130.379V131.281H1282.36C1282.39 132.531 1282.75 133.543 1283.45 134.316C1284.15 135.082 1285.04 135.465 1286.12 135.465C1286.88 135.465 1287.53 135.309 1288.06 134.996C1288.59 134.684 1289.06 134.27 1289.46 133.754L1290.78 134.785C1289.72 136.418 1288.12 137.234 1286 137.234ZM1285.73 125.867C1284.86 125.867 1284.12 126.188 1283.53 126.828C1282.93 127.461 1282.57 128.352 1282.43 129.5H1288.78V129.336C1288.71 128.234 1288.42 127.383 1287.89 126.781C1287.36 126.172 1286.64 125.867 1285.73 125.867ZM1300.85 133.637C1300.85 133.051 1300.62 132.598 1300.18 132.277C1299.74 131.949 1298.97 131.668 1297.87 131.434C1296.78 131.199 1295.91 130.918 1295.26 130.59C1294.62 130.262 1294.14 129.871 1293.83 129.418C1293.52 128.965 1293.37 128.426 1293.37 127.801C1293.37 126.762 1293.81 125.883 1294.68 125.164C1295.57 124.445 1296.69 124.086 1298.06 124.086C1299.5 124.086 1300.66 124.457 1301.55 125.199C1302.45 125.941 1302.9 126.891 1302.9 128.047H1300.72C1300.72 127.453 1300.46 126.941 1299.96 126.512C1299.46 126.082 1298.82 125.867 1298.06 125.867C1297.27 125.867 1296.65 126.039 1296.21 126.383C1295.76 126.727 1295.54 127.176 1295.54 127.73C1295.54 128.254 1295.75 128.648 1296.16 128.914C1296.57 129.18 1297.32 129.434 1298.4 129.676C1299.48 129.918 1300.36 130.207 1301.04 130.543C1301.71 130.879 1302.2 131.285 1302.52 131.762C1302.85 132.23 1303.02 132.805 1303.02 133.484C1303.02 134.617 1302.56 135.527 1301.66 136.215C1300.75 136.895 1299.57 137.234 1298.13 137.234C1297.11 137.234 1296.21 137.055 1295.43 136.695C1294.65 136.336 1294.04 135.836 1293.59 135.195C1293.16 134.547 1292.94 133.848 1292.94 133.098H1295.11C1295.14 133.824 1295.43 134.402 1295.97 134.832C1296.52 135.254 1297.24 135.465 1298.13 135.465C1298.95 135.465 1299.61 135.301 1300.1 134.973C1300.6 134.637 1300.85 134.191 1300.85 133.637ZM1305.27 130.543C1305.27 129.301 1305.51 128.184 1305.99 127.191C1306.48 126.199 1307.16 125.434 1308.03 124.895C1308.91 124.355 1309.9 124.086 1311.02 124.086C1312.75 124.086 1314.14 124.684 1315.2 125.879C1316.27 127.074 1316.81 128.664 1316.81 130.648V130.801C1316.81 132.035 1316.57 133.145 1316.09 134.129C1315.62 135.105 1314.95 135.867 1314.07 136.414C1313.19 136.961 1312.18 137.234 1311.04 137.234C1309.32 137.234 1307.93 136.637 1306.86 135.441C1305.8 134.246 1305.27 132.664 1305.27 130.695V130.543ZM1307.45 130.801C1307.45 132.207 1307.77 133.336 1308.42 134.188C1309.07 135.039 1309.95 135.465 1311.04 135.465C1312.14 135.465 1313.02 135.035 1313.67 134.176C1314.32 133.309 1314.64 132.098 1314.64 130.543C1314.64 129.152 1314.31 128.027 1313.64 127.168C1312.99 126.301 1312.11 125.867 1311.02 125.867C1309.95 125.867 1309.09 126.293 1308.43 127.145C1307.77 127.996 1307.45 129.215 1307.45 130.801ZM1327.36 135.746C1326.51 136.738 1325.27 137.234 1323.64 137.234C1322.29 137.234 1321.26 136.844 1320.55 136.062C1319.84 135.273 1319.49 134.109 1319.48 132.57V124.32H1321.65V132.512C1321.65 134.434 1322.43 135.395 1323.99 135.395C1325.65 135.395 1326.75 134.777 1327.3 133.543V124.32H1329.46V137H1327.4L1327.36 135.746ZM1338.9 126.266C1338.57 126.211 1338.21 126.184 1337.83 126.184C1336.41 126.184 1335.45 126.789 1334.94 128V137H1332.77V124.32H1334.88L1334.91 125.785C1335.62 124.652 1336.63 124.086 1337.94 124.086C1338.36 124.086 1338.68 124.141 1338.9 124.25V126.266ZM1345.75 135.465C1346.53 135.465 1347.2 135.23 1347.78 134.762C1348.36 134.293 1348.68 133.707 1348.74 133.004H1350.79C1350.75 133.73 1350.5 134.422 1350.04 135.078C1349.58 135.734 1348.96 136.258 1348.19 136.648C1347.43 137.039 1346.61 137.234 1345.75 137.234C1344.03 137.234 1342.65 136.66 1341.63 135.512C1340.61 134.355 1340.11 132.777 1340.11 130.777V130.414C1340.11 129.18 1340.33 128.082 1340.79 127.121C1341.24 126.16 1341.89 125.414 1342.73 124.883C1343.58 124.352 1344.59 124.086 1345.74 124.086C1347.16 124.086 1348.34 124.512 1349.28 125.363C1350.23 126.215 1350.73 127.32 1350.79 128.68H1348.74C1348.68 127.859 1348.37 127.188 1347.8 126.664C1347.25 126.133 1346.56 125.867 1345.74 125.867C1344.64 125.867 1343.79 126.266 1343.18 127.062C1342.57 127.852 1342.27 128.996 1342.27 130.496V130.906C1342.27 132.367 1342.57 133.492 1343.18 134.281C1343.78 135.07 1344.64 135.465 1345.75 135.465ZM1358.49 137.234C1356.77 137.234 1355.38 136.672 1354.3 135.547C1353.22 134.414 1352.68 132.902 1352.68 131.012V130.613C1352.68 129.355 1352.92 128.234 1353.39 127.25C1353.88 126.258 1354.55 125.484 1355.41 124.93C1356.28 124.367 1357.21 124.086 1358.22 124.086C1359.87 124.086 1361.15 124.629 1362.07 125.715C1362.98 126.801 1363.44 128.355 1363.44 130.379V131.281H1354.85C1354.88 132.531 1355.24 133.543 1355.94 134.316C1356.64 135.082 1357.53 135.465 1358.61 135.465C1359.38 135.465 1360.02 135.309 1360.55 134.996C1361.09 134.684 1361.55 134.27 1361.95 133.754L1363.27 134.785C1362.21 136.418 1360.62 137.234 1358.49 137.234ZM1358.22 125.867C1357.35 125.867 1356.61 126.188 1356.02 126.828C1355.43 127.461 1355.06 128.352 1354.92 129.5H1361.27V129.336C1361.21 128.234 1360.91 127.383 1360.38 126.781C1359.85 126.172 1359.13 125.867 1358.22 125.867ZM1373.34 133.637C1373.34 133.051 1373.12 132.598 1372.67 132.277C1372.23 131.949 1371.46 131.668 1370.36 131.434C1369.27 131.199 1368.4 130.918 1367.75 130.59C1367.11 130.262 1366.63 129.871 1366.32 129.418C1366.02 128.965 1365.86 128.426 1365.86 127.801C1365.86 126.762 1366.3 125.883 1367.18 125.164C1368.06 124.445 1369.18 124.086 1370.55 124.086C1371.99 124.086 1373.15 124.457 1374.04 125.199C1374.94 125.941 1375.39 126.891 1375.39 128.047H1373.21C1373.21 127.453 1372.96 126.941 1372.45 126.512C1371.95 126.082 1371.32 125.867 1370.55 125.867C1369.76 125.867 1369.14 126.039 1368.7 126.383C1368.25 126.727 1368.03 127.176 1368.03 127.73C1368.03 128.254 1368.24 128.648 1368.65 128.914C1369.07 129.18 1369.81 129.434 1370.89 129.676C1371.98 129.918 1372.86 130.207 1373.53 130.543C1374.2 130.879 1374.7 131.285 1375.02 131.762C1375.34 132.23 1375.51 132.805 1375.51 133.484C1375.51 134.617 1375.05 135.527 1374.15 136.215C1373.24 136.895 1372.07 137.234 1370.62 137.234C1369.61 137.234 1368.71 137.055 1367.93 136.695C1367.14 136.336 1366.53 135.836 1366.09 135.195C1365.65 134.547 1365.43 133.848 1365.43 133.098H1367.6C1367.64 133.824 1367.93 134.402 1368.46 134.832C1369.01 135.254 1369.73 135.465 1370.62 135.465C1371.44 135.465 1372.1 135.301 1372.59 134.973C1373.09 134.637 1373.34 134.191 1373.34 133.637Z" fill="black"/>
<path d="M999.387 129.395C997.457 128.84 996.051 128.16 995.168 127.355C994.293 126.543 993.855 125.543 993.855 124.355C993.855 123.012 994.391 121.902 995.461 121.027C996.539 120.145 997.938 119.703 999.656 119.703C1000.83 119.703 1001.87 119.93 1002.79 120.383C1003.71 120.836 1004.42 121.461 1004.92 122.258C1005.43 123.055 1005.68 123.926 1005.68 124.871H1003.42C1003.42 123.84 1003.09 123.031 1002.43 122.445C1001.78 121.852 1000.85 121.555 999.656 121.555C998.547 121.555 997.68 121.801 997.055 122.293C996.438 122.777 996.129 123.453 996.129 124.32C996.129 125.016 996.422 125.605 997.008 126.09C997.602 126.566 998.605 127.004 1000.02 127.402C1001.44 127.801 1002.55 128.242 1003.35 128.727C1004.15 129.203 1004.75 129.762 1005.13 130.402C1005.52 131.043 1005.71 131.797 1005.71 132.664C1005.71 134.047 1005.18 135.156 1004.1 135.992C1003.02 136.82 1001.58 137.234 999.773 137.234C998.602 137.234 997.508 137.012 996.492 136.566C995.477 136.113 994.691 135.496 994.137 134.715C993.59 133.934 993.316 133.047 993.316 132.055H995.578C995.578 133.086 995.957 133.902 996.715 134.504C997.48 135.098 998.5 135.395 999.773 135.395C1000.96 135.395 1001.87 135.152 1002.5 134.668C1003.14 134.184 1003.45 133.523 1003.45 132.688C1003.45 131.852 1003.16 131.207 1002.57 130.754C1001.99 130.293 1000.93 129.84 999.387 129.395ZM1011.21 121.25V124.32H1013.58V125.996H1011.21V133.859C1011.21 134.367 1011.32 134.75 1011.53 135.008C1011.74 135.258 1012.1 135.383 1012.61 135.383C1012.86 135.383 1013.2 135.336 1013.64 135.242V137C1013.07 137.156 1012.51 137.234 1011.97 137.234C1011 137.234 1010.27 136.941 1009.78 136.355C1009.29 135.77 1009.04 134.938 1009.04 133.859V125.996H1006.73V124.32H1009.04V121.25H1011.21ZM1022.25 126.266C1021.92 126.211 1021.57 126.184 1021.18 126.184C1019.76 126.184 1018.8 126.789 1018.29 128V137H1016.12V124.32H1018.23L1018.27 125.785C1018.98 124.652 1019.98 124.086 1021.29 124.086C1021.71 124.086 1022.03 124.141 1022.25 124.25V126.266ZM1031.61 137C1031.49 136.75 1031.39 136.305 1031.31 135.664C1030.3 136.711 1029.1 137.234 1027.7 137.234C1026.45 137.234 1025.42 136.883 1024.62 136.18C1023.82 135.469 1023.42 134.57 1023.42 133.484C1023.42 132.164 1023.92 131.141 1024.92 130.414C1025.93 129.68 1027.34 129.312 1029.16 129.312H1031.27V128.316C1031.27 127.559 1031.05 126.957 1030.59 126.512C1030.14 126.059 1029.47 125.832 1028.59 125.832C1027.82 125.832 1027.17 126.027 1026.64 126.418C1026.12 126.809 1025.86 127.281 1025.86 127.836H1023.68C1023.68 127.203 1023.9 126.594 1024.35 126.008C1024.8 125.414 1025.41 124.945 1026.18 124.602C1026.95 124.258 1027.8 124.086 1028.72 124.086C1030.18 124.086 1031.32 124.453 1032.15 125.188C1032.98 125.914 1033.41 126.918 1033.44 128.199V134.035C1033.44 135.199 1033.59 136.125 1033.89 136.812V137H1031.61ZM1028.02 135.348C1028.7 135.348 1029.34 135.172 1029.95 134.82C1030.56 134.469 1031 134.012 1031.27 133.449V130.848H1029.57C1026.92 130.848 1025.59 131.625 1025.59 133.18C1025.59 133.859 1025.82 134.391 1026.27 134.773C1026.72 135.156 1027.3 135.348 1028.02 135.348ZM1039.78 121.25V124.32H1042.15V125.996H1039.78V133.859C1039.78 134.367 1039.89 134.75 1040.1 135.008C1040.31 135.258 1040.67 135.383 1041.18 135.383C1041.43 135.383 1041.77 135.336 1042.21 135.242V137C1041.64 137.156 1041.08 137.234 1040.54 137.234C1039.57 137.234 1038.84 136.941 1038.35 136.355C1037.86 135.77 1037.61 134.938 1037.61 133.859V125.996H1035.3V124.32H1037.61V121.25H1039.78ZM1049.95 137.234C1048.23 137.234 1046.84 136.672 1045.76 135.547C1044.68 134.414 1044.14 132.902 1044.14 131.012V130.613C1044.14 129.355 1044.38 128.234 1044.86 127.25C1045.34 126.258 1046.01 125.484 1046.87 124.93C1047.74 124.367 1048.68 124.086 1049.68 124.086C1051.33 124.086 1052.61 124.629 1053.53 125.715C1054.44 126.801 1054.9 128.355 1054.9 130.379V131.281H1046.31C1046.34 132.531 1046.7 133.543 1047.4 134.316C1048.1 135.082 1048.99 135.465 1050.07 135.465C1050.84 135.465 1051.48 135.309 1052.02 134.996C1052.55 134.684 1053.01 134.27 1053.41 133.754L1054.73 134.785C1053.67 136.418 1052.08 137.234 1049.95 137.234ZM1049.68 125.867C1048.81 125.867 1048.07 126.188 1047.48 126.828C1046.89 127.461 1046.52 128.352 1046.38 129.5H1052.73V129.336C1052.67 128.234 1052.37 127.383 1051.84 126.781C1051.31 126.172 1050.59 125.867 1049.68 125.867ZM1056.9 130.555C1056.9 128.578 1057.36 127.008 1058.27 125.844C1059.19 124.672 1060.4 124.086 1061.91 124.086C1063.45 124.086 1064.66 124.633 1065.53 125.727L1065.63 124.32H1067.61V136.695C1067.61 138.336 1067.12 139.629 1066.15 140.574C1065.18 141.52 1063.88 141.992 1062.23 141.992C1061.32 141.992 1060.43 141.797 1059.55 141.406C1058.68 141.016 1058.01 140.48 1057.55 139.801L1058.67 138.5C1059.6 139.648 1060.74 140.223 1062.08 140.223C1063.14 140.223 1063.96 139.926 1064.54 139.332C1065.14 138.738 1065.43 137.902 1065.43 136.824V135.734C1064.57 136.734 1063.38 137.234 1061.88 137.234C1060.4 137.234 1059.2 136.637 1058.27 135.441C1057.36 134.246 1056.9 132.617 1056.9 130.555ZM1059.08 130.801C1059.08 132.23 1059.38 133.355 1059.96 134.176C1060.55 134.988 1061.37 135.395 1062.42 135.395C1063.79 135.395 1064.79 134.773 1065.43 133.531V127.742C1064.77 126.531 1063.77 125.926 1062.45 125.926C1061.39 125.926 1060.57 126.336 1059.97 127.156C1059.38 127.977 1059.08 129.191 1059.08 130.801ZM1075.04 133.824L1078 124.32H1080.32L1075.22 138.957C1074.43 141.066 1073.18 142.121 1071.46 142.121L1071.05 142.086L1070.24 141.934V140.176L1070.82 140.223C1071.56 140.223 1072.13 140.074 1072.54 139.777C1072.95 139.48 1073.29 138.938 1073.55 138.148L1074.04 136.859L1069.51 124.32H1071.88L1075.04 133.824Z" fill="black"/>
<path d="M1161.78 121.789H1156.3V137H1154.06V121.789H1148.59V119.938H1161.78V121.789ZM1168.06 137.234C1166.34 137.234 1164.95 136.672 1163.87 135.547C1162.79 134.414 1162.25 132.902 1162.25 131.012V130.613C1162.25 129.355 1162.49 128.234 1162.96 127.25C1163.45 126.258 1164.12 125.484 1164.98 124.93C1165.85 124.367 1166.79 124.086 1167.79 124.086C1169.44 124.086 1170.72 124.629 1171.64 125.715C1172.55 126.801 1173.01 128.355 1173.01 130.379V131.281H1164.42C1164.45 132.531 1164.81 133.543 1165.51 134.316C1166.21 135.082 1167.1 135.465 1168.18 135.465C1168.95 135.465 1169.59 135.309 1170.12 134.996C1170.66 134.684 1171.12 134.27 1171.52 133.754L1172.84 134.785C1171.78 136.418 1170.19 137.234 1168.06 137.234ZM1167.79 125.867C1166.92 125.867 1166.18 126.188 1165.59 126.828C1165 127.461 1164.63 128.352 1164.49 129.5H1170.84V129.336C1170.78 128.234 1170.48 127.383 1169.95 126.781C1169.42 126.172 1168.7 125.867 1167.79 125.867ZM1183.36 137C1183.23 136.75 1183.13 136.305 1183.05 135.664C1182.04 136.711 1180.84 137.234 1179.44 137.234C1178.19 137.234 1177.16 136.883 1176.36 136.18C1175.56 135.469 1175.16 134.57 1175.16 133.484C1175.16 132.164 1175.66 131.141 1176.66 130.414C1177.67 129.68 1179.09 129.312 1180.91 129.312H1183.02V128.316C1183.02 127.559 1182.79 126.957 1182.34 126.512C1181.88 126.059 1181.21 125.832 1180.33 125.832C1179.56 125.832 1178.91 126.027 1178.39 126.418C1177.86 126.809 1177.6 127.281 1177.6 127.836H1175.42C1175.42 127.203 1175.64 126.594 1176.09 126.008C1176.54 125.414 1177.15 124.945 1177.92 124.602C1178.69 124.258 1179.54 124.086 1180.46 124.086C1181.92 124.086 1183.07 124.453 1183.89 125.188C1184.72 125.914 1185.15 126.918 1185.18 128.199V134.035C1185.18 135.199 1185.33 136.125 1185.63 136.812V137H1183.36ZM1179.76 135.348C1180.44 135.348 1181.08 135.172 1181.69 134.82C1182.3 134.469 1182.74 134.012 1183.02 133.449V130.848H1181.32C1178.66 130.848 1177.33 131.625 1177.33 133.18C1177.33 133.859 1177.56 134.391 1178.01 134.773C1178.46 135.156 1179.05 135.348 1179.76 135.348ZM1190.62 124.32L1190.68 125.727C1191.61 124.633 1192.86 124.086 1194.44 124.086C1196.21 124.086 1197.42 124.766 1198.06 126.125C1198.48 125.516 1199.03 125.023 1199.7 124.648C1200.38 124.273 1201.18 124.086 1202.11 124.086C1204.89 124.086 1206.3 125.559 1206.35 128.504V137H1204.18V128.633C1204.18 127.727 1203.97 127.051 1203.56 126.605C1203.14 126.152 1202.45 125.926 1201.47 125.926C1200.67 125.926 1200 126.168 1199.47 126.652C1198.94 127.129 1198.63 127.773 1198.54 128.586V137H1196.36V128.691C1196.36 126.848 1195.46 125.926 1193.66 125.926C1192.23 125.926 1191.26 126.531 1190.74 127.742V137H1188.57V124.32H1190.62Z" fill="black"/>
<path d="M729.391 129.465H722.23V137H719.98V119.938H730.551V121.789H722.23V127.625H729.391V129.465ZM732.074 130.543C732.074 129.301 732.316 128.184 732.801 127.191C733.293 126.199 733.973 125.434 734.84 124.895C735.715 124.355 736.711 124.086 737.828 124.086C739.555 124.086 740.949 124.684 742.012 125.879C743.082 127.074 743.617 128.664 743.617 130.648V130.801C743.617 132.035 743.379 133.145 742.902 134.129C742.434 135.105 741.758 135.867 740.875 136.414C740 136.961 738.992 137.234 737.852 137.234C736.133 137.234 734.738 136.637 733.668 135.441C732.605 134.246 732.074 132.664 732.074 130.695V130.543ZM734.254 130.801C734.254 132.207 734.578 133.336 735.227 134.188C735.883 135.039 736.758 135.465 737.852 135.465C738.953 135.465 739.828 135.035 740.477 134.176C741.125 133.309 741.449 132.098 741.449 130.543C741.449 129.152 741.117 128.027 740.453 127.168C739.797 126.301 738.922 125.867 737.828 125.867C736.758 125.867 735.895 126.293 735.238 127.145C734.582 127.996 734.254 129.215 734.254 130.801ZM752.465 126.266C752.137 126.211 751.781 126.184 751.398 126.184C749.977 126.184 749.012 126.789 748.504 128V137H746.336V124.32H748.445L748.48 125.785C749.191 124.652 750.199 124.086 751.504 124.086C751.926 124.086 752.246 124.141 752.465 124.25V126.266ZM756.508 124.32L756.566 125.727C757.496 124.633 758.75 124.086 760.328 124.086C762.102 124.086 763.309 124.766 763.949 126.125C764.371 125.516 764.918 125.023 765.59 124.648C766.27 124.273 767.07 124.086 767.992 124.086C770.773 124.086 772.188 125.559 772.234 128.504V137H770.066V128.633C770.066 127.727 769.859 127.051 769.445 126.605C769.031 126.152 768.336 125.926 767.359 125.926C766.555 125.926 765.887 126.168 765.355 126.652C764.824 127.129 764.516 127.773 764.43 128.586V137H762.25V128.691C762.25 126.848 761.348 125.926 759.543 125.926C758.121 125.926 757.148 126.531 756.625 127.742V137H754.457V124.32H756.508ZM782.898 133.637C782.898 133.051 782.676 132.598 782.23 132.277C781.793 131.949 781.023 131.668 779.922 131.434C778.828 131.199 777.957 130.918 777.309 130.59C776.668 130.262 776.191 129.871 775.879 129.418C775.574 128.965 775.422 128.426 775.422 127.801C775.422 126.762 775.859 125.883 776.734 125.164C777.617 124.445 778.742 124.086 780.109 124.086C781.547 124.086 782.711 124.457 783.602 125.199C784.5 125.941 784.949 126.891 784.949 128.047H782.77C782.77 127.453 782.516 126.941 782.008 126.512C781.508 126.082 780.875 125.867 780.109 125.867C779.32 125.867 778.703 126.039 778.258 126.383C777.812 126.727 777.59 127.176 777.59 127.73C777.59 128.254 777.797 128.648 778.211 128.914C778.625 129.18 779.371 129.434 780.449 129.676C781.535 129.918 782.414 130.207 783.086 130.543C783.758 130.879 784.254 131.285 784.574 131.762C784.902 132.23 785.066 132.805 785.066 133.484C785.066 134.617 784.613 135.527 783.707 136.215C782.801 136.895 781.625 137.234 780.18 137.234C779.164 137.234 778.266 137.055 777.484 136.695C776.703 136.336 776.09 135.836 775.645 135.195C775.207 134.547 774.988 133.848 774.988 133.098H777.156C777.195 133.824 777.484 134.402 778.023 134.832C778.57 135.254 779.289 135.465 780.18 135.465C781 135.465 781.656 135.301 782.148 134.973C782.648 134.637 782.898 134.191 782.898 133.637Z" fill="black"/>
<path d="M864.426 129.465H857.266V137H855.016V119.938H865.586V121.789H857.266V127.625H864.426V129.465ZM870.297 137H868.129V124.32H870.297V137ZM867.953 120.957C867.953 120.605 868.059 120.309 868.27 120.066C868.488 119.824 868.809 119.703 869.23 119.703C869.652 119.703 869.973 119.824 870.191 120.066C870.41 120.309 870.52 120.605 870.52 120.957C870.52 121.309 870.41 121.602 870.191 121.836C869.973 122.07 869.652 122.188 869.23 122.188C868.809 122.188 868.488 122.07 868.27 121.836C868.059 121.602 867.953 121.309 867.953 120.957ZM875.828 124.32L875.898 125.914C876.867 124.695 878.133 124.086 879.695 124.086C882.375 124.086 883.727 125.598 883.75 128.621V137H881.582V128.609C881.574 127.695 881.363 127.02 880.949 126.582C880.543 126.145 879.906 125.926 879.039 125.926C878.336 125.926 877.719 126.113 877.188 126.488C876.656 126.863 876.242 127.355 875.945 127.965V137H873.777V124.32H875.828ZM894.848 137C894.723 136.75 894.621 136.305 894.543 135.664C893.535 136.711 892.332 137.234 890.934 137.234C889.684 137.234 888.656 136.883 887.852 136.18C887.055 135.469 886.656 134.57 886.656 133.484C886.656 132.164 887.156 131.141 888.156 130.414C889.164 129.68 890.578 129.312 892.398 129.312H894.508V128.316C894.508 127.559 894.281 126.957 893.828 126.512C893.375 126.059 892.707 125.832 891.824 125.832C891.051 125.832 890.402 126.027 889.879 126.418C889.355 126.809 889.094 127.281 889.094 127.836H886.914C886.914 127.203 887.137 126.594 887.582 126.008C888.035 125.414 888.645 124.945 889.41 124.602C890.184 124.258 891.031 124.086 891.953 124.086C893.414 124.086 894.559 124.453 895.387 125.188C896.215 125.914 896.645 126.918 896.676 128.199V134.035C896.676 135.199 896.824 136.125 897.121 136.812V137H894.848ZM891.25 135.348C891.93 135.348 892.574 135.172 893.184 134.82C893.793 134.469 894.234 134.012 894.508 133.449V130.848H892.809C890.152 130.848 888.824 131.625 888.824 133.18C888.824 133.859 889.051 134.391 889.504 134.773C889.957 135.156 890.539 135.348 891.25 135.348ZM902.125 124.32L902.195 125.914C903.164 124.695 904.43 124.086 905.992 124.086C908.672 124.086 910.023 125.598 910.047 128.621V137H907.879V128.609C907.871 127.695 907.66 127.02 907.246 126.582C906.84 126.145 906.203 125.926 905.336 125.926C904.633 125.926 904.016 126.113 903.484 126.488C902.953 126.863 902.539 127.355 902.242 127.965V137H900.074V124.32H902.125ZM918.402 135.465C919.176 135.465 919.852 135.23 920.43 134.762C921.008 134.293 921.328 133.707 921.391 133.004H923.441C923.402 133.73 923.152 134.422 922.691 135.078C922.23 135.734 921.613 136.258 920.84 136.648C920.074 137.039 919.262 137.234 918.402 137.234C916.676 137.234 915.301 136.66 914.277 135.512C913.262 134.355 912.754 132.777 912.754 130.777V130.414C912.754 129.18 912.98 128.082 913.434 127.121C913.887 126.16 914.535 125.414 915.379 124.883C916.23 124.352 917.234 124.086 918.391 124.086C919.812 124.086 920.992 124.512 921.93 125.363C922.875 126.215 923.379 127.32 923.441 128.68H921.391C921.328 127.859 921.016 127.188 920.453 126.664C919.898 126.133 919.211 125.867 918.391 125.867C917.289 125.867 916.434 126.266 915.824 127.062C915.223 127.852 914.922 128.996 914.922 130.496V130.906C914.922 132.367 915.223 133.492 915.824 134.281C916.426 135.07 917.285 135.465 918.402 135.465ZM931.141 137.234C929.422 137.234 928.023 136.672 926.945 135.547C925.867 134.414 925.328 132.902 925.328 131.012V130.613C925.328 129.355 925.566 128.234 926.043 127.25C926.527 126.258 927.199 125.484 928.059 124.93C928.926 124.367 929.863 124.086 930.871 124.086C932.52 124.086 933.801 124.629 934.715 125.715C935.629 126.801 936.086 128.355 936.086 130.379V131.281H927.496C927.527 132.531 927.891 133.543 928.586 134.316C929.289 135.082 930.18 135.465 931.258 135.465C932.023 135.465 932.672 135.309 933.203 134.996C933.734 134.684 934.199 134.27 934.598 133.754L935.922 134.785C934.859 136.418 933.266 137.234 931.141 137.234ZM930.871 125.867C929.996 125.867 929.262 126.188 928.668 126.828C928.074 127.461 927.707 128.352 927.566 129.5H933.918V129.336C933.855 128.234 933.559 127.383 933.027 126.781C932.496 126.172 931.777 125.867 930.871 125.867Z" fill="black"/>
<path d="M594.77 121.789H589.285V137H587.047V121.789H581.574V119.938H594.77V121.789ZM595.215 130.543C595.215 129.301 595.457 128.184 595.941 127.191C596.434 126.199 597.113 125.434 597.98 124.895C598.855 124.355 599.852 124.086 600.969 124.086C602.695 124.086 604.09 124.684 605.152 125.879C606.223 127.074 606.758 128.664 606.758 130.648V130.801C606.758 132.035 606.52 133.145 606.043 134.129C605.574 135.105 604.898 135.867 604.016 136.414C603.141 136.961 602.133 137.234 600.992 137.234C599.273 137.234 597.879 136.637 596.809 135.441C595.746 134.246 595.215 132.664 595.215 130.695V130.543ZM597.395 130.801C597.395 132.207 597.719 133.336 598.367 134.188C599.023 135.039 599.898 135.465 600.992 135.465C602.094 135.465 602.969 135.035 603.617 134.176C604.266 133.309 604.59 132.098 604.59 130.543C604.59 129.152 604.258 128.027 603.594 127.168C602.938 126.301 602.062 125.867 600.969 125.867C599.898 125.867 599.035 126.293 598.379 127.145C597.723 127.996 597.395 129.215 597.395 130.801ZM613.988 130.637H608.27V128.867H613.988V130.637ZM615.582 130.555C615.582 128.609 616.043 127.047 616.965 125.867C617.887 124.68 619.094 124.086 620.586 124.086C622.07 124.086 623.246 124.594 624.113 125.609V119H626.281V137H624.289L624.184 135.641C623.316 136.703 622.109 137.234 620.562 137.234C619.094 137.234 617.895 136.633 616.965 135.43C616.043 134.227 615.582 132.656 615.582 130.719V130.555ZM617.75 130.801C617.75 132.238 618.047 133.363 618.641 134.176C619.234 134.988 620.055 135.395 621.102 135.395C622.477 135.395 623.48 134.777 624.113 133.543V127.719C623.465 126.523 622.469 125.926 621.125 125.926C620.062 125.926 619.234 126.336 618.641 127.156C618.047 127.977 617.75 129.191 617.75 130.801ZM629.082 130.543C629.082 129.301 629.324 128.184 629.809 127.191C630.301 126.199 630.98 125.434 631.848 124.895C632.723 124.355 633.719 124.086 634.836 124.086C636.562 124.086 637.957 124.684 639.02 125.879C640.09 127.074 640.625 128.664 640.625 130.648V130.801C640.625 132.035 640.387 133.145 639.91 134.129C639.441 135.105 638.766 135.867 637.883 136.414C637.008 136.961 636 137.234 634.859 137.234C633.141 137.234 631.746 136.637 630.676 135.441C629.613 134.246 629.082 132.664 629.082 130.695V130.543ZM631.262 130.801C631.262 132.207 631.586 133.336 632.234 134.188C632.891 135.039 633.766 135.465 634.859 135.465C635.961 135.465 636.836 135.035 637.484 134.176C638.133 133.309 638.457 132.098 638.457 130.543C638.457 129.152 638.125 128.027 637.461 127.168C636.805 126.301 635.93 125.867 634.836 125.867C633.766 125.867 632.902 126.293 632.246 127.145C631.59 127.996 631.262 129.215 631.262 130.801Z" fill="black"/>
<rect x="398" y="155" width="994" height="825" fill="#F2F2F2"/>
</svg>
