<svg width="1440" height="1024" viewBox="0 0 1440 1024" fill="none" xmlns="http://www.w3.org/2000/svg">
<rect width="1440" height="1024" fill="white"/>
<rect width="1440" height="60" fill="black"/>
<path d="M36.6475 33.8955C36.4814 36.1904 35.6318 37.9971 34.0986 39.3154C32.5752 40.6338 30.5635 41.293 28.0635 41.293C25.3291 41.293 23.1758 40.375 21.6035 38.5391C20.041 36.6934 19.2598 34.1641 19.2598 30.9512V29.6475C19.2598 27.5967 19.6211 25.79 20.3438 24.2275C21.0664 22.665 22.0967 21.4688 23.4346 20.6387C24.7822 19.7988 26.3447 19.3789 28.1221 19.3789C30.583 19.3789 32.5654 20.0381 34.0693 21.3564C35.5732 22.6748 36.4424 24.5254 36.6768 26.9082H32.2822C32.1748 25.5312 31.7891 24.5352 31.125 23.9199C30.4707 23.2949 29.4697 22.9824 28.1221 22.9824C26.6572 22.9824 25.5586 23.5098 24.8262 24.5645C24.1035 25.6094 23.7324 27.2354 23.7129 29.4424V31.0537C23.7129 33.3584 24.0596 35.043 24.7529 36.1074C25.4561 37.1719 26.5596 37.7041 28.0635 37.7041C29.4209 37.7041 30.4316 37.3965 31.0957 36.7812C31.7695 36.1562 32.1553 35.1943 32.2529 33.8955H36.6475ZM43.9277 37.4697H53.2588V41H39.5332V19.6719H43.9277V37.4697ZM60.4658 41H56.0713V19.6719H60.4658V41ZM77.3848 31.7568H68.9473V37.4697H78.8496V41H64.5527V19.6719H78.8203V23.2314H68.9473V28.3145H77.3848V31.7568ZM98.7715 41H94.377L85.8223 26.9668V41H81.4277V19.6719H85.8223L94.3916 33.7344V19.6719H98.7715V41ZM118.225 23.2314H111.691V41H107.297V23.2314H100.852V19.6719H118.225V23.2314ZM131.73 33.4854V41H127.336V19.6719H135.656C137.258 19.6719 138.664 19.9648 139.875 20.5508C141.096 21.1367 142.033 21.9717 142.688 23.0557C143.342 24.1299 143.669 25.3555 143.669 26.7324C143.669 28.8223 142.951 30.4727 141.516 31.6836C140.09 32.8848 138.112 33.4854 135.583 33.4854H131.73ZM131.73 29.9258H135.656C136.818 29.9258 137.702 29.6523 138.308 29.1055C138.923 28.5586 139.23 27.7773 139.23 26.7617C139.23 25.7168 138.923 24.8721 138.308 24.2275C137.692 23.583 136.843 23.251 135.759 23.2314H131.73V29.9258ZM164.221 30.8193C164.221 32.9189 163.85 34.7598 163.107 36.3418C162.365 37.9238 161.301 39.1445 159.914 40.0039C158.537 40.8633 156.955 41.293 155.168 41.293C153.4 41.293 151.823 40.8682 150.437 40.0186C149.05 39.1689 147.976 37.958 147.214 36.3857C146.452 34.8037 146.066 32.9873 146.057 30.9365V29.8818C146.057 27.7822 146.433 25.9365 147.185 24.3447C147.946 22.7432 149.016 21.5176 150.393 20.668C151.779 19.8086 153.361 19.3789 155.139 19.3789C156.916 19.3789 158.493 19.8086 159.87 20.668C161.257 21.5176 162.326 22.7432 163.078 24.3447C163.84 25.9365 164.221 27.7773 164.221 29.8672V30.8193ZM159.768 29.8525C159.768 27.6162 159.367 25.917 158.566 24.7549C157.766 23.5928 156.623 23.0117 155.139 23.0117C153.664 23.0117 152.526 23.5879 151.726 24.7402C150.925 25.8828 150.52 27.5625 150.51 29.7793V30.8193C150.51 32.9971 150.91 34.6865 151.711 35.8877C152.512 37.0889 153.664 37.6895 155.168 37.6895C156.643 37.6895 157.775 37.1133 158.566 35.9609C159.357 34.7988 159.758 33.1094 159.768 30.8926V29.8525ZM175.31 33.1924H171.809V41H167.414V19.6719H175.339C177.858 19.6719 179.802 20.2334 181.169 21.3564C182.536 22.4795 183.22 24.0664 183.22 26.1172C183.22 27.5723 182.902 28.7881 182.268 29.7646C181.643 30.7314 180.69 31.5029 179.411 32.0791L184.025 40.7949V41H179.309L175.31 33.1924ZM171.809 29.6328H175.354C176.457 29.6328 177.312 29.3545 177.917 28.7979C178.522 28.2314 178.825 27.4551 178.825 26.4688C178.825 25.4629 178.537 24.6719 177.961 24.0957C177.395 23.5195 176.521 23.2314 175.339 23.2314H171.809V29.6328ZM201.896 23.2314H195.363V41H190.969V23.2314H184.523V19.6719H201.896V23.2314ZM214.699 36.6055H206.994L205.529 41H200.856L208.796 19.6719H212.868L220.852 41H216.179L214.699 36.6055ZM208.181 33.0459H213.513L210.832 25.0625L208.181 33.0459ZM227.238 37.4697H236.569V41H222.844V19.6719H227.238V37.4697Z" fill="white"/>
<rect x="50" y="215" width="415" height="263" fill="#E3E3E3"/>
<rect x="512" y="215" width="415" height="263" fill="#E3E3E3"/>
<rect x="974" y="215" width="415" height="263" fill="#E3E3E3"/>
<rect x="50" y="427" width="415" height="50" fill="black"/>
<path d="M218.242 453.32V460H215.992V442.938H222.285C224.152 442.938 225.613 443.414 226.668 444.367C227.73 445.32 228.262 446.582 228.262 448.152C228.262 449.809 227.742 451.086 226.703 451.984C225.672 452.875 224.191 453.32 222.262 453.32H218.242ZM218.242 451.48H222.285C223.488 451.48 224.41 451.199 225.051 450.637C225.691 450.066 226.012 449.246 226.012 448.176C226.012 447.16 225.691 446.348 225.051 445.738C224.41 445.129 223.531 444.812 222.414 444.789H218.242V451.48ZM240.777 452.113H233.383V458.16H241.973V460H231.133V442.938H241.855V444.789H233.383V450.273H240.777V452.113ZM257.898 452.02C257.898 453.691 257.617 455.152 257.055 456.402C256.492 457.645 255.695 458.594 254.664 459.25C253.633 459.906 252.43 460.234 251.055 460.234C249.711 460.234 248.52 459.906 247.48 459.25C246.441 458.586 245.633 457.645 245.055 456.426C244.484 455.199 244.191 453.781 244.176 452.172V450.941C244.176 449.301 244.461 447.852 245.031 446.594C245.602 445.336 246.406 444.375 247.445 443.711C248.492 443.039 249.688 442.703 251.031 442.703C252.398 442.703 253.602 443.035 254.641 443.699C255.688 444.355 256.492 445.312 257.055 446.57C257.617 447.82 257.898 449.277 257.898 450.941V452.02ZM255.66 450.918C255.66 448.895 255.254 447.344 254.441 446.266C253.629 445.18 252.492 444.637 251.031 444.637C249.609 444.637 248.488 445.18 247.668 446.266C246.855 447.344 246.438 448.844 246.414 450.766V452.02C246.414 453.98 246.824 455.523 247.645 456.648C248.473 457.766 249.609 458.324 251.055 458.324C252.508 458.324 253.633 457.797 254.43 456.742C255.227 455.68 255.637 454.16 255.66 452.184V450.918ZM263.523 453.32V460H261.273V442.938H267.566C269.434 442.938 270.895 443.414 271.949 444.367C273.012 445.32 273.543 446.582 273.543 448.152C273.543 449.809 273.023 451.086 271.984 451.984C270.953 452.875 269.473 453.32 267.543 453.32H263.523ZM263.523 451.48H267.566C268.77 451.48 269.691 451.199 270.332 450.637C270.973 450.066 271.293 449.246 271.293 448.176C271.293 447.16 270.973 446.348 270.332 445.738C269.691 445.129 268.812 444.812 267.695 444.789H263.523V451.48ZM278.676 458.16H286.762V460H276.414V442.938H278.676V458.16ZM298.973 452.113H291.578V458.16H300.168V460H289.328V442.938H300.051V444.789H291.578V450.273H298.973V452.113Z" fill="white"/>
<rect x="512" y="427" width="415" height="50" fill="black"/>
<path d="M660.465 453.32V460H658.215V442.938H664.508C666.375 442.938 667.836 443.414 668.891 444.367C669.953 445.32 670.484 446.582 670.484 448.152C670.484 449.809 669.965 451.086 668.926 451.984C667.895 452.875 666.414 453.32 664.484 453.32H660.465ZM660.465 451.48H664.508C665.711 451.48 666.633 451.199 667.273 450.637C667.914 450.066 668.234 449.246 668.234 448.176C668.234 447.16 667.914 446.348 667.273 445.738C666.633 445.129 665.754 444.812 664.637 444.789H660.465V451.48ZM686.48 452.02C686.48 453.691 686.199 455.152 685.637 456.402C685.074 457.645 684.277 458.594 683.246 459.25C682.215 459.906 681.012 460.234 679.637 460.234C678.293 460.234 677.102 459.906 676.062 459.25C675.023 458.586 674.215 457.645 673.637 456.426C673.066 455.199 672.773 453.781 672.758 452.172V450.941C672.758 449.301 673.043 447.852 673.613 446.594C674.184 445.336 674.988 444.375 676.027 443.711C677.074 443.039 678.27 442.703 679.613 442.703C680.98 442.703 682.184 443.035 683.223 443.699C684.27 444.355 685.074 445.312 685.637 446.57C686.199 447.82 686.48 449.277 686.48 450.941V452.02ZM684.242 450.918C684.242 448.895 683.836 447.344 683.023 446.266C682.211 445.18 681.074 444.637 679.613 444.637C678.191 444.637 677.07 445.18 676.25 446.266C675.438 447.344 675.02 448.844 674.996 450.766V452.02C674.996 453.98 675.406 455.523 676.227 456.648C677.055 457.766 678.191 458.324 679.637 458.324C681.09 458.324 682.215 457.797 683.012 456.742C683.809 455.68 684.219 454.16 684.242 452.184V450.918ZM696.113 453.098H692.105V460H689.844V442.938H695.492C697.414 442.938 698.891 443.375 699.922 444.25C700.961 445.125 701.48 446.398 701.48 448.07C701.48 449.133 701.191 450.059 700.613 450.848C700.043 451.637 699.246 452.227 698.223 452.617L702.23 459.859V460H699.816L696.113 453.098ZM692.105 451.258H695.562C696.68 451.258 697.566 450.969 698.223 450.391C698.887 449.812 699.219 449.039 699.219 448.07C699.219 447.016 698.902 446.207 698.27 445.645C697.645 445.082 696.738 444.797 695.551 444.789H692.105V451.258ZM715.496 444.789H710.012V460H707.773V444.789H702.301V442.938H715.496V444.789ZM727.438 452.465H720.277V460H718.027V442.938H728.598V444.789H720.277V450.625H727.438V452.465ZM744.418 452.02C744.418 453.691 744.137 455.152 743.574 456.402C743.012 457.645 742.215 458.594 741.184 459.25C740.152 459.906 738.949 460.234 737.574 460.234C736.23 460.234 735.039 459.906 734 459.25C732.961 458.586 732.152 457.645 731.574 456.426C731.004 455.199 730.711 453.781 730.695 452.172V450.941C730.695 449.301 730.98 447.852 731.551 446.594C732.121 445.336 732.926 444.375 733.965 443.711C735.012 443.039 736.207 442.703 737.551 442.703C738.918 442.703 740.121 443.035 741.16 443.699C742.207 444.355 743.012 445.312 743.574 446.57C744.137 447.82 744.418 449.277 744.418 450.941V452.02ZM742.18 450.918C742.18 448.895 741.773 447.344 740.961 446.266C740.148 445.18 739.012 444.637 737.551 444.637C736.129 444.637 735.008 445.18 734.188 446.266C733.375 447.344 732.957 448.844 732.934 450.766V452.02C732.934 453.98 733.344 455.523 734.164 456.648C734.992 457.766 736.129 458.324 737.574 458.324C739.027 458.324 740.152 457.797 740.949 456.742C741.746 455.68 742.156 454.16 742.18 452.184V450.918ZM750.055 458.16H758.141V460H747.793V442.938H750.055V458.16ZM763.121 460H760.871V442.938H763.121V460ZM780.371 452.02C780.371 453.691 780.09 455.152 779.527 456.402C778.965 457.645 778.168 458.594 777.137 459.25C776.105 459.906 774.902 460.234 773.527 460.234C772.184 460.234 770.992 459.906 769.953 459.25C768.914 458.586 768.105 457.645 767.527 456.426C766.957 455.199 766.664 453.781 766.648 452.172V450.941C766.648 449.301 766.934 447.852 767.504 446.594C768.074 445.336 768.879 444.375 769.918 443.711C770.965 443.039 772.16 442.703 773.504 442.703C774.871 442.703 776.074 443.035 777.113 443.699C778.16 444.355 778.965 445.312 779.527 446.57C780.09 447.82 780.371 449.277 780.371 450.941V452.02ZM778.133 450.918C778.133 448.895 777.727 447.344 776.914 446.266C776.102 445.18 774.965 444.637 773.504 444.637C772.082 444.637 770.961 445.18 770.141 446.266C769.328 447.344 768.91 448.844 768.887 450.766V452.02C768.887 453.98 769.297 455.523 770.117 456.648C770.945 457.766 772.082 458.324 773.527 458.324C774.98 458.324 776.105 457.797 776.902 456.742C777.699 455.68 778.109 454.16 778.133 452.184V450.918Z" fill="white"/>
<rect x="974" y="427" width="415" height="50" fill="black"/>
<path d="M1161.08 444.789H1155.6V460H1153.36V444.789H1147.89V442.938H1161.08V444.789ZM1176.41 452.02C1176.41 453.691 1176.13 455.152 1175.57 456.402C1175 457.645 1174.21 458.594 1173.18 459.25C1172.14 459.906 1170.94 460.234 1169.57 460.234C1168.22 460.234 1167.03 459.906 1165.99 459.25C1164.95 458.586 1164.14 457.645 1163.57 456.426C1163 455.199 1162.7 453.781 1162.69 452.172V450.941C1162.69 449.301 1162.97 447.852 1163.54 446.594C1164.11 445.336 1164.92 444.375 1165.96 443.711C1167 443.039 1168.2 442.703 1169.54 442.703C1170.91 442.703 1172.11 443.035 1173.15 443.699C1174.2 444.355 1175 445.312 1175.57 446.57C1176.13 447.82 1176.41 449.277 1176.41 450.941V452.02ZM1174.17 450.918C1174.17 448.895 1173.77 447.344 1172.95 446.266C1172.14 445.18 1171 444.637 1169.54 444.637C1168.12 444.637 1167 445.18 1166.18 446.266C1165.37 447.344 1164.95 448.844 1164.93 450.766V452.02C1164.93 453.98 1165.34 455.523 1166.16 456.648C1166.98 457.766 1168.12 458.324 1169.57 458.324C1171.02 458.324 1172.14 457.797 1172.94 456.742C1173.74 455.68 1174.15 454.16 1174.17 452.184V450.918ZM1183.96 453.637H1178.24V451.867H1183.96V453.637ZM1186.42 460V442.938H1191.23C1192.72 442.938 1194.03 443.266 1195.17 443.922C1196.31 444.578 1197.19 445.512 1197.81 446.723C1198.43 447.934 1198.75 449.324 1198.76 450.895V451.984C1198.76 453.594 1198.45 455.004 1197.82 456.215C1197.2 457.426 1196.32 458.355 1195.16 459.004C1194.01 459.652 1192.67 459.984 1191.14 460H1186.42ZM1188.67 444.789V458.16H1191.04C1192.77 458.16 1194.12 457.621 1195.08 456.543C1196.05 455.465 1196.53 453.93 1196.53 451.938V450.941C1196.53 449.004 1196.07 447.5 1195.16 446.43C1194.25 445.352 1192.96 444.805 1191.29 444.789H1188.67ZM1215.29 452.02C1215.29 453.691 1215.01 455.152 1214.45 456.402C1213.89 457.645 1213.09 458.594 1212.06 459.25C1211.03 459.906 1209.82 460.234 1208.45 460.234C1207.11 460.234 1205.91 459.906 1204.88 459.25C1203.84 458.586 1203.03 457.645 1202.45 456.426C1201.88 455.199 1201.59 453.781 1201.57 452.172V450.941C1201.57 449.301 1201.86 447.852 1202.43 446.594C1203 445.336 1203.8 444.375 1204.84 443.711C1205.89 443.039 1207.08 442.703 1208.43 442.703C1209.79 442.703 1211 443.035 1212.04 443.699C1213.08 444.355 1213.89 445.312 1214.45 446.57C1215.01 447.82 1215.29 449.277 1215.29 450.941V452.02ZM1213.05 450.918C1213.05 448.895 1212.65 447.344 1211.84 446.266C1211.02 445.18 1209.89 444.637 1208.43 444.637C1207 444.637 1205.88 445.18 1205.06 446.266C1204.25 447.344 1203.83 448.844 1203.81 450.766V452.02C1203.81 453.98 1204.22 455.523 1205.04 456.648C1205.87 457.766 1207 458.324 1208.45 458.324C1209.9 458.324 1211.03 457.797 1211.82 456.742C1212.62 455.68 1213.03 454.16 1213.05 452.184V450.918Z" fill="white"/>
<rect x="50" y="545" width="415" height="263" fill="#E3E3E3"/>
<rect x="512" y="545" width="415" height="263" fill="#E3E3E3"/>
<rect x="974" y="545" width="415" height="263" fill="#E3E3E3"/>
<rect x="50" y="757" width="415" height="50" fill="black"/>
<path d="M187.391 790V772.938H192.207C193.691 772.938 195.004 773.266 196.145 773.922C197.285 774.578 198.164 775.512 198.781 776.723C199.406 777.934 199.723 779.324 199.73 780.895V781.984C199.73 783.594 199.418 785.004 198.793 786.215C198.176 787.426 197.289 788.355 196.133 789.004C194.984 789.652 193.645 789.984 192.113 790H187.391ZM189.641 774.789V788.16H192.008C193.742 788.16 195.09 787.621 196.051 786.543C197.02 785.465 197.504 783.93 197.504 781.938V780.941C197.504 779.004 197.047 777.5 196.133 776.43C195.227 775.352 193.938 774.805 192.266 774.789H189.641ZM216.266 782.02C216.266 783.691 215.984 785.152 215.422 786.402C214.859 787.645 214.062 788.594 213.031 789.25C212 789.906 210.797 790.234 209.422 790.234C208.078 790.234 206.887 789.906 205.848 789.25C204.809 788.586 204 787.645 203.422 786.426C202.852 785.199 202.559 783.781 202.543 782.172V780.941C202.543 779.301 202.828 777.852 203.398 776.594C203.969 775.336 204.773 774.375 205.812 773.711C206.859 773.039 208.055 772.703 209.398 772.703C210.766 772.703 211.969 773.035 213.008 773.699C214.055 774.355 214.859 775.312 215.422 776.57C215.984 777.82 216.266 779.277 216.266 780.941V782.02ZM214.027 780.918C214.027 778.895 213.621 777.344 212.809 776.266C211.996 775.18 210.859 774.637 209.398 774.637C207.977 774.637 206.855 775.18 206.035 776.266C205.223 777.344 204.805 778.844 204.781 780.766V782.02C204.781 783.98 205.191 785.523 206.012 786.648C206.84 787.766 207.977 788.324 209.422 788.324C210.875 788.324 212 787.797 212.797 786.742C213.594 785.68 214.004 784.16 214.027 782.184V780.918ZM232.191 784.586C231.98 786.391 231.312 787.785 230.188 788.77C229.07 789.746 227.582 790.234 225.723 790.234C223.707 790.234 222.09 789.512 220.871 788.066C219.66 786.621 219.055 784.688 219.055 782.266V780.625C219.055 779.039 219.336 777.645 219.898 776.441C220.469 775.238 221.273 774.316 222.312 773.676C223.352 773.027 224.555 772.703 225.922 772.703C227.734 772.703 229.188 773.211 230.281 774.227C231.375 775.234 232.012 776.633 232.191 778.422H229.93C229.734 777.062 229.309 776.078 228.652 775.469C228.004 774.859 227.094 774.555 225.922 774.555C224.484 774.555 223.355 775.086 222.535 776.148C221.723 777.211 221.316 778.723 221.316 780.684V782.336C221.316 784.188 221.703 785.66 222.477 786.754C223.25 787.848 224.332 788.395 225.723 788.395C226.973 788.395 227.93 788.113 228.594 787.551C229.266 786.98 229.711 785.992 229.93 784.586H232.191ZM247.285 772.938V784.539C247.277 786.148 246.77 787.465 245.762 788.488C244.762 789.512 243.402 790.086 241.684 790.211L241.086 790.234C239.219 790.234 237.73 789.73 236.621 788.723C235.512 787.715 234.949 786.328 234.934 784.562V772.938H237.16V784.492C237.16 785.727 237.5 786.688 238.18 787.375C238.859 788.055 239.828 788.395 241.086 788.395C242.359 788.395 243.332 788.055 244.004 787.375C244.684 786.695 245.023 785.738 245.023 784.504V772.938H247.285ZM253.742 772.938L259.32 786.859L264.898 772.938H267.816V790H265.566V783.355L265.777 776.184L260.176 790H258.453L252.863 776.219L253.086 783.355V790H250.836V772.938H253.742ZM281.434 782.113H274.039V788.16H282.629V790H271.789V772.938H282.512V774.789H274.039V780.273H281.434V782.113ZM298.543 790H296.281L287.691 776.852V790H285.43V772.938H287.691L296.305 786.145V772.938H298.543V790ZM313.977 774.789H308.492V790H306.254V774.789H300.781V772.938H313.977V774.789ZM321.348 782.395C319.418 781.84 318.012 781.16 317.129 780.355C316.254 779.543 315.816 778.543 315.816 777.355C315.816 776.012 316.352 774.902 317.422 774.027C318.5 773.145 319.898 772.703 321.617 772.703C322.789 772.703 323.832 772.93 324.746 773.383C325.668 773.836 326.379 774.461 326.879 775.258C327.387 776.055 327.641 776.926 327.641 777.871H325.379C325.379 776.84 325.051 776.031 324.395 775.445C323.738 774.852 322.812 774.555 321.617 774.555C320.508 774.555 319.641 774.801 319.016 775.293C318.398 775.777 318.09 776.453 318.09 777.32C318.09 778.016 318.383 778.605 318.969 779.09C319.562 779.566 320.566 780.004 321.98 780.402C323.402 780.801 324.512 781.242 325.309 781.727C326.113 782.203 326.707 782.762 327.09 783.402C327.48 784.043 327.676 784.797 327.676 785.664C327.676 787.047 327.137 788.156 326.059 788.992C324.98 789.82 323.539 790.234 321.734 790.234C320.562 790.234 319.469 790.012 318.453 789.566C317.438 789.113 316.652 788.496 316.098 787.715C315.551 786.934 315.277 786.047 315.277 785.055H317.539C317.539 786.086 317.918 786.902 318.676 787.504C319.441 788.098 320.461 788.395 321.734 788.395C322.922 788.395 323.832 788.152 324.465 787.668C325.098 787.184 325.414 786.523 325.414 785.688C325.414 784.852 325.121 784.207 324.535 783.754C323.949 783.293 322.887 782.84 321.348 782.395Z" fill="white"/>
<rect x="512" y="757" width="415" height="50" fill="black"/>
<path d="M680.809 782.465H673.648V790H671.398V772.938H681.969V774.789H673.648V780.625H680.809V782.465ZM687.078 790H684.828V772.938H687.078V790ZM704.316 790H702.055L693.465 776.852V790H691.203V772.938H693.465L702.078 786.145V772.938H704.316V790ZM717.945 785.547H710.797L709.191 790H706.871L713.387 772.938H715.355L721.883 790H719.574L717.945 785.547ZM711.477 783.695H717.277L714.371 775.715L711.477 783.695ZM737.293 790H735.031L726.441 776.852V790H724.18V772.938H726.441L735.055 786.145V772.938H737.293V790ZM753.84 784.586C753.629 786.391 752.961 787.785 751.836 788.77C750.719 789.746 749.23 790.234 747.371 790.234C745.355 790.234 743.738 789.512 742.52 788.066C741.309 786.621 740.703 784.688 740.703 782.266V780.625C740.703 779.039 740.984 777.645 741.547 776.441C742.117 775.238 742.922 774.316 743.961 773.676C745 773.027 746.203 772.703 747.57 772.703C749.383 772.703 750.836 773.211 751.93 774.227C753.023 775.234 753.66 776.633 753.84 778.422H751.578C751.383 777.062 750.957 776.078 750.301 775.469C749.652 774.859 748.742 774.555 747.57 774.555C746.133 774.555 745.004 775.086 744.184 776.148C743.371 777.211 742.965 778.723 742.965 780.684V782.336C742.965 784.188 743.352 785.66 744.125 786.754C744.898 787.848 745.98 788.395 747.371 788.395C748.621 788.395 749.578 788.113 750.242 787.551C750.914 786.98 751.359 785.992 751.578 784.586H753.84ZM766.566 782.113H759.172V788.16H767.762V790H756.922V772.938H767.645V774.789H759.172V780.273H766.566V782.113Z" fill="white"/>
<rect x="974" y="757" width="415" height="50" fill="black"/>
<path d="M1123.71 783.098H1119.7V790H1117.44V772.938H1123.09C1125.01 772.938 1126.49 773.375 1127.52 774.25C1128.56 775.125 1129.08 776.398 1129.08 778.07C1129.08 779.133 1128.79 780.059 1128.21 780.848C1127.64 781.637 1126.84 782.227 1125.82 782.617L1129.83 789.859V790H1127.41L1123.71 783.098ZM1119.7 781.258H1123.16C1124.28 781.258 1125.16 780.969 1125.82 780.391C1126.48 779.812 1126.82 779.039 1126.82 778.07C1126.82 777.016 1126.5 776.207 1125.87 775.645C1125.24 775.082 1124.34 774.797 1123.15 774.789H1119.7V781.258ZM1141.89 782.113H1134.49V788.16H1143.08V790H1132.24V772.938H1142.96V774.789H1134.49V780.273H1141.89V782.113ZM1150.91 782.395C1148.98 781.84 1147.57 781.16 1146.69 780.355C1145.82 779.543 1145.38 778.543 1145.38 777.355C1145.38 776.012 1145.91 774.902 1146.98 774.027C1148.06 773.145 1149.46 772.703 1151.18 772.703C1152.35 772.703 1153.39 772.93 1154.31 773.383C1155.23 773.836 1155.94 774.461 1156.44 775.258C1156.95 776.055 1157.2 776.926 1157.2 777.871H1154.94C1154.94 776.84 1154.61 776.031 1153.96 775.445C1153.3 774.852 1152.38 774.555 1151.18 774.555C1150.07 774.555 1149.2 774.801 1148.58 775.293C1147.96 775.777 1147.65 776.453 1147.65 777.32C1147.65 778.016 1147.95 778.605 1148.53 779.09C1149.12 779.566 1150.13 780.004 1151.54 780.402C1152.96 780.801 1154.07 781.242 1154.87 781.727C1155.68 782.203 1156.27 782.762 1156.65 783.402C1157.04 784.043 1157.24 784.797 1157.24 785.664C1157.24 787.047 1156.7 788.156 1155.62 788.992C1154.54 789.82 1153.1 790.234 1151.3 790.234C1150.12 790.234 1149.03 790.012 1148.02 789.566C1147 789.113 1146.21 788.496 1145.66 787.715C1145.11 786.934 1144.84 786.047 1144.84 785.055H1147.1C1147.1 786.086 1147.48 786.902 1148.24 787.504C1149 788.098 1150.02 788.395 1151.3 788.395C1152.48 788.395 1153.39 788.152 1154.03 787.668C1154.66 787.184 1154.98 786.523 1154.98 785.688C1154.98 784.852 1154.68 784.207 1154.1 783.754C1153.51 783.293 1152.45 782.84 1150.91 782.395ZM1173.26 782.02C1173.26 783.691 1172.98 785.152 1172.41 786.402C1171.85 787.645 1171.05 788.594 1170.02 789.25C1168.99 789.906 1167.79 790.234 1166.41 790.234C1165.07 790.234 1163.88 789.906 1162.84 789.25C1161.8 788.586 1160.99 787.645 1160.41 786.426C1159.84 785.199 1159.55 783.781 1159.54 782.172V780.941C1159.54 779.301 1159.82 777.852 1160.39 776.594C1160.96 775.336 1161.77 774.375 1162.8 773.711C1163.85 773.039 1165.05 772.703 1166.39 772.703C1167.76 772.703 1168.96 773.035 1170 773.699C1171.05 774.355 1171.85 775.312 1172.41 776.57C1172.98 777.82 1173.26 779.277 1173.26 780.941V782.02ZM1171.02 780.918C1171.02 778.895 1170.61 777.344 1169.8 776.266C1168.99 775.18 1167.85 774.637 1166.39 774.637C1164.97 774.637 1163.85 775.18 1163.03 776.266C1162.21 777.344 1161.8 778.844 1161.77 780.766V782.02C1161.77 783.98 1162.18 785.523 1163 786.648C1163.83 787.766 1164.97 788.324 1166.41 788.324C1167.87 788.324 1168.99 787.797 1169.79 786.742C1170.59 785.68 1171 784.16 1171.02 782.184V780.918ZM1188.64 772.938V784.539C1188.64 786.148 1188.13 787.465 1187.12 788.488C1186.12 789.512 1184.76 790.086 1183.04 790.211L1182.45 790.234C1180.58 790.234 1179.09 789.73 1177.98 788.723C1176.87 787.715 1176.31 786.328 1176.29 784.562V772.938H1178.52V784.492C1178.52 785.727 1178.86 786.688 1179.54 787.375C1180.22 788.055 1181.19 788.395 1182.45 788.395C1183.72 788.395 1184.69 788.055 1185.36 787.375C1186.04 786.695 1186.38 785.738 1186.38 784.504V772.938H1188.64ZM1198.45 783.098H1194.45V790H1192.18V772.938H1197.83C1199.75 772.938 1201.23 773.375 1202.26 774.25C1203.3 775.125 1203.82 776.398 1203.82 778.07C1203.82 779.133 1203.53 780.059 1202.95 780.848C1202.38 781.637 1201.59 782.227 1200.56 782.617L1204.57 789.859V790H1202.16L1198.45 783.098ZM1194.45 781.258H1197.9C1199.02 781.258 1199.91 780.969 1200.56 780.391C1201.23 779.812 1201.56 779.039 1201.56 778.07C1201.56 777.016 1201.24 776.207 1200.61 775.645C1199.98 775.082 1199.08 774.797 1197.89 774.789H1194.45V781.258ZM1219.54 784.586C1219.32 786.391 1218.66 787.785 1217.53 788.77C1216.41 789.746 1214.93 790.234 1213.07 790.234C1211.05 790.234 1209.43 789.512 1208.21 788.066C1207 786.621 1206.4 784.688 1206.4 782.266V780.625C1206.4 779.039 1206.68 777.645 1207.24 776.441C1207.81 775.238 1208.62 774.316 1209.66 773.676C1210.7 773.027 1211.9 772.703 1213.27 772.703C1215.08 772.703 1216.53 773.211 1217.62 774.227C1218.72 775.234 1219.36 776.633 1219.54 778.422H1217.27C1217.08 777.062 1216.65 776.078 1216 775.469C1215.35 774.859 1214.44 774.555 1213.27 774.555C1211.83 774.555 1210.7 775.086 1209.88 776.148C1209.07 777.211 1208.66 778.723 1208.66 780.684V782.336C1208.66 784.188 1209.05 785.66 1209.82 786.754C1210.59 787.848 1211.68 788.395 1213.07 788.395C1214.32 788.395 1215.27 788.113 1215.94 787.551C1216.61 786.98 1217.05 785.992 1217.27 784.586H1219.54ZM1232.26 782.113H1224.87V788.16H1233.46V790H1222.62V772.938H1233.34V774.789H1224.87V780.273H1232.26V782.113ZM1241.29 782.395C1239.36 781.84 1237.95 781.16 1237.07 780.355C1236.19 779.543 1235.75 778.543 1235.75 777.355C1235.75 776.012 1236.29 774.902 1237.36 774.027C1238.44 773.145 1239.84 772.703 1241.55 772.703C1242.73 772.703 1243.77 772.93 1244.68 773.383C1245.61 773.836 1246.32 774.461 1246.82 775.258C1247.32 776.055 1247.58 776.926 1247.58 777.871H1245.32C1245.32 776.84 1244.99 776.031 1244.33 775.445C1243.68 774.852 1242.75 774.555 1241.55 774.555C1240.45 774.555 1239.58 774.801 1238.95 775.293C1238.34 775.777 1238.03 776.453 1238.03 777.32C1238.03 778.016 1238.32 778.605 1238.91 779.09C1239.5 779.566 1240.5 780.004 1241.92 780.402C1243.34 780.801 1244.45 781.242 1245.25 781.727C1246.05 782.203 1246.64 782.762 1247.03 783.402C1247.42 784.043 1247.61 784.797 1247.61 785.664C1247.61 787.047 1247.07 788.156 1246 788.992C1244.92 789.82 1243.48 790.234 1241.67 790.234C1240.5 790.234 1239.41 790.012 1238.39 789.566C1237.38 789.113 1236.59 788.496 1236.04 787.715C1235.49 786.934 1235.21 786.047 1235.21 785.055H1237.48C1237.48 786.086 1237.86 786.902 1238.61 787.504C1239.38 788.098 1240.4 788.395 1241.67 788.395C1242.86 788.395 1243.77 788.152 1244.4 787.668C1245.04 787.184 1245.35 786.523 1245.35 785.688C1245.35 784.852 1245.06 784.207 1244.47 783.754C1243.89 783.293 1242.82 782.84 1241.29 782.395Z" fill="white"/>
</svg>
