<svg width="1440" height="1024" viewBox="0 0 1440 1024" fill="none" xmlns="http://www.w3.org/2000/svg">
<rect width="1440" height="1024" fill="white"/>
<rect width="1440" height="60" fill="black"/>
<path d="M36.6475 33.8955C36.4814 36.1904 35.6318 37.9971 34.0986 39.3154C32.5752 40.6338 30.5635 41.293 28.0635 41.293C25.3291 41.293 23.1758 40.375 21.6035 38.5391C20.041 36.6934 19.2598 34.1641 19.2598 30.9512V29.6475C19.2598 27.5967 19.6211 25.79 20.3438 24.2275C21.0664 22.665 22.0967 21.4688 23.4346 20.6387C24.7822 19.7988 26.3447 19.3789 28.1221 19.3789C30.583 19.3789 32.5654 20.0381 34.0693 21.3564C35.5732 22.6748 36.4424 24.5254 36.6768 26.9082H32.2822C32.1748 25.5312 31.7891 24.5352 31.125 23.9199C30.4707 23.2949 29.4697 22.9824 28.1221 22.9824C26.6572 22.9824 25.5586 23.5098 24.8262 24.5645C24.1035 25.6094 23.7324 27.2354 23.7129 29.4424V31.0537C23.7129 33.3584 24.0596 35.043 24.7529 36.1074C25.4561 37.1719 26.5596 37.7041 28.0635 37.7041C29.4209 37.7041 30.4316 37.3965 31.0957 36.7812C31.7695 36.1562 32.1553 35.1943 32.2529 33.8955H36.6475ZM43.9277 37.4697H53.2588V41H39.5332V19.6719H43.9277V37.4697ZM60.4658 41H56.0713V19.6719H60.4658V41ZM77.3848 31.7568H68.9473V37.4697H78.8496V41H64.5527V19.6719H78.8203V23.2314H68.9473V28.3145H77.3848V31.7568ZM98.7715 41H94.377L85.8223 26.9668V41H81.4277V19.6719H85.8223L94.3916 33.7344V19.6719H98.7715V41ZM118.225 23.2314H111.691V41H107.297V23.2314H100.852V19.6719H118.225V23.2314ZM131.73 33.4854V41H127.336V19.6719H135.656C137.258 19.6719 138.664 19.9648 139.875 20.5508C141.096 21.1367 142.033 21.9717 142.688 23.0557C143.342 24.1299 143.669 25.3555 143.669 26.7324C143.669 28.8223 142.951 30.4727 141.516 31.6836C140.09 32.8848 138.112 33.4854 135.583 33.4854H131.73ZM131.73 29.9258H135.656C136.818 29.9258 137.702 29.6523 138.308 29.1055C138.923 28.5586 139.23 27.7773 139.23 26.7617C139.23 25.7168 138.923 24.8721 138.308 24.2275C137.692 23.583 136.843 23.251 135.759 23.2314H131.73V29.9258ZM164.221 30.8193C164.221 32.9189 163.85 34.7598 163.107 36.3418C162.365 37.9238 161.301 39.1445 159.914 40.0039C158.537 40.8633 156.955 41.293 155.168 41.293C153.4 41.293 151.823 40.8682 150.437 40.0186C149.05 39.1689 147.976 37.958 147.214 36.3857C146.452 34.8037 146.066 32.9873 146.057 30.9365V29.8818C146.057 27.7822 146.433 25.9365 147.185 24.3447C147.946 22.7432 149.016 21.5176 150.393 20.668C151.779 19.8086 153.361 19.3789 155.139 19.3789C156.916 19.3789 158.493 19.8086 159.87 20.668C161.257 21.5176 162.326 22.7432 163.078 24.3447C163.84 25.9365 164.221 27.7773 164.221 29.8672V30.8193ZM159.768 29.8525C159.768 27.6162 159.367 25.917 158.566 24.7549C157.766 23.5928 156.623 23.0117 155.139 23.0117C153.664 23.0117 152.526 23.5879 151.726 24.7402C150.925 25.8828 150.52 27.5625 150.51 29.7793V30.8193C150.51 32.9971 150.91 34.6865 151.711 35.8877C152.512 37.0889 153.664 37.6895 155.168 37.6895C156.643 37.6895 157.775 37.1133 158.566 35.9609C159.357 34.7988 159.758 33.1094 159.768 30.8926V29.8525ZM175.31 33.1924H171.809V41H167.414V19.6719H175.339C177.858 19.6719 179.802 20.2334 181.169 21.3564C182.536 22.4795 183.22 24.0664 183.22 26.1172C183.22 27.5723 182.902 28.7881 182.268 29.7646C181.643 30.7314 180.69 31.5029 179.411 32.0791L184.025 40.7949V41H179.309L175.31 33.1924ZM171.809 29.6328H175.354C176.457 29.6328 177.312 29.3545 177.917 28.7979C178.522 28.2314 178.825 27.4551 178.825 26.4688C178.825 25.4629 178.537 24.6719 177.961 24.0957C177.395 23.5195 176.521 23.2314 175.339 23.2314H171.809V29.6328ZM201.896 23.2314H195.363V41H190.969V23.2314H184.523V19.6719H201.896V23.2314ZM214.699 36.6055H206.994L205.529 41H200.856L208.796 19.6719H212.868L220.852 41H216.179L214.699 36.6055ZM208.181 33.0459H213.513L210.832 25.0625L208.181 33.0459ZM227.238 37.4697H236.569V41H222.844V19.6719H227.238V37.4697Z" fill="white"/>
<rect x="41" y="101" width="1358" height="882" stroke="black" stroke-width="2"/>
<rect x="40" y="100" width="1360" height="50" fill="black"/>
<rect x="242" y="183" width="1156" height="41" fill="#C4C4C4" fill-opacity="0.15"/>
<path d="M267.898 205.939C267.74 207.293 267.239 208.339 266.396 209.077C265.558 209.81 264.441 210.176 263.047 210.176C261.535 210.176 260.322 209.634 259.408 208.55C258.5 207.466 258.046 206.016 258.046 204.199V202.969C258.046 201.779 258.257 200.733 258.679 199.831C259.106 198.929 259.71 198.237 260.489 197.757C261.269 197.271 262.171 197.027 263.196 197.027C264.556 197.027 265.646 197.408 266.466 198.17C267.286 198.926 267.764 199.975 267.898 201.316H266.202C266.056 200.297 265.736 199.559 265.244 199.102C264.758 198.645 264.075 198.416 263.196 198.416C262.118 198.416 261.271 198.814 260.656 199.611C260.047 200.408 259.742 201.542 259.742 203.013V204.252C259.742 205.641 260.032 206.745 260.612 207.565C261.192 208.386 262.004 208.796 263.047 208.796C263.984 208.796 264.702 208.585 265.2 208.163C265.704 207.735 266.038 206.994 266.202 205.939H267.898ZM275.826 210C275.732 209.812 275.656 209.479 275.598 208.998C274.842 209.783 273.939 210.176 272.891 210.176C271.953 210.176 271.183 209.912 270.579 209.385C269.981 208.852 269.683 208.178 269.683 207.363C269.683 206.373 270.058 205.605 270.808 205.061C271.563 204.51 272.624 204.234 273.989 204.234H275.571V203.487C275.571 202.919 275.401 202.468 275.062 202.134C274.722 201.794 274.221 201.624 273.559 201.624C272.979 201.624 272.492 201.771 272.1 202.063C271.707 202.356 271.511 202.711 271.511 203.127H269.876C269.876 202.652 270.043 202.195 270.377 201.756C270.717 201.311 271.174 200.959 271.748 200.701C272.328 200.443 272.964 200.314 273.655 200.314C274.751 200.314 275.609 200.59 276.23 201.141C276.852 201.686 277.174 202.438 277.197 203.399V207.776C277.197 208.649 277.309 209.344 277.531 209.859V210H275.826ZM273.128 208.761C273.638 208.761 274.121 208.629 274.578 208.365C275.035 208.102 275.366 207.759 275.571 207.337V205.386H274.297C272.305 205.386 271.309 205.969 271.309 207.135C271.309 207.645 271.479 208.043 271.818 208.33C272.158 208.617 272.595 208.761 273.128 208.761ZM285.283 207.478C285.283 207.038 285.116 206.698 284.782 206.458C284.454 206.212 283.877 206.001 283.051 205.825C282.23 205.649 281.577 205.438 281.091 205.192C280.61 204.946 280.253 204.653 280.019 204.313C279.79 203.974 279.676 203.569 279.676 203.101C279.676 202.321 280.004 201.662 280.66 201.123C281.322 200.584 282.166 200.314 283.191 200.314C284.27 200.314 285.143 200.593 285.811 201.149C286.484 201.706 286.821 202.418 286.821 203.285H285.187C285.187 202.84 284.996 202.456 284.615 202.134C284.24 201.812 283.766 201.65 283.191 201.65C282.6 201.65 282.137 201.779 281.803 202.037C281.469 202.295 281.302 202.632 281.302 203.048C281.302 203.44 281.457 203.736 281.768 203.936C282.078 204.135 282.638 204.325 283.446 204.507C284.261 204.688 284.92 204.905 285.424 205.157C285.928 205.409 286.3 205.714 286.54 206.071C286.786 206.423 286.909 206.854 286.909 207.363C286.909 208.213 286.569 208.896 285.89 209.411C285.21 209.921 284.328 210.176 283.244 210.176C282.482 210.176 281.809 210.041 281.223 209.771C280.637 209.502 280.177 209.127 279.843 208.646C279.515 208.16 279.351 207.636 279.351 207.073H280.977C281.006 207.618 281.223 208.052 281.627 208.374C282.037 208.69 282.576 208.849 283.244 208.849C283.859 208.849 284.352 208.726 284.721 208.479C285.096 208.228 285.283 207.894 285.283 207.478ZM292.974 210.176C291.685 210.176 290.636 209.754 289.827 208.91C289.019 208.061 288.614 206.927 288.614 205.509V205.21C288.614 204.267 288.793 203.426 289.15 202.688C289.514 201.943 290.018 201.363 290.662 200.947C291.312 200.525 292.016 200.314 292.771 200.314C294.008 200.314 294.969 200.722 295.654 201.536C296.34 202.351 296.683 203.517 296.683 205.034V205.711H290.24C290.264 206.648 290.536 207.407 291.058 207.987C291.585 208.562 292.253 208.849 293.062 208.849C293.636 208.849 294.122 208.731 294.521 208.497C294.919 208.263 295.268 207.952 295.566 207.565L296.56 208.339C295.763 209.563 294.567 210.176 292.974 210.176ZM292.771 201.65C292.115 201.65 291.564 201.891 291.119 202.371C290.674 202.846 290.398 203.514 290.293 204.375H295.057V204.252C295.01 203.426 294.787 202.787 294.389 202.336C293.99 201.879 293.451 201.65 292.771 201.65ZM304.575 200.49L304.628 201.686C305.354 200.771 306.304 200.314 307.476 200.314C309.485 200.314 310.499 201.448 310.517 203.716V210H308.891V203.707C308.885 203.021 308.727 202.515 308.416 202.187C308.111 201.858 307.634 201.694 306.983 201.694C306.456 201.694 305.993 201.835 305.595 202.116C305.196 202.397 304.886 202.767 304.663 203.224V210H303.037V200.49H304.575ZM318.84 210C318.746 209.812 318.67 209.479 318.611 208.998C317.855 209.783 316.953 210.176 315.904 210.176C314.967 210.176 314.196 209.912 313.593 209.385C312.995 208.852 312.696 208.178 312.696 207.363C312.696 206.373 313.071 205.605 313.821 205.061C314.577 204.51 315.638 204.234 317.003 204.234H318.585V203.487C318.585 202.919 318.415 202.468 318.075 202.134C317.735 201.794 317.234 201.624 316.572 201.624C315.992 201.624 315.506 201.771 315.113 202.063C314.721 202.356 314.524 202.711 314.524 203.127H312.89C312.89 202.652 313.057 202.195 313.391 201.756C313.73 201.311 314.188 200.959 314.762 200.701C315.342 200.443 315.978 200.314 316.669 200.314C317.765 200.314 318.623 200.59 319.244 201.141C319.865 201.686 320.188 202.438 320.211 203.399V207.776C320.211 208.649 320.322 209.344 320.545 209.859V210H318.84ZM316.142 208.761C316.651 208.761 317.135 208.629 317.592 208.365C318.049 208.102 318.38 207.759 318.585 207.337V205.386H317.311C315.318 205.386 314.322 205.969 314.322 207.135C314.322 207.645 314.492 208.043 314.832 208.33C315.172 208.617 315.608 208.761 316.142 208.761ZM324.289 200.49L324.333 201.545C325.03 200.725 325.971 200.314 327.154 200.314C328.484 200.314 329.39 200.824 329.87 201.844C330.187 201.387 330.597 201.018 331.101 200.736C331.61 200.455 332.211 200.314 332.902 200.314C334.988 200.314 336.049 201.419 336.084 203.628V210H334.458V203.725C334.458 203.045 334.303 202.538 333.992 202.204C333.682 201.864 333.16 201.694 332.428 201.694C331.824 201.694 331.323 201.876 330.925 202.239C330.526 202.597 330.295 203.08 330.23 203.689V210H328.596V203.769C328.596 202.386 327.919 201.694 326.565 201.694C325.499 201.694 324.77 202.148 324.377 203.057V210H322.751V200.49H324.289ZM342.491 210.176C341.202 210.176 340.153 209.754 339.345 208.91C338.536 208.061 338.132 206.927 338.132 205.509V205.21C338.132 204.267 338.311 203.426 338.668 202.688C339.031 201.943 339.535 201.363 340.18 200.947C340.83 200.525 341.533 200.314 342.289 200.314C343.525 200.314 344.486 200.722 345.172 201.536C345.857 202.351 346.2 203.517 346.2 205.034V205.711H339.758C339.781 206.648 340.054 207.407 340.575 207.987C341.103 208.562 341.771 208.849 342.579 208.849C343.153 208.849 343.64 208.731 344.038 208.497C344.437 208.263 344.785 207.952 345.084 207.565L346.077 208.339C345.28 209.563 344.085 210.176 342.491 210.176ZM342.289 201.65C341.633 201.65 341.082 201.891 340.637 202.371C340.191 202.846 339.916 203.514 339.811 204.375H344.574V204.252C344.527 203.426 344.305 202.787 343.906 202.336C343.508 201.879 342.969 201.65 342.289 201.65Z" fill="black"/>
<path d="M267.898 246.939C267.74 248.293 267.239 249.339 266.396 250.077C265.558 250.81 264.441 251.176 263.047 251.176C261.535 251.176 260.322 250.634 259.408 249.55C258.5 248.466 258.046 247.016 258.046 245.199V243.969C258.046 242.779 258.257 241.733 258.679 240.831C259.106 239.929 259.71 239.237 260.489 238.757C261.269 238.271 262.171 238.027 263.196 238.027C264.556 238.027 265.646 238.408 266.466 239.17C267.286 239.926 267.764 240.975 267.898 242.316H266.202C266.056 241.297 265.736 240.559 265.244 240.102C264.758 239.645 264.075 239.416 263.196 239.416C262.118 239.416 261.271 239.814 260.656 240.611C260.047 241.408 259.742 242.542 259.742 244.013V245.252C259.742 246.641 260.032 247.745 260.612 248.565C261.192 249.386 262.004 249.796 263.047 249.796C263.984 249.796 264.702 249.585 265.2 249.163C265.704 248.735 266.038 247.994 266.202 246.939H267.898ZM275.826 251C275.732 250.812 275.656 250.479 275.598 249.998C274.842 250.783 273.939 251.176 272.891 251.176C271.953 251.176 271.183 250.912 270.579 250.385C269.981 249.852 269.683 249.178 269.683 248.363C269.683 247.373 270.058 246.605 270.808 246.061C271.563 245.51 272.624 245.234 273.989 245.234H275.571V244.487C275.571 243.919 275.401 243.468 275.062 243.134C274.722 242.794 274.221 242.624 273.559 242.624C272.979 242.624 272.492 242.771 272.1 243.063C271.707 243.356 271.511 243.711 271.511 244.127H269.876C269.876 243.652 270.043 243.195 270.377 242.756C270.717 242.311 271.174 241.959 271.748 241.701C272.328 241.443 272.964 241.314 273.655 241.314C274.751 241.314 275.609 241.59 276.23 242.141C276.852 242.686 277.174 243.438 277.197 244.399V248.776C277.197 249.649 277.309 250.344 277.531 250.859V251H275.826ZM273.128 249.761C273.638 249.761 274.121 249.629 274.578 249.365C275.035 249.102 275.366 248.759 275.571 248.337V246.386H274.297C272.305 246.386 271.309 246.969 271.309 248.135C271.309 248.645 271.479 249.043 271.818 249.33C272.158 249.617 272.595 249.761 273.128 249.761ZM285.283 248.478C285.283 248.038 285.116 247.698 284.782 247.458C284.454 247.212 283.877 247.001 283.051 246.825C282.23 246.649 281.577 246.438 281.091 246.192C280.61 245.946 280.253 245.653 280.019 245.313C279.79 244.974 279.676 244.569 279.676 244.101C279.676 243.321 280.004 242.662 280.66 242.123C281.322 241.584 282.166 241.314 283.191 241.314C284.27 241.314 285.143 241.593 285.811 242.149C286.484 242.706 286.821 243.418 286.821 244.285H285.187C285.187 243.84 284.996 243.456 284.615 243.134C284.24 242.812 283.766 242.65 283.191 242.65C282.6 242.65 282.137 242.779 281.803 243.037C281.469 243.295 281.302 243.632 281.302 244.048C281.302 244.44 281.457 244.736 281.768 244.936C282.078 245.135 282.638 245.325 283.446 245.507C284.261 245.688 284.92 245.905 285.424 246.157C285.928 246.409 286.3 246.714 286.54 247.071C286.786 247.423 286.909 247.854 286.909 248.363C286.909 249.213 286.569 249.896 285.89 250.411C285.21 250.921 284.328 251.176 283.244 251.176C282.482 251.176 281.809 251.041 281.223 250.771C280.637 250.502 280.177 250.127 279.843 249.646C279.515 249.16 279.351 248.636 279.351 248.073H280.977C281.006 248.618 281.223 249.052 281.627 249.374C282.037 249.69 282.576 249.849 283.244 249.849C283.859 249.849 284.352 249.726 284.721 249.479C285.096 249.228 285.283 248.894 285.283 248.478ZM292.974 251.176C291.685 251.176 290.636 250.754 289.827 249.91C289.019 249.061 288.614 247.927 288.614 246.509V246.21C288.614 245.267 288.793 244.426 289.15 243.688C289.514 242.943 290.018 242.363 290.662 241.947C291.312 241.525 292.016 241.314 292.771 241.314C294.008 241.314 294.969 241.722 295.654 242.536C296.34 243.351 296.683 244.517 296.683 246.034V246.711H290.24C290.264 247.648 290.536 248.407 291.058 248.987C291.585 249.562 292.253 249.849 293.062 249.849C293.636 249.849 294.122 249.731 294.521 249.497C294.919 249.263 295.268 248.952 295.566 248.565L296.56 249.339C295.763 250.563 294.567 251.176 292.974 251.176ZM292.771 242.65C292.115 242.65 291.564 242.891 291.119 243.371C290.674 243.846 290.398 244.514 290.293 245.375H295.057V245.252C295.01 244.426 294.787 243.787 294.389 243.336C293.99 242.879 293.451 242.65 292.771 242.65ZM304.575 241.49L304.628 242.686C305.354 241.771 306.304 241.314 307.476 241.314C309.485 241.314 310.499 242.448 310.517 244.716V251H308.891V244.707C308.885 244.021 308.727 243.515 308.416 243.187C308.111 242.858 307.634 242.694 306.983 242.694C306.456 242.694 305.993 242.835 305.595 243.116C305.196 243.397 304.886 243.767 304.663 244.224V251H303.037V241.49H304.575ZM318.84 251C318.746 250.812 318.67 250.479 318.611 249.998C317.855 250.783 316.953 251.176 315.904 251.176C314.967 251.176 314.196 250.912 313.593 250.385C312.995 249.852 312.696 249.178 312.696 248.363C312.696 247.373 313.071 246.605 313.821 246.061C314.577 245.51 315.638 245.234 317.003 245.234H318.585V244.487C318.585 243.919 318.415 243.468 318.075 243.134C317.735 242.794 317.234 242.624 316.572 242.624C315.992 242.624 315.506 242.771 315.113 243.063C314.721 243.356 314.524 243.711 314.524 244.127H312.89C312.89 243.652 313.057 243.195 313.391 242.756C313.73 242.311 314.188 241.959 314.762 241.701C315.342 241.443 315.978 241.314 316.669 241.314C317.765 241.314 318.623 241.59 319.244 242.141C319.865 242.686 320.188 243.438 320.211 244.399V248.776C320.211 249.649 320.322 250.344 320.545 250.859V251H318.84ZM316.142 249.761C316.651 249.761 317.135 249.629 317.592 249.365C318.049 249.102 318.38 248.759 318.585 248.337V246.386H317.311C315.318 246.386 314.322 246.969 314.322 248.135C314.322 248.645 314.492 249.043 314.832 249.33C315.172 249.617 315.608 249.761 316.142 249.761ZM324.289 241.49L324.333 242.545C325.03 241.725 325.971 241.314 327.154 241.314C328.484 241.314 329.39 241.824 329.87 242.844C330.187 242.387 330.597 242.018 331.101 241.736C331.61 241.455 332.211 241.314 332.902 241.314C334.988 241.314 336.049 242.419 336.084 244.628V251H334.458V244.725C334.458 244.045 334.303 243.538 333.992 243.204C333.682 242.864 333.16 242.694 332.428 242.694C331.824 242.694 331.323 242.876 330.925 243.239C330.526 243.597 330.295 244.08 330.23 244.689V251H328.596V244.769C328.596 243.386 327.919 242.694 326.565 242.694C325.499 242.694 324.77 243.148 324.377 244.057V251H322.751V241.49H324.289ZM342.491 251.176C341.202 251.176 340.153 250.754 339.345 249.91C338.536 249.061 338.132 247.927 338.132 246.509V246.21C338.132 245.267 338.311 244.426 338.668 243.688C339.031 242.943 339.535 242.363 340.18 241.947C340.83 241.525 341.533 241.314 342.289 241.314C343.525 241.314 344.486 241.722 345.172 242.536C345.857 243.351 346.2 244.517 346.2 246.034V246.711H339.758C339.781 247.648 340.054 248.407 340.575 248.987C341.103 249.562 341.771 249.849 342.579 249.849C343.153 249.849 343.64 249.731 344.038 249.497C344.437 249.263 344.785 248.952 345.084 248.565L346.077 249.339C345.28 250.563 344.085 251.176 342.491 251.176ZM342.289 242.65C341.633 242.65 341.082 242.891 340.637 243.371C340.191 243.846 339.916 244.514 339.811 245.375H344.574V245.252C344.527 244.426 344.305 243.787 343.906 243.336C343.508 242.879 342.969 242.65 342.289 242.65Z" fill="black"/>
<path d="M63.5254 126.434V132H61.6504V117.781H66.8945C68.4505 117.781 69.668 118.178 70.5469 118.973C71.4323 119.767 71.875 120.818 71.875 122.127C71.875 123.507 71.4421 124.572 70.5762 125.32C69.7168 126.062 68.4831 126.434 66.875 126.434H63.5254ZM63.5254 124.9H66.8945C67.8971 124.9 68.6654 124.666 69.1992 124.197C69.7331 123.722 70 123.038 70 122.146C70 121.3 69.7331 120.623 69.1992 120.115C68.6654 119.607 67.9329 119.344 67.002 119.324H63.5254V124.9ZM85.2051 125.35C85.2051 126.743 84.9707 127.96 84.502 129.002C84.0332 130.037 83.3691 130.828 82.5098 131.375C81.6504 131.922 80.6478 132.195 79.502 132.195C78.3822 132.195 77.3893 131.922 76.5234 131.375C75.6576 130.822 74.9837 130.037 74.502 129.021C74.0267 127.999 73.7826 126.818 73.7695 125.477V124.451C73.7695 123.084 74.0072 121.876 74.4824 120.828C74.9577 119.78 75.6283 118.979 76.4941 118.426C77.3665 117.866 78.3626 117.586 79.4824 117.586C80.6217 117.586 81.6243 117.863 82.4902 118.416C83.3626 118.963 84.0332 119.76 84.502 120.809C84.9707 121.85 85.2051 123.064 85.2051 124.451V125.35ZM83.3398 124.432C83.3398 122.745 83.0013 121.453 82.3242 120.555C81.6471 119.65 80.6999 119.197 79.4824 119.197C78.2975 119.197 77.3633 119.65 76.6797 120.555C76.0026 121.453 75.6543 122.703 75.6348 124.305V125.35C75.6348 126.984 75.9766 128.27 76.6602 129.207C77.3503 130.138 78.2975 130.604 79.502 130.604C80.7129 130.604 81.6504 130.164 82.3145 129.285C82.9785 128.4 83.3203 127.133 83.3398 125.486V124.432ZM93.2324 126.248H89.8926V132H88.0078V117.781H92.7148C94.3164 117.781 95.5469 118.146 96.4062 118.875C97.2721 119.604 97.7051 120.665 97.7051 122.059C97.7051 122.944 97.4642 123.715 96.9824 124.373C96.5072 125.031 95.8431 125.522 94.9902 125.848L98.3301 131.883V132H96.3184L93.2324 126.248ZM89.8926 124.715H92.7734C93.7044 124.715 94.4434 124.474 94.9902 123.992C95.5436 123.51 95.8203 122.866 95.8203 122.059C95.8203 121.18 95.5566 120.506 95.0293 120.037C94.5085 119.568 93.7533 119.331 92.7637 119.324H89.8926V124.715ZM109.385 119.324H104.814V132H102.949V119.324H98.3887V117.781H109.385V119.324ZM119.336 125.721H113.369V132H111.494V117.781H120.303V119.324H113.369V124.188H119.336V125.721ZM133.486 125.35C133.486 126.743 133.252 127.96 132.783 129.002C132.314 130.037 131.65 130.828 130.791 131.375C129.932 131.922 128.929 132.195 127.783 132.195C126.663 132.195 125.671 131.922 124.805 131.375C123.939 130.822 123.265 130.037 122.783 129.021C122.308 127.999 122.064 126.818 122.051 125.477V124.451C122.051 123.084 122.288 121.876 122.764 120.828C123.239 119.78 123.91 118.979 124.775 118.426C125.648 117.866 126.644 117.586 127.764 117.586C128.903 117.586 129.906 117.863 130.771 118.416C131.644 118.963 132.314 119.76 132.783 120.809C133.252 121.85 133.486 123.064 133.486 124.451V125.35ZM131.621 124.432C131.621 122.745 131.283 121.453 130.605 120.555C129.928 119.65 128.981 119.197 127.764 119.197C126.579 119.197 125.645 119.65 124.961 120.555C124.284 121.453 123.936 122.703 123.916 124.305V125.35C123.916 126.984 124.258 128.27 124.941 129.207C125.632 130.138 126.579 130.604 127.783 130.604C128.994 130.604 129.932 130.164 130.596 129.285C131.26 128.4 131.602 127.133 131.621 125.486V124.432ZM138.184 130.467H144.922V132H136.299V117.781H138.184V130.467ZM149.072 132H147.197V117.781H149.072V132ZM163.447 125.35C163.447 126.743 163.213 127.96 162.744 129.002C162.275 130.037 161.611 130.828 160.752 131.375C159.893 131.922 158.89 132.195 157.744 132.195C156.624 132.195 155.632 131.922 154.766 131.375C153.9 130.822 153.226 130.037 152.744 129.021C152.269 127.999 152.025 126.818 152.012 125.477V124.451C152.012 123.084 152.249 121.876 152.725 120.828C153.2 119.78 153.87 118.979 154.736 118.426C155.609 117.866 156.605 117.586 157.725 117.586C158.864 117.586 159.867 117.863 160.732 118.416C161.605 118.963 162.275 119.76 162.744 120.809C163.213 121.85 163.447 123.064 163.447 124.451V125.35ZM161.582 124.432C161.582 122.745 161.243 121.453 160.566 120.555C159.889 119.65 158.942 119.197 157.725 119.197C156.54 119.197 155.605 119.65 154.922 120.555C154.245 121.453 153.896 122.703 153.877 124.305V125.35C153.877 126.984 154.219 128.27 154.902 129.207C155.592 130.138 156.54 130.604 157.744 130.604C158.955 130.604 159.893 130.164 160.557 129.285C161.221 128.4 161.562 127.133 161.582 125.486V124.432Z" fill="white"/>
<g filter="url(#filter0_d)">
<rect x="42" y="150" width="200" height="832" fill="white"/>
</g>
<rect x="42" y="150" width="200" height="53" fill="#9BA5AD"/>
<path d="M65.8398 176.662C64.2318 176.2 63.0599 175.633 62.3242 174.963C61.5951 174.286 61.2305 173.452 61.2305 172.463C61.2305 171.343 61.6764 170.419 62.5684 169.689C63.4668 168.954 64.6322 168.586 66.0645 168.586C67.041 168.586 67.9102 168.775 68.6719 169.152C69.4401 169.53 70.0326 170.051 70.4492 170.715C70.8724 171.379 71.084 172.105 71.084 172.893H69.1992C69.1992 172.033 68.9258 171.359 68.3789 170.871C67.832 170.376 67.0605 170.129 66.0645 170.129C65.14 170.129 64.4173 170.334 63.8965 170.744C63.3822 171.148 63.125 171.711 63.125 172.434C63.125 173.013 63.3691 173.505 63.8574 173.908C64.3522 174.305 65.1888 174.67 66.3672 175.002C67.5521 175.334 68.4766 175.702 69.1406 176.105C69.8112 176.503 70.306 176.968 70.625 177.502C70.9505 178.036 71.1133 178.664 71.1133 179.387C71.1133 180.539 70.6641 181.464 69.7656 182.16C68.8672 182.85 67.666 183.195 66.1621 183.195C65.1855 183.195 64.2741 183.01 63.4277 182.639C62.5814 182.261 61.9271 181.747 61.4648 181.096C61.0091 180.445 60.7812 179.706 60.7812 178.879H62.666C62.666 179.738 62.9818 180.419 63.6133 180.92C64.2513 181.415 65.1009 181.662 66.1621 181.662C67.1517 181.662 67.9102 181.46 68.4375 181.057C68.9648 180.653 69.2285 180.103 69.2285 179.406C69.2285 178.71 68.9844 178.173 68.4961 177.795C68.0078 177.411 67.1224 177.033 65.8398 176.662ZM77.627 183.195C76.1947 183.195 75.0293 182.727 74.1309 181.789C73.2324 180.845 72.7832 179.585 72.7832 178.01V177.678C72.7832 176.63 72.9818 175.695 73.3789 174.875C73.7826 174.048 74.3424 173.404 75.0586 172.941C75.7812 172.473 76.5625 172.238 77.4023 172.238C78.776 172.238 79.8438 172.691 80.6055 173.596C81.3672 174.501 81.748 175.796 81.748 177.482V178.234H74.5898C74.6159 179.276 74.9186 180.119 75.498 180.764C76.084 181.402 76.8262 181.721 77.7246 181.721C78.3626 181.721 78.903 181.59 79.3457 181.33C79.7884 181.07 80.1758 180.725 80.5078 180.295L81.6113 181.154C80.7259 182.515 79.3978 183.195 77.627 183.195ZM77.4023 173.723C76.6732 173.723 76.0612 173.99 75.5664 174.523C75.0716 175.051 74.7656 175.793 74.6484 176.75H79.9414V176.613C79.8893 175.695 79.6419 174.986 79.1992 174.484C78.7565 173.977 78.1576 173.723 77.4023 173.723ZM88.0859 181.721C88.7305 181.721 89.2936 181.525 89.7754 181.135C90.2572 180.744 90.5241 180.256 90.5762 179.67H92.2852C92.2526 180.275 92.0443 180.852 91.6602 181.398C91.276 181.945 90.7617 182.382 90.1172 182.707C89.4792 183.033 88.8021 183.195 88.0859 183.195C86.6471 183.195 85.5013 182.717 84.6484 181.76C83.8021 180.796 83.3789 179.481 83.3789 177.814V177.512C83.3789 176.483 83.5677 175.568 83.9453 174.768C84.3229 173.967 84.8633 173.345 85.5664 172.902C86.276 172.46 87.1126 172.238 88.0762 172.238C89.2611 172.238 90.2441 172.593 91.0254 173.303C91.8132 174.012 92.2331 174.934 92.2852 176.066H90.5762C90.5241 175.383 90.2637 174.823 89.7949 174.387C89.3327 173.944 88.7598 173.723 88.0762 173.723C87.1582 173.723 86.4453 174.055 85.9375 174.719C85.4362 175.376 85.1855 176.33 85.1855 177.58V177.922C85.1855 179.139 85.4362 180.077 85.9375 180.734C86.4388 181.392 87.1549 181.721 88.0859 181.721ZM96.7676 169.875V172.434H98.7402V173.83H96.7676V180.383C96.7676 180.806 96.8555 181.125 97.0312 181.34C97.207 181.548 97.5065 181.652 97.9297 181.652C98.138 181.652 98.4245 181.613 98.7891 181.535V183C98.3138 183.13 97.8516 183.195 97.4023 183.195C96.5951 183.195 95.9863 182.951 95.5762 182.463C95.166 181.975 94.9609 181.281 94.9609 180.383V173.83H93.0371V172.434H94.9609V169.875H96.7676ZM102.822 183H101.016V172.434H102.822V183ZM100.869 169.631C100.869 169.338 100.957 169.09 101.133 168.889C101.315 168.687 101.582 168.586 101.934 168.586C102.285 168.586 102.552 168.687 102.734 168.889C102.917 169.09 103.008 169.338 103.008 169.631C103.008 169.924 102.917 170.168 102.734 170.363C102.552 170.559 102.285 170.656 101.934 170.656C101.582 170.656 101.315 170.559 101.133 170.363C100.957 170.168 100.869 169.924 100.869 169.631ZM105.244 177.619C105.244 176.584 105.446 175.653 105.85 174.826C106.26 173.999 106.826 173.361 107.549 172.912C108.278 172.463 109.108 172.238 110.039 172.238C111.478 172.238 112.64 172.736 113.525 173.732C114.417 174.729 114.863 176.053 114.863 177.707V177.834C114.863 178.863 114.665 179.787 114.268 180.607C113.877 181.421 113.314 182.056 112.578 182.512C111.849 182.967 111.009 183.195 110.059 183.195C108.626 183.195 107.464 182.697 106.572 181.701C105.687 180.705 105.244 179.387 105.244 177.746V177.619ZM107.061 177.834C107.061 179.006 107.331 179.947 107.871 180.656C108.418 181.366 109.147 181.721 110.059 181.721C110.977 181.721 111.706 181.363 112.246 180.646C112.786 179.924 113.057 178.915 113.057 177.619C113.057 176.46 112.78 175.523 112.227 174.807C111.68 174.084 110.951 173.723 110.039 173.723C109.147 173.723 108.428 174.077 107.881 174.787C107.334 175.497 107.061 176.512 107.061 177.834ZM118.838 172.434L118.896 173.762C119.704 172.746 120.758 172.238 122.061 172.238C124.294 172.238 125.42 173.498 125.439 176.018V183H123.633V176.008C123.626 175.246 123.451 174.683 123.105 174.318C122.767 173.954 122.236 173.771 121.514 173.771C120.928 173.771 120.413 173.928 119.971 174.24C119.528 174.553 119.183 174.963 118.936 175.471V183H117.129V172.434H118.838ZM134.834 172.434L134.893 173.762C135.7 172.746 136.755 172.238 138.057 172.238C140.29 172.238 141.416 173.498 141.436 176.018V183H139.629V176.008C139.622 175.246 139.447 174.683 139.102 174.318C138.763 173.954 138.232 173.771 137.51 173.771C136.924 173.771 136.41 173.928 135.967 174.24C135.524 174.553 135.179 174.963 134.932 175.471V183H133.125V172.434H134.834ZM150.684 183C150.579 182.792 150.495 182.421 150.43 181.887C149.59 182.759 148.587 183.195 147.422 183.195C146.38 183.195 145.524 182.902 144.854 182.316C144.189 181.724 143.857 180.975 143.857 180.07C143.857 178.97 144.274 178.117 145.107 177.512C145.947 176.9 147.126 176.594 148.643 176.594H150.4V175.764C150.4 175.132 150.212 174.631 149.834 174.26C149.456 173.882 148.9 173.693 148.164 173.693C147.52 173.693 146.979 173.856 146.543 174.182C146.107 174.507 145.889 174.901 145.889 175.363H144.072C144.072 174.836 144.258 174.328 144.629 173.84C145.007 173.345 145.514 172.954 146.152 172.668C146.797 172.382 147.503 172.238 148.271 172.238C149.489 172.238 150.443 172.544 151.133 173.156C151.823 173.762 152.181 174.598 152.207 175.666V180.529C152.207 181.499 152.331 182.271 152.578 182.844V183H150.684ZM147.686 181.623C148.252 181.623 148.789 181.477 149.297 181.184C149.805 180.891 150.173 180.51 150.4 180.041V177.873H148.984C146.771 177.873 145.664 178.521 145.664 179.816C145.664 180.383 145.853 180.826 146.23 181.145C146.608 181.464 147.093 181.623 147.686 181.623ZM156.738 172.434L156.787 173.605C157.562 172.694 158.607 172.238 159.922 172.238C161.4 172.238 162.406 172.805 162.939 173.938C163.291 173.43 163.747 173.02 164.307 172.707C164.873 172.395 165.54 172.238 166.309 172.238C168.626 172.238 169.805 173.465 169.844 175.92V183H168.037V176.027C168.037 175.272 167.865 174.709 167.52 174.338C167.174 173.96 166.595 173.771 165.781 173.771C165.111 173.771 164.554 173.973 164.111 174.377C163.669 174.774 163.411 175.311 163.34 175.988V183H161.523V176.076C161.523 174.54 160.771 173.771 159.268 173.771C158.083 173.771 157.272 174.276 156.836 175.285V183H155.029V172.434H156.738ZM176.963 183.195C175.531 183.195 174.365 182.727 173.467 181.789C172.568 180.845 172.119 179.585 172.119 178.01V177.678C172.119 176.63 172.318 175.695 172.715 174.875C173.118 174.048 173.678 173.404 174.395 172.941C175.117 172.473 175.898 172.238 176.738 172.238C178.112 172.238 179.18 172.691 179.941 173.596C180.703 174.501 181.084 175.796 181.084 177.482V178.234H173.926C173.952 179.276 174.255 180.119 174.834 180.764C175.42 181.402 176.162 181.721 177.061 181.721C177.699 181.721 178.239 181.59 178.682 181.33C179.124 181.07 179.512 180.725 179.844 180.295L180.947 181.154C180.062 182.515 178.734 183.195 176.963 183.195ZM176.738 173.723C176.009 173.723 175.397 173.99 174.902 174.523C174.408 175.051 174.102 175.793 173.984 176.75H179.277V176.613C179.225 175.695 178.978 174.986 178.535 174.484C178.092 173.977 177.493 173.723 176.738 173.723Z" fill="white"/>
<path d="M65.8398 229.662C64.2318 229.2 63.0599 228.633 62.3242 227.963C61.5951 227.286 61.2305 226.452 61.2305 225.463C61.2305 224.343 61.6764 223.419 62.5684 222.689C63.4668 221.954 64.6322 221.586 66.0645 221.586C67.041 221.586 67.9102 221.775 68.6719 222.152C69.4401 222.53 70.0326 223.051 70.4492 223.715C70.8724 224.379 71.084 225.105 71.084 225.893H69.1992C69.1992 225.033 68.9258 224.359 68.3789 223.871C67.832 223.376 67.0605 223.129 66.0645 223.129C65.14 223.129 64.4173 223.334 63.8965 223.744C63.3822 224.148 63.125 224.711 63.125 225.434C63.125 226.013 63.3691 226.505 63.8574 226.908C64.3522 227.305 65.1888 227.67 66.3672 228.002C67.5521 228.334 68.4766 228.702 69.1406 229.105C69.8112 229.503 70.306 229.968 70.625 230.502C70.9505 231.036 71.1133 231.664 71.1133 232.387C71.1133 233.539 70.6641 234.464 69.7656 235.16C68.8672 235.85 67.666 236.195 66.1621 236.195C65.1855 236.195 64.2741 236.01 63.4277 235.639C62.5814 235.261 61.9271 234.747 61.4648 234.096C61.0091 233.445 60.7812 232.706 60.7812 231.879H62.666C62.666 232.738 62.9818 233.419 63.6133 233.92C64.2513 234.415 65.1009 234.662 66.1621 234.662C67.1517 234.662 67.9102 234.46 68.4375 234.057C68.9648 233.653 69.2285 233.103 69.2285 232.406C69.2285 231.71 68.9844 231.173 68.4961 230.795C68.0078 230.411 67.1224 230.033 65.8398 229.662ZM77.627 236.195C76.1947 236.195 75.0293 235.727 74.1309 234.789C73.2324 233.845 72.7832 232.585 72.7832 231.01V230.678C72.7832 229.63 72.9818 228.695 73.3789 227.875C73.7826 227.048 74.3424 226.404 75.0586 225.941C75.7812 225.473 76.5625 225.238 77.4023 225.238C78.776 225.238 79.8438 225.691 80.6055 226.596C81.3672 227.501 81.748 228.796 81.748 230.482V231.234H74.5898C74.6159 232.276 74.9186 233.119 75.498 233.764C76.084 234.402 76.8262 234.721 77.7246 234.721C78.3626 234.721 78.903 234.59 79.3457 234.33C79.7884 234.07 80.1758 233.725 80.5078 233.295L81.6113 234.154C80.7259 235.515 79.3978 236.195 77.627 236.195ZM77.4023 226.723C76.6732 226.723 76.0612 226.99 75.5664 227.523C75.0716 228.051 74.7656 228.793 74.6484 229.75H79.9414V229.613C79.8893 228.695 79.6419 227.986 79.1992 227.484C78.7565 226.977 78.1576 226.723 77.4023 226.723ZM88.0859 234.721C88.7305 234.721 89.2936 234.525 89.7754 234.135C90.2572 233.744 90.5241 233.256 90.5762 232.67H92.2852C92.2526 233.275 92.0443 233.852 91.6602 234.398C91.276 234.945 90.7617 235.382 90.1172 235.707C89.4792 236.033 88.8021 236.195 88.0859 236.195C86.6471 236.195 85.5013 235.717 84.6484 234.76C83.8021 233.796 83.3789 232.481 83.3789 230.814V230.512C83.3789 229.483 83.5677 228.568 83.9453 227.768C84.3229 226.967 84.8633 226.345 85.5664 225.902C86.276 225.46 87.1126 225.238 88.0762 225.238C89.2611 225.238 90.2441 225.593 91.0254 226.303C91.8132 227.012 92.2331 227.934 92.2852 229.066H90.5762C90.5241 228.383 90.2637 227.823 89.7949 227.387C89.3327 226.944 88.7598 226.723 88.0762 226.723C87.1582 226.723 86.4453 227.055 85.9375 227.719C85.4362 228.376 85.1855 229.33 85.1855 230.58V230.922C85.1855 232.139 85.4362 233.077 85.9375 233.734C86.4388 234.392 87.1549 234.721 88.0859 234.721ZM96.7676 222.875V225.434H98.7402V226.83H96.7676V233.383C96.7676 233.806 96.8555 234.125 97.0312 234.34C97.207 234.548 97.5065 234.652 97.9297 234.652C98.138 234.652 98.4245 234.613 98.7891 234.535V236C98.3138 236.13 97.8516 236.195 97.4023 236.195C96.5951 236.195 95.9863 235.951 95.5762 235.463C95.166 234.975 94.9609 234.281 94.9609 233.383V226.83H93.0371V225.434H94.9609V222.875H96.7676ZM102.822 236H101.016V225.434H102.822V236ZM100.869 222.631C100.869 222.338 100.957 222.09 101.133 221.889C101.315 221.687 101.582 221.586 101.934 221.586C102.285 221.586 102.552 221.687 102.734 221.889C102.917 222.09 103.008 222.338 103.008 222.631C103.008 222.924 102.917 223.168 102.734 223.363C102.552 223.559 102.285 223.656 101.934 223.656C101.582 223.656 101.315 223.559 101.133 223.363C100.957 223.168 100.869 222.924 100.869 222.631ZM105.244 230.619C105.244 229.584 105.446 228.653 105.85 227.826C106.26 226.999 106.826 226.361 107.549 225.912C108.278 225.463 109.108 225.238 110.039 225.238C111.478 225.238 112.64 225.736 113.525 226.732C114.417 227.729 114.863 229.053 114.863 230.707V230.834C114.863 231.863 114.665 232.787 114.268 233.607C113.877 234.421 113.314 235.056 112.578 235.512C111.849 235.967 111.009 236.195 110.059 236.195C108.626 236.195 107.464 235.697 106.572 234.701C105.687 233.705 105.244 232.387 105.244 230.746V230.619ZM107.061 230.834C107.061 232.006 107.331 232.947 107.871 233.656C108.418 234.366 109.147 234.721 110.059 234.721C110.977 234.721 111.706 234.363 112.246 233.646C112.786 232.924 113.057 231.915 113.057 230.619C113.057 229.46 112.78 228.523 112.227 227.807C111.68 227.084 110.951 226.723 110.039 226.723C109.147 226.723 108.428 227.077 107.881 227.787C107.334 228.497 107.061 229.512 107.061 230.834ZM118.838 225.434L118.896 226.762C119.704 225.746 120.758 225.238 122.061 225.238C124.294 225.238 125.42 226.498 125.439 229.018V236H123.633V229.008C123.626 228.246 123.451 227.683 123.105 227.318C122.767 226.954 122.236 226.771 121.514 226.771C120.928 226.771 120.413 226.928 119.971 227.24C119.528 227.553 119.183 227.963 118.936 228.471V236H117.129V225.434H118.838ZM134.834 225.434L134.893 226.762C135.7 225.746 136.755 225.238 138.057 225.238C140.29 225.238 141.416 226.498 141.436 229.018V236H139.629V229.008C139.622 228.246 139.447 227.683 139.102 227.318C138.763 226.954 138.232 226.771 137.51 226.771C136.924 226.771 136.41 226.928 135.967 227.24C135.524 227.553 135.179 227.963 134.932 228.471V236H133.125V225.434H134.834ZM150.684 236C150.579 235.792 150.495 235.421 150.43 234.887C149.59 235.759 148.587 236.195 147.422 236.195C146.38 236.195 145.524 235.902 144.854 235.316C144.189 234.724 143.857 233.975 143.857 233.07C143.857 231.97 144.274 231.117 145.107 230.512C145.947 229.9 147.126 229.594 148.643 229.594H150.4V228.764C150.4 228.132 150.212 227.631 149.834 227.26C149.456 226.882 148.9 226.693 148.164 226.693C147.52 226.693 146.979 226.856 146.543 227.182C146.107 227.507 145.889 227.901 145.889 228.363H144.072C144.072 227.836 144.258 227.328 144.629 226.84C145.007 226.345 145.514 225.954 146.152 225.668C146.797 225.382 147.503 225.238 148.271 225.238C149.489 225.238 150.443 225.544 151.133 226.156C151.823 226.762 152.181 227.598 152.207 228.666V233.529C152.207 234.499 152.331 235.271 152.578 235.844V236H150.684ZM147.686 234.623C148.252 234.623 148.789 234.477 149.297 234.184C149.805 233.891 150.173 233.51 150.4 233.041V230.873H148.984C146.771 230.873 145.664 231.521 145.664 232.816C145.664 233.383 145.853 233.826 146.23 234.145C146.608 234.464 147.093 234.623 147.686 234.623ZM156.738 225.434L156.787 226.605C157.562 225.694 158.607 225.238 159.922 225.238C161.4 225.238 162.406 225.805 162.939 226.938C163.291 226.43 163.747 226.02 164.307 225.707C164.873 225.395 165.54 225.238 166.309 225.238C168.626 225.238 169.805 226.465 169.844 228.92V236H168.037V229.027C168.037 228.272 167.865 227.709 167.52 227.338C167.174 226.96 166.595 226.771 165.781 226.771C165.111 226.771 164.554 226.973 164.111 227.377C163.669 227.774 163.411 228.311 163.34 228.988V236H161.523V229.076C161.523 227.54 160.771 226.771 159.268 226.771C158.083 226.771 157.272 227.276 156.836 228.285V236H155.029V225.434H156.738ZM176.963 236.195C175.531 236.195 174.365 235.727 173.467 234.789C172.568 233.845 172.119 232.585 172.119 231.01V230.678C172.119 229.63 172.318 228.695 172.715 227.875C173.118 227.048 173.678 226.404 174.395 225.941C175.117 225.473 175.898 225.238 176.738 225.238C178.112 225.238 179.18 225.691 179.941 226.596C180.703 227.501 181.084 228.796 181.084 230.482V231.234H173.926C173.952 232.276 174.255 233.119 174.834 233.764C175.42 234.402 176.162 234.721 177.061 234.721C177.699 234.721 178.239 234.59 178.682 234.33C179.124 234.07 179.512 233.725 179.844 233.295L180.947 234.154C180.062 235.515 178.734 236.195 176.963 236.195ZM176.738 226.723C176.009 226.723 175.397 226.99 174.902 227.523C174.408 228.051 174.102 228.793 173.984 229.75H179.277V229.613C179.225 228.695 178.978 227.986 178.535 227.484C178.092 226.977 177.493 226.723 176.738 226.723Z" fill="black"/>
<line x1="52" y1="255.5" x2="232" y2="255.5" stroke="#9BA5AD" stroke-opacity="0.5"/>
<path d="M65.8398 282.662C64.2318 282.2 63.0599 281.633 62.3242 280.963C61.5951 280.286 61.2305 279.452 61.2305 278.463C61.2305 277.343 61.6764 276.419 62.5684 275.689C63.4668 274.954 64.6322 274.586 66.0645 274.586C67.041 274.586 67.9102 274.775 68.6719 275.152C69.4401 275.53 70.0326 276.051 70.4492 276.715C70.8724 277.379 71.084 278.105 71.084 278.893H69.1992C69.1992 278.033 68.9258 277.359 68.3789 276.871C67.832 276.376 67.0605 276.129 66.0645 276.129C65.14 276.129 64.4173 276.334 63.8965 276.744C63.3822 277.148 63.125 277.711 63.125 278.434C63.125 279.013 63.3691 279.505 63.8574 279.908C64.3522 280.305 65.1888 280.67 66.3672 281.002C67.5521 281.334 68.4766 281.702 69.1406 282.105C69.8112 282.503 70.306 282.968 70.625 283.502C70.9505 284.036 71.1133 284.664 71.1133 285.387C71.1133 286.539 70.6641 287.464 69.7656 288.16C68.8672 288.85 67.666 289.195 66.1621 289.195C65.1855 289.195 64.2741 289.01 63.4277 288.639C62.5814 288.261 61.9271 287.747 61.4648 287.096C61.0091 286.445 60.7812 285.706 60.7812 284.879H62.666C62.666 285.738 62.9818 286.419 63.6133 286.92C64.2513 287.415 65.1009 287.662 66.1621 287.662C67.1517 287.662 67.9102 287.46 68.4375 287.057C68.9648 286.653 69.2285 286.103 69.2285 285.406C69.2285 284.71 68.9844 284.173 68.4961 283.795C68.0078 283.411 67.1224 283.033 65.8398 282.662ZM77.627 289.195C76.1947 289.195 75.0293 288.727 74.1309 287.789C73.2324 286.845 72.7832 285.585 72.7832 284.01V283.678C72.7832 282.63 72.9818 281.695 73.3789 280.875C73.7826 280.048 74.3424 279.404 75.0586 278.941C75.7812 278.473 76.5625 278.238 77.4023 278.238C78.776 278.238 79.8438 278.691 80.6055 279.596C81.3672 280.501 81.748 281.796 81.748 283.482V284.234H74.5898C74.6159 285.276 74.9186 286.119 75.498 286.764C76.084 287.402 76.8262 287.721 77.7246 287.721C78.3626 287.721 78.903 287.59 79.3457 287.33C79.7884 287.07 80.1758 286.725 80.5078 286.295L81.6113 287.154C80.7259 288.515 79.3978 289.195 77.627 289.195ZM77.4023 279.723C76.6732 279.723 76.0612 279.99 75.5664 280.523C75.0716 281.051 74.7656 281.793 74.6484 282.75H79.9414V282.613C79.8893 281.695 79.6419 280.986 79.1992 280.484C78.7565 279.977 78.1576 279.723 77.4023 279.723ZM88.0859 287.721C88.7305 287.721 89.2936 287.525 89.7754 287.135C90.2572 286.744 90.5241 286.256 90.5762 285.67H92.2852C92.2526 286.275 92.0443 286.852 91.6602 287.398C91.276 287.945 90.7617 288.382 90.1172 288.707C89.4792 289.033 88.8021 289.195 88.0859 289.195C86.6471 289.195 85.5013 288.717 84.6484 287.76C83.8021 286.796 83.3789 285.481 83.3789 283.814V283.512C83.3789 282.483 83.5677 281.568 83.9453 280.768C84.3229 279.967 84.8633 279.345 85.5664 278.902C86.276 278.46 87.1126 278.238 88.0762 278.238C89.2611 278.238 90.2441 278.593 91.0254 279.303C91.8132 280.012 92.2331 280.934 92.2852 282.066H90.5762C90.5241 281.383 90.2637 280.823 89.7949 280.387C89.3327 279.944 88.7598 279.723 88.0762 279.723C87.1582 279.723 86.4453 280.055 85.9375 280.719C85.4362 281.376 85.1855 282.33 85.1855 283.58V283.922C85.1855 285.139 85.4362 286.077 85.9375 286.734C86.4388 287.392 87.1549 287.721 88.0859 287.721ZM96.7676 275.875V278.434H98.7402V279.83H96.7676V286.383C96.7676 286.806 96.8555 287.125 97.0312 287.34C97.207 287.548 97.5065 287.652 97.9297 287.652C98.138 287.652 98.4245 287.613 98.7891 287.535V289C98.3138 289.13 97.8516 289.195 97.4023 289.195C96.5951 289.195 95.9863 288.951 95.5762 288.463C95.166 287.975 94.9609 287.281 94.9609 286.383V279.83H93.0371V278.434H94.9609V275.875H96.7676ZM102.822 289H101.016V278.434H102.822V289ZM100.869 275.631C100.869 275.338 100.957 275.09 101.133 274.889C101.315 274.687 101.582 274.586 101.934 274.586C102.285 274.586 102.552 274.687 102.734 274.889C102.917 275.09 103.008 275.338 103.008 275.631C103.008 275.924 102.917 276.168 102.734 276.363C102.552 276.559 102.285 276.656 101.934 276.656C101.582 276.656 101.315 276.559 101.133 276.363C100.957 276.168 100.869 275.924 100.869 275.631ZM105.244 283.619C105.244 282.584 105.446 281.653 105.85 280.826C106.26 279.999 106.826 279.361 107.549 278.912C108.278 278.463 109.108 278.238 110.039 278.238C111.478 278.238 112.64 278.736 113.525 279.732C114.417 280.729 114.863 282.053 114.863 283.707V283.834C114.863 284.863 114.665 285.787 114.268 286.607C113.877 287.421 113.314 288.056 112.578 288.512C111.849 288.967 111.009 289.195 110.059 289.195C108.626 289.195 107.464 288.697 106.572 287.701C105.687 286.705 105.244 285.387 105.244 283.746V283.619ZM107.061 283.834C107.061 285.006 107.331 285.947 107.871 286.656C108.418 287.366 109.147 287.721 110.059 287.721C110.977 287.721 111.706 287.363 112.246 286.646C112.786 285.924 113.057 284.915 113.057 283.619C113.057 282.46 112.78 281.523 112.227 280.807C111.68 280.084 110.951 279.723 110.039 279.723C109.147 279.723 108.428 280.077 107.881 280.787C107.334 281.497 107.061 282.512 107.061 283.834ZM118.838 278.434L118.896 279.762C119.704 278.746 120.758 278.238 122.061 278.238C124.294 278.238 125.42 279.498 125.439 282.018V289H123.633V282.008C123.626 281.246 123.451 280.683 123.105 280.318C122.767 279.954 122.236 279.771 121.514 279.771C120.928 279.771 120.413 279.928 119.971 280.24C119.528 280.553 119.183 280.963 118.936 281.471V289H117.129V278.434H118.838ZM134.834 278.434L134.893 279.762C135.7 278.746 136.755 278.238 138.057 278.238C140.29 278.238 141.416 279.498 141.436 282.018V289H139.629V282.008C139.622 281.246 139.447 280.683 139.102 280.318C138.763 279.954 138.232 279.771 137.51 279.771C136.924 279.771 136.41 279.928 135.967 280.24C135.524 280.553 135.179 280.963 134.932 281.471V289H133.125V278.434H134.834ZM150.684 289C150.579 288.792 150.495 288.421 150.43 287.887C149.59 288.759 148.587 289.195 147.422 289.195C146.38 289.195 145.524 288.902 144.854 288.316C144.189 287.724 143.857 286.975 143.857 286.07C143.857 284.97 144.274 284.117 145.107 283.512C145.947 282.9 147.126 282.594 148.643 282.594H150.4V281.764C150.4 281.132 150.212 280.631 149.834 280.26C149.456 279.882 148.9 279.693 148.164 279.693C147.52 279.693 146.979 279.856 146.543 280.182C146.107 280.507 145.889 280.901 145.889 281.363H144.072C144.072 280.836 144.258 280.328 144.629 279.84C145.007 279.345 145.514 278.954 146.152 278.668C146.797 278.382 147.503 278.238 148.271 278.238C149.489 278.238 150.443 278.544 151.133 279.156C151.823 279.762 152.181 280.598 152.207 281.666V286.529C152.207 287.499 152.331 288.271 152.578 288.844V289H150.684ZM147.686 287.623C148.252 287.623 148.789 287.477 149.297 287.184C149.805 286.891 150.173 286.51 150.4 286.041V283.873H148.984C146.771 283.873 145.664 284.521 145.664 285.816C145.664 286.383 145.853 286.826 146.23 287.145C146.608 287.464 147.093 287.623 147.686 287.623ZM156.738 278.434L156.787 279.605C157.562 278.694 158.607 278.238 159.922 278.238C161.4 278.238 162.406 278.805 162.939 279.938C163.291 279.43 163.747 279.02 164.307 278.707C164.873 278.395 165.54 278.238 166.309 278.238C168.626 278.238 169.805 279.465 169.844 281.92V289H168.037V282.027C168.037 281.272 167.865 280.709 167.52 280.338C167.174 279.96 166.595 279.771 165.781 279.771C165.111 279.771 164.554 279.973 164.111 280.377C163.669 280.774 163.411 281.311 163.34 281.988V289H161.523V282.076C161.523 280.54 160.771 279.771 159.268 279.771C158.083 279.771 157.272 280.276 156.836 281.285V289H155.029V278.434H156.738ZM176.963 289.195C175.531 289.195 174.365 288.727 173.467 287.789C172.568 286.845 172.119 285.585 172.119 284.01V283.678C172.119 282.63 172.318 281.695 172.715 280.875C173.118 280.048 173.678 279.404 174.395 278.941C175.117 278.473 175.898 278.238 176.738 278.238C178.112 278.238 179.18 278.691 179.941 279.596C180.703 280.501 181.084 281.796 181.084 283.482V284.234H173.926C173.952 285.276 174.255 286.119 174.834 286.764C175.42 287.402 176.162 287.721 177.061 287.721C177.699 287.721 178.239 287.59 178.682 287.33C179.124 287.07 179.512 286.725 179.844 286.295L180.947 287.154C180.062 288.515 178.734 289.195 176.963 289.195ZM176.738 279.723C176.009 279.723 175.397 279.99 174.902 280.523C174.408 281.051 174.102 281.793 173.984 282.75H179.277V282.613C179.225 281.695 178.978 280.986 178.535 280.484C178.092 279.977 177.493 279.723 176.738 279.723Z" fill="black"/>
<line x1="52" y1="308.5" x2="232" y2="308.5" stroke="#9BA5AD" stroke-opacity="0.5"/>
<rect x="242" y="150" width="1156" height="31" fill="white"/>
<path d="M268.244 167.939C268.085 169.293 267.584 170.339 266.741 171.077C265.903 171.81 264.787 172.176 263.392 172.176C261.88 172.176 260.667 171.634 259.753 170.55C258.845 169.466 258.391 168.016 258.391 166.199V164.969C258.391 163.779 258.602 162.733 259.024 161.831C259.452 160.929 260.055 160.237 260.834 159.757C261.614 159.271 262.516 159.027 263.541 159.027C264.901 159.027 265.991 159.408 266.811 160.17C267.631 160.926 268.109 161.975 268.244 163.316H266.547C266.401 162.297 266.081 161.559 265.589 161.102C265.103 160.645 264.42 160.416 263.541 160.416C262.463 160.416 261.617 160.814 261.001 161.611C260.392 162.408 260.087 163.542 260.087 165.013V166.252C260.087 167.641 260.377 168.745 260.957 169.565C261.538 170.386 262.349 170.796 263.392 170.796C264.329 170.796 265.047 170.585 265.545 170.163C266.049 169.735 266.383 168.994 266.547 167.939H268.244ZM277.621 168.66H272.26L271.056 172H269.316L274.203 159.203H275.679L280.575 172H278.843L277.621 168.66ZM272.77 167.271H277.121L274.941 161.286L272.77 167.271ZM286.068 166.296C284.621 165.88 283.566 165.37 282.904 164.767C282.247 164.157 281.919 163.407 281.919 162.517C281.919 161.509 282.321 160.677 283.123 160.021C283.932 159.358 284.981 159.027 286.27 159.027C287.149 159.027 287.931 159.197 288.617 159.537C289.308 159.877 289.841 160.346 290.216 160.943C290.597 161.541 290.788 162.194 290.788 162.903H289.091C289.091 162.13 288.845 161.523 288.353 161.084C287.861 160.639 287.166 160.416 286.27 160.416C285.438 160.416 284.788 160.601 284.319 160.97C283.856 161.333 283.624 161.84 283.624 162.49C283.624 163.012 283.844 163.454 284.284 163.817C284.729 164.175 285.482 164.503 286.542 164.802C287.609 165.101 288.441 165.432 289.038 165.795C289.642 166.152 290.087 166.571 290.374 167.052C290.667 167.532 290.814 168.098 290.814 168.748C290.814 169.785 290.41 170.617 289.601 171.244C288.792 171.865 287.711 172.176 286.358 172.176C285.479 172.176 284.659 172.009 283.897 171.675C283.135 171.335 282.546 170.872 282.13 170.286C281.72 169.7 281.515 169.035 281.515 168.291H283.211C283.211 169.064 283.496 169.677 284.064 170.128C284.638 170.573 285.403 170.796 286.358 170.796C287.248 170.796 287.931 170.614 288.406 170.251C288.88 169.888 289.118 169.393 289.118 168.766C289.118 168.139 288.898 167.655 288.458 167.315C288.019 166.97 287.222 166.63 286.068 166.296ZM300.218 166.085H294.672V170.62H301.115V172H292.985V159.203H301.027V160.592H294.672V164.705H300.218V166.085Z" fill="black"/>
<path d="M401.56 166.296C400.112 165.88 399.058 165.37 398.396 164.767C397.739 164.157 397.411 163.407 397.411 162.517C397.411 161.509 397.813 160.677 398.615 160.021C399.424 159.358 400.473 159.027 401.762 159.027C402.641 159.027 403.423 159.197 404.109 159.537C404.8 159.877 405.333 160.346 405.708 160.943C406.089 161.541 406.279 162.194 406.279 162.903H404.583C404.583 162.13 404.337 161.523 403.845 161.084C403.353 160.639 402.658 160.416 401.762 160.416C400.93 160.416 400.279 160.601 399.811 160.97C399.348 161.333 399.116 161.84 399.116 162.49C399.116 163.012 399.336 163.454 399.776 163.817C400.221 164.175 400.974 164.503 402.034 164.802C403.101 165.101 403.933 165.432 404.53 165.795C405.134 166.152 405.579 166.571 405.866 167.052C406.159 167.532 406.306 168.098 406.306 168.748C406.306 169.785 405.901 170.617 405.093 171.244C404.284 171.865 403.203 172.176 401.85 172.176C400.971 172.176 400.151 172.009 399.389 171.675C398.627 171.335 398.038 170.872 397.622 170.286C397.212 169.7 397.007 169.035 397.007 168.291H398.703C398.703 169.064 398.987 169.677 399.556 170.128C400.13 170.573 400.895 170.796 401.85 170.796C402.74 170.796 403.423 170.614 403.898 170.251C404.372 169.888 404.609 169.393 404.609 168.766C404.609 168.139 404.39 167.655 403.95 167.315C403.511 166.97 402.714 166.63 401.56 166.296ZM415.71 166.085H410.164V170.62H416.607V172H408.477V159.203H416.519V160.592H410.164V164.705H415.71V166.085ZM423.401 166.823H420.395V172H418.698V159.203H422.935C424.376 159.203 425.484 159.531 426.257 160.188C427.036 160.844 427.426 161.799 427.426 163.053C427.426 163.85 427.209 164.544 426.776 165.136C426.348 165.728 425.75 166.17 424.983 166.463L427.988 171.895V172H426.178L423.401 166.823ZM420.395 165.443H422.987C423.825 165.443 424.49 165.227 424.983 164.793C425.481 164.359 425.73 163.779 425.73 163.053C425.73 162.262 425.492 161.655 425.018 161.233C424.549 160.812 423.869 160.598 422.979 160.592H420.395V165.443ZM431.609 172H429.922V159.203H431.609V172ZM441.928 168.66H436.567L435.362 172H433.622L438.509 159.203H439.985L444.881 172H443.15L441.928 168.66ZM437.076 167.271H441.427L439.247 161.286L437.076 167.271ZM448.3 170.62H454.364V172H446.604V159.203H448.3V170.62ZM465.992 168.396H463.672L462.969 172H461.712L462.415 168.396H460.315V167.192H462.644L463.25 164.081H460.983V162.859H463.487L464.208 159.203H465.465L464.744 162.859H467.065L467.785 159.203H469.051L468.33 162.859H470.123V164.081H468.093L467.486 167.192H469.464V168.396H467.258L466.555 172H465.289L465.992 168.396ZM463.901 167.192H466.221L466.827 164.081H464.507L463.901 167.192Z" fill="black"/>
<path d="M561.506 167.939C561.348 169.293 560.847 170.339 560.003 171.077C559.165 171.81 558.049 172.176 556.655 172.176C555.143 172.176 553.93 171.634 553.016 170.55C552.108 169.466 551.654 168.016 551.654 166.199V164.969C551.654 163.779 551.865 162.733 552.286 161.831C552.714 160.929 553.318 160.237 554.097 159.757C554.876 159.271 555.779 159.027 556.804 159.027C558.163 159.027 559.253 159.408 560.073 160.17C560.894 160.926 561.371 161.975 561.506 163.316H559.81C559.663 162.297 559.344 161.559 558.852 161.102C558.365 160.645 557.683 160.416 556.804 160.416C555.726 160.416 554.879 160.814 554.264 161.611C553.655 162.408 553.35 163.542 553.35 165.013V166.252C553.35 167.641 553.64 168.745 554.22 169.565C554.8 170.386 555.612 170.796 556.655 170.796C557.592 170.796 558.31 170.585 558.808 170.163C559.312 169.735 559.646 168.994 559.81 167.939H561.506ZM573.661 166.015C573.661 167.269 573.45 168.364 573.029 169.302C572.607 170.233 572.009 170.945 571.236 171.438C570.462 171.93 569.56 172.176 568.529 172.176C567.521 172.176 566.627 171.93 565.848 171.438C565.069 170.939 564.462 170.233 564.029 169.319C563.601 168.399 563.381 167.336 563.369 166.129V165.206C563.369 163.976 563.583 162.889 564.011 161.945C564.439 161.002 565.042 160.281 565.822 159.783C566.607 159.279 567.503 159.027 568.511 159.027C569.536 159.027 570.439 159.276 571.218 159.774C572.003 160.267 572.607 160.984 573.029 161.928C573.45 162.865 573.661 163.958 573.661 165.206V166.015ZM571.983 165.188C571.983 163.671 571.678 162.508 571.069 161.699C570.459 160.885 569.607 160.478 568.511 160.478C567.445 160.478 566.604 160.885 565.989 161.699C565.379 162.508 565.066 163.633 565.048 165.074V166.015C565.048 167.485 565.356 168.643 565.971 169.486C566.592 170.324 567.445 170.743 568.529 170.743C569.618 170.743 570.462 170.348 571.06 169.557C571.657 168.76 571.965 167.62 571.983 166.138V165.188ZM585.201 159.203V167.904C585.196 169.111 584.815 170.099 584.059 170.866C583.309 171.634 582.289 172.064 581 172.158L580.552 172.176C579.152 172.176 578.035 171.798 577.203 171.042C576.371 170.286 575.949 169.246 575.938 167.922V159.203H577.608V167.869C577.608 168.795 577.863 169.516 578.372 170.031C578.882 170.541 579.609 170.796 580.552 170.796C581.507 170.796 582.237 170.541 582.74 170.031C583.25 169.521 583.505 168.804 583.505 167.878V159.203H585.201ZM597.699 172H596.003L589.561 162.139V172H587.865V159.203H589.561L596.021 169.108V159.203H597.699V172ZM609.275 160.592H605.161V172H603.483V160.592H599.378V159.203H609.275V160.592ZM615.866 166.823H612.861V172H611.164V159.203H615.401C616.842 159.203 617.949 159.531 618.723 160.188C619.502 160.844 619.892 161.799 619.892 163.053C619.892 163.85 619.675 164.544 619.241 165.136C618.814 165.728 618.216 166.17 617.448 166.463L620.454 171.895V172H618.644L615.866 166.823ZM612.861 165.443H615.453C616.291 165.443 616.956 165.227 617.448 164.793C617.947 164.359 618.196 163.779 618.196 163.053C618.196 162.262 617.958 161.655 617.484 161.233C617.015 160.812 616.335 160.598 615.445 160.592H612.861V165.443ZM625.745 165.628L629.085 159.203H631.001L626.589 167.228V172H624.902V167.228L620.49 159.203H622.423L625.745 165.628Z" fill="black"/>
<path d="M709.315 166.296C707.868 165.88 706.813 165.37 706.151 164.767C705.495 164.157 705.166 163.407 705.166 162.517C705.166 161.509 705.568 160.677 706.371 160.021C707.179 159.358 708.228 159.027 709.517 159.027C710.396 159.027 711.178 159.197 711.864 159.537C712.555 159.877 713.088 160.346 713.463 160.943C713.844 161.541 714.035 162.194 714.035 162.903H712.338C712.338 162.13 712.092 161.523 711.6 161.084C711.108 160.639 710.414 160.416 709.517 160.416C708.685 160.416 708.035 160.601 707.566 160.97C707.103 161.333 706.872 161.84 706.872 162.49C706.872 163.012 707.091 163.454 707.531 163.817C707.976 164.175 708.729 164.503 709.789 164.802C710.856 165.101 711.688 165.432 712.286 165.795C712.889 166.152 713.334 166.571 713.622 167.052C713.914 167.532 714.061 168.098 714.061 168.748C714.061 169.785 713.657 170.617 712.848 171.244C712.039 171.865 710.958 172.176 709.605 172.176C708.726 172.176 707.906 172.009 707.144 171.675C706.382 171.335 705.793 170.872 705.377 170.286C704.967 169.7 704.762 169.035 704.762 168.291H706.458C706.458 169.064 706.743 169.677 707.311 170.128C707.885 170.573 708.65 170.796 709.605 170.796C710.496 170.796 711.178 170.614 711.653 170.251C712.127 169.888 712.365 169.393 712.365 168.766C712.365 168.139 712.145 167.655 711.706 167.315C711.266 166.97 710.469 166.63 709.315 166.296ZM725.074 160.592H720.96V172H719.282V160.592H715.177V159.203H725.074V160.592ZM733.335 168.66H727.974L726.77 172H725.03L729.916 159.203H731.393L736.289 172H734.557L733.335 168.66ZM728.484 167.271H732.834L730.655 161.286L728.484 167.271ZM745.71 160.592H741.597V172H739.918V160.592H735.814V159.203H745.71V160.592ZM756.618 159.203V167.904C756.612 169.111 756.231 170.099 755.475 170.866C754.725 171.634 753.706 172.064 752.416 172.158L751.968 172.176C750.568 172.176 749.452 171.798 748.62 171.042C747.788 170.286 747.366 169.246 747.354 167.922V159.203H749.024V167.869C749.024 168.795 749.279 169.516 749.789 170.031C750.298 170.541 751.025 170.796 751.968 170.796C752.923 170.796 753.653 170.541 754.157 170.031C754.666 169.521 754.921 168.804 754.921 167.878V159.203H756.618ZM763.051 166.296C761.604 165.88 760.549 165.37 759.887 164.767C759.231 164.157 758.903 163.407 758.903 162.517C758.903 161.509 759.304 160.677 760.107 160.021C760.915 159.358 761.964 159.027 763.253 159.027C764.132 159.027 764.914 159.197 765.6 159.537C766.291 159.877 766.825 160.346 767.2 160.943C767.581 161.541 767.771 162.194 767.771 162.903H766.075C766.075 162.13 765.829 161.523 765.336 161.084C764.844 160.639 764.15 160.416 763.253 160.416C762.421 160.416 761.771 160.601 761.302 160.97C760.839 161.333 760.608 161.84 760.608 162.49C760.608 163.012 760.828 163.454 761.267 163.817C761.712 164.175 762.465 164.503 763.526 164.802C764.592 165.101 765.424 165.432 766.022 165.795C766.625 166.152 767.071 166.571 767.358 167.052C767.651 167.532 767.797 168.098 767.797 168.748C767.797 169.785 767.393 170.617 766.584 171.244C765.776 171.865 764.695 172.176 763.341 172.176C762.462 172.176 761.642 172.009 760.88 171.675C760.119 171.335 759.53 170.872 759.114 170.286C758.704 169.7 758.498 169.035 758.498 168.291H760.195C760.195 169.064 760.479 169.677 761.047 170.128C761.622 170.573 762.386 170.796 763.341 170.796C764.232 170.796 764.914 170.614 765.389 170.251C765.864 169.888 766.101 169.393 766.101 168.766C766.101 168.139 765.881 167.655 765.442 167.315C765.002 166.97 764.206 166.63 763.051 166.296Z" fill="black"/>
<path d="M405.088 204.542C405.088 206.446 404.763 207.861 404.112 208.787C403.462 209.713 402.445 210.176 401.062 210.176C399.697 210.176 398.687 209.725 398.03 208.822C397.374 207.914 397.034 206.561 397.011 204.762V202.591C397.011 200.71 397.336 199.312 397.986 198.398C398.637 197.484 399.656 197.027 401.045 197.027C402.422 197.027 403.436 197.47 404.086 198.354C404.736 199.233 405.07 200.593 405.088 202.433V204.542ZM403.462 202.318C403.462 200.941 403.269 199.939 402.882 199.312C402.495 198.68 401.883 198.363 401.045 198.363C400.213 198.363 399.606 198.677 399.226 199.304C398.845 199.931 398.648 200.895 398.637 202.195V204.797C398.637 206.18 398.836 207.202 399.234 207.864C399.639 208.521 400.248 208.849 401.062 208.849C401.865 208.849 402.46 208.538 402.847 207.917C403.239 207.296 403.444 206.317 403.462 204.981V202.318ZM414.035 205.702H415.811V207.029H414.035V210H412.4V207.029H406.573V206.071L412.304 197.203H414.035V205.702ZM408.419 205.702H412.4V199.427L412.207 199.778L408.419 205.702ZM425.039 200.543C425.039 201.182 424.869 201.75 424.529 202.248C424.195 202.746 423.741 203.136 423.167 203.417C423.835 203.704 424.362 204.123 424.749 204.674C425.142 205.225 425.338 205.849 425.338 206.546C425.338 207.653 424.963 208.535 424.213 209.191C423.469 209.848 422.487 210.176 421.269 210.176C420.038 210.176 419.051 209.848 418.307 209.191C417.568 208.529 417.199 207.647 417.199 206.546C417.199 205.854 417.387 205.23 417.762 204.674C418.143 204.117 418.667 203.695 419.335 203.408C418.767 203.127 418.318 202.737 417.99 202.239C417.662 201.741 417.498 201.176 417.498 200.543C417.498 199.465 417.844 198.609 418.535 197.977C419.227 197.344 420.138 197.027 421.269 197.027C422.394 197.027 423.302 197.344 423.993 197.977C424.69 198.609 425.039 199.465 425.039 200.543ZM423.712 206.511C423.712 205.796 423.483 205.213 423.026 204.762C422.575 204.311 421.983 204.085 421.251 204.085C420.519 204.085 419.93 204.308 419.484 204.753C419.045 205.198 418.825 205.784 418.825 206.511C418.825 207.237 419.039 207.809 419.467 208.225C419.9 208.641 420.501 208.849 421.269 208.849C422.03 208.849 422.628 208.641 423.062 208.225C423.495 207.803 423.712 207.231 423.712 206.511ZM421.269 198.363C420.63 198.363 420.111 198.562 419.713 198.961C419.32 199.354 419.124 199.89 419.124 200.569C419.124 201.22 419.317 201.747 419.704 202.151C420.097 202.55 420.618 202.749 421.269 202.749C421.919 202.749 422.438 202.55 422.824 202.151C423.217 201.747 423.413 201.22 423.413 200.569C423.413 199.919 423.211 199.389 422.807 198.979C422.402 198.568 421.89 198.363 421.269 198.363ZM433.617 204.375C433.277 204.779 432.87 205.104 432.396 205.351C431.927 205.597 431.411 205.72 430.849 205.72C430.11 205.72 429.466 205.538 428.915 205.175C428.37 204.812 427.948 204.302 427.649 203.646C427.351 202.983 427.201 202.254 427.201 201.457C427.201 200.602 427.362 199.831 427.685 199.146C428.013 198.46 428.476 197.936 429.073 197.572C429.671 197.209 430.368 197.027 431.165 197.027C432.431 197.027 433.427 197.502 434.153 198.451C434.886 199.395 435.252 200.684 435.252 202.318V202.793C435.252 205.283 434.76 207.103 433.775 208.251C432.791 209.394 431.306 209.979 429.319 210.009H429.003V208.638H429.346C430.688 208.614 431.719 208.266 432.439 207.592C433.16 206.912 433.553 205.84 433.617 204.375ZM431.112 204.375C431.657 204.375 432.158 204.208 432.615 203.874C433.078 203.54 433.415 203.127 433.626 202.635V201.984C433.626 200.918 433.395 200.051 432.932 199.383C432.469 198.715 431.883 198.381 431.174 198.381C430.459 198.381 429.885 198.656 429.451 199.207C429.018 199.752 428.801 200.473 428.801 201.369C428.801 202.242 429.009 202.963 429.425 203.531C429.847 204.094 430.409 204.375 431.112 204.375ZM445.755 198.117L440.455 210H438.75L444.032 198.539H437.106V197.203H445.755V198.117ZM453.981 197.194V198.574H453.683C452.417 198.598 451.409 198.973 450.659 199.699C449.909 200.426 449.476 201.448 449.358 202.767C450.032 201.993 450.952 201.606 452.118 201.606C453.231 201.606 454.119 201.999 454.781 202.784C455.449 203.569 455.783 204.583 455.783 205.825C455.783 207.144 455.423 208.198 454.702 208.989C453.987 209.78 453.026 210.176 451.819 210.176C450.595 210.176 449.602 209.707 448.84 208.77C448.078 207.826 447.697 206.613 447.697 205.131V204.507C447.697 202.151 448.198 200.353 449.2 199.11C450.208 197.862 451.705 197.224 453.691 197.194H453.981ZM451.846 202.96C451.289 202.96 450.776 203.127 450.308 203.461C449.839 203.795 449.514 204.214 449.332 204.718V205.315C449.332 206.37 449.569 207.22 450.044 207.864C450.519 208.509 451.11 208.831 451.819 208.831C452.552 208.831 453.126 208.562 453.542 208.022C453.964 207.483 454.175 206.777 454.175 205.904C454.175 205.025 453.961 204.316 453.533 203.777C453.111 203.232 452.549 202.96 451.846 202.96ZM465.97 198.117L460.67 210H458.965L464.247 198.539H457.321V197.203H465.97V198.117ZM474.047 204.375C473.707 204.779 473.3 205.104 472.825 205.351C472.356 205.597 471.841 205.72 471.278 205.72C470.54 205.72 469.896 205.538 469.345 205.175C468.8 204.812 468.378 204.302 468.079 203.646C467.78 202.983 467.631 202.254 467.631 201.457C467.631 200.602 467.792 199.831 468.114 199.146C468.442 198.46 468.905 197.936 469.503 197.572C470.101 197.209 470.798 197.027 471.595 197.027C472.86 197.027 473.856 197.502 474.583 198.451C475.315 199.395 475.682 200.684 475.682 202.318V202.793C475.682 205.283 475.189 207.103 474.205 208.251C473.221 209.394 471.735 209.979 469.749 210.009H469.433V208.638H469.775C471.117 208.614 472.148 208.266 472.869 207.592C473.59 206.912 473.982 205.84 474.047 204.375ZM471.542 204.375C472.087 204.375 472.588 204.208 473.045 203.874C473.508 203.54 473.845 203.127 474.056 202.635V201.984C474.056 200.918 473.824 200.051 473.361 199.383C472.898 198.715 472.312 198.381 471.604 198.381C470.889 198.381 470.314 198.656 469.881 199.207C469.447 199.752 469.23 200.473 469.23 201.369C469.23 202.242 469.438 202.963 469.854 203.531C470.276 204.094 470.839 204.375 471.542 204.375Z" fill="black"/>
<path d="M561.494 197.203V205.904C561.488 207.111 561.107 208.099 560.352 208.866C559.602 209.634 558.582 210.064 557.293 210.158L556.845 210.176C555.444 210.176 554.328 209.798 553.496 209.042C552.664 208.286 552.242 207.246 552.23 205.922V197.203H553.9V205.869C553.9 206.795 554.155 207.516 554.665 208.031C555.175 208.541 555.901 208.796 556.845 208.796C557.8 208.796 558.529 208.541 559.033 208.031C559.543 207.521 559.798 206.804 559.798 205.878V197.203H561.494ZM567.928 204.296C566.48 203.88 565.426 203.37 564.764 202.767C564.107 202.157 563.779 201.407 563.779 200.517C563.779 199.509 564.181 198.677 564.983 198.021C565.792 197.358 566.841 197.027 568.13 197.027C569.009 197.027 569.791 197.197 570.477 197.537C571.168 197.877 571.701 198.346 572.076 198.943C572.457 199.541 572.647 200.194 572.647 200.903H570.951C570.951 200.13 570.705 199.523 570.213 199.084C569.721 198.639 569.026 198.416 568.13 198.416C567.298 198.416 566.647 198.601 566.179 198.97C565.716 199.333 565.484 199.84 565.484 200.49C565.484 201.012 565.704 201.454 566.144 201.817C566.589 202.175 567.342 202.503 568.402 202.802C569.469 203.101 570.301 203.432 570.898 203.795C571.502 204.152 571.947 204.571 572.234 205.052C572.527 205.532 572.674 206.098 572.674 206.748C572.674 207.785 572.27 208.617 571.461 209.244C570.652 209.865 569.571 210.176 568.218 210.176C567.339 210.176 566.519 210.009 565.757 209.675C564.995 209.335 564.406 208.872 563.99 208.286C563.58 207.7 563.375 207.035 563.375 206.291H565.071C565.071 207.064 565.355 207.677 565.924 208.128C566.498 208.573 567.263 208.796 568.218 208.796C569.108 208.796 569.791 208.614 570.266 208.251C570.74 207.888 570.978 207.393 570.978 206.766C570.978 206.139 570.758 205.655 570.318 205.315C569.879 204.97 569.082 204.63 567.928 204.296Z" fill="black"/>
<path d="M709.256 204.296C707.809 203.88 706.754 203.37 706.092 202.767C705.436 202.157 705.107 201.407 705.107 200.517C705.107 199.509 705.509 198.677 706.312 198.021C707.12 197.358 708.169 197.027 709.458 197.027C710.337 197.027 711.119 197.197 711.805 197.537C712.496 197.877 713.029 198.346 713.404 198.943C713.785 199.541 713.976 200.194 713.976 200.903H712.279C712.279 200.13 712.033 199.523 711.541 199.084C711.049 198.639 710.354 198.416 709.458 198.416C708.626 198.416 707.976 198.601 707.507 198.97C707.044 199.333 706.812 199.84 706.812 200.49C706.812 201.012 707.032 201.454 707.472 201.817C707.917 202.175 708.67 202.503 709.73 202.802C710.797 203.101 711.629 203.432 712.227 203.795C712.83 204.152 713.275 204.571 713.562 205.052C713.855 205.532 714.002 206.098 714.002 206.748C714.002 207.785 713.598 208.617 712.789 209.244C711.98 209.865 710.899 210.176 709.546 210.176C708.667 210.176 707.847 210.009 707.085 209.675C706.323 209.335 705.734 208.872 705.318 208.286C704.908 207.7 704.703 207.035 704.703 206.291H706.399C706.399 207.064 706.684 207.677 707.252 208.128C707.826 208.573 708.591 208.796 709.546 208.796C710.437 208.796 711.119 208.614 711.594 208.251C712.068 207.888 712.306 207.393 712.306 206.766C712.306 206.139 712.086 205.655 711.646 205.315C711.207 204.97 710.41 204.63 709.256 204.296ZM718.124 198.188V200.49H719.899V201.747H718.124V207.645C718.124 208.025 718.203 208.312 718.361 208.506C718.52 208.693 718.789 208.787 719.17 208.787C719.357 208.787 719.615 208.752 719.943 208.682V210C719.516 210.117 719.1 210.176 718.695 210.176C717.969 210.176 717.421 209.956 717.052 209.517C716.683 209.077 716.498 208.453 716.498 207.645V201.747H714.767V200.49H716.498V198.188H718.124ZM727.678 210C727.584 209.812 727.508 209.479 727.449 208.998C726.693 209.783 725.791 210.176 724.742 210.176C723.805 210.176 723.034 209.912 722.431 209.385C721.833 208.852 721.534 208.178 721.534 207.363C721.534 206.373 721.909 205.605 722.659 205.061C723.415 204.51 724.476 204.234 725.841 204.234H727.423V203.487C727.423 202.919 727.253 202.468 726.913 202.134C726.573 201.794 726.072 201.624 725.41 201.624C724.83 201.624 724.344 201.771 723.951 202.063C723.559 202.356 723.362 202.711 723.362 203.127H721.728C721.728 202.652 721.895 202.195 722.229 201.756C722.568 201.311 723.025 200.959 723.6 200.701C724.18 200.443 724.815 200.314 725.507 200.314C726.603 200.314 727.461 200.59 728.082 201.141C728.703 201.686 729.025 202.438 729.049 203.399V207.776C729.049 208.649 729.16 209.344 729.383 209.859V210H727.678ZM724.979 208.761C725.489 208.761 725.973 208.629 726.43 208.365C726.887 208.102 727.218 207.759 727.423 207.337V205.386H726.148C724.156 205.386 723.16 205.969 723.16 207.135C723.16 207.645 723.33 208.043 723.67 208.33C724.01 208.617 724.446 208.761 724.979 208.761ZM733.804 198.188V200.49H735.579V201.747H733.804V207.645C733.804 208.025 733.883 208.312 734.041 208.506C734.199 208.693 734.469 208.787 734.85 208.787C735.037 208.787 735.295 208.752 735.623 208.682V210C735.195 210.117 734.779 210.176 734.375 210.176C733.648 210.176 733.101 209.956 732.731 209.517C732.362 209.077 732.178 208.453 732.178 207.645V201.747H730.446V200.49H732.178V198.188H733.804ZM743.357 209.06C742.725 209.804 741.796 210.176 740.571 210.176C739.558 210.176 738.784 209.883 738.251 209.297C737.724 208.705 737.457 207.832 737.451 206.678V200.49H739.077V206.634C739.077 208.075 739.663 208.796 740.835 208.796C742.077 208.796 742.903 208.333 743.313 207.407V200.49H744.939V210H743.393L743.357 209.06ZM752.955 207.478C752.955 207.038 752.788 206.698 752.454 206.458C752.126 206.212 751.549 206.001 750.723 205.825C749.902 205.649 749.249 205.438 748.763 205.192C748.282 204.946 747.925 204.653 747.69 204.313C747.462 203.974 747.348 203.569 747.348 203.101C747.348 202.321 747.676 201.662 748.332 201.123C748.994 200.584 749.838 200.314 750.863 200.314C751.941 200.314 752.814 200.593 753.482 201.149C754.156 201.706 754.493 202.418 754.493 203.285H752.858C752.858 202.84 752.668 202.456 752.287 202.134C751.912 201.812 751.438 201.65 750.863 201.65C750.271 201.65 749.809 201.779 749.475 202.037C749.141 202.295 748.974 202.632 748.974 203.048C748.974 203.44 749.129 203.736 749.439 203.936C749.75 204.135 750.31 204.325 751.118 204.507C751.933 204.688 752.592 204.905 753.096 205.157C753.6 205.409 753.972 205.714 754.212 206.071C754.458 206.423 754.581 206.854 754.581 207.363C754.581 208.213 754.241 208.896 753.562 209.411C752.882 209.921 752 210.176 750.916 210.176C750.154 210.176 749.48 210.041 748.895 209.771C748.309 209.502 747.849 209.127 747.515 208.646C747.187 208.16 747.022 207.636 747.022 207.073H748.648C748.678 207.618 748.895 208.052 749.299 208.374C749.709 208.69 750.248 208.849 750.916 208.849C751.531 208.849 752.023 208.726 752.393 208.479C752.768 208.228 752.955 207.894 752.955 207.478Z" fill="black"/>
<path d="M709.256 245.296C707.809 244.88 706.754 244.37 706.092 243.767C705.436 243.157 705.107 242.407 705.107 241.517C705.107 240.509 705.509 239.677 706.312 239.021C707.12 238.358 708.169 238.027 709.458 238.027C710.337 238.027 711.119 238.197 711.805 238.537C712.496 238.877 713.029 239.346 713.404 239.943C713.785 240.541 713.976 241.194 713.976 241.903H712.279C712.279 241.13 712.033 240.523 711.541 240.084C711.049 239.639 710.354 239.416 709.458 239.416C708.626 239.416 707.976 239.601 707.507 239.97C707.044 240.333 706.812 240.84 706.812 241.49C706.812 242.012 707.032 242.454 707.472 242.817C707.917 243.175 708.67 243.503 709.73 243.802C710.797 244.101 711.629 244.432 712.227 244.795C712.83 245.152 713.275 245.571 713.562 246.052C713.855 246.532 714.002 247.098 714.002 247.748C714.002 248.785 713.598 249.617 712.789 250.244C711.98 250.865 710.899 251.176 709.546 251.176C708.667 251.176 707.847 251.009 707.085 250.675C706.323 250.335 705.734 249.872 705.318 249.286C704.908 248.7 704.703 248.035 704.703 247.291H706.399C706.399 248.064 706.684 248.677 707.252 249.128C707.826 249.573 708.591 249.796 709.546 249.796C710.437 249.796 711.119 249.614 711.594 249.251C712.068 248.888 712.306 248.393 712.306 247.766C712.306 247.139 712.086 246.655 711.646 246.315C711.207 245.97 710.41 245.63 709.256 245.296ZM718.124 239.188V241.49H719.899V242.747H718.124V248.645C718.124 249.025 718.203 249.312 718.361 249.506C718.52 249.693 718.789 249.787 719.17 249.787C719.357 249.787 719.615 249.752 719.943 249.682V251C719.516 251.117 719.1 251.176 718.695 251.176C717.969 251.176 717.421 250.956 717.052 250.517C716.683 250.077 716.498 249.453 716.498 248.645V242.747H714.767V241.49H716.498V239.188H718.124ZM727.678 251C727.584 250.812 727.508 250.479 727.449 249.998C726.693 250.783 725.791 251.176 724.742 251.176C723.805 251.176 723.034 250.912 722.431 250.385C721.833 249.852 721.534 249.178 721.534 248.363C721.534 247.373 721.909 246.605 722.659 246.061C723.415 245.51 724.476 245.234 725.841 245.234H727.423V244.487C727.423 243.919 727.253 243.468 726.913 243.134C726.573 242.794 726.072 242.624 725.41 242.624C724.83 242.624 724.344 242.771 723.951 243.063C723.559 243.356 723.362 243.711 723.362 244.127H721.728C721.728 243.652 721.895 243.195 722.229 242.756C722.568 242.311 723.025 241.959 723.6 241.701C724.18 241.443 724.815 241.314 725.507 241.314C726.603 241.314 727.461 241.59 728.082 242.141C728.703 242.686 729.025 243.438 729.049 244.399V248.776C729.049 249.649 729.16 250.344 729.383 250.859V251H727.678ZM724.979 249.761C725.489 249.761 725.973 249.629 726.43 249.365C726.887 249.102 727.218 248.759 727.423 248.337V246.386H726.148C724.156 246.386 723.16 246.969 723.16 248.135C723.16 248.645 723.33 249.043 723.67 249.33C724.01 249.617 724.446 249.761 724.979 249.761ZM733.804 239.188V241.49H735.579V242.747H733.804V248.645C733.804 249.025 733.883 249.312 734.041 249.506C734.199 249.693 734.469 249.787 734.85 249.787C735.037 249.787 735.295 249.752 735.623 249.682V251C735.195 251.117 734.779 251.176 734.375 251.176C733.648 251.176 733.101 250.956 732.731 250.517C732.362 250.077 732.178 249.453 732.178 248.645V242.747H730.446V241.49H732.178V239.188H733.804ZM743.357 250.06C742.725 250.804 741.796 251.176 740.571 251.176C739.558 251.176 738.784 250.883 738.251 250.297C737.724 249.705 737.457 248.832 737.451 247.678V241.49H739.077V247.634C739.077 249.075 739.663 249.796 740.835 249.796C742.077 249.796 742.903 249.333 743.313 248.407V241.49H744.939V251H743.393L743.357 250.06ZM752.955 248.478C752.955 248.038 752.788 247.698 752.454 247.458C752.126 247.212 751.549 247.001 750.723 246.825C749.902 246.649 749.249 246.438 748.763 246.192C748.282 245.946 747.925 245.653 747.69 245.313C747.462 244.974 747.348 244.569 747.348 244.101C747.348 243.321 747.676 242.662 748.332 242.123C748.994 241.584 749.838 241.314 750.863 241.314C751.941 241.314 752.814 241.593 753.482 242.149C754.156 242.706 754.493 243.418 754.493 244.285H752.858C752.858 243.84 752.668 243.456 752.287 243.134C751.912 242.812 751.438 242.65 750.863 242.65C750.271 242.65 749.809 242.779 749.475 243.037C749.141 243.295 748.974 243.632 748.974 244.048C748.974 244.44 749.129 244.736 749.439 244.936C749.75 245.135 750.31 245.325 751.118 245.507C751.933 245.688 752.592 245.905 753.096 246.157C753.6 246.409 753.972 246.714 754.212 247.071C754.458 247.423 754.581 247.854 754.581 248.363C754.581 249.213 754.241 249.896 753.562 250.411C752.882 250.921 752 251.176 750.916 251.176C750.154 251.176 749.48 251.041 748.895 250.771C748.309 250.502 747.849 250.127 747.515 249.646C747.187 249.16 747.022 248.636 747.022 248.073H748.648C748.678 248.618 748.895 249.052 749.299 249.374C749.709 249.69 750.248 249.849 750.916 249.849C751.531 249.849 752.023 249.726 752.393 249.479C752.768 249.228 752.955 248.894 752.955 248.478Z" fill="black"/>
<path d="M561.494 238.203V246.904C561.488 248.111 561.107 249.099 560.352 249.866C559.602 250.634 558.582 251.064 557.293 251.158L556.845 251.176C555.444 251.176 554.328 250.798 553.496 250.042C552.664 249.286 552.242 248.246 552.23 246.922V238.203H553.9V246.869C553.9 247.795 554.155 248.516 554.665 249.031C555.175 249.541 555.901 249.796 556.845 249.796C557.8 249.796 558.529 249.541 559.033 249.031C559.543 248.521 559.798 247.804 559.798 246.878V238.203H561.494ZM567.928 245.296C566.48 244.88 565.426 244.37 564.764 243.767C564.107 243.157 563.779 242.407 563.779 241.517C563.779 240.509 564.181 239.677 564.983 239.021C565.792 238.358 566.841 238.027 568.13 238.027C569.009 238.027 569.791 238.197 570.477 238.537C571.168 238.877 571.701 239.346 572.076 239.943C572.457 240.541 572.647 241.194 572.647 241.903H570.951C570.951 241.13 570.705 240.523 570.213 240.084C569.721 239.639 569.026 239.416 568.13 239.416C567.298 239.416 566.647 239.601 566.179 239.97C565.716 240.333 565.484 240.84 565.484 241.49C565.484 242.012 565.704 242.454 566.144 242.817C566.589 243.175 567.342 243.503 568.402 243.802C569.469 244.101 570.301 244.432 570.898 244.795C571.502 245.152 571.947 245.571 572.234 246.052C572.527 246.532 572.674 247.098 572.674 247.748C572.674 248.785 572.27 249.617 571.461 250.244C570.652 250.865 569.571 251.176 568.218 251.176C567.339 251.176 566.519 251.009 565.757 250.675C564.995 250.335 564.406 249.872 563.99 249.286C563.58 248.7 563.375 248.035 563.375 247.291H565.071C565.071 248.064 565.355 248.677 565.924 249.128C566.498 249.573 567.263 249.796 568.218 249.796C569.108 249.796 569.791 249.614 570.266 249.251C570.74 248.888 570.978 248.393 570.978 247.766C570.978 247.139 570.758 246.655 570.318 246.315C569.879 245.97 569.082 245.63 567.928 245.296Z" fill="black"/>
<path d="M403.295 245.375C402.955 245.779 402.548 246.104 402.073 246.351C401.604 246.597 401.089 246.72 400.526 246.72C399.788 246.72 399.144 246.538 398.593 246.175C398.048 245.812 397.626 245.302 397.327 244.646C397.028 243.983 396.879 243.254 396.879 242.457C396.879 241.602 397.04 240.831 397.362 240.146C397.69 239.46 398.153 238.936 398.751 238.572C399.349 238.209 400.046 238.027 400.843 238.027C402.108 238.027 403.104 238.502 403.831 239.451C404.563 240.395 404.93 241.684 404.93 243.318V243.793C404.93 246.283 404.438 248.103 403.453 249.251C402.469 250.394 400.983 250.979 398.997 251.009H398.681V249.638H399.023C400.365 249.614 401.396 249.266 402.117 248.592C402.838 247.912 403.23 246.84 403.295 245.375ZM400.79 245.375C401.335 245.375 401.836 245.208 402.293 244.874C402.756 244.54 403.093 244.127 403.304 243.635V242.984C403.304 241.918 403.072 241.051 402.609 240.383C402.146 239.715 401.561 239.381 400.852 239.381C400.137 239.381 399.562 239.656 399.129 240.207C398.695 240.752 398.479 241.473 398.479 242.369C398.479 243.242 398.687 243.963 399.103 244.531C399.524 245.094 400.087 245.375 400.79 245.375ZM414.932 241.543C414.932 242.182 414.762 242.75 414.422 243.248C414.088 243.746 413.634 244.136 413.06 244.417C413.728 244.704 414.255 245.123 414.642 245.674C415.034 246.225 415.23 246.849 415.23 247.546C415.23 248.653 414.855 249.535 414.105 250.191C413.361 250.848 412.38 251.176 411.161 251.176C409.931 251.176 408.943 250.848 408.199 250.191C407.461 249.529 407.092 248.647 407.092 247.546C407.092 246.854 407.279 246.23 407.654 245.674C408.035 245.117 408.56 244.695 409.228 244.408C408.659 244.127 408.211 243.737 407.883 243.239C407.555 242.741 407.391 242.176 407.391 241.543C407.391 240.465 407.736 239.609 408.428 238.977C409.119 238.344 410.03 238.027 411.161 238.027C412.286 238.027 413.194 238.344 413.886 238.977C414.583 239.609 414.932 240.465 414.932 241.543ZM413.604 247.511C413.604 246.796 413.376 246.213 412.919 245.762C412.468 245.311 411.876 245.085 411.144 245.085C410.411 245.085 409.822 245.308 409.377 245.753C408.938 246.198 408.718 246.784 408.718 247.511C408.718 248.237 408.932 248.809 409.359 249.225C409.793 249.641 410.394 249.849 411.161 249.849C411.923 249.849 412.521 249.641 412.954 249.225C413.388 248.803 413.604 248.231 413.604 247.511ZM411.161 239.363C410.522 239.363 410.004 239.562 409.605 239.961C409.213 240.354 409.017 240.89 409.017 241.569C409.017 242.22 409.21 242.747 409.597 243.151C409.989 243.55 410.511 243.749 411.161 243.749C411.812 243.749 412.33 243.55 412.717 243.151C413.109 242.747 413.306 242.22 413.306 241.569C413.306 240.919 413.104 240.389 412.699 239.979C412.295 239.568 411.782 239.363 411.161 239.363ZM425.54 239.117L420.24 251H418.535L423.817 239.539H416.892V238.203H425.54V239.117ZM433.767 238.194V239.574H433.468C432.202 239.598 431.194 239.973 430.444 240.699C429.694 241.426 429.261 242.448 429.144 243.767C429.817 242.993 430.737 242.606 431.903 242.606C433.017 242.606 433.904 242.999 434.566 243.784C435.234 244.569 435.568 245.583 435.568 246.825C435.568 248.144 435.208 249.198 434.487 249.989C433.772 250.78 432.812 251.176 431.604 251.176C430.38 251.176 429.387 250.707 428.625 249.77C427.863 248.826 427.482 247.613 427.482 246.131V245.507C427.482 243.151 427.983 241.353 428.985 240.11C429.993 238.862 431.49 238.224 433.477 238.194H433.767ZM431.631 243.96C431.074 243.96 430.562 244.127 430.093 244.461C429.624 244.795 429.299 245.214 429.117 245.718V246.315C429.117 247.37 429.354 248.22 429.829 248.864C430.304 249.509 430.896 249.831 431.604 249.831C432.337 249.831 432.911 249.562 433.327 249.022C433.749 248.483 433.96 247.777 433.96 246.904C433.96 246.025 433.746 245.316 433.318 244.777C432.896 244.232 432.334 243.96 431.631 243.96ZM445.755 239.117L440.455 251H438.75L444.032 239.539H437.106V238.203H445.755V239.117ZM453.832 245.375C453.492 245.779 453.085 246.104 452.61 246.351C452.142 246.597 451.626 246.72 451.063 246.72C450.325 246.72 449.681 246.538 449.13 246.175C448.585 245.812 448.163 245.302 447.864 244.646C447.565 243.983 447.416 243.254 447.416 242.457C447.416 241.602 447.577 240.831 447.899 240.146C448.228 239.46 448.69 238.936 449.288 238.572C449.886 238.209 450.583 238.027 451.38 238.027C452.646 238.027 453.642 238.502 454.368 239.451C455.101 240.395 455.467 241.684 455.467 243.318V243.793C455.467 246.283 454.975 248.103 453.99 249.251C453.006 250.394 451.521 250.979 449.534 251.009H449.218V249.638H449.561C450.902 249.614 451.934 249.266 452.654 248.592C453.375 247.912 453.768 246.84 453.832 245.375ZM451.327 245.375C451.872 245.375 452.373 245.208 452.83 244.874C453.293 244.54 453.63 244.127 453.841 243.635V242.984C453.841 241.918 453.609 241.051 453.146 240.383C452.684 239.715 452.098 239.381 451.389 239.381C450.674 239.381 450.1 239.656 449.666 240.207C449.232 240.752 449.016 241.473 449.016 242.369C449.016 243.242 449.224 243.963 449.64 244.531C450.062 245.094 450.624 245.375 451.327 245.375ZM460.072 243.811H461.294C462.062 243.799 462.665 243.597 463.104 243.204C463.544 242.812 463.764 242.281 463.764 241.613C463.764 240.113 463.017 239.363 461.522 239.363C460.819 239.363 460.257 239.565 459.835 239.97C459.419 240.368 459.211 240.898 459.211 241.561H457.585C457.585 240.547 457.954 239.706 458.692 239.038C459.437 238.364 460.38 238.027 461.522 238.027C462.729 238.027 463.676 238.347 464.361 238.985C465.047 239.624 465.39 240.512 465.39 241.648C465.39 242.205 465.208 242.744 464.845 243.266C464.487 243.787 463.998 244.177 463.377 244.435C464.08 244.657 464.622 245.026 465.003 245.542C465.39 246.058 465.583 246.688 465.583 247.432C465.583 248.58 465.208 249.491 464.458 250.165C463.708 250.839 462.732 251.176 461.531 251.176C460.33 251.176 459.352 250.851 458.596 250.2C457.846 249.55 457.471 248.691 457.471 247.625H459.105C459.105 248.299 459.325 248.838 459.765 249.242C460.204 249.646 460.793 249.849 461.531 249.849C462.316 249.849 462.917 249.644 463.333 249.233C463.749 248.823 463.957 248.234 463.957 247.467C463.957 246.723 463.729 246.151 463.271 245.753C462.814 245.354 462.155 245.149 461.294 245.138H460.072V243.811ZM474.68 246.702H476.455V248.029H474.68V251H473.045V248.029H467.218V247.071L472.948 238.203H474.68V246.702ZM469.063 246.702H473.045V240.427L472.852 240.778L469.063 246.702Z" fill="black"/>
<defs>
<filter id="filter0_d" x="42" y="146" width="208" height="840" filterUnits="userSpaceOnUse" color-interpolation-filters="sRGB">
<feFlood flood-opacity="0" result="BackgroundImageFix"/>
<feColorMatrix in="SourceAlpha" type="matrix" values="0 0 0 0 0 0 0 0 0 0 0 0 0 0 0 0 0 0 127 0"/>
<feOffset dx="4"/>
<feGaussianBlur stdDeviation="2"/>
<feColorMatrix type="matrix" values="0 0 0 0 0 0 0 0 0 0 0 0 0 0 0 0 0 0 0.05 0"/>
<feBlend mode="normal" in2="BackgroundImageFix" result="effect1_dropShadow"/>
<feBlend mode="normal" in="SourceGraphic" in2="effect1_dropShadow" result="shape"/>
</filter>
</defs>
</svg>
