<svg width="1440" height="1024" viewBox="0 0 1440 1024" fill="none" xmlns="http://www.w3.org/2000/svg">
<rect width="1440" height="1024" fill="white"/>
<rect width="1440" height="60" fill="black"/>
<path d="M36.6475 33.8955C36.4814 36.1904 35.6318 37.9971 34.0986 39.3154C32.5752 40.6338 30.5635 41.293 28.0635 41.293C25.3291 41.293 23.1758 40.375 21.6035 38.5391C20.041 36.6934 19.2598 34.1641 19.2598 30.9512V29.6475C19.2598 27.5967 19.6211 25.79 20.3438 24.2275C21.0664 22.665 22.0967 21.4688 23.4346 20.6387C24.7822 19.7988 26.3447 19.3789 28.1221 19.3789C30.583 19.3789 32.5654 20.0381 34.0693 21.3564C35.5732 22.6748 36.4424 24.5254 36.6768 26.9082H32.2822C32.1748 25.5312 31.7891 24.5352 31.125 23.9199C30.4707 23.2949 29.4697 22.9824 28.1221 22.9824C26.6572 22.9824 25.5586 23.5098 24.8262 24.5645C24.1035 25.6094 23.7324 27.2354 23.7129 29.4424V31.0537C23.7129 33.3584 24.0596 35.043 24.7529 36.1074C25.4561 37.1719 26.5596 37.7041 28.0635 37.7041C29.4209 37.7041 30.4316 37.3965 31.0957 36.7812C31.7695 36.1562 32.1553 35.1943 32.2529 33.8955H36.6475ZM43.9277 37.4697H53.2588V41H39.5332V19.6719H43.9277V37.4697ZM60.4658 41H56.0713V19.6719H60.4658V41ZM77.3848 31.7568H68.9473V37.4697H78.8496V41H64.5527V19.6719H78.8203V23.2314H68.9473V28.3145H77.3848V31.7568ZM98.7715 41H94.377L85.8223 26.9668V41H81.4277V19.6719H85.8223L94.3916 33.7344V19.6719H98.7715V41ZM118.225 23.2314H111.691V41H107.297V23.2314H100.852V19.6719H118.225V23.2314ZM131.73 33.4854V41H127.336V19.6719H135.656C137.258 19.6719 138.664 19.9648 139.875 20.5508C141.096 21.1367 142.033 21.9717 142.688 23.0557C143.342 24.1299 143.669 25.3555 143.669 26.7324C143.669 28.8223 142.951 30.4727 141.516 31.6836C140.09 32.8848 138.112 33.4854 135.583 33.4854H131.73ZM131.73 29.9258H135.656C136.818 29.9258 137.702 29.6523 138.308 29.1055C138.923 28.5586 139.23 27.7773 139.23 26.7617C139.23 25.7168 138.923 24.8721 138.308 24.2275C137.692 23.583 136.843 23.251 135.759 23.2314H131.73V29.9258ZM164.221 30.8193C164.221 32.9189 163.85 34.7598 163.107 36.3418C162.365 37.9238 161.301 39.1445 159.914 40.0039C158.537 40.8633 156.955 41.293 155.168 41.293C153.4 41.293 151.823 40.8682 150.437 40.0186C149.05 39.1689 147.976 37.958 147.214 36.3857C146.452 34.8037 146.066 32.9873 146.057 30.9365V29.8818C146.057 27.7822 146.433 25.9365 147.185 24.3447C147.946 22.7432 149.016 21.5176 150.393 20.668C151.779 19.8086 153.361 19.3789 155.139 19.3789C156.916 19.3789 158.493 19.8086 159.87 20.668C161.257 21.5176 162.326 22.7432 163.078 24.3447C163.84 25.9365 164.221 27.7773 164.221 29.8672V30.8193ZM159.768 29.8525C159.768 27.6162 159.367 25.917 158.566 24.7549C157.766 23.5928 156.623 23.0117 155.139 23.0117C153.664 23.0117 152.526 23.5879 151.726 24.7402C150.925 25.8828 150.52 27.5625 150.51 29.7793V30.8193C150.51 32.9971 150.91 34.6865 151.711 35.8877C152.512 37.0889 153.664 37.6895 155.168 37.6895C156.643 37.6895 157.775 37.1133 158.566 35.9609C159.357 34.7988 159.758 33.1094 159.768 30.8926V29.8525ZM175.31 33.1924H171.809V41H167.414V19.6719H175.339C177.858 19.6719 179.802 20.2334 181.169 21.3564C182.536 22.4795 183.22 24.0664 183.22 26.1172C183.22 27.5723 182.902 28.7881 182.268 29.7646C181.643 30.7314 180.69 31.5029 179.411 32.0791L184.025 40.7949V41H179.309L175.31 33.1924ZM171.809 29.6328H175.354C176.457 29.6328 177.312 29.3545 177.917 28.7979C178.522 28.2314 178.825 27.4551 178.825 26.4688C178.825 25.4629 178.537 24.6719 177.961 24.0957C177.395 23.5195 176.521 23.2314 175.339 23.2314H171.809V29.6328ZM201.896 23.2314H195.363V41H190.969V23.2314H184.523V19.6719H201.896V23.2314ZM214.699 36.6055H206.994L205.529 41H200.856L208.796 19.6719H212.868L220.852 41H216.179L214.699 36.6055ZM208.181 33.0459H213.513L210.832 25.0625L208.181 33.0459ZM227.238 37.4697H236.569V41H222.844V19.6719H227.238V37.4697Z" fill="white"/>
<rect x="41" y="101" width="1358" height="882" stroke="black" stroke-width="2"/>
<rect x="40" y="100" width="1360" height="50" fill="black"/>
<path d="M63.5254 126.434V132H61.6504V117.781H66.8945C68.4505 117.781 69.668 118.178 70.5469 118.973C71.4323 119.767 71.875 120.818 71.875 122.127C71.875 123.507 71.4421 124.572 70.5762 125.32C69.7168 126.062 68.4831 126.434 66.875 126.434H63.5254ZM63.5254 124.9H66.8945C67.8971 124.9 68.6654 124.666 69.1992 124.197C69.7331 123.722 70 123.038 70 122.146C70 121.3 69.7331 120.623 69.1992 120.115C68.6654 119.607 67.9329 119.344 67.002 119.324H63.5254V124.9ZM85.2051 125.35C85.2051 126.743 84.9707 127.96 84.502 129.002C84.0332 130.037 83.3691 130.828 82.5098 131.375C81.6504 131.922 80.6478 132.195 79.502 132.195C78.3822 132.195 77.3893 131.922 76.5234 131.375C75.6576 130.822 74.9837 130.037 74.502 129.021C74.0267 127.999 73.7826 126.818 73.7695 125.477V124.451C73.7695 123.084 74.0072 121.876 74.4824 120.828C74.9577 119.78 75.6283 118.979 76.4941 118.426C77.3665 117.866 78.3626 117.586 79.4824 117.586C80.6217 117.586 81.6243 117.863 82.4902 118.416C83.3626 118.963 84.0332 119.76 84.502 120.809C84.9707 121.85 85.2051 123.064 85.2051 124.451V125.35ZM83.3398 124.432C83.3398 122.745 83.0013 121.453 82.3242 120.555C81.6471 119.65 80.6999 119.197 79.4824 119.197C78.2975 119.197 77.3633 119.65 76.6797 120.555C76.0026 121.453 75.6543 122.703 75.6348 124.305V125.35C75.6348 126.984 75.9766 128.27 76.6602 129.207C77.3503 130.138 78.2975 130.604 79.502 130.604C80.7129 130.604 81.6504 130.164 82.3145 129.285C82.9785 128.4 83.3203 127.133 83.3398 125.486V124.432ZM93.2324 126.248H89.8926V132H88.0078V117.781H92.7148C94.3164 117.781 95.5469 118.146 96.4062 118.875C97.2721 119.604 97.7051 120.665 97.7051 122.059C97.7051 122.944 97.4642 123.715 96.9824 124.373C96.5072 125.031 95.8431 125.522 94.9902 125.848L98.3301 131.883V132H96.3184L93.2324 126.248ZM89.8926 124.715H92.7734C93.7044 124.715 94.4434 124.474 94.9902 123.992C95.5436 123.51 95.8203 122.866 95.8203 122.059C95.8203 121.18 95.5566 120.506 95.0293 120.037C94.5085 119.568 93.7533 119.331 92.7637 119.324H89.8926V124.715ZM109.385 119.324H104.814V132H102.949V119.324H98.3887V117.781H109.385V119.324ZM119.336 125.721H113.369V132H111.494V117.781H120.303V119.324H113.369V124.188H119.336V125.721ZM133.486 125.35C133.486 126.743 133.252 127.96 132.783 129.002C132.314 130.037 131.65 130.828 130.791 131.375C129.932 131.922 128.929 132.195 127.783 132.195C126.663 132.195 125.671 131.922 124.805 131.375C123.939 130.822 123.265 130.037 122.783 129.021C122.308 127.999 122.064 126.818 122.051 125.477V124.451C122.051 123.084 122.288 121.876 122.764 120.828C123.239 119.78 123.91 118.979 124.775 118.426C125.648 117.866 126.644 117.586 127.764 117.586C128.903 117.586 129.906 117.863 130.771 118.416C131.644 118.963 132.314 119.76 132.783 120.809C133.252 121.85 133.486 123.064 133.486 124.451V125.35ZM131.621 124.432C131.621 122.745 131.283 121.453 130.605 120.555C129.928 119.65 128.981 119.197 127.764 119.197C126.579 119.197 125.645 119.65 124.961 120.555C124.284 121.453 123.936 122.703 123.916 124.305V125.35C123.916 126.984 124.258 128.27 124.941 129.207C125.632 130.138 126.579 130.604 127.783 130.604C128.994 130.604 129.932 130.164 130.596 129.285C131.26 128.4 131.602 127.133 131.621 125.486V124.432ZM138.184 130.467H144.922V132H136.299V117.781H138.184V130.467ZM149.072 132H147.197V117.781H149.072V132ZM163.447 125.35C163.447 126.743 163.213 127.96 162.744 129.002C162.275 130.037 161.611 130.828 160.752 131.375C159.893 131.922 158.89 132.195 157.744 132.195C156.624 132.195 155.632 131.922 154.766 131.375C153.9 130.822 153.226 130.037 152.744 129.021C152.269 127.999 152.025 126.818 152.012 125.477V124.451C152.012 123.084 152.249 121.876 152.725 120.828C153.2 119.78 153.87 118.979 154.736 118.426C155.609 117.866 156.605 117.586 157.725 117.586C158.864 117.586 159.867 117.863 160.732 118.416C161.605 118.963 162.275 119.76 162.744 120.809C163.213 121.85 163.447 123.064 163.447 124.451V125.35ZM161.582 124.432C161.582 122.745 161.243 121.453 160.566 120.555C159.889 119.65 158.942 119.197 157.725 119.197C156.54 119.197 155.605 119.65 154.922 120.555C154.245 121.453 153.896 122.703 153.877 124.305V125.35C153.877 126.984 154.219 128.27 154.902 129.207C155.592 130.138 156.54 130.604 157.744 130.604C158.955 130.604 159.893 130.164 160.557 129.285C161.221 128.4 161.562 127.133 161.582 125.486V124.432Z" fill="white"/>
<rect x="42" y="221" width="1356" height="41" fill="#C4C4C4" fill-opacity="0.15"/>
<path d="M70.8984 243.939C70.7402 245.293 70.2393 246.339 69.3955 247.077C68.5576 247.81 67.4414 248.176 66.0469 248.176C64.5352 248.176 63.3223 247.634 62.4082 246.55C61.5 245.466 61.0459 244.016 61.0459 242.199V240.969C61.0459 239.779 61.2568 238.733 61.6787 237.831C62.1064 236.929 62.71 236.237 63.4893 235.757C64.2686 235.271 65.1709 235.027 66.1963 235.027C67.5557 235.027 68.6455 235.408 69.4658 236.17C70.2861 236.926 70.7637 237.975 70.8984 239.316H69.2021C69.0557 238.297 68.7363 237.559 68.2441 237.102C67.7578 236.645 67.0752 236.416 66.1963 236.416C65.1182 236.416 64.2715 236.814 63.6562 237.611C63.0469 238.408 62.7422 239.542 62.7422 241.013V242.252C62.7422 243.641 63.0322 244.745 63.6123 245.565C64.1924 246.386 65.0039 246.796 66.0469 246.796C66.9844 246.796 67.7021 246.585 68.2002 246.163C68.7041 245.735 69.0381 244.994 69.2021 243.939H70.8984ZM78.8262 248C78.7324 247.812 78.6562 247.479 78.5977 246.998C77.8418 247.783 76.9395 248.176 75.8906 248.176C74.9531 248.176 74.1826 247.912 73.5791 247.385C72.9814 246.852 72.6826 246.178 72.6826 245.363C72.6826 244.373 73.0576 243.605 73.8076 243.061C74.5635 242.51 75.624 242.234 76.9893 242.234H78.5713V241.487C78.5713 240.919 78.4014 240.468 78.0615 240.134C77.7217 239.794 77.2207 239.624 76.5586 239.624C75.9785 239.624 75.4922 239.771 75.0996 240.063C74.707 240.356 74.5107 240.711 74.5107 241.127H72.876C72.876 240.652 73.043 240.195 73.377 239.756C73.7168 239.311 74.1738 238.959 74.748 238.701C75.3281 238.443 75.9639 238.314 76.6553 238.314C77.751 238.314 78.6094 238.59 79.2305 239.141C79.8516 239.686 80.1738 240.438 80.1973 241.399V245.776C80.1973 246.649 80.3086 247.344 80.5312 247.859V248H78.8262ZM76.1279 246.761C76.6377 246.761 77.1211 246.629 77.5781 246.365C78.0352 246.102 78.3662 245.759 78.5713 245.337V243.386H77.2969C75.3047 243.386 74.3086 243.969 74.3086 245.135C74.3086 245.645 74.4785 246.043 74.8184 246.33C75.1582 246.617 75.5947 246.761 76.1279 246.761ZM88.2832 245.478C88.2832 245.038 88.1162 244.698 87.7822 244.458C87.4541 244.212 86.877 244.001 86.0508 243.825C85.2305 243.649 84.5771 243.438 84.0908 243.192C83.6104 242.946 83.2529 242.653 83.0186 242.313C82.79 241.974 82.6758 241.569 82.6758 241.101C82.6758 240.321 83.0039 239.662 83.6602 239.123C84.3223 238.584 85.166 238.314 86.1914 238.314C87.2695 238.314 88.1426 238.593 88.8105 239.149C89.4844 239.706 89.8213 240.418 89.8213 241.285H88.1865C88.1865 240.84 87.9961 240.456 87.6152 240.134C87.2402 239.812 86.7656 239.65 86.1914 239.65C85.5996 239.65 85.1367 239.779 84.8027 240.037C84.4688 240.295 84.3018 240.632 84.3018 241.048C84.3018 241.44 84.457 241.736 84.7676 241.936C85.0781 242.135 85.6377 242.325 86.4463 242.507C87.2607 242.688 87.9199 242.905 88.4238 243.157C88.9277 243.409 89.2998 243.714 89.54 244.071C89.7861 244.423 89.9092 244.854 89.9092 245.363C89.9092 246.213 89.5693 246.896 88.8896 247.411C88.21 247.921 87.3281 248.176 86.2441 248.176C85.4824 248.176 84.8086 248.041 84.2227 247.771C83.6367 247.502 83.1768 247.127 82.8428 246.646C82.5146 246.16 82.3506 245.636 82.3506 245.073H83.9766C84.0059 245.618 84.2227 246.052 84.627 246.374C85.0371 246.69 85.5762 246.849 86.2441 246.849C86.8594 246.849 87.3516 246.726 87.7207 246.479C88.0957 246.228 88.2832 245.894 88.2832 245.478ZM95.9736 248.176C94.6846 248.176 93.6357 247.754 92.8271 246.91C92.0186 246.061 91.6143 244.927 91.6143 243.509V243.21C91.6143 242.267 91.793 241.426 92.1504 240.688C92.5137 239.943 93.0176 239.363 93.6621 238.947C94.3125 238.525 95.0156 238.314 95.7715 238.314C97.0078 238.314 97.9688 238.722 98.6543 239.536C99.3398 240.351 99.6826 241.517 99.6826 243.034V243.711H93.2402C93.2637 244.648 93.5361 245.407 94.0576 245.987C94.585 246.562 95.2529 246.849 96.0615 246.849C96.6357 246.849 97.1221 246.731 97.5205 246.497C97.9189 246.263 98.2676 245.952 98.5664 245.565L99.5596 246.339C98.7627 247.563 97.5674 248.176 95.9736 248.176ZM95.7715 239.65C95.1152 239.65 94.5645 239.891 94.1191 240.371C93.6738 240.846 93.3984 241.514 93.293 242.375H98.0566V242.252C98.0098 241.426 97.7871 240.787 97.3887 240.336C96.9902 239.879 96.4512 239.65 95.7715 239.65ZM107.575 238.49L107.628 239.686C108.354 238.771 109.304 238.314 110.476 238.314C112.485 238.314 113.499 239.448 113.517 241.716V248H111.891V241.707C111.885 241.021 111.727 240.515 111.416 240.187C111.111 239.858 110.634 239.694 109.983 239.694C109.456 239.694 108.993 239.835 108.595 240.116C108.196 240.397 107.886 240.767 107.663 241.224V248H106.037V238.49H107.575ZM121.84 248C121.746 247.812 121.67 247.479 121.611 246.998C120.855 247.783 119.953 248.176 118.904 248.176C117.967 248.176 117.196 247.912 116.593 247.385C115.995 246.852 115.696 246.178 115.696 245.363C115.696 244.373 116.071 243.605 116.821 243.061C117.577 242.51 118.638 242.234 120.003 242.234H121.585V241.487C121.585 240.919 121.415 240.468 121.075 240.134C120.735 239.794 120.234 239.624 119.572 239.624C118.992 239.624 118.506 239.771 118.113 240.063C117.721 240.356 117.524 240.711 117.524 241.127H115.89C115.89 240.652 116.057 240.195 116.391 239.756C116.73 239.311 117.188 238.959 117.762 238.701C118.342 238.443 118.978 238.314 119.669 238.314C120.765 238.314 121.623 238.59 122.244 239.141C122.865 239.686 123.188 240.438 123.211 241.399V245.776C123.211 246.649 123.322 247.344 123.545 247.859V248H121.84ZM119.142 246.761C119.651 246.761 120.135 246.629 120.592 246.365C121.049 246.102 121.38 245.759 121.585 245.337V243.386H120.311C118.318 243.386 117.322 243.969 117.322 245.135C117.322 245.645 117.492 246.043 117.832 246.33C118.172 246.617 118.608 246.761 119.142 246.761ZM127.289 238.49L127.333 239.545C128.03 238.725 128.971 238.314 130.154 238.314C131.484 238.314 132.39 238.824 132.87 239.844C133.187 239.387 133.597 239.018 134.101 238.736C134.61 238.455 135.211 238.314 135.902 238.314C137.988 238.314 139.049 239.419 139.084 241.628V248H137.458V241.725C137.458 241.045 137.303 240.538 136.992 240.204C136.682 239.864 136.16 239.694 135.428 239.694C134.824 239.694 134.323 239.876 133.925 240.239C133.526 240.597 133.295 241.08 133.23 241.689V248H131.596V241.769C131.596 240.386 130.919 239.694 129.565 239.694C128.499 239.694 127.77 240.148 127.377 241.057V248H125.751V238.49H127.289ZM145.491 248.176C144.202 248.176 143.153 247.754 142.345 246.91C141.536 246.061 141.132 244.927 141.132 243.509V243.21C141.132 242.267 141.311 241.426 141.668 240.688C142.031 239.943 142.535 239.363 143.18 238.947C143.83 238.525 144.533 238.314 145.289 238.314C146.525 238.314 147.486 238.722 148.172 239.536C148.857 240.351 149.2 241.517 149.2 243.034V243.711H142.758C142.781 244.648 143.054 245.407 143.575 245.987C144.103 246.562 144.771 246.849 145.579 246.849C146.153 246.849 146.64 246.731 147.038 246.497C147.437 246.263 147.785 245.952 148.084 245.565L149.077 246.339C148.28 247.563 147.085 248.176 145.491 248.176ZM145.289 239.65C144.633 239.65 144.082 239.891 143.637 240.371C143.191 240.846 142.916 241.514 142.811 242.375H147.574V242.252C147.527 241.426 147.305 240.787 146.906 240.336C146.508 239.879 145.969 239.65 145.289 239.65Z" fill="black"/>
<path d="M70.8984 284.939C70.7402 286.293 70.2393 287.339 69.3955 288.077C68.5576 288.81 67.4414 289.176 66.0469 289.176C64.5352 289.176 63.3223 288.634 62.4082 287.55C61.5 286.466 61.0459 285.016 61.0459 283.199V281.969C61.0459 280.779 61.2568 279.733 61.6787 278.831C62.1064 277.929 62.71 277.237 63.4893 276.757C64.2686 276.271 65.1709 276.027 66.1963 276.027C67.5557 276.027 68.6455 276.408 69.4658 277.17C70.2861 277.926 70.7637 278.975 70.8984 280.316H69.2021C69.0557 279.297 68.7363 278.559 68.2441 278.102C67.7578 277.645 67.0752 277.416 66.1963 277.416C65.1182 277.416 64.2715 277.814 63.6562 278.611C63.0469 279.408 62.7422 280.542 62.7422 282.013V283.252C62.7422 284.641 63.0322 285.745 63.6123 286.565C64.1924 287.386 65.0039 287.796 66.0469 287.796C66.9844 287.796 67.7021 287.585 68.2002 287.163C68.7041 286.735 69.0381 285.994 69.2021 284.939H70.8984ZM78.8262 289C78.7324 288.812 78.6562 288.479 78.5977 287.998C77.8418 288.783 76.9395 289.176 75.8906 289.176C74.9531 289.176 74.1826 288.912 73.5791 288.385C72.9814 287.852 72.6826 287.178 72.6826 286.363C72.6826 285.373 73.0576 284.605 73.8076 284.061C74.5635 283.51 75.624 283.234 76.9893 283.234H78.5713V282.487C78.5713 281.919 78.4014 281.468 78.0615 281.134C77.7217 280.794 77.2207 280.624 76.5586 280.624C75.9785 280.624 75.4922 280.771 75.0996 281.063C74.707 281.356 74.5107 281.711 74.5107 282.127H72.876C72.876 281.652 73.043 281.195 73.377 280.756C73.7168 280.311 74.1738 279.959 74.748 279.701C75.3281 279.443 75.9639 279.314 76.6553 279.314C77.751 279.314 78.6094 279.59 79.2305 280.141C79.8516 280.686 80.1738 281.438 80.1973 282.399V286.776C80.1973 287.649 80.3086 288.344 80.5312 288.859V289H78.8262ZM76.1279 287.761C76.6377 287.761 77.1211 287.629 77.5781 287.365C78.0352 287.102 78.3662 286.759 78.5713 286.337V284.386H77.2969C75.3047 284.386 74.3086 284.969 74.3086 286.135C74.3086 286.645 74.4785 287.043 74.8184 287.33C75.1582 287.617 75.5947 287.761 76.1279 287.761ZM88.2832 286.478C88.2832 286.038 88.1162 285.698 87.7822 285.458C87.4541 285.212 86.877 285.001 86.0508 284.825C85.2305 284.649 84.5771 284.438 84.0908 284.192C83.6104 283.946 83.2529 283.653 83.0186 283.313C82.79 282.974 82.6758 282.569 82.6758 282.101C82.6758 281.321 83.0039 280.662 83.6602 280.123C84.3223 279.584 85.166 279.314 86.1914 279.314C87.2695 279.314 88.1426 279.593 88.8105 280.149C89.4844 280.706 89.8213 281.418 89.8213 282.285H88.1865C88.1865 281.84 87.9961 281.456 87.6152 281.134C87.2402 280.812 86.7656 280.65 86.1914 280.65C85.5996 280.65 85.1367 280.779 84.8027 281.037C84.4688 281.295 84.3018 281.632 84.3018 282.048C84.3018 282.44 84.457 282.736 84.7676 282.936C85.0781 283.135 85.6377 283.325 86.4463 283.507C87.2607 283.688 87.9199 283.905 88.4238 284.157C88.9277 284.409 89.2998 284.714 89.54 285.071C89.7861 285.423 89.9092 285.854 89.9092 286.363C89.9092 287.213 89.5693 287.896 88.8896 288.411C88.21 288.921 87.3281 289.176 86.2441 289.176C85.4824 289.176 84.8086 289.041 84.2227 288.771C83.6367 288.502 83.1768 288.127 82.8428 287.646C82.5146 287.16 82.3506 286.636 82.3506 286.073H83.9766C84.0059 286.618 84.2227 287.052 84.627 287.374C85.0371 287.69 85.5762 287.849 86.2441 287.849C86.8594 287.849 87.3516 287.726 87.7207 287.479C88.0957 287.228 88.2832 286.894 88.2832 286.478ZM95.9736 289.176C94.6846 289.176 93.6357 288.754 92.8271 287.91C92.0186 287.061 91.6143 285.927 91.6143 284.509V284.21C91.6143 283.267 91.793 282.426 92.1504 281.688C92.5137 280.943 93.0176 280.363 93.6621 279.947C94.3125 279.525 95.0156 279.314 95.7715 279.314C97.0078 279.314 97.9688 279.722 98.6543 280.536C99.3398 281.351 99.6826 282.517 99.6826 284.034V284.711H93.2402C93.2637 285.648 93.5361 286.407 94.0576 286.987C94.585 287.562 95.2529 287.849 96.0615 287.849C96.6357 287.849 97.1221 287.731 97.5205 287.497C97.9189 287.263 98.2676 286.952 98.5664 286.565L99.5596 287.339C98.7627 288.563 97.5674 289.176 95.9736 289.176ZM95.7715 280.65C95.1152 280.65 94.5645 280.891 94.1191 281.371C93.6738 281.846 93.3984 282.514 93.293 283.375H98.0566V283.252C98.0098 282.426 97.7871 281.787 97.3887 281.336C96.9902 280.879 96.4512 280.65 95.7715 280.65ZM107.575 279.49L107.628 280.686C108.354 279.771 109.304 279.314 110.476 279.314C112.485 279.314 113.499 280.448 113.517 282.716V289H111.891V282.707C111.885 282.021 111.727 281.515 111.416 281.187C111.111 280.858 110.634 280.694 109.983 280.694C109.456 280.694 108.993 280.835 108.595 281.116C108.196 281.397 107.886 281.767 107.663 282.224V289H106.037V279.49H107.575ZM121.84 289C121.746 288.812 121.67 288.479 121.611 287.998C120.855 288.783 119.953 289.176 118.904 289.176C117.967 289.176 117.196 288.912 116.593 288.385C115.995 287.852 115.696 287.178 115.696 286.363C115.696 285.373 116.071 284.605 116.821 284.061C117.577 283.51 118.638 283.234 120.003 283.234H121.585V282.487C121.585 281.919 121.415 281.468 121.075 281.134C120.735 280.794 120.234 280.624 119.572 280.624C118.992 280.624 118.506 280.771 118.113 281.063C117.721 281.356 117.524 281.711 117.524 282.127H115.89C115.89 281.652 116.057 281.195 116.391 280.756C116.73 280.311 117.188 279.959 117.762 279.701C118.342 279.443 118.978 279.314 119.669 279.314C120.765 279.314 121.623 279.59 122.244 280.141C122.865 280.686 123.188 281.438 123.211 282.399V286.776C123.211 287.649 123.322 288.344 123.545 288.859V289H121.84ZM119.142 287.761C119.651 287.761 120.135 287.629 120.592 287.365C121.049 287.102 121.38 286.759 121.585 286.337V284.386H120.311C118.318 284.386 117.322 284.969 117.322 286.135C117.322 286.645 117.492 287.043 117.832 287.33C118.172 287.617 118.608 287.761 119.142 287.761ZM127.289 279.49L127.333 280.545C128.03 279.725 128.971 279.314 130.154 279.314C131.484 279.314 132.39 279.824 132.87 280.844C133.187 280.387 133.597 280.018 134.101 279.736C134.61 279.455 135.211 279.314 135.902 279.314C137.988 279.314 139.049 280.419 139.084 282.628V289H137.458V282.725C137.458 282.045 137.303 281.538 136.992 281.204C136.682 280.864 136.16 280.694 135.428 280.694C134.824 280.694 134.323 280.876 133.925 281.239C133.526 281.597 133.295 282.08 133.23 282.689V289H131.596V282.769C131.596 281.386 130.919 280.694 129.565 280.694C128.499 280.694 127.77 281.148 127.377 282.057V289H125.751V279.49H127.289ZM145.491 289.176C144.202 289.176 143.153 288.754 142.345 287.91C141.536 287.061 141.132 285.927 141.132 284.509V284.21C141.132 283.267 141.311 282.426 141.668 281.688C142.031 280.943 142.535 280.363 143.18 279.947C143.83 279.525 144.533 279.314 145.289 279.314C146.525 279.314 147.486 279.722 148.172 280.536C148.857 281.351 149.2 282.517 149.2 284.034V284.711H142.758C142.781 285.648 143.054 286.407 143.575 286.987C144.103 287.562 144.771 287.849 145.579 287.849C146.153 287.849 146.64 287.731 147.038 287.497C147.437 287.263 147.785 286.952 148.084 286.565L149.077 287.339C148.28 288.563 147.085 289.176 145.491 289.176ZM145.289 280.65C144.633 280.65 144.082 280.891 143.637 281.371C143.191 281.846 142.916 282.514 142.811 283.375H147.574V283.252C147.527 282.426 147.305 281.787 146.906 281.336C146.508 280.879 145.969 280.65 145.289 280.65Z" fill="black"/>
<rect x="42" y="150" width="159" height="40" fill="#9BA5AD"/>
<path d="M68.877 173.338C68.877 172.713 68.6556 172.231 68.2129 171.893C67.7767 171.554 66.9857 171.212 65.8398 170.867C64.694 170.522 63.7826 170.138 63.1055 169.715C61.8099 168.901 61.1621 167.84 61.1621 166.531C61.1621 165.385 61.6276 164.441 62.5586 163.699C63.4961 162.957 64.7103 162.586 66.2012 162.586C67.1908 162.586 68.0729 162.768 68.8477 163.133C69.6224 163.497 70.2311 164.018 70.6738 164.695C71.1165 165.366 71.3379 166.111 71.3379 166.932H68.877C68.877 166.189 68.6426 165.61 68.1738 165.193C67.7116 164.77 67.0475 164.559 66.1816 164.559C65.3743 164.559 64.7461 164.731 64.2969 165.076C63.8542 165.421 63.6328 165.903 63.6328 166.521C63.6328 167.042 63.8737 167.479 64.3555 167.83C64.8372 168.175 65.6315 168.514 66.7383 168.846C67.8451 169.171 68.7337 169.546 69.4043 169.969C70.0749 170.385 70.5664 170.867 70.8789 171.414C71.1914 171.954 71.3477 172.589 71.3477 173.318C71.3477 174.503 70.8919 175.447 69.9805 176.15C69.0755 176.847 67.8451 177.195 66.2891 177.195C65.2604 177.195 64.3132 177.007 63.4473 176.629C62.5879 176.245 61.9173 175.717 61.4355 175.047C60.9603 174.376 60.7227 173.595 60.7227 172.703H63.1934C63.1934 173.51 63.4603 174.135 63.9941 174.578C64.528 175.021 65.293 175.242 66.2891 175.242C67.1484 175.242 67.793 175.07 68.2227 174.725C68.6589 174.373 68.877 173.911 68.877 173.338ZM77.9395 177.195C76.4355 177.195 75.2148 176.723 74.2773 175.779C73.3464 174.829 72.8809 173.566 72.8809 171.99V171.697C72.8809 170.643 73.0827 169.702 73.4863 168.875C73.8965 168.042 74.4694 167.394 75.2051 166.932C75.9408 166.469 76.7611 166.238 77.666 166.238C79.1048 166.238 80.2148 166.697 80.9961 167.615C81.7839 168.533 82.1777 169.832 82.1777 171.512V172.469H75.2734C75.3451 173.341 75.6348 174.031 76.1426 174.539C76.6569 175.047 77.3014 175.301 78.0762 175.301C79.1634 175.301 80.0488 174.861 80.7324 173.982L82.0117 175.203C81.5885 175.835 81.0221 176.326 80.3125 176.678C79.6094 177.023 78.8184 177.195 77.9395 177.195ZM77.6562 168.143C77.0052 168.143 76.4779 168.37 76.0742 168.826C75.6771 169.282 75.4232 169.917 75.3125 170.73H79.834V170.555C79.7819 169.76 79.5703 169.161 79.1992 168.758C78.8281 168.348 78.3138 168.143 77.6562 168.143ZM88.3691 175.301C88.9616 175.301 89.4531 175.128 89.8438 174.783C90.2344 174.438 90.4427 174.012 90.4688 173.504H92.7051C92.679 174.161 92.474 174.777 92.0898 175.35C91.7057 175.916 91.1849 176.365 90.5273 176.697C89.8698 177.029 89.1602 177.195 88.3984 177.195C86.9206 177.195 85.7487 176.717 84.8828 175.76C84.0169 174.803 83.584 173.481 83.584 171.795V171.551C83.584 169.943 84.0137 168.657 84.873 167.693C85.7324 166.723 86.9043 166.238 88.3887 166.238C89.6452 166.238 90.6673 166.606 91.4551 167.342C92.2493 168.071 92.666 169.031 92.7051 170.223H90.4688C90.4427 169.617 90.2344 169.119 89.8438 168.729C89.4596 168.338 88.9681 168.143 88.3691 168.143C87.6009 168.143 87.0085 168.423 86.5918 168.982C86.1751 169.536 85.9635 170.379 85.957 171.512V171.893C85.957 173.038 86.1621 173.895 86.5723 174.461C86.9889 175.021 87.5879 175.301 88.3691 175.301ZM97.4707 163.865V166.434H99.3359V168.191H97.4707V174.09C97.4707 174.493 97.5488 174.786 97.7051 174.969C97.8678 175.145 98.1543 175.232 98.5645 175.232C98.8379 175.232 99.1146 175.2 99.3945 175.135V176.971C98.8542 177.12 98.3333 177.195 97.832 177.195C96.0091 177.195 95.0977 176.189 95.0977 174.178V168.191H93.3594V166.434H95.0977V163.865H97.4707ZM103.682 177H101.309V166.434H103.682V177ZM101.162 163.689C101.162 163.325 101.276 163.022 101.504 162.781C101.738 162.54 102.07 162.42 102.5 162.42C102.93 162.42 103.262 162.54 103.496 162.781C103.73 163.022 103.848 163.325 103.848 163.689C103.848 164.048 103.73 164.347 103.496 164.588C103.262 164.822 102.93 164.939 102.5 164.939C102.07 164.939 101.738 164.822 101.504 164.588C101.276 164.347 101.162 164.048 101.162 163.689ZM105.83 171.619C105.83 170.584 106.035 169.653 106.445 168.826C106.855 167.993 107.432 167.355 108.174 166.912C108.916 166.463 109.769 166.238 110.732 166.238C112.158 166.238 113.314 166.697 114.199 167.615C115.091 168.533 115.573 169.751 115.645 171.268L115.654 171.824C115.654 172.866 115.452 173.797 115.049 174.617C114.652 175.438 114.079 176.072 113.33 176.521C112.588 176.971 111.729 177.195 110.752 177.195C109.261 177.195 108.066 176.701 107.168 175.711C106.276 174.715 105.83 173.39 105.83 171.736V171.619ZM108.203 171.824C108.203 172.911 108.428 173.764 108.877 174.383C109.326 174.995 109.951 175.301 110.752 175.301C111.553 175.301 112.174 174.988 112.617 174.363C113.066 173.738 113.291 172.824 113.291 171.619C113.291 170.551 113.06 169.705 112.598 169.08C112.142 168.455 111.52 168.143 110.732 168.143C109.958 168.143 109.342 168.452 108.887 169.07C108.431 169.682 108.203 170.6 108.203 171.824ZM119.863 166.434L119.932 167.654C120.713 166.71 121.738 166.238 123.008 166.238C125.208 166.238 126.328 167.498 126.367 170.018V177H123.994V170.154C123.994 169.484 123.848 168.989 123.555 168.67C123.268 168.344 122.796 168.182 122.139 168.182C121.182 168.182 120.469 168.615 120 169.48V177H117.627V166.434H119.863ZM135.977 166.434L136.045 167.654C136.826 166.71 137.852 166.238 139.121 166.238C141.322 166.238 142.441 167.498 142.48 170.018V177H140.107V170.154C140.107 169.484 139.961 168.989 139.668 168.67C139.382 168.344 138.91 168.182 138.252 168.182C137.295 168.182 136.582 168.615 136.113 169.48V177H133.74V166.434H135.977ZM151.221 177C151.117 176.798 151.025 176.469 150.947 176.014C150.192 176.801 149.268 177.195 148.174 177.195C147.113 177.195 146.247 176.893 145.576 176.287C144.906 175.682 144.57 174.933 144.57 174.041C144.57 172.915 144.987 172.052 145.82 171.453C146.66 170.848 147.858 170.545 149.414 170.545H150.869V169.852C150.869 169.305 150.716 168.868 150.41 168.543C150.104 168.211 149.639 168.045 149.014 168.045C148.473 168.045 148.031 168.182 147.686 168.455C147.34 168.722 147.168 169.064 147.168 169.48H144.795C144.795 168.901 144.987 168.361 145.371 167.859C145.755 167.352 146.276 166.954 146.934 166.668C147.598 166.382 148.337 166.238 149.15 166.238C150.387 166.238 151.374 166.551 152.109 167.176C152.845 167.794 153.223 168.667 153.242 169.793V174.559C153.242 175.509 153.376 176.268 153.643 176.834V177H151.221ZM148.613 175.291C149.082 175.291 149.521 175.177 149.932 174.949C150.348 174.721 150.661 174.415 150.869 174.031V172.039H149.59C148.711 172.039 148.05 172.192 147.607 172.498C147.165 172.804 146.943 173.237 146.943 173.797C146.943 174.253 147.093 174.617 147.393 174.891C147.699 175.158 148.105 175.291 148.613 175.291ZM157.959 166.434L158.027 167.537C158.77 166.671 159.785 166.238 161.074 166.238C162.487 166.238 163.454 166.779 163.975 167.859C164.743 166.779 165.824 166.238 167.217 166.238C168.382 166.238 169.248 166.561 169.814 167.205C170.387 167.85 170.68 168.8 170.693 170.057V177H168.32V170.125C168.32 169.454 168.174 168.963 167.881 168.65C167.588 168.338 167.103 168.182 166.426 168.182C165.885 168.182 165.443 168.328 165.098 168.621C164.759 168.908 164.521 169.285 164.385 169.754L164.395 177H162.021V170.047C161.989 168.803 161.354 168.182 160.117 168.182C159.167 168.182 158.493 168.569 158.096 169.344V177H155.723V166.434H157.959ZM177.783 177.195C176.279 177.195 175.059 176.723 174.121 175.779C173.19 174.829 172.725 173.566 172.725 171.99V171.697C172.725 170.643 172.926 169.702 173.33 168.875C173.74 168.042 174.313 167.394 175.049 166.932C175.785 166.469 176.605 166.238 177.51 166.238C178.949 166.238 180.059 166.697 180.84 167.615C181.628 168.533 182.021 169.832 182.021 171.512V172.469H175.117C175.189 173.341 175.479 174.031 175.986 174.539C176.501 175.047 177.145 175.301 177.92 175.301C179.007 175.301 179.893 174.861 180.576 173.982L181.855 175.203C181.432 175.835 180.866 176.326 180.156 176.678C179.453 177.023 178.662 177.195 177.783 177.195ZM177.5 168.143C176.849 168.143 176.322 168.37 175.918 168.826C175.521 169.282 175.267 169.917 175.156 170.73H179.678V170.555C179.626 169.76 179.414 169.161 179.043 168.758C178.672 168.348 178.158 168.143 177.5 168.143Z" fill="white"/>
<rect x="203" y="150" width="159" height="40" fill="#9BA5AD" fill-opacity="0.1"/>
<path d="M229.877 173.338C229.877 172.713 229.656 172.231 229.213 171.893C228.777 171.554 227.986 171.212 226.84 170.867C225.694 170.522 224.783 170.138 224.105 169.715C222.81 168.901 222.162 167.84 222.162 166.531C222.162 165.385 222.628 164.441 223.559 163.699C224.496 162.957 225.71 162.586 227.201 162.586C228.191 162.586 229.073 162.768 229.848 163.133C230.622 163.497 231.231 164.018 231.674 164.695C232.117 165.366 232.338 166.111 232.338 166.932H229.877C229.877 166.189 229.643 165.61 229.174 165.193C228.712 164.77 228.048 164.559 227.182 164.559C226.374 164.559 225.746 164.731 225.297 165.076C224.854 165.421 224.633 165.903 224.633 166.521C224.633 167.042 224.874 167.479 225.355 167.83C225.837 168.175 226.632 168.514 227.738 168.846C228.845 169.171 229.734 169.546 230.404 169.969C231.075 170.385 231.566 170.867 231.879 171.414C232.191 171.954 232.348 172.589 232.348 173.318C232.348 174.503 231.892 175.447 230.98 176.15C230.076 176.847 228.845 177.195 227.289 177.195C226.26 177.195 225.313 177.007 224.447 176.629C223.588 176.245 222.917 175.717 222.436 175.047C221.96 174.376 221.723 173.595 221.723 172.703H224.193C224.193 173.51 224.46 174.135 224.994 174.578C225.528 175.021 226.293 175.242 227.289 175.242C228.148 175.242 228.793 175.07 229.223 174.725C229.659 174.373 229.877 173.911 229.877 173.338ZM238.939 177.195C237.436 177.195 236.215 176.723 235.277 175.779C234.346 174.829 233.881 173.566 233.881 171.99V171.697C233.881 170.643 234.083 169.702 234.486 168.875C234.896 168.042 235.469 167.394 236.205 166.932C236.941 166.469 237.761 166.238 238.666 166.238C240.105 166.238 241.215 166.697 241.996 167.615C242.784 168.533 243.178 169.832 243.178 171.512V172.469H236.273C236.345 173.341 236.635 174.031 237.143 174.539C237.657 175.047 238.301 175.301 239.076 175.301C240.163 175.301 241.049 174.861 241.732 173.982L243.012 175.203C242.589 175.835 242.022 176.326 241.312 176.678C240.609 177.023 239.818 177.195 238.939 177.195ZM238.656 168.143C238.005 168.143 237.478 168.37 237.074 168.826C236.677 169.282 236.423 169.917 236.312 170.73H240.834V170.555C240.782 169.76 240.57 169.161 240.199 168.758C239.828 168.348 239.314 168.143 238.656 168.143ZM249.369 175.301C249.962 175.301 250.453 175.128 250.844 174.783C251.234 174.438 251.443 174.012 251.469 173.504H253.705C253.679 174.161 253.474 174.777 253.09 175.35C252.706 175.916 252.185 176.365 251.527 176.697C250.87 177.029 250.16 177.195 249.398 177.195C247.921 177.195 246.749 176.717 245.883 175.76C245.017 174.803 244.584 173.481 244.584 171.795V171.551C244.584 169.943 245.014 168.657 245.873 167.693C246.732 166.723 247.904 166.238 249.389 166.238C250.645 166.238 251.667 166.606 252.455 167.342C253.249 168.071 253.666 169.031 253.705 170.223H251.469C251.443 169.617 251.234 169.119 250.844 168.729C250.46 168.338 249.968 168.143 249.369 168.143C248.601 168.143 248.008 168.423 247.592 168.982C247.175 169.536 246.964 170.379 246.957 171.512V171.893C246.957 173.038 247.162 173.895 247.572 174.461C247.989 175.021 248.588 175.301 249.369 175.301ZM258.471 163.865V166.434H260.336V168.191H258.471V174.09C258.471 174.493 258.549 174.786 258.705 174.969C258.868 175.145 259.154 175.232 259.564 175.232C259.838 175.232 260.115 175.2 260.395 175.135V176.971C259.854 177.12 259.333 177.195 258.832 177.195C257.009 177.195 256.098 176.189 256.098 174.178V168.191H254.359V166.434H256.098V163.865H258.471ZM264.682 177H262.309V166.434H264.682V177ZM262.162 163.689C262.162 163.325 262.276 163.022 262.504 162.781C262.738 162.54 263.07 162.42 263.5 162.42C263.93 162.42 264.262 162.54 264.496 162.781C264.73 163.022 264.848 163.325 264.848 163.689C264.848 164.048 264.73 164.347 264.496 164.588C264.262 164.822 263.93 164.939 263.5 164.939C263.07 164.939 262.738 164.822 262.504 164.588C262.276 164.347 262.162 164.048 262.162 163.689ZM266.83 171.619C266.83 170.584 267.035 169.653 267.445 168.826C267.855 167.993 268.432 167.355 269.174 166.912C269.916 166.463 270.769 166.238 271.732 166.238C273.158 166.238 274.314 166.697 275.199 167.615C276.091 168.533 276.573 169.751 276.645 171.268L276.654 171.824C276.654 172.866 276.452 173.797 276.049 174.617C275.652 175.438 275.079 176.072 274.33 176.521C273.588 176.971 272.729 177.195 271.752 177.195C270.261 177.195 269.066 176.701 268.168 175.711C267.276 174.715 266.83 173.39 266.83 171.736V171.619ZM269.203 171.824C269.203 172.911 269.428 173.764 269.877 174.383C270.326 174.995 270.951 175.301 271.752 175.301C272.553 175.301 273.174 174.988 273.617 174.363C274.066 173.738 274.291 172.824 274.291 171.619C274.291 170.551 274.06 169.705 273.598 169.08C273.142 168.455 272.52 168.143 271.732 168.143C270.958 168.143 270.342 168.452 269.887 169.07C269.431 169.682 269.203 170.6 269.203 171.824ZM280.863 166.434L280.932 167.654C281.713 166.71 282.738 166.238 284.008 166.238C286.208 166.238 287.328 167.498 287.367 170.018V177H284.994V170.154C284.994 169.484 284.848 168.989 284.555 168.67C284.268 168.344 283.796 168.182 283.139 168.182C282.182 168.182 281.469 168.615 281 169.48V177H278.627V166.434H280.863ZM296.977 166.434L297.045 167.654C297.826 166.71 298.852 166.238 300.121 166.238C302.322 166.238 303.441 167.498 303.48 170.018V177H301.107V170.154C301.107 169.484 300.961 168.989 300.668 168.67C300.382 168.344 299.91 168.182 299.252 168.182C298.295 168.182 297.582 168.615 297.113 169.48V177H294.74V166.434H296.977ZM312.221 177C312.117 176.798 312.025 176.469 311.947 176.014C311.192 176.801 310.268 177.195 309.174 177.195C308.113 177.195 307.247 176.893 306.576 176.287C305.906 175.682 305.57 174.933 305.57 174.041C305.57 172.915 305.987 172.052 306.82 171.453C307.66 170.848 308.858 170.545 310.414 170.545H311.869V169.852C311.869 169.305 311.716 168.868 311.41 168.543C311.104 168.211 310.639 168.045 310.014 168.045C309.473 168.045 309.031 168.182 308.686 168.455C308.34 168.722 308.168 169.064 308.168 169.48H305.795C305.795 168.901 305.987 168.361 306.371 167.859C306.755 167.352 307.276 166.954 307.934 166.668C308.598 166.382 309.337 166.238 310.15 166.238C311.387 166.238 312.374 166.551 313.109 167.176C313.845 167.794 314.223 168.667 314.242 169.793V174.559C314.242 175.509 314.376 176.268 314.643 176.834V177H312.221ZM309.613 175.291C310.082 175.291 310.521 175.177 310.932 174.949C311.348 174.721 311.661 174.415 311.869 174.031V172.039H310.59C309.711 172.039 309.05 172.192 308.607 172.498C308.165 172.804 307.943 173.237 307.943 173.797C307.943 174.253 308.093 174.617 308.393 174.891C308.699 175.158 309.105 175.291 309.613 175.291ZM318.959 166.434L319.027 167.537C319.77 166.671 320.785 166.238 322.074 166.238C323.487 166.238 324.454 166.779 324.975 167.859C325.743 166.779 326.824 166.238 328.217 166.238C329.382 166.238 330.248 166.561 330.814 167.205C331.387 167.85 331.68 168.8 331.693 170.057V177H329.32V170.125C329.32 169.454 329.174 168.963 328.881 168.65C328.588 168.338 328.103 168.182 327.426 168.182C326.885 168.182 326.443 168.328 326.098 168.621C325.759 168.908 325.521 169.285 325.385 169.754L325.395 177H323.021V170.047C322.989 168.803 322.354 168.182 321.117 168.182C320.167 168.182 319.493 168.569 319.096 169.344V177H316.723V166.434H318.959ZM338.783 177.195C337.279 177.195 336.059 176.723 335.121 175.779C334.19 174.829 333.725 173.566 333.725 171.99V171.697C333.725 170.643 333.926 169.702 334.33 168.875C334.74 168.042 335.313 167.394 336.049 166.932C336.785 166.469 337.605 166.238 338.51 166.238C339.949 166.238 341.059 166.697 341.84 167.615C342.628 168.533 343.021 169.832 343.021 171.512V172.469H336.117C336.189 173.341 336.479 174.031 336.986 174.539C337.501 175.047 338.145 175.301 338.92 175.301C340.007 175.301 340.893 174.861 341.576 173.982L342.855 175.203C342.432 175.835 341.866 176.326 341.156 176.678C340.453 177.023 339.662 177.195 338.783 177.195ZM338.5 168.143C337.849 168.143 337.322 168.37 336.918 168.826C336.521 169.282 336.267 169.917 336.156 170.73H340.678V170.555C340.626 169.76 340.414 169.161 340.043 168.758C339.672 168.348 339.158 168.143 338.5 168.143Z" fill="#9BA5AD"/>
<rect x="364" y="150" width="159" height="40" fill="#F5F6F7"/>
<path d="M390.877 173.338C390.877 172.713 390.656 172.231 390.213 171.893C389.777 171.554 388.986 171.212 387.84 170.867C386.694 170.522 385.783 170.138 385.105 169.715C383.81 168.901 383.162 167.84 383.162 166.531C383.162 165.385 383.628 164.441 384.559 163.699C385.496 162.957 386.71 162.586 388.201 162.586C389.191 162.586 390.073 162.768 390.848 163.133C391.622 163.497 392.231 164.018 392.674 164.695C393.117 165.366 393.338 166.111 393.338 166.932H390.877C390.877 166.189 390.643 165.61 390.174 165.193C389.712 164.77 389.048 164.559 388.182 164.559C387.374 164.559 386.746 164.731 386.297 165.076C385.854 165.421 385.633 165.903 385.633 166.521C385.633 167.042 385.874 167.479 386.355 167.83C386.837 168.175 387.632 168.514 388.738 168.846C389.845 169.171 390.734 169.546 391.404 169.969C392.075 170.385 392.566 170.867 392.879 171.414C393.191 171.954 393.348 172.589 393.348 173.318C393.348 174.503 392.892 175.447 391.98 176.15C391.076 176.847 389.845 177.195 388.289 177.195C387.26 177.195 386.313 177.007 385.447 176.629C384.588 176.245 383.917 175.717 383.436 175.047C382.96 174.376 382.723 173.595 382.723 172.703H385.193C385.193 173.51 385.46 174.135 385.994 174.578C386.528 175.021 387.293 175.242 388.289 175.242C389.148 175.242 389.793 175.07 390.223 174.725C390.659 174.373 390.877 173.911 390.877 173.338ZM399.939 177.195C398.436 177.195 397.215 176.723 396.277 175.779C395.346 174.829 394.881 173.566 394.881 171.99V171.697C394.881 170.643 395.083 169.702 395.486 168.875C395.896 168.042 396.469 167.394 397.205 166.932C397.941 166.469 398.761 166.238 399.666 166.238C401.105 166.238 402.215 166.697 402.996 167.615C403.784 168.533 404.178 169.832 404.178 171.512V172.469H397.273C397.345 173.341 397.635 174.031 398.143 174.539C398.657 175.047 399.301 175.301 400.076 175.301C401.163 175.301 402.049 174.861 402.732 173.982L404.012 175.203C403.589 175.835 403.022 176.326 402.312 176.678C401.609 177.023 400.818 177.195 399.939 177.195ZM399.656 168.143C399.005 168.143 398.478 168.37 398.074 168.826C397.677 169.282 397.423 169.917 397.312 170.73H401.834V170.555C401.782 169.76 401.57 169.161 401.199 168.758C400.828 168.348 400.314 168.143 399.656 168.143ZM410.369 175.301C410.962 175.301 411.453 175.128 411.844 174.783C412.234 174.438 412.443 174.012 412.469 173.504H414.705C414.679 174.161 414.474 174.777 414.09 175.35C413.706 175.916 413.185 176.365 412.527 176.697C411.87 177.029 411.16 177.195 410.398 177.195C408.921 177.195 407.749 176.717 406.883 175.76C406.017 174.803 405.584 173.481 405.584 171.795V171.551C405.584 169.943 406.014 168.657 406.873 167.693C407.732 166.723 408.904 166.238 410.389 166.238C411.645 166.238 412.667 166.606 413.455 167.342C414.249 168.071 414.666 169.031 414.705 170.223H412.469C412.443 169.617 412.234 169.119 411.844 168.729C411.46 168.338 410.968 168.143 410.369 168.143C409.601 168.143 409.008 168.423 408.592 168.982C408.175 169.536 407.964 170.379 407.957 171.512V171.893C407.957 173.038 408.162 173.895 408.572 174.461C408.989 175.021 409.588 175.301 410.369 175.301ZM419.471 163.865V166.434H421.336V168.191H419.471V174.09C419.471 174.493 419.549 174.786 419.705 174.969C419.868 175.145 420.154 175.232 420.564 175.232C420.838 175.232 421.115 175.2 421.395 175.135V176.971C420.854 177.12 420.333 177.195 419.832 177.195C418.009 177.195 417.098 176.189 417.098 174.178V168.191H415.359V166.434H417.098V163.865H419.471ZM425.682 177H423.309V166.434H425.682V177ZM423.162 163.689C423.162 163.325 423.276 163.022 423.504 162.781C423.738 162.54 424.07 162.42 424.5 162.42C424.93 162.42 425.262 162.54 425.496 162.781C425.73 163.022 425.848 163.325 425.848 163.689C425.848 164.048 425.73 164.347 425.496 164.588C425.262 164.822 424.93 164.939 424.5 164.939C424.07 164.939 423.738 164.822 423.504 164.588C423.276 164.347 423.162 164.048 423.162 163.689ZM427.83 171.619C427.83 170.584 428.035 169.653 428.445 168.826C428.855 167.993 429.432 167.355 430.174 166.912C430.916 166.463 431.769 166.238 432.732 166.238C434.158 166.238 435.314 166.697 436.199 167.615C437.091 168.533 437.573 169.751 437.645 171.268L437.654 171.824C437.654 172.866 437.452 173.797 437.049 174.617C436.652 175.438 436.079 176.072 435.33 176.521C434.588 176.971 433.729 177.195 432.752 177.195C431.261 177.195 430.066 176.701 429.168 175.711C428.276 174.715 427.83 173.39 427.83 171.736V171.619ZM430.203 171.824C430.203 172.911 430.428 173.764 430.877 174.383C431.326 174.995 431.951 175.301 432.752 175.301C433.553 175.301 434.174 174.988 434.617 174.363C435.066 173.738 435.291 172.824 435.291 171.619C435.291 170.551 435.06 169.705 434.598 169.08C434.142 168.455 433.52 168.143 432.732 168.143C431.958 168.143 431.342 168.452 430.887 169.07C430.431 169.682 430.203 170.6 430.203 171.824ZM441.863 166.434L441.932 167.654C442.713 166.71 443.738 166.238 445.008 166.238C447.208 166.238 448.328 167.498 448.367 170.018V177H445.994V170.154C445.994 169.484 445.848 168.989 445.555 168.67C445.268 168.344 444.796 168.182 444.139 168.182C443.182 168.182 442.469 168.615 442 169.48V177H439.627V166.434H441.863ZM457.977 166.434L458.045 167.654C458.826 166.71 459.852 166.238 461.121 166.238C463.322 166.238 464.441 167.498 464.48 170.018V177H462.107V170.154C462.107 169.484 461.961 168.989 461.668 168.67C461.382 168.344 460.91 168.182 460.252 168.182C459.295 168.182 458.582 168.615 458.113 169.48V177H455.74V166.434H457.977ZM473.221 177C473.117 176.798 473.025 176.469 472.947 176.014C472.192 176.801 471.268 177.195 470.174 177.195C469.113 177.195 468.247 176.893 467.576 176.287C466.906 175.682 466.57 174.933 466.57 174.041C466.57 172.915 466.987 172.052 467.82 171.453C468.66 170.848 469.858 170.545 471.414 170.545H472.869V169.852C472.869 169.305 472.716 168.868 472.41 168.543C472.104 168.211 471.639 168.045 471.014 168.045C470.473 168.045 470.031 168.182 469.686 168.455C469.34 168.722 469.168 169.064 469.168 169.48H466.795C466.795 168.901 466.987 168.361 467.371 167.859C467.755 167.352 468.276 166.954 468.934 166.668C469.598 166.382 470.337 166.238 471.15 166.238C472.387 166.238 473.374 166.551 474.109 167.176C474.845 167.794 475.223 168.667 475.242 169.793V174.559C475.242 175.509 475.376 176.268 475.643 176.834V177H473.221ZM470.613 175.291C471.082 175.291 471.521 175.177 471.932 174.949C472.348 174.721 472.661 174.415 472.869 174.031V172.039H471.59C470.711 172.039 470.05 172.192 469.607 172.498C469.165 172.804 468.943 173.237 468.943 173.797C468.943 174.253 469.093 174.617 469.393 174.891C469.699 175.158 470.105 175.291 470.613 175.291ZM479.959 166.434L480.027 167.537C480.77 166.671 481.785 166.238 483.074 166.238C484.487 166.238 485.454 166.779 485.975 167.859C486.743 166.779 487.824 166.238 489.217 166.238C490.382 166.238 491.248 166.561 491.814 167.205C492.387 167.85 492.68 168.8 492.693 170.057V177H490.32V170.125C490.32 169.454 490.174 168.963 489.881 168.65C489.588 168.338 489.103 168.182 488.426 168.182C487.885 168.182 487.443 168.328 487.098 168.621C486.759 168.908 486.521 169.285 486.385 169.754L486.395 177H484.021V170.047C483.989 168.803 483.354 168.182 482.117 168.182C481.167 168.182 480.493 168.569 480.096 169.344V177H477.723V166.434H479.959ZM499.783 177.195C498.279 177.195 497.059 176.723 496.121 175.779C495.19 174.829 494.725 173.566 494.725 171.99V171.697C494.725 170.643 494.926 169.702 495.33 168.875C495.74 168.042 496.313 167.394 497.049 166.932C497.785 166.469 498.605 166.238 499.51 166.238C500.949 166.238 502.059 166.697 502.84 167.615C503.628 168.533 504.021 169.832 504.021 171.512V172.469H497.117C497.189 173.341 497.479 174.031 497.986 174.539C498.501 175.047 499.145 175.301 499.92 175.301C501.007 175.301 501.893 174.861 502.576 173.982L503.855 175.203C503.432 175.835 502.866 176.326 502.156 176.678C501.453 177.023 500.662 177.195 499.783 177.195ZM499.5 168.143C498.849 168.143 498.322 168.37 497.918 168.826C497.521 169.282 497.267 169.917 497.156 170.73H501.678V170.555C501.626 169.76 501.414 169.161 501.043 168.758C500.672 168.348 500.158 168.143 499.5 168.143Z" fill="#9BA5AD"/>
<line x1="42" y1="189.5" x2="1398" y2="189.5" stroke="#9BA5AD"/>
<rect x="42" y="191" width="1356" height="31" fill="white"/>
<path d="M70.8984 208.939C70.7402 210.293 70.2393 211.339 69.3955 212.077C68.5576 212.81 67.4414 213.176 66.0469 213.176C64.5352 213.176 63.3223 212.634 62.4082 211.55C61.5 210.466 61.0459 209.016 61.0459 207.199V205.969C61.0459 204.779 61.2568 203.733 61.6787 202.831C62.1064 201.929 62.71 201.237 63.4893 200.757C64.2686 200.271 65.1709 200.027 66.1963 200.027C67.5557 200.027 68.6455 200.408 69.4658 201.17C70.2861 201.926 70.7637 202.975 70.8984 204.316H69.2021C69.0557 203.297 68.7363 202.559 68.2441 202.102C67.7578 201.645 67.0752 201.416 66.1963 201.416C65.1182 201.416 64.2715 201.814 63.6562 202.611C63.0469 203.408 62.7422 204.542 62.7422 206.013V207.252C62.7422 208.641 63.0322 209.745 63.6123 210.565C64.1924 211.386 65.0039 211.796 66.0469 211.796C66.9844 211.796 67.7021 211.585 68.2002 211.163C68.7041 210.735 69.0381 209.994 69.2021 208.939H70.8984ZM80.2764 209.66H74.915L73.7109 213H71.9707L76.8574 200.203H78.334L83.2295 213H81.498L80.2764 209.66ZM75.4248 208.271H79.7754L77.5957 202.286L75.4248 208.271ZM88.7227 207.296C87.2754 206.88 86.2207 206.37 85.5586 205.767C84.9023 205.157 84.5742 204.407 84.5742 203.517C84.5742 202.509 84.9756 201.677 85.7783 201.021C86.5869 200.358 87.6357 200.027 88.9248 200.027C89.8037 200.027 90.5859 200.197 91.2715 200.537C91.9629 200.877 92.4961 201.346 92.8711 201.943C93.252 202.541 93.4424 203.194 93.4424 203.903H91.7461C91.7461 203.13 91.5 202.523 91.0078 202.084C90.5156 201.639 89.8213 201.416 88.9248 201.416C88.0928 201.416 87.4424 201.601 86.9736 201.97C86.5107 202.333 86.2793 202.84 86.2793 203.49C86.2793 204.012 86.499 204.454 86.9385 204.817C87.3838 205.175 88.1367 205.503 89.1973 205.802C90.2637 206.101 91.0957 206.432 91.6934 206.795C92.2969 207.152 92.7422 207.571 93.0293 208.052C93.3223 208.532 93.4688 209.098 93.4688 209.748C93.4688 210.785 93.0645 211.617 92.2559 212.244C91.4473 212.865 90.3662 213.176 89.0127 213.176C88.1338 213.176 87.3135 213.009 86.5518 212.675C85.79 212.335 85.2012 211.872 84.7852 211.286C84.375 210.7 84.1699 210.035 84.1699 209.291H85.8662C85.8662 210.064 86.1504 210.677 86.7188 211.128C87.293 211.573 88.0576 211.796 89.0127 211.796C89.9033 211.796 90.5859 211.614 91.0605 211.251C91.5352 210.888 91.7725 210.393 91.7725 209.766C91.7725 209.139 91.5527 208.655 91.1133 208.315C90.6738 207.97 89.877 207.63 88.7227 207.296ZM102.873 207.085H97.3271V211.62H103.77V213H95.6396V200.203H103.682V201.592H97.3271V205.705H102.873V207.085Z" fill="black"/>
<path d="M228.256 207.296C226.809 206.88 225.754 206.37 225.092 205.767C224.436 205.157 224.107 204.407 224.107 203.517C224.107 202.509 224.509 201.677 225.312 201.021C226.12 200.358 227.169 200.027 228.458 200.027C229.337 200.027 230.119 200.197 230.805 200.537C231.496 200.877 232.029 201.346 232.404 201.943C232.785 202.541 232.976 203.194 232.976 203.903H231.279C231.279 203.13 231.033 202.523 230.541 202.084C230.049 201.639 229.354 201.416 228.458 201.416C227.626 201.416 226.976 201.601 226.507 201.97C226.044 202.333 225.812 202.84 225.812 203.49C225.812 204.012 226.032 204.454 226.472 204.817C226.917 205.175 227.67 205.503 228.73 205.802C229.797 206.101 230.629 206.432 231.227 206.795C231.83 207.152 232.275 207.571 232.562 208.052C232.855 208.532 233.002 209.098 233.002 209.748C233.002 210.785 232.598 211.617 231.789 212.244C230.98 212.865 229.899 213.176 228.546 213.176C227.667 213.176 226.847 213.009 226.085 212.675C225.323 212.335 224.734 211.872 224.318 211.286C223.908 210.7 223.703 210.035 223.703 209.291H225.399C225.399 210.064 225.684 210.677 226.252 211.128C226.826 211.573 227.591 211.796 228.546 211.796C229.437 211.796 230.119 211.614 230.594 211.251C231.068 210.888 231.306 210.393 231.306 209.766C231.306 209.139 231.086 208.655 230.646 208.315C230.207 207.97 229.41 207.63 228.256 207.296ZM242.406 207.085H236.86V211.62H243.303V213H235.173V200.203H243.215V201.592H236.86V205.705H242.406V207.085ZM250.097 207.823H247.091V213H245.395V200.203H249.631C251.072 200.203 252.18 200.531 252.953 201.188C253.732 201.844 254.122 202.799 254.122 204.053C254.122 204.85 253.905 205.544 253.472 206.136C253.044 206.728 252.446 207.17 251.679 207.463L254.685 212.895V213H252.874L250.097 207.823ZM247.091 206.443H249.684C250.521 206.443 251.187 206.227 251.679 205.793C252.177 205.359 252.426 204.779 252.426 204.053C252.426 203.262 252.188 202.655 251.714 202.233C251.245 201.812 250.565 201.598 249.675 201.592H247.091V206.443ZM258.306 213H256.618V200.203H258.306V213ZM268.624 209.66H263.263L262.059 213H260.318L265.205 200.203H266.682L271.577 213H269.846L268.624 209.66ZM263.772 208.271H268.123L265.943 202.286L263.772 208.271ZM274.996 211.62H281.061V213H273.3V200.203H274.996V211.62ZM292.688 209.396H290.368L289.665 213H288.408L289.111 209.396H287.011V208.192H289.34L289.946 205.081H287.679V203.859H290.184L290.904 200.203H292.161L291.44 203.859H293.761L294.481 200.203H295.747L295.026 203.859H296.819V205.081H294.789L294.183 208.192H296.16V209.396H293.954L293.251 213H291.985L292.688 209.396ZM290.597 208.192H292.917L293.523 205.081H291.203L290.597 208.192Z" fill="black"/>
<path d="M414.898 208.939C414.74 210.293 414.239 211.339 413.396 212.077C412.558 212.81 411.441 213.176 410.047 213.176C408.535 213.176 407.322 212.634 406.408 211.55C405.5 210.466 405.046 209.016 405.046 207.199V205.969C405.046 204.779 405.257 203.733 405.679 202.831C406.106 201.929 406.71 201.237 407.489 200.757C408.269 200.271 409.171 200.027 410.196 200.027C411.556 200.027 412.646 200.408 413.466 201.17C414.286 201.926 414.764 202.975 414.898 204.316H413.202C413.056 203.297 412.736 202.559 412.244 202.102C411.758 201.645 411.075 201.416 410.196 201.416C409.118 201.416 408.271 201.814 407.656 202.611C407.047 203.408 406.742 204.542 406.742 206.013V207.252C406.742 208.641 407.032 209.745 407.612 210.565C408.192 211.386 409.004 211.796 410.047 211.796C410.984 211.796 411.702 211.585 412.2 211.163C412.704 210.735 413.038 209.994 413.202 208.939H414.898ZM427.054 207.015C427.054 208.269 426.843 209.364 426.421 210.302C425.999 211.233 425.401 211.945 424.628 212.438C423.854 212.93 422.952 213.176 421.921 213.176C420.913 213.176 420.02 212.93 419.24 212.438C418.461 211.939 417.854 211.233 417.421 210.319C416.993 209.399 416.773 208.336 416.762 207.129V206.206C416.762 204.976 416.976 203.889 417.403 202.945C417.831 202.002 418.435 201.281 419.214 200.783C419.999 200.279 420.896 200.027 421.903 200.027C422.929 200.027 423.831 200.276 424.61 200.774C425.396 201.267 425.999 201.984 426.421 202.928C426.843 203.865 427.054 204.958 427.054 206.206V207.015ZM425.375 206.188C425.375 204.671 425.07 203.508 424.461 202.699C423.852 201.885 422.999 201.478 421.903 201.478C420.837 201.478 419.996 201.885 419.381 202.699C418.771 203.508 418.458 204.633 418.44 206.074V207.015C418.44 208.485 418.748 209.643 419.363 210.486C419.984 211.324 420.837 211.743 421.921 211.743C423.011 211.743 423.854 211.348 424.452 210.557C425.05 209.76 425.357 208.62 425.375 207.138V206.188ZM438.594 200.203V208.904C438.588 210.111 438.207 211.099 437.451 211.866C436.701 212.634 435.682 213.064 434.393 213.158L433.944 213.176C432.544 213.176 431.428 212.798 430.596 212.042C429.764 211.286 429.342 210.246 429.33 208.922V200.203H431V208.869C431 209.795 431.255 210.516 431.765 211.031C432.274 211.541 433.001 211.796 433.944 211.796C434.899 211.796 435.629 211.541 436.133 211.031C436.643 210.521 436.897 209.804 436.897 208.878V200.203H438.594ZM451.092 213H449.396L442.953 203.139V213H441.257V200.203H442.953L449.413 210.108V200.203H451.092V213ZM462.667 201.592H458.554V213H456.875V201.592H452.771V200.203H462.667V201.592ZM469.259 207.823H466.253V213H464.557V200.203H468.793C470.234 200.203 471.342 200.531 472.115 201.188C472.895 201.844 473.284 202.799 473.284 204.053C473.284 204.85 473.067 205.544 472.634 206.136C472.206 206.728 471.608 207.17 470.841 207.463L473.847 212.895V213H472.036L469.259 207.823ZM466.253 206.443H468.846C469.684 206.443 470.349 206.227 470.841 205.793C471.339 205.359 471.588 204.779 471.588 204.053C471.588 203.262 471.351 202.655 470.876 202.233C470.407 201.812 469.728 201.598 468.837 201.592H466.253V206.443ZM479.138 206.628L482.478 200.203H484.394L479.981 208.228V213H478.294V208.228L473.882 200.203H475.815L479.138 206.628Z" fill="black"/>
<path d="M589.256 207.296C587.809 206.88 586.754 206.37 586.092 205.767C585.436 205.157 585.107 204.407 585.107 203.517C585.107 202.509 585.509 201.677 586.312 201.021C587.12 200.358 588.169 200.027 589.458 200.027C590.337 200.027 591.119 200.197 591.805 200.537C592.496 200.877 593.029 201.346 593.404 201.943C593.785 202.541 593.976 203.194 593.976 203.903H592.279C592.279 203.13 592.033 202.523 591.541 202.084C591.049 201.639 590.354 201.416 589.458 201.416C588.626 201.416 587.976 201.601 587.507 201.97C587.044 202.333 586.812 202.84 586.812 203.49C586.812 204.012 587.032 204.454 587.472 204.817C587.917 205.175 588.67 205.503 589.73 205.802C590.797 206.101 591.629 206.432 592.227 206.795C592.83 207.152 593.275 207.571 593.562 208.052C593.855 208.532 594.002 209.098 594.002 209.748C594.002 210.785 593.598 211.617 592.789 212.244C591.98 212.865 590.899 213.176 589.546 213.176C588.667 213.176 587.847 213.009 587.085 212.675C586.323 212.335 585.734 211.872 585.318 211.286C584.908 210.7 584.703 210.035 584.703 209.291H586.399C586.399 210.064 586.684 210.677 587.252 211.128C587.826 211.573 588.591 211.796 589.546 211.796C590.437 211.796 591.119 211.614 591.594 211.251C592.068 210.888 592.306 210.393 592.306 209.766C592.306 209.139 592.086 208.655 591.646 208.315C591.207 207.97 590.41 207.63 589.256 207.296ZM605.015 201.592H600.901V213H599.223V201.592H595.118V200.203H605.015V201.592ZM613.276 209.66H607.915L606.711 213H604.971L609.857 200.203H611.334L616.229 213H614.498L613.276 209.66ZM608.425 208.271H612.775L610.596 202.286L608.425 208.271ZM625.651 201.592H621.538V213H619.859V201.592H615.755V200.203H625.651V201.592ZM636.559 200.203V208.904C636.553 210.111 636.172 211.099 635.416 211.866C634.666 212.634 633.646 213.064 632.357 213.158L631.909 213.176C630.509 213.176 629.393 212.798 628.561 212.042C627.729 211.286 627.307 210.246 627.295 208.922V200.203H628.965V208.869C628.965 209.795 629.22 210.516 629.729 211.031C630.239 211.541 630.966 211.796 631.909 211.796C632.864 211.796 633.594 211.541 634.098 211.031C634.607 210.521 634.862 209.804 634.862 208.878V200.203H636.559ZM642.992 207.296C641.545 206.88 640.49 206.37 639.828 205.767C639.172 205.157 638.844 204.407 638.844 203.517C638.844 202.509 639.245 201.677 640.048 201.021C640.856 200.358 641.905 200.027 643.194 200.027C644.073 200.027 644.855 200.197 645.541 200.537C646.232 200.877 646.766 201.346 647.141 201.943C647.521 202.541 647.712 203.194 647.712 203.903H646.016C646.016 203.13 645.77 202.523 645.277 202.084C644.785 201.639 644.091 201.416 643.194 201.416C642.362 201.416 641.712 201.601 641.243 201.97C640.78 202.333 640.549 202.84 640.549 203.49C640.549 204.012 640.769 204.454 641.208 204.817C641.653 205.175 642.406 205.503 643.467 205.802C644.533 206.101 645.365 206.432 645.963 206.795C646.566 207.152 647.012 207.571 647.299 208.052C647.592 208.532 647.738 209.098 647.738 209.748C647.738 210.785 647.334 211.617 646.525 212.244C645.717 212.865 644.636 213.176 643.282 213.176C642.403 213.176 641.583 213.009 640.821 212.675C640.06 212.335 639.471 211.872 639.055 211.286C638.645 210.7 638.439 210.035 638.439 209.291H640.136C640.136 210.064 640.42 210.677 640.988 211.128C641.562 211.573 642.327 211.796 643.282 211.796C644.173 211.796 644.855 211.614 645.33 211.251C645.805 210.888 646.042 210.393 646.042 209.766C646.042 209.139 645.822 208.655 645.383 208.315C644.943 207.97 644.146 207.63 642.992 207.296Z" fill="black"/>
<path d="M232.088 242.542C232.088 244.446 231.763 245.861 231.112 246.787C230.462 247.713 229.445 248.176 228.062 248.176C226.697 248.176 225.687 247.725 225.03 246.822C224.374 245.914 224.034 244.561 224.011 242.762V240.591C224.011 238.71 224.336 237.312 224.986 236.398C225.637 235.484 226.656 235.027 228.045 235.027C229.422 235.027 230.436 235.47 231.086 236.354C231.736 237.233 232.07 238.593 232.088 240.433V242.542ZM230.462 240.318C230.462 238.941 230.269 237.939 229.882 237.312C229.495 236.68 228.883 236.363 228.045 236.363C227.213 236.363 226.606 236.677 226.226 237.304C225.845 237.931 225.648 238.895 225.637 240.195V242.797C225.637 244.18 225.836 245.202 226.234 245.864C226.639 246.521 227.248 246.849 228.062 246.849C228.865 246.849 229.46 246.538 229.847 245.917C230.239 245.296 230.444 244.317 230.462 242.981V240.318ZM241.035 243.702H242.811V245.029H241.035V248H239.4V245.029H233.573V244.071L239.304 235.203H241.035V243.702ZM235.419 243.702H239.4V237.427L239.207 237.778L235.419 243.702ZM252.039 238.543C252.039 239.182 251.869 239.75 251.529 240.248C251.195 240.746 250.741 241.136 250.167 241.417C250.835 241.704 251.362 242.123 251.749 242.674C252.142 243.225 252.338 243.849 252.338 244.546C252.338 245.653 251.963 246.535 251.213 247.191C250.469 247.848 249.487 248.176 248.269 248.176C247.038 248.176 246.051 247.848 245.307 247.191C244.568 246.529 244.199 245.647 244.199 244.546C244.199 243.854 244.387 243.23 244.762 242.674C245.143 242.117 245.667 241.695 246.335 241.408C245.767 241.127 245.318 240.737 244.99 240.239C244.662 239.741 244.498 239.176 244.498 238.543C244.498 237.465 244.844 236.609 245.535 235.977C246.227 235.344 247.138 235.027 248.269 235.027C249.394 235.027 250.302 235.344 250.993 235.977C251.69 236.609 252.039 237.465 252.039 238.543ZM250.712 244.511C250.712 243.796 250.483 243.213 250.026 242.762C249.575 242.311 248.983 242.085 248.251 242.085C247.519 242.085 246.93 242.308 246.484 242.753C246.045 243.198 245.825 243.784 245.825 244.511C245.825 245.237 246.039 245.809 246.467 246.225C246.9 246.641 247.501 246.849 248.269 246.849C249.03 246.849 249.628 246.641 250.062 246.225C250.495 245.803 250.712 245.231 250.712 244.511ZM248.269 236.363C247.63 236.363 247.111 236.562 246.713 236.961C246.32 237.354 246.124 237.89 246.124 238.569C246.124 239.22 246.317 239.747 246.704 240.151C247.097 240.55 247.618 240.749 248.269 240.749C248.919 240.749 249.438 240.55 249.824 240.151C250.217 239.747 250.413 239.22 250.413 238.569C250.413 237.919 250.211 237.389 249.807 236.979C249.402 236.568 248.89 236.363 248.269 236.363ZM260.617 242.375C260.277 242.779 259.87 243.104 259.396 243.351C258.927 243.597 258.411 243.72 257.849 243.72C257.11 243.72 256.466 243.538 255.915 243.175C255.37 242.812 254.948 242.302 254.649 241.646C254.351 240.983 254.201 240.254 254.201 239.457C254.201 238.602 254.362 237.831 254.685 237.146C255.013 236.46 255.476 235.936 256.073 235.572C256.671 235.209 257.368 235.027 258.165 235.027C259.431 235.027 260.427 235.502 261.153 236.451C261.886 237.395 262.252 238.684 262.252 240.318V240.793C262.252 243.283 261.76 245.103 260.775 246.251C259.791 247.394 258.306 247.979 256.319 248.009H256.003V246.638H256.346C257.688 246.614 258.719 246.266 259.439 245.592C260.16 244.912 260.553 243.84 260.617 242.375ZM258.112 242.375C258.657 242.375 259.158 242.208 259.615 241.874C260.078 241.54 260.415 241.127 260.626 240.635V239.984C260.626 238.918 260.395 238.051 259.932 237.383C259.469 236.715 258.883 236.381 258.174 236.381C257.459 236.381 256.885 236.656 256.451 237.207C256.018 237.752 255.801 238.473 255.801 239.369C255.801 240.242 256.009 240.963 256.425 241.531C256.847 242.094 257.409 242.375 258.112 242.375ZM272.755 236.117L267.455 248H265.75L271.032 236.539H264.106V235.203H272.755V236.117ZM280.981 235.194V236.574H280.683C279.417 236.598 278.409 236.973 277.659 237.699C276.909 238.426 276.476 239.448 276.358 240.767C277.032 239.993 277.952 239.606 279.118 239.606C280.231 239.606 281.119 239.999 281.781 240.784C282.449 241.569 282.783 242.583 282.783 243.825C282.783 245.144 282.423 246.198 281.702 246.989C280.987 247.78 280.026 248.176 278.819 248.176C277.595 248.176 276.602 247.707 275.84 246.77C275.078 245.826 274.697 244.613 274.697 243.131V242.507C274.697 240.151 275.198 238.353 276.2 237.11C277.208 235.862 278.705 235.224 280.691 235.194H280.981ZM278.846 240.96C278.289 240.96 277.776 241.127 277.308 241.461C276.839 241.795 276.514 242.214 276.332 242.718V243.315C276.332 244.37 276.569 245.22 277.044 245.864C277.519 246.509 278.11 246.831 278.819 246.831C279.552 246.831 280.126 246.562 280.542 246.022C280.964 245.483 281.175 244.777 281.175 243.904C281.175 243.025 280.961 242.316 280.533 241.777C280.111 241.232 279.549 240.96 278.846 240.96ZM292.97 236.117L287.67 248H285.965L291.247 236.539H284.321V235.203H292.97V236.117ZM301.047 242.375C300.707 242.779 300.3 243.104 299.825 243.351C299.356 243.597 298.841 243.72 298.278 243.72C297.54 243.72 296.896 243.538 296.345 243.175C295.8 242.812 295.378 242.302 295.079 241.646C294.78 240.983 294.631 240.254 294.631 239.457C294.631 238.602 294.792 237.831 295.114 237.146C295.442 236.46 295.905 235.936 296.503 235.572C297.101 235.209 297.798 235.027 298.595 235.027C299.86 235.027 300.856 235.502 301.583 236.451C302.315 237.395 302.682 238.684 302.682 240.318V240.793C302.682 243.283 302.189 245.103 301.205 246.251C300.221 247.394 298.735 247.979 296.749 248.009H296.433V246.638H296.775C298.117 246.614 299.148 246.266 299.869 245.592C300.59 244.912 300.982 243.84 301.047 242.375ZM298.542 242.375C299.087 242.375 299.588 242.208 300.045 241.874C300.508 241.54 300.845 241.127 301.056 240.635V239.984C301.056 238.918 300.824 238.051 300.361 237.383C299.898 236.715 299.312 236.381 298.604 236.381C297.889 236.381 297.314 236.656 296.881 237.207C296.447 237.752 296.23 238.473 296.23 239.369C296.23 240.242 296.438 240.963 296.854 241.531C297.276 242.094 297.839 242.375 298.542 242.375Z" fill="black"/>
<path d="M414.494 235.203V243.904C414.488 245.111 414.107 246.099 413.352 246.866C412.602 247.634 411.582 248.064 410.293 248.158L409.845 248.176C408.444 248.176 407.328 247.798 406.496 247.042C405.664 246.286 405.242 245.246 405.23 243.922V235.203H406.9V243.869C406.9 244.795 407.155 245.516 407.665 246.031C408.175 246.541 408.901 246.796 409.845 246.796C410.8 246.796 411.529 246.541 412.033 246.031C412.543 245.521 412.798 244.804 412.798 243.878V235.203H414.494ZM420.928 242.296C419.48 241.88 418.426 241.37 417.764 240.767C417.107 240.157 416.779 239.407 416.779 238.517C416.779 237.509 417.181 236.677 417.983 236.021C418.792 235.358 419.841 235.027 421.13 235.027C422.009 235.027 422.791 235.197 423.477 235.537C424.168 235.877 424.701 236.346 425.076 236.943C425.457 237.541 425.647 238.194 425.647 238.903H423.951C423.951 238.13 423.705 237.523 423.213 237.084C422.721 236.639 422.026 236.416 421.13 236.416C420.298 236.416 419.647 236.601 419.179 236.97C418.716 237.333 418.484 237.84 418.484 238.49C418.484 239.012 418.704 239.454 419.144 239.817C419.589 240.175 420.342 240.503 421.402 240.802C422.469 241.101 423.301 241.432 423.898 241.795C424.502 242.152 424.947 242.571 425.234 243.052C425.527 243.532 425.674 244.098 425.674 244.748C425.674 245.785 425.27 246.617 424.461 247.244C423.652 247.865 422.571 248.176 421.218 248.176C420.339 248.176 419.519 248.009 418.757 247.675C417.995 247.335 417.406 246.872 416.99 246.286C416.58 245.7 416.375 245.035 416.375 244.291H418.071C418.071 245.064 418.355 245.677 418.924 246.128C419.498 246.573 420.263 246.796 421.218 246.796C422.108 246.796 422.791 246.614 423.266 246.251C423.74 245.888 423.978 245.393 423.978 244.766C423.978 244.139 423.758 243.655 423.318 243.315C422.879 242.97 422.082 242.63 420.928 242.296Z" fill="black"/>
<path d="M589.256 242.296C587.809 241.88 586.754 241.37 586.092 240.767C585.436 240.157 585.107 239.407 585.107 238.517C585.107 237.509 585.509 236.677 586.312 236.021C587.12 235.358 588.169 235.027 589.458 235.027C590.337 235.027 591.119 235.197 591.805 235.537C592.496 235.877 593.029 236.346 593.404 236.943C593.785 237.541 593.976 238.194 593.976 238.903H592.279C592.279 238.13 592.033 237.523 591.541 237.084C591.049 236.639 590.354 236.416 589.458 236.416C588.626 236.416 587.976 236.601 587.507 236.97C587.044 237.333 586.812 237.84 586.812 238.49C586.812 239.012 587.032 239.454 587.472 239.817C587.917 240.175 588.67 240.503 589.73 240.802C590.797 241.101 591.629 241.432 592.227 241.795C592.83 242.152 593.275 242.571 593.562 243.052C593.855 243.532 594.002 244.098 594.002 244.748C594.002 245.785 593.598 246.617 592.789 247.244C591.98 247.865 590.899 248.176 589.546 248.176C588.667 248.176 587.847 248.009 587.085 247.675C586.323 247.335 585.734 246.872 585.318 246.286C584.908 245.7 584.703 245.035 584.703 244.291H586.399C586.399 245.064 586.684 245.677 587.252 246.128C587.826 246.573 588.591 246.796 589.546 246.796C590.437 246.796 591.119 246.614 591.594 246.251C592.068 245.888 592.306 245.393 592.306 244.766C592.306 244.139 592.086 243.655 591.646 243.315C591.207 242.97 590.41 242.63 589.256 242.296ZM598.124 236.188V238.49H599.899V239.747H598.124V245.645C598.124 246.025 598.203 246.312 598.361 246.506C598.52 246.693 598.789 246.787 599.17 246.787C599.357 246.787 599.615 246.752 599.943 246.682V248C599.516 248.117 599.1 248.176 598.695 248.176C597.969 248.176 597.421 247.956 597.052 247.517C596.683 247.077 596.498 246.453 596.498 245.645V239.747H594.767V238.49H596.498V236.188H598.124ZM607.678 248C607.584 247.812 607.508 247.479 607.449 246.998C606.693 247.783 605.791 248.176 604.742 248.176C603.805 248.176 603.034 247.912 602.431 247.385C601.833 246.852 601.534 246.178 601.534 245.363C601.534 244.373 601.909 243.605 602.659 243.061C603.415 242.51 604.476 242.234 605.841 242.234H607.423V241.487C607.423 240.919 607.253 240.468 606.913 240.134C606.573 239.794 606.072 239.624 605.41 239.624C604.83 239.624 604.344 239.771 603.951 240.063C603.559 240.356 603.362 240.711 603.362 241.127H601.728C601.728 240.652 601.895 240.195 602.229 239.756C602.568 239.311 603.025 238.959 603.6 238.701C604.18 238.443 604.815 238.314 605.507 238.314C606.603 238.314 607.461 238.59 608.082 239.141C608.703 239.686 609.025 240.438 609.049 241.399V245.776C609.049 246.649 609.16 247.344 609.383 247.859V248H607.678ZM604.979 246.761C605.489 246.761 605.973 246.629 606.43 246.365C606.887 246.102 607.218 245.759 607.423 245.337V243.386H606.148C604.156 243.386 603.16 243.969 603.16 245.135C603.16 245.645 603.33 246.043 603.67 246.33C604.01 246.617 604.446 246.761 604.979 246.761ZM613.804 236.188V238.49H615.579V239.747H613.804V245.645C613.804 246.025 613.883 246.312 614.041 246.506C614.199 246.693 614.469 246.787 614.85 246.787C615.037 246.787 615.295 246.752 615.623 246.682V248C615.195 248.117 614.779 248.176 614.375 248.176C613.648 248.176 613.101 247.956 612.731 247.517C612.362 247.077 612.178 246.453 612.178 245.645V239.747H610.446V238.49H612.178V236.188H613.804ZM623.357 247.06C622.725 247.804 621.796 248.176 620.571 248.176C619.558 248.176 618.784 247.883 618.251 247.297C617.724 246.705 617.457 245.832 617.451 244.678V238.49H619.077V244.634C619.077 246.075 619.663 246.796 620.835 246.796C622.077 246.796 622.903 246.333 623.313 245.407V238.49H624.939V248H623.393L623.357 247.06ZM632.955 245.478C632.955 245.038 632.788 244.698 632.454 244.458C632.126 244.212 631.549 244.001 630.723 243.825C629.902 243.649 629.249 243.438 628.763 243.192C628.282 242.946 627.925 242.653 627.69 242.313C627.462 241.974 627.348 241.569 627.348 241.101C627.348 240.321 627.676 239.662 628.332 239.123C628.994 238.584 629.838 238.314 630.863 238.314C631.941 238.314 632.814 238.593 633.482 239.149C634.156 239.706 634.493 240.418 634.493 241.285H632.858C632.858 240.84 632.668 240.456 632.287 240.134C631.912 239.812 631.438 239.65 630.863 239.65C630.271 239.65 629.809 239.779 629.475 240.037C629.141 240.295 628.974 240.632 628.974 241.048C628.974 241.44 629.129 241.736 629.439 241.936C629.75 242.135 630.31 242.325 631.118 242.507C631.933 242.688 632.592 242.905 633.096 243.157C633.6 243.409 633.972 243.714 634.212 244.071C634.458 244.423 634.581 244.854 634.581 245.363C634.581 246.213 634.241 246.896 633.562 247.411C632.882 247.921 632 248.176 630.916 248.176C630.154 248.176 629.48 248.041 628.895 247.771C628.309 247.502 627.849 247.127 627.515 246.646C627.187 246.16 627.022 245.636 627.022 245.073H628.648C628.678 245.618 628.895 246.052 629.299 246.374C629.709 246.69 630.248 246.849 630.916 246.849C631.531 246.849 632.023 246.726 632.393 246.479C632.768 246.228 632.955 245.894 632.955 245.478Z" fill="black"/>
<path d="M589.256 283.296C587.809 282.88 586.754 282.37 586.092 281.767C585.436 281.157 585.107 280.407 585.107 279.517C585.107 278.509 585.509 277.677 586.312 277.021C587.12 276.358 588.169 276.027 589.458 276.027C590.337 276.027 591.119 276.197 591.805 276.537C592.496 276.877 593.029 277.346 593.404 277.943C593.785 278.541 593.976 279.194 593.976 279.903H592.279C592.279 279.13 592.033 278.523 591.541 278.084C591.049 277.639 590.354 277.416 589.458 277.416C588.626 277.416 587.976 277.601 587.507 277.97C587.044 278.333 586.812 278.84 586.812 279.49C586.812 280.012 587.032 280.454 587.472 280.817C587.917 281.175 588.67 281.503 589.73 281.802C590.797 282.101 591.629 282.432 592.227 282.795C592.83 283.152 593.275 283.571 593.562 284.052C593.855 284.532 594.002 285.098 594.002 285.748C594.002 286.785 593.598 287.617 592.789 288.244C591.98 288.865 590.899 289.176 589.546 289.176C588.667 289.176 587.847 289.009 587.085 288.675C586.323 288.335 585.734 287.872 585.318 287.286C584.908 286.7 584.703 286.035 584.703 285.291H586.399C586.399 286.064 586.684 286.677 587.252 287.128C587.826 287.573 588.591 287.796 589.546 287.796C590.437 287.796 591.119 287.614 591.594 287.251C592.068 286.888 592.306 286.393 592.306 285.766C592.306 285.139 592.086 284.655 591.646 284.315C591.207 283.97 590.41 283.63 589.256 283.296ZM598.124 277.188V279.49H599.899V280.747H598.124V286.645C598.124 287.025 598.203 287.312 598.361 287.506C598.52 287.693 598.789 287.787 599.17 287.787C599.357 287.787 599.615 287.752 599.943 287.682V289C599.516 289.117 599.1 289.176 598.695 289.176C597.969 289.176 597.421 288.956 597.052 288.517C596.683 288.077 596.498 287.453 596.498 286.645V280.747H594.767V279.49H596.498V277.188H598.124ZM607.678 289C607.584 288.812 607.508 288.479 607.449 287.998C606.693 288.783 605.791 289.176 604.742 289.176C603.805 289.176 603.034 288.912 602.431 288.385C601.833 287.852 601.534 287.178 601.534 286.363C601.534 285.373 601.909 284.605 602.659 284.061C603.415 283.51 604.476 283.234 605.841 283.234H607.423V282.487C607.423 281.919 607.253 281.468 606.913 281.134C606.573 280.794 606.072 280.624 605.41 280.624C604.83 280.624 604.344 280.771 603.951 281.063C603.559 281.356 603.362 281.711 603.362 282.127H601.728C601.728 281.652 601.895 281.195 602.229 280.756C602.568 280.311 603.025 279.959 603.6 279.701C604.18 279.443 604.815 279.314 605.507 279.314C606.603 279.314 607.461 279.59 608.082 280.141C608.703 280.686 609.025 281.438 609.049 282.399V286.776C609.049 287.649 609.16 288.344 609.383 288.859V289H607.678ZM604.979 287.761C605.489 287.761 605.973 287.629 606.43 287.365C606.887 287.102 607.218 286.759 607.423 286.337V284.386H606.148C604.156 284.386 603.16 284.969 603.16 286.135C603.16 286.645 603.33 287.043 603.67 287.33C604.01 287.617 604.446 287.761 604.979 287.761ZM613.804 277.188V279.49H615.579V280.747H613.804V286.645C613.804 287.025 613.883 287.312 614.041 287.506C614.199 287.693 614.469 287.787 614.85 287.787C615.037 287.787 615.295 287.752 615.623 287.682V289C615.195 289.117 614.779 289.176 614.375 289.176C613.648 289.176 613.101 288.956 612.731 288.517C612.362 288.077 612.178 287.453 612.178 286.645V280.747H610.446V279.49H612.178V277.188H613.804ZM623.357 288.06C622.725 288.804 621.796 289.176 620.571 289.176C619.558 289.176 618.784 288.883 618.251 288.297C617.724 287.705 617.457 286.832 617.451 285.678V279.49H619.077V285.634C619.077 287.075 619.663 287.796 620.835 287.796C622.077 287.796 622.903 287.333 623.313 286.407V279.49H624.939V289H623.393L623.357 288.06ZM632.955 286.478C632.955 286.038 632.788 285.698 632.454 285.458C632.126 285.212 631.549 285.001 630.723 284.825C629.902 284.649 629.249 284.438 628.763 284.192C628.282 283.946 627.925 283.653 627.69 283.313C627.462 282.974 627.348 282.569 627.348 282.101C627.348 281.321 627.676 280.662 628.332 280.123C628.994 279.584 629.838 279.314 630.863 279.314C631.941 279.314 632.814 279.593 633.482 280.149C634.156 280.706 634.493 281.418 634.493 282.285H632.858C632.858 281.84 632.668 281.456 632.287 281.134C631.912 280.812 631.438 280.65 630.863 280.65C630.271 280.65 629.809 280.779 629.475 281.037C629.141 281.295 628.974 281.632 628.974 282.048C628.974 282.44 629.129 282.736 629.439 282.936C629.75 283.135 630.31 283.325 631.118 283.507C631.933 283.688 632.592 283.905 633.096 284.157C633.6 284.409 633.972 284.714 634.212 285.071C634.458 285.423 634.581 285.854 634.581 286.363C634.581 287.213 634.241 287.896 633.562 288.411C632.882 288.921 632 289.176 630.916 289.176C630.154 289.176 629.48 289.041 628.895 288.771C628.309 288.502 627.849 288.127 627.515 287.646C627.187 287.16 627.022 286.636 627.022 286.073H628.648C628.678 286.618 628.895 287.052 629.299 287.374C629.709 287.69 630.248 287.849 630.916 287.849C631.531 287.849 632.023 287.726 632.393 287.479C632.768 287.228 632.955 286.894 632.955 286.478Z" fill="black"/>
<path d="M414.494 276.203V284.904C414.488 286.111 414.107 287.099 413.352 287.866C412.602 288.634 411.582 289.064 410.293 289.158L409.845 289.176C408.444 289.176 407.328 288.798 406.496 288.042C405.664 287.286 405.242 286.246 405.23 284.922V276.203H406.9V284.869C406.9 285.795 407.155 286.516 407.665 287.031C408.175 287.541 408.901 287.796 409.845 287.796C410.8 287.796 411.529 287.541 412.033 287.031C412.543 286.521 412.798 285.804 412.798 284.878V276.203H414.494ZM420.928 283.296C419.48 282.88 418.426 282.37 417.764 281.767C417.107 281.157 416.779 280.407 416.779 279.517C416.779 278.509 417.181 277.677 417.983 277.021C418.792 276.358 419.841 276.027 421.13 276.027C422.009 276.027 422.791 276.197 423.477 276.537C424.168 276.877 424.701 277.346 425.076 277.943C425.457 278.541 425.647 279.194 425.647 279.903H423.951C423.951 279.13 423.705 278.523 423.213 278.084C422.721 277.639 422.026 277.416 421.13 277.416C420.298 277.416 419.647 277.601 419.179 277.97C418.716 278.333 418.484 278.84 418.484 279.49C418.484 280.012 418.704 280.454 419.144 280.817C419.589 281.175 420.342 281.503 421.402 281.802C422.469 282.101 423.301 282.432 423.898 282.795C424.502 283.152 424.947 283.571 425.234 284.052C425.527 284.532 425.674 285.098 425.674 285.748C425.674 286.785 425.27 287.617 424.461 288.244C423.652 288.865 422.571 289.176 421.218 289.176C420.339 289.176 419.519 289.009 418.757 288.675C417.995 288.335 417.406 287.872 416.99 287.286C416.58 286.7 416.375 286.035 416.375 285.291H418.071C418.071 286.064 418.355 286.677 418.924 287.128C419.498 287.573 420.263 287.796 421.218 287.796C422.108 287.796 422.791 287.614 423.266 287.251C423.74 286.888 423.978 286.393 423.978 285.766C423.978 285.139 423.758 284.655 423.318 284.315C422.879 283.97 422.082 283.63 420.928 283.296Z" fill="black"/>
<path d="M230.295 283.375C229.955 283.779 229.548 284.104 229.073 284.351C228.604 284.597 228.089 284.72 227.526 284.72C226.788 284.72 226.144 284.538 225.593 284.175C225.048 283.812 224.626 283.302 224.327 282.646C224.028 281.983 223.879 281.254 223.879 280.457C223.879 279.602 224.04 278.831 224.362 278.146C224.69 277.46 225.153 276.936 225.751 276.572C226.349 276.209 227.046 276.027 227.843 276.027C229.108 276.027 230.104 276.502 230.831 277.451C231.563 278.395 231.93 279.684 231.93 281.318V281.793C231.93 284.283 231.438 286.103 230.453 287.251C229.469 288.394 227.983 288.979 225.997 289.009H225.681V287.638H226.023C227.365 287.614 228.396 287.266 229.117 286.592C229.838 285.912 230.23 284.84 230.295 283.375ZM227.79 283.375C228.335 283.375 228.836 283.208 229.293 282.874C229.756 282.54 230.093 282.127 230.304 281.635V280.984C230.304 279.918 230.072 279.051 229.609 278.383C229.146 277.715 228.561 277.381 227.852 277.381C227.137 277.381 226.562 277.656 226.129 278.207C225.695 278.752 225.479 279.473 225.479 280.369C225.479 281.242 225.687 281.963 226.103 282.531C226.524 283.094 227.087 283.375 227.79 283.375ZM241.932 279.543C241.932 280.182 241.762 280.75 241.422 281.248C241.088 281.746 240.634 282.136 240.06 282.417C240.728 282.704 241.255 283.123 241.642 283.674C242.034 284.225 242.23 284.849 242.23 285.546C242.23 286.653 241.855 287.535 241.105 288.191C240.361 288.848 239.38 289.176 238.161 289.176C236.931 289.176 235.943 288.848 235.199 288.191C234.461 287.529 234.092 286.647 234.092 285.546C234.092 284.854 234.279 284.23 234.654 283.674C235.035 283.117 235.56 282.695 236.228 282.408C235.659 282.127 235.211 281.737 234.883 281.239C234.555 280.741 234.391 280.176 234.391 279.543C234.391 278.465 234.736 277.609 235.428 276.977C236.119 276.344 237.03 276.027 238.161 276.027C239.286 276.027 240.194 276.344 240.886 276.977C241.583 277.609 241.932 278.465 241.932 279.543ZM240.604 285.511C240.604 284.796 240.376 284.213 239.919 283.762C239.468 283.311 238.876 283.085 238.144 283.085C237.411 283.085 236.822 283.308 236.377 283.753C235.938 284.198 235.718 284.784 235.718 285.511C235.718 286.237 235.932 286.809 236.359 287.225C236.793 287.641 237.394 287.849 238.161 287.849C238.923 287.849 239.521 287.641 239.954 287.225C240.388 286.803 240.604 286.231 240.604 285.511ZM238.161 277.363C237.522 277.363 237.004 277.562 236.605 277.961C236.213 278.354 236.017 278.89 236.017 279.569C236.017 280.22 236.21 280.747 236.597 281.151C236.989 281.55 237.511 281.749 238.161 281.749C238.812 281.749 239.33 281.55 239.717 281.151C240.109 280.747 240.306 280.22 240.306 279.569C240.306 278.919 240.104 278.389 239.699 277.979C239.295 277.568 238.782 277.363 238.161 277.363ZM252.54 277.117L247.24 289H245.535L250.817 277.539H243.892V276.203H252.54V277.117ZM260.767 276.194V277.574H260.468C259.202 277.598 258.194 277.973 257.444 278.699C256.694 279.426 256.261 280.448 256.144 281.767C256.817 280.993 257.737 280.606 258.903 280.606C260.017 280.606 260.904 280.999 261.566 281.784C262.234 282.569 262.568 283.583 262.568 284.825C262.568 286.144 262.208 287.198 261.487 287.989C260.772 288.78 259.812 289.176 258.604 289.176C257.38 289.176 256.387 288.707 255.625 287.77C254.863 286.826 254.482 285.613 254.482 284.131V283.507C254.482 281.151 254.983 279.353 255.985 278.11C256.993 276.862 258.49 276.224 260.477 276.194H260.767ZM258.631 281.96C258.074 281.96 257.562 282.127 257.093 282.461C256.624 282.795 256.299 283.214 256.117 283.718V284.315C256.117 285.37 256.354 286.22 256.829 286.864C257.304 287.509 257.896 287.831 258.604 287.831C259.337 287.831 259.911 287.562 260.327 287.022C260.749 286.483 260.96 285.777 260.96 284.904C260.96 284.025 260.746 283.316 260.318 282.777C259.896 282.232 259.334 281.96 258.631 281.96ZM272.755 277.117L267.455 289H265.75L271.032 277.539H264.106V276.203H272.755V277.117ZM280.832 283.375C280.492 283.779 280.085 284.104 279.61 284.351C279.142 284.597 278.626 284.72 278.063 284.72C277.325 284.72 276.681 284.538 276.13 284.175C275.585 283.812 275.163 283.302 274.864 282.646C274.565 281.983 274.416 281.254 274.416 280.457C274.416 279.602 274.577 278.831 274.899 278.146C275.228 277.46 275.69 276.936 276.288 276.572C276.886 276.209 277.583 276.027 278.38 276.027C279.646 276.027 280.642 276.502 281.368 277.451C282.101 278.395 282.467 279.684 282.467 281.318V281.793C282.467 284.283 281.975 286.103 280.99 287.251C280.006 288.394 278.521 288.979 276.534 289.009H276.218V287.638H276.561C277.902 287.614 278.934 287.266 279.654 286.592C280.375 285.912 280.768 284.84 280.832 283.375ZM278.327 283.375C278.872 283.375 279.373 283.208 279.83 282.874C280.293 282.54 280.63 282.127 280.841 281.635V280.984C280.841 279.918 280.609 279.051 280.146 278.383C279.684 277.715 279.098 277.381 278.389 277.381C277.674 277.381 277.1 277.656 276.666 278.207C276.232 278.752 276.016 279.473 276.016 280.369C276.016 281.242 276.224 281.963 276.64 282.531C277.062 283.094 277.624 283.375 278.327 283.375ZM287.072 281.811H288.294C289.062 281.799 289.665 281.597 290.104 281.204C290.544 280.812 290.764 280.281 290.764 279.613C290.764 278.113 290.017 277.363 288.522 277.363C287.819 277.363 287.257 277.565 286.835 277.97C286.419 278.368 286.211 278.898 286.211 279.561H284.585C284.585 278.547 284.954 277.706 285.692 277.038C286.437 276.364 287.38 276.027 288.522 276.027C289.729 276.027 290.676 276.347 291.361 276.985C292.047 277.624 292.39 278.512 292.39 279.648C292.39 280.205 292.208 280.744 291.845 281.266C291.487 281.787 290.998 282.177 290.377 282.435C291.08 282.657 291.622 283.026 292.003 283.542C292.39 284.058 292.583 284.688 292.583 285.432C292.583 286.58 292.208 287.491 291.458 288.165C290.708 288.839 289.732 289.176 288.531 289.176C287.33 289.176 286.352 288.851 285.596 288.2C284.846 287.55 284.471 286.691 284.471 285.625H286.105C286.105 286.299 286.325 286.838 286.765 287.242C287.204 287.646 287.793 287.849 288.531 287.849C289.316 287.849 289.917 287.644 290.333 287.233C290.749 286.823 290.957 286.234 290.957 285.467C290.957 284.723 290.729 284.151 290.271 283.753C289.814 283.354 289.155 283.149 288.294 283.138H287.072V281.811ZM301.68 284.702H303.455V286.029H301.68V289H300.045V286.029H294.218V285.071L299.948 276.203H301.68V284.702ZM296.063 284.702H300.045V278.427L299.852 278.778L296.063 284.702Z" fill="black"/>
</svg>
