<svg width="960" height="160" viewBox="0 0 960 160" fill="none" xmlns="http://www.w3.org/2000/svg">
<rect width="960" height="160" fill="#F7F7F9"/>
<rect x="16" y="39" width="150" height="36" fill="white"/>
<path d="M47.7979 58.8418C47.6748 59.8945 47.2852 60.708 46.6289 61.2822C45.9772 61.8519 45.109 62.1367 44.0244 62.1367C42.8486 62.1367 41.9053 61.7152 41.1943 60.8721C40.488 60.029 40.1348 58.901 40.1348 57.4883V56.5312C40.1348 55.6061 40.2988 54.7926 40.627 54.0908C40.9596 53.389 41.429 52.8512 42.0352 52.4775C42.6413 52.0993 43.3431 51.9102 44.1406 51.9102C45.1979 51.9102 46.0456 52.2064 46.6836 52.7988C47.3216 53.3867 47.693 54.2025 47.7979 55.2461H46.4785C46.3646 54.4531 46.1162 53.8789 45.7334 53.5234C45.3551 53.168 44.8242 52.9902 44.1406 52.9902C43.3021 52.9902 42.6436 53.3001 42.165 53.9199C41.6911 54.5397 41.4541 55.4215 41.4541 56.5654V57.5293C41.4541 58.6094 41.6797 59.4684 42.1309 60.1064C42.582 60.7445 43.2132 61.0635 44.0244 61.0635C44.7536 61.0635 45.3118 60.8994 45.6992 60.5713C46.0911 60.2386 46.3509 59.6621 46.4785 58.8418H47.7979ZM50.7715 62H49.5068V51.5H50.7715V62ZM54.1758 62H52.9111V54.6035H54.1758V62ZM52.8086 52.6416C52.8086 52.4365 52.8701 52.2633 52.9932 52.1221C53.1208 51.9808 53.3076 51.9102 53.5537 51.9102C53.7998 51.9102 53.9867 51.9808 54.1143 52.1221C54.2419 52.2633 54.3057 52.4365 54.3057 52.6416C54.3057 52.8467 54.2419 53.0176 54.1143 53.1543C53.9867 53.291 53.7998 53.3594 53.5537 53.3594C53.3076 53.3594 53.1208 53.291 52.9932 53.1543C52.8701 53.0176 52.8086 52.8467 52.8086 52.6416ZM59.2754 62.1367C58.2728 62.1367 57.457 61.8086 56.8281 61.1523C56.1992 60.4915 55.8848 59.6097 55.8848 58.5068V58.2744C55.8848 57.5407 56.0238 56.8867 56.3018 56.3125C56.5843 55.7337 56.9762 55.2826 57.4775 54.959C57.9834 54.6309 58.5303 54.4668 59.1182 54.4668C60.0798 54.4668 60.8271 54.7835 61.3604 55.417C61.8936 56.0505 62.1602 56.9574 62.1602 58.1377V58.6641H57.1494C57.1676 59.3932 57.3796 59.9834 57.7852 60.4346C58.1953 60.8812 58.7148 61.1045 59.3438 61.1045C59.7904 61.1045 60.1686 61.0133 60.4785 60.8311C60.7884 60.6488 61.0596 60.4072 61.292 60.1064L62.0645 60.708C61.4447 61.6605 60.515 62.1367 59.2754 62.1367ZM59.1182 55.5059C58.6077 55.5059 58.1794 55.6927 57.833 56.0664C57.4867 56.4355 57.2725 56.9551 57.1904 57.625H60.8955V57.5293C60.859 56.8867 60.6859 56.39 60.376 56.0391C60.0661 55.6836 59.6468 55.5059 59.1182 55.5059ZM64.8262 54.6035L64.8672 55.5332C65.4323 54.8223 66.1706 54.4668 67.082 54.4668C68.6452 54.4668 69.4336 55.3486 69.4473 57.1123V62H68.1826V57.1055C68.1781 56.5723 68.055 56.1781 67.8135 55.9229C67.5765 55.6676 67.2051 55.54 66.6992 55.54C66.2891 55.54 65.929 55.6494 65.6191 55.8682C65.3092 56.0869 65.0677 56.374 64.8945 56.7295V62H63.6299V54.6035H64.8262ZM73.0703 52.8125V54.6035H74.4512V55.5811H73.0703V60.168C73.0703 60.4642 73.1318 60.6875 73.2549 60.8379C73.3779 60.9837 73.5876 61.0566 73.8838 61.0566C74.0296 61.0566 74.2301 61.0293 74.4854 60.9746V62C74.1527 62.0911 73.8291 62.1367 73.5146 62.1367C72.9495 62.1367 72.5234 61.9658 72.2363 61.624C71.9492 61.2822 71.8057 60.7969 71.8057 60.168V55.5811H70.459V54.6035H71.8057V52.8125H73.0703ZM82.5381 57.5635C81.4124 57.2399 80.5921 56.8434 80.0771 56.374C79.5667 55.9001 79.3115 55.3167 79.3115 54.624C79.3115 53.8402 79.6237 53.193 80.248 52.6826C80.877 52.1676 81.6927 51.9102 82.6953 51.9102C83.3789 51.9102 83.9873 52.0423 84.5205 52.3066C85.0583 52.571 85.473 52.9355 85.7646 53.4004C86.0609 53.8652 86.209 54.3734 86.209 54.9248H84.8896C84.8896 54.3232 84.6982 53.8516 84.3154 53.5098C83.9326 53.1634 83.3926 52.9902 82.6953 52.9902C82.0482 52.9902 81.5423 53.1338 81.1777 53.4209C80.8177 53.7035 80.6377 54.0977 80.6377 54.6035C80.6377 55.0091 80.8086 55.3532 81.1504 55.6357C81.4967 55.9137 82.0824 56.1689 82.9072 56.4014C83.7367 56.6338 84.3838 56.8913 84.8486 57.1738C85.318 57.4518 85.6644 57.7777 85.8877 58.1514C86.1156 58.5251 86.2295 58.9648 86.2295 59.4707C86.2295 60.2773 85.915 60.9245 85.2861 61.4121C84.6572 61.8952 83.8164 62.1367 82.7637 62.1367C82.0801 62.1367 81.4421 62.0068 80.8496 61.7471C80.2572 61.4827 79.7992 61.1227 79.4756 60.667C79.1566 60.2113 78.9971 59.694 78.9971 59.1152H80.3164C80.3164 59.7168 80.5374 60.193 80.9795 60.5439C81.4261 60.8903 82.0208 61.0635 82.7637 61.0635C83.4564 61.0635 83.9873 60.9222 84.3564 60.6396C84.7256 60.3571 84.9102 59.972 84.9102 59.4844C84.9102 58.9967 84.7393 58.6208 84.3975 58.3564C84.0557 58.0876 83.4359 57.8232 82.5381 57.5635ZM89.0938 62H87.8291V54.6035H89.0938V62ZM87.7266 52.6416C87.7266 52.4365 87.7881 52.2633 87.9111 52.1221C88.0387 51.9808 88.2256 51.9102 88.4717 51.9102C88.7178 51.9102 88.9046 51.9808 89.0322 52.1221C89.1598 52.2633 89.2236 52.4365 89.2236 52.6416C89.2236 52.8467 89.1598 53.0176 89.0322 53.1543C88.9046 53.291 88.7178 53.3594 88.4717 53.3594C88.2256 53.3594 88.0387 53.291 87.9111 53.1543C87.7881 53.0176 87.7266 52.8467 87.7266 52.6416ZM90.8164 58.2402C90.8164 57.1055 91.0853 56.194 91.623 55.5059C92.1608 54.8132 92.8649 54.4668 93.7354 54.4668C94.6012 54.4668 95.2871 54.763 95.793 55.3555V51.5H97.0576V62H95.8955L95.834 61.207C95.3281 61.8268 94.624 62.1367 93.7217 62.1367C92.8649 62.1367 92.1654 61.7858 91.623 61.084C91.0853 60.3822 90.8164 59.4661 90.8164 58.3359V58.2402ZM92.0811 58.3838C92.0811 59.2223 92.2542 59.8786 92.6006 60.3525C92.9469 60.8265 93.4255 61.0635 94.0361 61.0635C94.8382 61.0635 95.4238 60.7035 95.793 59.9834V56.5859C95.4147 55.8887 94.8337 55.54 94.0498 55.54C93.43 55.54 92.9469 55.7793 92.6006 56.2578C92.2542 56.7363 92.0811 57.445 92.0811 58.3838ZM102.096 62.1367C101.093 62.1367 100.277 61.8086 99.6484 61.1523C99.0195 60.4915 98.7051 59.6097 98.7051 58.5068V58.2744C98.7051 57.5407 98.8441 56.8867 99.1221 56.3125C99.4046 55.7337 99.7965 55.2826 100.298 54.959C100.804 54.6309 101.351 54.4668 101.938 54.4668C102.9 54.4668 103.647 54.7835 104.181 55.417C104.714 56.0505 104.98 56.9574 104.98 58.1377V58.6641H99.9697C99.988 59.3932 100.2 59.9834 100.605 60.4346C101.016 60.8812 101.535 61.1045 102.164 61.1045C102.611 61.1045 102.989 61.0133 103.299 60.8311C103.609 60.6488 103.88 60.4072 104.112 60.1064L104.885 60.708C104.265 61.6605 103.335 62.1367 102.096 62.1367ZM101.938 55.5059C101.428 55.5059 101 55.6927 100.653 56.0664C100.307 56.4355 100.093 56.9551 100.011 57.625H103.716V57.5293C103.679 56.8867 103.506 56.39 103.196 56.0391C102.886 55.6836 102.467 55.5059 101.938 55.5059ZM116.725 53.127H113.525V62H112.22V53.127H109.027V52.0469H116.725V53.127ZM120.389 62.1367C119.386 62.1367 118.57 61.8086 117.941 61.1523C117.312 60.4915 116.998 59.6097 116.998 58.5068V58.2744C116.998 57.5407 117.137 56.8867 117.415 56.3125C117.698 55.7337 118.09 55.2826 118.591 54.959C119.097 54.6309 119.644 54.4668 120.231 54.4668C121.193 54.4668 121.94 54.7835 122.474 55.417C123.007 56.0505 123.273 56.9574 123.273 58.1377V58.6641H118.263C118.281 59.3932 118.493 59.9834 118.898 60.4346C119.309 60.8812 119.828 61.1045 120.457 61.1045C120.904 61.1045 121.282 61.0133 121.592 60.8311C121.902 60.6488 122.173 60.4072 122.405 60.1064L123.178 60.708C122.558 61.6605 121.628 62.1367 120.389 62.1367ZM120.231 55.5059C119.721 55.5059 119.293 55.6927 118.946 56.0664C118.6 56.4355 118.386 56.9551 118.304 57.625H122.009V57.5293C121.972 56.8867 121.799 56.39 121.489 56.0391C121.179 55.6836 120.76 55.5059 120.231 55.5059ZM129.31 62C129.237 61.8542 129.177 61.5944 129.132 61.2207C128.544 61.8314 127.842 62.1367 127.026 62.1367C126.297 62.1367 125.698 61.9316 125.229 61.5215C124.764 61.1068 124.531 60.5827 124.531 59.9492C124.531 59.179 124.823 58.582 125.406 58.1582C125.994 57.7298 126.819 57.5156 127.881 57.5156H129.111V56.9346C129.111 56.4925 128.979 56.1416 128.715 55.8818C128.451 55.6175 128.061 55.4854 127.546 55.4854C127.095 55.4854 126.716 55.5993 126.411 55.8271C126.106 56.055 125.953 56.3307 125.953 56.6543H124.682C124.682 56.2852 124.812 55.9297 125.071 55.5879C125.336 55.2415 125.691 54.9681 126.138 54.7676C126.589 54.5671 127.083 54.4668 127.621 54.4668C128.473 54.4668 129.141 54.681 129.624 55.1094C130.107 55.5332 130.358 56.1188 130.376 56.8662V60.2705C130.376 60.9495 130.463 61.4896 130.636 61.8906V62H129.31ZM127.211 61.0361C127.607 61.0361 127.983 60.9336 128.339 60.7285C128.694 60.5234 128.952 60.2568 129.111 59.9287V58.4111H128.12C126.571 58.4111 125.796 58.8646 125.796 59.7715C125.796 60.168 125.928 60.4779 126.192 60.7012C126.457 60.9245 126.796 61.0361 127.211 61.0361ZM133.548 54.6035L133.582 55.4238C134.124 54.7858 134.856 54.4668 135.776 54.4668C136.811 54.4668 137.515 54.8633 137.889 55.6562C138.135 55.3008 138.454 55.0137 138.846 54.7949C139.242 54.5762 139.709 54.4668 140.247 54.4668C141.869 54.4668 142.694 55.3258 142.722 57.0439V62H141.457V57.1191C141.457 56.5905 141.336 56.1963 141.095 55.9365C140.853 55.6722 140.448 55.54 139.878 55.54C139.409 55.54 139.019 55.6813 138.709 55.9639C138.399 56.2419 138.219 56.6178 138.169 57.0918V62H136.897V57.1533C136.897 56.0778 136.371 55.54 135.318 55.54C134.489 55.54 133.922 55.8932 133.616 56.5996V62H132.352V54.6035H133.548Z" fill="#FF0000"/>
<rect x="16" y="85" width="150" height="36" fill="white"/>
<path d="M37.0781 105.402H32.9082L31.9717 108H30.6182L34.4189 98.0469H35.5674L39.375 108H38.0283L37.0781 105.402ZM33.3047 104.322H36.6885L34.9932 99.667L33.3047 104.322ZM42.1094 98.8125V100.604H43.4902V101.581H42.1094V106.168C42.1094 106.464 42.1709 106.688 42.2939 106.838C42.417 106.984 42.6266 107.057 42.9229 107.057C43.0687 107.057 43.2692 107.029 43.5244 106.975V108C43.1917 108.091 42.8682 108.137 42.5537 108.137C41.9886 108.137 41.5625 107.966 41.2754 107.624C40.9883 107.282 40.8447 106.797 40.8447 106.168V101.581H39.498V100.604H40.8447V98.8125H42.1094ZM46.6895 98.8125V100.604H48.0703V101.581H46.6895V106.168C46.6895 106.464 46.751 106.688 46.874 106.838C46.9971 106.984 47.2067 107.057 47.5029 107.057C47.6488 107.057 47.8493 107.029 48.1045 106.975V108C47.7718 108.091 47.4482 108.137 47.1338 108.137C46.5687 108.137 46.1426 107.966 45.8555 107.624C45.5684 107.282 45.4248 106.797 45.4248 106.168V101.581H44.0781V100.604H45.4248V98.8125H46.6895ZM49.082 104.233C49.082 103.509 49.2233 102.857 49.5059 102.278C49.793 101.7 50.1895 101.253 50.6953 100.938C51.2057 100.624 51.7868 100.467 52.4385 100.467C53.4456 100.467 54.2591 100.815 54.8789 101.513C55.5033 102.21 55.8154 103.137 55.8154 104.295V104.384C55.8154 105.104 55.6764 105.751 55.3984 106.325C55.125 106.895 54.7308 107.339 54.2158 107.658C53.7054 107.977 53.1175 108.137 52.4521 108.137C51.4495 108.137 50.6361 107.788 50.0117 107.091C49.3919 106.394 49.082 105.471 49.082 104.322V104.233ZM50.3535 104.384C50.3535 105.204 50.5426 105.863 50.9209 106.359C51.3037 106.856 51.8141 107.104 52.4521 107.104C53.0947 107.104 53.6051 106.854 53.9834 106.353C54.3617 105.847 54.5508 105.14 54.5508 104.233C54.5508 103.422 54.3571 102.766 53.9697 102.265C53.5869 101.759 53.0765 101.506 52.4385 101.506C51.8141 101.506 51.3105 101.754 50.9277 102.251C50.5449 102.748 50.3535 103.459 50.3535 104.384ZM60.9766 101.738C60.7852 101.706 60.5778 101.69 60.3545 101.69C59.5251 101.69 58.9622 102.044 58.666 102.75V108H57.4014V100.604H58.6318L58.6523 101.458C59.0671 100.797 59.6549 100.467 60.416 100.467C60.6621 100.467 60.849 100.499 60.9766 100.562V101.738ZM63.3418 100.604L63.3828 101.533C63.9479 100.822 64.6862 100.467 65.5977 100.467C67.1608 100.467 67.9492 101.349 67.9629 103.112V108H66.6982V103.105C66.6937 102.572 66.5706 102.178 66.3291 101.923C66.0921 101.668 65.7207 101.54 65.2148 101.54C64.8047 101.54 64.4447 101.649 64.1348 101.868C63.8249 102.087 63.5833 102.374 63.4102 102.729V108H62.1455V100.604H63.3418ZM72.9395 108.137C71.9368 108.137 71.1211 107.809 70.4922 107.152C69.8633 106.492 69.5488 105.61 69.5488 104.507V104.274C69.5488 103.541 69.6878 102.887 69.9658 102.312C70.2484 101.734 70.6403 101.283 71.1416 100.959C71.6475 100.631 72.1943 100.467 72.7822 100.467C73.7438 100.467 74.4912 100.784 75.0244 101.417C75.5576 102.05 75.8242 102.957 75.8242 104.138V104.664H70.8135C70.8317 105.393 71.0436 105.983 71.4492 106.435C71.8594 106.881 72.3789 107.104 73.0078 107.104C73.4544 107.104 73.8327 107.013 74.1426 106.831C74.4525 106.649 74.7236 106.407 74.9561 106.106L75.7285 106.708C75.1087 107.66 74.179 108.137 72.9395 108.137ZM72.7822 101.506C72.2718 101.506 71.8434 101.693 71.4971 102.066C71.1507 102.436 70.9365 102.955 70.8545 103.625H74.5596V103.529C74.5231 102.887 74.3499 102.39 74.04 102.039C73.7301 101.684 73.3109 101.506 72.7822 101.506ZM79.6182 106.147L81.3408 100.604H82.6943L79.7207 109.142C79.2604 110.372 78.529 110.987 77.5264 110.987L77.2871 110.967L76.8154 110.878V109.853L77.1572 109.88C77.5856 109.88 77.9183 109.793 78.1553 109.62C78.3968 109.447 78.5951 109.13 78.75 108.67L79.0303 107.918L76.3916 100.604H77.7725L79.6182 106.147ZM90.4326 103.563C89.307 103.24 88.4867 102.843 87.9717 102.374C87.4613 101.9 87.2061 101.317 87.2061 100.624C87.2061 99.8402 87.5182 99.193 88.1426 98.6826C88.7715 98.1676 89.5872 97.9102 90.5898 97.9102C91.2734 97.9102 91.8818 98.0423 92.415 98.3066C92.9528 98.571 93.3675 98.9355 93.6592 99.4004C93.9554 99.8652 94.1035 100.373 94.1035 100.925H92.7842C92.7842 100.323 92.5928 99.8516 92.21 99.5098C91.8271 99.1634 91.2871 98.9902 90.5898 98.9902C89.9427 98.9902 89.4368 99.1338 89.0723 99.4209C88.7122 99.7035 88.5322 100.098 88.5322 100.604C88.5322 101.009 88.7031 101.353 89.0449 101.636C89.3913 101.914 89.9769 102.169 90.8018 102.401C91.6312 102.634 92.2783 102.891 92.7432 103.174C93.2126 103.452 93.5589 103.778 93.7822 104.151C94.0101 104.525 94.124 104.965 94.124 105.471C94.124 106.277 93.8096 106.924 93.1807 107.412C92.5518 107.895 91.7109 108.137 90.6582 108.137C89.9746 108.137 89.3366 108.007 88.7441 107.747C88.1517 107.483 87.6937 107.123 87.3701 106.667C87.0511 106.211 86.8916 105.694 86.8916 105.115H88.2109C88.2109 105.717 88.432 106.193 88.874 106.544C89.3206 106.89 89.9154 107.063 90.6582 107.063C91.3509 107.063 91.8818 106.922 92.251 106.64C92.6201 106.357 92.8047 105.972 92.8047 105.484C92.8047 104.997 92.6338 104.621 92.292 104.356C91.9502 104.088 91.3304 103.823 90.4326 103.563ZM96.9883 108H95.7236V100.604H96.9883V108ZM95.6211 98.6416C95.6211 98.4365 95.6826 98.2633 95.8057 98.1221C95.9333 97.9808 96.1201 97.9102 96.3662 97.9102C96.6123 97.9102 96.7992 97.9808 96.9268 98.1221C97.0544 98.2633 97.1182 98.4365 97.1182 98.6416C97.1182 98.8467 97.0544 99.0176 96.9268 99.1543C96.7992 99.291 96.6123 99.3594 96.3662 99.3594C96.1201 99.3594 95.9333 99.291 95.8057 99.1543C95.6826 99.0176 95.6211 98.8467 95.6211 98.6416ZM98.7109 104.24C98.7109 103.105 98.9798 102.194 99.5176 101.506C100.055 100.813 100.759 100.467 101.63 100.467C102.496 100.467 103.182 100.763 103.688 101.355V97.5H104.952V108H103.79L103.729 107.207C103.223 107.827 102.519 108.137 101.616 108.137C100.759 108.137 100.06 107.786 99.5176 107.084C98.9798 106.382 98.7109 105.466 98.7109 104.336V104.24ZM99.9756 104.384C99.9756 105.222 100.149 105.879 100.495 106.353C100.841 106.826 101.32 107.063 101.931 107.063C102.733 107.063 103.318 106.703 103.688 105.983V102.586C103.309 101.889 102.728 101.54 101.944 101.54C101.325 101.54 100.841 101.779 100.495 102.258C100.149 102.736 99.9756 103.445 99.9756 104.384ZM109.99 108.137C108.988 108.137 108.172 107.809 107.543 107.152C106.914 106.492 106.6 105.61 106.6 104.507V104.274C106.6 103.541 106.739 102.887 107.017 102.312C107.299 101.734 107.691 101.283 108.192 100.959C108.698 100.631 109.245 100.467 109.833 100.467C110.795 100.467 111.542 100.784 112.075 101.417C112.608 102.05 112.875 102.957 112.875 104.138V104.664H107.864C107.882 105.393 108.094 105.983 108.5 106.435C108.91 106.881 109.43 107.104 110.059 107.104C110.505 107.104 110.883 107.013 111.193 106.831C111.503 106.649 111.774 106.407 112.007 106.106L112.779 106.708C112.16 107.66 111.23 108.137 109.99 108.137ZM109.833 101.506C109.323 101.506 108.894 101.693 108.548 102.066C108.201 102.436 107.987 102.955 107.905 103.625H111.61V103.529C111.574 102.887 111.401 102.39 111.091 102.039C110.781 101.684 110.362 101.506 109.833 101.506ZM124.619 99.127H121.42V108H120.114V99.127H116.922V98.0469H124.619V99.127ZM128.283 108.137C127.281 108.137 126.465 107.809 125.836 107.152C125.207 106.492 124.893 105.61 124.893 104.507V104.274C124.893 103.541 125.032 102.887 125.31 102.312C125.592 101.734 125.984 101.283 126.485 100.959C126.991 100.631 127.538 100.467 128.126 100.467C129.088 100.467 129.835 100.784 130.368 101.417C130.901 102.05 131.168 102.957 131.168 104.138V104.664H126.157C126.175 105.393 126.387 105.983 126.793 106.435C127.203 106.881 127.723 107.104 128.352 107.104C128.798 107.104 129.176 107.013 129.486 106.831C129.796 106.649 130.067 106.407 130.3 106.106L131.072 106.708C130.452 107.66 129.523 108.137 128.283 108.137ZM128.126 101.506C127.616 101.506 127.187 101.693 126.841 102.066C126.494 102.436 126.28 102.955 126.198 103.625H129.903V103.529C129.867 102.887 129.694 102.39 129.384 102.039C129.074 101.684 128.655 101.506 128.126 101.506ZM137.204 108C137.131 107.854 137.072 107.594 137.026 107.221C136.438 107.831 135.737 108.137 134.921 108.137C134.192 108.137 133.592 107.932 133.123 107.521C132.658 107.107 132.426 106.583 132.426 105.949C132.426 105.179 132.717 104.582 133.301 104.158C133.889 103.73 134.714 103.516 135.775 103.516H137.006V102.935C137.006 102.493 136.874 102.142 136.609 101.882C136.345 101.618 135.955 101.485 135.44 101.485C134.989 101.485 134.611 101.599 134.306 101.827C134 102.055 133.848 102.331 133.848 102.654H132.576C132.576 102.285 132.706 101.93 132.966 101.588C133.23 101.242 133.586 100.968 134.032 100.768C134.483 100.567 134.978 100.467 135.516 100.467C136.368 100.467 137.035 100.681 137.519 101.109C138.002 101.533 138.252 102.119 138.271 102.866V106.271C138.271 106.95 138.357 107.49 138.53 107.891V108H137.204ZM135.105 107.036C135.502 107.036 135.878 106.934 136.233 106.729C136.589 106.523 136.846 106.257 137.006 105.929V104.411H136.015C134.465 104.411 133.69 104.865 133.69 105.771C133.69 106.168 133.823 106.478 134.087 106.701C134.351 106.924 134.691 107.036 135.105 107.036ZM141.442 100.604L141.477 101.424C142.019 100.786 142.75 100.467 143.671 100.467C144.705 100.467 145.41 100.863 145.783 101.656C146.029 101.301 146.348 101.014 146.74 100.795C147.137 100.576 147.604 100.467 148.142 100.467C149.764 100.467 150.589 101.326 150.616 103.044V108H149.352V103.119C149.352 102.59 149.231 102.196 148.989 101.937C148.748 101.672 148.342 101.54 147.772 101.54C147.303 101.54 146.913 101.681 146.604 101.964C146.294 102.242 146.114 102.618 146.063 103.092V108H144.792V103.153C144.792 102.078 144.266 101.54 143.213 101.54C142.383 101.54 141.816 101.893 141.511 102.6V108H140.246V100.604H141.442Z" fill="black"/>
<rect x="210.5" y="31" width="150" height="36" fill="white"/>
<path d="M230.847 50.1035V54H229.534V44.0469H233.205C234.294 44.0469 235.146 44.3249 235.762 44.8809C236.382 45.4368 236.691 46.1729 236.691 47.0889C236.691 48.055 236.388 48.8001 235.782 49.3242C235.181 49.8438 234.317 50.1035 233.191 50.1035H230.847ZM230.847 49.0303H233.205C233.907 49.0303 234.445 48.8662 234.818 48.5381C235.192 48.2054 235.379 47.7269 235.379 47.1025C235.379 46.5101 235.192 46.0361 234.818 45.6807C234.445 45.3252 233.932 45.1406 233.28 45.127H230.847V49.0303ZM237.737 50.2334C237.737 49.5088 237.879 48.8571 238.161 48.2783C238.448 47.6995 238.845 47.2529 239.351 46.9385C239.861 46.624 240.442 46.4668 241.094 46.4668C242.101 46.4668 242.914 46.8154 243.534 47.5127C244.159 48.21 244.471 49.1374 244.471 50.2949V50.3838C244.471 51.1038 244.332 51.751 244.054 52.3252C243.78 52.8949 243.386 53.3392 242.871 53.6582C242.361 53.9772 241.773 54.1367 241.107 54.1367C240.105 54.1367 239.291 53.7881 238.667 53.0908C238.047 52.3936 237.737 51.4707 237.737 50.3223V50.2334ZM239.009 50.3838C239.009 51.2041 239.198 51.8626 239.576 52.3594C239.959 52.8561 240.469 53.1045 241.107 53.1045C241.75 53.1045 242.26 52.8538 242.639 52.3525C243.017 51.8467 243.206 51.1403 243.206 50.2334C243.206 49.4222 243.012 48.766 242.625 48.2646C242.242 47.7588 241.732 47.5059 241.094 47.5059C240.469 47.5059 239.966 47.7542 239.583 48.251C239.2 48.7477 239.009 49.4587 239.009 50.3838ZM249.632 47.7383C249.44 47.7064 249.233 47.6904 249.01 47.6904C248.18 47.6904 247.618 48.0436 247.321 48.75V54H246.057V46.6035H247.287L247.308 47.458C247.722 46.7972 248.31 46.4668 249.071 46.4668C249.317 46.4668 249.504 46.4987 249.632 46.5625V47.7383ZM252.858 44.8125V46.6035H254.239V47.5811H252.858V52.168C252.858 52.4642 252.92 52.6875 253.043 52.8379C253.166 52.9837 253.376 53.0566 253.672 53.0566C253.818 53.0566 254.018 53.0293 254.273 52.9746V54C253.941 54.0911 253.617 54.1367 253.303 54.1367C252.738 54.1367 252.312 53.9658 252.024 53.624C251.737 53.2822 251.594 52.7969 251.594 52.168V47.5811H250.247V46.6035H251.594V44.8125H252.858ZM256.345 54V47.5811H255.176V46.6035H256.345V45.8447C256.345 45.0518 256.557 44.4388 256.98 44.0059C257.404 43.5729 258.004 43.3564 258.778 43.3564C259.07 43.3564 259.359 43.3952 259.646 43.4727L259.578 44.498C259.364 44.457 259.136 44.4365 258.895 44.4365C258.484 44.4365 258.168 44.5573 257.944 44.7988C257.721 45.0358 257.609 45.3776 257.609 45.8242V46.6035H259.188V47.5811H257.609V54H256.345ZM260.255 50.2334C260.255 49.5088 260.396 48.8571 260.679 48.2783C260.966 47.6995 261.362 47.2529 261.868 46.9385C262.379 46.624 262.96 46.4668 263.611 46.4668C264.618 46.4668 265.432 46.8154 266.052 47.5127C266.676 48.21 266.988 49.1374 266.988 50.2949V50.3838C266.988 51.1038 266.849 51.751 266.571 52.3252C266.298 52.8949 265.904 53.3392 265.389 53.6582C264.878 53.9772 264.29 54.1367 263.625 54.1367C262.622 54.1367 261.809 53.7881 261.185 53.0908C260.565 52.3936 260.255 51.4707 260.255 50.3223V50.2334ZM261.526 50.3838C261.526 51.2041 261.715 51.8626 262.094 52.3594C262.477 52.8561 262.987 53.1045 263.625 53.1045C264.268 53.1045 264.778 52.8538 265.156 52.3525C265.535 51.8467 265.724 51.1403 265.724 50.2334C265.724 49.4222 265.53 48.766 265.143 48.2646C264.76 47.7588 264.249 47.5059 263.611 47.5059C262.987 47.5059 262.483 47.7542 262.101 48.251C261.718 48.7477 261.526 49.4587 261.526 50.3838ZM269.948 54H268.684V43.5H269.948V54ZM273.353 54H272.088V46.6035H273.353V54ZM271.985 44.6416C271.985 44.4365 272.047 44.2633 272.17 44.1221C272.298 43.9808 272.484 43.9102 272.73 43.9102C272.977 43.9102 273.163 43.9808 273.291 44.1221C273.419 44.2633 273.482 44.4365 273.482 44.6416C273.482 44.8467 273.419 45.0176 273.291 45.1543C273.163 45.291 272.977 45.3594 272.73 45.3594C272.484 45.3594 272.298 45.291 272.17 45.1543C272.047 45.0176 271.985 44.8467 271.985 44.6416ZM275.048 50.2334C275.048 49.5088 275.189 48.8571 275.472 48.2783C275.759 47.6995 276.155 47.2529 276.661 46.9385C277.172 46.624 277.753 46.4668 278.404 46.4668C279.411 46.4668 280.225 46.8154 280.845 47.5127C281.469 48.21 281.781 49.1374 281.781 50.2949V50.3838C281.781 51.1038 281.642 51.751 281.364 52.3252C281.091 52.8949 280.697 53.3392 280.182 53.6582C279.671 53.9772 279.083 54.1367 278.418 54.1367C277.415 54.1367 276.602 53.7881 275.978 53.0908C275.358 52.3936 275.048 51.4707 275.048 50.3223V50.2334ZM276.319 50.3838C276.319 51.2041 276.508 51.8626 276.887 52.3594C277.27 52.8561 277.78 53.1045 278.418 53.1045C279.061 53.1045 279.571 52.8538 279.949 52.3525C280.327 51.8467 280.517 51.1403 280.517 50.2334C280.517 49.4222 280.323 48.766 279.936 48.2646C279.553 47.7588 279.042 47.5059 278.404 47.5059C277.78 47.5059 277.276 47.7542 276.894 48.251C276.511 48.7477 276.319 49.4587 276.319 50.3838ZM294.694 49.3447C294.694 50.32 294.53 51.1722 294.202 51.9014C293.874 52.626 293.409 53.1797 292.808 53.5625C292.206 53.9453 291.504 54.1367 290.702 54.1367C289.918 54.1367 289.223 53.9453 288.617 53.5625C288.011 53.1751 287.539 52.626 287.202 51.915C286.869 51.1995 286.699 50.3724 286.689 49.4336V48.7158C286.689 47.7588 286.856 46.9134 287.188 46.1797C287.521 45.446 287.991 44.8854 288.597 44.498C289.207 44.1061 289.905 43.9102 290.688 43.9102C291.486 43.9102 292.188 44.1038 292.794 44.4912C293.405 44.874 293.874 45.4323 294.202 46.166C294.53 46.8952 294.694 47.7451 294.694 48.7158V49.3447ZM293.389 48.7021C293.389 47.5218 293.152 46.6172 292.678 45.9883C292.204 45.3548 291.541 45.0381 290.688 45.0381C289.859 45.0381 289.205 45.3548 288.727 45.9883C288.253 46.6172 288.009 47.4922 287.995 48.6133V49.3447C287.995 50.4886 288.234 51.3887 288.713 52.0449C289.196 52.6966 289.859 53.0225 290.702 53.0225C291.55 53.0225 292.206 52.7148 292.671 52.0996C293.136 51.4798 293.375 50.5934 293.389 49.4404V48.7021ZM298.905 52.2842L300.737 46.6035H302.029L299.377 54H298.413L295.733 46.6035H297.025L298.905 52.2842ZM306.22 54.1367C305.217 54.1367 304.401 53.8086 303.772 53.1523C303.144 52.4915 302.829 51.6097 302.829 50.5068V50.2744C302.829 49.5407 302.968 48.8867 303.246 48.3125C303.529 47.7337 303.921 47.2826 304.422 46.959C304.928 46.6309 305.475 46.4668 306.062 46.4668C307.024 46.4668 307.771 46.7835 308.305 47.417C308.838 48.0505 309.104 48.9574 309.104 50.1377V50.6641H304.094C304.112 51.3932 304.324 51.9834 304.729 52.4346C305.14 52.8812 305.659 53.1045 306.288 53.1045C306.735 53.1045 307.113 53.0133 307.423 52.8311C307.733 52.6488 308.004 52.4072 308.236 52.1064L309.009 52.708C308.389 53.6605 307.459 54.1367 306.22 54.1367ZM306.062 47.5059C305.552 47.5059 305.124 47.6927 304.777 48.0664C304.431 48.4355 304.217 48.9551 304.135 49.625H307.84V49.5293C307.803 48.8867 307.63 48.39 307.32 48.0391C307.01 47.6836 306.591 47.5059 306.062 47.5059ZM314.149 47.7383C313.958 47.7064 313.751 47.6904 313.527 47.6904C312.698 47.6904 312.135 48.0436 311.839 48.75V54H310.574V46.6035H311.805L311.825 47.458C312.24 46.7972 312.828 46.4668 313.589 46.4668C313.835 46.4668 314.022 46.4987 314.149 46.5625V47.7383ZM317.882 52.2842L319.714 46.6035H321.006L318.354 54H317.39L314.71 46.6035H316.002L317.882 52.2842ZM323.597 54H322.332V46.6035H323.597V54ZM322.229 44.6416C322.229 44.4365 322.291 44.2633 322.414 44.1221C322.542 43.9808 322.729 43.9102 322.975 43.9102C323.221 43.9102 323.408 43.9808 323.535 44.1221C323.663 44.2633 323.727 44.4365 323.727 44.6416C323.727 44.8467 323.663 45.0176 323.535 45.1543C323.408 45.291 323.221 45.3594 322.975 45.3594C322.729 45.3594 322.542 45.291 322.414 45.1543C322.291 45.0176 322.229 44.8467 322.229 44.6416ZM328.696 54.1367C327.694 54.1367 326.878 53.8086 326.249 53.1523C325.62 52.4915 325.306 51.6097 325.306 50.5068V50.2744C325.306 49.5407 325.445 48.8867 325.723 48.3125C326.005 47.7337 326.397 47.2826 326.898 46.959C327.404 46.6309 327.951 46.4668 328.539 46.4668C329.501 46.4668 330.248 46.7835 330.781 47.417C331.314 48.0505 331.581 48.9574 331.581 50.1377V50.6641H326.57C326.589 51.3932 326.8 51.9834 327.206 52.4346C327.616 52.8812 328.136 53.1045 328.765 53.1045C329.211 53.1045 329.59 53.0133 329.899 52.8311C330.209 52.6488 330.48 52.4072 330.713 52.1064L331.485 52.708C330.866 53.6605 329.936 54.1367 328.696 54.1367ZM328.539 47.5059C328.029 47.5059 327.6 47.6927 327.254 48.0664C326.908 48.4355 326.693 48.9551 326.611 49.625H330.316V49.5293C330.28 48.8867 330.107 48.39 329.797 48.0391C329.487 47.6836 329.068 47.5059 328.539 47.5059ZM339.6 52.2568L341.021 46.6035H342.286L340.133 54H339.107L337.31 48.3945L335.56 54H334.534L332.388 46.6035H333.646L335.102 52.1406L336.824 46.6035H337.843L339.6 52.2568Z" fill="black"/>
<rect x="210.5" y="77" width="150" height="52" fill="white"/>
<path d="M223.293 99.4443V89.4912H226.103C226.968 89.4912 227.734 89.6826 228.399 90.0654C229.065 90.4482 229.577 90.9928 229.938 91.6992C230.302 92.4056 230.487 93.2168 230.491 94.1328V94.7686C230.491 95.7074 230.309 96.5299 229.944 97.2363C229.584 97.9427 229.067 98.485 228.393 98.8633C227.723 99.2415 226.941 99.4352 226.048 99.4443H223.293ZM224.605 90.5713V98.3711H225.986C226.998 98.3711 227.784 98.0566 228.345 97.4277C228.91 96.7988 229.192 95.9033 229.192 94.7412V94.1602C229.192 93.0299 228.926 92.1527 228.393 91.5283C227.864 90.8994 227.112 90.5804 226.137 90.5713H224.605ZM235.352 99.5811C234.349 99.5811 233.533 99.2529 232.904 98.5967C232.275 97.9359 231.961 97.054 231.961 95.9512V95.7188C231.961 94.985 232.1 94.3311 232.378 93.7568C232.66 93.1781 233.052 92.7269 233.554 92.4033C234.06 92.0752 234.606 91.9111 235.194 91.9111C236.156 91.9111 236.903 92.2279 237.437 92.8613C237.97 93.4948 238.236 94.4017 238.236 95.582V96.1084H233.226C233.244 96.8376 233.456 97.4277 233.861 97.8789C234.271 98.3255 234.791 98.5488 235.42 98.5488C235.867 98.5488 236.245 98.4577 236.555 98.2754C236.865 98.0931 237.136 97.8516 237.368 97.5508L238.141 98.1523C237.521 99.1048 236.591 99.5811 235.352 99.5811ZM235.194 92.9502C234.684 92.9502 234.256 93.137 233.909 93.5107C233.563 93.8799 233.349 94.3994 233.267 95.0693H236.972V94.9736C236.935 94.3311 236.762 93.8343 236.452 93.4834C236.142 93.1279 235.723 92.9502 235.194 92.9502ZM241.422 90.2568V92.0479H242.803V93.0254H241.422V97.6123C241.422 97.9085 241.483 98.1318 241.606 98.2822C241.729 98.4281 241.939 98.501 242.235 98.501C242.381 98.501 242.582 98.4736 242.837 98.4189V99.4443C242.504 99.5355 242.181 99.5811 241.866 99.5811C241.301 99.5811 240.875 99.4102 240.588 99.0684C240.301 98.7266 240.157 98.2412 240.157 97.6123V93.0254H238.811V92.0479H240.157V90.2568H241.422ZM248.853 99.4443C248.78 99.2985 248.72 99.0387 248.675 98.665C248.087 99.2757 247.385 99.5811 246.569 99.5811C245.84 99.5811 245.241 99.376 244.771 98.9658C244.307 98.5511 244.074 98.027 244.074 97.3936C244.074 96.6234 244.366 96.0264 244.949 95.6025C245.537 95.1742 246.362 94.96 247.424 94.96H248.654V94.3789C248.654 93.9368 248.522 93.5859 248.258 93.3262C247.993 93.0618 247.604 92.9297 247.089 92.9297C246.638 92.9297 246.259 93.0436 245.954 93.2715C245.649 93.4993 245.496 93.7751 245.496 94.0986H244.225C244.225 93.7295 244.354 93.374 244.614 93.0322C244.879 92.6859 245.234 92.4124 245.681 92.2119C246.132 92.0114 246.626 91.9111 247.164 91.9111C248.016 91.9111 248.684 92.1253 249.167 92.5537C249.65 92.9775 249.901 93.5632 249.919 94.3105V97.7148C249.919 98.3939 250.006 98.9339 250.179 99.335V99.4443H248.853ZM246.754 98.4805C247.15 98.4805 247.526 98.3779 247.882 98.1729C248.237 97.9678 248.495 97.7012 248.654 97.373V95.8555H247.663C246.114 95.8555 245.339 96.3089 245.339 97.2158C245.339 97.6123 245.471 97.9222 245.735 98.1455C246 98.3688 246.339 98.4805 246.754 98.4805ZM253.275 99.4443H252.011V92.0479H253.275V99.4443ZM251.908 90.0859C251.908 89.8809 251.97 89.7077 252.093 89.5664C252.22 89.4251 252.407 89.3545 252.653 89.3545C252.899 89.3545 253.086 89.4251 253.214 89.5664C253.341 89.7077 253.405 89.8809 253.405 90.0859C253.405 90.291 253.341 90.4619 253.214 90.5986C253.086 90.7354 252.899 90.8037 252.653 90.8037C252.407 90.8037 252.22 90.7354 252.093 90.5986C251.97 90.4619 251.908 90.291 251.908 90.0859ZM256.68 99.4443H255.415V88.9443H256.68V99.4443ZM261.779 99.5811C260.777 99.5811 259.961 99.2529 259.332 98.5967C258.703 97.9359 258.389 97.054 258.389 95.9512V95.7188C258.389 94.985 258.528 94.3311 258.806 93.7568C259.088 93.1781 259.48 92.7269 259.981 92.4033C260.487 92.0752 261.034 91.9111 261.622 91.9111C262.584 91.9111 263.331 92.2279 263.864 92.8613C264.397 93.4948 264.664 94.4017 264.664 95.582V96.1084H259.653C259.672 96.8376 259.883 97.4277 260.289 97.8789C260.699 98.3255 261.219 98.5488 261.848 98.5488C262.294 98.5488 262.673 98.4577 262.982 98.2754C263.292 98.0931 263.563 97.8516 263.796 97.5508L264.568 98.1523C263.949 99.1048 263.019 99.5811 261.779 99.5811ZM261.622 92.9502C261.112 92.9502 260.683 93.137 260.337 93.5107C259.991 93.8799 259.776 94.3994 259.694 95.0693H263.399V94.9736C263.363 94.3311 263.19 93.8343 262.88 93.4834C262.57 93.1279 262.151 92.9502 261.622 92.9502ZM265.826 95.6846C265.826 94.5498 266.095 93.6383 266.633 92.9502C267.171 92.2575 267.875 91.9111 268.745 91.9111C269.611 91.9111 270.297 92.2074 270.803 92.7998V88.9443H272.067V99.4443H270.905L270.844 98.6514C270.338 99.2712 269.634 99.5811 268.731 99.5811C267.875 99.5811 267.175 99.2301 266.633 98.5283C266.095 97.8265 265.826 96.9105 265.826 95.7803V95.6846ZM267.091 95.8281C267.091 96.6667 267.264 97.3229 267.61 97.7969C267.957 98.2708 268.435 98.5078 269.046 98.5078C269.848 98.5078 270.434 98.1478 270.803 97.4277V94.0303C270.424 93.333 269.843 92.9844 269.06 92.9844C268.44 92.9844 267.957 93.2236 267.61 93.7021C267.264 94.1807 267.091 94.8893 267.091 95.8281ZM278.883 99.4443H277.618V92.0479H278.883V99.4443ZM277.516 90.0859C277.516 89.8809 277.577 89.7077 277.7 89.5664C277.828 89.4251 278.015 89.3545 278.261 89.3545C278.507 89.3545 278.694 89.4251 278.821 89.5664C278.949 89.7077 279.013 89.8809 279.013 90.0859C279.013 90.291 278.949 90.4619 278.821 90.5986C278.694 90.7354 278.507 90.8037 278.261 90.8037C278.015 90.8037 277.828 90.7354 277.7 90.5986C277.577 90.4619 277.516 90.291 277.516 90.0859ZM282.109 92.0479L282.15 92.9775C282.715 92.2666 283.454 91.9111 284.365 91.9111C285.928 91.9111 286.717 92.793 286.73 94.5566V99.4443H285.466V94.5498C285.461 94.0166 285.338 93.6224 285.097 93.3672C284.86 93.112 284.488 92.9844 283.982 92.9844C283.572 92.9844 283.212 93.0938 282.902 93.3125C282.592 93.5312 282.351 93.8184 282.178 94.1738V99.4443H280.913V92.0479H282.109ZM289.26 99.4443V93.0254H288.091V92.0479H289.26V91.2891C289.26 90.4961 289.472 89.8831 289.896 89.4502C290.319 89.0173 290.919 88.8008 291.693 88.8008C291.985 88.8008 292.274 88.8395 292.562 88.917L292.493 89.9424C292.279 89.9014 292.051 89.8809 291.81 89.8809C291.399 89.8809 291.083 90.0016 290.859 90.2432C290.636 90.4801 290.524 90.8219 290.524 91.2686V92.0479H292.104V93.0254H290.524V99.4443H289.26ZM293.17 95.6777C293.17 94.9531 293.311 94.3014 293.594 93.7227C293.881 93.1439 294.277 92.6973 294.783 92.3828C295.294 92.0684 295.875 91.9111 296.526 91.9111C297.534 91.9111 298.347 92.2598 298.967 92.957C299.591 93.6543 299.903 94.5817 299.903 95.7393V95.8281C299.903 96.5482 299.764 97.1953 299.486 97.7695C299.213 98.3392 298.819 98.7835 298.304 99.1025C297.793 99.4215 297.205 99.5811 296.54 99.5811C295.537 99.5811 294.724 99.2324 294.1 98.5352C293.48 97.8379 293.17 96.915 293.17 95.7666V95.6777ZM294.441 95.8281C294.441 96.6484 294.631 97.307 295.009 97.8037C295.392 98.3005 295.902 98.5488 296.54 98.5488C297.183 98.5488 297.693 98.2982 298.071 97.7969C298.45 97.291 298.639 96.5846 298.639 95.6777C298.639 94.8665 298.445 94.2103 298.058 93.709C297.675 93.2031 297.164 92.9502 296.526 92.9502C295.902 92.9502 295.398 93.1986 295.016 93.6953C294.633 94.1921 294.441 94.903 294.441 95.8281ZM305.064 93.1826C304.873 93.1507 304.666 93.1348 304.442 93.1348C303.613 93.1348 303.05 93.488 302.754 94.1943V99.4443H301.489V92.0479H302.72L302.74 92.9023C303.155 92.2415 303.743 91.9111 304.504 91.9111C304.75 91.9111 304.937 91.943 305.064 92.0068V93.1826ZM307.423 92.0479L307.457 92.8682C307.999 92.2301 308.731 91.9111 309.651 91.9111C310.686 91.9111 311.39 92.3076 311.764 93.1006C312.01 92.7451 312.329 92.458 312.721 92.2393C313.117 92.0205 313.584 91.9111 314.122 91.9111C315.744 91.9111 316.569 92.7702 316.597 94.4883V99.4443H315.332V94.5635C315.332 94.0348 315.211 93.6406 314.97 93.3809C314.728 93.1165 314.323 92.9844 313.753 92.9844C313.284 92.9844 312.894 93.1257 312.584 93.4082C312.274 93.6862 312.094 94.0622 312.044 94.5361V99.4443H310.772V94.5977C310.772 93.5221 310.246 92.9844 309.193 92.9844C308.364 92.9844 307.797 93.3376 307.491 94.0439V99.4443H306.227V92.0479H307.423ZM323.077 99.4443C323.004 99.2985 322.945 99.0387 322.899 98.665C322.312 99.2757 321.61 99.5811 320.794 99.5811C320.065 99.5811 319.465 99.376 318.996 98.9658C318.531 98.5511 318.299 98.027 318.299 97.3936C318.299 96.6234 318.59 96.0264 319.174 95.6025C319.762 95.1742 320.587 94.96 321.648 94.96H322.879V94.3789C322.879 93.9368 322.747 93.5859 322.482 93.3262C322.218 93.0618 321.828 92.9297 321.313 92.9297C320.862 92.9297 320.484 93.0436 320.179 93.2715C319.873 93.4993 319.721 93.7751 319.721 94.0986H318.449C318.449 93.7295 318.579 93.374 318.839 93.0322C319.103 92.6859 319.459 92.4124 319.905 92.2119C320.356 92.0114 320.851 91.9111 321.389 91.9111C322.241 91.9111 322.909 92.1253 323.392 92.5537C323.875 92.9775 324.125 93.5632 324.144 94.3105V97.7148C324.144 98.3939 324.23 98.9339 324.403 99.335V99.4443H323.077ZM320.979 98.4805C321.375 98.4805 321.751 98.3779 322.106 98.1729C322.462 97.9678 322.719 97.7012 322.879 97.373V95.8555H321.888C320.338 95.8555 319.563 96.3089 319.563 97.2158C319.563 97.6123 319.696 97.9222 319.96 98.1455C320.224 98.3688 320.564 98.4805 320.979 98.4805ZM327.842 90.2568V92.0479H329.223V93.0254H327.842V97.6123C327.842 97.9085 327.903 98.1318 328.026 98.2822C328.149 98.4281 328.359 98.501 328.655 98.501C328.801 98.501 329.002 98.4736 329.257 98.4189V99.4443C328.924 99.5355 328.601 99.5811 328.286 99.5811C327.721 99.5811 327.295 99.4102 327.008 99.0684C326.721 98.7266 326.577 98.2412 326.577 97.6123V93.0254H325.23V92.0479H326.577V90.2568H327.842ZM332.08 99.4443H330.815V92.0479H332.08V99.4443ZM330.713 90.0859C330.713 89.8809 330.774 89.7077 330.897 89.5664C331.025 89.4251 331.212 89.3545 331.458 89.3545C331.704 89.3545 331.891 89.4251 332.019 89.5664C332.146 89.7077 332.21 89.8809 332.21 90.0859C332.21 90.291 332.146 90.4619 332.019 90.5986C331.891 90.7354 331.704 90.8037 331.458 90.8037C331.212 90.8037 331.025 90.7354 330.897 90.5986C330.774 90.4619 330.713 90.291 330.713 90.0859ZM333.775 95.6777C333.775 94.9531 333.917 94.3014 334.199 93.7227C334.486 93.1439 334.883 92.6973 335.389 92.3828C335.899 92.0684 336.48 91.9111 337.132 91.9111C338.139 91.9111 338.952 92.2598 339.572 92.957C340.197 93.6543 340.509 94.5817 340.509 95.7393V95.8281C340.509 96.5482 340.37 97.1953 340.092 97.7695C339.818 98.3392 339.424 98.7835 338.909 99.1025C338.399 99.4215 337.811 99.5811 337.146 99.5811C336.143 99.5811 335.329 99.2324 334.705 98.5352C334.085 97.8379 333.775 96.915 333.775 95.7666V95.6777ZM335.047 95.8281C335.047 96.6484 335.236 97.307 335.614 97.8037C335.997 98.3005 336.507 98.5488 337.146 98.5488C337.788 98.5488 338.299 98.2982 338.677 97.7969C339.055 97.291 339.244 96.5846 339.244 95.6777C339.244 94.8665 339.05 94.2103 338.663 93.709C338.28 93.2031 337.77 92.9502 337.132 92.9502C336.507 92.9502 336.004 93.1986 335.621 93.6953C335.238 94.1921 335.047 94.903 335.047 95.8281ZM343.291 92.0479L343.332 92.9775C343.897 92.2666 344.635 91.9111 345.547 91.9111C347.11 91.9111 347.898 92.793 347.912 94.5566V99.4443H346.647V94.5498C346.643 94.0166 346.52 93.6224 346.278 93.3672C346.041 93.112 345.67 92.9844 345.164 92.9844C344.754 92.9844 344.394 93.0938 344.084 93.3125C343.774 93.5312 343.533 93.8184 343.359 94.1738V99.4443H342.095V92.0479H343.291ZM244.977 115.444V109.025H243.808V108.048H244.977V107.289C244.977 106.496 245.188 105.883 245.612 105.45C246.036 105.017 246.635 104.801 247.41 104.801C247.702 104.801 247.991 104.84 248.278 104.917L248.21 105.942C247.996 105.901 247.768 105.881 247.526 105.881C247.116 105.881 246.799 106.002 246.576 106.243C246.353 106.48 246.241 106.822 246.241 107.269V108.048H247.82V109.025H246.241V115.444H244.977ZM248.887 111.678C248.887 110.953 249.028 110.301 249.311 109.723C249.598 109.144 249.994 108.697 250.5 108.383C251.01 108.068 251.591 107.911 252.243 107.911C253.25 107.911 254.064 108.26 254.684 108.957C255.308 109.654 255.62 110.582 255.62 111.739V111.828C255.62 112.548 255.481 113.195 255.203 113.77C254.93 114.339 254.535 114.784 254.021 115.103C253.51 115.422 252.922 115.581 252.257 115.581C251.254 115.581 250.441 115.232 249.816 114.535C249.197 113.838 248.887 112.915 248.887 111.767V111.678ZM250.158 111.828C250.158 112.648 250.347 113.307 250.726 113.804C251.108 114.3 251.619 114.549 252.257 114.549C252.899 114.549 253.41 114.298 253.788 113.797C254.166 113.291 254.355 112.585 254.355 111.678C254.355 110.867 254.162 110.21 253.774 109.709C253.392 109.203 252.881 108.95 252.243 108.95C251.619 108.95 251.115 109.199 250.732 109.695C250.35 110.192 250.158 110.903 250.158 111.828ZM260.781 109.183C260.59 109.151 260.382 109.135 260.159 109.135C259.33 109.135 258.767 109.488 258.471 110.194V115.444H257.206V108.048H258.437L258.457 108.902C258.872 108.242 259.46 107.911 260.221 107.911C260.467 107.911 260.654 107.943 260.781 108.007V109.183ZM268.492 115.581C267.49 115.581 266.674 115.253 266.045 114.597C265.416 113.936 265.102 113.054 265.102 111.951V111.719C265.102 110.985 265.241 110.331 265.519 109.757C265.801 109.178 266.193 108.727 266.694 108.403C267.2 108.075 267.747 107.911 268.335 107.911C269.297 107.911 270.044 108.228 270.577 108.861C271.11 109.495 271.377 110.402 271.377 111.582V112.108H266.366C266.384 112.838 266.596 113.428 267.002 113.879C267.412 114.326 267.932 114.549 268.561 114.549C269.007 114.549 269.385 114.458 269.695 114.275C270.005 114.093 270.276 113.852 270.509 113.551L271.281 114.152C270.661 115.105 269.732 115.581 268.492 115.581ZM268.335 108.95C267.825 108.95 267.396 109.137 267.05 109.511C266.703 109.88 266.489 110.399 266.407 111.069H270.112V110.974C270.076 110.331 269.903 109.834 269.593 109.483C269.283 109.128 268.864 108.95 268.335 108.95ZM277.413 115.444C277.34 115.299 277.281 115.039 277.235 114.665C276.647 115.276 275.946 115.581 275.13 115.581C274.401 115.581 273.801 115.376 273.332 114.966C272.867 114.551 272.635 114.027 272.635 113.394C272.635 112.623 272.926 112.026 273.51 111.603C274.098 111.174 274.923 110.96 275.984 110.96H277.215V110.379C277.215 109.937 277.083 109.586 276.818 109.326C276.554 109.062 276.164 108.93 275.649 108.93C275.198 108.93 274.82 109.044 274.515 109.271C274.209 109.499 274.057 109.775 274.057 110.099H272.785C272.785 109.729 272.915 109.374 273.175 109.032C273.439 108.686 273.795 108.412 274.241 108.212C274.692 108.011 275.187 107.911 275.725 107.911C276.577 107.911 277.244 108.125 277.728 108.554C278.211 108.978 278.461 109.563 278.479 110.311V113.715C278.479 114.394 278.566 114.934 278.739 115.335V115.444H277.413ZM275.314 114.48C275.711 114.48 276.087 114.378 276.442 114.173C276.798 113.968 277.055 113.701 277.215 113.373V111.855H276.224C274.674 111.855 273.899 112.309 273.899 113.216C273.899 113.612 274.032 113.922 274.296 114.146C274.56 114.369 274.9 114.48 275.314 114.48ZM283.429 114.549C283.88 114.549 284.274 114.412 284.611 114.139C284.949 113.865 285.135 113.523 285.172 113.113H286.368C286.345 113.537 286.2 113.94 285.931 114.323C285.662 114.706 285.302 115.011 284.851 115.239C284.404 115.467 283.93 115.581 283.429 115.581C282.422 115.581 281.619 115.246 281.022 114.576C280.43 113.902 280.134 112.981 280.134 111.814V111.603C280.134 110.882 280.266 110.242 280.53 109.682C280.795 109.121 281.173 108.686 281.665 108.376C282.162 108.066 282.747 107.911 283.422 107.911C284.251 107.911 284.939 108.16 285.486 108.656C286.038 109.153 286.332 109.798 286.368 110.591H285.172C285.135 110.112 284.953 109.72 284.625 109.415C284.301 109.105 283.9 108.95 283.422 108.95C282.779 108.95 282.28 109.183 281.925 109.647C281.574 110.108 281.398 110.775 281.398 111.65V111.89C281.398 112.742 281.574 113.398 281.925 113.858C282.276 114.319 282.777 114.549 283.429 114.549ZM289.055 108.943C289.615 108.255 290.344 107.911 291.242 107.911C292.805 107.911 293.594 108.793 293.607 110.557V115.444H292.343V110.55C292.338 110.017 292.215 109.622 291.974 109.367C291.737 109.112 291.365 108.984 290.859 108.984C290.449 108.984 290.089 109.094 289.779 109.312C289.469 109.531 289.228 109.818 289.055 110.174V115.444H287.79V104.944H289.055V108.943ZM301.94 114.549C302.392 114.549 302.786 114.412 303.123 114.139C303.46 113.865 303.647 113.523 303.684 113.113H304.88C304.857 113.537 304.711 113.94 304.442 114.323C304.174 114.706 303.813 115.011 303.362 115.239C302.916 115.467 302.442 115.581 301.94 115.581C300.933 115.581 300.131 115.246 299.534 114.576C298.942 113.902 298.646 112.981 298.646 111.814V111.603C298.646 110.882 298.778 110.242 299.042 109.682C299.306 109.121 299.685 108.686 300.177 108.376C300.674 108.066 301.259 107.911 301.934 107.911C302.763 107.911 303.451 108.16 303.998 108.656C304.549 109.153 304.843 109.798 304.88 110.591H303.684C303.647 110.112 303.465 109.72 303.137 109.415C302.813 109.105 302.412 108.95 301.934 108.95C301.291 108.95 300.792 109.183 300.437 109.647C300.086 110.108 299.91 110.775 299.91 111.65V111.89C299.91 112.742 300.086 113.398 300.437 113.858C300.787 114.319 301.289 114.549 301.94 114.549ZM310.868 115.444C310.795 115.299 310.736 115.039 310.69 114.665C310.103 115.276 309.401 115.581 308.585 115.581C307.856 115.581 307.257 115.376 306.787 114.966C306.322 114.551 306.09 114.027 306.09 113.394C306.09 112.623 306.382 112.026 306.965 111.603C307.553 111.174 308.378 110.96 309.439 110.96H310.67V110.379C310.67 109.937 310.538 109.586 310.273 109.326C310.009 109.062 309.619 108.93 309.104 108.93C308.653 108.93 308.275 109.044 307.97 109.271C307.664 109.499 307.512 109.775 307.512 110.099H306.24C306.24 109.729 306.37 109.374 306.63 109.032C306.894 108.686 307.25 108.412 307.696 108.212C308.147 108.011 308.642 107.911 309.18 107.911C310.032 107.911 310.7 108.125 311.183 108.554C311.666 108.978 311.916 109.563 311.935 110.311V113.715C311.935 114.394 312.021 114.934 312.194 115.335V115.444H310.868ZM308.77 114.48C309.166 114.48 309.542 114.378 309.897 114.173C310.253 113.968 310.51 113.701 310.67 113.373V111.855H309.679C308.129 111.855 307.354 112.309 307.354 113.216C307.354 113.612 307.487 113.922 307.751 114.146C308.015 114.369 308.355 114.48 308.77 114.48ZM318.224 113.482C318.224 113.141 318.094 112.876 317.834 112.689C317.579 112.498 317.13 112.334 316.487 112.197C315.849 112.061 315.341 111.896 314.963 111.705C314.589 111.514 314.311 111.286 314.129 111.021C313.951 110.757 313.862 110.443 313.862 110.078C313.862 109.472 314.118 108.959 314.628 108.54C315.143 108.121 315.799 107.911 316.597 107.911C317.435 107.911 318.114 108.128 318.634 108.561C319.158 108.993 319.42 109.547 319.42 110.222H318.148C318.148 109.875 318 109.577 317.704 109.326C317.412 109.076 317.043 108.95 316.597 108.95C316.136 108.95 315.776 109.05 315.517 109.251C315.257 109.451 315.127 109.714 315.127 110.037C315.127 110.342 315.248 110.573 315.489 110.728C315.731 110.882 316.166 111.031 316.795 111.172C317.428 111.313 317.941 111.482 318.333 111.678C318.725 111.874 319.014 112.111 319.201 112.389C319.393 112.662 319.488 112.997 319.488 113.394C319.488 114.054 319.224 114.585 318.695 114.986C318.167 115.383 317.481 115.581 316.638 115.581C316.045 115.581 315.521 115.476 315.065 115.267C314.61 115.057 314.252 114.765 313.992 114.392C313.737 114.013 313.609 113.605 313.609 113.168H314.874C314.897 113.592 315.065 113.929 315.38 114.18C315.699 114.426 316.118 114.549 316.638 114.549C317.116 114.549 317.499 114.453 317.786 114.262C318.078 114.066 318.224 113.806 318.224 113.482ZM324.205 115.581C323.202 115.581 322.387 115.253 321.758 114.597C321.129 113.936 320.814 113.054 320.814 111.951V111.719C320.814 110.985 320.953 110.331 321.231 109.757C321.514 109.178 321.906 108.727 322.407 108.403C322.913 108.075 323.46 107.911 324.048 107.911C325.009 107.911 325.757 108.228 326.29 108.861C326.823 109.495 327.09 110.402 327.09 111.582V112.108H322.079C322.097 112.838 322.309 113.428 322.715 113.879C323.125 114.326 323.645 114.549 324.273 114.549C324.72 114.549 325.098 114.458 325.408 114.275C325.718 114.093 325.989 113.852 326.222 113.551L326.994 114.152C326.374 115.105 325.445 115.581 324.205 115.581ZM324.048 108.95C323.537 108.95 323.109 109.137 322.763 109.511C322.416 109.88 322.202 110.399 322.12 111.069H325.825V110.974C325.789 110.331 325.616 109.834 325.306 109.483C324.996 109.128 324.576 108.95 324.048 108.95Z" fill="black"/>
<rect x="405" y="85" width="150" height="36" fill="white"/>
<path d="M441.623 103.604H437.446V108H436.134V98.0469H442.3V99.127H437.446V102.531H441.623V103.604ZM443.188 104.233C443.188 103.509 443.33 102.857 443.612 102.278C443.899 101.7 444.296 101.253 444.802 100.938C445.312 100.624 445.893 100.467 446.545 100.467C447.552 100.467 448.366 100.815 448.985 101.513C449.61 102.21 449.922 103.137 449.922 104.295V104.384C449.922 105.104 449.783 105.751 449.505 106.325C449.231 106.895 448.837 107.339 448.322 107.658C447.812 107.977 447.224 108.137 446.559 108.137C445.556 108.137 444.743 107.788 444.118 107.091C443.498 106.394 443.188 105.471 443.188 104.322V104.233ZM444.46 104.384C444.46 105.204 444.649 105.863 445.027 106.359C445.41 106.856 445.921 107.104 446.559 107.104C447.201 107.104 447.712 106.854 448.09 106.353C448.468 105.847 448.657 105.14 448.657 104.233C448.657 103.422 448.464 102.766 448.076 102.265C447.693 101.759 447.183 101.506 446.545 101.506C445.921 101.506 445.417 101.754 445.034 102.251C444.651 102.748 444.46 103.459 444.46 104.384ZM455.083 101.738C454.892 101.706 454.684 101.69 454.461 101.69C453.632 101.69 453.069 102.044 452.772 102.75V108H451.508V100.604H452.738L452.759 101.458C453.174 100.797 453.761 100.467 454.522 100.467C454.769 100.467 454.955 100.499 455.083 100.562V101.738ZM457.441 100.604L457.476 101.424C458.018 100.786 458.749 100.467 459.67 100.467C460.704 100.467 461.409 100.863 461.782 101.656C462.028 101.301 462.347 101.014 462.739 100.795C463.136 100.576 463.603 100.467 464.141 100.467C465.763 100.467 466.588 101.326 466.615 103.044V108H465.351V103.119C465.351 102.59 465.23 102.196 464.988 101.937C464.747 101.672 464.341 101.54 463.771 101.54C463.302 101.54 462.912 101.681 462.603 101.964C462.293 102.242 462.113 102.618 462.062 103.092V108H460.791V103.153C460.791 102.078 460.265 101.54 459.212 101.54C458.382 101.54 457.815 101.893 457.51 102.6V108H456.245V100.604H457.441ZM472.836 106.038C472.836 105.696 472.706 105.432 472.446 105.245C472.191 105.054 471.742 104.89 471.1 104.753C470.462 104.616 469.953 104.452 469.575 104.261C469.201 104.069 468.924 103.841 468.741 103.577C468.563 103.313 468.475 102.998 468.475 102.634C468.475 102.028 468.73 101.515 469.24 101.096C469.755 100.676 470.411 100.467 471.209 100.467C472.048 100.467 472.727 100.683 473.246 101.116C473.77 101.549 474.032 102.103 474.032 102.777H472.761C472.761 102.431 472.613 102.132 472.316 101.882C472.025 101.631 471.656 101.506 471.209 101.506C470.749 101.506 470.389 101.606 470.129 101.807C469.869 102.007 469.739 102.269 469.739 102.593C469.739 102.898 469.86 103.128 470.102 103.283C470.343 103.438 470.778 103.586 471.407 103.728C472.041 103.869 472.553 104.037 472.945 104.233C473.337 104.429 473.627 104.666 473.813 104.944C474.005 105.218 474.101 105.553 474.101 105.949C474.101 106.61 473.836 107.141 473.308 107.542C472.779 107.938 472.093 108.137 471.25 108.137C470.658 108.137 470.133 108.032 469.678 107.822C469.222 107.613 468.864 107.321 468.604 106.947C468.349 106.569 468.222 106.161 468.222 105.724H469.486C469.509 106.147 469.678 106.485 469.992 106.735C470.311 106.981 470.73 107.104 471.25 107.104C471.729 107.104 472.111 107.009 472.398 106.817C472.69 106.621 472.836 106.362 472.836 106.038ZM482.352 103.563C481.226 103.24 480.406 102.843 479.891 102.374C479.38 101.9 479.125 101.317 479.125 100.624C479.125 99.8402 479.437 99.193 480.062 98.6826C480.69 98.1676 481.506 97.9102 482.509 97.9102C483.192 97.9102 483.801 98.0423 484.334 98.3066C484.872 98.571 485.286 98.9355 485.578 99.4004C485.874 99.8652 486.022 100.373 486.022 100.925H484.703C484.703 100.323 484.512 99.8516 484.129 99.5098C483.746 99.1634 483.206 98.9902 482.509 98.9902C481.862 98.9902 481.356 99.1338 480.991 99.4209C480.631 99.7035 480.451 100.098 480.451 100.604C480.451 101.009 480.622 101.353 480.964 101.636C481.31 101.914 481.896 102.169 482.721 102.401C483.55 102.634 484.197 102.891 484.662 103.174C485.132 103.452 485.478 103.778 485.701 104.151C485.929 104.525 486.043 104.965 486.043 105.471C486.043 106.277 485.729 106.924 485.1 107.412C484.471 107.895 483.63 108.137 482.577 108.137C481.894 108.137 481.256 108.007 480.663 107.747C480.071 107.483 479.613 107.123 479.289 106.667C478.97 106.211 478.811 105.694 478.811 105.115H480.13C480.13 105.717 480.351 106.193 480.793 106.544C481.24 106.89 481.834 107.063 482.577 107.063C483.27 107.063 483.801 106.922 484.17 106.64C484.539 106.357 484.724 105.972 484.724 105.484C484.724 104.997 484.553 104.621 484.211 104.356C483.869 104.088 483.249 103.823 482.352 103.563ZM490.603 108.137C489.6 108.137 488.784 107.809 488.155 107.152C487.526 106.492 487.212 105.61 487.212 104.507V104.274C487.212 103.541 487.351 102.887 487.629 102.312C487.911 101.734 488.303 101.283 488.805 100.959C489.311 100.631 489.857 100.467 490.445 100.467C491.407 100.467 492.154 100.784 492.688 101.417C493.221 102.05 493.487 102.957 493.487 104.138V104.664H488.477C488.495 105.393 488.707 105.983 489.112 106.435C489.522 106.881 490.042 107.104 490.671 107.104C491.118 107.104 491.496 107.013 491.806 106.831C492.116 106.649 492.387 106.407 492.619 106.106L493.392 106.708C492.772 107.66 491.842 108.137 490.603 108.137ZM490.445 101.506C489.935 101.506 489.507 101.693 489.16 102.066C488.814 102.436 488.6 102.955 488.518 103.625H492.223V103.529C492.186 102.887 492.013 102.39 491.703 102.039C491.393 101.684 490.974 101.506 490.445 101.506ZM497.924 107.104C498.375 107.104 498.769 106.968 499.106 106.694C499.444 106.421 499.631 106.079 499.667 105.669H500.863C500.84 106.093 500.695 106.496 500.426 106.879C500.157 107.262 499.797 107.567 499.346 107.795C498.899 108.023 498.425 108.137 497.924 108.137C496.917 108.137 496.115 107.802 495.518 107.132C494.925 106.457 494.629 105.537 494.629 104.37V104.158C494.629 103.438 494.761 102.798 495.025 102.237C495.29 101.677 495.668 101.242 496.16 100.932C496.657 100.622 497.243 100.467 497.917 100.467C498.746 100.467 499.435 100.715 499.981 101.212C500.533 101.709 500.827 102.354 500.863 103.146H499.667C499.631 102.668 499.448 102.276 499.12 101.971C498.797 101.661 498.396 101.506 497.917 101.506C497.274 101.506 496.775 101.738 496.42 102.203C496.069 102.663 495.894 103.331 495.894 104.206V104.445C495.894 105.298 496.069 105.954 496.42 106.414C496.771 106.874 497.272 107.104 497.924 107.104ZM504.001 98.8125V100.604H505.382V101.581H504.001V106.168C504.001 106.464 504.062 106.688 504.186 106.838C504.309 106.984 504.518 107.057 504.814 107.057C504.96 107.057 505.161 107.029 505.416 106.975V108C505.083 108.091 504.76 108.137 504.445 108.137C503.88 108.137 503.454 107.966 503.167 107.624C502.88 107.282 502.736 106.797 502.736 106.168V101.581H501.39V100.604H502.736V98.8125H504.001ZM508.239 108H506.975V100.604H508.239V108ZM506.872 98.6416C506.872 98.4365 506.934 98.2633 507.057 98.1221C507.184 97.9808 507.371 97.9102 507.617 97.9102C507.863 97.9102 508.05 97.9808 508.178 98.1221C508.305 98.2633 508.369 98.4365 508.369 98.6416C508.369 98.8467 508.305 99.0176 508.178 99.1543C508.05 99.291 507.863 99.3594 507.617 99.3594C507.371 99.3594 507.184 99.291 507.057 99.1543C506.934 99.0176 506.872 98.8467 506.872 98.6416ZM509.935 104.233C509.935 103.509 510.076 102.857 510.358 102.278C510.646 101.7 511.042 101.253 511.548 100.938C512.058 100.624 512.639 100.467 513.291 100.467C514.298 100.467 515.112 100.815 515.731 101.513C516.356 102.21 516.668 103.137 516.668 104.295V104.384C516.668 105.104 516.529 105.751 516.251 106.325C515.978 106.895 515.583 107.339 515.068 107.658C514.558 107.977 513.97 108.137 513.305 108.137C512.302 108.137 511.489 107.788 510.864 107.091C510.244 106.394 509.935 105.471 509.935 104.322V104.233ZM511.206 104.384C511.206 105.204 511.395 105.863 511.773 106.359C512.156 106.856 512.667 107.104 513.305 107.104C513.947 107.104 514.458 106.854 514.836 106.353C515.214 105.847 515.403 105.14 515.403 104.233C515.403 103.422 515.21 102.766 514.822 102.265C514.439 101.759 513.929 101.506 513.291 101.506C512.667 101.506 512.163 101.754 511.78 102.251C511.397 102.748 511.206 103.459 511.206 104.384ZM519.45 100.604L519.491 101.533C520.056 100.822 520.795 100.467 521.706 100.467C523.269 100.467 524.058 101.349 524.071 103.112V108H522.807V103.105C522.802 102.572 522.679 102.178 522.438 101.923C522.201 101.668 521.829 101.54 521.323 101.54C520.913 101.54 520.553 101.649 520.243 101.868C519.933 102.087 519.692 102.374 519.519 102.729V108H518.254V100.604H519.45Z" fill="black"/>
<rect x="405" y="39" width="150" height="36" fill="white"/>
<path d="M459.287 53.127H456.088V62H454.782V53.127H451.59V52.0469H459.287V53.127ZM459.547 58.2334C459.547 57.5088 459.688 56.8571 459.971 56.2783C460.258 55.6995 460.654 55.2529 461.16 54.9385C461.671 54.624 462.252 54.4668 462.903 54.4668C463.91 54.4668 464.724 54.8154 465.344 55.5127C465.968 56.21 466.28 57.1374 466.28 58.2949V58.3838C466.28 59.1038 466.141 59.751 465.863 60.3252C465.59 60.8949 465.196 61.3392 464.681 61.6582C464.17 61.9772 463.582 62.1367 462.917 62.1367C461.914 62.1367 461.101 61.7881 460.477 61.0908C459.857 60.3936 459.547 59.4707 459.547 58.3223V58.2334ZM460.818 58.3838C460.818 59.2041 461.007 59.8626 461.386 60.3594C461.769 60.8561 462.279 61.1045 462.917 61.1045C463.56 61.1045 464.07 60.8538 464.448 60.3525C464.826 59.8467 465.016 59.1403 465.016 58.2334C465.016 57.4222 464.822 56.766 464.435 56.2646C464.052 55.7588 463.541 55.5059 462.903 55.5059C462.279 55.5059 461.775 55.7542 461.393 56.251C461.01 56.7477 460.818 57.4587 460.818 58.3838ZM470.498 58.2881H467.162V57.2559H470.498V58.2881ZM471.428 58.2402C471.428 57.1055 471.697 56.194 472.234 55.5059C472.772 54.8132 473.476 54.4668 474.347 54.4668C475.213 54.4668 475.898 54.763 476.404 55.3555V51.5H477.669V62H476.507L476.445 61.207C475.939 61.8268 475.235 62.1367 474.333 62.1367C473.476 62.1367 472.777 61.7858 472.234 61.084C471.697 60.3822 471.428 59.4661 471.428 58.3359V58.2402ZM472.692 58.3838C472.692 59.2223 472.866 59.8786 473.212 60.3525C473.558 60.8265 474.037 61.0635 474.647 61.0635C475.45 61.0635 476.035 60.7035 476.404 59.9834V56.5859C476.026 55.8887 475.445 55.54 474.661 55.54C474.041 55.54 473.558 55.7793 473.212 56.2578C472.866 56.7363 472.692 57.445 472.692 58.3838ZM479.303 58.2334C479.303 57.5088 479.444 56.8571 479.727 56.2783C480.014 55.6995 480.41 55.2529 480.916 54.9385C481.426 54.624 482.007 54.4668 482.659 54.4668C483.666 54.4668 484.48 54.8154 485.1 55.5127C485.724 56.21 486.036 57.1374 486.036 58.2949V58.3838C486.036 59.1038 485.897 59.751 485.619 60.3252C485.346 60.8949 484.951 61.3392 484.437 61.6582C483.926 61.9772 483.338 62.1367 482.673 62.1367C481.67 62.1367 480.857 61.7881 480.232 61.0908C479.613 60.3936 479.303 59.4707 479.303 58.3223V58.2334ZM480.574 58.3838C480.574 59.2041 480.763 59.8626 481.142 60.3594C481.524 60.8561 482.035 61.1045 482.673 61.1045C483.315 61.1045 483.826 60.8538 484.204 60.3525C484.582 59.8467 484.771 59.1403 484.771 58.2334C484.771 57.4222 484.578 56.766 484.19 56.2646C483.808 55.7588 483.297 55.5059 482.659 55.5059C482.035 55.5059 481.531 55.7542 481.148 56.251C480.766 56.7477 480.574 57.4587 480.574 58.3838ZM492.469 62H491.204V51.5H492.469V62ZM495.873 62H494.608V54.6035H495.873V62ZM494.506 52.6416C494.506 52.4365 494.567 52.2633 494.69 52.1221C494.818 51.9808 495.005 51.9102 495.251 51.9102C495.497 51.9102 495.684 51.9808 495.812 52.1221C495.939 52.2633 496.003 52.4365 496.003 52.6416C496.003 52.8467 495.939 53.0176 495.812 53.1543C495.684 53.291 495.497 53.3594 495.251 53.3594C495.005 53.3594 494.818 53.291 494.69 53.1543C494.567 53.0176 494.506 52.8467 494.506 52.6416ZM502.21 60.0381C502.21 59.6963 502.08 59.432 501.82 59.2451C501.565 59.0537 501.116 58.8896 500.474 58.7529C499.836 58.6162 499.327 58.4521 498.949 58.2607C498.576 58.0693 498.298 57.8415 498.115 57.5771C497.938 57.3128 497.849 56.9984 497.849 56.6338C497.849 56.0277 498.104 55.515 498.614 55.0957C499.129 54.6764 499.785 54.4668 500.583 54.4668C501.422 54.4668 502.101 54.6833 502.62 55.1162C503.144 55.5492 503.406 56.1029 503.406 56.7773H502.135C502.135 56.431 501.987 56.1325 501.69 55.8818C501.399 55.6312 501.03 55.5059 500.583 55.5059C500.123 55.5059 499.763 55.6061 499.503 55.8066C499.243 56.0072 499.113 56.2692 499.113 56.5928C499.113 56.8981 499.234 57.1283 499.476 57.2832C499.717 57.4382 500.152 57.5863 500.781 57.7275C501.415 57.8688 501.927 58.0374 502.319 58.2334C502.711 58.4294 503.001 58.6663 503.188 58.9443C503.379 59.2178 503.475 59.5527 503.475 59.9492C503.475 60.61 503.21 61.141 502.682 61.542C502.153 61.9385 501.467 62.1367 500.624 62.1367C500.032 62.1367 499.507 62.0319 499.052 61.8223C498.596 61.6126 498.238 61.321 497.979 60.9473C497.723 60.569 497.596 60.1611 497.596 59.7236H498.86C498.883 60.1475 499.052 60.4847 499.366 60.7354C499.685 60.9814 500.104 61.1045 500.624 61.1045C501.103 61.1045 501.485 61.0088 501.772 60.8174C502.064 60.6214 502.21 60.3617 502.21 60.0381ZM506.838 52.8125V54.6035H508.219V55.5811H506.838V60.168C506.838 60.4642 506.899 60.6875 507.022 60.8379C507.146 60.9837 507.355 61.0566 507.651 61.0566C507.797 61.0566 507.998 61.0293 508.253 60.9746V62C507.92 62.0911 507.597 62.1367 507.282 62.1367C506.717 62.1367 506.291 61.9658 506.004 61.624C505.717 61.2822 505.573 60.7969 505.573 60.168V55.5811H504.227V54.6035H505.573V52.8125H506.838Z" fill="black"/>
<rect x="599.5" y="62" width="150" height="36" fill="white"/>
<path d="M628.371 81.8418C628.248 82.8945 627.858 83.708 627.202 84.2822C626.55 84.8519 625.682 85.1367 624.598 85.1367C623.422 85.1367 622.479 84.7152 621.768 83.8721C621.061 83.029 620.708 81.901 620.708 80.4883V79.5312C620.708 78.6061 620.872 77.7926 621.2 77.0908C621.533 76.389 622.002 75.8512 622.608 75.4775C623.215 75.0993 623.916 74.9102 624.714 74.9102C625.771 74.9102 626.619 75.2064 627.257 75.7988C627.895 76.3867 628.266 77.2025 628.371 78.2461H627.052C626.938 77.4531 626.689 76.8789 626.307 76.5234C625.928 76.168 625.397 75.9902 624.714 75.9902C623.875 75.9902 623.217 76.3001 622.738 76.9199C622.264 77.5397 622.027 78.4215 622.027 79.5654V80.5293C622.027 81.6094 622.253 82.4684 622.704 83.1064C623.155 83.7445 623.786 84.0635 624.598 84.0635C625.327 84.0635 625.885 83.8994 626.272 83.5713C626.664 83.2386 626.924 82.6621 627.052 81.8418H628.371ZM631.345 85H630.08V74.5H631.345V85ZM634.749 85H633.484V77.6035H634.749V85ZM633.382 75.6416C633.382 75.4365 633.443 75.2633 633.566 75.1221C633.694 74.9808 633.881 74.9102 634.127 74.9102C634.373 74.9102 634.56 74.9808 634.688 75.1221C634.815 75.2633 634.879 75.4365 634.879 75.6416C634.879 75.8467 634.815 76.0176 634.688 76.1543C634.56 76.291 634.373 76.3594 634.127 76.3594C633.881 76.3594 633.694 76.291 633.566 76.1543C633.443 76.0176 633.382 75.8467 633.382 75.6416ZM639.849 85.1367C638.846 85.1367 638.03 84.8086 637.401 84.1523C636.772 83.4915 636.458 82.6097 636.458 81.5068V81.2744C636.458 80.5407 636.597 79.8867 636.875 79.3125C637.158 78.7337 637.549 78.2826 638.051 77.959C638.557 77.6309 639.104 77.4668 639.691 77.4668C640.653 77.4668 641.4 77.7835 641.934 78.417C642.467 79.0505 642.733 79.9574 642.733 81.1377V81.6641H637.723C637.741 82.3932 637.953 82.9834 638.358 83.4346C638.769 83.8812 639.288 84.1045 639.917 84.1045C640.364 84.1045 640.742 84.0133 641.052 83.8311C641.362 83.6488 641.633 83.4072 641.865 83.1064L642.638 83.708C642.018 84.6605 641.088 85.1367 639.849 85.1367ZM639.691 78.5059C639.181 78.5059 638.753 78.6927 638.406 79.0664C638.06 79.4355 637.846 79.9551 637.764 80.625H641.469V80.5293C641.432 79.8867 641.259 79.39 640.949 79.0391C640.639 78.6836 640.22 78.5059 639.691 78.5059ZM645.399 77.6035L645.44 78.5332C646.006 77.8223 646.744 77.4668 647.655 77.4668C649.218 77.4668 650.007 78.3486 650.021 80.1123V85H648.756V80.1055C648.751 79.5723 648.628 79.1781 648.387 78.9229C648.15 78.6676 647.778 78.54 647.272 78.54C646.862 78.54 646.502 78.6494 646.192 78.8682C645.882 79.0869 645.641 79.374 645.468 79.7295V85H644.203V77.6035H645.399ZM653.644 75.8125V77.6035H655.024V78.5811H653.644V83.168C653.644 83.4642 653.705 83.6875 653.828 83.8379C653.951 83.9837 654.161 84.0566 654.457 84.0566C654.603 84.0566 654.803 84.0293 655.059 83.9746V85C654.726 85.0911 654.402 85.1367 654.088 85.1367C653.523 85.1367 653.097 84.9658 652.81 84.624C652.522 84.2822 652.379 83.7969 652.379 83.168V78.5811H651.032V77.6035H652.379V75.8125H653.644ZM666.229 81.3838C666.229 82.5094 665.971 83.4163 665.456 84.1045C664.941 84.7926 664.244 85.1367 663.364 85.1367C662.466 85.1367 661.76 84.8519 661.245 84.2822V87.8438H659.98V77.6035H661.136L661.197 78.4238C661.712 77.7858 662.428 77.4668 663.344 77.4668C664.232 77.4668 664.934 77.8018 665.449 78.4717C665.969 79.1416 666.229 80.0736 666.229 81.2676V81.3838ZM664.964 81.2402C664.964 80.4062 664.786 79.7477 664.431 79.2646C664.075 78.7816 663.588 78.54 662.968 78.54C662.202 78.54 661.628 78.8796 661.245 79.5586V83.0928C661.623 83.7673 662.202 84.1045 662.981 84.1045C663.588 84.1045 664.068 83.8652 664.424 83.3867C664.784 82.9036 664.964 82.1882 664.964 81.2402ZM671.417 78.7383C671.226 78.7064 671.018 78.6904 670.795 78.6904C669.965 78.6904 669.403 79.0436 669.106 79.75V85H667.842V77.6035H669.072L669.093 78.458C669.507 77.7972 670.095 77.4668 670.856 77.4668C671.103 77.4668 671.289 77.4987 671.417 77.5625V78.7383ZM672.114 81.2334C672.114 80.5088 672.256 79.8571 672.538 79.2783C672.825 78.6995 673.222 78.2529 673.728 77.9385C674.238 77.624 674.819 77.4668 675.471 77.4668C676.478 77.4668 677.291 77.8154 677.911 78.5127C678.535 79.21 678.848 80.1374 678.848 81.2949V81.3838C678.848 82.1038 678.709 82.751 678.431 83.3252C678.157 83.8949 677.763 84.3392 677.248 84.6582C676.738 84.9772 676.15 85.1367 675.484 85.1367C674.482 85.1367 673.668 84.7881 673.044 84.0908C672.424 83.3936 672.114 82.4707 672.114 81.3223V81.2334ZM673.386 81.3838C673.386 82.2041 673.575 82.8626 673.953 83.3594C674.336 83.8561 674.846 84.1045 675.484 84.1045C676.127 84.1045 676.637 83.8538 677.016 83.3525C677.394 82.8467 677.583 82.1403 677.583 81.2334C677.583 80.4222 677.389 79.766 677.002 79.2646C676.619 78.7588 676.109 78.5059 675.471 78.5059C674.846 78.5059 674.343 78.7542 673.96 79.251C673.577 79.7477 673.386 80.4587 673.386 81.3838ZM683.4 84.1045C683.852 84.1045 684.246 83.9678 684.583 83.6943C684.92 83.4209 685.107 83.0791 685.144 82.6689H686.34C686.317 83.0928 686.171 83.4961 685.902 83.8789C685.633 84.2617 685.273 84.5671 684.822 84.7949C684.376 85.0228 683.902 85.1367 683.4 85.1367C682.393 85.1367 681.591 84.8018 680.994 84.1318C680.402 83.4574 680.105 82.5368 680.105 81.3701V81.1582C680.105 80.4382 680.238 79.7979 680.502 79.2373C680.766 78.6768 681.145 78.2415 681.637 77.9316C682.133 77.6217 682.719 77.4668 683.394 77.4668C684.223 77.4668 684.911 77.7152 685.458 78.2119C686.009 78.7087 686.303 79.3535 686.34 80.1465H685.144C685.107 79.668 684.925 79.276 684.597 78.9707C684.273 78.6608 683.872 78.5059 683.394 78.5059C682.751 78.5059 682.252 78.7383 681.896 79.2031C681.546 79.6634 681.37 80.3311 681.37 81.2061V81.4453C681.37 82.2975 681.546 82.9538 681.896 83.4141C682.247 83.8743 682.749 84.1045 683.4 84.1045ZM690.831 85.1367C689.828 85.1367 689.013 84.8086 688.384 84.1523C687.755 83.4915 687.44 82.6097 687.44 81.5068V81.2744C687.44 80.5407 687.579 79.8867 687.857 79.3125C688.14 78.7337 688.532 78.2826 689.033 77.959C689.539 77.6309 690.086 77.4668 690.674 77.4668C691.635 77.4668 692.383 77.7835 692.916 78.417C693.449 79.0505 693.716 79.9574 693.716 81.1377V81.6641H688.705C688.723 82.3932 688.935 82.9834 689.341 83.4346C689.751 83.8812 690.271 84.1045 690.899 84.1045C691.346 84.1045 691.724 84.0133 692.034 83.8311C692.344 83.6488 692.615 83.4072 692.848 83.1064L693.62 83.708C693 84.6605 692.071 85.1367 690.831 85.1367ZM690.674 78.5059C690.163 78.5059 689.735 78.6927 689.389 79.0664C689.042 79.4355 688.828 79.9551 688.746 80.625H692.451V80.5293C692.415 79.8867 692.242 79.39 691.932 79.0391C691.622 78.6836 691.202 78.5059 690.674 78.5059ZM694.878 81.2402C694.878 80.1055 695.147 79.194 695.685 78.5059C696.222 77.8132 696.926 77.4668 697.797 77.4668C698.663 77.4668 699.349 77.763 699.854 78.3555V74.5H701.119V85H699.957L699.896 84.207C699.39 84.8268 698.686 85.1367 697.783 85.1367C696.926 85.1367 696.227 84.7858 695.685 84.084C695.147 83.3822 694.878 82.4661 694.878 81.3359V81.2402ZM696.143 81.3838C696.143 82.2223 696.316 82.8786 696.662 83.3525C697.008 83.8265 697.487 84.0635 698.098 84.0635C698.9 84.0635 699.485 83.7035 699.854 82.9834V79.5859C699.476 78.8887 698.895 78.54 698.111 78.54C697.492 78.54 697.008 78.7793 696.662 79.2578C696.316 79.7363 696.143 80.445 696.143 81.3838ZM707.654 84.2686C707.162 84.8473 706.44 85.1367 705.487 85.1367C704.699 85.1367 704.097 84.9089 703.683 84.4531C703.272 83.9928 703.065 83.3138 703.061 82.416V77.6035H704.325V82.3818C704.325 83.5029 704.781 84.0635 705.692 84.0635C706.659 84.0635 707.301 83.7035 707.62 82.9834V77.6035H708.885V85H707.682L707.654 84.2686ZM714.388 78.7383C714.196 78.7064 713.989 78.6904 713.766 78.6904C712.936 78.6904 712.373 79.0436 712.077 79.75V85H710.812V77.6035H712.043L712.063 78.458C712.478 77.7972 713.066 77.4668 713.827 77.4668C714.073 77.4668 714.26 77.4987 714.388 77.5625V78.7383ZM718.489 85.1367C717.487 85.1367 716.671 84.8086 716.042 84.1523C715.413 83.4915 715.099 82.6097 715.099 81.5068V81.2744C715.099 80.5407 715.238 79.8867 715.516 79.3125C715.798 78.7337 716.19 78.2826 716.691 77.959C717.197 77.6309 717.744 77.4668 718.332 77.4668C719.294 77.4668 720.041 77.7835 720.574 78.417C721.107 79.0505 721.374 79.9574 721.374 81.1377V81.6641H716.363C716.382 82.3932 716.593 82.9834 716.999 83.4346C717.409 83.8812 717.929 84.1045 718.558 84.1045C719.004 84.1045 719.382 84.0133 719.692 83.8311C720.002 83.6488 720.273 83.4072 720.506 83.1064L721.278 83.708C720.659 84.6605 719.729 85.1367 718.489 85.1367ZM718.332 78.5059C717.822 78.5059 717.393 78.6927 717.047 79.0664C716.701 79.4355 716.486 79.9551 716.404 80.625H720.109V80.5293C720.073 79.8867 719.9 79.39 719.59 79.0391C719.28 78.6836 718.861 78.5059 718.332 78.5059ZM727.15 83.0381C727.15 82.6963 727.021 82.432 726.761 82.2451C726.506 82.0537 726.057 81.8896 725.414 81.7529C724.776 81.6162 724.268 81.4521 723.89 81.2607C723.516 81.0693 723.238 80.8415 723.056 80.5771C722.878 80.3128 722.789 79.9984 722.789 79.6338C722.789 79.0277 723.044 78.515 723.555 78.0957C724.07 77.6764 724.726 77.4668 725.523 77.4668C726.362 77.4668 727.041 77.6833 727.561 78.1162C728.085 78.5492 728.347 79.1029 728.347 79.7773H727.075C727.075 79.431 726.927 79.1325 726.631 78.8818C726.339 78.6312 725.97 78.5059 725.523 78.5059C725.063 78.5059 724.703 78.6061 724.443 78.8066C724.184 79.0072 724.054 79.2692 724.054 79.5928C724.054 79.8981 724.174 80.1283 724.416 80.2832C724.658 80.4382 725.093 80.5863 725.722 80.7275C726.355 80.8688 726.868 81.0374 727.26 81.2334C727.652 81.4294 727.941 81.6663 728.128 81.9443C728.319 82.2178 728.415 82.5527 728.415 82.9492C728.415 83.61 728.151 84.141 727.622 84.542C727.093 84.9385 726.408 85.1367 725.564 85.1367C724.972 85.1367 724.448 85.0319 723.992 84.8223C723.536 84.6126 723.179 84.321 722.919 83.9473C722.664 83.569 722.536 83.1611 722.536 82.7236H723.801C723.824 83.1475 723.992 83.4847 724.307 83.7354C724.626 83.9814 725.045 84.1045 725.564 84.1045C726.043 84.1045 726.426 84.0088 726.713 83.8174C727.005 83.6214 727.15 83.3617 727.15 83.0381Z" fill="#FF0000"/>
<rect x="599.5" y="16" width="150" height="36" fill="white"/>
<path d="M628.05 34.6045H623.873V39H622.561V29.0469H628.727V30.127H623.873V33.5312H628.05V34.6045ZM631.475 39H630.21V31.6035H631.475V39ZM630.107 29.6416C630.107 29.4365 630.169 29.2633 630.292 29.1221C630.42 28.9808 630.606 28.9102 630.853 28.9102C631.099 28.9102 631.285 28.9808 631.413 29.1221C631.541 29.2633 631.604 29.4365 631.604 29.6416C631.604 29.8467 631.541 30.0176 631.413 30.1543C631.285 30.291 631.099 30.3594 630.853 30.3594C630.606 30.3594 630.42 30.291 630.292 30.1543C630.169 30.0176 630.107 29.8467 630.107 29.6416ZM634.701 31.6035L634.742 32.5332C635.307 31.8223 636.046 31.4668 636.957 31.4668C638.52 31.4668 639.309 32.3486 639.322 34.1123V39H638.058V34.1055C638.053 33.5723 637.93 33.1781 637.688 32.9229C637.451 32.6676 637.08 32.54 636.574 32.54C636.164 32.54 635.804 32.6494 635.494 32.8682C635.184 33.0869 634.943 33.374 634.77 33.7295V39H633.505V31.6035H634.701ZM645.796 39C645.723 38.8542 645.664 38.5944 645.618 38.2207C645.03 38.8314 644.328 39.1367 643.513 39.1367C642.784 39.1367 642.184 38.9316 641.715 38.5215C641.25 38.1068 641.018 37.5827 641.018 36.9492C641.018 36.179 641.309 35.582 641.893 35.1582C642.48 34.7298 643.305 34.5156 644.367 34.5156H645.598V33.9346C645.598 33.4925 645.465 33.1416 645.201 32.8818C644.937 32.6175 644.547 32.4854 644.032 32.4854C643.581 32.4854 643.203 32.5993 642.897 32.8271C642.592 33.055 642.439 33.3307 642.439 33.6543H641.168C641.168 33.2852 641.298 32.9297 641.558 32.5879C641.822 32.2415 642.177 31.9681 642.624 31.7676C643.075 31.5671 643.57 31.4668 644.107 31.4668C644.96 31.4668 645.627 31.681 646.11 32.1094C646.593 32.5332 646.844 33.1188 646.862 33.8662V37.2705C646.862 37.9495 646.949 38.4896 647.122 38.8906V39H645.796ZM643.697 38.0361C644.094 38.0361 644.47 37.9336 644.825 37.7285C645.181 37.5234 645.438 37.2568 645.598 36.9287V35.4111H644.606C643.057 35.4111 642.282 35.8646 642.282 36.7715C642.282 37.168 642.414 37.4779 642.679 37.7012C642.943 37.9245 643.283 38.0361 643.697 38.0361ZM650.041 31.6035L650.082 32.5332C650.647 31.8223 651.385 31.4668 652.297 31.4668C653.86 31.4668 654.648 32.3486 654.662 34.1123V39H653.397V34.1055C653.393 33.5723 653.27 33.1781 653.028 32.9229C652.791 32.6676 652.42 32.54 651.914 32.54C651.504 32.54 651.144 32.6494 650.834 32.8682C650.524 33.0869 650.283 33.374 650.109 33.7295V39H648.845V31.6035H650.041ZM659.536 38.1045C659.987 38.1045 660.382 37.9678 660.719 37.6943C661.056 37.4209 661.243 37.0791 661.279 36.6689H662.476C662.453 37.0928 662.307 37.4961 662.038 37.8789C661.769 38.2617 661.409 38.5671 660.958 38.7949C660.511 39.0228 660.037 39.1367 659.536 39.1367C658.529 39.1367 657.727 38.8018 657.13 38.1318C656.537 37.4574 656.241 36.5368 656.241 35.3701V35.1582C656.241 34.4382 656.373 33.7979 656.638 33.2373C656.902 32.6768 657.28 32.2415 657.772 31.9316C658.269 31.6217 658.855 31.4668 659.529 31.4668C660.359 31.4668 661.047 31.7152 661.594 32.2119C662.145 32.7087 662.439 33.3535 662.476 34.1465H661.279C661.243 33.668 661.061 33.276 660.732 32.9707C660.409 32.6608 660.008 32.5059 659.529 32.5059C658.887 32.5059 658.388 32.7383 658.032 33.2031C657.681 33.6634 657.506 34.3311 657.506 35.2061V35.4453C657.506 36.2975 657.681 36.9538 658.032 37.4141C658.383 37.8743 658.884 38.1045 659.536 38.1045ZM665.271 39H664.007V31.6035H665.271V39ZM663.904 29.6416C663.904 29.4365 663.966 29.2633 664.089 29.1221C664.216 28.9808 664.403 28.9102 664.649 28.9102C664.896 28.9102 665.082 28.9808 665.21 29.1221C665.338 29.2633 665.401 29.4365 665.401 29.6416C665.401 29.8467 665.338 30.0176 665.21 30.1543C665.082 30.291 664.896 30.3594 664.649 30.3594C664.403 30.3594 664.216 30.291 664.089 30.1543C663.966 30.0176 663.904 29.8467 663.904 29.6416ZM671.868 39C671.795 38.8542 671.736 38.5944 671.69 38.2207C671.103 38.8314 670.401 39.1367 669.585 39.1367C668.856 39.1367 668.257 38.9316 667.787 38.5215C667.322 38.1068 667.09 37.5827 667.09 36.9492C667.09 36.179 667.382 35.582 667.965 35.1582C668.553 34.7298 669.378 34.5156 670.439 34.5156H671.67V33.9346C671.67 33.4925 671.538 33.1416 671.273 32.8818C671.009 32.6175 670.619 32.4854 670.104 32.4854C669.653 32.4854 669.275 32.5993 668.97 32.8271C668.664 33.055 668.512 33.3307 668.512 33.6543H667.24C667.24 33.2852 667.37 32.9297 667.63 32.5879C667.894 32.2415 668.25 31.9681 668.696 31.7676C669.147 31.5671 669.642 31.4668 670.18 31.4668C671.032 31.4668 671.7 31.681 672.183 32.1094C672.666 32.5332 672.916 33.1188 672.935 33.8662V37.2705C672.935 37.9495 673.021 38.4896 673.194 38.8906V39H671.868ZM669.77 38.0361C670.166 38.0361 670.542 37.9336 670.897 37.7285C671.253 37.5234 671.51 37.2568 671.67 36.9287V35.4111H670.679C669.129 35.4111 668.354 35.8646 668.354 36.7715C668.354 37.168 668.487 37.4779 668.751 37.7012C669.015 37.9245 669.355 38.0361 669.77 38.0361ZM676.291 39H675.026V28.5H676.291V39ZM684.925 34.5635C683.799 34.2399 682.979 33.8434 682.464 33.374C681.953 32.9001 681.698 32.3167 681.698 31.624C681.698 30.8402 682.01 30.193 682.635 29.6826C683.264 29.1676 684.079 28.9102 685.082 28.9102C685.766 28.9102 686.374 29.0423 686.907 29.3066C687.445 29.571 687.86 29.9355 688.151 30.4004C688.448 30.8652 688.596 31.3734 688.596 31.9248H687.276C687.276 31.3232 687.085 30.8516 686.702 30.5098C686.319 30.1634 685.779 29.9902 685.082 29.9902C684.435 29.9902 683.929 30.1338 683.564 30.4209C683.204 30.7035 683.024 31.0977 683.024 31.6035C683.024 32.0091 683.195 32.3532 683.537 32.6357C683.883 32.9137 684.469 33.1689 685.294 33.4014C686.123 33.6338 686.771 33.8913 687.235 34.1738C687.705 34.4518 688.051 34.7777 688.274 35.1514C688.502 35.5251 688.616 35.9648 688.616 36.4707C688.616 37.2773 688.302 37.9245 687.673 38.4121C687.044 38.8952 686.203 39.1367 685.15 39.1367C684.467 39.1367 683.829 39.0068 683.236 38.7471C682.644 38.4827 682.186 38.1227 681.862 37.667C681.543 37.2113 681.384 36.694 681.384 36.1152H682.703C682.703 36.7168 682.924 37.193 683.366 37.5439C683.813 37.8903 684.408 38.0635 685.15 38.0635C685.843 38.0635 686.374 37.9222 686.743 37.6396C687.112 37.3571 687.297 36.972 687.297 36.4844C687.297 35.9967 687.126 35.6208 686.784 35.3564C686.442 35.0876 685.823 34.8232 684.925 34.5635ZM693.176 39.1367C692.173 39.1367 691.357 38.8086 690.729 38.1523C690.1 37.4915 689.785 36.6097 689.785 35.5068V35.2744C689.785 34.5407 689.924 33.8867 690.202 33.3125C690.485 32.7337 690.877 32.2826 691.378 31.959C691.884 31.6309 692.431 31.4668 693.019 31.4668C693.98 31.4668 694.728 31.7835 695.261 32.417C695.794 33.0505 696.061 33.9574 696.061 35.1377V35.6641H691.05C691.068 36.3932 691.28 36.9834 691.686 37.4346C692.096 37.8812 692.615 38.1045 693.244 38.1045C693.691 38.1045 694.069 38.0133 694.379 37.8311C694.689 37.6488 694.96 37.4072 695.192 37.1064L695.965 37.708C695.345 38.6605 694.415 39.1367 693.176 39.1367ZM693.019 32.5059C692.508 32.5059 692.08 32.6927 691.733 33.0664C691.387 33.4355 691.173 33.9551 691.091 34.625H694.796V34.5293C694.759 33.8867 694.586 33.39 694.276 33.0391C693.966 32.6836 693.547 32.5059 693.019 32.5059ZM700.497 38.1045C700.948 38.1045 701.342 37.9678 701.68 37.6943C702.017 37.4209 702.204 37.0791 702.24 36.6689H703.437C703.414 37.0928 703.268 37.4961 702.999 37.8789C702.73 38.2617 702.37 38.5671 701.919 38.7949C701.472 39.0228 700.998 39.1367 700.497 39.1367C699.49 39.1367 698.688 38.8018 698.091 38.1318C697.498 37.4574 697.202 36.5368 697.202 35.3701V35.1582C697.202 34.4382 697.334 33.7979 697.599 33.2373C697.863 32.6768 698.241 32.2415 698.733 31.9316C699.23 31.6217 699.816 31.4668 700.49 31.4668C701.32 31.4668 702.008 31.7152 702.555 32.2119C703.106 32.7087 703.4 33.3535 703.437 34.1465H702.24C702.204 33.668 702.021 33.276 701.693 32.9707C701.37 32.6608 700.969 32.5059 700.49 32.5059C699.848 32.5059 699.349 32.7383 698.993 33.2031C698.642 33.6634 698.467 34.3311 698.467 35.2061V35.4453C698.467 36.2975 698.642 36.9538 698.993 37.4141C699.344 37.8743 699.845 38.1045 700.497 38.1045ZM706.574 29.8125V31.6035H707.955V32.5811H706.574V37.168C706.574 37.4642 706.636 37.6875 706.759 37.8379C706.882 37.9837 707.091 38.0566 707.388 38.0566C707.534 38.0566 707.734 38.0293 707.989 37.9746V39C707.657 39.0911 707.333 39.1367 707.019 39.1367C706.453 39.1367 706.027 38.9658 705.74 38.624C705.453 38.2822 705.31 37.7969 705.31 37.168V32.5811H703.963V31.6035H705.31V29.8125H706.574ZM710.812 39H709.548V31.6035H710.812V39ZM709.445 29.6416C709.445 29.4365 709.507 29.2633 709.63 29.1221C709.757 28.9808 709.944 28.9102 710.19 28.9102C710.437 28.9102 710.623 28.9808 710.751 29.1221C710.879 29.2633 710.942 29.4365 710.942 29.6416C710.942 29.8467 710.879 30.0176 710.751 30.1543C710.623 30.291 710.437 30.3594 710.19 30.3594C709.944 30.3594 709.757 30.291 709.63 30.1543C709.507 30.0176 709.445 29.8467 709.445 29.6416ZM712.508 35.2334C712.508 34.5088 712.649 33.8571 712.932 33.2783C713.219 32.6995 713.615 32.2529 714.121 31.9385C714.632 31.624 715.213 31.4668 715.864 31.4668C716.871 31.4668 717.685 31.8154 718.305 32.5127C718.929 33.21 719.241 34.1374 719.241 35.2949V35.3838C719.241 36.1038 719.102 36.751 718.824 37.3252C718.551 37.8949 718.157 38.3392 717.642 38.6582C717.131 38.9772 716.543 39.1367 715.878 39.1367C714.875 39.1367 714.062 38.7881 713.438 38.0908C712.818 37.3936 712.508 36.4707 712.508 35.3223V35.2334ZM713.779 35.3838C713.779 36.2041 713.968 36.8626 714.347 37.3594C714.729 37.8561 715.24 38.1045 715.878 38.1045C716.521 38.1045 717.031 37.8538 717.409 37.3525C717.787 36.8467 717.977 36.1403 717.977 35.2334C717.977 34.4222 717.783 33.766 717.396 33.2646C717.013 32.7588 716.502 32.5059 715.864 32.5059C715.24 32.5059 714.736 32.7542 714.354 33.251C713.971 33.7477 713.779 34.4587 713.779 35.3838ZM722.023 31.6035L722.064 32.5332C722.63 31.8223 723.368 31.4668 724.279 31.4668C725.842 31.4668 726.631 32.3486 726.645 34.1123V39H725.38V34.1055C725.375 33.5723 725.252 33.1781 725.011 32.9229C724.774 32.6676 724.402 32.54 723.896 32.54C723.486 32.54 723.126 32.6494 722.816 32.8682C722.507 33.0869 722.265 33.374 722.092 33.7295V39H720.827V31.6035H722.023Z" fill="black"/>
<rect x="599.5" y="108" width="150" height="36" fill="white"/>
<path d="M652.851 126.563C651.725 126.24 650.905 125.843 650.39 125.374C649.879 124.9 649.624 124.317 649.624 123.624C649.624 122.84 649.936 122.193 650.561 121.683C651.189 121.168 652.005 120.91 653.008 120.91C653.691 120.91 654.3 121.042 654.833 121.307C655.371 121.571 655.785 121.936 656.077 122.4C656.373 122.865 656.521 123.373 656.521 123.925H655.202C655.202 123.323 655.011 122.852 654.628 122.51C654.245 122.163 653.705 121.99 653.008 121.99C652.361 121.99 651.855 122.134 651.49 122.421C651.13 122.703 650.95 123.098 650.95 123.604C650.95 124.009 651.121 124.353 651.463 124.636C651.809 124.914 652.395 125.169 653.22 125.401C654.049 125.634 654.696 125.891 655.161 126.174C655.631 126.452 655.977 126.778 656.2 127.151C656.428 127.525 656.542 127.965 656.542 128.471C656.542 129.277 656.228 129.924 655.599 130.412C654.97 130.895 654.129 131.137 653.076 131.137C652.393 131.137 651.755 131.007 651.162 130.747C650.57 130.483 650.112 130.123 649.788 129.667C649.469 129.211 649.31 128.694 649.31 128.115H650.629C650.629 128.717 650.85 129.193 651.292 129.544C651.739 129.89 652.333 130.063 653.076 130.063C653.769 130.063 654.3 129.922 654.669 129.64C655.038 129.357 655.223 128.972 655.223 128.484C655.223 127.997 655.052 127.621 654.71 127.356C654.368 127.088 653.748 126.823 652.851 126.563ZM659.748 121.812V123.604H661.129V124.581H659.748V129.168C659.748 129.464 659.81 129.688 659.933 129.838C660.056 129.984 660.265 130.057 660.562 130.057C660.707 130.057 660.908 130.029 661.163 129.975V131C660.83 131.091 660.507 131.137 660.192 131.137C659.627 131.137 659.201 130.966 658.914 130.624C658.627 130.282 658.483 129.797 658.483 129.168V124.581H657.137V123.604H658.483V121.812H659.748ZM666.188 124.738C665.996 124.706 665.789 124.69 665.565 124.69C664.736 124.69 664.173 125.044 663.877 125.75V131H662.612V123.604H663.843L663.863 124.458C664.278 123.797 664.866 123.467 665.627 123.467C665.873 123.467 666.06 123.499 666.188 123.562V124.738ZM671.649 131C671.576 130.854 671.517 130.594 671.472 130.221C670.884 130.831 670.182 131.137 669.366 131.137C668.637 131.137 668.038 130.932 667.568 130.521C667.104 130.107 666.871 129.583 666.871 128.949C666.871 128.179 667.163 127.582 667.746 127.158C668.334 126.73 669.159 126.516 670.221 126.516H671.451V125.935C671.451 125.493 671.319 125.142 671.055 124.882C670.79 124.618 670.401 124.485 669.886 124.485C669.435 124.485 669.056 124.599 668.751 124.827C668.446 125.055 668.293 125.331 668.293 125.654H667.021C667.021 125.285 667.151 124.93 667.411 124.588C667.675 124.242 668.031 123.968 668.478 123.768C668.929 123.567 669.423 123.467 669.961 123.467C670.813 123.467 671.481 123.681 671.964 124.109C672.447 124.533 672.698 125.119 672.716 125.866V129.271C672.716 129.95 672.802 130.49 672.976 130.891V131H671.649ZM669.551 130.036C669.947 130.036 670.323 129.934 670.679 129.729C671.034 129.523 671.292 129.257 671.451 128.929V127.411H670.46C668.91 127.411 668.136 127.865 668.136 128.771C668.136 129.168 668.268 129.478 668.532 129.701C668.797 129.924 669.136 130.036 669.551 130.036ZM676.414 121.812V123.604H677.795V124.581H676.414V129.168C676.414 129.464 676.476 129.688 676.599 129.838C676.722 129.984 676.931 130.057 677.228 130.057C677.373 130.057 677.574 130.029 677.829 129.975V131C677.496 131.091 677.173 131.137 676.858 131.137C676.293 131.137 675.867 130.966 675.58 130.624C675.293 130.282 675.149 129.797 675.149 129.168V124.581H673.803V123.604H675.149V121.812H676.414ZM682.348 131.137C681.345 131.137 680.529 130.809 679.9 130.152C679.271 129.492 678.957 128.61 678.957 127.507V127.274C678.957 126.541 679.096 125.887 679.374 125.312C679.657 124.734 680.049 124.283 680.55 123.959C681.056 123.631 681.603 123.467 682.19 123.467C683.152 123.467 683.899 123.784 684.433 124.417C684.966 125.05 685.232 125.957 685.232 127.138V127.664H680.222C680.24 128.393 680.452 128.983 680.857 129.435C681.268 129.881 681.787 130.104 682.416 130.104C682.863 130.104 683.241 130.013 683.551 129.831C683.861 129.649 684.132 129.407 684.364 129.106L685.137 129.708C684.517 130.66 683.587 131.137 682.348 131.137ZM682.19 124.506C681.68 124.506 681.252 124.693 680.905 125.066C680.559 125.436 680.345 125.955 680.263 126.625H683.968V126.529C683.931 125.887 683.758 125.39 683.448 125.039C683.138 124.684 682.719 124.506 682.19 124.506ZM686.401 127.24C686.401 126.087 686.668 125.171 687.201 124.492C687.734 123.809 688.441 123.467 689.32 123.467C690.223 123.467 690.927 123.786 691.433 124.424L691.494 123.604H692.649V130.822C692.649 131.779 692.365 132.534 691.795 133.085C691.23 133.636 690.469 133.912 689.512 133.912C688.979 133.912 688.457 133.798 687.946 133.57C687.436 133.342 687.046 133.03 686.777 132.634L687.434 131.875C687.976 132.545 688.639 132.88 689.423 132.88C690.038 132.88 690.517 132.707 690.858 132.36C691.205 132.014 691.378 131.526 691.378 130.897V130.262C690.872 130.845 690.182 131.137 689.307 131.137C688.441 131.137 687.739 130.788 687.201 130.091C686.668 129.394 686.401 128.443 686.401 127.24ZM687.673 127.384C687.673 128.218 687.844 128.874 688.186 129.353C688.527 129.826 689.006 130.063 689.621 130.063C690.419 130.063 691.004 129.701 691.378 128.977V125.6C690.991 124.893 690.41 124.54 689.635 124.54C689.02 124.54 688.539 124.779 688.192 125.258C687.846 125.736 687.673 126.445 687.673 127.384ZM696.983 129.147L698.706 123.604H700.06L697.086 132.142C696.626 133.372 695.894 133.987 694.892 133.987L694.652 133.967L694.181 133.878V132.853L694.522 132.88C694.951 132.88 695.284 132.793 695.521 132.62C695.762 132.447 695.96 132.13 696.115 131.67L696.396 130.918L693.757 123.604H695.138L696.983 129.147Z" fill="black"/>
<rect x="794" y="62" width="150" height="36" fill="white"/>
<path d="M841.027 80.9736H838.689V85H837.37V75.0469H840.665C841.786 75.0469 842.647 75.3021 843.249 75.8125C843.855 76.3229 844.158 77.0658 844.158 78.041C844.158 78.6608 843.99 79.2008 843.652 79.6611C843.32 80.1214 842.855 80.4655 842.258 80.6934L844.596 84.918V85H843.188L841.027 80.9736ZM838.689 79.9004H840.706C841.358 79.9004 841.875 79.7318 842.258 79.3945C842.645 79.0573 842.839 78.6061 842.839 78.041C842.839 77.4258 842.654 76.9541 842.285 76.626C841.921 76.2979 841.392 76.1315 840.699 76.127H838.689V79.9004ZM848.875 85.1367C847.872 85.1367 847.057 84.8086 846.428 84.1523C845.799 83.4915 845.484 82.6097 845.484 81.5068V81.2744C845.484 80.5407 845.623 79.8867 845.901 79.3125C846.184 78.7337 846.576 78.2826 847.077 77.959C847.583 77.6309 848.13 77.4668 848.718 77.4668C849.679 77.4668 850.427 77.7835 850.96 78.417C851.493 79.0505 851.76 79.9574 851.76 81.1377V81.6641H846.749C846.767 82.3932 846.979 82.9834 847.385 83.4346C847.795 83.8812 848.314 84.1045 848.943 84.1045C849.39 84.1045 849.768 84.0133 850.078 83.8311C850.388 83.6488 850.659 83.4072 850.892 83.1064L851.664 83.708C851.044 84.6605 850.115 85.1367 848.875 85.1367ZM848.718 78.5059C848.207 78.5059 847.779 78.6927 847.433 79.0664C847.086 79.4355 846.872 79.9551 846.79 80.625H850.495V80.5293C850.459 79.8867 850.285 79.39 849.976 79.0391C849.666 78.6836 849.246 78.5059 848.718 78.5059ZM857.536 83.0381C857.536 82.6963 857.406 82.432 857.146 82.2451C856.891 82.0537 856.442 81.8896 855.8 81.7529C855.162 81.6162 854.654 81.4521 854.275 81.2607C853.902 81.0693 853.624 80.8415 853.441 80.5771C853.264 80.3128 853.175 79.9984 853.175 79.6338C853.175 79.0277 853.43 78.515 853.94 78.0957C854.455 77.6764 855.112 77.4668 855.909 77.4668C856.748 77.4668 857.427 77.6833 857.946 78.1162C858.47 78.5492 858.732 79.1029 858.732 79.7773H857.461C857.461 79.431 857.313 79.1325 857.017 78.8818C856.725 78.6312 856.356 78.5059 855.909 78.5059C855.449 78.5059 855.089 78.6061 854.829 78.8066C854.569 79.0072 854.439 79.2692 854.439 79.5928C854.439 79.8981 854.56 80.1283 854.802 80.2832C855.043 80.4382 855.479 80.5863 856.107 80.7275C856.741 80.8688 857.254 81.0374 857.646 81.2334C858.037 81.4294 858.327 81.6663 858.514 81.9443C858.705 82.2178 858.801 82.5527 858.801 82.9492C858.801 83.61 858.536 84.141 858.008 84.542C857.479 84.9385 856.793 85.1367 855.95 85.1367C855.358 85.1367 854.834 85.0319 854.378 84.8223C853.922 84.6126 853.564 84.321 853.305 83.9473C853.049 83.569 852.922 83.1611 852.922 82.7236H854.187C854.209 83.1475 854.378 83.4847 854.692 83.7354C855.011 83.9814 855.431 84.1045 855.95 84.1045C856.429 84.1045 856.812 84.0088 857.099 83.8174C857.39 83.6214 857.536 83.3617 857.536 83.0381ZM860.113 81.2334C860.113 80.5088 860.255 79.8571 860.537 79.2783C860.824 78.6995 861.221 78.2529 861.727 77.9385C862.237 77.624 862.818 77.4668 863.47 77.4668C864.477 77.4668 865.29 77.8154 865.91 78.5127C866.535 79.21 866.847 80.1374 866.847 81.2949V81.3838C866.847 82.1038 866.708 82.751 866.43 83.3252C866.156 83.8949 865.762 84.3392 865.247 84.6582C864.737 84.9772 864.149 85.1367 863.483 85.1367C862.481 85.1367 861.667 84.7881 861.043 84.0908C860.423 83.3936 860.113 82.4707 860.113 81.3223V81.2334ZM861.385 81.3838C861.385 82.2041 861.574 82.8626 861.952 83.3594C862.335 83.8561 862.845 84.1045 863.483 84.1045C864.126 84.1045 864.636 83.8538 865.015 83.3525C865.393 82.8467 865.582 82.1403 865.582 81.2334C865.582 80.4222 865.388 79.766 865.001 79.2646C864.618 78.7588 864.108 78.5059 863.47 78.5059C862.845 78.5059 862.342 78.7542 861.959 79.251C861.576 79.7477 861.385 80.4587 861.385 81.3838ZM872.999 84.2686C872.507 84.8473 871.785 85.1367 870.832 85.1367C870.044 85.1367 869.442 84.9089 869.027 84.4531C868.617 83.9928 868.41 83.3138 868.405 82.416V77.6035H869.67V82.3818C869.67 83.5029 870.126 84.0635 871.037 84.0635C872.003 84.0635 872.646 83.7035 872.965 82.9834V77.6035H874.229V85H873.026L872.999 84.2686ZM879.732 78.7383C879.541 78.7064 879.334 78.6904 879.11 78.6904C878.281 78.6904 877.718 79.0436 877.422 79.75V85H876.157V77.6035H877.388L877.408 78.458C877.823 77.7972 878.411 77.4668 879.172 77.4668C879.418 77.4668 879.605 77.4987 879.732 77.5625V78.7383ZM883.731 84.1045C884.183 84.1045 884.577 83.9678 884.914 83.6943C885.251 83.4209 885.438 83.0791 885.475 82.6689H886.671C886.648 83.0928 886.502 83.4961 886.233 83.8789C885.965 84.2617 885.604 84.5671 885.153 84.7949C884.707 85.0228 884.233 85.1367 883.731 85.1367C882.724 85.1367 881.922 84.8018 881.325 84.1318C880.733 83.4574 880.437 82.5368 880.437 81.3701V81.1582C880.437 80.4382 880.569 79.7979 880.833 79.2373C881.097 78.6768 881.476 78.2415 881.968 77.9316C882.465 77.6217 883.05 77.4668 883.725 77.4668C884.554 77.4668 885.242 77.7152 885.789 78.2119C886.34 78.7087 886.634 79.3535 886.671 80.1465H885.475C885.438 79.668 885.256 79.276 884.928 78.9707C884.604 78.6608 884.203 78.5059 883.725 78.5059C883.082 78.5059 882.583 78.7383 882.228 79.2031C881.877 79.6634 881.701 80.3311 881.701 81.2061V81.4453C881.701 82.2975 881.877 82.9538 882.228 83.4141C882.578 83.8743 883.08 84.1045 883.731 84.1045ZM891.162 85.1367C890.16 85.1367 889.344 84.8086 888.715 84.1523C888.086 83.4915 887.771 82.6097 887.771 81.5068V81.2744C887.771 80.5407 887.91 79.8867 888.188 79.3125C888.471 78.7337 888.863 78.2826 889.364 77.959C889.87 77.6309 890.417 77.4668 891.005 77.4668C891.966 77.4668 892.714 77.7835 893.247 78.417C893.78 79.0505 894.047 79.9574 894.047 81.1377V81.6641H889.036C889.054 82.3932 889.266 82.9834 889.672 83.4346C890.082 83.8812 890.602 84.1045 891.23 84.1045C891.677 84.1045 892.055 84.0133 892.365 83.8311C892.675 83.6488 892.946 83.4072 893.179 83.1064L893.951 83.708C893.331 84.6605 892.402 85.1367 891.162 85.1367ZM891.005 78.5059C890.494 78.5059 890.066 78.6927 889.72 79.0664C889.373 79.4355 889.159 79.9551 889.077 80.625H892.782V80.5293C892.746 79.8867 892.573 79.39 892.263 79.0391C891.953 78.6836 891.534 78.5059 891.005 78.5059ZM899.823 83.0381C899.823 82.6963 899.693 82.432 899.434 82.2451C899.178 82.0537 898.729 81.8896 898.087 81.7529C897.449 81.6162 896.941 81.4521 896.562 81.2607C896.189 81.0693 895.911 80.8415 895.729 80.5771C895.551 80.3128 895.462 79.9984 895.462 79.6338C895.462 79.0277 895.717 78.515 896.228 78.0957C896.743 77.6764 897.399 77.4668 898.196 77.4668C899.035 77.4668 899.714 77.6833 900.233 78.1162C900.757 78.5492 901.02 79.1029 901.02 79.7773H899.748C899.748 79.431 899.6 79.1325 899.304 78.8818C899.012 78.6312 898.643 78.5059 898.196 78.5059C897.736 78.5059 897.376 78.6061 897.116 78.8066C896.856 79.0072 896.727 79.2692 896.727 79.5928C896.727 79.8981 896.847 80.1283 897.089 80.2832C897.33 80.4382 897.766 80.5863 898.395 80.7275C899.028 80.8688 899.541 81.0374 899.933 81.2334C900.325 81.4294 900.614 81.6663 900.801 81.9443C900.992 82.2178 901.088 82.5527 901.088 82.9492C901.088 83.61 900.824 84.141 900.295 84.542C899.766 84.9385 899.08 85.1367 898.237 85.1367C897.645 85.1367 897.121 85.0319 896.665 84.8223C896.209 84.6126 895.852 84.321 895.592 83.9473C895.337 83.569 895.209 83.1611 895.209 82.7236H896.474C896.496 83.1475 896.665 83.4847 896.979 83.7354C897.299 83.9814 897.718 84.1045 898.237 84.1045C898.716 84.1045 899.099 84.0088 899.386 83.8174C899.677 83.6214 899.823 83.3617 899.823 83.0381Z" fill="black"/>
</svg>
