<svg width="1440" height="1024" viewBox="0 0 1440 1024" fill="none" xmlns="http://www.w3.org/2000/svg">
<rect width="1440" height="1024" fill="white"/>
<rect x="717" y="78" width="702" height="928" fill="#F2F2F2"/>
<rect width="1440" height="60" fill="black"/>
<path d="M36.6475 33.8955C36.4814 36.1904 35.6318 37.9971 34.0986 39.3154C32.5752 40.6338 30.5635 41.293 28.0635 41.293C25.3291 41.293 23.1758 40.375 21.6035 38.5391C20.041 36.6934 19.2598 34.1641 19.2598 30.9512V29.6475C19.2598 27.5967 19.6211 25.79 20.3438 24.2275C21.0664 22.665 22.0967 21.4688 23.4346 20.6387C24.7822 19.7988 26.3447 19.3789 28.1221 19.3789C30.583 19.3789 32.5654 20.0381 34.0693 21.3564C35.5732 22.6748 36.4424 24.5254 36.6768 26.9082H32.2822C32.1748 25.5312 31.7891 24.5352 31.125 23.9199C30.4707 23.2949 29.4697 22.9824 28.1221 22.9824C26.6572 22.9824 25.5586 23.5098 24.8262 24.5645C24.1035 25.6094 23.7324 27.2354 23.7129 29.4424V31.0537C23.7129 33.3584 24.0596 35.043 24.7529 36.1074C25.4561 37.1719 26.5596 37.7041 28.0635 37.7041C29.4209 37.7041 30.4316 37.3965 31.0957 36.7812C31.7695 36.1562 32.1553 35.1943 32.2529 33.8955H36.6475ZM43.9277 37.4697H53.2588V41H39.5332V19.6719H43.9277V37.4697ZM60.4658 41H56.0713V19.6719H60.4658V41ZM77.3848 31.7568H68.9473V37.4697H78.8496V41H64.5527V19.6719H78.8203V23.2314H68.9473V28.3145H77.3848V31.7568ZM98.7715 41H94.377L85.8223 26.9668V41H81.4277V19.6719H85.8223L94.3916 33.7344V19.6719H98.7715V41ZM118.225 23.2314H111.691V41H107.297V23.2314H100.852V19.6719H118.225V23.2314ZM131.73 33.4854V41H127.336V19.6719H135.656C137.258 19.6719 138.664 19.9648 139.875 20.5508C141.096 21.1367 142.033 21.9717 142.688 23.0557C143.342 24.1299 143.669 25.3555 143.669 26.7324C143.669 28.8223 142.951 30.4727 141.516 31.6836C140.09 32.8848 138.112 33.4854 135.583 33.4854H131.73ZM131.73 29.9258H135.656C136.818 29.9258 137.702 29.6523 138.308 29.1055C138.923 28.5586 139.23 27.7773 139.23 26.7617C139.23 25.7168 138.923 24.8721 138.308 24.2275C137.692 23.583 136.843 23.251 135.759 23.2314H131.73V29.9258ZM164.221 30.8193C164.221 32.9189 163.85 34.7598 163.107 36.3418C162.365 37.9238 161.301 39.1445 159.914 40.0039C158.537 40.8633 156.955 41.293 155.168 41.293C153.4 41.293 151.823 40.8682 150.437 40.0186C149.05 39.1689 147.976 37.958 147.214 36.3857C146.452 34.8037 146.066 32.9873 146.057 30.9365V29.8818C146.057 27.7822 146.433 25.9365 147.185 24.3447C147.946 22.7432 149.016 21.5176 150.393 20.668C151.779 19.8086 153.361 19.3789 155.139 19.3789C156.916 19.3789 158.493 19.8086 159.87 20.668C161.257 21.5176 162.326 22.7432 163.078 24.3447C163.84 25.9365 164.221 27.7773 164.221 29.8672V30.8193ZM159.768 29.8525C159.768 27.6162 159.367 25.917 158.566 24.7549C157.766 23.5928 156.623 23.0117 155.139 23.0117C153.664 23.0117 152.526 23.5879 151.726 24.7402C150.925 25.8828 150.52 27.5625 150.51 29.7793V30.8193C150.51 32.9971 150.91 34.6865 151.711 35.8877C152.512 37.0889 153.664 37.6895 155.168 37.6895C156.643 37.6895 157.775 37.1133 158.566 35.9609C159.357 34.7988 159.758 33.1094 159.768 30.8926V29.8525ZM175.31 33.1924H171.809V41H167.414V19.6719H175.339C177.858 19.6719 179.802 20.2334 181.169 21.3564C182.536 22.4795 183.22 24.0664 183.22 26.1172C183.22 27.5723 182.902 28.7881 182.268 29.7646C181.643 30.7314 180.69 31.5029 179.411 32.0791L184.025 40.7949V41H179.309L175.31 33.1924ZM171.809 29.6328H175.354C176.457 29.6328 177.312 29.3545 177.917 28.7979C178.522 28.2314 178.825 27.4551 178.825 26.4688C178.825 25.4629 178.537 24.6719 177.961 24.0957C177.395 23.5195 176.521 23.2314 175.339 23.2314H171.809V29.6328ZM201.896 23.2314H195.363V41H190.969V23.2314H184.523V19.6719H201.896V23.2314ZM214.699 36.6055H206.994L205.529 41H200.856L208.796 19.6719H212.868L220.852 41H216.179L214.699 36.6055ZM208.181 33.0459H213.513L210.832 25.0625L208.181 33.0459ZM227.238 37.4697H236.569V41H222.844V19.6719H227.238V37.4697Z" fill="white"/>
<path d="M760.887 99.9375L766.465 113.859L772.043 99.9375H774.961V117H772.711V110.355L772.922 103.184L767.32 117H765.598L760.008 103.219L760.23 110.355V117H757.98V99.9375H760.887ZM778.02 110.543C778.02 109.301 778.262 108.184 778.746 107.191C779.238 106.199 779.918 105.434 780.785 104.895C781.66 104.355 782.656 104.086 783.773 104.086C785.5 104.086 786.895 104.684 787.957 105.879C789.027 107.074 789.562 108.664 789.562 110.648V110.801C789.562 112.035 789.324 113.145 788.848 114.129C788.379 115.105 787.703 115.867 786.82 116.414C785.945 116.961 784.938 117.234 783.797 117.234C782.078 117.234 780.684 116.637 779.613 115.441C778.551 114.246 778.02 112.664 778.02 110.695V110.543ZM780.199 110.801C780.199 112.207 780.523 113.336 781.172 114.188C781.828 115.039 782.703 115.465 783.797 115.465C784.898 115.465 785.773 115.035 786.422 114.176C787.07 113.309 787.395 112.098 787.395 110.543C787.395 109.152 787.062 108.027 786.398 107.168C785.742 106.301 784.867 105.867 783.773 105.867C782.703 105.867 781.84 106.293 781.184 107.145C780.527 107.996 780.199 109.215 780.199 110.801ZM794.332 104.32L794.402 105.914C795.371 104.695 796.637 104.086 798.199 104.086C800.879 104.086 802.23 105.598 802.254 108.621V117H800.086V108.609C800.078 107.695 799.867 107.02 799.453 106.582C799.047 106.145 798.41 105.926 797.543 105.926C796.84 105.926 796.223 106.113 795.691 106.488C795.16 106.863 794.746 107.355 794.449 107.965V117H792.281V104.32H794.332ZM804.996 110.555C804.996 108.609 805.457 107.047 806.379 105.867C807.301 104.68 808.508 104.086 810 104.086C811.484 104.086 812.66 104.594 813.527 105.609V99H815.695V117H813.703L813.598 115.641C812.73 116.703 811.523 117.234 809.977 117.234C808.508 117.234 807.309 116.633 806.379 115.43C805.457 114.227 804.996 112.656 804.996 110.719V110.555ZM807.164 110.801C807.164 112.238 807.461 113.363 808.055 114.176C808.648 114.988 809.469 115.395 810.516 115.395C811.891 115.395 812.895 114.777 813.527 113.543V107.719C812.879 106.523 811.883 105.926 810.539 105.926C809.477 105.926 808.648 106.336 808.055 107.156C807.461 107.977 807.164 109.191 807.164 110.801ZM826.898 117C826.773 116.75 826.672 116.305 826.594 115.664C825.586 116.711 824.383 117.234 822.984 117.234C821.734 117.234 820.707 116.883 819.902 116.18C819.105 115.469 818.707 114.57 818.707 113.484C818.707 112.164 819.207 111.141 820.207 110.414C821.215 109.68 822.629 109.312 824.449 109.312H826.559V108.316C826.559 107.559 826.332 106.957 825.879 106.512C825.426 106.059 824.758 105.832 823.875 105.832C823.102 105.832 822.453 106.027 821.93 106.418C821.406 106.809 821.145 107.281 821.145 107.836H818.965C818.965 107.203 819.188 106.594 819.633 106.008C820.086 105.414 820.695 104.945 821.461 104.602C822.234 104.258 823.082 104.086 824.004 104.086C825.465 104.086 826.609 104.453 827.438 105.188C828.266 105.914 828.695 106.918 828.727 108.199V114.035C828.727 115.199 828.875 116.125 829.172 116.812V117H826.898ZM823.301 115.348C823.98 115.348 824.625 115.172 825.234 114.82C825.844 114.469 826.285 114.012 826.559 113.449V110.848H824.859C822.203 110.848 820.875 111.625 820.875 113.18C820.875 113.859 821.102 114.391 821.555 114.773C822.008 115.156 822.59 115.348 823.301 115.348ZM836.086 113.824L839.039 104.32H841.359L836.262 118.957C835.473 121.066 834.219 122.121 832.5 122.121L832.09 122.086L831.281 121.934V120.176L831.867 120.223C832.602 120.223 833.172 120.074 833.578 119.777C833.992 119.48 834.332 118.938 834.598 118.148L835.078 116.859L830.555 104.32H832.922L836.086 113.824ZM841.969 120.398L840.738 119.555C841.473 118.531 841.855 117.477 841.887 116.391V114.434H844.008V116.133C844.008 116.922 843.812 117.711 843.422 118.5C843.039 119.289 842.555 119.922 841.969 120.398ZM862.465 112.547H855.316L853.711 117H851.391L857.906 99.9375H859.875L866.402 117H864.094L862.465 112.547ZM855.996 110.695H861.797L858.891 102.715L855.996 110.695ZM876.047 115.746C875.203 116.738 873.965 117.234 872.332 117.234C870.98 117.234 869.949 116.844 869.238 116.062C868.535 115.273 868.18 114.109 868.172 112.57V104.32H870.34V112.512C870.34 114.434 871.121 115.395 872.684 115.395C874.34 115.395 875.441 114.777 875.988 113.543V104.32H878.156V117H876.094L876.047 115.746ZM880.945 110.555C880.945 108.578 881.402 107.008 882.316 105.844C883.23 104.672 884.441 104.086 885.949 104.086C887.496 104.086 888.703 104.633 889.57 105.727L889.676 104.32H891.656V116.695C891.656 118.336 891.168 119.629 890.191 120.574C889.223 121.52 887.918 121.992 886.277 121.992C885.363 121.992 884.469 121.797 883.594 121.406C882.719 121.016 882.051 120.48 881.59 119.801L882.715 118.5C883.645 119.648 884.781 120.223 886.125 120.223C887.18 120.223 888 119.926 888.586 119.332C889.18 118.738 889.477 117.902 889.477 116.824V115.734C888.609 116.734 887.426 117.234 885.926 117.234C884.441 117.234 883.238 116.637 882.316 115.441C881.402 114.246 880.945 112.617 880.945 110.555ZM883.125 110.801C883.125 112.23 883.418 113.355 884.004 114.176C884.59 114.988 885.41 115.395 886.465 115.395C887.832 115.395 888.836 114.773 889.477 113.531V107.742C888.812 106.531 887.816 105.926 886.488 105.926C885.434 105.926 884.609 106.336 884.016 107.156C883.422 107.977 883.125 109.191 883.125 110.801ZM902.766 115.746C901.922 116.738 900.684 117.234 899.051 117.234C897.699 117.234 896.668 116.844 895.957 116.062C895.254 115.273 894.898 114.109 894.891 112.57V104.32H897.059V112.512C897.059 114.434 897.84 115.395 899.402 115.395C901.059 115.395 902.16 114.777 902.707 113.543V104.32H904.875V117H902.812L902.766 115.746ZM915.562 113.637C915.562 113.051 915.34 112.598 914.895 112.277C914.457 111.949 913.688 111.668 912.586 111.434C911.492 111.199 910.621 110.918 909.973 110.59C909.332 110.262 908.855 109.871 908.543 109.418C908.238 108.965 908.086 108.426 908.086 107.801C908.086 106.762 908.523 105.883 909.398 105.164C910.281 104.445 911.406 104.086 912.773 104.086C914.211 104.086 915.375 104.457 916.266 105.199C917.164 105.941 917.613 106.891 917.613 108.047H915.434C915.434 107.453 915.18 106.941 914.672 106.512C914.172 106.082 913.539 105.867 912.773 105.867C911.984 105.867 911.367 106.039 910.922 106.383C910.477 106.727 910.254 107.176 910.254 107.73C910.254 108.254 910.461 108.648 910.875 108.914C911.289 109.18 912.035 109.434 913.113 109.676C914.199 109.918 915.078 110.207 915.75 110.543C916.422 110.879 916.918 111.285 917.238 111.762C917.566 112.23 917.73 112.805 917.73 113.484C917.73 114.617 917.277 115.527 916.371 116.215C915.465 116.895 914.289 117.234 912.844 117.234C911.828 117.234 910.93 117.055 910.148 116.695C909.367 116.336 908.754 115.836 908.309 115.195C907.871 114.547 907.652 113.848 907.652 113.098H909.82C909.859 113.824 910.148 114.402 910.688 114.832C911.234 115.254 911.953 115.465 912.844 115.465C913.664 115.465 914.32 115.301 914.812 114.973C915.312 114.637 915.562 114.191 915.562 113.637ZM923.496 101.25V104.32H925.863V105.996H923.496V113.859C923.496 114.367 923.602 114.75 923.812 115.008C924.023 115.258 924.383 115.383 924.891 115.383C925.141 115.383 925.484 115.336 925.922 115.242V117C925.352 117.156 924.797 117.234 924.258 117.234C923.289 117.234 922.559 116.941 922.066 116.355C921.574 115.77 921.328 114.938 921.328 113.859V105.996H919.02V104.32H921.328V101.25H923.496ZM937.289 107.414H938.918C939.941 107.398 940.746 107.129 941.332 106.605C941.918 106.082 942.211 105.375 942.211 104.484C942.211 102.484 941.215 101.484 939.223 101.484C938.285 101.484 937.535 101.754 936.973 102.293C936.418 102.824 936.141 103.531 936.141 104.414H933.973C933.973 103.062 934.465 101.941 935.449 101.051C936.441 100.152 937.699 99.7031 939.223 99.7031C940.832 99.7031 942.094 100.129 943.008 100.98C943.922 101.832 944.379 103.016 944.379 104.531C944.379 105.273 944.137 105.992 943.652 106.688C943.176 107.383 942.523 107.902 941.695 108.246C942.633 108.543 943.355 109.035 943.863 109.723C944.379 110.41 944.637 111.25 944.637 112.242C944.637 113.773 944.137 114.988 943.137 115.887C942.137 116.785 940.836 117.234 939.234 117.234C937.633 117.234 936.328 116.801 935.32 115.934C934.32 115.066 933.82 113.922 933.82 112.5H936C936 113.398 936.293 114.117 936.879 114.656C937.465 115.195 938.25 115.465 939.234 115.465C940.281 115.465 941.082 115.191 941.637 114.645C942.191 114.098 942.469 113.312 942.469 112.289C942.469 111.297 942.164 110.535 941.555 110.004C940.945 109.473 940.066 109.199 938.918 109.184H937.289V107.414ZM947.766 120.398L946.535 119.555C947.27 118.531 947.652 117.477 947.684 116.391V114.434H949.805V116.133C949.805 116.922 949.609 117.711 949.219 118.5C948.836 119.289 948.352 119.922 947.766 120.398ZM969.457 117H958.277V115.441L964.184 108.879C965.059 107.887 965.66 107.082 965.988 106.465C966.324 105.84 966.492 105.195 966.492 104.531C966.492 103.641 966.223 102.91 965.684 102.34C965.145 101.77 964.426 101.484 963.527 101.484C962.449 101.484 961.609 101.793 961.008 102.41C960.414 103.02 960.117 103.871 960.117 104.965H957.949C957.949 103.395 958.453 102.125 959.461 101.156C960.477 100.188 961.832 99.7031 963.527 99.7031C965.113 99.7031 966.367 100.121 967.289 100.957C968.211 101.785 968.672 102.891 968.672 104.273C968.672 105.953 967.602 107.953 965.461 110.273L960.891 115.23H969.457V117ZM982.453 109.723C982.453 112.262 982.02 114.148 981.152 115.383C980.285 116.617 978.93 117.234 977.086 117.234C975.266 117.234 973.918 116.633 973.043 115.43C972.168 114.219 971.715 112.414 971.684 110.016V107.121C971.684 104.613 972.117 102.75 972.984 101.531C973.852 100.312 975.211 99.7031 977.062 99.7031C978.898 99.7031 980.25 100.293 981.117 101.473C981.984 102.645 982.43 104.457 982.453 106.91V109.723ZM980.285 106.758C980.285 104.922 980.027 103.586 979.512 102.75C978.996 101.906 978.18 101.484 977.062 101.484C975.953 101.484 975.145 101.902 974.637 102.738C974.129 103.574 973.867 104.859 973.852 106.594V110.062C973.852 111.906 974.117 113.27 974.648 114.152C975.188 115.027 976 115.465 977.086 115.465C978.156 115.465 978.949 115.051 979.465 114.223C979.988 113.395 980.262 112.09 980.285 110.309V106.758ZM996.41 117H985.23V115.441L991.137 108.879C992.012 107.887 992.613 107.082 992.941 106.465C993.277 105.84 993.445 105.195 993.445 104.531C993.445 103.641 993.176 102.91 992.637 102.34C992.098 101.77 991.379 101.484 990.48 101.484C989.402 101.484 988.562 101.793 987.961 102.41C987.367 103.02 987.07 103.871 987.07 104.965H984.902C984.902 103.395 985.406 102.125 986.414 101.156C987.43 100.188 988.785 99.7031 990.48 99.7031C992.066 99.7031 993.32 100.121 994.242 100.957C995.164 101.785 995.625 102.891 995.625 104.273C995.625 105.953 994.555 107.953 992.414 110.273L987.844 115.23H996.41V117ZM1009.41 109.723C1009.41 112.262 1008.97 114.148 1008.11 115.383C1007.24 116.617 1005.88 117.234 1004.04 117.234C1002.22 117.234 1000.87 116.633 999.996 115.43C999.121 114.219 998.668 112.414 998.637 110.016V107.121C998.637 104.613 999.07 102.75 999.938 101.531C1000.8 100.312 1002.16 99.7031 1004.02 99.7031C1005.85 99.7031 1007.2 100.293 1008.07 101.473C1008.94 102.645 1009.38 104.457 1009.41 106.91V109.723ZM1007.24 106.758C1007.24 104.922 1006.98 103.586 1006.46 102.75C1005.95 101.906 1005.13 101.484 1004.02 101.484C1002.91 101.484 1002.1 101.902 1001.59 102.738C1001.08 103.574 1000.82 104.859 1000.8 106.594V110.062C1000.8 111.906 1001.07 113.27 1001.6 114.152C1002.14 115.027 1002.95 115.465 1004.04 115.465C1005.11 115.465 1005.9 115.051 1006.42 114.223C1006.94 113.395 1007.21 112.09 1007.24 110.309V106.758Z" fill="black"/>
<path d="M1011.89 325V307.938H1016.71C1018.19 307.938 1019.5 308.266 1020.64 308.922C1021.79 309.578 1022.66 310.512 1023.28 311.723C1023.91 312.934 1024.22 314.324 1024.23 315.895V316.984C1024.23 318.594 1023.92 320.004 1023.29 321.215C1022.68 322.426 1021.79 323.355 1020.63 324.004C1019.48 324.652 1018.14 324.984 1016.61 325H1011.89ZM1014.14 309.789V323.16H1016.51C1018.24 323.16 1019.59 322.621 1020.55 321.543C1021.52 320.465 1022 318.93 1022 316.938V315.941C1022 314.004 1021.55 312.5 1020.63 311.43C1019.73 310.352 1018.44 309.805 1016.77 309.789H1014.14ZM1040.77 317.02C1040.77 318.691 1040.48 320.152 1039.92 321.402C1039.36 322.645 1038.56 323.594 1037.53 324.25C1036.5 324.906 1035.3 325.234 1033.92 325.234C1032.58 325.234 1031.39 324.906 1030.35 324.25C1029.31 323.586 1028.5 322.645 1027.92 321.426C1027.35 320.199 1027.06 318.781 1027.04 317.172V315.941C1027.04 314.301 1027.33 312.852 1027.9 311.594C1028.47 310.336 1029.27 309.375 1030.31 308.711C1031.36 308.039 1032.55 307.703 1033.9 307.703C1035.27 307.703 1036.47 308.035 1037.51 308.699C1038.55 309.355 1039.36 310.312 1039.92 311.57C1040.48 312.82 1040.77 314.277 1040.77 315.941V317.02ZM1038.53 315.918C1038.53 313.895 1038.12 312.344 1037.31 311.266C1036.5 310.18 1035.36 309.637 1033.9 309.637C1032.48 309.637 1031.36 310.18 1030.54 311.266C1029.72 312.344 1029.3 313.844 1029.28 315.766V317.02C1029.28 318.98 1029.69 320.523 1030.51 321.648C1031.34 322.766 1032.48 323.324 1033.92 323.324C1035.38 323.324 1036.5 322.797 1037.3 321.742C1038.09 320.68 1038.5 319.16 1038.53 317.184V315.918ZM1056.69 319.586C1056.48 321.391 1055.81 322.785 1054.69 323.77C1053.57 324.746 1052.08 325.234 1050.22 325.234C1048.21 325.234 1046.59 324.512 1045.37 323.066C1044.16 321.621 1043.55 319.688 1043.55 317.266V315.625C1043.55 314.039 1043.84 312.645 1044.4 311.441C1044.97 310.238 1045.77 309.316 1046.81 308.676C1047.85 308.027 1049.05 307.703 1050.42 307.703C1052.23 307.703 1053.69 308.211 1054.78 309.227C1055.88 310.234 1056.51 311.633 1056.69 313.422H1054.43C1054.23 312.062 1053.81 311.078 1053.15 310.469C1052.5 309.859 1051.59 309.555 1050.42 309.555C1048.98 309.555 1047.86 310.086 1047.04 311.148C1046.22 312.211 1045.82 313.723 1045.82 315.684V317.336C1045.82 319.188 1046.2 320.66 1046.98 321.754C1047.75 322.848 1048.83 323.395 1050.22 323.395C1051.47 323.395 1052.43 323.113 1053.09 322.551C1053.77 321.98 1054.21 320.992 1054.43 319.586H1056.69ZM1071.79 307.938V319.539C1071.78 321.148 1071.27 322.465 1070.26 323.488C1069.26 324.512 1067.9 325.086 1066.18 325.211L1065.59 325.234C1063.72 325.234 1062.23 324.73 1061.12 323.723C1060.01 322.715 1059.45 321.328 1059.43 319.562V307.938H1061.66V319.492C1061.66 320.727 1062 321.688 1062.68 322.375C1063.36 323.055 1064.33 323.395 1065.59 323.395C1066.86 323.395 1067.83 323.055 1068.5 322.375C1069.18 321.695 1069.52 320.738 1069.52 319.504V307.938H1071.79ZM1078.24 307.938L1083.82 321.859L1089.4 307.938H1092.32V325H1090.07V318.355L1090.28 311.184L1084.68 325H1082.95L1077.36 311.219L1077.59 318.355V325H1075.34V307.938H1078.24ZM1105.93 317.113H1098.54V323.16H1107.13V325H1096.29V307.938H1107.01V309.789H1098.54V315.273H1105.93V317.113ZM1123.04 325H1120.78L1112.19 311.852V325H1109.93V307.938H1112.19L1120.8 321.145V307.938H1123.04V325ZM1138.48 309.789H1132.99V325H1130.75V309.789H1125.28V307.938H1138.48V309.789ZM1145.85 317.395C1143.92 316.84 1142.51 316.16 1141.63 315.355C1140.75 314.543 1140.32 313.543 1140.32 312.355C1140.32 311.012 1140.85 309.902 1141.92 309.027C1143 308.145 1144.4 307.703 1146.12 307.703C1147.29 307.703 1148.33 307.93 1149.25 308.383C1150.17 308.836 1150.88 309.461 1151.38 310.258C1151.89 311.055 1152.14 311.926 1152.14 312.871H1149.88C1149.88 311.84 1149.55 311.031 1148.89 310.445C1148.24 309.852 1147.31 309.555 1146.12 309.555C1145.01 309.555 1144.14 309.801 1143.52 310.293C1142.9 310.777 1142.59 311.453 1142.59 312.32C1142.59 313.016 1142.88 313.605 1143.47 314.09C1144.06 314.566 1145.07 315.004 1146.48 315.402C1147.9 315.801 1149.01 316.242 1149.81 316.727C1150.61 317.203 1151.21 317.762 1151.59 318.402C1151.98 319.043 1152.18 319.797 1152.18 320.664C1152.18 322.047 1151.64 323.156 1150.56 323.992C1149.48 324.82 1148.04 325.234 1146.23 325.234C1145.06 325.234 1143.97 325.012 1142.95 324.566C1141.94 324.113 1141.15 323.496 1140.6 322.715C1140.05 321.934 1139.78 321.047 1139.78 320.055H1142.04C1142.04 321.086 1142.42 321.902 1143.18 322.504C1143.94 323.098 1144.96 323.395 1146.23 323.395C1147.42 323.395 1148.33 323.152 1148.96 322.668C1149.6 322.184 1149.91 321.523 1149.91 320.688C1149.91 319.852 1149.62 319.207 1149.04 318.754C1148.45 318.293 1147.39 317.84 1145.85 317.395Z" fill="white"/>
<rect x="756.5" y="141.5" width="622" height="399" fill="#F2F2F2" stroke="black"/>
<rect x="756" y="141" width="623" height="50" fill="black"/>
<path d="M1046.58 158.789H1041.1V174H1038.86V158.789H1033.39V156.938H1046.58V158.789ZM1061.91 166.02C1061.91 167.691 1061.63 169.152 1061.07 170.402C1060.5 171.645 1059.71 172.594 1058.68 173.25C1057.64 173.906 1056.44 174.234 1055.07 174.234C1053.72 174.234 1052.53 173.906 1051.49 173.25C1050.45 172.586 1049.64 171.645 1049.07 170.426C1048.5 169.199 1048.2 167.781 1048.19 166.172V164.941C1048.19 163.301 1048.47 161.852 1049.04 160.594C1049.61 159.336 1050.42 158.375 1051.46 157.711C1052.5 157.039 1053.7 156.703 1055.04 156.703C1056.41 156.703 1057.61 157.035 1058.65 157.699C1059.7 158.355 1060.5 159.312 1061.07 160.57C1061.63 161.82 1061.91 163.277 1061.91 164.941V166.02ZM1059.67 164.918C1059.67 162.895 1059.27 161.344 1058.45 160.266C1057.64 159.18 1056.5 158.637 1055.04 158.637C1053.62 158.637 1052.5 159.18 1051.68 160.266C1050.87 161.344 1050.45 162.844 1050.43 164.766V166.02C1050.43 167.98 1050.84 169.523 1051.66 170.648C1052.48 171.766 1053.62 172.324 1055.07 172.324C1056.52 172.324 1057.64 171.797 1058.44 170.742C1059.24 169.68 1059.65 168.16 1059.67 166.184V164.918ZM1069.46 167.637H1063.74V165.867H1069.46V167.637ZM1071.92 174V156.938H1076.73C1078.22 156.938 1079.53 157.266 1080.67 157.922C1081.81 158.578 1082.69 159.512 1083.31 160.723C1083.93 161.934 1084.25 163.324 1084.26 164.895V165.984C1084.26 167.594 1083.95 169.004 1083.32 170.215C1082.7 171.426 1081.82 172.355 1080.66 173.004C1079.51 173.652 1078.17 173.984 1076.64 174H1071.92ZM1074.17 158.789V172.16H1076.54C1078.27 172.16 1079.62 171.621 1080.58 170.543C1081.55 169.465 1082.03 167.93 1082.03 165.938V164.941C1082.03 163.004 1081.57 161.5 1080.66 160.43C1079.75 159.352 1078.46 158.805 1076.79 158.789H1074.17ZM1100.79 166.02C1100.79 167.691 1100.51 169.152 1099.95 170.402C1099.39 171.645 1098.59 172.594 1097.56 173.25C1096.53 173.906 1095.32 174.234 1093.95 174.234C1092.61 174.234 1091.41 173.906 1090.38 173.25C1089.34 172.586 1088.53 171.645 1087.95 170.426C1087.38 169.199 1087.09 167.781 1087.07 166.172V164.941C1087.07 163.301 1087.36 161.852 1087.93 160.594C1088.5 159.336 1089.3 158.375 1090.34 157.711C1091.39 157.039 1092.58 156.703 1093.93 156.703C1095.29 156.703 1096.5 157.035 1097.54 157.699C1098.58 158.355 1099.39 159.312 1099.95 160.57C1100.51 161.82 1100.79 163.277 1100.79 164.941V166.02ZM1098.55 164.918C1098.55 162.895 1098.15 161.344 1097.34 160.266C1096.52 159.18 1095.39 158.637 1093.93 158.637C1092.5 158.637 1091.38 159.18 1090.56 160.266C1089.75 161.344 1089.33 162.844 1089.31 164.766V166.02C1089.31 167.98 1089.72 169.523 1090.54 170.648C1091.37 171.766 1092.5 172.324 1093.95 172.324C1095.4 172.324 1096.53 171.797 1097.32 170.742C1098.12 169.68 1098.53 168.16 1098.55 166.184V164.918Z" fill="white"/>
<path d="M1011.89 772V754.938H1016.71C1018.19 754.938 1019.5 755.266 1020.64 755.922C1021.79 756.578 1022.66 757.512 1023.28 758.723C1023.91 759.934 1024.22 761.324 1024.23 762.895V763.984C1024.23 765.594 1023.92 767.004 1023.29 768.215C1022.68 769.426 1021.79 770.355 1020.63 771.004C1019.48 771.652 1018.14 771.984 1016.61 772H1011.89ZM1014.14 756.789V770.16H1016.51C1018.24 770.16 1019.59 769.621 1020.55 768.543C1021.52 767.465 1022 765.93 1022 763.938V762.941C1022 761.004 1021.55 759.5 1020.63 758.43C1019.73 757.352 1018.44 756.805 1016.77 756.789H1014.14ZM1040.77 764.02C1040.77 765.691 1040.48 767.152 1039.92 768.402C1039.36 769.645 1038.56 770.594 1037.53 771.25C1036.5 771.906 1035.3 772.234 1033.92 772.234C1032.58 772.234 1031.39 771.906 1030.35 771.25C1029.31 770.586 1028.5 769.645 1027.92 768.426C1027.35 767.199 1027.06 765.781 1027.04 764.172V762.941C1027.04 761.301 1027.33 759.852 1027.9 758.594C1028.47 757.336 1029.27 756.375 1030.31 755.711C1031.36 755.039 1032.55 754.703 1033.9 754.703C1035.27 754.703 1036.47 755.035 1037.51 755.699C1038.55 756.355 1039.36 757.312 1039.92 758.57C1040.48 759.82 1040.77 761.277 1040.77 762.941V764.02ZM1038.53 762.918C1038.53 760.895 1038.12 759.344 1037.31 758.266C1036.5 757.18 1035.36 756.637 1033.9 756.637C1032.48 756.637 1031.36 757.18 1030.54 758.266C1029.72 759.344 1029.3 760.844 1029.28 762.766V764.02C1029.28 765.98 1029.69 767.523 1030.51 768.648C1031.34 769.766 1032.48 770.324 1033.92 770.324C1035.38 770.324 1036.5 769.797 1037.3 768.742C1038.09 767.68 1038.5 766.16 1038.53 764.184V762.918ZM1056.69 766.586C1056.48 768.391 1055.81 769.785 1054.69 770.77C1053.57 771.746 1052.08 772.234 1050.22 772.234C1048.21 772.234 1046.59 771.512 1045.37 770.066C1044.16 768.621 1043.55 766.688 1043.55 764.266V762.625C1043.55 761.039 1043.84 759.645 1044.4 758.441C1044.97 757.238 1045.77 756.316 1046.81 755.676C1047.85 755.027 1049.05 754.703 1050.42 754.703C1052.23 754.703 1053.69 755.211 1054.78 756.227C1055.88 757.234 1056.51 758.633 1056.69 760.422H1054.43C1054.23 759.062 1053.81 758.078 1053.15 757.469C1052.5 756.859 1051.59 756.555 1050.42 756.555C1048.98 756.555 1047.86 757.086 1047.04 758.148C1046.22 759.211 1045.82 760.723 1045.82 762.684V764.336C1045.82 766.188 1046.2 767.66 1046.98 768.754C1047.75 769.848 1048.83 770.395 1050.22 770.395C1051.47 770.395 1052.43 770.113 1053.09 769.551C1053.77 768.98 1054.21 767.992 1054.43 766.586H1056.69ZM1071.79 754.938V766.539C1071.78 768.148 1071.27 769.465 1070.26 770.488C1069.26 771.512 1067.9 772.086 1066.18 772.211L1065.59 772.234C1063.72 772.234 1062.23 771.73 1061.12 770.723C1060.01 769.715 1059.45 768.328 1059.43 766.562V754.938H1061.66V766.492C1061.66 767.727 1062 768.688 1062.68 769.375C1063.36 770.055 1064.33 770.395 1065.59 770.395C1066.86 770.395 1067.83 770.055 1068.5 769.375C1069.18 768.695 1069.52 767.738 1069.52 766.504V754.938H1071.79ZM1078.24 754.938L1083.82 768.859L1089.4 754.938H1092.32V772H1090.07V765.355L1090.28 758.184L1084.68 772H1082.95L1077.36 758.219L1077.59 765.355V772H1075.34V754.938H1078.24ZM1105.93 764.113H1098.54V770.16H1107.13V772H1096.29V754.938H1107.01V756.789H1098.54V762.273H1105.93V764.113ZM1123.04 772H1120.78L1112.19 758.852V772H1109.93V754.938H1112.19L1120.8 768.145V754.938H1123.04V772ZM1138.48 756.789H1132.99V772H1130.75V756.789H1125.28V754.938H1138.48V756.789ZM1145.85 764.395C1143.92 763.84 1142.51 763.16 1141.63 762.355C1140.75 761.543 1140.32 760.543 1140.32 759.355C1140.32 758.012 1140.85 756.902 1141.92 756.027C1143 755.145 1144.4 754.703 1146.12 754.703C1147.29 754.703 1148.33 754.93 1149.25 755.383C1150.17 755.836 1150.88 756.461 1151.38 757.258C1151.89 758.055 1152.14 758.926 1152.14 759.871H1149.88C1149.88 758.84 1149.55 758.031 1148.89 757.445C1148.24 756.852 1147.31 756.555 1146.12 756.555C1145.01 756.555 1144.14 756.801 1143.52 757.293C1142.9 757.777 1142.59 758.453 1142.59 759.32C1142.59 760.016 1142.88 760.605 1143.47 761.09C1144.06 761.566 1145.07 762.004 1146.48 762.402C1147.9 762.801 1149.01 763.242 1149.81 763.727C1150.61 764.203 1151.21 764.762 1151.59 765.402C1151.98 766.043 1152.18 766.797 1152.18 767.664C1152.18 769.047 1151.64 770.156 1150.56 770.992C1149.48 771.82 1148.04 772.234 1146.23 772.234C1145.06 772.234 1143.97 772.012 1142.95 771.566C1141.94 771.113 1141.15 770.496 1140.6 769.715C1140.05 768.934 1139.78 768.047 1139.78 767.055H1142.04C1142.04 768.086 1142.42 768.902 1143.18 769.504C1143.94 770.098 1144.96 770.395 1146.23 770.395C1147.42 770.395 1148.33 770.152 1148.96 769.668C1149.6 769.184 1149.91 768.523 1149.91 767.688C1149.91 766.852 1149.62 766.207 1149.04 765.754C1148.45 765.293 1147.39 764.84 1145.85 764.395Z" fill="white"/>
<rect x="756.5" y="588.5" width="622" height="399" fill="#F2F2F2" stroke="black"/>
<rect x="756" y="588" width="623" height="50" fill="black"/>
<path d="M954.719 614.32V621H952.469V603.938H958.762C960.629 603.938 962.09 604.414 963.145 605.367C964.207 606.32 964.738 607.582 964.738 609.152C964.738 610.809 964.219 612.086 963.18 612.984C962.148 613.875 960.668 614.32 958.738 614.32H954.719ZM954.719 612.48H958.762C959.965 612.48 960.887 612.199 961.527 611.637C962.168 611.066 962.488 610.246 962.488 609.176C962.488 608.16 962.168 607.348 961.527 606.738C960.887 606.129 960.008 605.812 958.891 605.789H954.719V612.48ZM980.734 613.02C980.734 614.691 980.453 616.152 979.891 617.402C979.328 618.645 978.531 619.594 977.5 620.25C976.469 620.906 975.266 621.234 973.891 621.234C972.547 621.234 971.355 620.906 970.316 620.25C969.277 619.586 968.469 618.645 967.891 617.426C967.32 616.199 967.027 614.781 967.012 613.172V611.941C967.012 610.301 967.297 608.852 967.867 607.594C968.438 606.336 969.242 605.375 970.281 604.711C971.328 604.039 972.523 603.703 973.867 603.703C975.234 603.703 976.438 604.035 977.477 604.699C978.523 605.355 979.328 606.312 979.891 607.57C980.453 608.82 980.734 610.277 980.734 611.941V613.02ZM978.496 611.918C978.496 609.895 978.09 608.344 977.277 607.266C976.465 606.18 975.328 605.637 973.867 605.637C972.445 605.637 971.324 606.18 970.504 607.266C969.691 608.344 969.273 609.844 969.25 611.766V613.02C969.25 614.98 969.66 616.523 970.48 617.648C971.309 618.766 972.445 619.324 973.891 619.324C975.344 619.324 976.469 618.797 977.266 617.742C978.062 616.68 978.473 615.16 978.496 613.184V611.918ZM990.367 614.098H986.359V621H984.098V603.938H989.746C991.668 603.938 993.145 604.375 994.176 605.25C995.215 606.125 995.734 607.398 995.734 609.07C995.734 610.133 995.445 611.059 994.867 611.848C994.297 612.637 993.5 613.227 992.477 613.617L996.484 620.859V621H994.07L990.367 614.098ZM986.359 612.258H989.816C990.934 612.258 991.82 611.969 992.477 611.391C993.141 610.812 993.473 610.039 993.473 609.07C993.473 608.016 993.156 607.207 992.523 606.645C991.898 606.082 990.992 605.797 989.805 605.789H986.359V612.258ZM1009.75 605.789H1004.27V621H1002.03V605.789H996.555V603.938H1009.75V605.789ZM1021.69 613.465H1014.53V621H1012.28V603.938H1022.85V605.789H1014.53V611.625H1021.69V613.465ZM1038.67 613.02C1038.67 614.691 1038.39 616.152 1037.83 617.402C1037.27 618.645 1036.47 619.594 1035.44 620.25C1034.41 620.906 1033.2 621.234 1031.83 621.234C1030.48 621.234 1029.29 620.906 1028.25 620.25C1027.21 619.586 1026.41 618.645 1025.83 617.426C1025.26 616.199 1024.96 614.781 1024.95 613.172V611.941C1024.95 610.301 1025.23 608.852 1025.8 607.594C1026.38 606.336 1027.18 605.375 1028.22 604.711C1029.27 604.039 1030.46 603.703 1031.8 603.703C1033.17 603.703 1034.38 604.035 1035.41 604.699C1036.46 605.355 1037.27 606.312 1037.83 607.57C1038.39 608.82 1038.67 610.277 1038.67 611.941V613.02ZM1036.43 611.918C1036.43 609.895 1036.03 608.344 1035.21 607.266C1034.4 606.18 1033.27 605.637 1031.8 605.637C1030.38 605.637 1029.26 606.18 1028.44 607.266C1027.63 608.344 1027.21 609.844 1027.19 611.766V613.02C1027.19 614.98 1027.6 616.523 1028.42 617.648C1029.25 618.766 1030.38 619.324 1031.83 619.324C1033.28 619.324 1034.41 618.797 1035.2 617.742C1036 616.68 1036.41 615.16 1036.43 613.184V611.918ZM1044.31 619.16H1052.39V621H1042.05V603.938H1044.31V619.16ZM1057.38 621H1055.12V603.938H1057.38V621ZM1074.62 613.02C1074.62 614.691 1074.34 616.152 1073.78 617.402C1073.22 618.645 1072.42 619.594 1071.39 620.25C1070.36 620.906 1069.16 621.234 1067.78 621.234C1066.44 621.234 1065.25 620.906 1064.21 620.25C1063.17 619.586 1062.36 618.645 1061.78 617.426C1061.21 616.199 1060.92 614.781 1060.9 613.172V611.941C1060.9 610.301 1061.19 608.852 1061.76 607.594C1062.33 606.336 1063.13 605.375 1064.17 604.711C1065.22 604.039 1066.41 603.703 1067.76 603.703C1069.12 603.703 1070.33 604.035 1071.37 604.699C1072.41 605.355 1073.22 606.312 1073.78 607.57C1074.34 608.82 1074.62 610.277 1074.62 611.941V613.02ZM1072.39 611.918C1072.39 609.895 1071.98 608.344 1071.17 607.266C1070.36 606.18 1069.22 605.637 1067.76 605.637C1066.34 605.637 1065.21 606.18 1064.39 607.266C1063.58 608.344 1063.16 609.844 1063.14 611.766V613.02C1063.14 614.98 1063.55 616.523 1064.37 617.648C1065.2 618.766 1066.34 619.324 1067.78 619.324C1069.23 619.324 1070.36 618.797 1071.16 617.742C1071.95 616.68 1072.36 615.16 1072.39 613.184V611.918ZM1095.96 603.938V615.539C1095.96 617.148 1095.45 618.465 1094.44 619.488C1093.44 620.512 1092.08 621.086 1090.36 621.211L1089.77 621.234C1087.9 621.234 1086.41 620.73 1085.3 619.723C1084.19 618.715 1083.63 617.328 1083.61 615.562V603.938H1085.84V615.492C1085.84 616.727 1086.18 617.688 1086.86 618.375C1087.54 619.055 1088.51 619.395 1089.77 619.395C1091.04 619.395 1092.01 619.055 1092.68 618.375C1093.36 617.695 1093.7 616.738 1093.7 615.504V603.938H1095.96ZM1101.77 614.32V621H1099.52V603.938H1105.81C1107.68 603.938 1109.14 604.414 1110.19 605.367C1111.25 606.32 1111.79 607.582 1111.79 609.152C1111.79 610.809 1111.27 612.086 1110.23 612.984C1109.2 613.875 1107.71 614.32 1105.79 614.32H1101.77ZM1101.77 612.48H1105.81C1107.01 612.48 1107.93 612.199 1108.57 611.637C1109.21 611.066 1109.54 610.246 1109.54 609.176C1109.54 608.16 1109.21 607.348 1108.57 606.738C1107.93 606.129 1107.05 605.812 1105.94 605.789H1101.77V612.48ZM1114.66 621V603.938H1119.47C1120.96 603.938 1122.27 604.266 1123.41 604.922C1124.55 605.578 1125.43 606.512 1126.05 607.723C1126.67 608.934 1126.99 610.324 1127 611.895V612.984C1127 614.594 1126.68 616.004 1126.06 617.215C1125.44 618.426 1124.55 619.355 1123.4 620.004C1122.25 620.652 1120.91 620.984 1119.38 621H1114.66ZM1116.91 605.789V619.16H1119.27C1121.01 619.16 1122.36 618.621 1123.32 617.543C1124.29 616.465 1124.77 614.93 1124.77 612.938V611.941C1124.77 610.004 1124.31 608.5 1123.4 607.43C1122.49 606.352 1121.2 605.805 1119.53 605.789H1116.91ZM1139.57 616.547H1132.42L1130.82 621H1128.5L1135.01 603.938H1136.98L1143.51 621H1141.2L1139.57 616.547ZM1133.1 614.695H1138.9L1136 606.715L1133.1 614.695ZM1156.07 605.789H1150.59V621H1148.35V605.789H1142.88V603.938H1156.07V605.789ZM1168.25 613.113H1160.85V619.16H1169.44V621H1158.6V603.938H1169.32V605.789H1160.85V611.273H1168.25V613.113ZM1177.27 613.395C1175.34 612.84 1173.93 612.16 1173.05 611.355C1172.18 610.543 1171.74 609.543 1171.74 608.355C1171.74 607.012 1172.27 605.902 1173.34 605.027C1174.42 604.145 1175.82 603.703 1177.54 603.703C1178.71 603.703 1179.75 603.93 1180.67 604.383C1181.59 604.836 1182.3 605.461 1182.8 606.258C1183.31 607.055 1183.56 607.926 1183.56 608.871H1181.3C1181.3 607.84 1180.97 607.031 1180.32 606.445C1179.66 605.852 1178.73 605.555 1177.54 605.555C1176.43 605.555 1175.56 605.801 1174.94 606.293C1174.32 606.777 1174.01 607.453 1174.01 608.32C1174.01 609.016 1174.3 609.605 1174.89 610.09C1175.48 610.566 1176.49 611.004 1177.9 611.402C1179.32 611.801 1180.43 612.242 1181.23 612.727C1182.04 613.203 1182.63 613.762 1183.01 614.402C1183.4 615.043 1183.6 615.797 1183.6 616.664C1183.6 618.047 1183.06 619.156 1181.98 619.992C1180.9 620.82 1179.46 621.234 1177.66 621.234C1176.48 621.234 1175.39 621.012 1174.38 620.566C1173.36 620.113 1172.57 619.496 1172.02 618.715C1171.47 617.934 1171.2 617.047 1171.2 616.055H1173.46C1173.46 617.086 1173.84 617.902 1174.6 618.504C1175.36 619.098 1176.38 619.395 1177.66 619.395C1178.84 619.395 1179.75 619.152 1180.39 618.668C1181.02 618.184 1181.34 617.523 1181.34 616.688C1181.34 615.852 1181.04 615.207 1180.46 614.754C1179.87 614.293 1178.81 613.84 1177.27 613.395Z" fill="white"/>
<rect x="770" y="213" width="107" height="310" fill="white"/>
<rect x="891" y="213" width="110" height="310" fill="white"/>
<rect x="1012" y="213" width="110" height="310" fill="white"/>
<rect x="1134" y="213" width="109" height="310" fill="white"/>
<rect x="1257" y="213" width="108" height="310" fill="white"/>
<rect x="72" y="240" width="284" height="263" fill="#E3E3E3"/>
<rect x="72" y="452" width="284" height="50" fill="black"/>
<path d="M168.242 478.32V485H165.992V467.938H172.285C174.152 467.938 175.613 468.414 176.668 469.367C177.73 470.32 178.262 471.582 178.262 473.152C178.262 474.809 177.742 476.086 176.703 476.984C175.672 477.875 174.191 478.32 172.262 478.32H168.242ZM168.242 476.48H172.285C173.488 476.48 174.41 476.199 175.051 475.637C175.691 475.066 176.012 474.246 176.012 473.176C176.012 472.16 175.691 471.348 175.051 470.738C174.41 470.129 173.531 469.812 172.414 469.789H168.242V476.48ZM190.777 477.113H183.383V483.16H191.973V485H181.133V467.938H191.855V469.789H183.383V475.273H190.777V477.113ZM207.898 477.02C207.898 478.691 207.617 480.152 207.055 481.402C206.492 482.645 205.695 483.594 204.664 484.25C203.633 484.906 202.43 485.234 201.055 485.234C199.711 485.234 198.52 484.906 197.48 484.25C196.441 483.586 195.633 482.645 195.055 481.426C194.484 480.199 194.191 478.781 194.176 477.172V475.941C194.176 474.301 194.461 472.852 195.031 471.594C195.602 470.336 196.406 469.375 197.445 468.711C198.492 468.039 199.688 467.703 201.031 467.703C202.398 467.703 203.602 468.035 204.641 468.699C205.688 469.355 206.492 470.312 207.055 471.57C207.617 472.82 207.898 474.277 207.898 475.941V477.02ZM205.66 475.918C205.66 473.895 205.254 472.344 204.441 471.266C203.629 470.18 202.492 469.637 201.031 469.637C199.609 469.637 198.488 470.18 197.668 471.266C196.855 472.344 196.438 473.844 196.414 475.766V477.02C196.414 478.98 196.824 480.523 197.645 481.648C198.473 482.766 199.609 483.324 201.055 483.324C202.508 483.324 203.633 482.797 204.43 481.742C205.227 480.68 205.637 479.16 205.66 477.184V475.918ZM213.523 478.32V485H211.273V467.938H217.566C219.434 467.938 220.895 468.414 221.949 469.367C223.012 470.32 223.543 471.582 223.543 473.152C223.543 474.809 223.023 476.086 221.984 476.984C220.953 477.875 219.473 478.32 217.543 478.32H213.523ZM213.523 476.48H217.566C218.77 476.48 219.691 476.199 220.332 475.637C220.973 475.066 221.293 474.246 221.293 473.176C221.293 472.16 220.973 471.348 220.332 470.738C219.691 470.129 218.812 469.812 217.695 469.789H213.523V476.48ZM228.676 483.16H236.762V485H226.414V467.938H228.676V483.16ZM248.973 477.113H241.578V483.16H250.168V485H239.328V467.938H250.051V469.789H241.578V475.273H248.973V477.113Z" fill="white"/>
<rect x="72" y="570" width="284" height="263" fill="#E3E3E3"/>
<rect x="387" y="570" width="284" height="263" fill="#E3E3E3"/>
<rect x="387" y="240" width="284" height="263" fill="#E3E3E3"/>
<rect x="72" y="782" width="284" height="50" fill="black"/>
<path d="M138.391 815V797.938H143.207C144.691 797.938 146.004 798.266 147.145 798.922C148.285 799.578 149.164 800.512 149.781 801.723C150.406 802.934 150.723 804.324 150.73 805.895V806.984C150.73 808.594 150.418 810.004 149.793 811.215C149.176 812.426 148.289 813.355 147.133 814.004C145.984 814.652 144.645 814.984 143.113 815H138.391ZM140.641 799.789V813.16H143.008C144.742 813.16 146.09 812.621 147.051 811.543C148.02 810.465 148.504 808.93 148.504 806.938V805.941C148.504 804.004 148.047 802.5 147.133 801.43C146.227 800.352 144.938 799.805 143.266 799.789H140.641ZM167.266 807.02C167.266 808.691 166.984 810.152 166.422 811.402C165.859 812.645 165.062 813.594 164.031 814.25C163 814.906 161.797 815.234 160.422 815.234C159.078 815.234 157.887 814.906 156.848 814.25C155.809 813.586 155 812.645 154.422 811.426C153.852 810.199 153.559 808.781 153.543 807.172V805.941C153.543 804.301 153.828 802.852 154.398 801.594C154.969 800.336 155.773 799.375 156.812 798.711C157.859 798.039 159.055 797.703 160.398 797.703C161.766 797.703 162.969 798.035 164.008 798.699C165.055 799.355 165.859 800.312 166.422 801.57C166.984 802.82 167.266 804.277 167.266 805.941V807.02ZM165.027 805.918C165.027 803.895 164.621 802.344 163.809 801.266C162.996 800.18 161.859 799.637 160.398 799.637C158.977 799.637 157.855 800.18 157.035 801.266C156.223 802.344 155.805 803.844 155.781 805.766V807.02C155.781 808.98 156.191 810.523 157.012 811.648C157.84 812.766 158.977 813.324 160.422 813.324C161.875 813.324 163 812.797 163.797 811.742C164.594 810.68 165.004 809.16 165.027 807.184V805.918ZM183.191 809.586C182.98 811.391 182.312 812.785 181.188 813.77C180.07 814.746 178.582 815.234 176.723 815.234C174.707 815.234 173.09 814.512 171.871 813.066C170.66 811.621 170.055 809.688 170.055 807.266V805.625C170.055 804.039 170.336 802.645 170.898 801.441C171.469 800.238 172.273 799.316 173.312 798.676C174.352 798.027 175.555 797.703 176.922 797.703C178.734 797.703 180.188 798.211 181.281 799.227C182.375 800.234 183.012 801.633 183.191 803.422H180.93C180.734 802.062 180.309 801.078 179.652 800.469C179.004 799.859 178.094 799.555 176.922 799.555C175.484 799.555 174.355 800.086 173.535 801.148C172.723 802.211 172.316 803.723 172.316 805.684V807.336C172.316 809.188 172.703 810.66 173.477 811.754C174.25 812.848 175.332 813.395 176.723 813.395C177.973 813.395 178.93 813.113 179.594 812.551C180.266 811.98 180.711 810.992 180.93 809.586H183.191ZM198.285 797.938V809.539C198.277 811.148 197.77 812.465 196.762 813.488C195.762 814.512 194.402 815.086 192.684 815.211L192.086 815.234C190.219 815.234 188.73 814.73 187.621 813.723C186.512 812.715 185.949 811.328 185.934 809.562V797.938H188.16V809.492C188.16 810.727 188.5 811.688 189.18 812.375C189.859 813.055 190.828 813.395 192.086 813.395C193.359 813.395 194.332 813.055 195.004 812.375C195.684 811.695 196.023 810.738 196.023 809.504V797.938H198.285ZM204.742 797.938L210.32 811.859L215.898 797.938H218.816V815H216.566V808.355L216.777 801.184L211.176 815H209.453L203.863 801.219L204.086 808.355V815H201.836V797.938H204.742ZM232.434 807.113H225.039V813.16H233.629V815H222.789V797.938H233.512V799.789H225.039V805.273H232.434V807.113ZM249.543 815H247.281L238.691 801.852V815H236.43V797.938H238.691L247.305 811.145V797.938H249.543V815ZM264.977 799.789H259.492V815H257.254V799.789H251.781V797.938H264.977V799.789ZM272.348 807.395C270.418 806.84 269.012 806.16 268.129 805.355C267.254 804.543 266.816 803.543 266.816 802.355C266.816 801.012 267.352 799.902 268.422 799.027C269.5 798.145 270.898 797.703 272.617 797.703C273.789 797.703 274.832 797.93 275.746 798.383C276.668 798.836 277.379 799.461 277.879 800.258C278.387 801.055 278.641 801.926 278.641 802.871H276.379C276.379 801.84 276.051 801.031 275.395 800.445C274.738 799.852 273.812 799.555 272.617 799.555C271.508 799.555 270.641 799.801 270.016 800.293C269.398 800.777 269.09 801.453 269.09 802.32C269.09 803.016 269.383 803.605 269.969 804.09C270.562 804.566 271.566 805.004 272.98 805.402C274.402 805.801 275.512 806.242 276.309 806.727C277.113 807.203 277.707 807.762 278.09 808.402C278.48 809.043 278.676 809.797 278.676 810.664C278.676 812.047 278.137 813.156 277.059 813.992C275.98 814.82 274.539 815.234 272.734 815.234C271.562 815.234 270.469 815.012 269.453 814.566C268.438 814.113 267.652 813.496 267.098 812.715C266.551 811.934 266.277 811.047 266.277 810.055H268.539C268.539 811.086 268.918 811.902 269.676 812.504C270.441 813.098 271.461 813.395 272.734 813.395C273.922 813.395 274.832 813.152 275.465 812.668C276.098 812.184 276.414 811.523 276.414 810.688C276.414 809.852 276.121 809.207 275.535 808.754C274.949 808.293 273.887 807.84 272.348 807.395Z" fill="white"/>
<rect x="387" y="782" width="284" height="50" fill="black"/>
<path d="M490.809 807.465H483.648V815H481.398V797.938H491.969V799.789H483.648V805.625H490.809V807.465ZM497.078 815H494.828V797.938H497.078V815ZM514.316 815H512.055L503.465 801.852V815H501.203V797.938H503.465L512.078 811.145V797.938H514.316V815ZM527.945 810.547H520.797L519.191 815H516.871L523.387 797.938H525.355L531.883 815H529.574L527.945 810.547ZM521.477 808.695H527.277L524.371 800.715L521.477 808.695ZM547.293 815H545.031L536.441 801.852V815H534.18V797.938H536.441L545.055 811.145V797.938H547.293V815ZM563.84 809.586C563.629 811.391 562.961 812.785 561.836 813.77C560.719 814.746 559.23 815.234 557.371 815.234C555.355 815.234 553.738 814.512 552.52 813.066C551.309 811.621 550.703 809.688 550.703 807.266V805.625C550.703 804.039 550.984 802.645 551.547 801.441C552.117 800.238 552.922 799.316 553.961 798.676C555 798.027 556.203 797.703 557.57 797.703C559.383 797.703 560.836 798.211 561.93 799.227C563.023 800.234 563.66 801.633 563.84 803.422H561.578C561.383 802.062 560.957 801.078 560.301 800.469C559.652 799.859 558.742 799.555 557.57 799.555C556.133 799.555 555.004 800.086 554.184 801.148C553.371 802.211 552.965 803.723 552.965 805.684V807.336C552.965 809.188 553.352 810.66 554.125 811.754C554.898 812.848 555.98 813.395 557.371 813.395C558.621 813.395 559.578 813.113 560.242 812.551C560.914 811.98 561.359 810.992 561.578 809.586H563.84ZM576.566 807.113H569.172V813.16H577.762V815H566.922V797.938H577.645V799.789H569.172V805.273H576.566V807.113Z" fill="white"/>
<rect x="387" y="452" width="284" height="50" fill="black"/>
<path d="M470.711 478.098H466.703V485H464.441V467.938H470.09C472.012 467.938 473.488 468.375 474.52 469.25C475.559 470.125 476.078 471.398 476.078 473.07C476.078 474.133 475.789 475.059 475.211 475.848C474.641 476.637 473.844 477.227 472.82 477.617L476.828 484.859V485H474.414L470.711 478.098ZM466.703 476.258H470.16C471.277 476.258 472.164 475.969 472.82 475.391C473.484 474.812 473.816 474.039 473.816 473.07C473.816 472.016 473.5 471.207 472.867 470.645C472.242 470.082 471.336 469.797 470.148 469.789H466.703V476.258ZM488.887 477.113H481.492V483.16H490.082V485H479.242V467.938H489.965V469.789H481.492V475.273H488.887V477.113ZM497.91 477.395C495.98 476.84 494.574 476.16 493.691 475.355C492.816 474.543 492.379 473.543 492.379 472.355C492.379 471.012 492.914 469.902 493.984 469.027C495.062 468.145 496.461 467.703 498.18 467.703C499.352 467.703 500.395 467.93 501.309 468.383C502.23 468.836 502.941 469.461 503.441 470.258C503.949 471.055 504.203 471.926 504.203 472.871H501.941C501.941 471.84 501.613 471.031 500.957 470.445C500.301 469.852 499.375 469.555 498.18 469.555C497.07 469.555 496.203 469.801 495.578 470.293C494.961 470.777 494.652 471.453 494.652 472.32C494.652 473.016 494.945 473.605 495.531 474.09C496.125 474.566 497.129 475.004 498.543 475.402C499.965 475.801 501.074 476.242 501.871 476.727C502.676 477.203 503.27 477.762 503.652 478.402C504.043 479.043 504.238 479.797 504.238 480.664C504.238 482.047 503.699 483.156 502.621 483.992C501.543 484.82 500.102 485.234 498.297 485.234C497.125 485.234 496.031 485.012 495.016 484.566C494 484.113 493.215 483.496 492.66 482.715C492.113 481.934 491.84 481.047 491.84 480.055H494.102C494.102 481.086 494.48 481.902 495.238 482.504C496.004 483.098 497.023 483.395 498.297 483.395C499.484 483.395 500.395 483.152 501.027 482.668C501.66 482.184 501.977 481.523 501.977 480.688C501.977 479.852 501.684 479.207 501.098 478.754C500.512 478.293 499.449 477.84 497.91 477.395ZM520.258 477.02C520.258 478.691 519.977 480.152 519.414 481.402C518.852 482.645 518.055 483.594 517.023 484.25C515.992 484.906 514.789 485.234 513.414 485.234C512.07 485.234 510.879 484.906 509.84 484.25C508.801 483.586 507.992 482.645 507.414 481.426C506.844 480.199 506.551 478.781 506.535 477.172V475.941C506.535 474.301 506.82 472.852 507.391 471.594C507.961 470.336 508.766 469.375 509.805 468.711C510.852 468.039 512.047 467.703 513.391 467.703C514.758 467.703 515.961 468.035 517 468.699C518.047 469.355 518.852 470.312 519.414 471.57C519.977 472.82 520.258 474.277 520.258 475.941V477.02ZM518.02 475.918C518.02 473.895 517.613 472.344 516.801 471.266C515.988 470.18 514.852 469.637 513.391 469.637C511.969 469.637 510.848 470.18 510.027 471.266C509.215 472.344 508.797 473.844 508.773 475.766V477.02C508.773 478.98 509.184 480.523 510.004 481.648C510.832 482.766 511.969 483.324 513.414 483.324C514.867 483.324 515.992 482.797 516.789 481.742C517.586 480.68 517.996 479.16 518.02 477.184V475.918ZM535.645 467.938V479.539C535.637 481.148 535.129 482.465 534.121 483.488C533.121 484.512 531.762 485.086 530.043 485.211L529.445 485.234C527.578 485.234 526.09 484.73 524.98 483.723C523.871 482.715 523.309 481.328 523.293 479.562V467.938H525.52V479.492C525.52 480.727 525.859 481.688 526.539 482.375C527.219 483.055 528.188 483.395 529.445 483.395C530.719 483.395 531.691 483.055 532.363 482.375C533.043 481.695 533.383 480.738 533.383 479.504V467.938H535.645ZM545.453 478.098H541.445V485H539.184V467.938H544.832C546.754 467.938 548.23 468.375 549.262 469.25C550.301 470.125 550.82 471.398 550.82 473.07C550.82 474.133 550.531 475.059 549.953 475.848C549.383 476.637 548.586 477.227 547.562 477.617L551.57 484.859V485H549.156L545.453 478.098ZM541.445 476.258H544.902C546.02 476.258 546.906 475.969 547.562 475.391C548.227 474.812 548.559 474.039 548.559 473.07C548.559 472.016 548.242 471.207 547.609 470.645C546.984 470.082 546.078 469.797 544.891 469.789H541.445V476.258ZM566.535 479.586C566.324 481.391 565.656 482.785 564.531 483.77C563.414 484.746 561.926 485.234 560.066 485.234C558.051 485.234 556.434 484.512 555.215 483.066C554.004 481.621 553.398 479.688 553.398 477.266V475.625C553.398 474.039 553.68 472.645 554.242 471.441C554.812 470.238 555.617 469.316 556.656 468.676C557.695 468.027 558.898 467.703 560.266 467.703C562.078 467.703 563.531 468.211 564.625 469.227C565.719 470.234 566.355 471.633 566.535 473.422H564.273C564.078 472.062 563.652 471.078 562.996 470.469C562.348 469.859 561.438 469.555 560.266 469.555C558.828 469.555 557.699 470.086 556.879 471.148C556.066 472.211 555.66 473.723 555.66 475.684V477.336C555.66 479.188 556.047 480.66 556.82 481.754C557.594 482.848 558.676 483.395 560.066 483.395C561.316 483.395 562.273 483.113 562.938 482.551C563.609 481.98 564.055 480.992 564.273 479.586H566.535ZM579.262 477.113H571.867V483.16H580.457V485H569.617V467.938H580.34V469.789H571.867V475.273H579.262V477.113ZM588.285 477.395C586.355 476.84 584.949 476.16 584.066 475.355C583.191 474.543 582.754 473.543 582.754 472.355C582.754 471.012 583.289 469.902 584.359 469.027C585.438 468.145 586.836 467.703 588.555 467.703C589.727 467.703 590.77 467.93 591.684 468.383C592.605 468.836 593.316 469.461 593.816 470.258C594.324 471.055 594.578 471.926 594.578 472.871H592.316C592.316 471.84 591.988 471.031 591.332 470.445C590.676 469.852 589.75 469.555 588.555 469.555C587.445 469.555 586.578 469.801 585.953 470.293C585.336 470.777 585.027 471.453 585.027 472.32C585.027 473.016 585.32 473.605 585.906 474.09C586.5 474.566 587.504 475.004 588.918 475.402C590.34 475.801 591.449 476.242 592.246 476.727C593.051 477.203 593.645 477.762 594.027 478.402C594.418 479.043 594.613 479.797 594.613 480.664C594.613 482.047 594.074 483.156 592.996 483.992C591.918 484.82 590.477 485.234 588.672 485.234C587.5 485.234 586.406 485.012 585.391 484.566C584.375 484.113 583.59 483.496 583.035 482.715C582.488 481.934 582.215 481.047 582.215 480.055H584.477C584.477 481.086 584.855 481.902 585.613 482.504C586.379 483.098 587.398 483.395 588.672 483.395C589.859 483.395 590.77 483.152 591.402 482.668C592.035 482.184 592.352 481.523 592.352 480.688C592.352 479.852 592.059 479.207 591.473 478.754C590.887 478.293 589.824 477.84 588.285 477.395Z" fill="white"/>
</svg>
